<?xml version="1.0" standalone="no"?>
<!DOCTYPE svg PUBLIC "-//W3C//DTD SVG 1.1//EN" "http://www.w3.org/Graphics/SVG/1.1/DTD/svg11.dtd" >
<svg xmlns="http://www.w3.org/2000/svg" xmlns:xlink="http://www.w3.org/1999/xlink" version="1.1">
<metadata>
Created by FontForge 20170731 at Sun Sep 19 03:12:19 2021
 By Aleksey,,,
Copyright (c) 2015, Impallari Type (www.impallari.com)
</metadata>
<defs>
<font id="PublicSans-ThinItalic" horiz-adv-x="0" >
  <font-face 
    font-family="Public Sans Thin"
    font-weight="100"
    font-style="italic"
    font-stretch="normal"
    units-per-em="2048"
    panose-1="0 0 0 0 0 0 0 0 0 0"
    ascent="1638"
    descent="-410"
    x-height="1059"
    cap-height="1481"
    bbox="-376 -492 2409 2072.25"
    underline-thickness="143"
    underline-position="-521"
    slope="-8"
    unicode-range="U+000D-FB02"
  />
<missing-glyph horiz-adv-x="1737" 
d="M438 -330q-31 0 -43 11.5t-12 37.5v1926q0 47 39 47h940q37 0 37 -43v-1921q0 -31 -16.5 -44.5t-51.5 -13.5h-893zM1264 1591h-703l733 -1708v1673q0 15 -8.5 25t-21.5 10zM532 -229h688l-733 1696v-1655q0 -21 10 -31t35 -10z" />
    <glyph glyph-name="fi" unicode="fi" horiz-adv-x="1219" 
d="M256 0l138 989h-233l11 70h230l26 176q18 125 76 185.5t167 60.5h142l-9 -70h-161q-66 0 -97.5 -39.5t-42.5 -120.5l-27 -192h268l-10 -70h-267l-138 -989h-73zM1061 1356l17 123h90l-17 -123h-90zM879 0l149 1059h75l-149 -1059h-75z" />
    <glyph glyph-name="fl" unicode="fl" horiz-adv-x="1309" 
d="M1051 -8q-92 0 -127 70t-19 186l180 1274h75l-181 -1274q-13 -95 13 -142t71 -47h59l-7 -59q-35 -8 -64 -8zM256 0l138 989h-233l11 70h230l26 176q18 125 76 185.5t167 60.5h142l-9 -70h-161q-66 0 -97.5 -39.5t-42.5 -120.5l-27 -192h268l-10 -70h-267l-138 -989h-73z
" />
    <glyph glyph-name="colon_one_eight_F_colon.liga" unicode="&#x3a;&#x31;&#x38;F&#x3a;" horiz-adv-x="1768" 
d="M166 0q-25 0 -25 27v1507q0 25 25 25h1509q23 0 23 -25v-1507q0 -27 -23 -27h-1509zM895 479q71 0 122.5 52t51.5 124q0 93 -76 144q56 53 56 119q0 63 -46 108t-108 45q-67 0 -112.5 -44.5t-45.5 -108.5q0 -63 56 -119q-76 -51 -76 -144q0 -73 51.5 -124.5t126.5 -51.5z
M567 489h56q8 0 8 9v557q0 10 -8 10h-138q-8 0 -8 -10v-54q0 -8 8 -8h74v-495q0 -9 8 -9zM1163 489h54q12 0 12 9v254h125q8 0 8 8v51q0 10 -8 10h-125v172h149q7 0 7 8v54q0 10 -7 10h-215q-8 0 -8 -10v-557q0 -9 8 -9zM895 836q-37 0 -61.5 23t-24.5 59q0 35 24.5 59
t61.5 24q34 0 58 -24t24 -59q0 -36 -24 -59t-58 -23zM895 551q-44 0 -75.5 30.5t-31.5 73.5q0 44 31.5 74.5t75.5 30.5q43 0 72.5 -30.5t29.5 -74.5q0 -43 -29.5 -73.5t-72.5 -30.5z" />
    <glyph glyph-name="colon_f_l_a_g_two_colon.liga" unicode="&#x3a;flag&#x32;&#x3a;" horiz-adv-x="2565" 
d="M226 1559h2183v-1557h-2183v1557zM2281 1430h-1094v-109h1094v109zM419 1319v-121h129v121h-129zM902 1319v-121h125v121h-125zM663 1198v-119h124v119h-124zM1187 1081h1094v113h-1094v-113zM423 1079v-121h125v121h-125zM902 1079v-121h125v121h-125zM663 958v-118h124
v118h-124zM1187 842h1094v112h-1094v-112zM423 840v-121h125v121h-125zM902 840v-121h125v121h-125zM1187 602h1094v113h-1094v-113zM352 362h1929v113h-1930zM353 129h1928v107h-1929z" />
    <glyph glyph-name="colon_f_l_a_g_colon.liga" unicode="&#x3a;flag&#x3a;" horiz-adv-x="2565" 
d="M226 1559h2183v-1557h-2183v1557zM1185 840h1106v118h-1106v121h1106v119h-1106v121h1106v119h-1946v-838h1946v119h-1106v121zM945 1319h119v-121h-119v121zM466 1319h119v-121h-119v121zM706 1198h118v-119h-118v119zM466 1079h119v-121h-119v121zM945 1079h119v-121
h-119v121zM706 958h118v-118h-118v118zM466 840h119v-121h-119v121zM945 840h119v-121h-119v121zM345 360h1946v119h-1946v-119zM345 121h1946v119h-1946v-119z" />
    <glyph glyph-name=".notdef" horiz-adv-x="1737" 
d="M438 -330q-31 0 -43 11.5t-12 37.5v1926q0 47 39 47h940q37 0 37 -43v-1921q0 -31 -16.5 -44.5t-51.5 -13.5h-893zM1264 1591h-703l733 -1708v1673q0 15 -8.5 25t-21.5 10zM532 -229h688l-733 1696v-1655q0 -21 10 -31t35 -10z" />
    <glyph glyph-name="uni0000" horiz-adv-x="55" 
 />
    <glyph glyph-name="uni0000" horiz-adv-x="55" 
 />
    <glyph glyph-name="nonmarkingreturn" horiz-adv-x="682" 
 />
    <glyph glyph-name="CR" unicode="&#xd;" horiz-adv-x="468" 
 />
    <glyph glyph-name="space" unicode=" " horiz-adv-x="532" 
 />
    <glyph glyph-name="exclam" unicode="!" horiz-adv-x="442" 
d="M159 295l149 1186h96l-186 -1186h-59zM91 0l21 158h114l-22 -158h-113z" />
    <glyph glyph-name="quotedbl" unicode="&#x22;" horiz-adv-x="747" 
d="M560 1098l17 383h141l-94 -383h-64zM282 1098l16 383h141l-94 -383h-63z" />
    <glyph glyph-name="numbersign" unicode="#" horiz-adv-x="1159" 
d="M344 -2l-76 12l76 490h-246v75h257l54 345h-245v75h257l75 488l75 -10l-73 -478h328l75 488l76 -10l-74 -478h219v-75h-230l-53 -345h218v-75h-230l-77 -502l-76 12l76 490h-328zM433 575h328l53 345h-328z" />
    <glyph glyph-name="dollar" unicode="$" horiz-adv-x="1219" 
d="M469 -233l30 214q-170 11 -273 106t-109 255l80 18q17 -147 110.5 -220.5t247.5 -73.5q93 0 182.5 34t155.5 102.5t78 155.5q17 115 -32.5 191.5t-172.5 118.5l-236 82q-147 52 -215.5 133t-50.5 207q24 168 150.5 281.5t313.5 126.5l30 214h86l-30 -215
q158 -14 240.5 -126t75.5 -265l-75 -16q-12 325 -301 325q-63 0 -128 -19.5t-124.5 -57t-102 -101.5t-53.5 -145q-13 -94 40.5 -150.5t207.5 -114.5l221 -82q145 -54 200.5 -153.5t37.5 -229.5q-22 -155 -153.5 -262t-316.5 -119l-30 -214h-84z" />
    <glyph glyph-name="percent" unicode="%" horiz-adv-x="1656" 
d="M441 653q-135 0 -202 110.5t-39 315.5q28 203 126.5 313.5t233.5 110.5q136 0 202.5 -110t37.5 -314q-30 -206 -126.5 -316t-232.5 -110zM275 -8h-67l1252 1505h66zM447 713q106 0 185.5 102.5t101.5 263.5q23 160 -27.5 262.5t-156.5 102.5q-104 0 -183.5 -103
t-103.5 -262q-22 -160 28 -263t156 -103zM1158 -20q-135 0 -202 111t-37 317q29 202 126.5 312.5t233.5 110.5q134 0 200.5 -110.5t37.5 -312.5q-28 -207 -125.5 -317.5t-233.5 -110.5zM1166 41q102 0 183.5 105t103.5 260t-30 259.5t-154 104.5t-183.5 -105t-103.5 -259
q-22 -155 30 -260t154 -105z" />
    <glyph glyph-name="ampersand" unicode="&#x26;" horiz-adv-x="1207" 
d="M389 -10q-174 0 -263.5 105t-66.5 278q20 138 109.5 245t257.5 197q-149 196 -123 383q19 130 115.5 217.5t228.5 87.5q85 0 154.5 -36t107 -108t23.5 -165q-29 -220 -400 -408l316 -487q56 52 120.5 172t90.5 283h63q-29 -170 -86 -286.5t-151 -223.5l155 -244h-90
l-123 184q-218 -194 -438 -194zM500 848q102 57 171 105.5t107 91t55 77.5t23 76q9 61 -6.5 106.5t-49.5 71t-75.5 37.5t-89.5 12q-104 0 -172.5 -66t-81.5 -159q-12 -88 22 -175.5t74 -141.5zM408 66q193 0 385 176l-332 514q-138 -75 -223 -173.5t-103 -217.5
q-19 -132 59.5 -215.5t213.5 -83.5z" />
    <glyph glyph-name="quotesingle" unicode="'" horiz-adv-x="468" 
d="M282 1098l16 383h141l-94 -383h-63z" />
    <glyph glyph-name="parenleft" unicode="(" horiz-adv-x="529" 
d="M307 -213q-91 231 -122.5 441.5t1.5 457.5q34 240 140 475t258 436h45q-292 -476 -353 -913q-60 -428 76 -897h-45z" />
    <glyph glyph-name="parenright" unicode=")" horiz-adv-x="549" 
d="M272 1593q91 -231 122.5 -441.5t-1.5 -457.5q-34 -241 -140 -475.5t-257 -435.5h-45q132 214 226 449.5t126 463.5q60 428 -76 897h45z" />
    <glyph glyph-name="asterisk" unicode="*" horiz-adv-x="643" 
d="M279 901l-66 43l176 227l-237 70l22 66l229 -84l-14 258h84l-10 -258l231 96l21 -64l-234 -81l170 -216l-65 -49l-150 238z" />
    <glyph glyph-name="plus" unicode="+" horiz-adv-x="1003" 
d="M442 344l51 362l-335 -1l10 75l335 1l50 364h70l-51 -364l333 1l-10 -75l-333 -1l-50 -362h-70z" />
    <glyph glyph-name="comma" unicode="," horiz-adv-x="404" 
d="M-25 -227l134 227h-68l22 164h156l-18 -139l-166 -252h-60z" />
    <glyph glyph-name="hyphen" unicode="-" horiz-adv-x="702" 
d="M125 489l10 80l443 2l-11 -79z" />
    <glyph glyph-name="period" unicode="." horiz-adv-x="360" 
d="M48 0l23 158h114l-22 -158h-115z" />
    <glyph glyph-name="slash" unicode="/" horiz-adv-x="606" 
d="M-60 -121l692 1602h78l-693 -1602h-77z" />
    <glyph glyph-name="zero" unicode="0" horiz-adv-x="1114" 
d="M478 -23q-208 0 -301.5 191t-40.5 565q53 378 201.5 573t356.5 195q207 0 300.5 -194t41.5 -570q-53 -375 -201.5 -567.5t-356.5 -192.5zM494 61q357 0 453 676q96 680 -265 680q-174 0 -292.5 -167t-167.5 -513q-48 -344 24 -510t248 -166z" />
    <glyph glyph-name="one" unicode="1" horiz-adv-x="756" 
d="M310 0l176 1247h-282l10 80q126 0 193 16t93 47t35 91h64l-209 -1481h-80z" />
    <glyph glyph-name="two" unicode="2" horiz-adv-x="1073" 
d="M62 0l13 84l6 45q15 109 68 197.5t126 149t158.5 113.5t170.5 103.5t157.5 106t124 134.5t65.5 175q20 138 -58.5 222.5t-228.5 84.5q-161 0 -268.5 -96t-133.5 -246h-83q31 181 166.5 304.5t336.5 123.5q182 0 277.5 -108.5t70.5 -286.5q-12 -86 -47.5 -159t-85 -126.5
t-111 -100t-127.5 -85.5t-132 -77.5t-127 -81.5t-110 -91.5t-83 -113.5t-45 -142l-6 -45h747l-12 -84h-829z" />
    <glyph glyph-name="three" unicode="3" horiz-adv-x="1144" 
d="M474 -23q-181 3 -292 118t-94 298h84q-2 -151 84 -241.5t240 -90.5q175 0 296 91t142 239q16 112 -31.5 191.5t-137.5 117t-209 37.5h-116l13 84h115q104 0 199.5 44.5t156.5 117t73 152.5q7 53 -8 102.5t-51 90t-101 65t-149 24.5q-63 0 -126.5 -22t-119.5 -63.5
t-96 -109t-52 -149.5h-83q18 124 90.5 223t176.5 152t218 53q196 0 301.5 -101t82.5 -265q-15 -112 -99.5 -205.5t-221.5 -143.5q148 -45 214 -147t46 -242q-27 -189 -176.5 -306t-368.5 -114z" />
    <glyph glyph-name="four" unicode="4" horiz-adv-x="1145" 
d="M684 0l59 428h-655l14 100l783 953h84l-134 -969h240l-12 -84h-242l-59 -428h-78zM180 512h569l117 831z" />
    <glyph glyph-name="five" unicode="5" horiz-adv-x="1165" 
d="M518 -23q-178 0 -296.5 113.5t-133.5 298.5h88q23 -152 117.5 -242t240.5 -90q171 0 289 113t146 313q25 181 -65.5 291.5t-235.5 110.5q-118 0 -204.5 -38t-181.5 -155h-94l171 789h757l-11 -82h-677l-127 -600q133 166 378 166q84 0 157.5 -31t128 -89t79 -151.5
t8.5 -208.5q-31 -227 -179 -367.5t-355 -140.5z" />
    <glyph glyph-name="six" unicode="6" horiz-adv-x="1125" 
d="M509 -23q-219 0 -321.5 197t-52.5 549q34 236 111.5 408.5t204.5 271t290 98.5q151 0 249.5 -92t108.5 -252h-77q-13 119 -90.5 191.5t-201.5 72.5q-219 0 -354 -199t-177 -601q52 153 174.5 249.5t267.5 96.5q199 0 301 -128.5t70 -355.5q-32 -230 -166 -368t-337 -138z
M526 61q154 0 264.5 115t136.5 303q27 188 -44 296t-245 108q-143 0 -266.5 -106t-145.5 -259q-30 -195 53 -326t247 -131z" />
    <glyph glyph-name="seven" unicode="7" horiz-adv-x="1100" 
d="M271 0q92 266 295.5 659t456.5 740h-799l13 82h896l-14 -82q-229 -300 -459 -731t-307 -668h-82z" />
    <glyph glyph-name="eight" unicode="8" horiz-adv-x="1200" 
d="M521 -23q-223 0 -341 113.5t-92 300.5q19 129 124 244t221 137q-103 45 -152 130t-31 208q26 181 161.5 286t323.5 105q123 0 213.5 -45.5t134.5 -135t27 -210.5q-35 -245 -276 -338q110 -22 184 -137t55 -244q-26 -187 -176.5 -300.5t-375.5 -113.5zM639 817
q159 0 264 79t124 218q20 140 -63.5 222.5t-240.5 82.5q-155 0 -262 -83t-126 -222q-20 -139 63 -218t241 -79zM532 57q186 0 310.5 89.5t145.5 238.5t-78.5 244.5t-283.5 95.5q-182 0 -308.5 -95.5t-147.5 -244.5t78.5 -238.5t283.5 -89.5z" />
    <glyph glyph-name="nine" unicode="9" horiz-adv-x="1134" 
d="M445 -23q-152 0 -254 90.5t-113 249.5h78q13 -118 94 -189t207 -71q220 0 359 199.5t181 599.5q-52 -153 -174 -249.5t-267 -96.5q-200 0 -301 128t-69 355q32 231 165.5 369.5t336.5 138.5q218 0 319.5 -197.5t51.5 -549.5q-33 -235 -113 -408t-208.5 -271t-292.5 -98z
M558 594q144 0 267.5 105.5t144.5 258.5q30 195 -53 327t-246 132q-153 0 -264 -116t-137 -304q-17 -124 6 -212.5t94 -139.5t188 -51z" />
    <glyph glyph-name="colon" unicode=":" horiz-adv-x="361" 
d="M168 840l22 159h115l-22 -159h-115zM49 6l23 158h114l-22 -158h-115z" />
    <glyph glyph-name="semicolon" unicode=";" horiz-adv-x="400" 
d="M198 840l20 159h117l-23 -159h-114zM11 -268l129 268h-51l21 158h114l-18 -140l-156 -286h-39z" />
    <glyph glyph-name="less" unicode="&#x3c;" horiz-adv-x="991" 
d="M831 356l-677 310l12 96l768 317l-12 -100l-650 -264l572 -266z" />
    <glyph glyph-name="equal" unicode="=" horiz-adv-x="1004" 
d="M186 905l11 76l737 2l-10 -76zM125 465l10 76l737 2l-10 -76z" />
    <glyph glyph-name="greater" unicode="&#x3e;" horiz-adv-x="989" 
d="M111 356l14 93l645 266l-573 264l14 100l678 -317l-15 -96z" />
    <glyph glyph-name="question" unicode="?" horiz-adv-x="968" 
d="M379 299q11 81 42 154t72.5 129.5t89.5 109.5t95.5 103.5t88.5 101t71 113t39 129.5q19 128 -53.5 203t-211.5 75q-107 0 -216 -63t-152 -148l-72 39q75 117 198 186.5t255 69.5q178 0 269.5 -98t68.5 -264q-10 -73 -41 -139.5t-73 -119.5t-90.5 -104.5t-97.5 -103.5
t-91 -106t-73 -122.5t-42 -144.5h-76zM319 0l23 158h113l-23 -158h-113z" />
    <glyph glyph-name="at" unicode="@" horiz-adv-x="1592" 
d="M712 -225q-130 0 -237.5 38t-180.5 106t-122 161.5t-61.5 204.5t1.5 235q23 161 97.5 307t184 254.5t255.5 173t303 64.5q95 0 181.5 -23t162.5 -74t127.5 -124t73.5 -181t4 -237q-32 -227 -153.5 -372.5t-270.5 -145.5q-69 0 -102.5 25t-37.5 89q-1 13 -6 14.5t-15 -9.5
q-116 -148 -282 -148q-99 0 -159 99t-37 253q28 196 144.5 329.5t264.5 133.5q75 0 127 -38t74 -105q0 -5 6 -2q4 4 6 8l33 86h75l-136 -469q-28 -101 -13.5 -140.5t72.5 -39.5q108 0 199 117.5t116 302.5q17 117 -2 213.5t-64 161t-111 108.5t-139.5 64t-152.5 20
q-189 0 -349.5 -98.5t-260 -261.5t-127.5 -359q-14 -86 -5.5 -168t31 -154.5t69.5 -133t109 -104.5t149.5 -68.5t192.5 -24.5q60 0 110 9t98 32t77 40.5t83 53.5l38 -70q-214 -153 -440 -153zM656 221q97 0 189 90t129 219q34 114 18 187.5t-56.5 108t-96.5 34.5
q-115 0 -201 -107.5t-109 -265.5q-19 -125 15.5 -195.5t111.5 -70.5z" />
    <glyph glyph-name="A" unicode="A" horiz-adv-x="1335" 
d="M43 0l707 1481h104l289 -1481h-81l-90 467h-625l-225 -467h-79zM386 555h570l-163 840z" />
    <glyph glyph-name="B" unicode="B" horiz-adv-x="1264" 
d="M151 0l208 1481h380q230 0 343 -100.5t87 -286.5q-20 -130 -94 -214.5t-223 -128.5q145 -27 209.5 -119t42.5 -241q-27 -194 -172 -292.5t-390 -98.5h-391zM335 791h329q56 0 107.5 7.5t107.5 28t99 53t75.5 87t41.5 125.5q22 156 -77 231.5t-294 75.5h-303zM237 84h302
q225 0 347 71.5t145 231.5q12 86 -11.5 149.5t-77 100t-124 53.5t-160.5 17h-333z" />
    <glyph glyph-name="C" unicode="C" horiz-adv-x="1282" 
d="M603 -20q-267 0 -380.5 191.5t-64.5 565.5q49 375 213 569.5t430 194.5q98 0 180 -37t134.5 -99t80.5 -141t26 -165h-84q-6 100 -43.5 179t-116 129t-188.5 50q-461 0 -549 -680q-44 -340 48.5 -507t323.5 -167q162 0 277.5 101.5t164.5 256.5h84q-27 -114 -101 -213.5
t-189.5 -163.5t-245.5 -64z" />
    <glyph glyph-name="D" unicode="D" horiz-adv-x="1296" 
d="M154 0l205 1481h13q13 0 35.5 -0.5t49.5 -1t61 -0.5h65q325 -1 475.5 -133t150.5 -408q0 -160 -26 -295t-88.5 -256t-158.5 -205t-243.5 -133t-336.5 -49h-202zM246 84h111q772 0 772 842q0 134 -37 226.5t-113 145.5t-177.5 76t-244.5 23h-127z" />
    <glyph glyph-name="E" unicode="E" horiz-adv-x="1177" 
d="M151 0l208 1481h783l-13 -82h-708l-86 -608h659l-10 -84h-659l-88 -621l735 -2l-13 -84h-808z" />
    <glyph glyph-name="F" unicode="F" horiz-adv-x="1110" 
d="M153 0l206 1481h770l-10 -82h-690l-84 -606h639l-10 -84h-641l-101 -709h-79z" />
    <glyph glyph-name="G" unicode="G" horiz-adv-x="1371" 
d="M599 -20q-262 0 -377.5 193.5t-63.5 563.5q52 369 223 566.5t432 197.5q112 0 209 -61.5t151.5 -164t48.5 -216.5h-83q-2 93 -44 174.5t-120 132.5t-174 51q-221 0 -369 -172.5t-196 -507.5q-46 -335 53 -506.5t321 -171.5q105 0 195.5 43.5t149.5 112t96 145t48 150.5
l24 172h-383l11 72h456l-105 -754h-75l37 258q-77 -125 -196 -201.5t-269 -76.5z" />
    <glyph glyph-name="H" unicode="H" horiz-adv-x="1478" 
d="M152 0l207 1481h74l-94 -668h881l93 668h73l-207 -1481h-74l102 729h-879l-103 -729h-73z" />
    <glyph glyph-name="I" unicode="I" horiz-adv-x="526" 
d="M153 0l206 1481h74l-207 -1481h-73z" />
    <glyph glyph-name="J" unicode="J" horiz-adv-x="734" 
d="M248 -20q-69 0 -127 22t-72 37l31 88q1 -1 36 -23t66 -31.5t74 -9.5q89 0 132.5 56t62.5 196l164 1166h73l-168 -1194q-22 -151 -84.5 -229t-187.5 -78z" />
    <glyph glyph-name="K" unicode="K" horiz-adv-x="1253" 
d="M151 0l208 1481h76l-119 -854l844 854h101l-574 -584l397 -897h-96l-373 834l-315 -326l-72 -508h-77z" />
    <glyph glyph-name="L" unicode="L" horiz-adv-x="1119" 
d="M151 0l208 1481h80l-196 -1393h696l-12 -88h-776z" />
    <glyph glyph-name="M" unicode="M" horiz-adv-x="1644" 
d="M153 0l206 1481h84l314 -1391l714 1391h80l-206 -1481h-82l178 1262l-641 -1262h-109l-282 1245l-177 -1245h-79z" />
    <glyph glyph-name="N" unicode="N" horiz-adv-x="1404" 
d="M151 0l208 1481h60l635 -1321l186 1321h74l-209 -1481h-64l-630 1317l-187 -1317h-73z" />
    <glyph glyph-name="O" unicode="O" horiz-adv-x="1360" 
d="M605 -20q-264 0 -382 194t-66 559q52 371 226.5 569.5t436.5 198.5q261 0 378 -197t65 -567q-52 -367 -224.5 -562t-433.5 -195zM620 63q230 0 372 168t189 506q47 340 -48.5 510t-324.5 170q-230 0 -375 -171t-192 -509q-47 -336 50.5 -505t328.5 -169z" />
    <glyph glyph-name="P" unicode="P" horiz-adv-x="1196" 
d="M153 0l206 1481h420q222 0 340 -117t88 -334q-32 -218 -181 -340.5t-364 -122.5h-350l-80 -567h-79zM325 655h350q181 0 302.5 100t147.5 281q24 180 -71.5 269.5t-288.5 89.5h-336z" />
    <glyph glyph-name="Q" unicode="Q" horiz-adv-x="1393" 
d="M1108 -244q-39 0 -81.5 10.5t-92.5 35.5t-93 76.5t-67 123.5q-99 -22 -170 -22q-258 0 -378.5 193t-67.5 564q52 372 225 568t436 196q261 0 379 -196t66 -568q-36 -262 -133 -435.5t-271 -264.5q58 -189 260 -199zM617 63q229 0 373.5 168.5t191.5 505.5
q47 333 -49 506.5t-326 173.5q-231 0 -375.5 -174t-191.5 -510t50 -503t327 -167z" />
    <glyph glyph-name="R" unicode="R" horiz-adv-x="1273" 
d="M151 0l208 1481h480q201 0 296.5 -93t71.5 -274q-12 -89 -48.5 -160t-87.5 -116t-102.5 -72.5t-107.5 -42.5l180 -723h-84l-176 705h-456l-101 -705h-73zM335 788h344q202 0 312.5 74t133.5 238q21 155 -53.5 227t-245.5 72h-405z" />
    <glyph glyph-name="S" unicode="S" horiz-adv-x="1270" 
d="M567 -20q-192 0 -317.5 101t-131.5 281h83q11 -145 116.5 -224t260.5 -79q175 0 297 84t139 215q31 245 -204 312l-289 82q-301 85 -266 338q23 177 162.5 293t340.5 116q88 0 161 -23.5t121 -63.5t79 -92.5t41.5 -111t2.5 -118.5h-84q4 89 -22 154t-75 101t-108 53
t-131 17q-63 0 -128 -19.5t-125 -57t-102.5 -102t-53.5 -144.5q-12 -97 43 -157.5t204 -104.5l276 -81q98 -29 156.5 -90t75.5 -135t5 -162q-21 -165 -159.5 -273.5t-367.5 -108.5z" />
    <glyph glyph-name="T" unicode="T" horiz-adv-x="1091" 
d="M453 0l196 1399h-467l11 82h970l-9 -82h-431l-197 -1399h-73z" />
    <glyph glyph-name="U" unicode="U" horiz-adv-x="1307" 
d="M599 -20q-232 0 -324 124t-55 385l139 992h80l-143 -1026q-57 -398 313 -398q378 0 434 398l144 1026h73l-143 -1022q-34 -241 -162.5 -360t-355.5 -119z" />
    <glyph glyph-name="V" unicode="V" horiz-adv-x="1203" 
d="M467 0l-274 1481h79l260 -1397l667 1397h79l-703 -1481h-108z" />
    <glyph glyph-name="W" unicode="W" horiz-adv-x="1783" 
d="M368 0l-174 1481h84l154 -1381l555 1381h73l164 -1381l555 1381h80l-601 -1481h-101l-156 1327l-535 -1327h-98z" />
    <glyph glyph-name="X" unicode="X" horiz-adv-x="1276" 
d="M43 0l578 760l-348 721h98l309 -645l494 645h94l-551 -721l367 -760h-95l-330 680l-522 -680h-94z" />
    <glyph glyph-name="Y" unicode="Y" horiz-adv-x="1036" 
d="M412 0l88 639l-336 842h82l303 -762l510 762h82l-567 -844l-90 -637h-72z" />
    <glyph glyph-name="Z" unicode="Z" horiz-adv-x="1161" 
d="M76 0l10 63l987 1338h-782l10 80h881l-8 -62l-994 -1339h805l-12 -80h-897z" />
    <glyph glyph-name="bracketleft" unicode="[" horiz-adv-x="527" 
d="M97 -330l252 1811h271l-11 -74h-190l-236 -1663h191l-10 -74h-267z" />
    <glyph glyph-name="backslash" unicode="\" horiz-adv-x="606" 
d="M404 -121l-239 1602h78l241 -1602h-80z" />
    <glyph glyph-name="bracketright" unicode="]" horiz-adv-x="526" 
d="M442 1481l-252 -1811h-270l10 74h191l235 1663h-190l10 74h266z" />
    <glyph glyph-name="asciicircum" unicode="^" horiz-adv-x="887" 
d="M78 279l368 727q34 70 70.5 72t54.5 -72l168 -732h-90l-147 674l-340 -669h-84z" />
    <glyph glyph-name="underscore" unicode="_" horiz-adv-x="930" 
d="M31 -203l12 80l664 2l-13 -80z" />
    <glyph glyph-name="grave" unicode="`" horiz-adv-x="411" 
d="M260 1481l234 -298h-73l-277 298h116z" />
    <glyph glyph-name="a" unicode="a" horiz-adv-x="1040" 
d="M360 -20q-145 0 -218 77.5t-55 212.5q25 179 142.5 260.5t361.5 90.5l225 8l15 102q18 126 -49.5 198t-194.5 72q-108 0 -193 -59.5t-115 -165.5h-80q25 122 133.5 212.5t268.5 90.5q157 0 241.5 -93.5t61.5 -252.5l-102 -733h-68l25 205q-142 -225 -399 -225zM382 55
q124 0 251 91t142 196l29 207l-188 -4q-230 -4 -330 -66t-121 -203q-13 -103 46 -162t171 -59z" />
    <glyph glyph-name="b" unicode="b" horiz-adv-x="1141" 
d="M547 -20q-75 0 -134 20.5t-91.5 48t-55 64.5t-29 59.5t-10.5 44.5l-33 -217h-68l198 1522h75l-85 -656q9 18 25.5 41t50 54.5t73.5 56.5t100.5 43t126.5 18q191 0 282.5 -138t56.5 -409q-33 -257 -155.5 -404.5t-326.5 -147.5zM555 55q154 0 258.5 124t135.5 367
q28 212 -41 333.5t-236 121.5q-180 0 -274 -116.5t-126 -338.5q-34 -260 29.5 -375.5t253.5 -115.5z" />
    <glyph glyph-name="c" unicode="c" horiz-adv-x="1041" 
d="M464 -20q-199 0 -294 137t-57 409q36 257 164.5 405t340.5 148q140 0 233 -78.5t100 -226.5h-81q-2 104 -73.5 165.5t-188.5 61.5q-161 0 -272.5 -120t-144.5 -355q-31 -218 40 -344.5t244 -126.5q117 0 206.5 62t120.5 166h81q-49 -148 -164 -225.5t-255 -77.5z" />
    <glyph glyph-name="d" unicode="d" horiz-adv-x="1136" 
d="M452 -20q-191 0 -282.5 139t-56.5 413q33 254 156 400.5t326 146.5q66 0 121.5 -18t89 -43t58.5 -56.5t35.5 -54.5t14.5 -41l86 656h76l-198 -1522h-68l23 217q-9 -21 -22 -44t-44.5 -60t-71 -64.5t-104 -48t-139.5 -20.5zM463 55q189 0 282.5 115t127.5 376
q26 222 -37.5 338.5t-243.5 116.5q-157 0 -261.5 -114.5t-133.5 -340.5q-30 -228 36.5 -359.5t229.5 -131.5z" />
    <glyph glyph-name="e" unicode="e" horiz-adv-x="1075" 
d="M482 -20q-197 0 -296 142.5t-63 397.5q37 263 169 411t334 148q190 0 276.5 -134t52.5 -378l-7 -57h-746q-8 -73 -6.5 -139.5t22.5 -123.5t55.5 -99.5t91 -66.5t129.5 -24q118 0 208 61t122 165h80q-49 -148 -165.5 -225.5t-256.5 -77.5zM214 588h666q17 121 -4.5 212.5
t-88.5 146t-174 54.5q-87 0 -160 -36t-121 -96.5t-77.5 -131.5t-40.5 -149z" />
    <glyph glyph-name="f" unicode="f" horiz-adv-x="760" 
d="M256 0l138 989h-233l11 70h230l26 176q18 125 76 185.5t167 60.5h142l-9 -70h-161q-66 0 -97.5 -39.5t-42.5 -120.5l-27 -192h268l-10 -70h-267l-138 -989h-73z" />
    <glyph glyph-name="g" unicode="g" horiz-adv-x="1175" 
d="M433 -350q-206 0 -315 75t-89 222q7 55 38.5 104.5t62 74.5t70 52t42.5 29q-3 3 -12.5 9.5t-13 9.5t-12 10.5t-11 11.5t-9.5 13t-6.5 15.5t-3 18.5t0.5 22q5 43 47.5 79t116.5 59q-73 46 -108.5 118t-23.5 164q21 158 130.5 248t302.5 90q89 0 151.5 -24t113.5 -76
q192 85 225 98l-15 -119l-180 -41q32 -81 21 -176q-20 -148 -125 -233.5t-290 -85.5h-21q-135 -3 -198.5 -31.5t-68.5 -67.5q-4 -34 36 -49t157 -24q94 -7 221 -15q131 -8 198 -76.5t50 -193.5q-19 -145 -141 -228t-341 -83zM553 494q138 0 225.5 62t104.5 185
q17 128 -55 193t-210 65q-141 0 -230 -65t-106 -193q-16 -121 53.5 -184t217.5 -63zM460 -274q162 0 262.5 59t115.5 176q10 81 -36.5 131.5t-148.5 57.5l-322 22q-53 4 -133 -62t-92 -155q-13 -106 76 -167.5t278 -61.5z" />
    <glyph glyph-name="h" unicode="h" horiz-adv-x="1105" 
d="M126 0l198 1522h68l-81 -621q51 79 145 128.5t210 49.5q148 0 234.5 -83t68.5 -212l-102 -784h-74l98 754q15 116 -48.5 181.5t-189.5 65.5q-90 0 -165 -27.5t-128 -88.5t-64 -148l-96 -737h-74z" />
    <glyph glyph-name="i" unicode="i" horiz-adv-x="458" 
d="M300 1356l17 123h91l-18 -123h-90zM118 0l149 1059h75l-148 -1059h-76z" />
    <glyph glyph-name="j" unicode="j" horiz-adv-x="458" 
d="M296 1325l16 123h90l-16 -123h-90zM-65 -340q-49 0 -78 4.5t-33 9.5l-5 4l8 54l118 2q73 2 109 40.5t49 133.5l162 1151h74l-164 -1161q-17 -129 -68 -183.5t-172 -54.5z" />
    <glyph glyph-name="k" unicode="k" horiz-adv-x="1046" 
d="M110 0l215 1522h72l-151 -1084l645 621h104l-403 -385l288 -674h-95l-259 606l-298 -282l-44 -324h-74z" />
    <glyph glyph-name="l" unicode="l" horiz-adv-x="548" 
d="M290 -8q-92 0 -127 70t-19 186l181 1274h74l-181 -1274q-13 -95 13 -142t71 -47h59l-7 -59q-35 -8 -64 -8z" />
    <glyph glyph-name="m" unicode="m" horiz-adv-x="1599" 
d="M111 0l148 1059h67l-22 -158q114 178 307 178q91 0 166.5 -47t94.5 -129q58 84 142.5 130t182.5 46q31 0 58.5 -4t59 -14.5t55 -29t47 -48t33.5 -71t15 -97.5t-8 -129l-96 -686h-72l95 686q13 76 5.5 131t-23 90.5t-45 56.5t-61.5 29t-73 8q-47 0 -93.5 -12.5
t-93.5 -40.5t-81 -82.5t-45 -128.5l-103 -737h-72l107 770q15 109 -50.5 170t-156.5 61q-49 0 -97.5 -15t-93.5 -45t-77.5 -83t-42.5 -121l-105 -737h-72z" />
    <glyph glyph-name="n" unicode="n" horiz-adv-x="1085" 
d="M111 0l148 1059h67l-20 -158q48 78 142 128t209 50q155 0 234.5 -99t51.5 -294l-96 -686h-74l97 686q22 152 -37.5 233.5t-184.5 81.5q-139 0 -240.5 -67.5t-119.5 -196.5l-105 -737h-72z" />
    <glyph glyph-name="o" unicode="o" horiz-adv-x="1069" 
d="M466 -20q-198 0 -293.5 137.5t-59.5 408.5q33 258 159 405.5t337 147.5q194 0 288 -139.5t59 -413.5q-33 -255 -157.5 -400.5t-332.5 -145.5zM476 55q159 0 266 118.5t138 352.5q29 221 -41.5 348t-239.5 127q-162 0 -270 -119.5t-139 -355.5q-29 -219 42 -345t244 -126z
" />
    <glyph glyph-name="p" unicode="p" horiz-adv-x="1134" 
d="M79 -330l180 1389h72l-24 -217q14 28 31.5 54.5t50.5 61.5t71.5 60t95.5 43t121 18q194 0 288 -133.5t60 -396.5q-34 -265 -159 -417t-332 -152q-64 0 -116.5 18t-84 44t-55.5 61.5t-34.5 63.5t-17.5 57l-71 -554h-76zM544 55q157 0 263 122.5t137 363.5
q29 214 -40.5 337t-236.5 123q-164 0 -269.5 -123t-132.5 -337q-29 -217 44 -351.5t235 -134.5z" />
    <glyph glyph-name="q" unicode="q" horiz-adv-x="1138" 
d="M834 -330h-76l71 554q-19 -39 -44.5 -74t-69.5 -77t-110.5 -67.5t-145.5 -25.5q-195 0 -287.5 143.5t-55.5 425.5q32 246 155.5 388t329.5 142q64 0 117 -18t84.5 -43t55.5 -60t34.5 -61.5t17.5 -54.5l32 217h72zM468 55q162 0 269.5 134.5t135.5 351.5q28 214 -44.5 337
t-236.5 123q-158 0 -263 -116t-135 -344q-29 -226 39 -356t235 -130z" />
    <glyph glyph-name="r" unicode="r" horiz-adv-x="721" 
d="M110 0l149 1059h68l-22 -158q33 67 87.5 109t104.5 55.5t103 13.5q70 0 103 -20l-11 -82q-35 18 -104 18q-31 0 -64 -6.5t-72.5 -24t-72 -45t-57.5 -75t-34 -107.5l-104 -737h-74z" />
    <glyph glyph-name="s" unicode="s" horiz-adv-x="939" 
d="M414 -20q-160 0 -249 76.5t-84 226.5h79q5 -105 71.5 -165.5t193.5 -60.5q123 0 201 54t93 161q19 141 -112 184l-224 69q-108 34 -159 95t-37 162q19 138 115 217.5t262 79.5q143 0 218.5 -70.5t63.5 -209.5h-79q3 94 -51 148t-162 54q-121 0 -197.5 -55t-91.5 -164
q-9 -69 28.5 -110t121.5 -67l223 -69q97 -31 134.5 -100t24.5 -160q-19 -138 -116.5 -217t-266.5 -79z" />
    <glyph glyph-name="t" unicode="t" horiz-adv-x="705" 
d="M406 0q-109 0 -144 54.5t-15 183.5l105 751h-159l11 70h156l63 297h56l-41 -297h226l-11 -70h-225l-104 -741q-5 -37 -5.5 -63.5t5 -45.5t14.5 -30.5t26.5 -18t37.5 -8.5t51 -2h82l-11 -70q-30 -10 -118 -10z" />
    <glyph glyph-name="u" unicode="u" horiz-adv-x="1099" 
d="M467 -20q-176 2 -264.5 96.5t-62.5 277.5l99 705h74l-99 -705q-20 -138 44.5 -217.5t214.5 -79.5q140 0 232 79.5t114 234.5l97 688h74l-149 -1059h-68l22 195q-41 -101 -125.5 -158.5t-202.5 -56.5z" />
    <glyph glyph-name="v" unicode="v" horiz-adv-x="932" 
d="M334 0l-190 1059h80l166 -969h25l448 969h75l-486 -1059h-118z" />
    <glyph glyph-name="w" unicode="w" horiz-adv-x="1484" 
d="M299 0l-137 1059h80l123 -971h22l397 971h68l139 -967h23l383 967h76l-418 -1059h-123l-133 922l-371 -922h-129z" />
    <glyph glyph-name="x" unicode="x" horiz-adv-x="1034" 
d="M17 0l452 549l-275 510h91l242 -447l366 447h92l-419 -510l301 -549h-93l-266 485l-399 -485h-92z" />
    <glyph glyph-name="y" unicode="y" horiz-adv-x="966" 
d="M95 -338q-42 0 -70.5 4t-36.5 8l-7 4l8 56h104q84 0 134 34.5t81 96.5l70 141l-234 1053h80l209 -944l467 944h72l-596 -1213q-94 -184 -281 -184z" />
    <glyph glyph-name="z" unicode="z" horiz-adv-x="897" 
d="M19 0l9 70l752 919h-578l10 70h660l-9 -70l-750 -919h627l-10 -70h-711z" />
    <glyph glyph-name="braceleft" unicode="{" horiz-adv-x="515" 
d="M302 -330q-103 0 -144 51t-30 134l68 469q10 81 -38.5 147t-146.5 66l13 77q102 1 165.5 64.5t77.5 159.5l66 465q11 80 67.5 129t155.5 49h51l-10 -74h-53q-63 0 -93 -24t-38 -80l-66 -465q-17 -116 -74 -181t-135 -73q-7 -1 -10.5 -4t-1.5 -6.5t10 -4.5
q76 -6 115.5 -66.5t23.5 -178.5l-65 -469q-8 -59 13.5 -85t88.5 -26h52l-11 -74h-51z" />
    <glyph glyph-name="bar" unicode="|" horiz-adv-x="522" 
d="M106 -330l283 2022h72l-285 -2022h-70z" />
    <glyph glyph-name="braceright" unicode="}" horiz-adv-x="533" 
d="M234 1481q103 0 144.5 -51t30.5 -134l-68 -469q-10 -81 38 -147t146 -66l-12 -77q-103 -1 -166.5 -64.5t-77.5 -159.5l-65 -465q-11 -80 -67.5 -129t-155.5 -49h-52l11 74h53q63 0 93 24t38 80l65 465q17 116 74 181t135 73q7 1 10.5 4t1.5 6.5t-10 4.5
q-76 6 -115.5 66.5t-23.5 178.5l66 469q8 59 -14 85t-89 26h-51l10 74h51z" />
    <glyph glyph-name="asciitilde" unicode="~" horiz-adv-x="1006" 
d="M166 670l-14 65q53 45 104 70.5t121 25.5q65 0 168 -45t168 -45q46 0 84.5 14t58.5 29.5t45 40.5l14 -69q-29 -34 -83.5 -60t-131.5 -26q-62 0 -116.5 22t-106.5 44t-106 22q-113 0 -205 -88z" />
    <glyph glyph-name="uni00A0" unicode="&#xa0;" horiz-adv-x="532" 
 />
    <glyph glyph-name="exclamdown" unicode="&#xa1;" horiz-adv-x="447" 
d="M218 901l21 158h112l-20 -158h-113zM67 -330l159 1092h60l-123 -1092h-96z" />
    <glyph glyph-name="cent" unicode="&#xa2;" horiz-adv-x="1009" 
d="M412 0l29 209q-175 17 -256.5 154t-45.5 391q34 246 155 393t318 159l25 175h74l-25 -176q124 -11 205 -89.5t87 -214.5h-81q-2 104 -73.5 166t-188.5 62q-161 0 -272.5 -120t-144.5 -355q-31 -218 40 -344.5t244 -126.5q117 0 206 61.5t120 165.5h81
q-47 -142 -153.5 -219t-240.5 -83l-29 -208h-74z" />
    <glyph glyph-name="sterling" unicode="&#xa3;" horiz-adv-x="1100" 
d="M-53 0l10 78h78q77 0 140.5 89t88.5 261q18 130 15 287h-189l10 76h181l-17 153q-12 123 19.5 229.5t92.5 177t142.5 110.5t169.5 40q112 0 198.5 -58.5t104.5 -133.5l-73 -39q-26 72 -82.5 108.5t-155.5 36.5q-125 0 -218.5 -75.5t-113.5 -206.5q-9 -71 -7 -167.5
t17 -172.5h332l-12 -76h-322q6 -144 -8 -254q-35 -247 -164 -383h402q106 0 177.5 39t117.5 131l63 -31q-116 -219 -371 -219h-626z" />
    <glyph glyph-name="currency" unicode="&#xa4;" horiz-adv-x="964" 
d="M162 365l-43 63l114 107q-48 88 -32 210q15 110 84 195q10 13 2 25l-76 100l61 57l84 -112q87 69 201 69q102 0 166 -61q14 -9 25 2l114 106l43 -59l-123 -117q50 -92 35 -205q-15 -111 -82 -190q-11 -18 -2 -29l84 -100l-61 -59l-90 114q-99 -73 -203 -73
q-102 0 -172 61q-12 12 -23 -2zM479 496q96 0 172 74t90 175t-41 175.5t-151 74.5t-173 -75t-91 -175q-14 -102 41 -175.5t153 -73.5z" />
    <glyph glyph-name="yen" unicode="&#xa5;" horiz-adv-x="1067" 
d="M173 315l10 76l294 1l29 205l-294 -1l10 76l266 1l-323 808h96l303 -762l522 762h84l-558 -808l284 1l-10 -76l-295 -1l-29 -205l295 1l-12 -76l-293 -1l-45 -316h-84l44 316z" />
    <glyph glyph-name="brokenbar" unicode="&#xa6;" horiz-adv-x="522" 
d="M276 885l113 807h72l-115 -807h-70zM106 -330l113 807h70l-113 -807h-70z" />
    <glyph glyph-name="section" unicode="&#xa7;" horiz-adv-x="897" 
d="M378 -135q-117 0 -213.5 64t-132.5 171l65 41q36 -90 114.5 -143t182.5 -53q109 0 185 48.5t88 133.5q10 66 -30.5 121t-154.5 108l-168 76q-195 87 -172 273q13 91 79.5 159.5t162.5 104.5q-110 64 -143 129t-23 145q17 112 118.5 185t244.5 73q106 0 185.5 -54.5
t121.5 -137.5l-68 -43q-88 155 -241 155q-120 0 -194.5 -47.5t-86.5 -126.5q-7 -60 26 -111t132 -98l155 -73q238 -116 209 -318q-12 -96 -70.5 -156t-148.5 -102q82 -55 120 -118t28 -144q-17 -114 -121 -188t-250 -74zM499 442q82 -6 154.5 52.5t82.5 140.5
q11 83 -17 136.5t-126 100.5l-113 52q-91 -7 -168 -71.5t-88 -141.5q-9 -67 22.5 -112.5t131.5 -94.5z" />
    <glyph glyph-name="dieresis" unicode="&#xa8;" horiz-adv-x="349" 
d="M354 1278l17 123h90l-17 -123h-90zM117 1278l16 123h90l-16 -123h-90z" />
    <glyph glyph-name="copyright" unicode="&#xa9;" horiz-adv-x="1521" 
d="M685 -20q-191 0 -338 101t-216 276t-40 384q28 206 146.5 381t294.5 277t366 102q142 0 263 -60.5t200 -162.5t115 -242.5t14 -294.5q-22 -156 -97.5 -297.5t-183.5 -242.5t-245.5 -161t-278.5 -60zM697 68q121 0 239.5 48t216 134t166 214t89.5 277q21 147 -12 274.5
t-105.5 214t-177.5 136t-227 49.5q-125 0 -244.5 -49t-216 -136t-164 -214t-88.5 -275q-21 -150 11 -277.5t104.5 -213.5t178 -134t230.5 -48zM736 317q-155 0 -234.5 118t-51.5 310q26 191 139.5 312t267.5 121q170 0 266 -191l-73 -43q-68 156 -199 156
q-119 0 -208.5 -97.5t-111.5 -252.5q-23 -157 39.5 -256t180.5 -99q75 0 144 45.5t116 122.5l53 -39q-67 -97 -152.5 -152t-175.5 -55z" />
    <glyph glyph-name="ordfeminine" unicode="&#xaa;" horiz-adv-x="796" 
d="M369 809q-97 0 -145 48t-36 134q26 187 322 217l137 15l6 51q21 153 -147 153q-62 0 -107.5 -23.5t-91.5 -84.5l-55 27q43 71 113.5 110t156.5 39q108 0 159.5 -61t37.5 -168q-9 -60 -20 -135.5t-13 -90.5q-7 -45 -10 -133l-2 -86h-70l-2 103q-58 -60 -113.5 -87.5
t-119.5 -27.5zM391 872q85 0 158 64q67 57 72 104l16 119l-112 -10q-246 -20 -265 -156q-7 -55 29 -88t102 -33z" />
    <glyph glyph-name="guillemotleft" unicode="&#xab;" horiz-adv-x="785" 
d="M586 156l-219 358l323 375h53l-278 -375l172 -358h-51zM279 156l-220 358l324 375h53l-278 -375l172 -358h-51z" />
    <glyph glyph-name="logicalnot" unicode="&#xac;" horiz-adv-x="1004" 
d="M158 705l12 75l737 2l-2 -14l-49 -340h-68l37 279z" />
    <glyph glyph-name="uni00AD" unicode="&#xad;" horiz-adv-x="702" 
d="M125 489l10 80l443 2l-11 -79z" />
    <glyph glyph-name="registered" unicode="&#xae;" horiz-adv-x="997" 
d="M502 549q-90 0 -166 37.5t-126 101t-71.5 151.5t-7.5 185q28 199 175 338t331 139q118 0 209.5 -63.5t134.5 -173.5t25 -240q-28 -198 -175 -336.5t-329 -138.5zM512 618q164 0 283 111t145 295q26 183 -61.5 295.5t-251.5 112.5q-166 0 -285 -112t-145 -296
q-26 -185 61 -295.5t254 -110.5zM375 784l67 473h189q65 0 95.5 -29t23.5 -85q-12 -92 -113 -127l51 -232h-59l-47 228h-119l-33 -228h-55zM469 1069h121q92 0 102 66q4 31 -14.5 49t-73.5 18h-115z" />
    <glyph glyph-name="macron" unicode="&#xaf;" horiz-adv-x="499" 
d="M127 1295l10 76h463l-10 -76h-463z" />
    <glyph glyph-name="degree" unicode="&#xb0;" horiz-adv-x="876" 
d="M519 1114q-120 0 -185 84t-46 215q19 132 107.5 216.5t209.5 84.5q119 0 185 -85t47 -216q-19 -130 -108.5 -214.5t-209.5 -84.5zM527 1186q91 0 153.5 62t76.5 163q15 101 -30 163t-138 62q-89 0 -152.5 -62.5t-77.5 -162.5q-12 -101 33 -163t135 -62z" />
    <glyph glyph-name="plusminus" unicode="&#xb1;" horiz-adv-x="1005" 
d="M464 483l50 362l-335 -1l10 76l335 1l50 363h70l-51 -363l334 1l-11 -76l-333 -1l-52 -362h-67zM83 166l10 76l737 2l-10 -76z" />
    <glyph glyph-name="uni00B2" unicode="&#xb2;" horiz-adv-x="649" 
d="M77 786l8 54l4 27q10 68 43 124t79 94t99.5 71.5t107.5 65.5t99.5 67t78 84.5t40.5 110.5q12 87 -37 139.5t-143 52.5q-101 0 -168.5 -60.5t-84.5 -154.5h-52q20 114 105 192t211 78q115 0 175 -68.5t44 -180.5q-10 -69 -43 -124.5t-79 -93t-99.5 -70.5t-107 -65
t-99 -66.5t-78 -84.5t-41.5 -111l-3 -27h470l-8 -54h-521z" />
    <glyph glyph-name="uni00B3" unicode="&#xb3;" horiz-adv-x="719" 
d="M353 772q-114 2 -183 74.5t-59 187.5h53q-2 -95 52.5 -152t150.5 -57q110 0 186.5 57.5t89.5 149.5q14 104 -54 161t-183 57h-74l8 53h73q99 0 179 60t91 137q10 71 -40.5 124.5t-154.5 53.5q-85 0 -159 -58t-88 -159h-53q17 118 106 194t200 76q123 0 189 -63.5
t52 -167.5q-10 -71 -63 -129t-140 -90q93 -29 134.5 -93t29.5 -152q-17 -119 -111 -192t-232 -72z" />
    <glyph glyph-name="acute" unicode="&#xb4;" horiz-adv-x="327" 
d="M336 1481h116l-277 -298h-73z" />
    <glyph glyph-name="uni00B5" unicode="&#xb5;" horiz-adv-x="1096" 
d="M42 -338l201 1423h75l-114 -804q-12 -90 47.5 -157t155.5 -67q165 0 395 217l112 811h76l-153 -1085h-70l25 168q-135 -105 -220 -146.5t-172 -41.5q-149 0 -225 96l-57 -414h-76z" />
    <glyph glyph-name="paragraph" unicode="&#xb6;" horiz-adv-x="998" 
d="M419 -170l108 776q-96 0 -169.5 36t-114.5 95.5t-57 134t-4 154.5q12 86 50 165.5t97.5 145t148.5 105t193 39.5h297l-9 -64h-110l-223 -1587h-63l222 1587h-79l-224 -1587h-63z" />
    <glyph glyph-name="periodcentered" unicode="&#xb7;" horiz-adv-x="395" 
d="M142 668l23 157h149l-22 -157h-150z" />
    <glyph glyph-name="cedilla" unicode="&#xb8;" horiz-adv-x="358" 
d="M27 -408q-82 0 -136 48l29 57q38 -45 107 -45q107 0 120 86q7 47 -24.5 70t-102.5 26q-14 0 -6 8l90 168h64l-66 -127q78 -7 106 -46.5t21 -94.5q-10 -72 -67 -111t-135 -39z" />
    <glyph glyph-name="uni00B9" unicode="&#xb9;" horiz-adv-x="428" 
d="M233 778l111 785h-178l6 50q80 0 122 10t58.5 29.5t21.5 57.5h41l-131 -932h-51z" />
    <glyph glyph-name="ordmasculine" unicode="&#xba;" horiz-adv-x="788" 
d="M433 813q-134 0 -194 93t-38 247q22 157 111 251.5t218 94.5q130 0 193 -95t41 -251q-22 -153 -109.5 -246.5t-221.5 -93.5zM442 879q100 0 164.5 75t82.5 205q17 123 -26.5 197t-141.5 74q-99 0 -162.5 -73.5t-82.5 -197.5q-19 -130 24 -205t142 -75z" />
    <glyph glyph-name="guillemotright" unicode="&#xbb;" horiz-adv-x="781" 
d="M349 156l274 358l-176 375h52l219 -375l-320 -358h-49zM42 156l272 358l-172 375h49l220 -375l-320 -358h-49z" />
    <glyph glyph-name="onequarter" unicode="&#xbc;" horiz-adv-x="1373" 
d="M166 -8h-73l1132 1505h70zM233 565l111 785h-178l6 50q80 0 122 10t58.5 29.5t21.5 57.5h41l-131 -932h-51zM1048 0l37 269h-412l9 64l492 599h53l-84 -609h150l-7 -54h-152l-37 -269h-49zM731 323h358l73 522z" />
    <glyph glyph-name="onehalf" unicode="&#xbd;" horiz-adv-x="1539" 
d="M166 -8h-73l1132 1505h70zM233 565l111 785h-178l6 50q80 0 122 10t58.5 29.5t21.5 57.5h41l-131 -932h-51zM887 0l8 53l4 28q10 68 43 124t79 94t99.5 71t107.5 65t99.5 67t78 84.5t40.5 110.5q12 87 -37 140t-143 53q-101 0 -168.5 -60.5t-84.5 -154.5h-52
q20 114 104.5 191.5t211.5 77.5q115 0 175 -68.5t44 -180.5q-10 -69 -43 -124.5t-79 -93t-99.5 -70.5t-107 -64.5t-99 -66t-78 -84.5t-41.5 -111l-3 -28h470l-8 -53h-521z" />
    <glyph glyph-name="threequarters" unicode="&#xbe;" horiz-adv-x="1605" 
d="M353 557q-114 2 -183 74.5t-59 187.5h53q-2 -95 52.5 -152t150.5 -57q110 0 186.5 57.5t89.5 149.5q14 104 -54 161t-183 57h-74l8 52h73q99 0 179 60.5t91 137.5q10 71 -40.5 124.5t-154.5 53.5q-85 0 -159 -58t-88 -159h-53q17 118 106 194t200 76q123 0 189 -63.5
t52 -167.5q-10 -71 -63 -129t-140 -90q93 -29 134.5 -93t29.5 -152q-17 -119 -111 -192t-232 -72zM398 -8h-72l1131 1505h71zM1280 0l38 269h-413l9 64l492 599h53l-84 -609h151l-7 -54h-153l-37 -269h-49zM964 323h357l74 522z" />
    <glyph glyph-name="questiondown" unicode="&#xbf;" horiz-adv-x="945" 
d="M476 901l21 158h114l-20 -158h-115zM333 -350q-180 0 -273 99t-71 265q9 69 38 127.5t69 101.5t87 83.5t94 83t87.5 90t71 114t40.5 146.5h78q-11 -86 -41.5 -157.5t-70.5 -121t-86.5 -93.5t-92.5 -83.5t-85 -80t-67 -94t-36 -116.5q-17 -129 55.5 -204.5t212.5 -75.5
q107 0 217.5 63.5t151.5 149.5l73 -41q-75 -117 -197 -186.5t-255 -69.5z" />
    <glyph glyph-name="Agrave" unicode="&#xc0;" horiz-adv-x="1335" 
d="M626 1903l233 -298h-73l-276 298h116zM43 0l707 1481h104l289 -1481h-81l-90 467h-625l-225 -467h-79zM386 555h570l-163 840z" />
    <glyph glyph-name="Aacute" unicode="&#xc1;" horiz-adv-x="1335" 
d="M1011 1903h115l-276 -298h-73zM43 0l707 1481h104l289 -1481h-81l-90 467h-625l-225 -467h-79zM386 555h570l-163 840z" />
    <glyph glyph-name="Acircumflex" unicode="&#xc2;" horiz-adv-x="1335" 
d="M566 1605l252 194h60l194 -194h-115l-120 122l-164 -122h-107zM43 0l707 1481h104l289 -1481h-81l-90 467h-625l-225 -467h-79zM386 555h570l-163 840z" />
    <glyph glyph-name="Atilde" unicode="&#xc3;" horiz-adv-x="1335" 
d="M614 1701l-14 61q37 32 68.5 48t72.5 16q40 0 105 -25.5t106 -25.5q33 0 56 10t57 33l18 -70l-9 -6l-12.5 -7.5t-12 -6.5t-14 -7t-14.5 -6t-18 -6t-18.5 -4t-21.5 -3t-23 -1q-49 0 -107 24.5t-94 24.5q-21 0 -41.5 -6t-31 -11t-29.5 -17t-23 -15zM43 0l707 1481h104
l289 -1481h-81l-90 467h-625l-225 -467h-79zM386 555h570l-163 840z" />
    <glyph glyph-name="Adieresis" unicode="&#xc4;" horiz-adv-x="1335" 
d="M912 1700l17 123h90l-17 -123h-90zM675 1700l16 123h90l-16 -123h-90zM43 0l707 1481h104l289 -1481h-81l-90 467h-625l-225 -467h-79zM386 555h570l-163 840z" />
    <glyph glyph-name="Aring" unicode="&#xc5;" horiz-adv-x="1335" 
d="M820 1622q-75 0 -120 58.5t-33 144.5q10 79 73 135.5t138 56.5q77 0 122 -56.5t33 -139.5q-10 -84 -72 -141.5t-141 -57.5zM830 1702q44 0 80.5 35.5t44.5 83.5q6 52 -20 84t-72 32q-43 0 -79.5 -32.5t-43.5 -83.5q-7 -47 20 -83t70 -36zM43 0l707 1481h104l289 -1481
h-81l-90 467h-625l-225 -467h-79zM386 555h570l-163 840z" />
    <glyph glyph-name="AE" unicode="&#xc6;" horiz-adv-x="1728" 
d="M-75 0l985 1481h781l-11 -80h-653l-86 -613h614l-10 -79h-616l-88 -629h680l-11 -80h-765l69 475h-493l-318 -475h-78zM368 555h456l119 848z" />
    <glyph glyph-name="Ccedilla" unicode="&#xc7;" horiz-adv-x="1282" 
d="M500 -408q-81 0 -135 48l28 57q38 -45 107 -45q108 0 121 86q7 47 -24.5 70t-102.5 26q-15 0 -7 8l75 139q-246 14 -348 205t-56 551q49 375 213 569.5t430 194.5q98 0 180 -37t134.5 -99t80.5 -141t26 -165h-84q-6 100 -43.5 179t-116 129t-188.5 50q-461 0 -549 -680
q-44 -340 48.5 -507t323.5 -167q162 0 277.5 101.5t164.5 256.5h84q-41 -173 -183.5 -302.5t-329.5 -138.5l-51 -97q78 -7 106 -46.5t21 -94.5q-10 -72 -67 -111t-135 -39z" />
    <glyph glyph-name="Egrave" unicode="&#xc8;" horiz-adv-x="1177" 
d="M556 1903l234 -298h-73l-277 298h116zM151 0l208 1481h783l-13 -82h-708l-86 -608h659l-10 -84h-659l-88 -621l735 -2l-13 -84h-808z" />
    <glyph glyph-name="Eacute" unicode="&#xc9;" horiz-adv-x="1177" 
d="M941 1903h116l-277 -298h-72zM151 0l208 1481h783l-13 -82h-708l-86 -608h659l-10 -84h-659l-88 -621l735 -2l-13 -84h-808z" />
    <glyph glyph-name="Ecircumflex" unicode="&#xca;" horiz-adv-x="1177" 
d="M497 1605l252 194h59l194 -194h-114l-121 122l-164 -122h-106zM151 0l208 1481h783l-13 -82h-708l-86 -608h659l-10 -84h-659l-88 -621l735 -2l-13 -84h-808z" />
    <glyph glyph-name="Edieresis" unicode="&#xcb;" horiz-adv-x="1177" 
d="M843 1700l16 123h90l-16 -123h-90zM605 1700l17 123h90l-17 -123h-90zM151 0l208 1481h783l-13 -82h-708l-86 -608h659l-10 -84h-659l-88 -621l735 -2l-13 -84h-808z" />
    <glyph glyph-name="Igrave" unicode="&#xcc;" horiz-adv-x="526" 
d="M222 1903l234 -298h-73l-277 298h116zM153 0l206 1481h74l-207 -1481h-73z" />
    <glyph glyph-name="Iacute" unicode="&#xcd;" horiz-adv-x="526" 
d="M607 1903h116l-277 -298h-72zM153 0l206 1481h74l-207 -1481h-73z" />
    <glyph glyph-name="Icircumflex" unicode="&#xce;" horiz-adv-x="526" 
d="M163 1605l252 194h59l195 -194h-115l-121 122l-164 -122h-106zM153 0l206 1481h74l-207 -1481h-73z" />
    <glyph glyph-name="Idieresis" unicode="&#xcf;" horiz-adv-x="526" 
d="M509 1700l16 123h90l-16 -123h-90zM271 1700l17 123h90l-17 -123h-90zM153 0l206 1481h74l-207 -1481h-73z" />
    <glyph glyph-name="Eth" unicode="&#xd0;" horiz-adv-x="1328" 
d="M185 0l99 705h-175v83h186l96 693h13q13 0 35 -0.5t49 -1t61 -0.5h65q325 -1 476 -133t151 -408q0 -160 -26 -295t-88.5 -256t-158.5 -205t-243.5 -133t-336.5 -49h-203zM278 84h111q772 0 772 842q0 134 -37 226.5t-113 145.5t-177.5 76t-244.5 23h-127l-85 -609h343
v-83h-355z" />
    <glyph glyph-name="Ntilde" unicode="&#xd1;" horiz-adv-x="1404" 
d="M649 1701l-14 61q37 32 68.5 48t72.5 16q40 0 105 -25.5t106 -25.5q33 0 56 10t57 33l18 -70l-10 -6q-9 -6 -11.5 -7.5t-12 -6.5t-14 -7t-14.5 -6t-18 -6t-18.5 -4t-21.5 -3t-23 -1q-49 0 -107 24.5t-94 24.5q-21 0 -41.5 -6t-31 -11t-29.5 -17t-23 -15zM151 0l208 1481
h60l635 -1321l186 1321h74l-209 -1481h-64l-630 1317l-187 -1317h-73z" />
    <glyph glyph-name="Ograve" unicode="&#xd2;" horiz-adv-x="1360" 
d="M644 1903l234 -298h-73l-277 298h116zM605 -20q-264 0 -382 194t-66 559q52 371 226.5 569.5t436.5 198.5q261 0 378 -197t65 -567q-52 -367 -224.5 -562t-433.5 -195zM620 63q230 0 372 168t189 506q47 340 -48.5 510t-324.5 170q-230 0 -375 -171t-192 -509
q-47 -336 50.5 -505t328.5 -169z" />
    <glyph glyph-name="Oacute" unicode="&#xd3;" horiz-adv-x="1360" 
d="M1029 1903h116l-277 -298h-72zM605 -20q-264 0 -382 194t-66 559q52 371 226.5 569.5t436.5 198.5q261 0 378 -197t65 -567q-52 -367 -224.5 -562t-433.5 -195zM620 63q230 0 372 168t189 506q47 340 -48.5 510t-324.5 170q-230 0 -375 -171t-192 -509
q-47 -336 50.5 -505t328.5 -169z" />
    <glyph glyph-name="Ocircumflex" unicode="&#xd4;" horiz-adv-x="1360" 
d="M585 1605l252 194h59l195 -194h-115l-121 122l-164 -122h-106zM605 -20q-264 0 -382 194t-66 559q52 371 226.5 569.5t436.5 198.5q261 0 378 -197t65 -567q-52 -367 -224.5 -562t-433.5 -195zM620 63q230 0 372 168t189 506q47 340 -48.5 510t-324.5 170
q-230 0 -375 -171t-192 -509q-47 -336 50.5 -505t328.5 -169z" />
    <glyph glyph-name="Otilde" unicode="&#xd5;" horiz-adv-x="1360" 
d="M633 1701l-15 61q74 64 142 64q40 0 105 -25.5t106 -25.5q32 0 55 10t57 33l19 -70q-25 -16 -35.5 -22t-42.5 -15.5t-66 -9.5q-49 0 -106.5 24.5t-93.5 24.5q-21 0 -41.5 -6t-31 -11t-29.5 -17t-23 -15zM605 -20q-264 0 -382 194t-66 559q52 371 226.5 569.5t436.5 198.5
q261 0 378 -197t65 -567q-52 -367 -224.5 -562t-433.5 -195zM620 63q230 0 372 168t189 506q47 340 -48.5 510t-324.5 170q-230 0 -375 -171t-192 -509q-47 -336 50.5 -505t328.5 -169z" />
    <glyph glyph-name="Odieresis" unicode="&#xd6;" horiz-adv-x="1360" 
d="M931 1700l16 123h90l-16 -123h-90zM693 1700l17 123h90l-17 -123h-90zM605 -20q-264 0 -382 194t-66 559q52 371 226.5 569.5t436.5 198.5q261 0 378 -197t65 -567q-52 -367 -224.5 -562t-433.5 -195zM620 63q230 0 372 168t189 506q47 340 -48.5 510t-324.5 170
q-230 0 -375 -171t-192 -509q-47 -336 50.5 -505t328.5 -169z" />
    <glyph glyph-name="multiply" unicode="&#xd7;" horiz-adv-x="969" 
d="M162 362l-43 56l345 325l-255 326l59 53l254 -323l346 327l43 -53l-346 -329l256 -326l-59 -56l-256 327z" />
    <glyph glyph-name="Oslash" unicode="&#xd8;" horiz-adv-x="1378" 
d="M60 -27l-57 66l193 207q-74 184 -31 487q52 371 226 569.5t435 198.5q251 0 373 -184l176 188l60 -63l-195 -209q74 -196 31 -496q-50 -366 -224.5 -561.5t-435.5 -195.5q-258 0 -372 182zM267 322l865 925q-91 168 -318 168q-459 0 -557 -678q-35 -261 10 -415zM628 66
q228 0 365 165.5t184 505.5q37 259 -9 422l-864 -926q93 -167 324 -167z" />
    <glyph glyph-name="Ugrave" unicode="&#xd9;" horiz-adv-x="1307" 
d="M636 1903l233 -298h-72l-277 298h116zM599 -20q-232 0 -324 124t-55 385l139 992h80l-143 -1026q-57 -398 313 -398q378 0 434 398l144 1026h73l-143 -1022q-34 -241 -162.5 -360t-355.5 -119z" />
    <glyph glyph-name="Uacute" unicode="&#xda;" horiz-adv-x="1307" 
d="M1021 1903h116l-277 -298h-73zM599 -20q-232 0 -324 124t-55 385l139 992h80l-143 -1026q-57 -398 313 -398q378 0 434 398l144 1026h73l-143 -1022q-34 -241 -162.5 -360t-355.5 -119z" />
    <glyph glyph-name="Ucircumflex" unicode="&#xdb;" horiz-adv-x="1307" 
d="M577 1605l251 194h60l194 -194h-114l-121 122l-164 -122h-106zM599 -20q-232 0 -324 124t-55 385l139 992h80l-143 -1026q-57 -398 313 -398q378 0 434 398l144 1026h73l-143 -1022q-34 -241 -162.5 -360t-355.5 -119z" />
    <glyph glyph-name="Udieresis" unicode="&#xdc;" horiz-adv-x="1307" 
d="M923 1700l16 123h90l-16 -123h-90zM685 1700l16 123h91l-17 -123h-90zM599 -20q-232 0 -324 124t-55 385l139 992h80l-143 -1026q-57 -398 313 -398q378 0 434 398l144 1026h73l-143 -1022q-34 -241 -162.5 -360t-355.5 -119z" />
    <glyph glyph-name="Yacute" unicode="&#xdd;" horiz-adv-x="1036" 
d="M862 1907h116l-277 -298h-72zM412 0l88 639l-336 842h82l303 -762l510 762h82l-567 -844l-90 -637h-72z" />
    <glyph glyph-name="Thorn" unicode="&#xde;" horiz-adv-x="1201" 
d="M1177 778q-20 -146 -97 -241t-187.5 -135t-255.5 -40h-352l-52 -362h-81l207 1481h82l-45 -324h341q228 0 347.5 -94t92.5 -285zM1099 778q12 81 -9.5 139t-73 91.5t-123.5 49t-169 15.5h-340l-88 -627h353q404 0 450 332z" />
    <glyph glyph-name="germandbls" unicode="&#xdf;" horiz-adv-x="1064" 
d="M537 -20q-66 0 -137.5 19.5t-114.5 53.5l52 68q49 -34 92 -50t106 -16q130 0 214 67.5t102 186.5q8 53 -3.5 96t-30.5 70t-57.5 51.5t-68 37t-78.5 30.5q-86 29 -115 50q-70 50 -57 149q9 71 59 119t162 106q4 2 31.5 16t34 18t29.5 18t31 22t24 23.5t23 30t15 35
t11 42.5q10 86 -39.5 134t-153.5 48q-128 0 -218.5 -85.5t-112.5 -250.5l-152 -1069h-74l148 1059q27 195 146.5 308.5t289.5 113.5q63 0 110 -16t73.5 -42t43 -60.5t17.5 -71.5t-2 -74q-4 -26 -10.5 -49.5t-18.5 -43.5l-21 -35t-27.5 -31t-28 -25t-34 -23.5t-33 -19.5
t-36.5 -19.5t-35 -18.5q-50 -27 -65.5 -36t-44 -27t-36.5 -28.5t-16.5 -27.5t-11.5 -38q-6 -48 19.5 -69.5t109.5 -51.5q107 -40 150 -66q159 -97 131 -293q-15 -106 -74 -183.5t-141.5 -114.5t-176.5 -37z" />
    <glyph glyph-name="agrave" unicode="&#xe0;" horiz-adv-x="1085" 
d="M430 1481l234 -298h-73l-277 298h116zM360 -20q-145 0 -218 77.5t-55 212.5q25 179 142.5 260.5t361.5 90.5l225 8l15 102q18 126 -49.5 198t-194.5 72q-108 0 -193 -59.5t-115 -165.5h-80q25 122 133.5 212.5t268.5 90.5q157 0 241.5 -93.5t61.5 -252.5l-102 -733h-68
l25 205q-142 -225 -399 -225zM382 55q124 0 251 91t142 196l29 207l-188 -4q-230 -4 -330 -66t-121 -203q-13 -103 46 -162t171 -59z" />
    <glyph glyph-name="aacute" unicode="&#xe1;" horiz-adv-x="1085" 
d="M815 1481h116l-277 -298h-72zM360 -20q-145 0 -218 77.5t-55 212.5q25 179 142.5 260.5t361.5 90.5l225 8l15 102q18 126 -49.5 198t-194.5 72q-108 0 -193 -59.5t-115 -165.5h-80q25 122 133.5 212.5t268.5 90.5q157 0 241.5 -93.5t61.5 -252.5l-102 -733h-68l25 205
q-142 -225 -399 -225zM382 55q124 0 251 91t142 196l29 207l-188 -4q-230 -4 -330 -66t-121 -203q-13 -103 46 -162t171 -59z" />
    <glyph glyph-name="acircumflex" unicode="&#xe2;" horiz-adv-x="1085" 
d="M371 1183l252 194h59l195 -194h-115l-121 123l-164 -123h-106zM360 -20q-145 0 -218 77.5t-55 212.5q25 179 142.5 260.5t361.5 90.5l225 8l15 102q18 126 -49.5 198t-194.5 72q-108 0 -193 -59.5t-115 -165.5h-80q25 122 133.5 212.5t268.5 90.5q157 0 241.5 -93.5
t61.5 -252.5l-102 -733h-68l25 205q-142 -225 -399 -225zM382 55q124 0 251 91t142 196l29 207l-188 -4q-230 -4 -330 -66t-121 -203q-13 -103 46 -162t171 -59z" />
    <glyph glyph-name="atilde" unicode="&#xe3;" horiz-adv-x="1085" 
d="M420 1279l-14 61q37 32 68.5 48t72.5 16q40 0 105 -25.5t106 -25.5q32 0 55 10t57 33l19 -70q-25 -16 -35.5 -22t-42.5 -15.5t-66 -9.5q-49 0 -106.5 24.5t-93.5 24.5q-21 0 -41.5 -6t-31 -11t-29.5 -17t-23 -15zM360 -20q-145 0 -218 77.5t-55 212.5q25 179 142.5 260.5
t361.5 90.5l225 8l15 102q18 126 -49.5 198t-194.5 72q-108 0 -193 -59.5t-115 -165.5h-80q25 122 133.5 212.5t268.5 90.5q157 0 241.5 -93.5t61.5 -252.5l-102 -733h-68l25 205q-142 -225 -399 -225zM382 55q124 0 251 91t142 196l29 207l-188 -4q-230 -4 -330 -66
t-121 -203q-13 -103 46 -162t171 -59z" />
    <glyph glyph-name="adieresis" unicode="&#xe4;" horiz-adv-x="1085" 
d="M711 1278l16 123h90l-16 -123h-90zM473 1278l16 123h91l-17 -123h-90zM360 -20q-145 0 -218 77.5t-55 212.5q25 179 142.5 260.5t361.5 90.5l225 8l15 102q18 126 -49.5 198t-194.5 72q-108 0 -193 -59.5t-115 -165.5h-80q25 122 133.5 212.5t268.5 90.5
q157 0 241.5 -93.5t61.5 -252.5l-102 -733h-68l25 205q-142 -225 -399 -225zM382 55q124 0 251 91t142 196l29 207l-188 -4q-230 -4 -330 -66t-121 -203q-13 -103 46 -162t171 -59z" />
    <glyph glyph-name="aring" unicode="&#xe5;" horiz-adv-x="1085" 
d="M617 1200q-75 0 -120 58.5t-33 144.5q10 79 73 135.5t138 56.5q77 0 122 -56.5t33 -139.5q-10 -84 -72 -141.5t-141 -57.5zM628 1280q44 0 80.5 35.5t44.5 83.5q6 52 -20.5 84.5t-72.5 32.5q-43 0 -79 -33t-43 -84q-7 -47 20 -83t70 -36zM360 -20q-145 0 -218 77.5
t-55 212.5q25 179 142.5 260.5t361.5 90.5l225 8l15 102q18 126 -49.5 198t-194.5 72q-108 0 -193 -59.5t-115 -165.5h-80q25 122 133.5 212.5t268.5 90.5q157 0 241.5 -93.5t61.5 -252.5l-102 -733h-68l25 205q-142 -225 -399 -225zM382 55q124 0 251 91t142 196l29 207
l-188 -4q-230 -4 -330 -66t-121 -203q-13 -103 46 -162t171 -59z" />
    <glyph glyph-name="ae" unicode="&#xe6;" horiz-adv-x="1764" 
d="M360 -20q-145 0 -218.5 77.5t-54.5 212.5q26 179 143.5 261t362.5 90l228 8l15 102q18 126 -49 198t-194 72q-110 0 -192.5 -59t-112.5 -166h-80q25 123 131.5 213t267.5 90q130 0 211 -64.5t93 -180.5q67 119 170 182t234 63q190 0 277 -134t53 -378l-8 -57h-746
q-8 -73 -6.5 -139.5t22.5 -123.5t55.5 -99.5t91 -66.5t129.5 -24q118 0 208 61t122 165h80q-49 -148 -165.5 -225.5t-256.5 -77.5q-143 0 -236.5 77t-121.5 221q-39 -130 -173.5 -214t-279.5 -84zM903 588h666q17 121 -4 212t-88 146t-174 55q-87 0 -160 -36t-121 -96.5
t-78 -132t-41 -148.5zM384 55q78 0 151.5 32.5t125 82.5t85 109t41.5 113l23 157l-192 -4q-157 -4 -251.5 -33t-141 -85.5t-59.5 -150.5q-14 -103 45 -162t173 -59z" />
    <glyph glyph-name="ccedilla" unicode="&#xe7;" horiz-adv-x="1041" 
d="M371 -408q-81 0 -135 48l28 57q38 -45 107 -45q108 0 121 86q7 47 -24.5 70t-102.5 26q-15 0 -7 8l74 139q-184 10 -269.5 147.5t-49.5 397.5q36 257 164.5 405t340.5 148q140 0 233 -78.5t100 -226.5h-81q-2 104 -73.5 165.5t-188.5 61.5q-161 0 -272.5 -120
t-144.5 -355q-31 -218 40 -344.5t244 -126.5q117 0 206.5 62t120.5 166h81q-45 -139 -150 -216t-236 -86l-51 -98q78 -7 106 -46.5t21 -94.5q-10 -72 -67 -111t-135 -39z" />
    <glyph glyph-name="egrave" unicode="&#xe8;" horiz-adv-x="1075" 
d="M447 1481l234 -298h-73l-276 298h115zM482 -20q-197 0 -296 142.5t-63 397.5q37 263 169 411t334 148q190 0 276.5 -134t52.5 -378l-7 -57h-746q-8 -73 -6.5 -139.5t22.5 -123.5t55.5 -99.5t91 -66.5t129.5 -24q118 0 208 61t122 165h80q-49 -148 -165.5 -225.5
t-256.5 -77.5zM214 588h666q17 121 -4.5 212.5t-88.5 146t-174 54.5q-87 0 -160 -36t-121 -96.5t-77.5 -131.5t-40.5 -149z" />
    <glyph glyph-name="eacute" unicode="&#xe9;" horiz-adv-x="1075" 
d="M833 1481h115l-276 -298h-73zM482 -20q-197 0 -296 142.5t-63 397.5q37 263 169 411t334 148q190 0 276.5 -134t52.5 -378l-7 -57h-746q-8 -73 -6.5 -139.5t22.5 -123.5t55.5 -99.5t91 -66.5t129.5 -24q118 0 208 61t122 165h80q-49 -148 -165.5 -225.5t-256.5 -77.5z
M214 588h666q17 121 -4.5 212.5t-88.5 146t-174 54.5q-87 0 -160 -36t-121 -96.5t-77.5 -131.5t-40.5 -149z" />
    <glyph glyph-name="ecircumflex" unicode="&#xea;" horiz-adv-x="1075" 
d="M388 1183l252 194h59l195 -194h-115l-121 123l-163 -123h-107zM482 -20q-197 0 -296 142.5t-63 397.5q37 263 169 411t334 148q190 0 276.5 -134t52.5 -378l-7 -57h-746q-8 -73 -6.5 -139.5t22.5 -123.5t55.5 -99.5t91 -66.5t129.5 -24q118 0 208 61t122 165h80
q-49 -148 -165.5 -225.5t-256.5 -77.5zM214 588h666q17 121 -4.5 212.5t-88.5 146t-174 54.5q-87 0 -160 -36t-121 -96.5t-77.5 -131.5t-40.5 -149z" />
    <glyph glyph-name="edieresis" unicode="&#xeb;" horiz-adv-x="1075" 
d="M734 1278l17 123h90l-17 -123h-90zM497 1278l16 123h90l-16 -123h-90zM482 -20q-197 0 -296 142.5t-63 397.5q37 263 169 411t334 148q190 0 276.5 -134t52.5 -378l-7 -57h-746q-8 -73 -6.5 -139.5t22.5 -123.5t55.5 -99.5t91 -66.5t129.5 -24q118 0 208 61t122 165h80
q-49 -148 -165.5 -225.5t-256.5 -77.5zM214 588h666q17 121 -4.5 212.5t-88.5 146t-174 54.5q-87 0 -160 -36t-121 -96.5t-77.5 -131.5t-40.5 -149z" />
    <glyph glyph-name="igrave" unicode="&#xec;" horiz-adv-x="443" 
d="M119 1481l233 -298h-72l-277 298h116zM111 0l148 1059h75l-150 -1059h-73z" />
    <glyph glyph-name="iacute" unicode="&#xed;" horiz-adv-x="443" 
d="M504 1481h116l-277 -298h-73zM111 0l148 1059h75l-150 -1059h-73z" />
    <glyph glyph-name="icircumflex" unicode="&#xee;" horiz-adv-x="443" 
d="M59 1183l252 194h60l194 -194h-114l-121 123l-164 -123h-107zM111 0l148 1059h75l-150 -1059h-73z" />
    <glyph glyph-name="idieresis" unicode="&#xef;" horiz-adv-x="443" 
d="M406 1278l16 123h90l-16 -123h-90zM168 1278l16 123h90l-16 -123h-90zM111 0l148 1059h75l-150 -1059h-73z" />
    <glyph glyph-name="eth" unicode="&#xf0;" horiz-adv-x="1101" 
d="M482 -20q-134 0 -226.5 73t-128.5 197.5t-14 279.5q34 244 175.5 396.5t340.5 152.5q267 0 321 -215q22 257 -93 424l-314 -132l12 91l251 106q-61 66 -159 124l87 37q93 -65 147 -131l217 92l-13 -91l-156 -66q59 -94 81 -217.5t14.5 -255.5t-37.5 -323
q-38 -237 -174.5 -389.5t-330.5 -152.5zM484 55q110 0 202.5 66t148.5 172.5t75 236.5q66 471 -285 471q-169 0 -288 -131.5t-149 -347.5q-18 -126 10 -231.5t102.5 -170.5t183.5 -65z" />
    <glyph glyph-name="ntilde" unicode="&#xf1;" horiz-adv-x="1085" 
d="M461 1279l-15 61q74 64 142 64q40 0 105 -25.5t106 -25.5q32 0 55 10t57 33l19 -70q-25 -16 -35.5 -22t-42.5 -15.5t-66 -9.5q-49 0 -106.5 24.5t-93.5 24.5q-21 0 -41.5 -6t-31 -11t-29.5 -17t-23 -15zM111 0l148 1059h67l-20 -158q48 78 142 128t209 50
q155 0 234.5 -99t51.5 -294l-96 -686h-74l97 686q22 152 -37.5 233.5t-184.5 81.5q-139 0 -240.5 -67.5t-119.5 -196.5l-105 -737h-72z" />
    <glyph glyph-name="ograve" unicode="&#xf2;" horiz-adv-x="1069" 
d="M398 1481l234 -298h-73l-276 298h115zM466 -20q-198 0 -293.5 137.5t-59.5 408.5q33 258 159 405.5t337 147.5q194 0 288 -139.5t59 -413.5q-33 -255 -157.5 -400.5t-332.5 -145.5zM476 55q159 0 266 118.5t138 352.5q29 221 -41.5 348t-239.5 127q-162 0 -270 -119.5
t-139 -355.5q-29 -219 42 -345t244 -126z" />
    <glyph glyph-name="oacute" unicode="&#xf3;" horiz-adv-x="1069" 
d="M783 1481h116l-276 -298h-73zM466 -20q-198 0 -293.5 137.5t-59.5 408.5q33 258 159 405.5t337 147.5q194 0 288 -139.5t59 -413.5q-33 -255 -157.5 -400.5t-332.5 -145.5zM476 55q159 0 266 118.5t138 352.5q29 221 -41.5 348t-239.5 127q-162 0 -270 -119.5
t-139 -355.5q-29 -219 42 -345t244 -126z" />
    <glyph glyph-name="ocircumflex" unicode="&#xf4;" horiz-adv-x="1069" 
d="M339 1183l252 194h59l195 -194h-115l-121 123l-164 -123h-106zM466 -20q-198 0 -293.5 137.5t-59.5 408.5q33 258 159 405.5t337 147.5q194 0 288 -139.5t59 -413.5q-33 -255 -157.5 -400.5t-332.5 -145.5zM476 55q159 0 266 118.5t138 352.5q29 221 -41.5 348
t-239.5 127q-162 0 -270 -119.5t-139 -355.5q-29 -219 42 -345t244 -126z" />
    <glyph glyph-name="otilde" unicode="&#xf5;" horiz-adv-x="1069" 
d="M387 1279l-14 61q37 32 68.5 48t72.5 16q40 0 105 -25.5t106 -25.5q33 0 56 10t57 33l18 -70l-10 -6q-9 -6 -11.5 -7.5t-12 -6.5t-14 -7t-14.5 -6t-18 -6t-18.5 -4t-21.5 -3t-23 -1q-49 0 -107 24.5t-94 24.5q-21 0 -41.5 -6t-31 -11t-29.5 -17t-23 -15zM466 -20
q-198 0 -293.5 137.5t-59.5 408.5q33 258 159 405.5t337 147.5q194 0 288 -139.5t59 -413.5q-33 -255 -157.5 -400.5t-332.5 -145.5zM476 55q159 0 266 118.5t138 352.5q29 221 -41.5 348t-239.5 127q-162 0 -270 -119.5t-139 -355.5q-29 -219 42 -345t244 -126z" />
    <glyph glyph-name="odieresis" unicode="&#xf6;" horiz-adv-x="1069" 
d="M685 1278l16 123h91l-17 -123h-90zM447 1278l17 123h90l-16 -123h-91zM466 -20q-198 0 -293.5 137.5t-59.5 408.5q33 258 159 405.5t337 147.5q194 0 288 -139.5t59 -413.5q-33 -255 -157.5 -400.5t-332.5 -145.5zM476 55q159 0 266 118.5t138 352.5q29 221 -41.5 348
t-239.5 127q-162 0 -270 -119.5t-139 -355.5q-29 -219 42 -345t244 -126z" />
    <glyph glyph-name="divide" unicode="&#xf7;" horiz-adv-x="1003" 
d="M492 983l20 158h152l-23 -158h-149zM158 705l10 75l737 2l-10 -75zM401 348l23 158h149l-20 -158h-152z" />
    <glyph glyph-name="oslash" unicode="&#xf8;" horiz-adv-x="1012" 
d="M18 -8l-55 57l110 108q-67 135 -38 369q33 258 159 405.5t337 147.5q220 0 307 -170l155 154l56 -57l-181 -178q33 -122 11 -302q-33 -254 -158 -400t-333 -146q-178 0 -271 108zM113 526q-25 -191 23 -307l638 628q-68 154 -253 154q-162 0 -269.5 -119.5t-138.5 -355.5
zM398 55q159 0 266 118.5t138 352.5q17 137 -2 235l-623 -613q77 -93 221 -93z" />
    <glyph glyph-name="ugrave" unicode="&#xf9;" horiz-adv-x="1099" 
d="M439 1481l234 -298h-73l-276 298h115zM467 -20q-176 2 -264.5 96.5t-62.5 277.5l99 705h74l-99 -705q-20 -138 44.5 -217.5t214.5 -79.5q140 0 232 79.5t114 234.5l97 688h74l-149 -1059h-68l22 195q-41 -101 -125.5 -158.5t-202.5 -56.5z" />
    <glyph glyph-name="uacute" unicode="&#xfa;" horiz-adv-x="1099" 
d="M824 1481h116l-276 -298h-73zM467 -20q-176 2 -264.5 96.5t-62.5 277.5l99 705h74l-99 -705q-20 -138 44.5 -217.5t214.5 -79.5q140 0 232 79.5t114 234.5l97 688h74l-149 -1059h-68l22 195q-41 -101 -125.5 -158.5t-202.5 -56.5z" />
    <glyph glyph-name="ucircumflex" unicode="&#xfb;" horiz-adv-x="1099" 
d="M380 1183l252 194h59l195 -194h-115l-121 123l-164 -123h-106zM467 -20q-176 2 -264.5 96.5t-62.5 277.5l99 705h74l-99 -705q-20 -138 44.5 -217.5t214.5 -79.5q140 0 232 79.5t114 234.5l97 688h74l-149 -1059h-68l22 195q-41 -101 -125.5 -158.5t-202.5 -56.5z" />
    <glyph glyph-name="udieresis" unicode="&#xfc;" horiz-adv-x="1099" 
d="M726 1278l16 123h91l-17 -123h-90zM488 1278l17 123h90l-16 -123h-91zM467 -20q-176 2 -264.5 96.5t-62.5 277.5l99 705h74l-99 -705q-20 -138 44.5 -217.5t214.5 -79.5q140 0 232 79.5t114 234.5l97 688h74l-149 -1059h-68l22 195q-41 -101 -125.5 -158.5t-202.5 -56.5z
" />
    <glyph glyph-name="yacute" unicode="&#xfd;" horiz-adv-x="966" 
d="M773 1481h116l-277 -298h-72zM95 -338q-42 0 -70.5 4t-36.5 8l-7 4l8 56h104q84 0 134 34.5t81 96.5l70 141l-234 1053h80l209 -944l467 944h72l-596 -1213q-94 -184 -281 -184z" />
    <glyph glyph-name="thorn" unicode="&#xfe;" horiz-adv-x="1107" 
d="M65 -330l253 1811h71l-80 -580q1 1 14 16t20 22.5t24.5 24.5t32 27.5t36.5 25.5t44.5 24.5t49.5 19t58.5 14t64.5 4.5q185 0 282.5 -137t62.5 -393t-177 -412.5t-342 -156.5q-158 0 -258 100q-12 13 -18 10t-9 -24l-55 -396h-74zM486 55q162 0 282.5 131.5t152.5 354.5
q16 115 -0.5 205t-58.5 144.5t-100 82.5t-129 28q-129 0 -230 -88t-117 -186l-71 -520q61 -74 126 -113t145 -39z" />
    <glyph glyph-name="ydieresis" unicode="&#xff;" horiz-adv-x="966" 
d="M675 1278l16 123h90l-16 -123h-90zM437 1278l17 123h90l-17 -123h-90zM95 -338q-42 0 -70.5 4t-36.5 8l-7 4l8 56h104q84 0 134 34.5t81 96.5l70 141l-234 1053h80l209 -944l467 944h72l-596 -1213q-94 -184 -281 -184z" />
    <glyph glyph-name="Amacron" unicode="&#x100;" horiz-adv-x="1335" 
d="M604 1717l10 76h463l-10 -76h-463zM43 0l707 1481h104l289 -1481h-81l-90 467h-625l-225 -467h-79zM386 555h570l-163 840z" />
    <glyph glyph-name="amacron" unicode="&#x101;" horiz-adv-x="1085" 
d="M408 1295l10 76h463l-11 -76h-462zM360 -20q-145 0 -218 77.5t-55 212.5q25 179 142.5 260.5t361.5 90.5l225 8l15 102q18 126 -49.5 198t-194.5 72q-108 0 -193 -59.5t-115 -165.5h-80q25 122 133.5 212.5t268.5 90.5q157 0 241.5 -93.5t61.5 -252.5l-102 -733h-68
l25 205q-142 -225 -399 -225zM382 55q124 0 251 91t142 196l29 207l-188 -4q-230 -4 -330 -66t-121 -203q-13 -103 46 -162t171 -59z" />
    <glyph glyph-name="Abreve" unicode="&#x102;" horiz-adv-x="1335" 
d="M814 1605q-52 0 -93 16.5t-65 44t-37.5 58t-15.5 63.5h90q21 -51 44 -71q35 -29 89 -29q92 0 166 100h92q-17 -40 -49 -78.5t-91.5 -71t-129.5 -32.5zM43 0l707 1481h104l289 -1481h-81l-90 467h-625l-225 -467h-79zM386 555h570l-163 840z" />
    <glyph glyph-name="abreve" unicode="&#x103;" horiz-adv-x="1085" 
d="M616 1179q-52 0 -93 16.5t-65 44t-37 58t-15 63.5h90q21 -51 44 -71q35 -29 89 -29q92 0 166 100h92q-12 -29 -34 -58.5t-55 -58.5t-81 -47t-101 -18zM360 -20q-145 0 -218 77.5t-55 212.5q25 179 142.5 260.5t361.5 90.5l225 8l15 102q18 126 -49.5 198t-194.5 72
q-108 0 -193 -59.5t-115 -165.5h-80q25 122 133.5 212.5t268.5 90.5q157 0 241.5 -93.5t61.5 -252.5l-102 -733h-68l25 205q-142 -225 -399 -225zM382 55q124 0 251 91t142 196l29 207l-188 -4q-230 -4 -330 -66t-121 -203q-13 -103 46 -162t171 -59z" />
    <glyph glyph-name="Aogonek" unicode="&#x104;" horiz-adv-x="1335" 
d="M43 0l707 1481h104l288 -1474l10 -3q-105 -49 -154.5 -90.5t-58.5 -97.5q-5 -43 17 -63.5t77 -20.5q42 0 81.5 10t57.5 20l-10 -63q-68 -35 -156 -35q-85 0 -121 42.5t-26 113.5q9 64 55.5 110.5t145.5 81.5l-88 455h-625l-225 -467h-79zM386 555h570l-163 840z" />
    <glyph glyph-name="aogonek" unicode="&#x105;" horiz-adv-x="1040" 
d="M360 -20q-145 0 -218 77.5t-55 212.5q25 179 142.5 260.5t361.5 90.5l225 8l15 102q18 126 -49.5 198t-194.5 72q-108 0 -193 -59.5t-115 -165.5h-80q25 122 133.5 212.5t268.5 90.5q157 0 241.5 -93.5t61.5 -252.5l-102 -733h-17q-95 -45 -141 -85.5t-54 -94.5
q-5 -43 17 -63.5t77 -20.5q42 0 81.5 10.5t57.5 20.5l-10 -64q-68 -35 -157 -35q-85 0 -120.5 42.5t-25.5 113.5q9 69 61.5 118t165.5 84l22 179q-142 -225 -399 -225zM382 55q124 0 251 91t142 196l29 207l-188 -4q-230 -4 -330 -66t-121 -203q-13 -103 46 -162t171 -59z
" />
    <glyph glyph-name="Cacute" unicode="&#x106;" horiz-adv-x="1282" 
d="M1007 1903h115l-276 -298h-73zM603 -20q-267 0 -380.5 191.5t-64.5 565.5q49 375 213 569.5t430 194.5q98 0 180 -37t134.5 -99t80.5 -141t26 -165h-84q-6 100 -43.5 179t-116 129t-188.5 50q-461 0 -549 -680q-44 -340 48.5 -507t323.5 -167q162 0 277.5 101.5
t164.5 256.5h84q-27 -114 -101 -213.5t-189.5 -163.5t-245.5 -64z" />
    <glyph glyph-name="cacute" unicode="&#x107;" horiz-adv-x="1041" 
d="M822 1481h116l-276 -298h-73zM464 -20q-199 0 -294 137t-57 409q36 257 164.5 405t340.5 148q140 0 233 -78.5t100 -226.5h-81q-2 104 -73.5 165.5t-188.5 61.5q-161 0 -272.5 -120t-144.5 -355q-31 -218 40 -344.5t244 -126.5q117 0 206.5 62t120.5 166h81
q-49 -148 -164 -225.5t-255 -77.5z" />
    <glyph glyph-name="Ccircumflex" unicode="&#x108;" horiz-adv-x="1282" 
d="M562 1605l252 194h59l195 -194h-115l-120 122l-164 -122h-107zM603 -20q-267 0 -380.5 191.5t-64.5 565.5q49 375 213 569.5t430 194.5q98 0 180 -37t134.5 -99t80.5 -141t26 -165h-84q-6 100 -43.5 179t-116 129t-188.5 50q-461 0 -549 -680q-44 -340 48.5 -507
t323.5 -167q162 0 277.5 101.5t164.5 256.5h84q-27 -114 -101 -213.5t-189.5 -163.5t-245.5 -64z" />
    <glyph glyph-name="ccircumflex" unicode="&#x109;" horiz-adv-x="1041" 
d="M378 1183l252 194h59l195 -194h-115l-121 123l-164 -123h-106zM464 -20q-199 0 -294 137t-57 409q36 257 164.5 405t340.5 148q140 0 233 -78.5t100 -226.5h-81q-2 104 -73.5 165.5t-188.5 61.5q-161 0 -272.5 -120t-144.5 -355q-31 -218 40 -344.5t244 -126.5
q117 0 206.5 62t120.5 166h81q-49 -148 -164 -225.5t-255 -77.5z" />
    <glyph glyph-name="Cdotaccent" unicode="&#x10a;" horiz-adv-x="1282" 
d="M784 1700l17 123h90l-17 -123h-90zM603 -20q-267 0 -380.5 191.5t-64.5 565.5q49 375 213 569.5t430 194.5q98 0 180 -37t134.5 -99t80.5 -141t26 -165h-84q-6 100 -43.5 179t-116 129t-188.5 50q-461 0 -549 -680q-44 -340 48.5 -507t323.5 -167q162 0 277.5 101.5
t164.5 256.5h84q-27 -114 -101 -213.5t-189.5 -163.5t-245.5 -64z" />
    <glyph glyph-name="cdotaccent" unicode="&#x10b;" horiz-adv-x="1041" 
d="M600 1278l16 123h91l-17 -123h-90zM464 -20q-199 0 -294 137t-57 409q36 257 164.5 405t340.5 148q140 0 233 -78.5t100 -226.5h-81q-2 104 -73.5 165.5t-188.5 61.5q-161 0 -272.5 -120t-144.5 -355q-31 -218 40 -344.5t244 -126.5q117 0 206.5 62t120.5 166h81
q-49 -148 -164 -225.5t-255 -77.5z" />
    <glyph glyph-name="Ccaron" unicode="&#x10c;" horiz-adv-x="1282" 
d="M786 1604l-198 194h108l129 -123l158 123h113l-248 -194h-62zM603 -20q-267 0 -380.5 191.5t-64.5 565.5q49 375 213 569.5t430 194.5q98 0 180 -37t134.5 -99t80.5 -141t26 -165h-84q-6 100 -43.5 179t-116 129t-188.5 50q-461 0 -549 -680q-44 -340 48.5 -507
t323.5 -167q162 0 277.5 101.5t164.5 256.5h84q-27 -114 -101 -213.5t-189.5 -163.5t-245.5 -64z" />
    <glyph glyph-name="ccaron" unicode="&#x10d;" horiz-adv-x="1041" 
d="M602 1182l-199 194h109l129 -123l158 123h112l-247 -194h-62zM464 -20q-199 0 -294 137t-57 409q36 257 164.5 405t340.5 148q140 0 233 -78.5t100 -226.5h-81q-2 104 -73.5 165.5t-188.5 61.5q-161 0 -272.5 -120t-144.5 -355q-31 -218 40 -344.5t244 -126.5
q117 0 206.5 62t120.5 166h81q-49 -148 -164 -225.5t-255 -77.5z" />
    <glyph glyph-name="Dcaron" unicode="&#x10e;" horiz-adv-x="1296" 
d="M858 1604l-199 194h109l129 -123l158 123h112l-247 -194h-62zM154 0l205 1481h13q13 0 35.5 -0.5t49.5 -1t61 -0.5h65q325 -1 475.5 -133t150.5 -408q0 -160 -26 -295t-88.5 -256t-158.5 -205t-243.5 -133t-336.5 -49h-202zM246 84h111q772 0 772 842q0 134 -37 226.5
t-113 145.5t-177.5 76t-244.5 23h-127z" />
    <glyph glyph-name="dcaron" unicode="&#x10f;" horiz-adv-x="1096" 
d="M452 -20q-191 0 -282.5 139t-56.5 413q33 254 156 400.5t326 146.5q66 0 121.5 -18t89 -43t58.5 -56.5t35.5 -54.5t14.5 -41l86 656h76l-198 -1522h-68l23 217q-9 -21 -22 -44t-44.5 -60t-71 -64.5t-104 -48t-139.5 -20.5zM1114 1133l90 170l-34 8l23 170h99l-23 -178
l-92 -170h-63zM463 55q189 0 282.5 115t127.5 376q26 222 -37.5 338.5t-243.5 116.5q-157 0 -261.5 -114.5t-133.5 -340.5q-30 -228 36.5 -359.5t229.5 -131.5z" />
    <glyph glyph-name="Dcroat" unicode="&#x110;" horiz-adv-x="1328" 
d="M185 0l99 705h-175v83h186l96 693h13q13 0 35 -0.5t49 -1t61 -0.5h65q325 -1 476 -133t151 -408q0 -160 -26 -295t-88.5 -256t-158.5 -205t-243.5 -133t-336.5 -49h-203zM278 84h111q772 0 772 842q0 134 -37 226.5t-113 145.5t-177.5 76t-244.5 23h-127l-85 -609h343
v-83h-355z" />
    <glyph glyph-name="dcroat" unicode="&#x111;" horiz-adv-x="1117" 
d="M452 -20q-191 0 -282.5 139t-56.5 413q33 254 156 400.5t326 146.5q66 0 121.5 -18t89 -43t58.5 -56.5t35.5 -54.5t14.5 -41l51 385h-383v70h392l26 201h76l-26 -201h107v-70h-116l-163 -1251h-68l23 217q-9 -21 -22 -44t-44.5 -60t-71 -64.5t-104 -48t-139.5 -20.5z
M463 55q189 0 282.5 115t127.5 376q26 222 -37.5 338.5t-243.5 116.5q-157 0 -261.5 -114.5t-133.5 -340.5q-30 -228 36.5 -359.5t229.5 -131.5z" />
    <glyph glyph-name="Emacron" unicode="&#x112;" horiz-adv-x="1177" 
d="M535 1717l10 76h463l-11 -76h-462zM151 0l208 1481h783l-13 -82h-708l-86 -608h659l-10 -84h-659l-88 -621l735 -2l-13 -84h-808z" />
    <glyph glyph-name="emacron" unicode="&#x113;" horiz-adv-x="1075" 
d="M426 1295l10 76h463l-10 -76h-463zM482 -20q-197 0 -296 142.5t-63 397.5q37 263 169 411t334 148q190 0 276.5 -134t52.5 -378l-7 -57h-746q-8 -73 -6.5 -139.5t22.5 -123.5t55.5 -99.5t91 -66.5t129.5 -24q118 0 208 61t122 165h80q-49 -148 -165.5 -225.5
t-256.5 -77.5zM214 588h666q17 121 -4.5 212.5t-88.5 146t-174 54.5q-87 0 -160 -36t-121 -96.5t-77.5 -131.5t-40.5 -149z" />
    <glyph glyph-name="Ebreve" unicode="&#x114;" horiz-adv-x="1177" 
d="M744 1605q-52 0 -93 16.5t-65 44t-37 58t-15 63.5h90q21 -51 44 -71q35 -29 89 -29q92 0 166 100h92q-12 -29 -34 -58.5t-55 -58.5t-81 -47t-101 -18zM151 0l208 1481h783l-13 -82h-708l-86 -608h659l-10 -84h-659l-88 -621l735 -2l-13 -84h-808z" />
    <glyph glyph-name="ebreve" unicode="&#x115;" horiz-adv-x="1075" 
d="M636 1183q-52 0 -93 16.5t-65 44t-37.5 58t-15.5 63.5h90q21 -51 44 -71q35 -29 89 -29q92 0 166 100h92q-17 -40 -49 -78.5t-91.5 -71t-129.5 -32.5zM482 -20q-197 0 -296 142.5t-63 397.5q37 263 169 411t334 148q190 0 276.5 -134t52.5 -378l-7 -57h-746
q-8 -73 -6.5 -139.5t22.5 -123.5t55.5 -99.5t91 -66.5t129.5 -24q118 0 208 61t122 165h80q-49 -148 -165.5 -225.5t-256.5 -77.5zM214 588h666q17 121 -4.5 212.5t-88.5 146t-174 54.5q-87 0 -160 -36t-121 -96.5t-77.5 -131.5t-40.5 -149z" />
    <glyph glyph-name="Edotaccent" unicode="&#x116;" horiz-adv-x="1177" 
d="M719 1700l16 123h90l-16 -123h-90zM151 0l208 1481h783l-13 -82h-708l-86 -608h659l-10 -84h-659l-88 -621l735 -2l-13 -84h-808z" />
    <glyph glyph-name="edotaccent" unicode="&#x117;" horiz-adv-x="1075" 
d="M610 1278l17 123h90l-17 -123h-90zM482 -20q-197 0 -296 142.5t-63 397.5q37 263 169 411t334 148q190 0 276.5 -134t52.5 -378l-7 -57h-746q-8 -73 -6.5 -139.5t22.5 -123.5t55.5 -99.5t91 -66.5t129.5 -24q118 0 208 61t122 165h80q-49 -148 -165.5 -225.5
t-256.5 -77.5zM214 588h666q17 121 -4.5 212.5t-88.5 146t-174 54.5q-87 0 -160 -36t-121 -96.5t-77.5 -131.5t-40.5 -149z" />
    <glyph glyph-name="Eogonek" unicode="&#x118;" horiz-adv-x="1177" 
d="M151 0l208 1481h783l-13 -82h-708l-86 -608h659l-10 -84h-659l-88 -621l735 -2l-13 -83l3 -1q-105 -49 -154.5 -90.5t-58.5 -97.5q-5 -43 17 -63.5t77 -20.5q42 0 81.5 10t57.5 20l-10 -63q-68 -35 -157 -35q-85 0 -120.5 42.5t-25.5 113.5q9 61 50 105.5t128 78.5h-696z
" />
    <glyph glyph-name="eogonek" unicode="&#x119;" horiz-adv-x="1075" 
d="M450 -324q-85 0 -121 42.5t-26 113.5q13 95 111 153q-165 25 -244.5 164.5t-46.5 370.5q37 263 169 411t334 148q190 0 276.5 -134t52.5 -378l-7 -57h-746q-8 -73 -6.5 -139.5t22.5 -123.5t55.5 -99.5t91 -66.5t129.5 -24q118 0 208 61t122 165h80q-45 -135 -147.5 -212
t-230.5 -89q-67 -36 -101.5 -72.5t-41.5 -81.5q-5 -43 17 -63.5t77 -20.5q42 0 81.5 10.5t57.5 20.5l-10 -64q-68 -35 -156 -35zM214 588h666q17 121 -4.5 212.5t-88.5 146t-174 54.5q-87 0 -160 -36t-121 -96.5t-77.5 -131.5t-40.5 -149z" />
    <glyph glyph-name="Ecaron" unicode="&#x11a;" horiz-adv-x="1177" 
d="M721 1604l-199 194h109l129 -123l158 123h112l-248 -194h-61zM151 0l208 1481h783l-13 -82h-708l-86 -608h659l-10 -84h-659l-88 -621l735 -2l-13 -84h-808z" />
    <glyph glyph-name="ecaron" unicode="&#x11b;" horiz-adv-x="1075" 
d="M612 1182l-198 194h108l129 -123l158 123h113l-248 -194h-62zM482 -20q-197 0 -296 142.5t-63 397.5q37 263 169 411t334 148q190 0 276.5 -134t52.5 -378l-7 -57h-746q-8 -73 -6.5 -139.5t22.5 -123.5t55.5 -99.5t91 -66.5t129.5 -24q118 0 208 61t122 165h80
q-49 -148 -165.5 -225.5t-256.5 -77.5zM214 588h666q17 121 -4.5 212.5t-88.5 146t-174 54.5q-87 0 -160 -36t-121 -96.5t-77.5 -131.5t-40.5 -149z" />
    <glyph glyph-name="Gcircumflex" unicode="&#x11c;" horiz-adv-x="1371" 
d="M559 1605l252 194h59l195 -194h-115l-121 122l-163 -122h-107zM599 -20q-262 0 -377.5 193.5t-63.5 563.5q52 369 223 566.5t432 197.5q112 0 209 -61.5t151.5 -164t48.5 -216.5h-83q-2 93 -44 174.5t-120 132.5t-174 51q-221 0 -369 -172.5t-196 -507.5
q-46 -335 53 -506.5t321 -171.5q105 0 195.5 43.5t149.5 112t96 145t48 150.5l24 172h-383l11 72h456l-105 -754h-75l37 258q-77 -125 -196 -201.5t-269 -76.5z" />
    <glyph glyph-name="gcircumflex" unicode="&#x11d;" horiz-adv-x="1175" 
d="M361 1183l252 194h60l194 -194h-114l-121 123l-164 -123h-107zM433 -350q-206 0 -315 75t-89 222q7 55 38.5 104.5t62 74.5t70 52t42.5 29q-3 3 -12.5 9.5t-13 9.5t-12 10.5t-11 11.5t-9.5 13t-6.5 15.5t-3 18.5t0.5 22q5 43 47.5 79t116.5 59q-73 46 -108.5 118
t-23.5 164q21 158 130.5 248t302.5 90q89 0 151.5 -24t113.5 -76q192 85 225 98l-15 -119l-180 -41q32 -81 21 -176q-20 -148 -125 -233.5t-290 -85.5h-21q-135 -3 -198.5 -31.5t-68.5 -67.5q-4 -34 36 -49t157 -24q94 -7 221 -15q131 -8 198 -76.5t50 -193.5
q-19 -145 -141 -228t-341 -83zM553 494q138 0 225.5 62t104.5 185q17 128 -55 193t-210 65q-141 0 -230 -65t-106 -193q-16 -121 53.5 -184t217.5 -63zM460 -274q162 0 262.5 59t115.5 176q10 81 -36.5 131.5t-148.5 57.5l-322 22q-53 4 -133 -62t-92 -155
q-13 -106 76 -167.5t278 -61.5z" />
    <glyph glyph-name="Gbreve" unicode="&#x11e;" horiz-adv-x="1371" 
d="M807 1605q-52 0 -93 16.5t-65 44t-37.5 58t-15.5 63.5h90q21 -51 44 -71q35 -29 89 -29q92 0 166 100h92q-17 -40 -49 -78.5t-91.5 -71t-129.5 -32.5zM599 -20q-262 0 -377.5 193.5t-63.5 563.5q52 369 223 566.5t432 197.5q112 0 209 -61.5t151.5 -164t48.5 -216.5h-83
q-2 93 -44 174.5t-120 132.5t-174 51q-221 0 -369 -172.5t-196 -507.5q-46 -335 53 -506.5t321 -171.5q105 0 195.5 43.5t149.5 112t96 145t48 150.5l24 172h-383l11 72h456l-105 -754h-75l37 258q-77 -125 -196 -201.5t-269 -76.5z" />
    <glyph glyph-name="gbreve" unicode="&#x11f;" horiz-adv-x="1175" 
d="M609 1183q-52 0 -93 16.5t-65 44t-37.5 58t-15.5 63.5h90q22 -53 49 -74q34 -26 85 -26q91 0 165 100h93q-12 -29 -34 -58.5t-55 -58.5t-81 -47t-101 -18zM433 -350q-206 0 -315 75t-89 222q7 55 38.5 104.5t62 74.5t70 52t42.5 29q-3 3 -12.5 9.5t-13 9.5t-12 10.5
t-11 11.5t-9.5 13t-6.5 15.5t-3 18.5t0.5 22q5 43 47.5 79t116.5 59q-73 46 -108.5 118t-23.5 164q21 158 130.5 248t302.5 90q89 0 151.5 -24t113.5 -76q192 85 225 98l-15 -119l-180 -41q32 -81 21 -176q-20 -148 -125 -233.5t-290 -85.5h-21q-135 -3 -198.5 -31.5
t-68.5 -67.5q-4 -34 36 -49t157 -24q94 -7 221 -15q131 -8 198 -76.5t50 -193.5q-19 -145 -141 -228t-341 -83zM553 494q138 0 225.5 62t104.5 185q17 128 -55 193t-210 65q-141 0 -230 -65t-106 -193q-16 -121 53.5 -184t217.5 -63zM460 -274q162 0 262.5 59t115.5 176
q10 81 -36.5 131.5t-148.5 57.5l-322 22q-53 4 -133 -62t-92 -155q-13 -106 76 -167.5t278 -61.5z" />
    <glyph glyph-name="Gdotaccent" unicode="&#x120;" horiz-adv-x="1371" 
d="M781 1700l17 123h90l-17 -123h-90zM599 -20q-262 0 -377.5 193.5t-63.5 563.5q52 369 223 566.5t432 197.5q112 0 209 -61.5t151.5 -164t48.5 -216.5h-83q-2 93 -44 174.5t-120 132.5t-174 51q-221 0 -369 -172.5t-196 -507.5q-46 -335 53 -506.5t321 -171.5
q105 0 195.5 43.5t149.5 112t96 145t48 150.5l24 172h-383l11 72h456l-105 -754h-75l37 258q-77 -125 -196 -201.5t-269 -76.5z" />
    <glyph glyph-name="gdotaccent" unicode="&#x121;" horiz-adv-x="1175" 
d="M584 1278l16 123h90l-16 -123h-90zM433 -350q-206 0 -315 75t-89 222q7 55 38.5 104.5t62 74.5t70 52t42.5 29q-3 3 -12.5 9.5t-13 9.5t-12 10.5t-11 11.5t-9.5 13t-6.5 15.5t-3 18.5t0.5 22q5 43 47.5 79t116.5 59q-73 46 -108.5 118t-23.5 164q21 158 130.5 248
t302.5 90q89 0 151.5 -24t113.5 -76q192 85 225 98l-15 -119l-180 -41q32 -81 21 -176q-20 -148 -125 -233.5t-290 -85.5h-21q-135 -3 -198.5 -31.5t-68.5 -67.5q-4 -34 36 -49t157 -24q94 -7 221 -15q131 -8 198 -76.5t50 -193.5q-19 -145 -141 -228t-341 -83zM553 494
q138 0 225.5 62t104.5 185q17 128 -55 193t-210 65q-141 0 -230 -65t-106 -193q-16 -121 53.5 -184t217.5 -63zM460 -274q162 0 262.5 59t115.5 176q10 81 -36.5 131.5t-148.5 57.5l-322 22q-53 4 -133 -62t-92 -155q-13 -106 76 -167.5t278 -61.5z" />
    <glyph glyph-name="uni0122" unicode="&#x122;" horiz-adv-x="1371" 
d="M599 -20q-262 0 -377.5 193.5t-63.5 563.5q52 369 223 566.5t432 197.5q112 0 209 -61.5t151.5 -164t48.5 -216.5h-83q-2 93 -44 174.5t-120 132.5t-174 51q-221 0 -369 -172.5t-196 -507.5q-46 -335 53 -506.5t321 -171.5q105 0 195.5 43.5t149.5 112t96 145t48 150.5
l24 172h-383l11 72h456l-105 -754h-75l37 258q-77 -125 -196 -201.5t-269 -76.5zM454 -328l82 102h-42l17 124h119l-16 -106l-114 -120h-46z" />
    <glyph glyph-name="uni0123" unicode="&#x123;" horiz-adv-x="1175" 
d="M590 1262l24 174l91 133h63l-86 -142h47l-24 -165h-115zM433 -350q-206 0 -315 75t-89 222q7 55 38.5 104.5t62 74.5t70 52t42.5 29q-3 3 -12.5 9.5t-13 9.5t-12 10.5t-11 11.5t-9.5 13t-6.5 15.5t-3 18.5t0.5 22q5 43 47.5 79t116.5 59q-73 46 -108.5 118t-23.5 164
q21 158 130.5 248t302.5 90q89 0 151.5 -24t113.5 -76q192 85 225 98l-15 -119l-180 -41q32 -81 21 -176q-20 -148 -125 -233.5t-290 -85.5h-21q-135 -3 -198.5 -31.5t-68.5 -67.5q-4 -34 36 -49t157 -24q94 -7 221 -15q131 -8 198 -76.5t50 -193.5q-19 -145 -141 -228
t-341 -83zM553 494q138 0 225.5 62t104.5 185q17 128 -55 193t-210 65q-141 0 -230 -65t-106 -193q-16 -121 53.5 -184t217.5 -63zM460 -274q162 0 262.5 59t115.5 176q10 81 -36.5 131.5t-148.5 57.5l-322 22q-53 4 -133 -62t-92 -155q-13 -106 76 -167.5t278 -61.5z" />
    <glyph glyph-name="Hcircumflex" unicode="&#x124;" horiz-adv-x="1478" 
d="M645 1605l252 194h59l195 -194h-115l-121 122l-163 -122h-107zM152 0l207 1481h74l-94 -668h881l93 668h73l-207 -1481h-74l102 729h-879l-103 -729h-73z" />
    <glyph glyph-name="hcircumflex" unicode="&#x125;" horiz-adv-x="1105" 
d="M137 1605l252 194h60l194 -194h-115l-120 122l-164 -122h-107zM126 0l198 1522h68l-81 -621q51 79 145 128.5t210 49.5q148 0 234.5 -83t68.5 -212l-102 -784h-74l98 754q15 116 -48.5 181.5t-189.5 65.5q-90 0 -165 -27.5t-128 -88.5t-64 -148l-96 -737h-74z" />
    <glyph glyph-name="Hbar" unicode="&#x126;" horiz-adv-x="1526" 
d="M193 0l161 1155h-245l12 80h245l34 246h74l-35 -246h881l34 246h73l-34 -246h213l-13 -80h-212l-161 -1155h-74l102 729h-879l-103 -729h-73zM380 813h881l48 342h-881z" />
    <glyph glyph-name="hbar" unicode="&#x127;" horiz-adv-x="1208" 
d="M228 0l163 1251h-247l9 70h247l26 201h69l-27 -201h262l-8 -70h-262l-46 -350q51 79 145 128.5t209 49.5q148 0 234.5 -83t68.5 -212l-101 -784h-75l98 754q15 117 -48 182t-189 65q-139 0 -240.5 -68t-117.5 -196l-96 -737h-74z" />
    <glyph glyph-name="Itilde" unicode="&#x128;" horiz-adv-x="526" 
d="M211 1701l-14 61q37 32 68.5 48t72.5 16q40 0 105 -25.5t106 -25.5q33 0 56 10t57 33l18 -70l-10 -6q-9 -6 -11.5 -7.5t-12 -6.5t-14 -7t-14.5 -6t-18 -6t-18.5 -4t-21.5 -3t-23 -1q-49 0 -107 24.5t-94 24.5q-21 0 -41.5 -6t-31 -11t-29.5 -17t-23 -15zM153 0l206 1481
h74l-207 -1481h-73z" />
    <glyph glyph-name="itilde" unicode="&#x129;" horiz-adv-x="443" 
d="M108 1279l-15 61q37 32 68.5 48t72.5 16q40 0 105 -25.5t106 -25.5q33 0 56 10t57 33l19 -70q-25 -16 -35.5 -22t-42.5 -15.5t-66 -9.5q-49 0 -107 24.5t-94 24.5q-21 0 -41.5 -6t-31 -11.5t-28.5 -17t-23 -14.5zM111 0l148 1059h75l-150 -1059h-73z" />
    <glyph glyph-name="Imacron" unicode="&#x12a;" horiz-adv-x="526" 
d="M201 1717l10 76h463l-10 -76h-463zM153 0l206 1481h74l-207 -1481h-73z" />
    <glyph glyph-name="imacron" unicode="&#x12b;" horiz-adv-x="443" 
d="M97 1295l11 76h462l-10 -76h-463zM111 0l148 1059h75l-150 -1059h-73z" />
    <glyph glyph-name="Ibreve" unicode="&#x12c;" horiz-adv-x="526" 
d="M411 1605q-52 0 -93 16.5t-65 44t-37.5 58t-15.5 63.5h90q21 -51 44 -71q35 -29 89 -29q92 0 166 100h92q-17 -40 -49 -78.5t-91.5 -71t-129.5 -32.5zM153 0l206 1481h74l-207 -1481h-73z" />
    <glyph glyph-name="ibreve" unicode="&#x12d;" horiz-adv-x="443" 
d="M307 1183q-52 0 -93 16.5t-65 44t-37.5 58t-15.5 63.5h90q21 -51 44 -71q35 -29 89 -29q92 0 166 100h93q-12 -29 -34 -58.5t-55 -58.5t-81 -47t-101 -18zM111 0l148 1059h75l-150 -1059h-73z" />
    <glyph glyph-name="Iogonek" unicode="&#x12e;" horiz-adv-x="526" 
d="M80 -340q-85 0 -121 42.5t-26 113.5q9 67 60.5 115t161.5 84l204 1466h74l-207 -1481q-105 -49 -154.5 -90.5t-58.5 -97.5q-5 -42 17 -63t78 -21q42 0 81.5 10t57.5 20l-10 -63q-68 -35 -157 -35z" />
    <glyph glyph-name="iogonek" unicode="&#x12f;" horiz-adv-x="443" 
d="M282 1278l16 123h90l-16 -123h-90zM35 -334q-85 0 -121 42.5t-26 113.5q9 69 61.5 118t164.5 83l145 1036h75l-150 -1059h-16q-97 -46 -144 -87t-56 -95q-5 -43 17 -63.5t77 -20.5q42 0 82 10t58 20l-11 -63q-68 -35 -156 -35z" />
    <glyph glyph-name="Idotaccent" unicode="&#x130;" horiz-adv-x="526" 
d="M385 1700l16 123h91l-17 -123h-90zM153 0l206 1481h74l-207 -1481h-73z" />
    <glyph glyph-name="dotlessi" unicode="&#x131;" horiz-adv-x="443" 
d="M111 0l148 1059h75l-150 -1059h-73z" />
    <glyph glyph-name="Jcircumflex" unicode="&#x134;" horiz-adv-x="734" 
d="M416 1605l252 194h59l195 -194h-115l-121 122l-164 -122h-106zM248 -20q-69 0 -127 22t-72 37l31 88q1 -1 36 -23t66 -31.5t74 -9.5q89 0 132.5 56t62.5 196l164 1166h73l-168 -1194q-22 -151 -84.5 -229t-187.5 -78z" />
    <glyph glyph-name="jcircumflex" unicode="&#x135;" horiz-adv-x="429" 
d="M59 1183l252 194h60l194 -194h-114l-121 123l-164 -123h-107zM-61 -340q-45 0 -67 0.5t-35.5 2.5t-16 5t-1.5 10l8 54l119 2q73 2 109.5 41t49.5 133l162 1151h74l-164 -1161q-17 -129 -68 -183.5t-170 -54.5z" />
    <glyph glyph-name="uni0136" unicode="&#x136;" horiz-adv-x="1253" 
d="M151 0l208 1481h76l-119 -854l844 854h101l-574 -584l397 -897h-96l-373 834l-315 -326l-72 -508h-77zM438 -328l82 102h-42l18 124h118l-15 -106l-115 -120h-46z" />
    <glyph glyph-name="uni0137" unicode="&#x137;" horiz-adv-x="1046" 
d="M110 0l215 1522h72l-151 -1084l645 621h104l-403 -385l288 -674h-95l-259 606l-298 -282l-44 -324h-74zM313 -328l82 102h-42l18 124h118l-15 -106l-115 -120h-46z" />
    <glyph glyph-name="kgreenlandic" unicode="&#x138;" horiz-adv-x="1046" 
d="M110 0l150 1059h74l-88 -621l645 621h102l-401 -385l288 -674h-95l-259 606l-298 -282l-44 -324h-74z" />
    <glyph glyph-name="Lacute" unicode="&#x139;" horiz-adv-x="1119" 
d="M609 1903h116l-276 -298h-73zM151 0l208 1481h80l-196 -1393h696l-12 -88h-776z" />
    <glyph glyph-name="lacute" unicode="&#x13a;" horiz-adv-x="548" 
d="M568 1982h116l-276 -298h-73zM290 -8q-92 0 -127 70t-19 186l181 1274h74l-181 -1274q-13 -95 13 -142t71 -47h59l-7 -59q-35 -8 -64 -8z" />
    <glyph glyph-name="uni013B" unicode="&#x13b;" horiz-adv-x="1119" 
d="M151 0l208 1481h80l-196 -1393h696l-12 -88h-776zM397 -328l82 102h-42l18 124h118l-15 -106l-115 -120h-46z" />
    <glyph glyph-name="uni013C" unicode="&#x13c;" horiz-adv-x="548" 
d="M290 -8q-92 0 -127 70t-19 186l181 1274h74l-181 -1274q-13 -95 13 -142t71 -47h59l-7 -59q-35 -8 -64 -8zM56 -326l82 102h-42l18 124h118l-15 -106l-115 -120h-46z" />
    <glyph glyph-name="Lcaron" unicode="&#x13d;" horiz-adv-x="1119" 
d="M151 0l208 1481h80l-196 -1393h696l-12 -88h-776zM939 1133l90 170l-34 8l23 170h99l-23 -178l-93 -170h-62z" />
    <glyph glyph-name="lcaron" unicode="&#x13e;" horiz-adv-x="548" 
d="M290 -8q-92 0 -127 70t-19 186l181 1274h74l-181 -1274q-13 -95 13 -142t71 -47h59l-7 -59q-35 -8 -64 -8zM455 1133l90 170l-34 8l23 170h99l-24 -178l-92 -170h-62z" />
    <glyph glyph-name="Ldot" unicode="&#x13f;" horiz-adv-x="1141" 
d="M151 0l208 1481h80l-196 -1393h696l-12 -88h-776zM900 715l23 157h149l-22 -157h-150z" />
    <glyph glyph-name="ldot" unicode="&#x140;" horiz-adv-x="586" 
d="M290 -8q-92 0 -127 70t-19 186l181 1274h74l-181 -1274q-13 -95 13 -142t71 -47h59l-7 -59q-35 -8 -64 -8zM493 514l22 158h150l-23 -158h-149z" />
    <glyph glyph-name="Lslash" unicode="&#x141;" horiz-adv-x="1137" 
d="M169 0l98 695l-178 -46v78l190 48l99 706h80l-97 -684l316 80v-74l-327 -85l-89 -630h696l-12 -88h-776z" />
    <glyph glyph-name="lslash" unicode="&#x142;" horiz-adv-x="636" 
d="M59 348v92l207 194l126 888h75l-115 -808l180 169v-88l-195 -185l-51 -362q-13 -95 13 -142t71 -47h59l-7 -59q-35 -8 -65 -8q-92 0 -126.5 70t-18.5 186l40 281z" />
    <glyph glyph-name="Nacute" unicode="&#x143;" horiz-adv-x="1404" 
d="M1046 1903h115l-276 -298h-73zM151 0l208 1481h60l635 -1321l186 1321h74l-209 -1481h-64l-630 1317l-187 -1317h-73z" />
    <glyph glyph-name="nacute" unicode="&#x144;" horiz-adv-x="1085" 
d="M857 1481h116l-277 -298h-72zM111 0l148 1059h67l-20 -158q48 78 142 128t209 50q155 0 234.5 -99t51.5 -294l-96 -686h-74l97 686q22 152 -37.5 233.5t-184.5 81.5q-139 0 -240.5 -67.5t-119.5 -196.5l-105 -737h-72z" />
    <glyph glyph-name="uni0145" unicode="&#x145;" horiz-adv-x="1404" 
d="M151 0l208 1481h60l635 -1321l186 1321h74l-209 -1481h-64l-630 1317l-187 -1317h-73zM453 -328l82 102h-42l17 124h119l-16 -106l-114 -120h-46z" />
    <glyph glyph-name="uni0146" unicode="&#x146;" horiz-adv-x="1085" 
d="M111 0l148 1059h67l-20 -158q48 78 142 128t209 50q155 0 234.5 -99t51.5 -294l-96 -686h-74l97 686q22 152 -37.5 233.5t-184.5 81.5q-139 0 -240.5 -67.5t-119.5 -196.5l-105 -737h-72zM352 -328l82 102h-42l18 124h118l-15 -106l-115 -120h-46z" />
    <glyph glyph-name="Ncaron" unicode="&#x147;" horiz-adv-x="1404" 
d="M825 1604l-198 194h108l129 -123l158 123h113l-248 -194h-62zM151 0l208 1481h60l635 -1321l186 1321h74l-209 -1481h-64l-630 1317l-187 -1317h-73z" />
    <glyph glyph-name="ncaron" unicode="&#x148;" horiz-adv-x="1085" 
d="M637 1182l-199 194h109l129 -123l158 123h112l-248 -194h-61zM111 0l148 1059h67l-20 -158q48 78 142 128t209 50q155 0 234.5 -99t51.5 -294l-96 -686h-74l97 686q22 152 -37.5 233.5t-184.5 81.5q-139 0 -240.5 -67.5t-119.5 -196.5l-105 -737h-72z" />
    <glyph glyph-name="Eng" unicode="&#x14a;" horiz-adv-x="1404" 
d="M151 0l208 1481h60l635 -1321l186 1321h74l-209 -1481h-4l-27 -184q-20 -151 -82.5 -229.5t-189.5 -78.5q-69 0 -126 22t-73 38l31 88q1 -1 36 -23t66 -31.5t74 -9.5q90 0 134 56.5t63 195.5l24 170h3l-623 1303l-187 -1317h-73z" />
    <glyph glyph-name="eng" unicode="&#x14b;" horiz-adv-x="1105" 
d="M592 -340q-38 0 -57.5 0.5t-31.5 2.5t-15 5.5t-2 9.5l9 50l103 2q74 2 112 42.5t52 135.5l116 833q40 263 -196 263q-161 0 -383 -189l-115 -815h-74l150 1059h67l-22 -160q136 105 219.5 142.5t176.5 37.5q140 0 208 -81t48 -214l-122 -866q-35 -258 -243 -258z" />
    <glyph glyph-name="Omacron" unicode="&#x14c;" horiz-adv-x="1360" 
d="M623 1717l10 76h463l-11 -76h-462zM605 -20q-264 0 -382 194t-66 559q52 371 226.5 569.5t436.5 198.5q261 0 378 -197t65 -567q-52 -367 -224.5 -562t-433.5 -195zM620 63q230 0 372 168t189 506q47 340 -48.5 510t-324.5 170q-230 0 -375 -171t-192 -509
q-47 -336 50.5 -505t328.5 -169z" />
    <glyph glyph-name="omacron" unicode="&#x14d;" horiz-adv-x="1069" 
d="M377 1295l10 76h463l-10 -76h-463zM466 -20q-198 0 -293.5 137.5t-59.5 408.5q33 258 159 405.5t337 147.5q194 0 288 -139.5t59 -413.5q-33 -255 -157.5 -400.5t-332.5 -145.5zM476 55q159 0 266 118.5t138 352.5q29 221 -41.5 348t-239.5 127q-162 0 -270 -119.5
t-139 -355.5q-29 -219 42 -345t244 -126z" />
    <glyph glyph-name="Obreve" unicode="&#x14e;" horiz-adv-x="1360" 
d="M833 1605q-52 0 -93 16.5t-65 44t-37.5 58t-15.5 63.5h90q21 -51 44 -71q35 -29 89 -29q92 0 166 100h92q-17 -40 -49 -78.5t-91.5 -71t-129.5 -32.5zM605 -20q-264 0 -382 194t-66 559q52 371 226.5 569.5t436.5 198.5q261 0 378 -197t65 -567q-52 -367 -224.5 -562
t-433.5 -195zM620 63q230 0 372 168t189 506q47 340 -48.5 510t-324.5 170q-230 0 -375 -171t-192 -509q-47 -336 50.5 -505t328.5 -169z" />
    <glyph glyph-name="obreve" unicode="&#x14f;" horiz-adv-x="1069" 
d="M587 1183q-52 0 -93 16.5t-65 44t-37.5 58t-15.5 63.5h90q21 -51 44 -71q35 -29 89 -29q92 0 166 100h92q-17 -40 -49 -78.5t-91.5 -71t-129.5 -32.5zM466 -20q-198 0 -293.5 137.5t-59.5 408.5q33 258 159 405.5t337 147.5q194 0 288 -139.5t59 -413.5
q-33 -255 -157.5 -400.5t-332.5 -145.5zM476 55q159 0 266 118.5t138 352.5q29 221 -41.5 348t-239.5 127q-162 0 -270 -119.5t-139 -355.5q-29 -219 42 -345t244 -126z" />
    <glyph glyph-name="Ohungarumlaut" unicode="&#x150;" horiz-adv-x="1360" 
d="M844 1903h112l-185 -298h-70zM1072 1903h112l-218 -298h-70zM605 -20q-264 0 -382 194t-66 559q52 371 226.5 569.5t436.5 198.5q261 0 378 -197t65 -567q-52 -367 -224.5 -562t-433.5 -195zM620 63q230 0 372 168t189 506q47 340 -48.5 510t-324.5 170q-230 0 -375 -171
t-192 -509q-47 -336 50.5 -505t328.5 -169z" />
    <glyph glyph-name="ohungarumlaut" unicode="&#x151;" horiz-adv-x="1069" 
d="M598 1481h113l-186 -298h-69zM826 1481h112l-218 -298h-70zM466 -20q-198 0 -293.5 137.5t-59.5 408.5q33 258 159 405.5t337 147.5q194 0 288 -139.5t59 -413.5q-33 -255 -157.5 -400.5t-332.5 -145.5zM476 55q159 0 266 118.5t138 352.5q29 221 -41.5 348t-239.5 127
q-162 0 -270 -119.5t-139 -355.5q-29 -219 42 -345t244 -126z" />
    <glyph glyph-name="OE" unicode="&#x152;" horiz-adv-x="2123" 
d="M605 -20q-264 0 -382 194t-66 559q52 371 226.5 569.5t436.5 198.5q175 0 287 -91t151 -266l48 337h782l-12 -82h-709l-86 -608h659l-10 -84h-659l-88 -621l735 -2l-12 -84h-809l47 333q-88 -173 -226 -263t-313 -90zM620 63q230 0 372 168t189 506q47 340 -48.5 510
t-324.5 170q-230 0 -375 -171t-192 -509q-47 -336 50.5 -505t328.5 -169z" />
    <glyph glyph-name="oe" unicode="&#x153;" horiz-adv-x="1837" 
d="M466 -20q-198 0 -293.5 137.5t-59.5 408.5q33 258 159 405.5t337 147.5q142 0 232 -75.5t115 -224.5q66 145 176.5 222.5t255.5 77.5q190 0 276.5 -134t52.5 -378l-7 -57h-746q-8 -73 -6.5 -139.5t22.5 -123.5t55 -99.5t90.5 -66.5t129.5 -24q118 0 208.5 61t122.5 165
h80q-49 -148 -165.5 -225.5t-256.5 -77.5q-141 0 -234 74.5t-122 214.5q-62 -139 -168 -214t-254 -75zM476 55q159 0 266 118.5t138 352.5q29 221 -41.5 348t-239.5 127q-162 0 -270 -119.5t-139 -355.5q-29 -219 42 -345t244 -126zM976 588h665q17 121 -4 212t-88 146
t-174 55q-87 0 -160 -36t-121 -96.5t-77.5 -131.5t-40.5 -149z" />
    <glyph glyph-name="Racute" unicode="&#x154;" horiz-adv-x="1273" 
d="M962 1903h115l-276 -298h-73zM151 0l208 1481h480q201 0 296.5 -93t71.5 -274q-12 -89 -48.5 -160t-87.5 -116t-102.5 -72.5t-107.5 -42.5l180 -723h-84l-176 705h-456l-101 -705h-73zM335 788h344q202 0 312.5 74t133.5 238q21 155 -53.5 227t-245.5 72h-405z" />
    <glyph glyph-name="racute" unicode="&#x155;" horiz-adv-x="698" 
d="M670 1481h115l-276 -298h-73zM110 0l149 1059h68l-22 -158q33 67 87.5 109t104.5 55.5t103 13.5q70 0 103 -20l-11 -82q-35 18 -104 18q-31 0 -64 -6.5t-72.5 -24t-72 -45t-57.5 -75t-34 -107.5l-104 -737h-74z" />
    <glyph glyph-name="uni0156" unicode="&#x156;" horiz-adv-x="1273" 
d="M151 0l208 1481h480q201 0 296.5 -93t71.5 -274q-12 -89 -48.5 -160t-87.5 -116t-102.5 -72.5t-107.5 -42.5l180 -723h-84l-176 705h-456l-101 -705h-73zM335 788h344q202 0 312.5 74t133.5 238q21 155 -53.5 227t-245.5 72h-405zM428 -328l82 102h-42l17 124h119
l-15 -106l-115 -120h-46z" />
    <glyph glyph-name="uni0157" unicode="&#x157;" horiz-adv-x="721" 
d="M110 0l149 1059h68l-22 -158q33 67 87.5 109t104.5 55.5t103 13.5q70 0 103 -20l-11 -82q-35 18 -104 18q-31 0 -64 -6.5t-72.5 -24t-72 -45t-57.5 -75t-34 -107.5l-104 -737h-74zM6 -328l82 102h-42l17 124h119l-15 -106l-115 -120h-46z" />
    <glyph glyph-name="Rcaron" unicode="&#x158;" horiz-adv-x="1273" 
d="M741 1604l-198 194h108l129 -123l158 123h113l-248 -194h-62zM151 0l208 1481h480q201 0 296.5 -93t71.5 -274q-12 -89 -48.5 -160t-87.5 -116t-102.5 -72.5t-107.5 -42.5l180 -723h-84l-176 705h-456l-101 -705h-73zM335 788h344q202 0 312.5 74t133.5 238
q21 155 -53.5 227t-245.5 72h-405z" />
    <glyph glyph-name="rcaron" unicode="&#x159;" horiz-adv-x="721" 
d="M397 1182l-198 194h108l129 -123l158 123h113l-248 -194h-62zM110 0l149 1059h68l-22 -158q33 67 87.5 109t104.5 55.5t103 13.5q70 0 103 -20l-11 -82q-35 18 -104 18q-31 0 -64 -6.5t-72.5 -24t-72 -45t-57.5 -75t-34 -107.5l-104 -737h-74z" />
    <glyph glyph-name="Sacute" unicode="&#x15a;" horiz-adv-x="1270" 
d="M968 1903h115l-276 -298h-73zM567 -20q-192 0 -317.5 101t-131.5 281h83q11 -145 116.5 -224t260.5 -79q175 0 297 84t139 215q31 245 -204 312l-289 82q-301 85 -266 338q23 177 162.5 293t340.5 116q88 0 161 -23.5t121 -63.5t79 -92.5t41.5 -111t2.5 -118.5h-84
q4 89 -22 154t-75 101t-108 53t-131 17q-63 0 -128 -19.5t-125 -57t-102.5 -102t-53.5 -144.5q-12 -97 43 -157.5t204 -104.5l276 -81q98 -29 156.5 -90t75.5 -135t5 -162q-21 -165 -159.5 -273.5t-367.5 -108.5z" />
    <glyph glyph-name="sacute" unicode="&#x15b;" horiz-adv-x="939" 
d="M770 1481h116l-277 -298h-72zM414 -20q-160 0 -249 76.5t-84 226.5h79q5 -105 71.5 -165.5t193.5 -60.5q123 0 201 54t93 161q19 141 -112 184l-224 69q-108 34 -159 95t-37 162q19 138 115 217.5t262 79.5q143 0 218.5 -70.5t63.5 -209.5h-79q3 94 -51 148t-162 54
q-121 0 -197.5 -55t-91.5 -164q-9 -69 28.5 -110t121.5 -67l223 -69q97 -31 134.5 -100t24.5 -160q-19 -138 -116.5 -217t-266.5 -79z" />
    <glyph glyph-name="Scircumflex" unicode="&#x15c;" horiz-adv-x="1270" 
d="M523 1605l252 194h60l194 -194h-115l-120 122l-164 -122h-107zM567 -20q-192 0 -317.5 101t-131.5 281h83q11 -145 116.5 -224t260.5 -79q175 0 297 84t139 215q31 245 -204 312l-289 82q-301 85 -266 338q23 177 162.5 293t340.5 116q88 0 161 -23.5t121 -63.5t79 -92.5
t41.5 -111t2.5 -118.5h-84q4 89 -22 154t-75 101t-108 53t-131 17q-63 0 -128 -19.5t-125 -57t-102.5 -102t-53.5 -144.5q-12 -97 43 -157.5t204 -104.5l276 -81q98 -29 156.5 -90t75.5 -135t5 -162q-21 -165 -159.5 -273.5t-367.5 -108.5z" />
    <glyph glyph-name="scircumflex" unicode="&#x15d;" horiz-adv-x="939" 
d="M326 1183l252 194h59l194 -194h-114l-121 123l-164 -123h-106zM414 -20q-160 0 -249 76.5t-84 226.5h79q5 -105 71.5 -165.5t193.5 -60.5q123 0 201 54t93 161q19 141 -112 184l-224 69q-108 34 -159 95t-37 162q19 138 115 217.5t262 79.5q143 0 218.5 -70.5
t63.5 -209.5h-79q3 94 -51 148t-162 54q-121 0 -197.5 -55t-91.5 -164q-9 -69 28.5 -110t121.5 -67l223 -69q97 -31 134.5 -100t24.5 -160q-19 -138 -116.5 -217t-266.5 -79z" />
    <glyph glyph-name="Scedilla" unicode="&#x15e;" horiz-adv-x="1270" 
d="M567 -20h-7l-50 -97q78 -7 106 -46.5t21 -94.5q-10 -72 -67.5 -111t-135.5 -39q-81 0 -135 48l29 57q38 -45 106 -45q108 0 121 86q7 47 -24.5 70t-102.5 26q-14 0 -6 8l76 142q-166 18 -270.5 116.5t-109.5 261.5h83q11 -145 116.5 -224t260.5 -79q175 0 297 84t139 215
q31 245 -204 312l-289 82q-301 85 -266 338q23 177 162.5 293t340.5 116q88 0 161 -23.5t121 -63.5t79 -92.5t41.5 -111t2.5 -118.5h-84q4 89 -22 154t-75 101t-108 53t-131 17q-63 0 -128 -19.5t-125 -57t-102.5 -102t-53.5 -144.5q-12 -97 43 -157.5t204 -104.5l276 -81
q98 -29 156.5 -90t75.5 -135t5 -162q-21 -165 -159.5 -273.5t-367.5 -108.5z" />
    <glyph glyph-name="scedilla" unicode="&#x15f;" horiz-adv-x="939" 
d="M314 -408q-81 0 -135 48l29 57q38 -45 106 -45q108 0 121 86q7 47 -24.5 70t-102.5 26q-14 0 -6 8l74 139q-143 9 -221.5 85t-73.5 217h79q5 -105 71.5 -165.5t193.5 -60.5q123 0 201 54t93 161q19 141 -112 184l-224 69q-108 34 -159 95t-37 162q19 138 115 217.5
t262 79.5q143 0 218.5 -70.5t63.5 -209.5h-79q3 94 -51 148t-162 54q-121 0 -197.5 -55t-91.5 -164q-9 -69 28.5 -110t121.5 -67l223 -69q97 -31 134.5 -100t24.5 -160q-19 -132 -109.5 -210.5t-247.5 -84.5l-50 -98q78 -7 106 -46.5t21 -94.5q-10 -72 -67.5 -111
t-135.5 -39z" />
    <glyph glyph-name="Scaron" unicode="&#x160;" horiz-adv-x="1270" 
d="M748 1604l-199 194h108l129 -123l158 123h113l-248 -194h-61zM567 -20q-192 0 -317.5 101t-131.5 281h83q11 -145 116.5 -224t260.5 -79q175 0 297 84t139 215q31 245 -204 312l-289 82q-301 85 -266 338q23 177 162.5 293t340.5 116q88 0 161 -23.5t121 -63.5t79 -92.5
t41.5 -111t2.5 -118.5h-84q4 89 -22 154t-75 101t-108 53t-131 17q-63 0 -128 -19.5t-125 -57t-102.5 -102t-53.5 -144.5q-12 -97 43 -157.5t204 -104.5l276 -81q98 -29 156.5 -90t75.5 -135t5 -162q-21 -165 -159.5 -273.5t-367.5 -108.5z" />
    <glyph glyph-name="scaron" unicode="&#x161;" horiz-adv-x="939" 
d="M550 1182l-199 194h109l129 -123l157 123h113l-248 -194h-61zM414 -20q-160 0 -249 76.5t-84 226.5h79q5 -105 71.5 -165.5t193.5 -60.5q123 0 201 54t93 161q19 141 -112 184l-224 69q-108 34 -159 95t-37 162q19 138 115 217.5t262 79.5q143 0 218.5 -70.5t63.5 -209.5
h-79q3 94 -51 148t-162 54q-121 0 -197.5 -55t-91.5 -164q-9 -69 28.5 -110t121.5 -67l223 -69q97 -31 134.5 -100t24.5 -160q-19 -138 -116.5 -217t-266.5 -79z" />
    <glyph glyph-name="uni0162" unicode="&#x162;" horiz-adv-x="1091" 
d="M453 0l196 1399h-467l11 82h970l-9 -82h-431l-195 -1385h2l-3 -5l-1 -9h-3l-58 -113q78 -7 106 -46.5t21 -94.5q-10 -72 -67.5 -110.5t-135.5 -38.5q-82 0 -135 47l29 57q38 -45 106 -45q108 0 121 86q7 47 -24.5 70t-102.5 26q-14 0 -6 8l82 154h-6z" />
    <glyph glyph-name="uni0163" unicode="&#x163;" horiz-adv-x="705" 
d="M406 0h-16l-60 -117q78 -7 106 -46.5t21 -94.5q-10 -72 -67.5 -111t-135.5 -39q-81 0 -135 48l28 57q38 -45 107 -45q108 0 121 86q7 47 -24.5 70t-102.5 26q-14 0 -6 8l89 166q-62 17 -80.5 71t-3.5 159l105 751h-159l11 70h156l63 297h56l-41 -297h226l-11 -70h-225
l-104 -741q-5 -37 -5.5 -63.5t5 -45.5t14.5 -30.5t26.5 -18t37.5 -8.5t51 -2h82l-11 -70q-30 -10 -118 -10z" />
    <glyph glyph-name="Tcaron" unicode="&#x164;" horiz-adv-x="1091" 
d="M689 1604l-199 194h109l129 -123l158 123h112l-247 -194h-62zM453 0l196 1399h-467l11 82h970l-9 -82h-431l-197 -1399h-73z" />
    <glyph glyph-name="tcaron" unicode="&#x165;" horiz-adv-x="710" 
d="M719 1159l90 170l-34 8l23 170h99l-24 -178l-92 -170h-62zM406 0q-109 0 -144 54.5t-15 183.5l105 751h-159l11 70h156l63 297h56l-41 -297h226l-11 -70h-225l-104 -741q-5 -37 -5.5 -63.5t5 -45.5t14.5 -30.5t26.5 -18t37.5 -8.5t51 -2h82l-11 -70q-30 -10 -118 -10z
" />
    <glyph glyph-name="Tbar" unicode="&#x166;" horiz-adv-x="1091" 
d="M453 0l101 719h-335v84h346l84 596h-467l11 82h970l-9 -82h-431l-84 -596h311v-84h-322l-102 -719h-73z" />
    <glyph glyph-name="tbar" unicode="&#x167;" horiz-adv-x="700" 
d="M458 0q-109 0 -144 54.5t-15 183.5l45 321h-191v70h201l50 360h-159l11 70h157l62 297h56l-41 -297h226l-10 -70h-226l-51 -360h180v-70h-189l-44 -311q-5 -37 -5.5 -63.5t5 -45.5t14.5 -30.5t26.5 -18t37.5 -8.5t51 -2h82l-10 -70q-30 -10 -119 -10z" />
    <glyph glyph-name="Utilde" unicode="&#x168;" horiz-adv-x="1307" 
d="M625 1701l-15 61q74 64 142 64q40 0 105 -25.5t106 -25.5q32 0 55 10t57 33l19 -70q-25 -16 -35.5 -22t-42.5 -15.5t-66 -9.5q-49 0 -106.5 24.5t-93.5 24.5q-21 0 -41.5 -6t-31 -11t-29.5 -17t-23 -15zM599 -20q-232 0 -324 124t-55 385l139 992h80l-143 -1026
q-57 -398 313 -398q378 0 434 398l144 1026h73l-143 -1022q-34 -241 -162.5 -360t-355.5 -119z" />
    <glyph glyph-name="utilde" unicode="&#x169;" horiz-adv-x="1099" 
d="M428 1279l-14 61q37 32 68.5 48t72.5 16q40 0 105 -25.5t106 -25.5q33 0 56 10t57 33l18 -70l-9 -6l-12.5 -7.5t-12 -6.5t-14 -7t-14.5 -6t-18 -6t-18.5 -4t-21.5 -3t-23 -1q-49 0 -107 24.5t-94 24.5q-21 0 -41.5 -6t-31 -11t-29.5 -17t-23 -15zM467 -20
q-176 2 -264.5 96.5t-62.5 277.5l99 705h74l-99 -705q-20 -138 44.5 -217.5t214.5 -79.5q140 0 232 79.5t114 234.5l97 688h74l-149 -1059h-68l22 195q-41 -101 -125.5 -158.5t-202.5 -56.5z" />
    <glyph glyph-name="Umacron" unicode="&#x16a;" horiz-adv-x="1307" 
d="M614 1717l11 76h462l-10 -76h-463zM599 -20q-232 0 -324 124t-55 385l139 992h80l-143 -1026q-57 -398 313 -398q378 0 434 398l144 1026h73l-143 -1022q-34 -241 -162.5 -360t-355.5 -119z" />
    <glyph glyph-name="umacron" unicode="&#x16b;" horiz-adv-x="1099" 
d="M418 1295l10 76h463l-10 -76h-463zM467 -20q-176 2 -264.5 96.5t-62.5 277.5l99 705h74l-99 -705q-20 -138 44.5 -217.5t214.5 -79.5q140 0 232 79.5t114 234.5l97 688h74l-149 -1059h-68l22 195q-41 -101 -125.5 -158.5t-202.5 -56.5z" />
    <glyph glyph-name="Ubreve" unicode="&#x16c;" horiz-adv-x="1307" 
d="M824 1605q-52 0 -93 16.5t-65 44t-37.5 58t-15.5 63.5h90q22 -53 49 -74q34 -26 85 -26q91 0 165 100h93q-12 -29 -34 -58.5t-55 -58.5t-81 -47t-101 -18zM599 -20q-232 0 -324 124t-55 385l139 992h80l-143 -1026q-57 -398 313 -398q378 0 434 398l144 1026h73
l-143 -1022q-34 -241 -162.5 -360t-355.5 -119z" />
    <glyph glyph-name="ubreve" unicode="&#x16d;" horiz-adv-x="1099" 
d="M628 1183q-52 0 -93 16.5t-65 44t-37.5 58t-15.5 63.5h90q21 -51 44 -71q35 -29 89 -29q92 0 166 100h92q-17 -40 -49 -78.5t-91.5 -71t-129.5 -32.5zM467 -20q-176 2 -264.5 96.5t-62.5 277.5l99 705h74l-99 -705q-20 -138 44.5 -217.5t214.5 -79.5q140 0 232 79.5
t114 234.5l97 688h74l-149 -1059h-68l22 195q-41 -101 -125.5 -158.5t-202.5 -56.5z" />
    <glyph glyph-name="Uring" unicode="&#x16e;" horiz-adv-x="1307" 
d="M830 1622q-75 0 -120 58.5t-33 144.5q10 79 73 135.5t138 56.5q77 0 122 -56.5t33 -139.5q-10 -84 -72 -141.5t-141 -57.5zM841 1702q44 0 80.5 35.5t44.5 83.5q6 52 -20.5 84t-72.5 32q-43 0 -79 -32.5t-43 -83.5q-7 -47 20 -83t70 -36zM599 -20q-232 0 -324 124
t-55 385l139 992h80l-143 -1026q-57 -398 313 -398q378 0 434 398l144 1026h73l-143 -1022q-34 -241 -162.5 -360t-355.5 -119z" />
    <glyph glyph-name="uring" unicode="&#x16f;" horiz-adv-x="1099" 
d="M634 1200q-76 0 -121 58.5t-33 144.5q10 79 73 135.5t138 56.5q77 0 122.5 -56.5t33.5 -139.5q-10 -84 -72 -141.5t-141 -57.5zM644 1280q44 0 80.5 35.5t44.5 83.5q6 52 -20 84.5t-72 32.5q-43 0 -79.5 -33t-43.5 -84q-7 -47 20 -83t70 -36zM467 -20q-176 2 -264.5 96.5
t-62.5 277.5l99 705h74l-99 -705q-20 -138 44.5 -217.5t214.5 -79.5q140 0 232 79.5t114 234.5l97 688h74l-149 -1059h-68l22 195q-41 -101 -125.5 -158.5t-202.5 -56.5z" />
    <glyph glyph-name="Uhungarumlaut" unicode="&#x170;" horiz-adv-x="1307" 
d="M836 1903h112l-185 -298h-70zM1064 1903h112l-219 -298h-69zM599 -20q-232 0 -324 124t-55 385l139 992h80l-143 -1026q-57 -398 313 -398q378 0 434 398l144 1026h73l-143 -1022q-34 -241 -162.5 -360t-355.5 -119z" />
    <glyph glyph-name="uhungarumlaut" unicode="&#x171;" horiz-adv-x="1046" 
d="M637 1481h113l-186 -298h-69zM865 1481h112l-218 -298h-70zM467 -20q-176 2 -264.5 96.5t-62.5 277.5l99 705h74l-99 -705q-20 -138 44.5 -217.5t214.5 -79.5q140 0 232 79.5t114 234.5l97 688h74l-149 -1059h-68l22 195q-41 -101 -125.5 -158.5t-202.5 -56.5z" />
    <glyph glyph-name="Uogonek" unicode="&#x172;" horiz-adv-x="1307" 
d="M598 -342q-85 0 -120.5 42.5t-25.5 113.5q14 106 136 166q-225 3 -314.5 127t-53.5 382l139 992h80l-143 -1026q-57 -398 313 -398q378 0 434 398l144 1026h73l-143 -1022q-57 -407 -388 -468q-96 -46 -142.5 -86.5t-55.5 -94.5q-5 -42 17 -63t78 -21q42 0 81.5 10
t57.5 20l-10 -63q-68 -35 -157 -35z" />
    <glyph glyph-name="uogonek" unicode="&#x173;" horiz-adv-x="1099" 
d="M467 -20q-176 2 -264.5 96.5t-62.5 277.5l99 705h74l-99 -705q-20 -138 44.5 -217.5t214.5 -79.5q140 0 232 79.5t114 234.5l97 688h74l-149 -1059h-50q-102 -48 -151 -89.5t-58 -96.5q-5 -43 17 -63.5t77 -20.5q42 0 81.5 10t57.5 20l-10 -63q-68 -35 -157 -35
q-85 0 -120.5 42.5t-25.5 113.5q9 69 62 118t169 84l41 -12l21 187q-41 -101 -125.5 -158.5t-202.5 -56.5z" />
    <glyph glyph-name="Wcircumflex" unicode="&#x174;" horiz-adv-x="1783" 
d="M791 1605l251 194h60l194 -194h-114l-121 122l-164 -122h-106zM368 0l-174 1481h84l154 -1381l555 1381h73l164 -1381l555 1381h80l-601 -1481h-101l-156 1327l-535 -1327h-98z" />
    <glyph glyph-name="wcircumflex" unicode="&#x175;" horiz-adv-x="1484" 
d="M590 1183l252 194h59l195 -194h-115l-121 123l-164 -123h-106zM299 0l-137 1059h80l123 -971h22l397 971h68l139 -967h23l383 967h76l-418 -1059h-123l-133 922l-371 -922h-129z" />
    <glyph glyph-name="Ycircumflex" unicode="&#x176;" horiz-adv-x="1036" 
d="M418 1609l252 194h59l195 -194h-115l-121 123l-164 -123h-106zM412 0l88 639l-336 842h82l303 -762l510 762h82l-567 -844l-90 -637h-72z" />
    <glyph glyph-name="ycircumflex" unicode="&#x177;" horiz-adv-x="966" 
d="M329 1183l252 194h59l195 -194h-115l-121 123l-164 -123h-106zM95 -338q-42 0 -70.5 4t-36.5 8l-7 4l8 56h104q84 0 134 34.5t81 96.5l70 141l-234 1053h80l209 -944l467 944h72l-596 -1213q-94 -184 -281 -184z" />
    <glyph glyph-name="Ydieresis" unicode="&#x178;" horiz-adv-x="1036" 
d="M764 1704l16 123h90l-16 -123h-90zM526 1704l17 123h90l-17 -123h-90zM412 0l88 639l-336 842h82l303 -762l510 762h82l-567 -844l-90 -637h-72z" />
    <glyph glyph-name="Zacute" unicode="&#x179;" horiz-adv-x="1161" 
d="M950 1903h116l-276 -298h-73zM76 0l10 63l987 1338h-782l10 80h881l-8 -62l-994 -1339h805l-12 -80h-897z" />
    <glyph glyph-name="zacute" unicode="&#x17a;" horiz-adv-x="897" 
d="M761 1481h116l-277 -298h-73zM19 0l9 70l752 919h-578l10 70h660l-9 -70l-750 -919h627l-10 -70h-711z" />
    <glyph glyph-name="Zdotaccent" unicode="&#x17b;" horiz-adv-x="1161" 
d="M728 1700l16 123h91l-17 -123h-90zM76 0l10 63l987 1338h-782l10 80h881l-8 -62l-994 -1339h805l-12 -80h-897z" />
    <glyph glyph-name="zdotaccent" unicode="&#x17c;" horiz-adv-x="897" 
d="M539 1278l16 123h90l-16 -123h-90zM19 0l9 70l752 919h-578l10 70h660l-9 -70l-750 -919h627l-10 -70h-711z" />
    <glyph glyph-name="Zcaron" unicode="&#x17d;" horiz-adv-x="1161" 
d="M730 1604l-199 194h109l129 -123l158 123h112l-247 -194h-62zM76 0l10 63l987 1338h-782l10 80h881l-8 -62l-994 -1339h805l-12 -80h-897z" />
    <glyph glyph-name="zcaron" unicode="&#x17e;" horiz-adv-x="897" 
d="M541 1182l-199 194h109l129 -123l157 123h113l-248 -194h-61zM19 0l9 70l752 919h-578l10 70h660l-9 -70l-750 -919h627l-10 -70h-711z" />
    <glyph glyph-name="uni018F" unicode="&#x18f;" horiz-adv-x="1368" 
d="M611 -20q-264 0 -382.5 199.5t-64.5 580.5h1026q44 314 -52 484.5t-325 170.5q-89 0 -170.5 -26.5t-141.5 -70t-107 -98.5t-74 -112.5t-35 -112.5h-91q12 83 64 171t132.5 163.5t195.5 123.5t239 48q259 0 377 -203.5t68 -560.5q-51 -366 -224 -561.5t-435 -195.5z
M624 66q113 0 208.5 46.5t164 129t114.5 193t67 241.5h-937q-24 -177 8.5 -313t128.5 -216.5t246 -80.5z" />
    <glyph glyph-name="florin" unicode="&#x192;" horiz-adv-x="729" 
d="M-347 -340l18 68l107 2q74 2 117 42.5t71 135.5l326 1081h-156l21 70h157l52 176q76 246 284 246h142l-21 -70h-149q-60 0 -108 -45.5t-71 -122.5l-57 -184h270l-20 -70h-270l-322 -1071q-77 -258 -287 -258h-104z" />
    <glyph glyph-name="Ohorn" unicode="&#x1a0;" horiz-adv-x="1453" 
d="M605 -20q-264 0 -382 194t-66 559q52 371 226.5 569.5t436.5 198.5q272 0 386 -213l4 28q80 -2 120.5 38.5t58.5 150.5h89q-19 -136 -81 -202.5t-167 -63.5q77 -196 33 -502q-52 -367 -224.5 -562t-433.5 -195zM620 63q230 0 372 168t189 506q47 340 -48.5 510
t-324.5 170q-230 0 -375 -171t-192 -509q-47 -336 50.5 -505t328.5 -169z" />
    <glyph glyph-name="ohorn" unicode="&#x1a1;" horiz-adv-x="1178" 
d="M468 -20q-198 0 -293.5 137.5t-59.5 408.5q33 258 159 405.5t337 147.5q135 0 223.5 -68.5t118.5 -204.5q70 2 106.5 43.5t54.5 145.5h89q-38 -266 -238 -266q7 -84 -7 -203q-33 -255 -157.5 -400.5t-332.5 -145.5zM478 55q159 0 266 118.5t138 352.5q29 221 -41.5 348
t-239.5 127q-162 0 -269.5 -119.5t-138.5 -355.5q-19 -144 4 -248t94 -163.5t187 -59.5z" />
    <glyph glyph-name="Uhorn" unicode="&#x1af;" horiz-adv-x="1458" 
d="M599 -20q-232 0 -324 124t-55 385l139 992h80l-143 -1026q-57 -398 313 -398q378 0 434 398l144 1026h73l-23 -165q65 4 99.5 45.5t51.5 142.5h89q-19 -137 -81.5 -203.5t-169.5 -62.5l-109 -779q-34 -241 -162.5 -360t-355.5 -119z" />
    <glyph glyph-name="uhorn" unicode="&#x1b0;" horiz-adv-x="1136" 
d="M468 -20q-176 2 -264.5 96.5t-62.5 277.5l99 705h74l-99 -705q-20 -138 44.5 -217.5t214.5 -79.5q140 0 232 79.5t114 234.5l98 688h73l-15 -108q69 3 105 45t53 145h89q-20 -139 -84 -206t-173 -61l-124 -874h-68l22 195q-41 -101 -125.5 -158.5t-202.5 -56.5z" />
    <glyph glyph-name="uni01D4" unicode="&#x1d4;" horiz-adv-x="1099" 
d="M604 1182l-198 194h108l129 -123l158 123h112l-247 -194h-62zM467 -20q-176 2 -264.5 96.5t-62.5 277.5l99 705h74l-99 -705q-20 -138 44.5 -217.5t214.5 -79.5q140 0 232 79.5t114 234.5l97 688h74l-149 -1059h-68l22 195q-41 -101 -125.5 -158.5t-202.5 -56.5z" />
    <glyph glyph-name="uni01EA" unicode="&#x1ea;" horiz-adv-x="1360" 
d="M605 -342q-85 0 -120.5 42.5t-25.5 113.5q14 106 136 166q-258 4 -373.5 198t-64.5 555q52 371 226.5 569.5t436.5 198.5q261 0 378 -197t65 -567q-44 -313 -178 -502.5t-339 -238.5q-101 -48 -149.5 -89.5t-57.5 -96.5q-5 -43 17 -63.5t77 -20.5q42 0 81.5 10t57.5 20
l-10 -63q-68 -35 -157 -35zM620 63q230 0 372 168t189 506q47 340 -48.5 510t-324.5 170q-230 0 -375 -171t-192 -509q-47 -336 50.5 -505t328.5 -169z" />
    <glyph glyph-name="uni01EB" unicode="&#x1eb;" horiz-adv-x="1069" 
d="M406 -340q-85 0 -121 42.5t-26 113.5q14 108 140 168q-165 22 -242 158.5t-44 383.5q33 258 159 405.5t337 147.5q194 0 288 -139.5t59 -413.5q-32 -239 -143.5 -382.5t-298.5 -161.5q-84 -42 -125.5 -81t-49.5 -89q-5 -43 17 -63.5t77 -20.5q42 0 81.5 10t57.5 20
l-10 -63q-68 -35 -156 -35zM476 55q159 0 266 118.5t138 352.5q29 221 -41.5 348t-239.5 127q-162 0 -270 -119.5t-139 -355.5q-29 -219 42 -345t244 -126z" />
    <glyph glyph-name="Aringacute" unicode="&#x1fa;" horiz-adv-x="1335" 
d="M43 0l690 1446q-47 23 -69.5 73.5t-14.5 116.5q9 74 65 129.5t127 61.5l47 128h98l-72 -136q54 -20 82 -71t19 -116q-10 -69 -52 -120.5t-101 -71.5l281 -1440h-81l-90 467h-625l-225 -467h-79zM812 1510q43 0 79 36t44 83q8 52 -18 85.5t-72 33.5q-44 0 -81 -34t-44 -85
q-6 -46 22 -82.5t70 -36.5zM386 555h570l-163 840z" />
    <glyph glyph-name="aringacute" unicode="&#x1fb;" horiz-adv-x="1040" 
d="M360 -20q-145 0 -218 77.5t-55 212.5q25 179 142.5 260.5t361.5 90.5l225 8l15 102q18 126 -49.5 198t-194.5 72q-108 0 -193 -59.5t-115 -165.5h-80q20 96 94 176.5t187 111.5q-46 59 -34 150q9 74 65 129.5t127 61.5l47 128h98l-71 -136q54 -20 81.5 -71t18.5 -116
q-14 -92 -82 -151q98 -34 145 -119t29 -207l-102 -733h-68l25 205q-142 -225 -399 -225zM609 1089q43 0 79 35.5t44 82.5q8 52 -18 85.5t-72 33.5q-44 0 -81 -34t-44 -85q-6 -46 21.5 -82t70.5 -36zM382 55q124 0 251 91t142 196l29 207l-188 -4q-230 -4 -330 -66t-121 -203
q-13 -103 46 -162t171 -59z" />
    <glyph glyph-name="AEacute" unicode="&#x1fc;" horiz-adv-x="1728" 
d="M1504 1903h116l-277 -298h-72zM-75 0l985 1481h781l-11 -80h-653l-86 -613h614l-10 -79h-616l-88 -629h680l-11 -80h-765l69 475h-493l-318 -475h-78zM368 555h456l119 848z" />
    <glyph glyph-name="aeacute" unicode="&#x1fd;" horiz-adv-x="1764" 
d="M1157 1481h116l-277 -298h-72zM360 -20q-145 0 -218.5 77.5t-54.5 212.5q26 179 143.5 261t362.5 90l228 8l15 102q18 126 -49 198t-194 72q-110 0 -192.5 -59t-112.5 -166h-80q25 123 131.5 213t267.5 90q130 0 211 -64.5t93 -180.5q67 119 170 182t234 63
q190 0 277 -134t53 -378l-8 -57h-746q-8 -73 -6.5 -139.5t22.5 -123.5t55.5 -99.5t91 -66.5t129.5 -24q118 0 208 61t122 165h80q-49 -148 -165.5 -225.5t-256.5 -77.5q-143 0 -236.5 77t-121.5 221q-39 -130 -173.5 -214t-279.5 -84zM903 588h666q17 121 -4 212t-88 146
t-174 55q-87 0 -160 -36t-121 -96.5t-78 -132t-41 -148.5zM384 55q78 0 151.5 32.5t125 82.5t85 109t41.5 113l23 157l-192 -4q-157 -4 -251.5 -33t-141 -85.5t-59.5 -150.5q-14 -103 45 -162t173 -59z" />
    <glyph glyph-name="Oslashacute" unicode="&#x1fe;" horiz-adv-x="1378" 
d="M1033 1903h116l-277 -298h-72zM60 -27l-57 66l193 207q-74 184 -31 487q52 371 226 569.5t435 198.5q251 0 373 -184l176 188l60 -63l-195 -209q74 -196 31 -496q-50 -366 -224.5 -561.5t-435.5 -195.5q-258 0 -372 182zM267 322l865 925q-91 168 -318 168
q-459 0 -557 -678q-35 -261 10 -415zM628 66q228 0 365 165.5t184 505.5q37 259 -9 422l-864 -926q93 -167 324 -167z" />
    <glyph glyph-name="oslashacute" unicode="&#x1ff;" horiz-adv-x="1012" 
d="M717 1481h116l-277 -298h-73zM18 -8l-55 57l110 108q-67 135 -38 369q33 258 159 405.5t337 147.5q220 0 307 -170l155 154l56 -57l-181 -178q33 -122 11 -302q-33 -254 -158 -400t-333 -146q-178 0 -271 108zM113 526q-25 -191 23 -307l638 628q-68 154 -253 154
q-162 0 -269.5 -119.5t-138.5 -355.5zM398 55q159 0 266 118.5t138 352.5q17 137 -2 235l-623 -613q77 -93 221 -93z" />
    <glyph glyph-name="uni0200" unicode="&#x200;" horiz-adv-x="1335" 
d="M787 1903l143 -298h-70l-185 298h112zM559 1903l176 -298h-69l-219 298h112zM43 0l707 1481h104l289 -1481h-81l-90 467h-625l-225 -467h-79zM386 555h570l-163 840z" />
    <glyph glyph-name="uni0201" unicode="&#x201;" horiz-adv-x="1085" 
d="M611 1481l143 -298h-70l-185 298h112zM383 1481l176 -298h-70l-218 298h112zM360 -20q-145 0 -218 77.5t-55 212.5q25 179 142.5 260.5t361.5 90.5l225 8l15 102q18 126 -49.5 198t-194.5 72q-108 0 -193 -59.5t-115 -165.5h-80q25 122 133.5 212.5t268.5 90.5
q157 0 241.5 -93.5t61.5 -252.5l-102 -733h-68l25 205q-142 -225 -399 -225zM382 55q124 0 251 91t142 196l29 207l-188 -4q-230 -4 -330 -66t-121 -203q-13 -103 46 -162t171 -59z" />
    <glyph glyph-name="uni0202" unicode="&#x202;" horiz-adv-x="1335" 
d="M822 1811q53 0 95.5 -18t67.5 -47t38.5 -58.5t17.5 -58.5h-92q-44 101 -137 101q-43 0 -78.5 -19.5t-50.5 -37t-30 -39.5l-1.5 -3t-1.5 -2h-90q26 72 94 127t168 55zM43 0l707 1481h104l289 -1481h-81l-90 467h-625l-225 -467h-79zM386 555h570l-163 840z" />
    <glyph glyph-name="uni0203" unicode="&#x203;" horiz-adv-x="1085" 
d="M626 1390q53 0 95.5 -18.5t67.5 -47.5t38.5 -58.5t17.5 -58.5h-92q-44 101 -138 101q-92 0 -153 -89q-2 -3 -4 -7l-4 -5h-90q26 72 94.5 127.5t167.5 55.5zM360 -20q-145 0 -218 77.5t-55 212.5q25 179 142.5 260.5t361.5 90.5l225 8l15 102q18 126 -49.5 198t-194.5 72
q-108 0 -193 -59.5t-115 -165.5h-80q25 122 133.5 212.5t268.5 90.5q157 0 241.5 -93.5t61.5 -252.5l-102 -733h-68l25 205q-142 -225 -399 -225zM382 55q124 0 251 91t142 196l29 207l-188 -4q-230 -4 -330 -66t-121 -203q-13 -103 46 -162t171 -59z" />
    <glyph glyph-name="uni0204" unicode="&#x204;" horiz-adv-x="1177" 
d="M718 1903l142 -298h-69l-186 298h113zM489 1903l177 -298h-70l-218 298h111zM151 0l208 1481h783l-13 -82h-708l-86 -608h659l-10 -84h-659l-88 -621l735 -2l-13 -84h-808z" />
    <glyph glyph-name="uni0205" unicode="&#x205;" horiz-adv-x="1075" 
d="M609 1481l143 -298h-70l-185 298h112zM381 1481l176 -298h-70l-218 298h112zM482 -20q-197 0 -296 142.5t-63 397.5q37 263 169 411t334 148q190 0 276.5 -134t52.5 -378l-7 -57h-746q-8 -73 -6.5 -139.5t22.5 -123.5t55.5 -99.5t91 -66.5t129.5 -24q118 0 208 61
t122 165h80q-49 -148 -165.5 -225.5t-256.5 -77.5zM214 588h666q17 121 -4.5 212.5t-88.5 146t-174 54.5q-87 0 -160 -36t-121 -96.5t-77.5 -131.5t-40.5 -149z" />
    <glyph glyph-name="uni0206" unicode="&#x206;" horiz-adv-x="1177" 
d="M753 1811q53 0 95.5 -18t67.5 -47t38.5 -58.5t17.5 -58.5h-92q-44 101 -138 101q-32 0 -59 -9t-48.5 -29t-28 -28t-21.5 -30q-3 -3 -4 -5h-91q26 72 94.5 127t168.5 55zM151 0l208 1481h783l-13 -82h-708l-86 -608h659l-10 -84h-659l-88 -621l735 -2l-13 -84h-808z" />
    <glyph glyph-name="uni0207" unicode="&#x207;" horiz-adv-x="1075" 
d="M644 1390q53 0 95.5 -18.5t67.5 -47.5t38.5 -58.5t17.5 -58.5h-92q-44 101 -137 101q-43 0 -78.5 -19.5t-50.5 -37t-30 -39.5q-2 -4 -3 -5h-90q26 72 94.5 127.5t167.5 55.5zM482 -20q-197 0 -296 142.5t-63 397.5q37 263 169 411t334 148q190 0 276.5 -134t52.5 -378
l-7 -57h-746q-8 -73 -6.5 -139.5t22.5 -123.5t55.5 -99.5t91 -66.5t129.5 -24q118 0 208 61t122 165h80q-49 -148 -165.5 -225.5t-256.5 -77.5zM214 588h666q17 121 -4.5 212.5t-88.5 146t-174 54.5q-87 0 -160 -36t-121 -96.5t-77.5 -131.5t-40.5 -149z" />
    <glyph glyph-name="uni0208" unicode="&#x208;" horiz-adv-x="526" 
d="M384 1903l142 -298h-69l-186 298h113zM156 1903l176 -298h-70l-218 298h112zM153 0l206 1481h74l-207 -1481h-73z" />
    <glyph glyph-name="uni0209" unicode="&#x209;" horiz-adv-x="443" 
d="M281 1481l142 -298h-70l-185 298h113zM52 1481l176 -298h-69l-218 298h111zM111 0l148 1059h75l-150 -1059h-73z" />
    <glyph glyph-name="uni020A" unicode="&#x20a;" horiz-adv-x="526" 
d="M419 1811q53 0 95.5 -18t67.5 -47t38.5 -58.5t17.5 -58.5h-92q-44 101 -137 101q-43 0 -78.5 -19.5t-50.5 -37t-30 -39.5q-2 -4 -3 -5h-90q26 72 94 127t168 55zM153 0l206 1481h74l-207 -1481h-73z" />
    <glyph glyph-name="uni020B" unicode="&#x20b;" horiz-adv-x="443" 
d="M315 1390q53 0 95.5 -18.5t67.5 -47.5t39 -58.5t18 -58.5h-93q-44 101 -137 101q-43 0 -78.5 -19.5t-50.5 -37t-30 -39.5q-2 -4 -3 -5h-90q26 72 94.5 127.5t167.5 55.5zM111 0l148 1059h75l-150 -1059h-73z" />
    <glyph glyph-name="uni020C" unicode="&#x20c;" horiz-adv-x="1360" 
d="M806 1903l142 -298h-69l-186 298h113zM578 1903l176 -298h-70l-218 298h112zM605 -20q-264 0 -382 194t-66 559q52 371 226.5 569.5t436.5 198.5q261 0 378 -197t65 -567q-52 -367 -224.5 -562t-433.5 -195zM620 63q230 0 372 168t189 506q47 340 -48.5 510t-324.5 170
q-230 0 -375 -171t-192 -509q-47 -336 50.5 -505t328.5 -169z" />
    <glyph glyph-name="uni020D" unicode="&#x20d;" horiz-adv-x="1069" 
d="M560 1481l142 -298h-69l-186 298h113zM332 1481l176 -298h-70l-218 298h112zM466 -20q-198 0 -293.5 137.5t-59.5 408.5q33 258 159 405.5t337 147.5q194 0 288 -139.5t59 -413.5q-33 -255 -157.5 -400.5t-332.5 -145.5zM476 55q159 0 266 118.5t138 352.5
q29 221 -41.5 348t-239.5 127q-162 0 -270 -119.5t-139 -355.5q-29 -219 42 -345t244 -126z" />
    <glyph glyph-name="uni020E" unicode="&#x20e;" horiz-adv-x="1360" 
d="M841 1811q53 0 95.5 -18t67.5 -47t38.5 -58.5t17.5 -58.5h-92q-44 101 -138 101q-32 0 -59 -9t-48.5 -29t-28 -28t-21.5 -30q-3 -3 -4 -5h-90q26 72 94 127t168 55zM605 -20q-264 0 -382 194t-66 559q52 371 226.5 569.5t436.5 198.5q261 0 378 -197t65 -567
q-52 -367 -224.5 -562t-433.5 -195zM620 63q230 0 372 168t189 506q47 340 -48.5 510t-324.5 170q-230 0 -375 -171t-192 -509q-47 -336 50.5 -505t328.5 -169z" />
    <glyph glyph-name="uni020F" unicode="&#x20f;" horiz-adv-x="1069" 
d="M595 1390q53 0 95.5 -18.5t67.5 -47.5t38.5 -58.5t17.5 -58.5h-92q-44 101 -137 101q-43 0 -78.5 -19.5t-50.5 -37t-30 -39.5q-2 -4 -3 -5h-90q26 72 94.5 127.5t167.5 55.5zM466 -20q-198 0 -293.5 137.5t-59.5 408.5q33 258 159 405.5t337 147.5q194 0 288 -139.5
t59 -413.5q-33 -255 -157.5 -400.5t-332.5 -145.5zM476 55q159 0 266 118.5t138 352.5q29 221 -41.5 348t-239.5 127q-162 0 -270 -119.5t-139 -355.5q-29 -219 42 -345t244 -126z" />
    <glyph glyph-name="uni0210" unicode="&#x210;" horiz-adv-x="1273" 
d="M738 1903l143 -298h-70l-185 298h112zM510 1903l176 -298h-70l-218 298h112zM151 0l208 1481h480q201 0 296.5 -93t71.5 -274q-12 -89 -48.5 -160t-87.5 -116t-102.5 -72.5t-107.5 -42.5l180 -723h-84l-176 705h-456l-101 -705h-73zM335 788h344q202 0 312.5 74
t133.5 238q21 155 -53.5 227t-245.5 72h-405z" />
    <glyph glyph-name="uni0211" unicode="&#x211;" horiz-adv-x="721" 
d="M394 1481l143 -298h-70l-185 298h112zM166 1481l176 -298h-70l-218 298h112zM110 0l149 1059h68l-22 -158q33 67 87.5 109t104.5 55.5t103 13.5q70 0 103 -20l-11 -82q-35 18 -104 18q-31 0 -64 -6.5t-72.5 -24t-72 -45t-57.5 -75t-34 -107.5l-104 -737h-74z" />
    <glyph glyph-name="uni0212" unicode="&#x212;" horiz-adv-x="1273" 
d="M773 1811q53 0 95.5 -18t67.5 -47t38.5 -58.5t17.5 -58.5h-92q-44 101 -137 101q-43 0 -78.5 -19.5t-50.5 -37t-30 -39.5l-1.5 -3t-1.5 -2h-90q26 72 94 127t168 55zM151 0l208 1481h480q201 0 296.5 -93t71.5 -274q-12 -89 -48.5 -160t-87.5 -116t-102.5 -72.5
t-107.5 -42.5l180 -723h-84l-176 705h-456l-101 -705h-73zM335 788h344q202 0 312.5 74t133.5 238q21 155 -53.5 227t-245.5 72h-405z" />
    <glyph glyph-name="uni0213" unicode="&#x213;" horiz-adv-x="721" 
d="M429 1390q53 0 95.5 -18.5t67.5 -47.5t38.5 -58.5t17.5 -58.5h-92q-44 101 -137 101q-43 0 -78.5 -19.5t-50.5 -37t-30 -39.5q-2 -4 -3 -5h-90q26 72 94.5 127.5t167.5 55.5zM110 0l149 1059h68l-22 -158q33 67 87.5 109t104.5 55.5t103 13.5q70 0 103 -20l-11 -82
q-35 18 -104 18q-31 0 -64 -6.5t-72.5 -24t-72 -45t-57.5 -75t-34 -107.5l-104 -737h-74z" />
    <glyph glyph-name="uni0214" unicode="&#x214;" horiz-adv-x="1307" 
d="M798 1903l142 -298h-70l-185 298h113zM569 1903l176 -298h-69l-218 298h111zM599 -20q-232 0 -324 124t-55 385l139 992h80l-143 -1026q-57 -398 313 -398q378 0 434 398l144 1026h73l-143 -1022q-34 -241 -162.5 -360t-355.5 -119z" />
    <glyph glyph-name="uni0215" unicode="&#x215;" horiz-adv-x="1099" 
d="M601 1481l142 -298h-69l-186 298h113zM373 1481l176 -298h-70l-218 298h112zM467 -20q-176 2 -264.5 96.5t-62.5 277.5l99 705h74l-99 -705q-20 -138 44.5 -217.5t214.5 -79.5q140 0 232 79.5t114 234.5l97 688h74l-149 -1059h-68l22 195q-41 -101 -125.5 -158.5
t-202.5 -56.5z" />
    <glyph glyph-name="uni0216" unicode="&#x216;" horiz-adv-x="1307" 
d="M833 1811q53 0 95.5 -18t67.5 -47t38.5 -58.5t17.5 -58.5h-93q-44 101 -137 101q-43 0 -78.5 -19.5t-50.5 -37t-30 -39.5l-1.5 -3t-1.5 -2h-90q26 72 94.5 127t168.5 55zM599 -20q-232 0 -324 124t-55 385l139 992h80l-143 -1026q-57 -398 313 -398q378 0 434 398
l144 1026h73l-143 -1022q-34 -241 -162.5 -360t-355.5 -119z" />
    <glyph glyph-name="uni0217" unicode="&#x217;" horiz-adv-x="1099" 
d="M636 1390q53 0 95.5 -18.5t67.5 -47.5t38.5 -58.5t17.5 -58.5h-92q-44 101 -137 101q-43 0 -78.5 -19.5t-50.5 -37t-30 -39.5q-2 -4 -3 -5h-90q26 72 94.5 127.5t167.5 55.5zM467 -20q-176 2 -264.5 96.5t-62.5 277.5l99 705h74l-99 -705q-20 -138 44.5 -217.5
t214.5 -79.5q140 0 232 79.5t114 234.5l97 688h74l-149 -1059h-68l22 195q-41 -101 -125.5 -158.5t-202.5 -56.5z" />
    <glyph glyph-name="uni0218" unicode="&#x218;" horiz-adv-x="1270" 
d="M567 -20q-192 0 -317.5 101t-131.5 281h83q11 -145 116.5 -224t260.5 -79q175 0 297 84t139 215q31 245 -204 312l-289 82q-301 85 -266 338q23 177 162.5 293t340.5 116q88 0 161 -23.5t121 -63.5t79 -92.5t41.5 -111t2.5 -118.5h-84q4 89 -22 154t-75 101t-108 53
t-131 17q-63 0 -128 -19.5t-125 -57t-102.5 -102t-53.5 -144.5q-12 -97 43 -157.5t204 -104.5l276 -81q98 -29 156.5 -90t75.5 -135t5 -162q-21 -165 -159.5 -273.5t-367.5 -108.5zM409 -328l81 102h-41l17 124h119l-16 -106l-114 -120h-46z" />
    <glyph glyph-name="uni0219" unicode="&#x219;" horiz-adv-x="939" 
d="M414 -20q-160 0 -249 76.5t-84 226.5h79q5 -105 71.5 -165.5t193.5 -60.5q123 0 201 54t93 161q19 141 -112 184l-224 69q-108 34 -159 95t-37 162q19 138 115 217.5t262 79.5q143 0 218.5 -70.5t63.5 -209.5h-79q3 94 -51 148t-162 54q-121 0 -197.5 -55t-91.5 -164
q-9 -69 28.5 -110t121.5 -67l223 -69q97 -31 134.5 -100t24.5 -160q-19 -138 -116.5 -217t-266.5 -79zM289 -328l82 102h-42l17 124h119l-15 -106l-115 -120h-46z" />
    <glyph glyph-name="uni021A" unicode="&#x21a;" horiz-adv-x="1091" 
d="M453 0l196 1399h-467l11 82h970l-9 -82h-431l-197 -1399h-73zM364 -324l81 102h-42l18 124h119l-16 -106l-114 -120h-46z" />
    <glyph glyph-name="uni021B" unicode="&#x21b;" horiz-adv-x="705" 
d="M406 0q-109 0 -144 54.5t-15 183.5l105 751h-159l11 70h156l63 297h56l-41 -297h226l-11 -70h-225l-104 -741q-5 -37 -5.5 -63.5t5 -45.5t14.5 -30.5t26.5 -18t37.5 -8.5t51 -2h82l-11 -70q-30 -10 -118 -10zM228 -328l82 102h-42l18 124h118l-15 -106l-115 -120h-46z
" />
    <glyph glyph-name="uni0237" unicode="&#x237;" horiz-adv-x="450" 
d="M-61 -340q-45 0 -67 0.5t-35.5 2.5t-16 5t-1.5 10l8 54l119 2q73 2 109.5 41t49.5 133l162 1151h74l-164 -1161q-17 -129 -68 -183.5t-170 -54.5z" />
    <glyph glyph-name="uni0259" unicode="&#x259;" horiz-adv-x="1075" 
d="M593 1079q197 0 296 -142.5t63 -397.5q-37 -264 -168.5 -411.5t-333.5 -147.5q-190 0 -277 134t-53 378l7 57h746q8 73 6.5 139.5t-22.5 123.5t-55 99t-90.5 66t-129.5 24q-118 0 -208.5 -61t-122.5 -164h-80q49 148 165.5 225.5t256.5 77.5zM861 471h-665
q-17 -121 4 -212.5t88 -146.5t174 -55q70 0 131.5 24t106 64.5t79 94t54.5 112t28 119.5z" />
    <glyph glyph-name="uni02BB" unicode="&#x2bb;" horiz-adv-x="361" 
d="M181 1094l21 141q13 96 75 162t111 53l-8 -55h-10q-31 0 -61 -42.5t-36 -90.5l-2 -9h88l-22 -159h-156z" />
    <glyph glyph-name="uni02BC" unicode="&#x2bc;" horiz-adv-x="394" 
d="M422 1452l-39 -141q-26 -96 -92.5 -162t-109.5 -53l16 55h9q29 0 61.5 42.5t45.5 90.5l3 8h-80l43 160h143z" />
    <glyph glyph-name="circumflex" unicode="&#x2c6;" horiz-adv-x="509" 
d="M94 1183l252 194h60l194 -194h-115l-120 123l-164 -123h-107z" />
    <glyph glyph-name="caron" unicode="&#x2c7;" horiz-adv-x="512" 
d="M319 1182l-198 194h108l129 -123l158 123h113l-248 -194h-62z" />
    <glyph glyph-name="breve" unicode="&#x2d8;" horiz-adv-x="500" 
d="M339 1183q-52 0 -93 16.5t-65 44t-37.5 58t-15.5 63.5h90q21 -51 44 -71q35 -29 89 -29q92 0 166 100h92q-17 -40 -49 -78.5t-91.5 -71t-129.5 -32.5z" />
    <glyph glyph-name="dotaccent" unicode="&#x2d9;" horiz-adv-x="111" 
d="M117 1278l16 123h90l-16 -123h-90z" />
    <glyph glyph-name="ring" unicode="&#x2da;" horiz-adv-x="402" 
d="M295 1200q-76 0 -121 58.5t-33 144.5q10 79 73 135.5t138 56.5q77 0 122.5 -56.5t33.5 -139.5q-10 -84 -72 -141.5t-141 -57.5zM305 1280q44 0 80.5 35.5t44.5 83.5q6 52 -20 84.5t-72 32.5q-43 0 -79.5 -33t-43.5 -84q-7 -47 20 -83t70 -36z" />
    <glyph glyph-name="ogonek" unicode="&#x2db;" horiz-adv-x="358" 
d="M66 -336q-85 0 -121 42.5t-26 113.5q9 69 62.5 118.5t169.5 84.5l61 -19q-105 -49 -154.5 -90.5t-58.5 -97.5q-5 -43 17 -63.5t77 -20.5q42 0 81.5 10t57.5 20l-10 -63q-68 -35 -156 -35z" />
    <glyph glyph-name="tilde" unicode="&#x2dc;" horiz-adv-x="518" 
d="M144 1279l-14 61q37 32 68.5 48t72.5 16q40 0 105 -25.5t106 -25.5q33 0 56 10t57 33l18 -70l-9 -6l-12.5 -7.5t-12 -6.5t-14 -7t-14.5 -6t-18 -6t-18.5 -4t-21.5 -3t-23 -1q-49 0 -107 24.5t-94 24.5q-21 0 -41.5 -6t-31 -11t-29.5 -17t-23 -15z" />
    <glyph glyph-name="hungarumlaut" unicode="&#x2dd;" horiz-adv-x="461" 
d="M246 1481h112l-185 -298h-70zM474 1481h112l-218 -298h-70z" />
    <glyph glyph-name="gravecomb" unicode="&#x300;" 
d="M260 1481l234 -298h-73l-277 298h116z" />
    <glyph glyph-name="acutecomb" unicode="&#x301;" 
d="M336 1481h116l-277 -298h-73z" />
    <glyph glyph-name="uni0302" unicode="&#x302;" 
d="M94 1183l252 194h60l194 -194h-115l-120 123l-164 -123h-107z" />
    <glyph glyph-name="tildecomb" unicode="&#x303;" 
d="M144 1279l-14 61q37 32 68.5 48t72.5 16q40 0 105 -25.5t106 -25.5q33 0 56 10t57 33l18 -70l-9 -6l-12.5 -7.5t-12 -6.5t-14 -7t-14.5 -6t-18 -6t-18.5 -4t-21.5 -3t-23 -1q-49 0 -107 24.5t-94 24.5q-21 0 -41.5 -6t-31 -11t-29.5 -17t-23 -15z" />
    <glyph glyph-name="uni0304" unicode="&#x304;" 
d="M127 1295l10 76h463l-10 -76h-463z" />
    <glyph glyph-name="uni0306" unicode="&#x306;" 
d="M339 1183q-52 0 -93 16.5t-65 44t-37.5 58t-15.5 63.5h90q21 -51 44 -71q35 -29 89 -29q92 0 166 100h92q-17 -40 -49 -78.5t-91.5 -71t-129.5 -32.5z" />
    <glyph glyph-name="uni0307" unicode="&#x307;" 
d="M117 1278l16 123h90l-16 -123h-90z" />
    <glyph glyph-name="uni0308" unicode="&#x308;" 
d="M354 1278l17 123h90l-17 -123h-90zM117 1278l16 123h90l-16 -123h-90z" />
    <glyph glyph-name="hookabovecomb" unicode="&#x309;" 
d="M757 1184l-29 61q49 32 73.5 72.5t10.5 73.5q-17 35 -58 33.5t-91 -33.5l-29 63q82 50 148.5 44t93.5 -64q31 -65 -3 -132t-116 -118z" />
    <glyph glyph-name="uni030A" unicode="&#x30a;" 
d="M295 1200q-76 0 -121 58.5t-33 144.5q10 79 73 135.5t138 56.5q77 0 122.5 -56.5t33.5 -139.5q-10 -84 -72 -141.5t-141 -57.5zM305 1280q44 0 80.5 35.5t44.5 83.5q6 52 -20 84.5t-72 32.5q-43 0 -79.5 -33t-43.5 -84q-7 -47 20 -83t70 -36z" />
    <glyph glyph-name="uni030B" unicode="&#x30b;" 
d="M246 1481h112l-185 -298h-70zM474 1481h112l-218 -298h-70z" />
    <glyph glyph-name="uni030C" unicode="&#x30c;" 
d="M319 1182l-198 194h108l129 -123l158 123h113l-248 -194h-62z" />
    <glyph glyph-name="uni030F" unicode="&#x30f;" 
d="M484 1481l143 -298h-70l-185 298h112zM256 1481l176 -298h-70l-218 298h112z" />
    <glyph glyph-name="uni0311" unicode="&#x311;" 
d="M355 1390q53 0 95.5 -18.5t67.5 -47.5t38.5 -58.5t17.5 -58.5h-92q-44 101 -137 101q-43 0 -78.5 -19.5t-50.5 -37t-30 -39.5q-2 -4 -3 -5h-90q26 72 94.5 127.5t167.5 55.5z" />
    <glyph glyph-name="uni031B" unicode="&#x31b;" 
d="M67 1004l12 83q80 -2 116 34.5t54 146.5h96q-40 -291 -278 -264z" />
    <glyph glyph-name="dotbelowcomb" unicode="&#x323;" 
d="M-110 -328l17 123h90l-16 -123h-91z" />
    <glyph glyph-name="uni0326" unicode="&#x326;" 
d="M-126 -328l82 102h-42l17 124h119l-15 -106l-115 -120h-46z" />
    <glyph glyph-name="uni0327" unicode="&#x327;" 
d="M27 -408q-82 0 -136 48l29 57q38 -45 107 -45q107 0 120 86q7 47 -24.5 70t-102.5 26q-14 0 -6 8l90 168h64l-66 -127q78 -7 106 -46.5t21 -94.5q-10 -72 -67 -111t-135 -39z" />
    <glyph glyph-name="uni0328" unicode="&#x328;" 
d="M66 -336q-85 0 -121 42.5t-26 113.5q9 69 62.5 118.5t169.5 84.5l61 -19q-105 -49 -154.5 -90.5t-58.5 -97.5q-5 -43 17 -63.5t77 -20.5q42 0 81.5 10t57.5 20l-10 -63q-68 -35 -156 -35z" />
    <glyph glyph-name="pi" unicode="&#x3c0;" horiz-adv-x="1327" 
d="M245 0q49 187 81.5 441.5t32.5 527.5q0 20 -16 20h-207v70h1194v-70h-268v-989h-80l-2 989h-547q0 -295 -34.5 -565.5t-86.5 -423.5h-67z" />
    <glyph glyph-name="uni1E0C" unicode="&#x1e0c;" horiz-adv-x="1296" 
d="M154 0l205 1481h13q13 0 35.5 -0.5t49.5 -1t61 -0.5h65q325 -1 475.5 -133t150.5 -408q0 -160 -26 -295t-88.5 -256t-158.5 -205t-243.5 -133t-336.5 -49h-202zM246 84h111q772 0 772 842q0 134 -37 226.5t-113 145.5t-177.5 76t-244.5 23h-127zM424 -328l16 123h90
l-16 -123h-90z" />
    <glyph glyph-name="uni1E0D" unicode="&#x1e0d;" horiz-adv-x="1136" 
d="M452 -20q-191 0 -282.5 139t-56.5 413q33 254 156 400.5t326 146.5q66 0 121.5 -18t89 -43t58.5 -56.5t35.5 -54.5t14.5 -41l86 656h76l-198 -1522h-68l23 217q-9 -21 -22 -44t-44.5 -60t-71 -64.5t-104 -48t-139.5 -20.5zM463 55q189 0 282.5 115t127.5 376
q26 222 -37.5 338.5t-243.5 116.5q-157 0 -261.5 -114.5t-133.5 -340.5q-30 -228 36.5 -359.5t229.5 -131.5zM370 -328l16 123h90l-16 -123h-90z" />
    <glyph glyph-name="uni1E24" unicode="&#x1e24;" horiz-adv-x="1478" 
d="M152 0l207 1481h74l-94 -668h881l93 668h73l-207 -1481h-74l102 729h-879l-103 -729h-73zM582 -328l16 123h90l-16 -123h-90z" />
    <glyph glyph-name="uni1E25" unicode="&#x1e25;" horiz-adv-x="1105" 
d="M126 0l198 1522h68l-81 -621q51 79 145 128.5t210 49.5q148 0 234.5 -83t68.5 -212l-102 -784h-74l98 754q15 116 -48.5 181.5t-189.5 65.5q-90 0 -165 -27.5t-128 -88.5t-64 -148l-96 -737h-74zM423 -328l16 123h90l-16 -123h-90z" />
    <glyph glyph-name="uni1E44" unicode="&#x1e44;" horiz-adv-x="1404" 
d="M823 1700l17 123h90l-17 -123h-90zM151 0l208 1481h60l635 -1321l186 1321h74l-209 -1481h-64l-630 1317l-187 -1317h-73z" />
    <glyph glyph-name="uni1E45" unicode="&#x1e45;" horiz-adv-x="1085" 
d="M635 1278l16 123h90l-16 -123h-90zM111 0l148 1059h67l-20 -158q48 78 142 128t209 50q155 0 234.5 -99t51.5 -294l-96 -686h-74l97 686q22 152 -37.5 233.5t-184.5 81.5q-139 0 -240.5 -67.5t-119.5 -196.5l-105 -737h-72z" />
    <glyph glyph-name="uni1E5A" unicode="&#x1e5a;" horiz-adv-x="1273" 
d="M151 0l208 1481h480q201 0 296.5 -93t71.5 -274q-12 -89 -48.5 -160t-87.5 -116t-102.5 -72.5t-107.5 -42.5l180 -723h-84l-176 705h-456l-101 -705h-73zM335 788h344q202 0 312.5 74t133.5 238q21 155 -53.5 227t-245.5 72h-405zM468 -328l16 123h90l-16 -123h-90z" />
    <glyph glyph-name="uni1E5B" unicode="&#x1e5b;" horiz-adv-x="721" 
d="M110 0l149 1059h68l-22 -158q33 67 87.5 109t104.5 55.5t103 13.5q70 0 103 -20l-11 -82q-35 18 -104 18q-31 0 -64 -6.5t-72.5 -24t-72 -45t-57.5 -75t-34 -107.5l-104 -737h-74zM46 -328l16 123h91l-17 -123h-90z" />
    <glyph glyph-name="uni1E62" unicode="&#x1e62;" horiz-adv-x="1270" 
d="M567 -20q-192 0 -317.5 101t-131.5 281h83q11 -145 116.5 -224t260.5 -79q175 0 297 84t139 215q31 245 -204 312l-289 82q-301 85 -266 338q23 177 162.5 293t340.5 116q88 0 161 -23.5t121 -63.5t79 -92.5t41.5 -111t2.5 -118.5h-84q4 89 -22 154t-75 101t-108 53
t-131 17q-63 0 -128 -19.5t-125 -57t-102.5 -102t-53.5 -144.5q-12 -97 43 -157.5t204 -104.5l276 -81q98 -29 156.5 -90t75.5 -135t5 -162q-21 -165 -159.5 -273.5t-367.5 -108.5zM449 -328l16 123h90l-16 -123h-90z" />
    <glyph glyph-name="uni1E63" unicode="&#x1e63;" horiz-adv-x="939" 
d="M414 -20q-160 0 -249 76.5t-84 226.5h79q5 -105 71.5 -165.5t193.5 -60.5q123 0 201 54t93 161q19 141 -112 184l-224 69q-108 34 -159 95t-37 162q19 138 115 217.5t262 79.5q143 0 218.5 -70.5t63.5 -209.5h-79q3 94 -51 148t-162 54q-121 0 -197.5 -55t-91.5 -164
q-9 -69 28.5 -110t121.5 -67l223 -69q97 -31 134.5 -100t24.5 -160q-19 -138 -116.5 -217t-266.5 -79zM329 -328l16 123h90l-16 -123h-90z" />
    <glyph glyph-name="uni1E6C" unicode="&#x1e6c;" horiz-adv-x="1091" 
d="M453 0l196 1399h-467l11 82h970l-9 -82h-431l-197 -1399h-73zM403 -324l17 123h90l-16 -123h-91z" />
    <glyph glyph-name="uni1E6D" unicode="&#x1e6d;" horiz-adv-x="705" 
d="M406 0q-109 0 -144 54.5t-15 183.5l105 751h-159l11 70h156l63 297h56l-41 -297h226l-11 -70h-225l-104 -741q-5 -37 -5.5 -63.5t5 -45.5t14.5 -30.5t26.5 -18t37.5 -8.5t51 -2h82l-11 -70q-30 -10 -118 -10zM268 -328l17 123h90l-17 -123h-90z" />
    <glyph glyph-name="Wgrave" unicode="&#x1e80;" horiz-adv-x="1783" 
d="M850 1903l233 -298h-72l-277 298h116zM368 0l-174 1481h84l154 -1381l555 1381h73l164 -1381l555 1381h80l-601 -1481h-101l-156 1327l-535 -1327h-98z" />
    <glyph glyph-name="wgrave" unicode="&#x1e81;" horiz-adv-x="1484" 
d="M649 1481l234 -298h-73l-276 298h115zM299 0l-137 1059h80l123 -971h22l397 971h68l139 -967h23l383 967h76l-418 -1059h-123l-133 922l-371 -922h-129z" />
    <glyph glyph-name="Wacute" unicode="&#x1e82;" horiz-adv-x="1783" 
d="M1235 1903h116l-277 -298h-73zM368 0l-174 1481h84l154 -1381l555 1381h73l164 -1381l555 1381h80l-601 -1481h-101l-156 1327l-535 -1327h-98z" />
    <glyph glyph-name="wacute" unicode="&#x1e83;" horiz-adv-x="1484" 
d="M1034 1481h116l-277 -298h-72zM299 0l-137 1059h80l123 -971h22l397 971h68l139 -967h23l383 967h76l-418 -1059h-123l-133 922l-371 -922h-129z" />
    <glyph glyph-name="Wdieresis" unicode="&#x1e84;" horiz-adv-x="1783" 
d="M1137 1700l16 123h90l-16 -123h-90zM899 1700l16 123h91l-17 -123h-90zM368 0l-174 1481h84l154 -1381l555 1381h73l164 -1381l555 1381h80l-601 -1481h-101l-156 1327l-535 -1327h-98z" />
    <glyph glyph-name="wdieresis" unicode="&#x1e85;" horiz-adv-x="1484" 
d="M936 1278l16 123h90l-16 -123h-90zM698 1278l17 123h90l-17 -123h-90zM299 0l-137 1059h80l123 -971h22l397 971h68l139 -967h23l383 967h76l-418 -1059h-123l-133 922l-371 -922h-129z" />
    <glyph glyph-name="uni1E92" unicode="&#x1e92;" horiz-adv-x="1161" 
d="M76 0l10 63l987 1338h-782l10 80h881l-8 -62l-994 -1339h805l-12 -80h-897zM457 -328l16 123h90l-16 -123h-90z" />
    <glyph glyph-name="uni1E93" unicode="&#x1e93;" horiz-adv-x="897" 
d="M19 0l9 70l752 919h-578l10 70h660l-9 -70l-750 -919h627l-10 -70h-711zM275 -328l17 123h90l-16 -123h-91z" />
    <glyph glyph-name="uni1EA0" unicode="&#x1ea0;" horiz-adv-x="1335" 
d="M43 0l707 1481h104l289 -1481h-81l-90 467h-625l-225 -467h-79zM386 555h570l-163 840zM503 -328l16 123h90l-16 -123h-90z" />
    <glyph glyph-name="uni1EA1" unicode="&#x1ea1;" horiz-adv-x="1085" 
d="M360 -20q-145 0 -218 77.5t-55 212.5q25 179 142.5 260.5t361.5 90.5l225 8l15 102q18 126 -49.5 198t-194.5 72q-108 0 -193 -59.5t-115 -165.5h-80q25 122 133.5 212.5t268.5 90.5q157 0 241.5 -93.5t61.5 -252.5l-102 -733h-68l25 205q-142 -225 -399 -225zM382 55
q124 0 251 91t142 196l29 207l-188 -4q-230 -4 -330 -66t-121 -203q-13 -103 46 -162t171 -59zM364 -328l16 123h90l-16 -123h-90z" />
    <glyph glyph-name="uni1EA2" unicode="&#x1ea2;" horiz-adv-x="1335" 
d="M865 1579l-28 61q49 32 73.5 72.5t10.5 73.5q-17 35 -58.5 33.5t-91.5 -33.5l-29 63q82 50 148.5 44t93.5 -64q31 -65 -3 -132t-116 -118zM43 0l707 1481h104l289 -1481h-81l-90 467h-625l-225 -467h-79zM386 555h570l-163 840z" />
    <glyph glyph-name="uni1EA3" unicode="&#x1ea3;" horiz-adv-x="1085" 
d="M670 1158l-29 62q49 32 73.5 72t10.5 73q-17 35 -58.5 33.5t-91.5 -33.5l-28 63q82 50 148 44t93 -64q31 -66 -2.5 -132.5t-115.5 -117.5zM360 -20q-145 0 -218 77.5t-55 212.5q25 179 142.5 260.5t361.5 90.5l225 8l15 102q18 126 -49.5 198t-194.5 72
q-108 0 -193 -59.5t-115 -165.5h-80q25 122 133.5 212.5t268.5 90.5q157 0 241.5 -93.5t61.5 -252.5l-102 -733h-68l25 205q-142 -225 -399 -225zM382 55q124 0 251 91t142 196l29 207l-188 -4q-230 -4 -330 -66t-121 -203q-13 -103 46 -162t171 -59z" />
    <glyph glyph-name="uni1EA4" unicode="&#x1ea4;" horiz-adv-x="1335" 
d="M1100 1977h123l-160 -209h-77zM579 1605l251 194h60l194 -194h-114l-121 122l-164 -122h-106zM43 0l707 1481h104l289 -1481h-81l-90 467h-625l-225 -467h-79zM386 555h570l-163 840z" />
    <glyph glyph-name="uni1EA5" unicode="&#x1ea5;" horiz-adv-x="1053" 
d="M904 1555h123l-160 -208h-76zM383 1183l252 194h59l195 -194h-115l-121 123l-164 -123h-106zM360 -20q-145 0 -218 77.5t-55 212.5q25 179 142.5 260.5t361.5 90.5l225 8l15 102q18 126 -49.5 198t-194.5 72q-108 0 -193 -59.5t-115 -165.5h-80q25 122 133.5 212.5
t268.5 90.5q157 0 241.5 -93.5t61.5 -252.5l-102 -733h-68l25 205q-142 -225 -399 -225zM382 55q124 0 251 91t142 196l29 207l-188 -4q-230 -4 -330 -66t-121 -203q-13 -103 46 -162t171 -59z" />
    <glyph glyph-name="uni1EA6" unicode="&#x1ea6;" horiz-adv-x="1335" 
d="M1023 1975l91 -209h-75l-137 209h121zM572 1605l252 194h60l194 -194h-114l-121 122l-164 -122h-107zM43 0l707 1481h104l289 -1481h-81l-90 467h-625l-225 -467h-79zM386 555h570l-163 840z" />
    <glyph glyph-name="uni1EA7" unicode="&#x1ea7;" horiz-adv-x="1085" 
d="M826 1553l92 -208h-75l-137 208h120zM376 1183l252 194h59l195 -194h-115l-121 123l-164 -123h-106zM360 -20q-145 0 -218 77.5t-55 212.5q25 179 142.5 260.5t361.5 90.5l225 8l15 102q18 126 -49.5 198t-194.5 72q-108 0 -193 -59.5t-115 -165.5h-80
q25 122 133.5 212.5t268.5 90.5q157 0 241.5 -93.5t61.5 -252.5l-102 -733h-68l25 205q-142 -225 -399 -225zM382 55q124 0 251 91t142 196l29 207l-188 -4q-230 -4 -330 -66t-121 -203q-13 -103 46 -162t171 -59z" />
    <glyph glyph-name="uni1EA8" unicode="&#x1ea8;" horiz-adv-x="1335" 
d="M989 1702l-28 61q49 32 73 72t10 74q-17 35 -58 33.5t-91 -33.5l-29 63q82 50 148.5 44t93.5 -64q31 -65 -3 -132t-116 -118zM552 1605l252 194h59l195 -194h-115l-121 122l-164 -122h-106zM43 0l707 1481h104l289 -1481h-81l-90 467h-625l-225 -467h-79zM386 555h570
l-163 840z" />
    <glyph glyph-name="uni1EA9" unicode="&#x1ea9;" horiz-adv-x="1085" 
d="M794 1280l-29 61q49 32 73.5 72.5t10.5 73.5q-17 35 -58.5 33.5t-91.5 -33.5l-28 63q82 50 148 44t93 -64q31 -66 -2.5 -132.5t-115.5 -117.5zM356 1183l252 194h60l194 -194h-114l-121 123l-164 -123h-107zM360 -20q-145 0 -218 77.5t-55 212.5q25 179 142.5 260.5
t361.5 90.5l225 8l15 102q18 126 -49.5 198t-194.5 72q-108 0 -193 -59.5t-115 -165.5h-80q25 122 133.5 212.5t268.5 90.5q157 0 241.5 -93.5t61.5 -252.5l-102 -733h-68l25 205q-142 -225 -399 -225zM382 55q124 0 251 91t142 196l29 207l-188 -4q-230 -4 -330 -66
t-121 -203q-13 -103 46 -162t171 -59z" />
    <glyph glyph-name="uni1EAA" unicode="&#x1eaa;" horiz-adv-x="1335" 
d="M645 1920l-14 61q37 32 68.5 48t72.5 16q40 0 105 -25.5t106 -25.5q33 0 56 10t57 33l18 -70l-10 -6q-9 -6 -11.5 -7.5t-12 -6.5t-14 -7t-14.5 -6t-18 -6t-18.5 -4t-21.5 -3t-23 -1q-49 0 -107 24.5t-94 24.5q-21 0 -41.5 -6t-31 -11t-29.5 -17t-23 -15zM568 1605
l252 194h60l194 -194h-115l-120 122l-164 -122h-107zM43 0l707 1481h104l289 -1481h-81l-90 467h-625l-225 -467h-79zM386 555h570l-163 840z" />
    <glyph glyph-name="uni1EAB" unicode="&#x1eab;" horiz-adv-x="1085" 
d="M449 1498l-15 62q37 32 68.5 47.5t72.5 15.5q40 0 105 -25.5t106 -25.5q33 0 56 10t57 33l19 -70q-25 -16 -35.5 -22t-42.5 -15.5t-66 -9.5q-49 0 -107 24.5t-94 24.5q-21 0 -41.5 -6t-31 -11.5t-28.5 -17t-23 -14.5zM372 1183l252 194h59l195 -194h-115l-121 123
l-164 -123h-106zM360 -20q-145 0 -218 77.5t-55 212.5q25 179 142.5 260.5t361.5 90.5l225 8l15 102q18 126 -49.5 198t-194.5 72q-108 0 -193 -59.5t-115 -165.5h-80q25 122 133.5 212.5t268.5 90.5q157 0 241.5 -93.5t61.5 -252.5l-102 -733h-68l25 205
q-142 -225 -399 -225zM382 55q124 0 251 91t142 196l29 207l-188 -4q-230 -4 -330 -66t-121 -203q-13 -103 46 -162t171 -59z" />
    <glyph glyph-name="uni1EAC" unicode="&#x1eac;" horiz-adv-x="1335" 
d="M566 1605l252 194h60l194 -194h-115l-120 122l-164 -122h-107zM43 0l707 1481h104l289 -1481h-81l-90 467h-625l-225 -467h-79zM386 555h570l-163 840zM503 -328l16 123h90l-16 -123h-90z" />
    <glyph glyph-name="uni1EAD" unicode="&#x1ead;" horiz-adv-x="1085" 
d="M371 1183l252 194h59l195 -194h-115l-121 123l-164 -123h-106zM360 -20q-145 0 -218 77.5t-55 212.5q25 179 142.5 260.5t361.5 90.5l225 8l15 102q18 126 -49.5 198t-194.5 72q-108 0 -193 -59.5t-115 -165.5h-80q25 122 133.5 212.5t268.5 90.5q157 0 241.5 -93.5
t61.5 -252.5l-102 -733h-68l25 205q-142 -225 -399 -225zM382 55q124 0 251 91t142 196l29 207l-188 -4q-230 -4 -330 -66t-121 -203q-13 -103 46 -162t171 -59zM364 -328l16 123h90l-16 -123h-90z" />
    <glyph glyph-name="uni1EAE" unicode="&#x1eae;" horiz-adv-x="1335" 
d="M933 2004h123l-160 -209h-77zM838 1605q-52 0 -93 16.5t-65 44t-37.5 58t-15.5 63.5h90q21 -51 44 -71q35 -29 89 -29q92 0 166 100h92q-17 -40 -49 -78.5t-91.5 -71t-129.5 -32.5zM43 0l707 1481h104l289 -1481h-81l-90 467h-625l-225 -467h-79zM386 555h570l-163 840z
" />
    <glyph glyph-name="uni1EAF" unicode="&#x1eaf;" horiz-adv-x="1085" 
d="M737 1582h123l-160 -209h-76zM642 1183q-52 0 -93 16.5t-65 44t-37.5 58t-15.5 63.5h90q21 -51 44 -71q35 -29 89 -29q92 0 166 100h92q-17 -40 -49 -78.5t-91.5 -71t-129.5 -32.5zM360 -20q-145 0 -218 77.5t-55 212.5q25 179 142.5 260.5t361.5 90.5l225 8l15 102
q18 126 -49.5 198t-194.5 72q-108 0 -193 -59.5t-115 -165.5h-80q25 122 133.5 212.5t268.5 90.5q157 0 241.5 -93.5t61.5 -252.5l-102 -733h-68l25 205q-142 -225 -399 -225zM382 55q124 0 251 91t142 196l29 207l-188 -4q-230 -4 -330 -66t-121 -203q-13 -103 46 -162
t171 -59z" />
    <glyph glyph-name="uni1EB0" unicode="&#x1eb0;" horiz-adv-x="1335" 
d="M820 2006l91 -209h-74l-138 209h121zM831 1605q-52 0 -93 16.5t-65 44t-37 58t-15 63.5h90q21 -51 44 -71q35 -29 89 -29q92 0 166 100h92q-12 -29 -34 -58.5t-55 -58.5t-81 -47t-101 -18zM43 0l707 1481h104l289 -1481h-81l-90 467h-625l-225 -467h-79zM386 555h570
l-163 840z" />
    <glyph glyph-name="uni1EB1" unicode="&#x1eb1;" horiz-adv-x="1085" 
d="M625 1584l91 -209h-75l-137 209h121zM636 1183q-52 0 -93 16.5t-65 44t-37.5 58t-15.5 63.5h90q21 -51 44 -71q35 -29 89 -29q92 0 166 100h92q-17 -40 -49 -78.5t-91.5 -71t-129.5 -32.5zM360 -20q-145 0 -218 77.5t-55 212.5q25 179 142.5 260.5t361.5 90.5l225 8
l15 102q18 126 -49.5 198t-194.5 72q-108 0 -193 -59.5t-115 -165.5h-80q25 122 133.5 212.5t268.5 90.5q157 0 241.5 -93.5t61.5 -252.5l-102 -733h-68l25 205q-142 -225 -399 -225zM382 55q124 0 251 91t142 196l29 207l-188 -4q-230 -4 -330 -66t-121 -203
q-13 -103 46 -162t171 -59z" />
    <glyph glyph-name="uni1EB2" unicode="&#x1eb2;" horiz-adv-x="1335" 
d="M809 1757l-29 62q49 32 73.5 72t10.5 73q-17 35 -58 33.5t-91 -33.5l-29 64q82 50 148.5 43.5t93.5 -64.5q31 -65 -3 -132t-116 -118zM797 1605q-52 0 -93 16.5t-65 44t-37.5 58t-15.5 63.5h90q21 -51 44 -71q35 -29 89 -29q92 0 166 100h92q-17 -40 -49 -78.5t-91.5 -71
t-129.5 -32.5zM43 0l707 1481h104l289 -1481h-81l-90 467h-625l-225 -467h-79zM386 555h570l-163 840z" />
    <glyph glyph-name="uni1EB3" unicode="&#x1eb3;" horiz-adv-x="1085" 
d="M613 1335l-28 62q49 32 73.5 72t10.5 73q-17 35 -58.5 33.5t-91.5 -33.5l-29 64q82 50 148.5 43.5t93.5 -64.5q31 -65 -3 -132t-116 -118zM601 1183q-52 0 -93 16.5t-65 44t-37.5 58t-15.5 63.5h90q21 -51 44 -71q35 -29 89 -29q92 0 166 100h92q-17 -40 -49 -78.5
t-91.5 -71t-129.5 -32.5zM360 -20q-145 0 -218 77.5t-55 212.5q25 179 142.5 260.5t361.5 90.5l225 8l15 102q18 126 -49.5 198t-194.5 72q-108 0 -193 -59.5t-115 -165.5h-80q25 122 133.5 212.5t268.5 90.5q157 0 241.5 -93.5t61.5 -252.5l-102 -733h-68l25 205
q-142 -225 -399 -225zM382 55q124 0 251 91t142 196l29 207l-188 -4q-230 -4 -330 -66t-121 -203q-13 -103 46 -162t171 -59z" />
    <glyph glyph-name="uni1EB4" unicode="&#x1eb4;" horiz-adv-x="1335" 
d="M634 1928l-14 62q37 32 68.5 47.5t72.5 15.5q40 0 105 -25.5t106 -25.5q32 0 55 10t57 33l19 -70q-25 -16 -35.5 -22t-42.5 -15.5t-66 -9.5q-49 0 -106.5 24.5t-93.5 24.5q-21 0 -41.5 -6t-31 -11t-29.5 -17t-23 -15zM828 1605q-52 0 -93 16.5t-65 44t-37.5 58
t-15.5 63.5h91q21 -51 44 -71q35 -29 89 -29q92 0 166 100h92q-12 -29 -34 -58.5t-55 -58.5t-81 -47t-101 -18zM43 0l707 1481h104l289 -1481h-81l-90 467h-625l-225 -467h-79zM386 555h570l-163 840z" />
    <glyph glyph-name="uni1EB5" unicode="&#x1eb5;" horiz-adv-x="1085" 
d="M433 1506l-14 62q37 32 68.5 47.5t72.5 15.5q40 0 105 -25.5t106 -25.5q33 0 56 10t57 33l18 -70l-10 -6q-9 -6 -11.5 -7.5t-12 -6.5t-14 -7t-14.5 -6t-18 -6t-18.5 -4t-21.5 -3t-23 -1q-49 0 -107 24.5t-94 24.5q-21 0 -41.5 -6t-31 -11t-29.5 -17t-23 -15zM628 1183
q-52 0 -93 16.5t-65 44t-37.5 58t-15.5 63.5h90q21 -51 44 -71q35 -29 89 -29q92 0 166 100h92q-17 -40 -49 -78.5t-91.5 -71t-129.5 -32.5zM360 -20q-145 0 -218 77.5t-55 212.5q25 179 142.5 260.5t361.5 90.5l225 8l15 102q18 126 -49.5 198t-194.5 72q-108 0 -193 -59.5
t-115 -165.5h-80q25 122 133.5 212.5t268.5 90.5q157 0 241.5 -93.5t61.5 -252.5l-102 -733h-68l25 205q-142 -225 -399 -225zM382 55q124 0 251 91t142 196l29 207l-188 -4q-230 -4 -330 -66t-121 -203q-13 -103 46 -162t171 -59z" />
    <glyph glyph-name="uni1EB6" unicode="&#x1eb6;" horiz-adv-x="1335" 
d="M814 1605q-52 0 -93 16.5t-65 44t-37.5 58t-15.5 63.5h90q21 -51 44 -71q35 -29 89 -29q92 0 166 100h92q-17 -40 -49 -78.5t-91.5 -71t-129.5 -32.5zM43 0l707 1481h104l289 -1481h-81l-90 467h-625l-225 -467h-79zM386 555h570l-163 840zM503 -328l16 123h90l-16 -123
h-90z" />
    <glyph glyph-name="uni1EB7" unicode="&#x1eb7;" horiz-adv-x="1040" 
d="M616 1179q-52 0 -93 16.5t-65 44t-37 58t-15 63.5h90q21 -51 44 -71q35 -29 89 -29q92 0 166 100h92q-12 -29 -34 -58.5t-55 -58.5t-81 -47t-101 -18zM360 -20q-145 0 -218 77.5t-55 212.5q25 179 142.5 260.5t361.5 90.5l225 8l15 102q18 126 -49.5 198t-194.5 72
q-108 0 -193 -59.5t-115 -165.5h-80q25 122 133.5 212.5t268.5 90.5q157 0 241.5 -93.5t61.5 -252.5l-102 -733h-68l25 205q-142 -225 -399 -225zM382 55q124 0 251 91t142 196l29 207l-188 -4q-230 -4 -330 -66t-121 -203q-13 -103 46 -162t171 -59zM364 -328l16 123h90
l-16 -123h-90z" />
    <glyph glyph-name="uni1EB8" unicode="&#x1eb8;" horiz-adv-x="1177" 
d="M151 0l208 1481h783l-13 -82h-708l-86 -608h659l-10 -84h-659l-88 -621l735 -2l-13 -84h-808zM474 -328l16 123h91l-17 -123h-90z" />
    <glyph glyph-name="uni1EB9" unicode="&#x1eb9;" horiz-adv-x="1075" 
d="M482 -20q-197 0 -296 142.5t-63 397.5q37 263 169 411t334 148q190 0 276.5 -134t52.5 -378l-7 -57h-746q-8 -73 -6.5 -139.5t22.5 -123.5t55.5 -99.5t91 -66.5t129.5 -24q118 0 208 61t122 165h80q-49 -148 -165.5 -225.5t-256.5 -77.5zM214 588h666q17 121 -4.5 212.5
t-88.5 146t-174 54.5q-87 0 -160 -36t-121 -96.5t-77.5 -131.5t-40.5 -149zM392 -328l17 123h90l-17 -123h-90z" />
    <glyph glyph-name="uni1EBA" unicode="&#x1eba;" horiz-adv-x="1177" 
d="M796 1579l-29 61q49 32 73.5 72.5t10.5 73.5q-17 35 -58.5 33.5t-91.5 -33.5l-28 63q82 50 148 44t93 -64q31 -66 -2.5 -132.5t-115.5 -117.5zM151 0l208 1481h783l-13 -82h-708l-86 -608h659l-10 -84h-659l-88 -621l735 -2l-13 -84h-808z" />
    <glyph glyph-name="uni1EBB" unicode="&#x1ebb;" horiz-adv-x="1075" 
d="M687 1157l-29 62q49 32 73.5 72t10.5 73q-17 35 -58 33.5t-91 -33.5l-29 63q82 50 148.5 44t93.5 -64q31 -65 -3 -132t-116 -118zM482 -20q-197 0 -296 142.5t-63 397.5q37 263 169 411t334 148q190 0 276.5 -134t52.5 -378l-7 -57h-746q-8 -73 -6.5 -139.5t22.5 -123.5
t55.5 -99.5t91 -66.5t129.5 -24q118 0 208 61t122 165h80q-49 -148 -165.5 -225.5t-256.5 -77.5zM214 588h666q17 121 -4.5 212.5t-88.5 146t-174 54.5q-87 0 -160 -36t-121 -96.5t-77.5 -131.5t-40.5 -149z" />
    <glyph glyph-name="uni1EBC" unicode="&#x1ebc;" horiz-adv-x="1177" 
d="M545 1701l-15 61q74 64 142 64q40 0 105 -25.5t106 -25.5q32 0 55 10t57 33l19 -70q-25 -16 -35.5 -22t-42.5 -15.5t-66 -9.5q-49 0 -106.5 24.5t-93.5 24.5q-21 0 -41.5 -6t-31 -11t-29.5 -17t-23 -15zM151 0l208 1481h783l-13 -82h-708l-86 -608h659l-10 -84h-659
l-88 -621l735 -2l-13 -84h-808z" />
    <glyph glyph-name="uni1EBD" unicode="&#x1ebd;" horiz-adv-x="1075" 
d="M436 1279l-14 61q37 32 68.5 48t72.5 16q40 0 105 -25.5t106 -25.5q33 0 56 10t57 33l18 -70l-9 -6l-12.5 -7.5t-12 -6.5t-14 -7t-14.5 -6t-18 -6t-18.5 -4t-21.5 -3t-23 -1q-49 0 -107 24.5t-94 24.5q-21 0 -41.5 -6t-31 -11t-29.5 -17t-23 -15zM482 -20
q-197 0 -296 142.5t-63 397.5q37 263 169 411t334 148q190 0 276.5 -134t52.5 -378l-7 -57h-746q-8 -73 -6.5 -139.5t22.5 -123.5t55.5 -99.5t91 -66.5t129.5 -24q118 0 208 61t122 165h80q-49 -148 -165.5 -225.5t-256.5 -77.5zM214 588h666q17 121 -4.5 212.5t-88.5 146
t-174 54.5q-87 0 -160 -36t-121 -96.5t-77.5 -131.5t-40.5 -149z" />
    <glyph glyph-name="uni1EBE" unicode="&#x1ebe;" horiz-adv-x="1177" 
d="M1030 1977h123l-160 -209h-77zM509 1605l252 194h59l195 -194h-115l-121 122l-164 -122h-106zM151 0l208 1481h783l-13 -82h-708l-86 -608h659l-10 -84h-659l-88 -621l735 -2l-13 -84h-808z" />
    <glyph glyph-name="uni1EBF" unicode="&#x1ebf;" horiz-adv-x="1075" 
d="M922 1555h122l-159 -208h-77zM400 1183l252 194h60l194 -194h-114l-121 123l-164 -123h-107zM482 -20q-197 0 -296 142.5t-63 397.5q37 263 169 411t334 148q190 0 276.5 -134t52.5 -378l-7 -57h-746q-8 -73 -6.5 -139.5t22.5 -123.5t55.5 -99.5t91 -66.5t129.5 -24
q118 0 208 61t122 165h80q-49 -148 -165.5 -225.5t-256.5 -77.5zM214 588h666q17 121 -4.5 212.5t-88.5 146t-174 54.5q-87 0 -160 -36t-121 -96.5t-77.5 -131.5t-40.5 -149z" />
    <glyph glyph-name="uni1EC0" unicode="&#x1ec0;" horiz-adv-x="1177" 
d="M953 1975l91 -209h-74l-137 209h120zM503 1605l252 194h59l195 -194h-115l-121 122l-164 -122h-106zM151 0l208 1481h783l-13 -82h-708l-86 -608h659l-10 -84h-659l-88 -621l735 -2l-13 -84h-808z" />
    <glyph glyph-name="uni1EC1" unicode="&#x1ec1;" horiz-adv-x="1075" 
d="M845 1553l91 -208h-75l-137 208h121zM394 1183l252 194h60l194 -194h-115l-120 123l-164 -123h-107zM482 -20q-197 0 -296 142.5t-63 397.5q37 263 169 411t334 148q190 0 276.5 -134t52.5 -378l-7 -57h-746q-8 -73 -6.5 -139.5t22.5 -123.5t55.5 -99.5t91 -66.5
t129.5 -24q118 0 208 61t122 165h80q-49 -148 -165.5 -225.5t-256.5 -77.5zM214 588h666q17 121 -4.5 212.5t-88.5 146t-174 54.5q-87 0 -160 -36t-121 -96.5t-77.5 -131.5t-40.5 -149z" />
    <glyph glyph-name="uni1EC2" unicode="&#x1ec2;" horiz-adv-x="1177" 
d="M920 1702l-29 61q49 32 73.5 72.5t10.5 73.5q-17 35 -58.5 33.5t-91.5 -33.5l-28 63q82 50 148 44t93 -64q31 -66 -2.5 -132.5t-115.5 -117.5zM482 1605l252 194h60l194 -194h-115l-120 122l-164 -122h-107zM151 0l208 1481h783l-13 -82h-708l-86 -608h659l-10 -84h-659
l-88 -621l735 -2l-13 -84h-808z" />
    <glyph glyph-name="uni1EC3" unicode="&#x1ec3;" horiz-adv-x="1075" 
d="M811 1280l-29 61q49 32 73.5 72.5t10.5 73.5q-17 35 -58 33.5t-91 -33.5l-29 63q82 50 148.5 44t93.5 -64q31 -65 -3 -132t-116 -118zM374 1183l252 194h59l195 -194h-115l-121 123l-164 -123h-106zM482 -20q-197 0 -296 142.5t-63 397.5q37 263 169 411t334 148
q190 0 276.5 -134t52.5 -378l-7 -57h-746q-8 -73 -6.5 -139.5t22.5 -123.5t55.5 -99.5t91 -66.5t129.5 -24q118 0 208 61t122 165h80q-49 -148 -165.5 -225.5t-256.5 -77.5zM214 588h666q17 121 -4.5 212.5t-88.5 146t-174 54.5q-87 0 -160 -36t-121 -96.5t-77.5 -131.5
t-40.5 -149z" />
    <glyph glyph-name="uni1EC4" unicode="&#x1ec4;" horiz-adv-x="1177" 
d="M575 1920l-14 61q37 32 68.5 48t72.5 16q40 0 105 -25.5t106 -25.5q33 0 56 10t57 33l18 -70l-10 -6q-9 -6 -11.5 -7.5t-12 -6.5t-14 -7t-14.5 -6t-18 -6t-18.5 -4t-21.5 -3t-23 -1q-49 0 -107 24.5t-94 24.5q-21 0 -41.5 -6t-31 -11t-29.5 -17t-23 -15zM499 1605
l252 194h59l195 -194h-115l-121 122l-164 -122h-106zM151 0l208 1481h783l-13 -82h-708l-86 -608h659l-10 -84h-659l-88 -621l735 -2l-13 -84h-808z" />
    <glyph glyph-name="uni1EC5" unicode="&#x1ec5;" horiz-adv-x="1075" 
d="M467 1498l-14 62q37 32 68.5 47.5t72.5 15.5q40 0 105 -25.5t106 -25.5q33 0 56 10t57 33l18 -70l-10 -6q-9 -6 -11.5 -7.5t-12 -6.5t-14 -7t-14.5 -6t-18 -6t-18.5 -4t-21.5 -3t-23 -1q-49 0 -107 24.5t-94 24.5q-21 0 -41.5 -6t-31 -11t-29.5 -17t-23 -15zM390 1183
l252 194h59l195 -194h-115l-121 123l-163 -123h-107zM482 -20q-197 0 -296 142.5t-63 397.5q37 263 169 411t334 148q190 0 276.5 -134t52.5 -378l-7 -57h-746q-8 -73 -6.5 -139.5t22.5 -123.5t55.5 -99.5t91 -66.5t129.5 -24q118 0 208 61t122 165h80
q-49 -148 -165.5 -225.5t-256.5 -77.5zM214 588h666q17 121 -4.5 212.5t-88.5 146t-174 54.5q-87 0 -160 -36t-121 -96.5t-77.5 -131.5t-40.5 -149z" />
    <glyph glyph-name="uni1EC6" unicode="&#x1ec6;" horiz-adv-x="1177" 
d="M497 1605l252 194h59l194 -194h-114l-121 122l-164 -122h-106zM151 0l208 1481h783l-13 -82h-708l-86 -608h659l-10 -84h-659l-88 -621l735 -2l-13 -84h-808zM474 -328l16 123h91l-17 -123h-90z" />
    <glyph glyph-name="uni1EC7" unicode="&#x1ec7;" horiz-adv-x="1075" 
d="M388 1183l252 194h59l195 -194h-115l-121 123l-163 -123h-107zM482 -20q-197 0 -296 142.5t-63 397.5q37 263 169 411t334 148q190 0 276.5 -134t52.5 -378l-7 -57h-746q-8 -73 -6.5 -139.5t22.5 -123.5t55.5 -99.5t91 -66.5t129.5 -24q118 0 208 61t122 165h80
q-49 -148 -165.5 -225.5t-256.5 -77.5zM214 588h666q17 121 -4.5 212.5t-88.5 146t-174 54.5q-87 0 -160 -36t-121 -96.5t-77.5 -131.5t-40.5 -149zM392 -328l17 123h90l-17 -123h-90z" />
    <glyph glyph-name="uni1EC8" unicode="&#x1ec8;" horiz-adv-x="526" 
d="M462 1579l-29 61q49 32 73.5 72.5t10.5 73.5q-17 35 -58 33.5t-91 -33.5l-29 63q82 50 148.5 44t93.5 -64q31 -65 -3 -132t-116 -118zM153 0l206 1481h74l-207 -1481h-73z" />
    <glyph glyph-name="uni1EC9" unicode="&#x1ec9;" horiz-adv-x="443" 
d="M358 1157l-28 62q49 32 73.5 72t10.5 73q-17 35 -58.5 33.5t-91.5 -33.5l-28 63q82 50 148 44t93 -64q31 -65 -3 -132t-116 -118zM111 0l148 1059h75l-150 -1059h-73z" />
    <glyph glyph-name="uni1ECA" unicode="&#x1eca;" horiz-adv-x="526" 
d="M153 0l206 1481h74l-207 -1481h-73zM101 -328l17 123h90l-17 -123h-90z" />
    <glyph glyph-name="uni1ECB" unicode="&#x1ecb;" horiz-adv-x="461" 
d="M300 1356l17 123h91l-18 -123h-90zM118 0l149 1059h75l-148 -1059h-76zM67 -328l16 123h90l-16 -123h-90z" />
    <glyph glyph-name="uni1ECC" unicode="&#x1ecc;" horiz-adv-x="1360" 
d="M605 -20q-264 0 -382 194t-66 559q52 371 226.5 569.5t436.5 198.5q261 0 378 -197t65 -567q-52 -367 -224.5 -562t-433.5 -195zM620 63q230 0 372 168t189 506q47 340 -48.5 510t-324.5 170q-230 0 -375 -171t-192 -509q-47 -336 50.5 -505t328.5 -169zM521 -328l17 123
h90l-17 -123h-90z" />
    <glyph glyph-name="uni1ECD" unicode="&#x1ecd;" horiz-adv-x="1069" 
d="M466 -20q-198 0 -293.5 137.5t-59.5 408.5q33 258 159 405.5t337 147.5q194 0 288 -139.5t59 -413.5q-33 -255 -157.5 -400.5t-332.5 -145.5zM476 55q159 0 266 118.5t138 352.5q29 221 -41.5 348t-239.5 127q-162 0 -270 -119.5t-139 -355.5q-29 -219 42 -345t244 -126z
M346 -328l16 123h91l-17 -123h-90z" />
    <glyph glyph-name="uni1ECE" unicode="&#x1ece;" horiz-adv-x="1360" 
d="M884 1579l-29 61q49 32 73.5 72.5t10.5 73.5q-17 35 -58 33.5t-91 -33.5l-29 63q82 50 148 44t93 -64q31 -66 -2.5 -132.5t-115.5 -117.5zM605 -20q-264 0 -382 194t-66 559q52 371 226.5 569.5t436.5 198.5q261 0 378 -197t65 -567q-52 -367 -224.5 -562t-433.5 -195z
M620 63q230 0 372 168t189 506q47 340 -48.5 510t-324.5 170q-230 0 -375 -171t-192 -509q-47 -336 50.5 -505t328.5 -169z" />
    <glyph glyph-name="uni1ECF" unicode="&#x1ecf;" horiz-adv-x="1069" 
d="M638 1157l-29 62q49 32 73.5 72t10.5 73q-17 35 -58 33.5t-91 -33.5l-29 63q82 50 148.5 44t93.5 -64q31 -65 -3 -132t-116 -118zM466 -20q-198 0 -293.5 137.5t-59.5 408.5q33 258 159 405.5t337 147.5q194 0 288 -139.5t59 -413.5q-33 -255 -157.5 -400.5
t-332.5 -145.5zM476 55q159 0 266 118.5t138 352.5q29 221 -41.5 348t-239.5 127q-162 0 -270 -119.5t-139 -355.5q-29 -219 42 -345t244 -126z" />
    <glyph glyph-name="uni1ED0" unicode="&#x1ed0;" horiz-adv-x="1360" 
d="M1118 1977h123l-160 -209h-76zM597 1605l252 194h59l195 -194h-115l-121 122l-164 -122h-106zM605 -20q-264 0 -382 194t-66 559q52 371 226.5 569.5t436.5 198.5q261 0 378 -197t65 -567q-52 -367 -224.5 -562t-433.5 -195zM620 63q230 0 372 168t189 506
q47 340 -48.5 510t-324.5 170q-230 0 -375 -171t-192 -509q-47 -336 50.5 -505t328.5 -169z" />
    <glyph glyph-name="uni1ED1" unicode="&#x1ed1;" horiz-adv-x="1069" 
d="M872 1555h123l-159 -208h-77zM351 1183l252 194h60l194 -194h-115l-120 123l-164 -123h-107zM466 -20q-198 0 -293.5 137.5t-59.5 408.5q33 258 159 405.5t337 147.5q194 0 288 -139.5t59 -413.5q-33 -255 -157.5 -400.5t-332.5 -145.5zM476 55q159 0 266 118.5
t138 352.5q29 221 -41.5 348t-239.5 127q-162 0 -270 -119.5t-139 -355.5q-29 -219 42 -345t244 -126z" />
    <glyph glyph-name="uni1ED2" unicode="&#x1ed2;" horiz-adv-x="1360" 
d="M1041 1975l92 -209h-75l-137 209h120zM591 1605l252 194h59l195 -194h-115l-121 122l-164 -122h-106zM605 -20q-264 0 -382 194t-66 559q52 371 226.5 569.5t436.5 198.5q261 0 378 -197t65 -567q-52 -367 -224.5 -562t-433.5 -195zM620 63q230 0 372 168t189 506
q47 340 -48.5 510t-324.5 170q-230 0 -375 -171t-192 -509q-47 -336 50.5 -505t328.5 -169z" />
    <glyph glyph-name="uni1ED3" unicode="&#x1ed3;" horiz-adv-x="1069" 
d="M796 1553l91 -208h-75l-137 208h121zM345 1183l252 194h59l195 -194h-115l-121 123l-163 -123h-107zM466 -20q-198 0 -293.5 137.5t-59.5 408.5q33 258 159 405.5t337 147.5q194 0 288 -139.5t59 -413.5q-33 -255 -157.5 -400.5t-332.5 -145.5zM476 55q159 0 266 118.5
t138 352.5q29 221 -41.5 348t-239.5 127q-162 0 -270 -119.5t-139 -355.5q-29 -219 42 -345t244 -126z" />
    <glyph glyph-name="uni1ED4" unicode="&#x1ed4;" horiz-adv-x="1360" 
d="M1008 1702l-29 61q49 32 73.5 72.5t10.5 73.5q-17 35 -58.5 33.5t-91.5 -33.5l-28 63q82 50 148 44t93 -64q31 -66 -2.5 -132.5t-115.5 -117.5zM570 1605l252 194h60l194 -194h-114l-121 122l-164 -122h-107zM605 -20q-264 0 -382 194t-66 559q52 371 226.5 569.5
t436.5 198.5q261 0 378 -197t65 -567q-52 -367 -224.5 -562t-433.5 -195zM620 63q230 0 372 168t189 506q47 340 -48.5 510t-324.5 170q-230 0 -375 -171t-192 -509q-47 -336 50.5 -505t328.5 -169z" />
    <glyph glyph-name="uni1ED5" unicode="&#x1ed5;" horiz-adv-x="1069" 
d="M762 1280l-29 61q49 32 73.5 72.5t10.5 73.5q-17 35 -58 33.5t-91 -33.5l-29 63q82 50 148.5 44t93.5 -64q31 -65 -3 -132t-116 -118zM325 1183l252 194h59l194 -194h-114l-121 123l-164 -123h-106zM466 -20q-198 0 -293.5 137.5t-59.5 408.5q33 258 159 405.5t337 147.5
q194 0 288 -139.5t59 -413.5q-33 -255 -157.5 -400.5t-332.5 -145.5zM476 55q159 0 266 118.5t138 352.5q29 221 -41.5 348t-239.5 127q-162 0 -270 -119.5t-139 -355.5q-29 -219 42 -345t244 -126z" />
    <glyph glyph-name="uni1ED6" unicode="&#x1ed6;" horiz-adv-x="1360" 
d="M664 1920l-15 61q74 64 142 64q40 0 104.5 -25.5t105.5 -25.5q33 0 56 10t57 33l19 -70q-25 -16 -35.5 -22t-42.5 -15.5t-66 -9.5q-49 0 -107 24.5t-94 24.5q-21 0 -41.5 -6t-31 -11.5t-28.5 -17t-23 -14.5zM587 1605l252 194h59l195 -194h-115l-121 122l-164 -122h-106z
M605 -20q-264 0 -382 194t-66 559q52 371 226.5 569.5t436.5 198.5q261 0 378 -197t65 -567q-52 -367 -224.5 -562t-433.5 -195zM620 63q230 0 372 168t189 506q47 340 -48.5 510t-324.5 170q-230 0 -375 -171t-192 -509q-47 -336 50.5 -505t328.5 -169z" />
    <glyph glyph-name="uni1ED7" unicode="&#x1ed7;" horiz-adv-x="1069" 
d="M418 1498l-15 62q73 63 142 63q40 0 105 -25.5t106 -25.5q32 0 55 10t57 33l19 -70q-25 -16 -35.5 -22t-42.5 -15.5t-66 -9.5q-49 0 -106.5 24.5t-93.5 24.5q-21 0 -41.5 -6t-31 -11t-29.5 -17t-23 -15zM341 1183l252 194h59l195 -194h-115l-121 123l-164 -123h-106z
M466 -20q-198 0 -293.5 137.5t-59.5 408.5q33 258 159 405.5t337 147.5q194 0 288 -139.5t59 -413.5q-33 -255 -157.5 -400.5t-332.5 -145.5zM476 55q159 0 266 118.5t138 352.5q29 221 -41.5 348t-239.5 127q-162 0 -270 -119.5t-139 -355.5q-29 -219 42 -345t244 -126z
" />
    <glyph glyph-name="uni1ED8" unicode="&#x1ed8;" horiz-adv-x="1360" 
d="M585 1605l252 194h59l195 -194h-115l-121 122l-164 -122h-106zM605 -20q-264 0 -382 194t-66 559q52 371 226.5 569.5t436.5 198.5q261 0 378 -197t65 -567q-52 -367 -224.5 -562t-433.5 -195zM620 63q230 0 372 168t189 506q47 340 -48.5 510t-324.5 170
q-230 0 -375 -171t-192 -509q-47 -336 50.5 -505t328.5 -169zM521 -328l17 123h90l-17 -123h-90z" />
    <glyph glyph-name="uni1ED9" unicode="&#x1ed9;" horiz-adv-x="1069" 
d="M339 1183l252 194h59l195 -194h-115l-121 123l-164 -123h-106zM466 -20q-198 0 -293.5 137.5t-59.5 408.5q33 258 159 405.5t337 147.5q194 0 288 -139.5t59 -413.5q-33 -255 -157.5 -400.5t-332.5 -145.5zM476 55q159 0 266 118.5t138 352.5q29 221 -41.5 348
t-239.5 127q-162 0 -270 -119.5t-139 -355.5q-29 -219 42 -345t244 -126zM346 -328l16 123h91l-17 -123h-90z" />
    <glyph glyph-name="uni1EDA" unicode="&#x1eda;" horiz-adv-x="1453" 
d="M1029 1903h116l-277 -298h-72zM605 -20q-264 0 -382 194t-66 559q52 371 226.5 569.5t436.5 198.5q272 0 386 -213l4 28q80 -2 120.5 38.5t58.5 150.5h89q-19 -136 -81 -202.5t-167 -63.5q77 -196 33 -502q-52 -367 -224.5 -562t-433.5 -195zM620 63q230 0 372 168
t189 506q47 340 -48.5 510t-324.5 170q-230 0 -375 -171t-192 -509q-47 -336 50.5 -505t328.5 -169z" />
    <glyph glyph-name="uni1EDB" unicode="&#x1edb;" horiz-adv-x="1178" 
d="M821 1481h116l-277 -298h-72zM468 -20q-198 0 -293.5 137.5t-59.5 408.5q33 258 159 405.5t337 147.5q135 0 223.5 -68.5t118.5 -204.5q70 2 106.5 43.5t54.5 145.5h89q-38 -266 -238 -266q7 -84 -7 -203q-33 -255 -157.5 -400.5t-332.5 -145.5zM478 55q159 0 266 118.5
t138 352.5q29 221 -41.5 348t-239.5 127q-162 0 -269.5 -119.5t-138.5 -355.5q-19 -144 4 -248t94 -163.5t187 -59.5z" />
    <glyph glyph-name="uni1EDC" unicode="&#x1edc;" horiz-adv-x="1453" 
d="M644 1903l234 -298h-73l-277 298h116zM605 -20q-264 0 -382 194t-66 559q52 371 226.5 569.5t436.5 198.5q272 0 386 -213l4 28q80 -2 120.5 38.5t58.5 150.5h89q-19 -136 -81 -202.5t-167 -63.5q77 -196 33 -502q-52 -367 -224.5 -562t-433.5 -195zM620 63
q230 0 372 168t189 506q47 340 -48.5 510t-324.5 170q-230 0 -375 -171t-192 -509q-47 -336 50.5 -505t328.5 -169z" />
    <glyph glyph-name="uni1EDD" unicode="&#x1edd;" horiz-adv-x="1178" 
d="M426 1481l233 -298h-72l-277 298h116zM468 -20q-198 0 -293.5 137.5t-59.5 408.5q33 258 159 405.5t337 147.5q135 0 223.5 -68.5t118.5 -204.5q70 2 106.5 43.5t54.5 145.5h89q-38 -266 -238 -266q7 -84 -7 -203q-33 -255 -157.5 -400.5t-332.5 -145.5zM478 55
q159 0 266 118.5t138 352.5q29 221 -41.5 348t-239.5 127q-162 0 -269.5 -119.5t-138.5 -355.5q-19 -144 4 -248t94 -163.5t187 -59.5z" />
    <glyph glyph-name="uni1EDE" unicode="&#x1ede;" horiz-adv-x="1453" 
d="M884 1579l-29 61q49 32 73.5 72.5t10.5 73.5q-17 35 -58 33.5t-91 -33.5l-29 63q82 50 148 44t93 -64q31 -66 -2.5 -132.5t-115.5 -117.5zM605 -20q-264 0 -382 194t-66 559q52 371 226.5 569.5t436.5 198.5q272 0 386 -213l4 28q80 -2 120.5 38.5t58.5 150.5h89
q-19 -136 -81 -202.5t-167 -63.5q77 -196 33 -502q-52 -367 -224.5 -562t-433.5 -195zM620 63q230 0 372 168t189 506q47 340 -48.5 510t-324.5 170q-230 0 -375 -171t-192 -509q-47 -336 50.5 -505t328.5 -169z" />
    <glyph glyph-name="uni1EDF" unicode="&#x1edf;" horiz-adv-x="1178" 
d="M675 1157l-29 62q49 32 73.5 72t10.5 73q-17 35 -58 33.5t-91 -33.5l-29 63q82 50 148.5 44t93.5 -64q31 -65 -3 -132t-116 -118zM468 -20q-198 0 -293.5 137.5t-59.5 408.5q33 258 159 405.5t337 147.5q135 0 223.5 -68.5t118.5 -204.5q70 2 106.5 43.5t54.5 145.5h89
q-38 -266 -238 -266q7 -84 -7 -203q-33 -255 -157.5 -400.5t-332.5 -145.5zM478 55q159 0 266 118.5t138 352.5q29 221 -41.5 348t-239.5 127q-162 0 -269.5 -119.5t-138.5 -355.5q-19 -144 4 -248t94 -163.5t187 -59.5z" />
    <glyph glyph-name="uni1EE0" unicode="&#x1ee0;" horiz-adv-x="1453" 
d="M633 1701l-15 61q74 64 142 64q40 0 105 -25.5t106 -25.5q32 0 55 10t57 33l19 -70q-25 -16 -35.5 -22t-42.5 -15.5t-66 -9.5q-49 0 -106.5 24.5t-93.5 24.5q-21 0 -41.5 -6t-31 -11t-29.5 -17t-23 -15zM605 -20q-264 0 -382 194t-66 559q52 371 226.5 569.5t436.5 198.5
q272 0 386 -213l4 28q80 -2 120.5 38.5t58.5 150.5h89q-19 -136 -81 -202.5t-167 -63.5q77 -196 33 -502q-52 -367 -224.5 -562t-433.5 -195zM620 63q230 0 372 168t189 506q47 340 -48.5 510t-324.5 170q-230 0 -375 -171t-192 -509q-47 -336 50.5 -505t328.5 -169z" />
    <glyph glyph-name="uni1EE1" unicode="&#x1ee1;" horiz-adv-x="1178" 
d="M425 1279l-14 61q37 32 68.5 48t72.5 16q40 0 105 -25.5t106 -25.5q33 0 56 10t57 33l18 -70l-10 -6q-9 -6 -11.5 -7.5t-12 -6.5t-14 -7t-14.5 -6t-18 -6t-18.5 -4t-21.5 -3t-23 -1q-49 0 -107 24.5t-94 24.5q-21 0 -41.5 -6t-31 -11t-29.5 -17t-23 -15zM468 -20
q-198 0 -293.5 137.5t-59.5 408.5q33 258 159 405.5t337 147.5q135 0 223.5 -68.5t118.5 -204.5q70 2 106.5 43.5t54.5 145.5h89q-38 -266 -238 -266q7 -84 -7 -203q-33 -255 -157.5 -400.5t-332.5 -145.5zM478 55q159 0 266 118.5t138 352.5q29 221 -41.5 348t-239.5 127
q-162 0 -269.5 -119.5t-138.5 -355.5q-19 -144 4 -248t94 -163.5t187 -59.5z" />
    <glyph glyph-name="uni1EE2" unicode="&#x1ee2;" horiz-adv-x="1453" 
d="M605 -20q-264 0 -382 194t-66 559q52 371 226.5 569.5t436.5 198.5q272 0 386 -213l4 28q80 -2 120.5 38.5t58.5 150.5h89q-19 -136 -81 -202.5t-167 -63.5q77 -196 33 -502q-52 -367 -224.5 -562t-433.5 -195zM620 63q230 0 372 168t189 506q47 340 -48.5 510
t-324.5 170q-230 0 -375 -171t-192 -509q-47 -336 50.5 -505t328.5 -169zM521 -328l17 123h90l-17 -123h-90z" />
    <glyph glyph-name="uni1EE3" unicode="&#x1ee3;" horiz-adv-x="1178" 
d="M468 -20q-198 0 -293.5 137.5t-59.5 408.5q33 258 159 405.5t337 147.5q135 0 223.5 -68.5t118.5 -204.5q70 2 106.5 43.5t54.5 145.5h89q-38 -266 -238 -266q7 -84 -7 -203q-33 -255 -157.5 -400.5t-332.5 -145.5zM478 55q159 0 266 118.5t138 352.5q29 221 -41.5 348
t-239.5 127q-162 0 -269.5 -119.5t-138.5 -355.5q-19 -144 4 -248t94 -163.5t187 -59.5zM368 -328l16 123h90l-16 -123h-90z" />
    <glyph glyph-name="uni1EE4" unicode="&#x1ee4;" horiz-adv-x="1307" 
d="M599 -20q-232 0 -324 124t-55 385l139 992h80l-143 -1026q-57 -398 313 -398q378 0 434 398l144 1026h73l-143 -1022q-34 -241 -162.5 -360t-355.5 -119zM509 -324l16 123h90l-16 -123h-90z" />
    <glyph glyph-name="uni1EE5" unicode="&#x1ee5;" horiz-adv-x="1099" 
d="M467 -20q-176 2 -264.5 96.5t-62.5 277.5l99 705h74l-99 -705q-20 -138 44.5 -217.5t214.5 -79.5q140 0 232 79.5t114 234.5l97 688h74l-149 -1059h-68l22 195q-41 -101 -125.5 -158.5t-202.5 -56.5zM377 -328l16 123h90l-16 -123h-90z" />
    <glyph glyph-name="uni1EE6" unicode="&#x1ee6;" horiz-adv-x="1307" 
d="M876 1579l-29 61q49 32 73.5 72.5t10.5 73.5q-17 35 -58.5 33.5t-91.5 -33.5l-28 63q82 50 148 44t93 -64q31 -66 -2.5 -132.5t-115.5 -117.5zM599 -20q-232 0 -324 124t-55 385l139 992h80l-143 -1026q-57 -398 313 -398q378 0 434 398l144 1026h73l-143 -1022
q-34 -241 -162.5 -360t-355.5 -119z" />
    <glyph glyph-name="uni1EE7" unicode="&#x1ee7;" horiz-adv-x="1099" 
d="M679 1157l-29 62q49 32 73.5 72t10.5 73q-17 35 -58 33.5t-91 -33.5l-29 63q82 50 148.5 44t93.5 -64q31 -65 -3 -132t-116 -118zM467 -20q-176 2 -264.5 96.5t-62.5 277.5l99 705h74l-99 -705q-20 -138 44.5 -217.5t214.5 -79.5q140 0 232 79.5t114 234.5l97 688h74
l-149 -1059h-68l22 195q-41 -101 -125.5 -158.5t-202.5 -56.5z" />
    <glyph glyph-name="uni1EE8" unicode="&#x1ee8;" horiz-adv-x="1458" 
d="M1021 1903h116l-277 -298h-73zM599 -20q-232 0 -324 124t-55 385l139 992h80l-143 -1026q-57 -398 313 -398q378 0 434 398l144 1026h73l-23 -165q65 4 99.5 45.5t51.5 142.5h89q-19 -137 -81.5 -203.5t-169.5 -62.5l-109 -779q-34 -241 -162.5 -360t-355.5 -119z" />
    <glyph glyph-name="uni1EE9" unicode="&#x1ee9;" horiz-adv-x="1121" 
d="M822 1481h116l-276 -298h-73zM468 -20q-176 2 -264.5 96.5t-62.5 277.5l99 705h74l-99 -705q-20 -138 44.5 -217.5t214.5 -79.5q140 0 232 79.5t114 234.5l98 688h73l-15 -107q61 7 93.5 49.5t48.5 139.5h89q-38 -270 -241 -267l-124 -874h-68l22 195
q-41 -101 -125.5 -158.5t-202.5 -56.5z" />
    <glyph glyph-name="uni1EEA" unicode="&#x1eea;" horiz-adv-x="1458" 
d="M636 1903l233 -298h-72l-277 298h116zM599 -20q-232 0 -324 124t-55 385l139 992h80l-143 -1026q-57 -398 313 -398q378 0 434 398l144 1026h73l-23 -165q65 4 99.5 45.5t51.5 142.5h89q-19 -137 -81.5 -203.5t-169.5 -62.5l-109 -779q-34 -241 -162.5 -360t-355.5 -119z
" />
    <glyph glyph-name="uni1EEB" unicode="&#x1eeb;" horiz-adv-x="1136" 
d="M440 1481l234 -298h-73l-276 298h115zM468 -20q-176 2 -264.5 96.5t-62.5 277.5l99 705h74l-99 -705q-20 -138 44.5 -217.5t214.5 -79.5q140 0 232 79.5t114 234.5l98 688h73l-15 -108q69 3 105 45t53 145h89q-20 -139 -84 -206t-173 -61l-124 -874h-68l22 195
q-41 -101 -125.5 -158.5t-202.5 -56.5z" />
    <glyph glyph-name="uni1EEC" unicode="&#x1eec;" horiz-adv-x="1458" 
d="M876 1580l-29 61q49 32 73.5 72.5t10.5 73.5q-17 35 -58.5 33.5t-91.5 -33.5l-28 63q82 50 148 44t93 -64q31 -66 -2.5 -132.5t-115.5 -117.5zM599 -20q-232 0 -324 124t-55 385l139 992h80l-143 -1026q-57 -398 313 -398q378 0 434 398l144 1026h73l-23 -165
q65 4 99.5 45.5t51.5 142.5h89q-19 -137 -81.5 -203.5t-169.5 -62.5l-109 -779q-34 -241 -162.5 -360t-355.5 -119z" />
    <glyph glyph-name="uni1EED" unicode="&#x1eed;" horiz-adv-x="1136" 
d="M689 1157l-29 62q49 32 73.5 72t10.5 73q-17 35 -58 33.5t-91 -33.5l-29 63q82 50 148.5 44t93.5 -64q31 -65 -3 -132t-116 -118zM468 -20q-176 2 -264.5 96.5t-62.5 277.5l99 705h74l-99 -705q-20 -138 44.5 -217.5t214.5 -79.5q140 0 232 79.5t114 234.5l98 688h73
l-15 -108q69 3 105 45t53 145h89q-20 -139 -84 -206t-173 -61l-124 -874h-68l22 195q-41 -101 -125.5 -158.5t-202.5 -56.5z" />
    <glyph glyph-name="uni1EEE" unicode="&#x1eee;" horiz-adv-x="1458" 
d="M626 1701l-15 61q74 64 142 64q40 0 105 -25.5t106 -25.5q32 0 55 10t57 33l19 -70q-25 -16 -35.5 -22t-42.5 -15.5t-66 -9.5q-49 0 -106.5 24.5t-93.5 24.5q-21 0 -41.5 -6t-31 -11t-29.5 -17t-23 -15zM599 -20q-232 0 -324 124t-55 385l139 992h80l-143 -1026
q-57 -398 313 -398q378 0 434 398l144 1026h73l-23 -165q65 4 99.5 45.5t51.5 142.5h89q-19 -137 -81.5 -203.5t-169.5 -62.5l-109 -779q-34 -241 -162.5 -360t-355.5 -119z" />
    <glyph glyph-name="uni1EEF" unicode="&#x1eef;" horiz-adv-x="1136" 
d="M439 1279l-14 61q37 32 68.5 48t72.5 16q40 0 105 -25.5t106 -25.5q33 0 56 10t57 33l18 -70l-10 -6q-9 -6 -11.5 -7.5t-12 -6.5t-14 -7t-14.5 -6t-18 -6t-18.5 -4t-21.5 -3t-23 -1q-49 0 -107 24.5t-94 24.5q-21 0 -41.5 -6t-31 -11t-29.5 -17t-23 -15zM468 -20
q-176 2 -264.5 96.5t-62.5 277.5l99 705h74l-99 -705q-20 -138 44.5 -217.5t214.5 -79.5q140 0 232 79.5t114 234.5l98 688h73l-15 -108q69 3 105 45t53 145h89q-20 -139 -84 -206t-173 -61l-124 -874h-68l22 195q-41 -101 -125.5 -158.5t-202.5 -56.5z" />
    <glyph glyph-name="uni1EF0" unicode="&#x1ef0;" horiz-adv-x="1458" 
d="M599 -20q-232 0 -324 124t-55 385l139 992h80l-143 -1026q-57 -398 313 -398q378 0 434 398l144 1026h73l-23 -165q65 4 99.5 45.5t51.5 142.5h89q-19 -137 -81.5 -203.5t-169.5 -62.5l-109 -779q-34 -241 -162.5 -360t-355.5 -119zM504 -324l16 123h90l-16 -123h-90z
" />
    <glyph glyph-name="uni1EF1" unicode="&#x1ef1;" horiz-adv-x="1136" 
d="M468 -20q-176 2 -264.5 96.5t-62.5 277.5l99 705h74l-99 -705q-20 -138 44.5 -217.5t214.5 -79.5q140 0 232 79.5t114 234.5l98 688h73l-15 -108q69 3 105 45t53 145h89q-20 -139 -84 -206t-173 -61l-124 -874h-68l22 195q-41 -101 -125.5 -158.5t-202.5 -56.5zM382 -328
l16 123h90l-16 -123h-90z" />
    <glyph glyph-name="Ygrave" unicode="&#x1ef2;" horiz-adv-x="1036" 
d="M477 1907l234 -298h-73l-277 298h116zM412 0l88 639l-336 842h82l303 -762l510 762h82l-567 -844l-90 -637h-72z" />
    <glyph glyph-name="ygrave" unicode="&#x1ef3;" horiz-adv-x="966" 
d="M388 1481l234 -298h-73l-277 298h116zM95 -338q-42 0 -70.5 4t-36.5 8l-7 4l8 56h104q84 0 134 34.5t81 96.5l70 141l-234 1053h80l209 -944l467 944h72l-596 -1213q-94 -184 -281 -184z" />
    <glyph glyph-name="uni1EF4" unicode="&#x1ef4;" horiz-adv-x="1036" 
d="M412 0l88 639l-336 842h82l303 -762l510 762h82l-567 -844l-90 -637h-72zM358 -328l17 123h90l-16 -123h-91z" />
    <glyph glyph-name="uni1EF5" unicode="&#x1ef5;" horiz-adv-x="966" 
d="M95 -338q-42 0 -70.5 4t-36.5 8l-7 4l8 56h104q84 0 134 34.5t81 96.5l70 141l-234 1053h80l209 -944l467 944h72l-596 -1213q-94 -184 -281 -184zM571 -344l17 123h90l-16 -123h-91z" />
    <glyph glyph-name="uni1EF6" unicode="&#x1ef6;" horiz-adv-x="1036" 
d="M717 1583l-29 62q49 32 73.5 72t10.5 73q-17 35 -58 33.5t-91 -33.5l-29 63q82 50 148.5 44t93.5 -64q31 -65 -3 -132t-116 -118zM412 0l88 639l-336 842h82l303 -762l510 762h82l-567 -844l-90 -637h-72z" />
    <glyph glyph-name="uni1EF7" unicode="&#x1ef7;" horiz-adv-x="966" 
d="M628 1157l-29 62q49 32 73.5 72t10.5 73q-17 35 -58 33.5t-91 -33.5l-29 63q82 50 148 44t93 -64q31 -66 -2.5 -132.5t-115.5 -117.5zM95 -338q-42 0 -70.5 4t-36.5 8l-7 4l8 56h104q84 0 134 34.5t81 96.5l70 141l-234 1053h80l209 -944l467 944h72l-596 -1213
q-94 -184 -281 -184z" />
    <glyph glyph-name="uni1EF8" unicode="&#x1ef8;" horiz-adv-x="1036" 
d="M466 1705l-14 61q37 32 68.5 48t72.5 16q40 0 105 -25.5t106 -25.5q32 0 55 10t57 33l19 -70l-9 -6l-12.5 -7.5t-12 -6.5t-14 -7t-14.5 -6t-18 -6t-18.5 -4t-21.5 -3t-23 -1q-49 0 -107 24.5t-94 24.5q-21 0 -41.5 -6t-31 -11t-29.5 -17t-23 -15zM412 0l88 639l-336 842
h82l303 -762l510 762h82l-567 -844l-90 -637h-72z" />
    <glyph glyph-name="uni1EF9" unicode="&#x1ef9;" horiz-adv-x="966" 
d="M377 1279l-15 61q74 64 142 64q40 0 105 -25.5t106 -25.5q32 0 55 10t57 33l19 -70q-25 -16 -35.5 -22t-42.5 -15.5t-66 -9.5q-49 0 -106.5 24.5t-93.5 24.5q-21 0 -41.5 -6t-31 -11t-29.5 -17t-23 -15zM95 -338q-42 0 -70.5 4t-36.5 8l-7 4l8 56h104q84 0 134 34.5
t81 96.5l70 141l-234 1053h80l209 -944l467 944h72l-596 -1213q-94 -184 -281 -184z" />
    <glyph glyph-name="endash" unicode="&#x2013;" horiz-adv-x="998" 
d="M124 477l10 80l737 2l-10 -80z" />
    <glyph glyph-name="emdash" unicode="&#x2014;" horiz-adv-x="2223" 
d="M1837 559l-11 -80l-1443 -2l11 80z" />
    <glyph glyph-name="quoteleft" unicode="&#x2018;" horiz-adv-x="441" 
d="M487 1548l-139 -229h71l-23 -162h-170l20 139l177 252h64z" />
    <glyph glyph-name="quoteright" unicode="&#x2019;" horiz-adv-x="411" 
d="M181 1090l140 229h-71l22 162h170l-19 -140l-177 -251h-65z" />
    <glyph glyph-name="quotesinglbase" unicode="&#x201a;" horiz-adv-x="404" 
d="M-25 -227l130 227h-66l22 164h158l-18 -139l-164 -252h-62z" />
    <glyph glyph-name="quotedblleft" unicode="&#x201c;" horiz-adv-x="746" 
d="M788 1518l-139 -233h71l-23 -163h-170l20 141l177 255h64zM483 1518l-139 -233h71l-23 -163h-170l20 141l177 255h64z" />
    <glyph glyph-name="quotedblright" unicode="&#x201d;" horiz-adv-x="701" 
d="M471 1090l139 229h-70l22 162h170l-19 -140l-177 -251h-65zM181 1090l140 229h-71l22 162h170l-19 -140l-177 -251h-65z" />
    <glyph glyph-name="quotedblbase" unicode="&#x201e;" horiz-adv-x="703" 
d="M274 -227l130 227h-66l22 164h158l-18 -139l-164 -252h-62zM-25 -227l130 227h-66l22 164h158l-18 -139l-164 -252h-62z" />
    <glyph glyph-name="dagger" unicode="&#x2020;" horiz-adv-x="743" 
d="M204 -330l182 1178l-342 -12l12 94l334 -10l68 561h98l-92 -561l336 10l-15 -94l-338 12l-145 -1178h-98z" />
    <glyph glyph-name="daggerdbl" unicode="&#x2021;" horiz-adv-x="744" 
d="M205 -330l90 561l-338 -10l14 96l340 -14l76 545l-342 -12l12 94l334 -10l68 561h98l-92 -561l336 10l-15 -94l-337 12l-76 -545l342 14l-15 -96l-331 10l-66 -561h-98z" />
    <glyph glyph-name="bullet" unicode="&#x2022;" horiz-adv-x="576" 
d="M319 608q-60 0 -101.5 43t-41.5 103t41.5 101.5t101.5 41.5t102 -41.5t42 -101.5t-42 -103t-102 -43z" />
    <glyph glyph-name="ellipsis" unicode="&#x2026;" horiz-adv-x="1302" 
d="M990 0l23 158h114l-22 -158h-115zM48 0l23 158h114l-22 -158h-115zM519 0l23 158h114l-22 -158h-115z" />
    <glyph glyph-name="perthousand" unicode="&#x2030;" horiz-adv-x="2385" 
d="M441 653q-136 0 -203.5 110.5t-37.5 315.5q28 204 126 314t234 110q135 0 200.5 -110t37.5 -314q-28 -205 -125 -315.5t-232 -110.5zM273 -8h-67l1252 1505h66zM447 713q106 0 184.5 102t102.5 264q22 160 -28 262.5t-156 102.5t-185.5 -103t-101.5 -262
q-23 -160 27.5 -263t156.5 -103zM1158 -20q-136 0 -203 111t-39 317q28 201 127 312t234 111q136 0 202.5 -110.5t37.5 -312.5q-30 -207 -127 -317.5t-232 -110.5zM1887 -20q-136 0 -202.5 110.5t-38.5 317.5q28 202 126.5 312.5t233.5 110.5q136 0 202.5 -110.5
t37.5 -312.5q-30 -207 -127 -317.5t-232 -110.5zM1164 41q102 0 183.5 105t103.5 260t-30 259.5t-154 104.5t-183.5 -105t-103.5 -259q-22 -155 30 -260t154 -105zM1893 41q102 0 183.5 105t103.5 260t-30 259.5t-154 104.5t-183.5 -105t-103.5 -259q-22 -155 30 -260
t154 -105z" />
    <glyph glyph-name="guilsinglleft" unicode="&#x2039;" horiz-adv-x="478" 
d="M279 156l-220 358l326 375h51l-278 -375l172 -358h-51z" />
    <glyph glyph-name="guilsinglright" unicode="&#x203a;" horiz-adv-x="476" 
d="M44 156l272 358l-174 375h52l219 -375l-322 -358h-47z" />
    <glyph glyph-name="fraction" unicode="&#x2044;" horiz-adv-x="379" 
d="M-303 -8h-73l1132 1505h70z" />
    <glyph glyph-name="uni2070" unicode="&#x2070;" horiz-adv-x="680" 
d="M345 770q-131 0 -189.5 120t-25.5 355q33 238 126.5 361t223.5 123q131 0 190 -122t26 -359q-34 -236 -127 -357t-224 -121zM354 823q226 0 286 425q60 428 -167 428q-110 0 -184.5 -105t-105.5 -323q-30 -216 15.5 -320.5t155.5 -104.5z" />
    <glyph glyph-name="uni2074" unicode="&#x2074;" horiz-adv-x="713" 
d="M468 778l38 270h-413l9 63l492 599h53l-84 -609h151l-7 -53h-153l-37 -270h-49zM152 1101h357l74 522z" />
    <glyph glyph-name="uni2075" unicode="&#x2075;" horiz-adv-x="711" 
d="M369 764q-112 0 -186.5 71.5t-84.5 187.5h56q14 -95 73.5 -152t151.5 -57q107 0 181 71t92 197q16 114 -40.5 183t-148.5 69q-74 0 -128.5 -24t-114.5 -97h-58l107 497h476l-7 -52h-426l-80 -377q83 104 238 104q53 0 99 -19.5t81 -56t50 -95t5 -131.5
q-20 -143 -113 -231t-223 -88z" />
    <glyph glyph-name="uni2076" unicode="&#x2076;" horiz-adv-x="688" 
d="M365 774q-138 0 -202.5 123.5t-33.5 345.5q32 227 130 358.5t251 131.5q95 0 156.5 -57.5t68.5 -158.5h-48q-8 74 -57 119.5t-127 45.5q-137 0 -222 -125t-112 -378q32 97 109 157.5t169 60.5q126 0 190 -80.5t43 -223.5q-20 -145 -104 -232t-211 -87zM375 827
q97 0 166 72.5t86 190.5q18 118 -27.5 185.5t-154.5 67.5q-91 0 -168.5 -66t-90.5 -163q-20 -122 33 -204.5t156 -82.5z" />
    <glyph glyph-name="uni2077" unicode="&#x2077;" horiz-adv-x="644" 
d="M209 778q59 168 186.5 415t285.5 465h-502l7 52h565l-10 -52q-143 -188 -287.5 -459.5t-193.5 -420.5h-51z" />
    <glyph glyph-name="uni2078" unicode="&#x2078;" horiz-adv-x="754" 
d="M382 772q-140 0 -214.5 71.5t-57.5 188.5q11 82 77.5 154.5t139.5 85.5q-137 60 -116 213q17 114 102.5 180t203.5 66q119 0 185.5 -66t50.5 -180q-21 -154 -174 -213q69 -13 115 -85.5t35 -154.5q-17 -117 -111.5 -188.5t-235.5 -71.5zM456 1300q100 0 166 49.5
t78 137.5q12 89 -40 140.5t-151 51.5q-98 0 -165.5 -52t-78.5 -140q-13 -87 39.5 -137t151.5 -50zM389 822q117 0 195.5 56.5t91.5 150.5q13 93 -50 153t-179 60q-114 0 -193.5 -60t-92.5 -153q-13 -94 49.5 -150.5t178.5 -56.5z" />
    <glyph glyph-name="uni2079" unicode="&#x2079;" horiz-adv-x="693" 
d="M326 774q-96 0 -160.5 57t-71.5 157h49q8 -74 59.5 -119t130.5 -45q138 0 225.5 125.5t114.5 377.5q-32 -96 -109.5 -157t-168.5 -61q-126 0 -189.5 80t-43.5 224q21 145 104.5 232.5t211.5 87.5q137 0 201 -124.5t32 -345.5q-32 -226 -131.5 -357.5t-253.5 -131.5z
M396 1162q91 0 168.5 66.5t90.5 163.5q19 123 -33 205.5t-155 82.5q-96 0 -165.5 -73t-86.5 -191q-17 -119 27 -186.5t154 -67.5z" />
    <glyph glyph-name="colonmonetary" unicode="&#x20a1;" horiz-adv-x="1282" 
d="M603 -20q-49 0 -92 6l-22 -111h-75l24 127q-361 111 -280 735q44 346 188 539t376 221l19 100h76l-18 -96h2q68 0 128 -17l21 113h76l-27 -142q108 -55 167 -163t56 -233h-84q-5 99 -45 179.5t-111 126.5l-245 -1284q116 35 197.5 126t120.5 214h84q-35 -148 -149 -269
t-269 -158l-23 -119h-75l20 107q-26 -2 -40 -2zM790 1417h-7l-257 -1347q49 -7 87 -7q3 0 45 3l254 1333q-54 18 -122 18zM241 737q-71 -544 214 -648l251 1322q-384 -57 -465 -674z" />
    <glyph glyph-name="franc" unicode="&#x20a3;" horiz-adv-x="1126" 
d="M120 0l42 302l-184 -1l11 76l183 1l155 1103h811l-13 -80h-725l-90 -639h672l-12 -80h-670l-43 -304l334 1l-10 -76l-334 -1l-43 -302h-84z" />
    <glyph glyph-name="lira" unicode="&#x20a4;" horiz-adv-x="1100" 
d="M-53 0l10 78h78q77 -2 140.5 87.5t88.5 262.5q5 61 8 86q-2 10 -14 10h-205l10 76h209l-4 225h-174l10 76h162l-2 43q-2 152 30.5 263t92.5 173.5t134.5 91.5t166.5 29q112 0 198.5 -58.5t104.5 -133.5l-73 -39q-26 72 -82.5 108.5t-155.5 36.5q-125 0 -218.5 -75.5
t-113.5 -206.5q-5 -55 -2 -215q0 -17 16 -17l338 2l-10 -76l-344 -2l4 -225l309 2l-12 -76h-297q-5 -117 -48.5 -242t-117.5 -204h402q106 0 177.5 39t117.5 131l63 -31q-116 -219 -371 -219h-626z" />
    <glyph glyph-name="uni20A6" unicode="&#x20a6;" horiz-adv-x="1301" 
d="M65 0l153 567h-202l11 76h212l65 244h-243l11 76h253l140 518h55l156 -517l460 1l139 516h68l-140 -516h149l-11 -76h-158l-66 -244h190l-11 -76h-199l-154 -569h-58l-171 568l-427 -1l-155 -567h-67zM489 1317l-96 -353h202zM698 888l74 -244l278 1l65 244zM373 887
l-66 -244l384 1l-74 244zM919 160l110 409l-234 -1z" />
    <glyph glyph-name="uni20A9" unicode="&#x20a9;" horiz-adv-x="1821" 
d="M260 0l19 567h-242l10 76h235l7 244h-207l10 76h200l16 518h78l-19 -518l407 1l264 517h67l-15 -517l413 1l263 516h74l-265 -516h287l-11 -76h-315l-125 -244h406l-11 -76h-434l-292 -569h-93l19 568h-365l-290 -568h-91zM1030 1327l-186 -363h174zM1086 888l-7 -244
h260l125 245zM805 888l-125 -244h328l8 244h-211zM364 887l-10 -244l257 1l124 244zM1062 100l240 468h-225zM334 100l238 468l-221 -1z" />
    <glyph glyph-name="dong" unicode="&#x20ab;" horiz-adv-x="915" 
d="M400 252q-150 0 -232.5 113t-53.5 319q29 210 147.5 338.5t282.5 128.5q42 0 75.5 -8t59.5 -25t39 -28.5t35 -34.5q12 -11 15 -8.5t5 18.5l29 203h-287l10 69h287l21 142h69l-19 -142h115l-10 -69h-116l-140 -1000h-65l18 131q-2 -2 -15 -16t-20.5 -22t-25 -23.5
t-32 -25.5t-37 -22.5t-45 -20t-51.5 -12.5t-59 -5zM425 330q100 0 180 69.5t90 145.5l58 409q-89 115 -215 115q-127 0 -220.5 -101.5t-117.5 -277.5q-25 -176 41.5 -268t183.5 -92zM54 0l8 70h652l-11 -70h-649z" />
    <glyph glyph-name="Euro" unicode="&#x20ac;" horiz-adv-x="1034" 
d="M-38 547l10 76h164q4 50 12 112q6 49 24 131h-165l10 76l174 1q76 267 234.5 412.5t376.5 145.5q151 0 272 -100l-63 -78q-95 92 -217 92q-186 0 -315.5 -120t-196.5 -352l430 1l-11 -76l-439 -1q-15 -69 -23 -132q-10 -80 -12 -111l440 1l-11 -76l-432 -1
q-2 -236 97.5 -359t298.5 -123q128 0 243 75l35 -69q-145 -92 -297 -92q-230 0 -350 146.5t-118 420.5h-171z" />
    <glyph glyph-name="uni20B9" unicode="&#x20b9;" horiz-adv-x="995" 
d="M607 0l-145 729h-432l10 80h328q191 0 295 64.5t136 212.5l-716 -1l10 76l717 1q7 120 -66.5 179.5t-228.5 59.5h-391l10 80h4l959 2l-11 -76l-279 -1q105 -80 95 -243h152l-13 -76h-150q-55 -252 -327 -337q-12 -4 -8 -15l143 -735h-92z" />
    <glyph glyph-name="uni20BA" unicode="&#x20ba;" horiz-adv-x="907" 
d="M118 0l65 463l-143 -53l-14 86l171 64l33 237l-143 -54l-14 86l171 65l83 587h84l-78 -554l297 111l18 -86l-329 -123l-33 -236l297 112l18 -87l-329 -121l-58 -417h115q148 0 260 88.5t209 288.5l75 -23q-90 -212 -235.5 -323t-316.5 -111h-203z" />
    <glyph glyph-name="uni2113" unicode="&#x2113;" horiz-adv-x="845" 
d="M377 -12q-249 0 -204 403l-112 -78l-30 68l157 111l81 573q31 215 124.5 325.5t212.5 110.5q108 0 158.5 -84.5t30.5 -220.5q-7 -54 -24.5 -108t-47 -107t-58 -99t-74 -99t-78.5 -90.5t-87 -90t-84 -81t-85 -79.5q-22 -140 -12 -225t42.5 -121.5t91.5 -36.5
q71 0 127 35.5t125 134.5l45 -33q-69 -112 -140 -160t-159 -48zM269 552q68 56 132 119.5t137 152.5t124 194.5t66 208.5q13 93 -20 141.5t-108 48.5q-103 0 -168.5 -97t-97.5 -325z" />
    <glyph glyph-name="uni2116" unicode="&#x2116;" horiz-adv-x="2193" 
d="M1838 813q-134 0 -194 93t-38 247q22 157 111 251.5t218 94.5q130 0 193 -95t41 -251q-22 -153 -109.5 -246.5t-221.5 -93.5zM151 0l208 1481h60l635 -1321l186 1321h74l-209 -1481h-64l-630 1317l-187 -1317h-73zM1847 879q100 0 164.5 75t82.5 205q17 123 -26.5 197
t-141.5 74q-99 0 -162.5 -73.5t-82.5 -197.5q-19 -130 24 -205t142 -75z" />
    <glyph glyph-name="uni2117" unicode="&#x2117;" horiz-adv-x="1521" 
d="M685 -20q-191 0 -338 101t-216 276t-40 384q28 206 146.5 381t294.5 277t366 102q142 0 263 -60.5t200 -162.5t115 -242.5t14 -294.5q-22 -156 -97.5 -297.5t-183.5 -242.5t-245.5 -161t-278.5 -60zM697 68q121 0 239.5 48t216 134t166 214t89.5 277q21 147 -12 274.5
t-105.5 214t-177.5 136t-227 49.5q-125 0 -244.5 -49t-216 -136t-164 -214t-88.5 -275q-21 -150 11 -277.5t104.5 -213.5t178 -134t230.5 -48zM503 336l112 799h256q121 0 185.5 -51t50.5 -154q-18 -123 -98 -187.5t-197 -64.5h-188l-47 -342h-74zM634 750h188q80 0 138 40
t69 119q11 85 -34.5 119.5t-135.5 34.5h-180z" />
    <glyph glyph-name="uni2120" unicode="&#x2120;" horiz-adv-x="1891" 
d="M318 -12q-120 0 -198 62.5t-82 175.5h52q6 -90 72.5 -139.5t163.5 -49.5q109 0 185 52.5t87 134.5q19 152 -128 195l-180 51q-188 53 -166 211q14 111 101 183.5t213 72.5q133 0 199.5 -77.5t53.5 -178.5h-52q4 107 -55.5 155.5t-154.5 48.5q-54 0 -107 -20.5t-97 -68.5
t-52 -114q-8 -60 26.5 -97.5t127.5 -65.5l173 -51q90 -27 124.5 -91.5t23.5 -150.5q-13 -103 -99.5 -170.5t-230.5 -67.5zM934 0l129 926h53l196 -870l446 870h50l-129 -926h-51l111 788l-401 -788h-67l-177 778l-110 -778h-50z" />
    <glyph glyph-name="trademark" unicode="&#x2122;" horiz-adv-x="1722" 
d="M247 0l123 874h-292l7 52h606l-6 -52h-269l-123 -874h-46zM765 0l129 926h53l196 -870l446 870h50l-129 -926h-51l111 788l-401 -788h-67l-177 778l-110 -778h-50z" />
    <glyph glyph-name="uni2126" unicode="&#x2126;" horiz-adv-x="1464" 
d="M139 0l13 86h329q-4 4 -19.5 17.5t-32 29t-41 41t-46.5 53.5t-47.5 66.5t-44.5 80t-37.5 94t-25.5 108t-10 122.5t9 138q20 140 77 266t143 224t207.5 156t260.5 58q93 0 172 -26.5t135.5 -74t99.5 -113.5t63.5 -144t27.5 -165.5t-8 -178.5q-23 -159 -80 -279.5
t-156 -227t-274 -245.5h334l-12 -86h-441l13 92q46 32 76.5 54t85 67t93 85t87 101t81 122t60 140.5t39.5 163.5q13 77 8.5 153t-19.5 146t-49.5 130t-81 104t-115 69t-151.5 25q-99 0 -187.5 -36t-153.5 -96.5t-116 -141.5t-82 -170t-44 -183q-32 -222 42 -389t273 -344
l-14 -92h-441z" />
    <glyph glyph-name="uni2153" unicode="&#x2153;" horiz-adv-x="1539" 
d="M166 -8h-73l1132 1505h70zM233 565l111 785h-178l6 50q80 0 122 10t58.5 29.5t21.5 57.5h41l-131 -932h-51zM1090 -20q-114 2 -183.5 74.5t-59.5 187.5h53q-2 -95 52.5 -152t150.5 -57q110 0 186.5 57.5t89.5 149.5q14 104 -54 161t-183 57h-74l8 52h73q99 0 179 60.5
t91 137.5q10 71 -40 124.5t-154 53.5q-85 0 -159.5 -58t-88.5 -159h-52q17 118 105.5 193.5t199.5 75.5q123 0 189 -63t52 -167q-10 -71 -62.5 -129.5t-139.5 -90.5q93 -29 134.5 -92.5t29.5 -151.5q-17 -119 -111 -192t-232 -72z" />
    <glyph glyph-name="uni2154" unicode="&#x2154;" horiz-adv-x="1811" 
d="M77 571l8 54l4 27q10 68 43 124t79 94t99.5 71.5t107.5 65.5t99.5 67t78 84.5t40.5 110.5q12 87 -37 139.5t-143 52.5q-101 0 -168.5 -60.5t-84.5 -154.5h-52q20 114 105 192t211 78q115 0 175 -68.5t44 -180.5q-10 -69 -43 -124.5t-79 -93t-99.5 -70.5t-107 -65
t-99 -66.5t-78 -84.5t-41.5 -111l-3 -27h470l-8 -54h-521zM438 -8h-72l1131 1505h71zM1362 -20q-114 2 -183.5 74.5t-59.5 187.5h53q-2 -95 52.5 -152t150.5 -57q110 0 187 57.5t90 149.5q14 104 -54 161t-184 57h-74l9 52h72q99 0 179.5 60.5t91.5 137.5q10 71 -40.5 124.5
t-154.5 53.5q-85 0 -159.5 -58t-88.5 -159h-52q17 118 105.5 193.5t199.5 75.5q123 0 189.5 -63t52.5 -167q-10 -71 -63 -129.5t-140 -90.5q93 -29 134.5 -92.5t29.5 -151.5q-17 -119 -111 -192t-232 -72z" />
    <glyph glyph-name="oneeighth" unicode="&#x215b;" horiz-adv-x="1573" 
d="M166 -8h-73l1132 1505h70zM233 565l111 785h-178l6 50q80 0 122 10t58.5 29.5t21.5 57.5h41l-131 -932h-51zM1119 -23q-140 0 -214.5 71.5t-57.5 189.5q11 82 77.5 154t139.5 85q-137 60 -116 213q17 114 102.5 180t203.5 66q119 0 185.5 -66t50.5 -180
q-21 -154 -174 -213q69 -13 115 -85t35 -154q-17 -118 -111.5 -189.5t-235.5 -71.5zM1193 506q100 0 166.5 49.5t78.5 136.5q12 89 -40.5 141t-151.5 52q-98 0 -165.5 -52.5t-78.5 -140.5q-13 -87 39.5 -136.5t151.5 -49.5zM1126 28q117 0 195.5 56t91.5 150
q13 93 -49.5 153t-178.5 60q-115 0 -194.5 -60t-92.5 -153q-13 -94 49.5 -150t178.5 -56z" />
    <glyph glyph-name="threeeighths" unicode="&#x215c;" horiz-adv-x="1806" 
d="M353 557q-114 2 -183 74.5t-59 187.5h53q-2 -95 52.5 -152t150.5 -57q110 0 186.5 57.5t89.5 149.5q14 104 -54 161t-183 57h-74l8 52h73q99 0 179 60.5t91 137.5q10 71 -40.5 124.5t-154.5 53.5q-85 0 -159 -58t-88 -159h-53q17 118 106 194t200 76q123 0 189 -63.5
t52 -167.5q-10 -71 -63 -129t-140 -90q93 -29 134.5 -93t29.5 -152q-17 -119 -111 -192t-232 -72zM398 -8h-72l1131 1505h71zM1352 -23q-140 0 -215 72t-58 189q11 82 77.5 154t139.5 85q-136 60 -115 213q17 114 102.5 180t203.5 66q119 0 185 -66t50 -180
q-21 -154 -174 -213q69 -13 115.5 -85t35.5 -154q-17 -118 -111.5 -189.5t-235.5 -71.5zM1425 506q100 0 166.5 49.5t78.5 136.5q12 89 -40 141t-151 52q-98 0 -165.5 -52.5t-78.5 -140.5q-13 -87 39 -136.5t151 -49.5zM1359 28q117 0 195.5 56t91.5 150q13 93 -50 153
t-179 60q-115 0 -194.5 -60t-92.5 -153q-13 -94 50 -150t179 -56z" />
    <glyph glyph-name="fiveeighths" unicode="&#x215d;" horiz-adv-x="1797" 
d="M389 -8h-73l1132 1505h71zM369 551q-112 0 -186.5 71.5t-84.5 187.5h56q14 -95 73.5 -152t151.5 -57q107 0 181 71t92 197q16 114 -40.5 183t-148.5 69q-74 0 -128.5 -24t-114.5 -97h-58l107 497h476l-7 -52h-426l-80 -377q83 104 238 104q53 0 99 -19.5t81 -56t50 -95
t5 -131.5q-20 -143 -113 -231t-223 -88zM1342 -23q-140 0 -214.5 71.5t-57.5 189.5q11 82 77.5 154t139.5 85q-137 60 -116 213q17 114 103 180t204 66q119 0 185 -66t50 -180q-21 -154 -174 -213q69 -13 115.5 -85t35.5 -154q-17 -117 -112 -189t-236 -72zM1416 506
q100 0 166.5 49.5t78.5 136.5q12 89 -40.5 141t-151.5 52q-98 0 -165 -52.5t-78 -140.5q-13 -87 39 -136.5t151 -49.5zM1350 28q117 0 195 56t91 150q13 93 -49.5 153t-178.5 60q-115 0 -194.5 -60t-92.5 -153q-13 -94 50 -150t179 -56z" />
    <glyph glyph-name="seveneighths" unicode="&#x215e;" horiz-adv-x="1610" 
d="M203 -8h-73l1132 1505h70zM209 563q59 168 186.5 415t285.5 465h-502l7 52h565l-10 -52q-143 -188 -287.5 -459.5t-193.5 -420.5h-51zM1156 -23q-140 0 -214.5 71.5t-57.5 189.5q11 82 77.5 154t139.5 85q-137 60 -116 213q17 114 102.5 180t203.5 66q119 0 185.5 -66
t50.5 -180q-21 -154 -174 -213q69 -13 115 -85t35 -154q-17 -118 -111.5 -189.5t-235.5 -71.5zM1230 506q100 0 166.5 49.5t78.5 136.5q12 89 -40.5 141t-151.5 52q-98 0 -165.5 -52.5t-78.5 -140.5q-13 -87 39.5 -136.5t151.5 -49.5zM1163 28q117 0 195.5 56t91.5 150
q13 93 -49.5 153t-178.5 60q-115 0 -194.5 -60t-92.5 -153q-13 -94 49.5 -150t178.5 -56z" />
    <glyph glyph-name="partialdiff" unicode="&#x2202;" horiz-adv-x="1101" 
d="M457 -20q-183 0 -284 132.5t-73 331.5q28 198 165 312t351 114q95 0 154 -23t135 -79q23 -13 23 2q46 324 -36 483.5t-278 159.5q-60 0 -115 -16.5t-87 -34.5t-86 -53l-23 59q58 61 158.5 97t197.5 36q223 0 318 -189.5t43 -559.5t-200 -571t-363 -201zM451 66h2
q146 0 272 139t178 364q10 55 -2 72q-40 60 -132.5 101.5t-190.5 41.5q-149 0 -258.5 -97.5t-131.5 -248.5q-22 -152 56 -262t207 -110z" />
    <glyph glyph-name="emptyset" unicode="&#x2205;" horiz-adv-x="1078" 
d="M155 322l-43 55l138 121q-63 109 -44 247q23 163 146.5 279.5t273.5 116.5q144 0 235 -110l123 108l39 -56l-124 -108q54 -103 36 -230q-23 -164 -146.5 -280.5t-273.5 -116.5q-134 0 -223 94zM273 745q-16 -111 33 -198l500 436q-75 86 -191 86q-124 0 -223.5 -95.5
t-118.5 -228.5zM525 420q124 0 224.5 95t119.5 230q14 101 -25 181l-496 -434q72 -72 177 -72z" />
    <glyph glyph-name="uni2206" unicode="&#x2206;" horiz-adv-x="1204" 
d="M-34 0l768 1481l355 -1481h-1123zM93 86h889l-283 1153z" />
    <glyph glyph-name="product" unicode="&#x220f;" horiz-adv-x="1163" 
d="M161 0l196 1399h-202l10 82h1100l-11 -82h-204l-197 -1399h-84l197 1399h-525l-196 -1399h-84z" />
    <glyph glyph-name="summation" unicode="&#x2211;" horiz-adv-x="923" 
d="M-22 0l9 68l512 673l-295 668l10 72h768l-12 -80h-662l287 -658l-500 -663h723l-10 -80h-830z" />
    <glyph glyph-name="minus" unicode="&#x2212;" horiz-adv-x="1003" 
d="M158 705l10 75l737 2l-10 -75z" />
    <glyph glyph-name="uni2215" unicode="&#x2215;" horiz-adv-x="1115" 
d="M1144 1497l-1039 -1505h-73l1043 1505h69z" />
    <glyph glyph-name="uni2219" unicode="&#x2219;" horiz-adv-x="561" 
d="M298 657q-35 0 -56.5 28.5t-15.5 68.5q4 39 34 66.5t67 27.5q35 0 56 -27t15 -67q-5 -40 -34 -68.5t-66 -28.5z" />
    <glyph glyph-name="radical" unicode="&#x221a;" horiz-adv-x="1094" 
d="M408 -330l-197 989l-145 -59l-15 74l234 92l180 -981l729 1905h74l-768 -2020h-92z" />
    <glyph glyph-name="infinity" unicode="&#x221e;" horiz-adv-x="1285" 
d="M325 248q-109 0 -174.5 84t-45.5 217q19 135 109.5 218t214.5 83q44 0 77 -10t61 -35t44.5 -45.5t44.5 -61.5q12 -14 19 -14t20 14q31 33 53.5 53t59 46.5t77.5 39.5t87 13q111 0 172 -79.5t43 -211.5v-2q-21 -143 -111 -226t-205 -83q-43 0 -77 11.5t-63 39t-46 50
t-45 65.5q-7 11 -11.5 12t-17.5 -12q-2 -2 -21.5 -23t-34 -35.5t-42.5 -36.5t-54 -36t-62 -24.5t-72 -10.5zM339 338h6q64 0 130.5 49t115.5 111q25 29 26 44t-16 48q-41 88 -88.5 132t-114.5 44q-82 0 -140.5 -58.5t-72.5 -152.5q-13 -95 32 -156t122 -61zM904 338
q80 0 135 65t66 150q12 87 -28.5 150t-117.5 63h-2q-46 0 -96 -29t-79.5 -57.5t-78.5 -81.5q-40 -46 -12 -86q88 -174 213 -174z" />
    <glyph glyph-name="integral" unicode="&#x222b;" horiz-adv-x="777" 
d="M101 -350q-76 0 -114.5 11t-91.5 48l40 88q48 -31 83.5 -43t82.5 -12q75 0 136 59t77 172q33 233 50.5 700t50.5 701q22 158 109 247t194 89q77 0 116.5 -11t90.5 -48l-41 -88q-48 31 -83.5 43t-82.5 12q-79 0 -141 -59t-78 -173q-34 -234 -52 -704t-49 -696
q-22 -158 -108 -247t-189 -89z" />
    <glyph glyph-name="approxequal" unicode="&#x2248;" horiz-adv-x="1028" 
d="M200 836l-15 65q52 45 104 70.5t122 25.5q65 0 167.5 -45t167.5 -45t108 23t81 61l14 -71q-29 -33 -84 -58.5t-131 -25.5q-68 0 -165 43t-165 43q-114 0 -204 -86zM146 453l-14 67q51 44 103 69t122 25q65 0 168 -45t168 -45q45 0 84 14.5t59 30t46 39.5l14 -69
q-30 -34 -84.5 -60t-130.5 -26q-62 0 -117 22t-107 44t-106 22q-117 0 -205 -88z" />
    <glyph glyph-name="notequal" unicode="&#x2260;" horiz-adv-x="1004" 
d="M250 172l132 294l-257 -1l10 76l282 1l164 364l-395 -1l11 76l418 1l122 271h70l-121 -271l248 1l-10 -76l-272 -1l-164 -364l384 1l-10 -76l-407 -1l-131 -294h-74z" />
    <glyph glyph-name="lessequal" unicode="&#x2264;" horiz-adv-x="1004" 
d="M867 520l-676 311l13 97l766 315l-13 -98l-647 -264l570 -267zM818 166l-735 2l10 76l737 -2z" />
    <glyph glyph-name="greaterequal" unicode="&#x2265;" horiz-adv-x="1004" 
d="M134 520l12 94l648 267l-574 264l14 98l676 -315l-12 -97zM83 166l10 76l737 2l-10 -76z" />
    <glyph glyph-name="lozenge" unicode="&#x25ca;" horiz-adv-x="804" 
d="M275 0l-174 739l396 742h90l176 -738l-395 -743h-93zM341 84l330 655l-146 660l-329 -649z" />
    <glyph glyph-name="i.loclTRK" horiz-adv-x="443" 
d="M282 1278l16 123h90l-16 -123h-90zM111 0l148 1059h75l-150 -1059h-73z" />
    <glyph glyph-name="g.ss01" horiz-adv-x="1122" 
d="M433 -346q-137 0 -231 76t-103 211h80q13 -106 87 -159.5t177 -55.5q89 -1 159.5 23.5t115 68.5t70.5 96t36 111l25 172q-109 -185 -350 -185q-200 0 -300.5 140.5t-76.5 361.5q17 155 84 282t180.5 204t251.5 77q63 0 118 -21t90 -53t57 -63t30 -59l26 176h64
l-135 -1028q-24 -182 -148 -278.5t-307 -96.5zM513 88q75 0 135 17t98 44t64.5 65.5t39.5 76.5t19 82l43 352q13 98 -72 187t-212 89q-169 0 -283.5 -133.5t-144.5 -353.5q-28 -190 58.5 -308t254.5 -118z" />
    <glyph glyph-name="l.ss01" horiz-adv-x="519" 
d="M156 0l198 1522h74l-199 -1522h-73z" />
    <glyph glyph-name="zero.osf" horiz-adv-x="1114" 
d="M478 -23q-208 0 -301.5 191t-40.5 565q53 378 201.5 573t356.5 195q207 0 300.5 -194t41.5 -570q-53 -375 -201.5 -567.5t-356.5 -192.5zM494 61q357 0 453 676q96 680 -265 680q-174 0 -292.5 -167t-167.5 -513q-48 -344 24 -510t248 -166z" />
    <glyph glyph-name="one.osf" horiz-adv-x="756" 
d="M310 0l176 1247h-282l10 80q126 0 193 16t93 47t35 91h64l-209 -1481h-80z" />
    <glyph glyph-name="two.osf" horiz-adv-x="1073" 
d="M62 0l13 84l6 45q15 109 68 197.5t126 149t158.5 113.5t170.5 103.5t157.5 106t124 134.5t65.5 175q20 138 -58.5 222.5t-228.5 84.5q-161 0 -268.5 -96t-133.5 -246h-83q31 181 166.5 304.5t336.5 123.5q182 0 277.5 -108.5t70.5 -286.5q-12 -86 -47.5 -159t-85 -126.5
t-111 -100t-127.5 -85.5t-132 -77.5t-127 -81.5t-110 -91.5t-83 -113.5t-45 -142l-6 -45h747l-12 -84h-829z" />
    <glyph glyph-name="three.osf" horiz-adv-x="1145" 
d="M476 -12q-181 3 -292 117.5t-94 297.5h84q-2 -151 84 -241t240 -90q176 0 296.5 90.5t141.5 238.5q16 112 -31.5 192t-137.5 117.5t-209 37.5h-116l13 83h115q104 0 199.5 44.5t156.5 117t73 152.5q7 53 -8 102.5t-51 90t-101 65t-149 24.5q-63 0 -126.5 -22
t-119.5 -63.5t-96 -109t-52 -149.5h-83q18 124 90.5 223t176.5 152t218 53q196 0 301.5 -101t82.5 -265q-15 -112 -99.5 -205t-221.5 -143q148 -45 214 -147t46 -242q-27 -189 -176.5 -306t-368.5 -114z" />
    <glyph glyph-name="four.osf" horiz-adv-x="1145" 
d="M684 0l59 428h-655l14 100l783 953h84l-134 -969h240l-12 -84h-242l-59 -428h-78zM180 512h569l117 831z" />
    <glyph glyph-name="five.osf" horiz-adv-x="1165" 
d="M518 -23q-178 0 -296.5 113.5t-133.5 298.5h88q23 -152 117.5 -242t240.5 -90q171 0 289 113t146 313q25 181 -65.5 291.5t-235.5 110.5q-118 0 -204.5 -38t-181.5 -155h-94l171 789h757l-11 -82h-677l-127 -600q133 166 378 166q84 0 157.5 -31t128 -89t79 -151.5
t8.5 -208.5q-31 -227 -179 -367.5t-355 -140.5z" />
    <glyph glyph-name="six.osf" horiz-adv-x="1125" 
d="M509 -23q-219 0 -321.5 197t-52.5 549q34 236 111.5 408.5t204.5 271t290 98.5q151 0 249.5 -92t108.5 -252h-77q-13 119 -90.5 191.5t-201.5 72.5q-219 0 -354 -199t-177 -601q52 153 174.5 249.5t267.5 96.5q199 0 301 -128.5t70 -355.5q-32 -230 -166 -368t-337 -138z
M526 61q154 0 264.5 115t136.5 303q27 188 -44 296t-245 108q-143 0 -266.5 -106t-145.5 -259q-30 -195 53 -326t247 -131z" />
    <glyph glyph-name="seven.osf" horiz-adv-x="1100" 
d="M271 0q92 266 295.5 659t456.5 740h-799l13 82h896l-14 -82q-229 -300 -459 -731t-307 -668h-82z" />
    <glyph glyph-name="eight.osf" horiz-adv-x="1200" 
d="M521 -23q-223 0 -341 113.5t-92 300.5q19 129 124 244t221 137q-103 45 -152 130t-31 208q26 181 161.5 286t323.5 105q123 0 213.5 -45.5t134.5 -135t27 -210.5q-35 -245 -276 -338q110 -22 184 -137t55 -244q-26 -187 -176.5 -300.5t-375.5 -113.5zM639 817
q159 0 264 79t124 218q20 140 -63.5 222.5t-240.5 82.5q-155 0 -262 -83t-126 -222q-20 -139 63 -218t241 -79zM532 57q186 0 310.5 89.5t145.5 238.5t-78.5 244.5t-283.5 95.5q-182 0 -308.5 -95.5t-147.5 -244.5t78.5 -238.5t283.5 -89.5z" />
    <glyph glyph-name="nine.osf" horiz-adv-x="1134" 
d="M445 -23q-152 0 -254 90.5t-113 249.5h78q13 -118 94 -189t207 -71q220 0 359 199.5t181 599.5q-52 -153 -174 -249.5t-267 -96.5q-200 0 -301 128t-69 355q32 231 165.5 369.5t336.5 138.5q218 0 319.5 -197.5t51.5 -549.5q-33 -235 -113 -408t-208.5 -271t-292.5 -98z
M558 594q144 0 267.5 105.5t144.5 258.5q30 195 -53 327t-246 132q-153 0 -264 -116t-137 -304q-17 -124 6 -212.5t94 -139.5t188 -51z" />
    <glyph glyph-name="zero.tf" horiz-adv-x="1433" 
d="M638 -23q-208 0 -301.5 191t-40.5 565q53 378 201.5 573t356.5 195q207 0 300.5 -194t41.5 -570q-53 -375 -201.5 -567.5t-356.5 -192.5zM653 61q358 0 454 676q96 680 -265 680q-174 0 -292.5 -167t-167.5 -513q-48 -344 23.5 -510t247.5 -166z" />
    <glyph glyph-name="one.tf" horiz-adv-x="1433" 
d="M179 0l10 84h447l170 1307l-451 -201l13 92l452 201h80l-182 -1399h454l-10 -84h-983z" />
    <glyph glyph-name="two.tf" horiz-adv-x="1433" 
d="M237 0l12 84l6 45q15 109 68 197.5t126 149t158.5 113.5t170.5 103.5t157.5 106t124 134.5t65.5 175q20 138 -58.5 222.5t-228.5 84.5q-161 0 -268.5 -96t-133.5 -246h-83q31 181 166.5 304.5t336.5 123.5q182 0 277.5 -108.5t70.5 -286.5q-12 -86 -47.5 -159t-85 -126.5
t-111 -100t-127.5 -85.5t-132 -77.5t-127 -81.5t-110 -91.5t-83 -113.5t-45 -142l-6 -45h747l-12 -84h-828z" />
    <glyph glyph-name="three.tf" horiz-adv-x="1433" 
d="M616 -23q-181 3 -292 118t-94 298h84q-2 -151 84 -241.5t240 -90.5q175 0 296 91t142 239q16 112 -31.5 191.5t-137.5 117t-209 37.5h-115l12 84h116q104 0 199.5 44.5t156.5 117t73 152.5q7 53 -8 102.5t-51.5 90t-101.5 65t-149 24.5q-63 0 -126.5 -22t-119.5 -63.5
t-96 -109t-52 -149.5h-83q17 124 90 223t177.5 152t218.5 53q196 0 301.5 -101t82.5 -265q-15 -112 -100 -205.5t-222 -143.5q148 -45 214 -147t46 -242q-27 -189 -176.5 -306t-368.5 -114z" />
    <glyph glyph-name="four.tf" horiz-adv-x="1433" 
d="M801 0l59 428h-655l14 100l782 953h84l-134 -969h241l-12 -84h-242l-59 -428h-78zM297 512h568l118 831z" />
    <glyph glyph-name="five.tf" horiz-adv-x="1433" 
d="M632 -23q-178 0 -296.5 113.5t-133.5 298.5h88q23 -152 117 -242t240 -90q171 0 289 113t146 313q25 181 -65.5 291.5t-235.5 110.5q-118 0 -204.5 -38t-181.5 -155h-93l171 789h757l-11 -82h-677l-127 -600q133 166 378 166q84 0 157.5 -31t128 -89t78.5 -151.5
t8 -208.5q-32 -227 -179 -367.5t-354 -140.5z" />
    <glyph glyph-name="six.tf" horiz-adv-x="1433" 
d="M645 -23q-219 0 -321.5 197t-52.5 549q33 236 111.5 408.5t205.5 271t290 98.5q151 0 249 -92t108 -252h-77q-13 119 -90.5 191.5t-201.5 72.5q-219 0 -354 -199t-177 -601q52 153 174.5 249.5t267.5 96.5q199 0 301 -128.5t70 -355.5q-32 -230 -166 -368t-337 -138z
M663 61q154 0 264 115t136 303q27 188 -44 296t-245 108q-143 0 -266.5 -106t-145.5 -259q-30 -195 53.5 -326t247.5 -131z" />
    <glyph glyph-name="seven.tf" horiz-adv-x="1433" 
d="M366 0q72 214 309 601.5t534 797.5h-912l11 82h1015l-11 -82q-261 -343 -525 -770.5t-328 -628.5h-93z" />
    <glyph glyph-name="eight.tf" horiz-adv-x="1433" 
d="M642 -23q-223 0 -341 113.5t-92 300.5q19 129 124 244t221 137q-103 45 -152 130t-31 208q26 181 161.5 286t323.5 105q123 0 213.5 -45.5t134.5 -135t27 -210.5q-17 -124 -89.5 -209t-187.5 -129q110 -22 184.5 -137t55.5 -244q-26 -187 -176.5 -300.5t-375.5 -113.5z
M760 817q159 0 264 79t124 218q20 140 -63.5 222.5t-240.5 82.5q-155 0 -262 -83t-126 -222q-20 -139 63 -218t241 -79zM653 57q186 0 310.5 89.5t145.5 238.5t-79 244.5t-284 95.5q-182 0 -308 -95.5t-147 -244.5t78.5 -238.5t283.5 -89.5z" />
    <glyph glyph-name="nine.tf" horiz-adv-x="1433" 
d="M595 -23q-153 0 -255 90.5t-113 249.5h78q13 -118 94 -189t207 -71q220 0 359.5 199.5t181.5 599.5q-52 -153 -174 -249.5t-267 -96.5q-200 0 -301 128t-69 355q32 231 165.5 369.5t336.5 138.5q218 0 319 -197t51 -550q-33 -235 -113 -408t-208 -271t-292 -98zM708 594
q144 0 267 105.5t144 258.5q30 195 -53 327t-246 132q-153 0 -263.5 -116t-136.5 -304q-17 -124 6 -212.5t94 -139.5t188 -51z" />
    <glyph glyph-name="zero.subs" horiz-adv-x="680" 
d="M218 -362q-131 0 -189.5 120t-25.5 355q33 238 126 360.5t224 122.5t190 -121.5t26 -358.5q-34 -236 -127 -357t-224 -121zM227 -309q226 0 286 425q60 428 -167 428q-110 0 -184.5 -105t-105.5 -323q-30 -216 15.5 -320.5t155.5 -104.5z" />
    <glyph glyph-name="one.subs" horiz-adv-x="428" 
d="M104 -338l111 784h-178l6 51q80 0 122 10t58.5 29.5t21.5 57.5h41l-131 -932h-51z" />
    <glyph glyph-name="two.subs" horiz-adv-x="649" 
d="M-51 -338l8 53l4 28q10 68 43 124t79 94t99.5 71t107.5 65t99.5 67t78 84.5t40.5 110.5q12 87 -37 140t-143 53q-101 0 -168.5 -60.5t-84.5 -154.5h-52q20 114 104.5 191.5t211.5 77.5q115 0 175 -68.5t44 -180.5q-10 -69 -43 -124.5t-79 -93t-99.5 -70.5t-107 -64.5
t-99 -66t-78 -84.5t-41.5 -111l-3 -28h470l-8 -53h-521z" />
    <glyph glyph-name="three.subs" horiz-adv-x="719" 
d="M225 -358q-114 2 -183 74.5t-59 187.5h53q-2 -95 52.5 -152t150.5 -57q110 0 186.5 57.5t89.5 149.5q14 104 -54 161t-183 57h-74l8 52h73q99 0 179 60.5t91 137.5q10 71 -40.5 124.5t-154.5 53.5q-85 0 -159 -58t-88 -159h-53q17 118 106 193.5t200 75.5q123 0 189 -63
t52 -167q-10 -71 -63 -129t-140 -90q93 -29 134.5 -93t29.5 -152q-17 -119 -111 -192t-232 -72z" />
    <glyph glyph-name="four.subs" horiz-adv-x="713" 
d="M340 -338l38 269h-413l9 64l492 599h53l-84 -609h151l-7 -54h-153l-37 -269h-49zM24 -15h357l74 522z" />
    <glyph glyph-name="five.subs" horiz-adv-x="712" 
d="M243 -358q-112 0 -186.5 71.5t-84.5 187.5h56q14 -95 73.5 -152t151.5 -57q107 0 181 71t92 197q16 114 -40.5 183t-148.5 69q-74 0 -128.5 -24t-114.5 -97h-58l107 497h477l-8 -52h-426l-80 -377q83 104 238 104q53 0 99 -19.5t81 -56t50 -95t5 -131.5
q-20 -143 -113 -231t-223 -88z" />
    <glyph glyph-name="six.subs" horiz-adv-x="687" 
d="M237 -362q-138 0 -202.5 123t-33.5 345q32 227 130 358.5t251 131.5q95 0 156.5 -57.5t68.5 -158.5h-48q-8 75 -57 120.5t-127 45.5q-137 0 -222 -125.5t-112 -378.5q32 97 109 157.5t169 60.5q126 0 190 -80.5t43 -223.5q-20 -145 -104 -231.5t-211 -86.5zM247 -309
q97 0 166.5 72t85.5 190q18 119 -27.5 186.5t-154.5 67.5q-91 0 -168.5 -66.5t-90.5 -163.5q-20 -122 33 -204t156 -82z" />
    <glyph glyph-name="seven.subs" horiz-adv-x="644" 
d="M80 -338q59 168 186.5 415t285.5 465h-502l7 52h565l-10 -52q-143 -188 -287.5 -459.5t-193.5 -420.5h-51z" />
    <glyph glyph-name="eight.subs" horiz-adv-x="755" 
d="M255 -358q-140 0 -214.5 71.5t-57.5 188.5q11 82 77.5 154t139.5 85q-137 60 -116 213q17 114 102.5 180t203.5 66q119 0 185.5 -66t50.5 -180q-21 -154 -174 -213q69 -13 115 -85t35 -154q-17 -117 -111.5 -188.5t-235.5 -71.5zM329 170q100 0 166 49.5t78 136.5
q12 89 -40 141t-151 52q-98 0 -165.5 -52.5t-78.5 -140.5q-13 -87 39.5 -136.5t151.5 -49.5zM262 -308q117 0 195.5 56.5t91.5 150.5q13 93 -49.5 153t-178.5 60q-115 0 -194.5 -60t-92.5 -153q-13 -94 49.5 -150.5t178.5 -56.5z" />
    <glyph glyph-name="nine.subs" horiz-adv-x="693" 
d="M197 -362q-96 0 -160.5 57t-71.5 157h49q8 -74 59.5 -119t130.5 -45q138 0 225.5 125t114.5 377q-32 -96 -109.5 -157t-168.5 -61q-126 0 -189.5 80t-43.5 224q21 145 104.5 232.5t211.5 87.5q137 0 201 -124.5t32 -345.5q-32 -225 -131.5 -356.5t-253.5 -131.5zM267 26
q91 0 168.5 66t90.5 163q19 123 -33 206t-155 83q-96 0 -165.5 -73t-86.5 -191q-17 -119 27 -186.5t154 -67.5z" />
    <glyph glyph-name="zero.dnom" horiz-adv-x="681" 
d="M264 -25q-131 0 -189.5 120.5t-25.5 355.5q33 238 126 360.5t224 122.5t190 -121.5t26 -358.5q-34 -236 -127 -357.5t-224 -121.5zM273 29q226 0 286 425q60 428 -167 428q-110 0 -184.5 -105t-105.5 -323q-30 -216 15.5 -320.5t155.5 -104.5z" />
    <glyph glyph-name="one.dnom" horiz-adv-x="428" 
d="M154 0l110 784h-178l6 51q80 0 122 10t58.5 29.5t21.5 57.5h41l-131 -932h-50z" />
    <glyph glyph-name="two.dnom" horiz-adv-x="649" 
d="M-3 0l8 53l4 28q10 68 43 124t79 94t99.5 71t107.5 65t99.5 67t78 84.5t40.5 110.5q12 87 -37 140t-143 53q-101 0 -168.5 -60.5t-84.5 -154.5h-52q20 114 104.5 191.5t211.5 77.5q115 0 175 -68.5t44 -180.5q-10 -69 -43 -124.5t-79 -93t-99.5 -70.5t-107 -64.5t-99 -66
t-78 -84.5t-41.5 -111l-3 -28h470l-8 -53h-521z" />
    <glyph glyph-name="three.dnom" horiz-adv-x="720" 
d="M271 -20q-114 2 -183 74.5t-59 187.5h53q-2 -95 52.5 -152t150.5 -57q110 0 186.5 57.5t89.5 149.5q14 104 -54 161t-183 57h-74l8 52h73q99 0 179 60.5t91 137.5q10 71 -40 124.5t-154 53.5q-85 0 -159.5 -58t-88.5 -159h-53q17 118 106 193.5t200 75.5q123 0 189 -63
t52 -167q-10 -71 -62.5 -129.5t-139.5 -90.5q93 -29 134 -92t29 -152q-17 -119 -111 -192t-232 -72z" />
    <glyph glyph-name="four.dnom" horiz-adv-x="713" 
d="M388 0l38 269h-413l10 64l491 599h53l-84 -609h151l-7 -54h-153l-37 -269h-49zM72 323h357l74 522z" />
    <glyph glyph-name="five.dnom" horiz-adv-x="713" 
d="M289 -20q-112 0 -186.5 71.5t-84.5 187.5h56q14 -95 73.5 -152t151.5 -57q107 0 181 71t92 197q16 114 -40.5 183t-148.5 69q-74 0 -128.5 -24t-114.5 -97h-58l107 497h477l-8 -53h-426l-79 -376q83 104 237 104q53 0 99 -19.5t81 -56t50 -95t5 -131.5
q-20 -143 -113 -231t-223 -88z" />
    </font>
</defs>
</svg>
