<?xml version="1.0" standalone="no"?>
<!DOCTYPE svg PUBLIC "-//W3C//DTD SVG 1.1//EN" "http://www.w3.org/Graphics/SVG/1.1/DTD/svg11.dtd" >
<svg xmlns="http://www.w3.org/2000/svg" xmlns:xlink="http://www.w3.org/1999/xlink" version="1.1">
<metadata>
Created by FontForge 20170731 at Sun Sep 19 03:12:14 2021
 By Aleksey,,,
Copyright (c) 2015, Impallari Type (www.impallari.com)
</metadata>
<defs>
<font id="PublicSans-Bold" horiz-adv-x="0" >
  <font-face 
    font-family="Public Sans"
    font-weight="700"
    font-stretch="normal"
    units-per-em="2048"
    panose-1="0 0 0 0 0 0 0 0 0 0"
    ascent="1638"
    descent="-410"
    x-height="1059"
    cap-height="1481"
    bbox="-342 -492 2660 2292.35"
    underline-thickness="143"
    underline-position="-521"
    unicode-range="U+000D-FB02"
  />
<missing-glyph horiz-adv-x="1346" 
d="M1181 -272q0 -31 -16 -44.5t-51 -13.5h-894q-31 0 -42.5 11.5t-11.5 37.5v1926q0 47 39 47h940q36 0 36 -43v-1921zM1047 1591h-704l733 -1706v1671q0 15 -8 25t-21 10zM315 -229h686l-731 1696v-1655q0 -21 10 -31t35 -10z" />
    <glyph glyph-name="fi" unicode="fi" horiz-adv-x="1358" 
d="M770 1059v-208h-223v-851h-300v851h-196v208h196v152q0 128 76 199t213 71h242l2 -199h-140q-56 0 -77.5 -27.5t-21.5 -93.5v-102h229zM1231 1480v-270h-291v270h291zM1229 1059v-1059h-286v1059h286z" />
    <glyph glyph-name="fl" unicode="fl" horiz-adv-x="1485" 
d="M1278 -18q-90 0 -155 19t-99.5 47t-54 73t-24.5 83.5t-5 92.5v1225h293v-1188q0 -62 27 -97t93 -42l50 -4v-184q-73 -25 -125 -25zM770 1059v-208h-223v-851h-300v851h-196v208h196v152q0 128 76 199t213 71h242l2 -199h-140q-56 0 -77.5 -27.5t-21.5 -93.5v-102h229z
" />
    <glyph glyph-name="colon_one_eight_F_colon.liga" unicode="&#x3a;&#x31;&#x38;F&#x3a;" horiz-adv-x="1598" 
d="M44 1559h1511q23 0 23 -25v-1507q0 -12 -7 -19.5t-16 -7.5h-1511q-22 0 -22 27v1507q0 25 22 25zM773 479q72 0 124 52t52 124q0 91 -76 144q54 51 54 119q0 63 -45.5 108t-108.5 45q-67 0 -111.5 -44.5t-44.5 -108.5q0 -63 56 -119q-76 -51 -76 -144q0 -72 51.5 -124
t124.5 -52zM511 498v557q0 10 -8 10h-139q-7 0 -7 -10v-54q0 -8 7 -8h75v-495q0 -9 6 -9h58q8 0 8 9zM1267 1001v54q0 10 -9 10h-215q-8 0 -8 -10v-557q0 -9 8 -9h54q12 0 12 9v254h125q6 0 6 8v51q0 10 -6 10h-125v172h149q9 0 9 8zM773 836q-36 0 -61 23t-25 59
q0 35 25 59t61 24q35 0 59.5 -24t24.5 -59q0 -36 -24 -59t-60 -23zM773 760q44 0 74.5 -30.5t30.5 -74.5q0 -43 -30.5 -73.5t-74.5 -30.5q-43 0 -73.5 30.5t-30.5 73.5q0 44 30.5 74.5t73.5 30.5z" />
    <glyph glyph-name="colon_f_l_a_g_two_colon.liga" unicode="&#x3a;flag&#x32;&#x3a;" horiz-adv-x="2390" 
d="M103 1559h2184v-1557h-2184v1557zM2160 1430h-1096v-109h1096v109zM296 1319v-121h129v121h-129zM779 1319v-121h125v121h-125zM540 1198v-119h125v119h-125zM1064 1081h1096v113h-1096v-113zM300 1079v-121h125v121h-125zM779 1079v-121h125v121h-125zM540 958v-118h125
v118h-125zM1064 842h1096v112h-1096v-112zM300 840v-121h125v121h-125zM779 840v-121h125v121h-125zM1064 602h1096v113h-1096v-113zM228 362h1932v113h-1933zM230 129h1930v107h-1931z" />
    <glyph glyph-name="colon_f_l_a_g_colon.liga" unicode="&#x3a;flag&#x3a;" horiz-adv-x="2390" 
d="M103 1559h2184v-1557h-2184v1557zM1062 840h1106v118h-1106v121h1106v119h-1106v121h1106v119h-1946v-838h1946v119h-1106v121zM822 1319h119v-121h-119v121zM343 1319h119v-121h-119v121zM583 1198h118v-119h-118v119zM343 1079h119v-121h-119v121zM822 1079h119v-121
h-119v121zM583 958h118v-118h-118v118zM343 840h119v-121h-119v121zM822 840h119v-121h-119v121zM222 360h1946v119h-1946v-119zM222 121h1946v119h-1946v-119z" />
    <glyph glyph-name=".notdef" horiz-adv-x="1346" 
d="M1181 -272q0 -31 -16 -44.5t-51 -13.5h-894q-31 0 -42.5 11.5t-11.5 37.5v1926q0 47 39 47h940q36 0 36 -43v-1921zM1047 1591h-704l733 -1706v1671q0 15 -8 25t-21 10zM315 -229h686l-731 1696v-1655q0 -21 10 -31t35 -10z" />
    <glyph glyph-name="uni0000" horiz-adv-x="54" 
 />
    <glyph glyph-name="uni0000" horiz-adv-x="54" 
 />
    <glyph glyph-name="nonmarkingreturn" horiz-adv-x="682" 
 />
    <glyph glyph-name="CR" unicode="&#xd;" horiz-adv-x="487" 
 />
    <glyph glyph-name="space" unicode=" " horiz-adv-x="461" 
 />
    <glyph glyph-name="exclam" unicode="!" horiz-adv-x="577" 
d="M454 1481l-79 -1024h-188l-84 1024h351zM441 319v-319h-326v319h326z" />
    <glyph glyph-name="quotedbl" unicode="&#x22;" horiz-adv-x="982" 
d="M867 1481l-79 -574h-148l-78 574h305zM420 1481l-79 -574h-148l-78 574h305z" />
    <glyph glyph-name="numbersign" unicode="#" horiz-adv-x="1261" 
d="M1125 616v-155h-241l-69 -466l-158 21l67 445h-275l-69 -466l-156 21l67 445h-234v155h256l40 265h-230v155h253l67 448l155 -16l-64 -432h276l67 448l156 -16l-64 -432h222v-155h-245l-39 -265h218zM472 616h276l38 265h-275z" />
    <glyph glyph-name="dollar" unicode="$" horiz-adv-x="1393" 
d="M596 1693h259v-204q191 -33 302.5 -152.5t109.5 -280.5l-302 -5q-14 104 -68.5 157.5t-167.5 53.5q-121 0 -192 -50t-71 -132q0 -65 44.5 -102.5t163.5 -68.5l238 -58q381 -92 381 -449q0 -166 -119 -276.5t-325 -137.5v-184h-258v183q-216 25 -342.5 132.5t-147.5 297.5
l312 6q24 -100 105 -153.5t205 -53.5q110 0 181.5 52.5t71.5 131.5t-50 120.5t-163 67.5l-243 52q-175 36 -274 138t-101 268q-1 177 123.5 295t327.5 149v203z" />
    <glyph glyph-name="percent" unicode="%" horiz-adv-x="1923" 
d="M470 1503q158 0 265 -122.5t107 -301.5q0 -177 -106.5 -296t-265.5 -119q-160 0 -267.5 119t-107.5 296q0 179 108.5 301.5t266.5 122.5zM1527 1497l-996 -1505l-176 3l999 1502h173zM468 815q154 0 154 264q0 130 -39 202t-115 72t-114.5 -72.5t-38.5 -201.5
q0 -126 38.5 -195t114.5 -69zM1442 821q158 0 265.5 -123t107.5 -301t-106.5 -297.5t-266.5 -119.5t-268 120t-108 297q0 178 108.5 301t267.5 123zM1440 134q76 0 114.5 68.5t38.5 192.5q0 129 -39 201.5t-114 72.5q-74 0 -113 -73t-39 -201q0 -124 38 -192.5t114 -68.5z
" />
    <glyph glyph-name="ampersand" unicode="&#x26;" horiz-adv-x="1604" 
d="M728 1503q193 0 323.5 -89.5t130.5 -231.5q0 -203 -328 -396l231 -272q86 191 101 327h306q-18 -63 -53 -137.5t-62 -120t-81 -131t-69 -110.5l293 -342h-343l-127 145q-212 -155 -477 -155q-236 0 -356.5 103.5t-120.5 278.5q0 146 89 249t284 206q-40 46 -59.5 68
t-47 59.5t-39.5 64.5t-21.5 63.5t-9.5 74.5q0 149 122 247.5t314 98.5zM742 1321q-71 -1 -113 -42t-42 -101q0 -88 101 -197l42 -44q107 66 148.5 119.5t41.5 111.5q0 77 -51.5 116t-126.5 37zM615 657q-205 -115 -184 -269q9 -79 73 -124.5t143 -45.5q63 0 135 27t124 76z
" />
    <glyph glyph-name="quotesingle" unicode="'" horiz-adv-x="534" 
d="M420 1481l-79 -574h-148l-78 574h305z" />
    <glyph glyph-name="parenleft" unicode="(" horiz-adv-x="681" 
d="M625 1518q-111 -208 -173.5 -442.5t-62.5 -471.5q0 -226 56.5 -441.5t170.5 -455.5h-209q-143 240 -214 447t-71 452q0 246 77.5 479t213.5 433h212z" />
    <glyph glyph-name="parenright" unicode=")" horiz-adv-x="689" 
d="M25 1518h211q136 -200 213.5 -433t77.5 -479q0 -245 -71 -452.5t-214 -446.5h-210q115 240 171.5 455.5t56.5 441.5q0 237 -62.5 471.5t-172.5 442.5z" />
    <glyph glyph-name="asterisk" unicode="*" horiz-adv-x="968" 
d="M649 670l-170 280l-171 -285l-161 111l212 253l-301 84l64 174l284 -124l-23 318h196l-28 -319l290 127l55 -174l-293 -85l207 -248z" />
    <glyph glyph-name="plus" unicode="+" horiz-adv-x="1205" 
d="M713 262h-218v374h-376v218h376v376h218v-376h373v-218h-373v-374z" />
    <glyph glyph-name="comma" unicode="," horiz-adv-x="567" 
d="M96 -287l119 279l-104 9v290h302v-255l-206 -323h-111z" />
    <glyph glyph-name="hyphen" unicode="-" horiz-adv-x="804" 
d="M682 636v-217l-559 -1v218h559z" />
    <glyph glyph-name="period" unicode="." horiz-adv-x="551" 
d="M101 0v326h328v-326h-328z" />
    <glyph glyph-name="slash" unicode="/" horiz-adv-x="780" 
d="M24 -38l518 1519h208l-518 -1519h-208z" />
    <glyph glyph-name="zero" unicode="0" horiz-adv-x="1319" 
d="M662 1501q267 0 418 -199t151 -565q0 -365 -150 -562.5t-419 -197.5q-270 0 -421 197.5t-151 561.5q0 366 152 565.5t420 199.5zM662 222q134 0 194 119t60 395q0 281 -61.5 405.5t-194.5 124.5t-196 -125.5t-63 -404.5q0 -273 63 -393.5t198 -120.5z" />
    <glyph glyph-name="one" unicode="1" horiz-adv-x="876" 
d="M352 0v1109h-264v169q184 0 271.5 52t97.5 151h198v-1481h-303z" />
    <glyph glyph-name="two" unicode="2" horiz-adv-x="1300" 
d="M116 0v223q0 84 26.5 155.5t71.5 123.5t103 97t122.5 80t128.5 67t122 64.5t103 67t71.5 79t26.5 95.5q0 89 -63.5 145t-168.5 56q-116 0 -191.5 -66t-93.5 -193h-286q1 108 38 199t107.5 160.5t182 108.5t252.5 39q247 0 392 -122.5t145 -324.5q0 -84 -26 -154.5
t-69.5 -120.5t-100.5 -92.5t-119.5 -74.5t-125 -61t-119.5 -58.5t-100.5 -61.5t-69.5 -74t-26 -92v-13h754v-252h-1087z" />
    <glyph glyph-name="three" unicode="3" horiz-adv-x="1361" 
d="M99 1025q0 116 43.5 208t120.5 150t178.5 88t221.5 30q169 0 296 -42t202.5 -132.5t75.5 -222.5q0 -234 -270 -326q135 -37 220 -127t85 -231t-84.5 -243t-222 -151.5t-310.5 -48.5q-265 1 -413.5 128.5t-151.5 352.5h288q21 -122 95 -180.5t185 -58.5q135 0 215 58
t80 152t-78.5 150.5t-205.5 59.5l-142 5v238l127 7q120 5 193 60.5t73 141.5q0 80 -74 129.5t-190 49.5q-115 0 -189 -59t-82 -186h-286z" />
    <glyph glyph-name="four" unicode="4" horiz-adv-x="1343" 
d="M763 1481h294v-902h228v-251h-228v-328h-288l1 328h-682v245zM365 579h405v542z" />
    <glyph glyph-name="five" unicode="5" horiz-adv-x="1382" 
d="M245 1481h951l-11 -245h-704l-28 -357q84 46 157.5 66.5t161.5 20.5q149 0 265.5 -55t185.5 -165.5t69 -261.5q0 -234 -156 -370.5t-421 -136.5q-215 0 -384 97t-241 252l234 138q67 -117 152 -181.5t208 -64.5q133 0 214 70.5t81 184.5q0 108 -80 179.5t-205 71.5
q-73 0 -130.5 -20t-128.5 -76q-14 -6 -20 -6t-21 7l-217 100z" />
    <glyph glyph-name="six" unicode="6" horiz-adv-x="1352" 
d="M712 1501q140 0 257 -49.5t191.5 -148t81.5 -229.5h-273q-55 191 -251 191q-158 0 -237.5 -132.5t-57.5 -350.5q51 72 141 113.5t196 41.5q226 0 364.5 -124.5t138.5 -329.5q0 -220 -157.5 -363t-406.5 -143q-282 0 -445.5 200t-163.5 535q0 366 165.5 577.5t456.5 211.5
zM690 714q-94 0 -175 -60.5t-81 -128.5q-1 -147 69 -232.5t186 -85.5q108 0 182.5 74t74.5 188q0 118 -71.5 181.5t-184.5 63.5z" />
    <glyph glyph-name="seven" unicode="7" horiz-adv-x="1282" 
d="M88 1481h1106v-245q-181 -228 -343.5 -609t-170.5 -627h-323q9 99 42.5 232t93.5 298t161.5 352.5t227.5 353.5h-794v245z" />
    <glyph glyph-name="eight" unicode="8" horiz-adv-x="1374" 
d="M686 1501q235 0 384 -110.5t149 -306.5q0 -109 -59.5 -189.5t-157.5 -126.5q106 -23 194 -128.5t88 -228.5q0 -197 -164 -315t-434 -118q-269 0 -432.5 118t-163.5 315q0 123 88 228.5t194 128.5q-98 46 -158 126.5t-60 189.5q0 131 70.5 226.5t189.5 143t272 47.5z
M686 884q104 0 169.5 55.5t65.5 151.5q0 95 -66 151.5t-169 56.5q-102 0 -167.5 -56.5t-65.5 -151.5q0 -96 65 -151.5t168 -55.5zM686 204q130 0 205 58.5t75 156.5q0 99 -75.5 160.5t-204.5 61.5q-127 0 -202 -61.5t-75 -160.5q0 -98 74.5 -156.5t202.5 -58.5z" />
    <glyph glyph-name="nine" unicode="9" horiz-adv-x="1349" 
d="M634 -23q-139 0 -258.5 52.5t-196 152t-84.5 226.5h285q19 -88 83 -141t159 -53q170 0 261.5 121.5t73.5 375.5q-44 -84 -135 -132t-213 -48q-229 0 -372 127.5t-143 340.5q0 221 154 361.5t403 140.5q282 0 445.5 -197.5t163.5 -532.5q0 -391 -164.5 -592.5
t-461.5 -201.5zM660 769q94 0 175 59.5t81 128.5q1 148 -69 233t-187 85q-107 0 -175.5 -73t-68.5 -189q0 -114 66.5 -179t177.5 -65z" />
    <glyph glyph-name="colon" unicode=":" horiz-adv-x="551" 
d="M429 1033v-320h-328v320h328zM429 326v-320h-328v320h328z" />
    <glyph glyph-name="semicolon" unicode=";" horiz-adv-x="570" 
d="M117 703v326h327v-326h-327zM101 -316l135 316h-116v322h327v-285l-224 -353h-122z" />
    <glyph glyph-name="less" unicode="&#x3c;" horiz-adv-x="1182" 
d="M1063 470v-257l-944 366v247l944 369v-257l-616 -238z" />
    <glyph glyph-name="equal" unicode="=" horiz-adv-x="1205" 
d="M1086 1050v-219l-967 -1v219zM1086 581v-219h-967v219h967z" />
    <glyph glyph-name="greater" unicode="&#x3e;" horiz-adv-x="1182" 
d="M120 470l616 230l-617 238v257l945 -369v-247l-944 -366v257z" />
    <glyph glyph-name="question" unicode="?" horiz-adv-x="1094" 
d="M23 1165q65 162 199.5 249t321.5 87q216 0 351.5 -100t135.5 -248q0 -68 -22 -126.5t-56.5 -102t-77 -84t-84.5 -80t-76.5 -81.5t-56.5 -97.5t-22 -118.5h-241q0 77 18.5 145t48.5 117.5t66 94.5t72.5 83t66.5 74t48.5 77t18.5 84q0 72 -54 115t-138 43t-158.5 -52.5
t-107.5 -139.5zM679 319v-319h-328v319h328z" />
    <glyph glyph-name="at" unicode="@" horiz-adv-x="1694" 
d="M1353 -71q-83 -68 -212.5 -111t-282.5 -43q-179 0 -327.5 58.5t-247 160t-152 237.5t-53.5 290q0 161 58 306.5t162.5 254.5t259.5 173t339 64q111 0 213.5 -23t195.5 -73.5t161.5 -124t109 -182t40.5 -239.5q0 -228 -110 -371.5t-283 -143.5q-147 0 -193 95
q-8 11 -12 11t-13 -11q-102 -124 -267 -124q-130 0 -216.5 98t-85.5 255q0 123 49 228t142.5 169.5t212.5 64.5q77 0 127 -26.5t90 -75.5q4 -5 9 -3.5t6 10.5l11 44h172l-73 -440q-11 -69 5 -97.5t56 -28.5q78 0 135.5 88.5t57.5 245.5q0 107 -30.5 192t-81 140t-121 91
t-146.5 51.5t-161 15.5q-128 0 -233.5 -33t-179 -91t-124 -138t-74.5 -172.5t-24 -196.5q0 -277 167.5 -436t461.5 -159q66 0 119.5 8.5t99.5 28t76 37t76 48.5zM649 507q0 -85 37 -139t106 -54q85 0 146.5 72.5t68.5 167.5q7 94 -36.5 154.5t-114.5 60.5q-87 0 -147 -76
t-60 -186z" />
    <glyph glyph-name="A" unicode="A" horiz-adv-x="1487" 
d="M56 0l530 1481h316l530 -1481h-298l-121 343h-534l-123 -343h-300zM547 604h393l-196 589z" />
    <glyph glyph-name="B" unicode="B" horiz-adv-x="1401" 
d="M166 0v1481h536q288 0 430.5 -99t142.5 -289q0 -115 -58.5 -195t-198.5 -139q71 -19 124.5 -49.5t85 -65t50.5 -77.5t25.5 -82t6.5 -84q0 -206 -140.5 -303.5t-442.5 -97.5h-561zM464 868h286q100 0 168 47t68 139q0 93 -70.5 144t-186.5 51h-265v-381zM464 231h269
q132 0 203 53.5t71 146.5q0 95 -71.5 147.5t-185.5 52.5h-286v-400z" />
    <glyph glyph-name="C" unicode="C" horiz-adv-x="1470" 
d="M769 1501q247 0 413.5 -144.5t189.5 -366.5h-313q-22 121 -98.5 193t-200.5 72q-162 0 -247.5 -120.5t-85.5 -385.5q0 -524 333 -524q122 0 199 81t100 206h313q-14 -113 -51.5 -203.5t-106 -167t-181.5 -119t-264 -42.5q-309 0 -490 211t-181 562q0 349 179 548.5
t492 199.5z" />
    <glyph glyph-name="D" unicode="D" horiz-adv-x="1474" 
d="M166 1481q357 0 442 -2q199 -5 347 -57t240 -148t136.5 -227t44.5 -299q0 -355 -195 -551.5t-583 -196.5h-432v1481zM467 1239v-997h137q99 0 179.5 27.5t145 86t100 158.5t35.5 236q0 251 -118.5 370t-337.5 119h-141z" />
    <glyph glyph-name="E" unicode="E" horiz-adv-x="1299" 
d="M166 0v1481h1017l-1 -252h-716v-360h621v-246h-623v-368l729 -1v-254h-1027z" />
    <glyph glyph-name="F" unicode="F" horiz-adv-x="1256" 
d="M166 1481h1008l-2 -250h-705v-372h611v-245h-611v-614h-301v1481z" />
    <glyph glyph-name="G" unicode="G" horiz-adv-x="1554" 
d="M765 -20q-306 0 -486.5 204.5t-180.5 551.5q0 351 187 558t496 207q128 0 240.5 -43t190 -114t124 -163.5t50.5 -190.5h-315q-22 111 -101 184.5t-196 73.5q-76 0 -138.5 -28.5t-110.5 -87.5t-74.5 -157.5t-26.5 -230.5q0 -114 20 -202t53.5 -143.5t81.5 -91.5t98 -50
t109 -14q122 0 200.5 73.5t91.5 162.5l12 90h-307v207l620 -3v-773h-204v194q-34 -44 -68.5 -77t-86 -67t-122.5 -52t-157 -18z" />
    <glyph glyph-name="H" unicode="H" horiz-adv-x="1576" 
d="M1112 636h-648v-636h-298v1481h298v-594h648v594h299v-1481h-299v636z" />
    <glyph glyph-name="I" unicode="I" horiz-adv-x="629" 
d="M166 1481h298v-1481h-298v1481z" />
    <glyph glyph-name="J" unicode="J" horiz-adv-x="823" 
d="M690 412q0 -112 -16.5 -188t-58 -133.5t-116.5 -84t-188 -26.5q-130 0 -255 32l6 274q9 -2 31.5 -8t38 -9.5t39 -6.5t45.5 -3q100 0 137.5 53t37.5 180v989h299v-1069z" />
    <glyph glyph-name="K" unicode="K" horiz-adv-x="1468" 
d="M1413 0h-326l-392 689l-219 -264v-425h-310v1481h310v-678l540 678h343l-450 -574z" />
    <glyph glyph-name="L" unicode="L" horiz-adv-x="1182" 
d="M166 1481h301v-1228h643v-253h-944v1481z" />
    <glyph glyph-name="M" unicode="M" horiz-adv-x="1879" 
d="M166 0v1481h434l339 -1056l342 1056h433v-1481h-302v1133l-356 -1133h-235l-354 1127v-1127h-301z" />
    <glyph glyph-name="N" unicode="N" horiz-adv-x="1601" 
d="M1138 1481h299v-1481h-270l-703 1019v-1019h-298v1481h296l676 -980v980z" />
    <glyph glyph-name="O" unicode="O" horiz-adv-x="1557" 
d="M781 -20q-316 0 -499.5 202.5t-183.5 554.5q0 353 185.5 558.5t497.5 205.5q311 0 494.5 -205t183.5 -559q0 -351 -182.5 -554t-495.5 -203zM781 225q169 0 261.5 123t92.5 385q0 268 -93 395t-261 127t-261.5 -127.5t-93.5 -394.5q0 -261 93.5 -384.5t261.5 -123.5z" />
    <glyph glyph-name="P" unicode="P" horiz-adv-x="1336" 
d="M166 0v1481h545q163 0 290 -55.5t201.5 -166.5t74.5 -264q0 -219 -143 -343t-384 -124h-283v-528h-301zM464 760h277q112 0 184 72t72 179q0 108 -74.5 174t-185.5 66h-273v-491z" />
    <glyph glyph-name="Q" unicode="Q" horiz-adv-x="1583" 
d="M98 737q0 354 185 559t497 205q313 0 497 -204.5t184 -559.5q0 -408 -247 -613q24 -61 90.5 -97.5t150.5 -38.5v-240q-81 0 -141 8.5t-125.5 33t-124.5 75.5t-115 129q-98 -14 -169 -14q-315 0 -498.5 201.5t-183.5 555.5zM427 733q0 -264 90 -386t263 -122
q174 0 264.5 122t90.5 387q0 521 -355 521q-353 0 -353 -522z" />
    <glyph glyph-name="R" unicode="R" horiz-adv-x="1425" 
d="M1315 0h-310l-241 570h-300v-570h-298v1481h625q256 0 382 -119.5t126 -323.5q0 -84 -20.5 -153t-58 -118t-81.5 -83.5t-100 -62.5zM737 801q119 0 189.5 63.5t70.5 166.5q0 100 -67 160.5t-171 60.5h-295v-451h273z" />
    <glyph glyph-name="S" unicode="S" horiz-adv-x="1420" 
d="M722 -20q-112 0 -216.5 28t-191.5 81.5t-144 139.5t-68 194h307q22 -99 106 -154t206 -55q130 0 214.5 48t84.5 138q0 78 -65.5 121t-185.5 67l-256 52q-172 33 -269 136.5t-99 269.5q-1 136 74.5 240t205 158.5t290.5 54.5q140 0 252.5 -34.5t185.5 -95.5t112 -142
t41 -176h-300q-22 211 -286 211q-119 0 -190 -50t-71 -132q0 -67 44.5 -106t159.5 -64l253 -52q404 -78 404 -456q0 -182 -166.5 -302t-431.5 -120z" />
    <glyph glyph-name="T" unicode="T" horiz-adv-x="1261" 
d="M39 1214v267h1185v-267h-438v-1214h-300v1214h-447z" />
    <glyph glyph-name="U" unicode="U" horiz-adv-x="1482" 
d="M1351 564q0 -138 -32.5 -243t-102 -183t-184.5 -118t-274 -40q-160 0 -275 40.5t-184 119t-101 185.5t-32 249v907h304v-929q0 -160 77 -239.5t211 -79.5t212.5 79t78.5 240v929h302v-917z" />
    <glyph glyph-name="V" unicode="V" horiz-adv-x="1440" 
d="M1402 1481l-512 -1481h-339l-512 1481h286l396 -1134l394 1134h287z" />
    <glyph glyph-name="W" unicode="W" horiz-adv-x="1983" 
d="M1945 1481l-438 -1481h-238l-279 968l-280 -968h-235l-436 1481h293l275 -978l276 978h216l278 -978l276 978h292z" />
    <glyph glyph-name="X" unicode="X" horiz-adv-x="1468" 
d="M1412 0h-373l-333 535l-328 -535h-322l493 752l-477 729h369l296 -480l293 480h318l-457 -690z" />
    <glyph glyph-name="Y" unicode="Y" horiz-adv-x="1367" 
d="M1348 1481l-515 -858v-623h-299v624l-515 857h324l341 -600l337 600h327z" />
    <glyph glyph-name="Z" unicode="Z" horiz-adv-x="1371" 
d="M111 0v145l751 1086h-701v250h1127v-140l-762 -1088h754v-253h-1169z" />
    <glyph glyph-name="bracketleft" unicode="[" horiz-adv-x="690" 
d="M152 1481h470v-169h-225v-1472h224v-170h-468z" />
    <glyph glyph-name="backslash" unicode="\" horiz-adv-x="780" 
d="M541 -38l-517 1519h208l518 -1519h-209z" />
    <glyph glyph-name="bracketright" unicode="]" horiz-adv-x="690" 
d="M539 1481l-1 -1811h-468v170h224l-1 1472h-223v169h469z" />
    <glyph glyph-name="asciicircum" unicode="^" horiz-adv-x="991" 
d="M697 251l-212 523l-213 -522h-201l318 754q19 45 57.5 63t77.5 1.5t59 -63.5l317 -756h-203z" />
    <glyph glyph-name="underscore" unicode="_" horiz-adv-x="1132" 
d="M1007 -66v-217h-888v216z" />
    <glyph glyph-name="grave" unicode="`" horiz-adv-x="540" 
d="M319 1481l211 -298h-216l-303 298h308z" />
    <glyph glyph-name="a" unicode="a" horiz-adv-x="1160" 
d="M442 -20q-156 0 -256.5 86t-100.5 237q0 176 132 266t409 93l133 2v63q0 152 -175 151q-72 -1 -128 -34t-77 -101h-249q8 166 134.5 251t333.5 85q235 0 341.5 -86t106.5 -249v-744h-250l-25 182q-53 -111 -132.5 -156.5t-196.5 -45.5zM544 176q81 0 147.5 54.5
t67.5 122.5v157l-108 -2q-125 -2 -203.5 -43.5t-78.5 -131.5q0 -72 49.5 -114.5t125.5 -42.5z" />
    <glyph glyph-name="b" unicode="b" horiz-adv-x="1246" 
d="M718 -20q-75 0 -135 20t-99.5 55.5t-64.5 74.5t-40 87l-34 -217h-217v1522h300v-607q40 71 124.5 117.5t193.5 46.5q198 0 310 -143t112 -400t-116.5 -406.5t-333.5 -149.5zM652 195q103 0 164 84t61 261q0 161 -60 241.5t-167 80.5q-112 0 -166.5 -79.5t-55.5 -242.5
q0 -184 54 -264.5t170 -80.5z" />
    <glyph glyph-name="c" unicode="c" horiz-adv-x="1120" 
d="M589 1079q193 0 313.5 -115t132.5 -291h-249q-11 72 -60.5 125.5t-134.5 53.5q-108 0 -171.5 -83t-63.5 -242q0 -156 64 -246t177 -90q82 0 132 56t61 123h242q-10 -168 -131.5 -279t-311.5 -111q-225 0 -368 147.5t-143 397.5q0 248 140.5 401t370.5 153z" />
    <glyph glyph-name="d" unicode="d" horiz-adv-x="1246" 
d="M528 -20q-213 0 -331.5 146.5t-118.5 409.5q0 252 110 397.5t311 145.5q109 0 194 -46.5t125 -117.5v607h300v-1522h-217l-34 217q-15 -48 -40 -87t-64.5 -74.5t-99.5 -55.5t-135 -20zM594 195q115 0 169.5 80.5t54.5 264.5q-3 322 -222 322q-104 0 -165 -78t-61 -244
q0 -172 59 -258.5t165 -86.5z" />
    <glyph glyph-name="e" unicode="e" horiz-adv-x="1180" 
d="M381 461q-1 -122 59 -193.5t167 -71.5q171 0 215 140h270q-17 -109 -90.5 -191.5t-174.5 -123.5t-213 -41q-237 0 -383 146t-146 391q0 160 60 286.5t178 201t276 74.5q237 0 365.5 -146.5t128.5 -390.5v-81h-712zM381 639h432q0 101 -55.5 166t-159.5 65q-98 0 -158 -69
t-59 -162z" />
    <glyph glyph-name="f" unicode="f" horiz-adv-x="812" 
d="M770 1059v-208h-223v-851h-300v851h-196v208h196v152q0 128 76 199t213 71h242l2 -199h-140q-56 0 -77.5 -27.5t-21.5 -93.5v-102h229z" />
    <glyph glyph-name="g" unicode="g" horiz-adv-x="1287" 
d="M620 -350q-277 0 -427 70t-150 190q0 40 19 74t48.5 56t56.5 36t54 23.5t28 10.5q-1 1 -20 11t-29 16t-28 20.5t-27.5 28.5t-17.5 35.5t-8 45.5q0 59 56 105.5t161 65.5q-102 47 -158 130t-56 175q0 102 65.5 178t178.5 115t258 39q101 0 171.5 -21t136.5 -62
q227 90 311 125l-2 -231l-182 -30q22 -60 22 -112q0 -147 -126.5 -248.5t-352.5 -101.5q-68 0 -104 4q-106 -5 -106 -44q0 -24 40 -32t146 -14q19 -1 94 -5.5t126 -7.5q189 -12 287.5 -93t98.5 -210q0 -155 -145 -248.5t-419 -93.5zM611 561q86 0 137 46.5t51 126.5
q0 83 -51.5 133.5t-136.5 50.5t-137 -50.5t-52 -133.5q0 -79 50.5 -126t138.5 -47zM668 -183q122 0 176.5 29.5t54.5 88.5q0 48 -42 78.5t-119 35.5l-242 17q-70 4 -115 -32.5t-45 -88.5q0 -66 80.5 -97t251.5 -31z" />
    <glyph glyph-name="h" unicode="h" horiz-adv-x="1213" 
d="M128 0v1522h297v-616q111 159 304 159q158 0 264 -90.5t106 -245.5v-729h-300v685q0 70 -50.5 109.5t-126.5 39.5q-79 0 -137 -42t-58 -116v-676h-299z" />
    <glyph glyph-name="i" unicode="i" horiz-adv-x="546" 
d="M419 1480v-270h-291v270h291zM417 1059v-1059h-286v1059h286z" />
    <glyph glyph-name="j" unicode="j" horiz-adv-x="590" 
d="M463 1480v-270h-305v270h305zM460 7q0 -176 -85.5 -261.5t-271.5 -85.5q-49 0 -83 7.5t-43 14.5l-9 8l-1 199l82 9q63 8 88 33.5t25 78.5v1049h298v-1052z" />
    <glyph glyph-name="k" unicode="k" horiz-adv-x="1186" 
d="M1151 0h-298l-286 457l-140 -150v-307h-299v1522h299v-902l389 439h322l-385 -422z" />
    <glyph glyph-name="l" unicode="l" horiz-adv-x="673" 
d="M466 -18q-90 0 -155 19t-99.5 47t-54 73t-24.5 83.5t-5 92.5v1225h293v-1188q0 -62 27 -97t93 -42l50 -4v-184q-73 -25 -125 -25z" />
    <glyph glyph-name="m" unicode="m" horiz-adv-x="1833" 
d="M128 0v1059h293v-150q115 170 335 170q86 0 169 -45t128 -125q55 76 138.5 123t181.5 47q50 0 97 -12t93 -40.5t80 -70.5t55 -108.5t21 -149.5v-698h-299v662q0 89 -49 131.5t-121 42.5q-69 0 -124 -40t-55 -118v-678h-298v688q0 68 -51.5 108t-116.5 40
q-69 0 -123.5 -42t-54.5 -116v-678h-299z" />
    <glyph glyph-name="n" unicode="n" horiz-adv-x="1214" 
d="M128 0v1059h294v-150q99 159 307 159q75 0 140 -21.5t117.5 -64.5t83 -116t30.5 -168v-698h-299v662q0 83 -49.5 127.5t-126.5 44.5q-80 0 -139 -41.5t-59 -114.5v-678h-299z" />
    <glyph glyph-name="o" unicode="o" horiz-adv-x="1178" 
d="M590 -20q-234 0 -373 146.5t-139 396.5q0 252 139.5 404t373.5 152t372.5 -151t138.5 -405q0 -243 -137 -393t-375 -150zM591 202q75 0 125.5 47t71.5 119t21 166q0 67 -11 122.5t-35.5 102.5t-68 73.5t-103.5 26.5q-58 0 -101.5 -25t-69 -70t-38 -102.5t-12.5 -127.5
q0 -66 11.5 -122.5t36 -105t69 -76.5t104.5 -28z" />
    <glyph glyph-name="p" unicode="p" horiz-adv-x="1243" 
d="M128 -330v1389h300l1 -153q51 77 138 125t191 48q186 0 296.5 -136.5t110.5 -404.5q0 -277 -119.5 -417.5t-317.5 -140.5q-97 0 -176 50t-125 129v-489h-299zM656 199q103 0 166.5 84.5t63.5 252.5q0 151 -63 238.5t-167 87.5q-112 0 -170.5 -90t-58.5 -236
q0 -92 24 -166.5t77 -122.5t128 -48z" />
    <glyph glyph-name="q" unicode="q" horiz-adv-x="1243" 
d="M1115 -330h-299v489q-46 -79 -125 -129t-176 -50q-92 0 -169.5 32t-138.5 97t-95 174.5t-34 254.5q0 263 108.5 402t298.5 139q104 0 191 -48t138 -125l2 153h299v-1389zM587 199q75 0 128.5 48t77.5 122.5t24 166.5q0 146 -58.5 236t-171.5 90q-101 0 -165.5 -85
t-64.5 -241q0 -163 62.5 -250t167.5 -87z" />
    <glyph glyph-name="r" unicode="r" horiz-adv-x="843" 
d="M128 0v1059h288v-251q38 125 126 198t210 73q34 0 46 -6v-285q-14 6 -45 8q-169 14 -247.5 -44.5t-78.5 -171.5v-580h-299z" />
    <glyph glyph-name="s" unicode="s" horiz-adv-x="1080" 
d="M554 -20q-86 0 -163 20.5t-142.5 62t-110.5 111t-59 160.5h258q13 -53 50 -88.5t79 -48.5t87 -13q89 0 140 28t51 83q0 43 -31.5 68.5t-102.5 38.5l-186 39q-311 65 -312 303q-1 148 116 241.5t328 93.5q197 0 313.5 -87t118.5 -241h-250q-11 61 -60.5 94.5t-125.5 33.5
q-80 0 -128.5 -29t-48.5 -83q0 -41 39.5 -65.5t128.5 -42.5l172 -38q68 -17 120 -45.5t82.5 -60.5t50 -70t26 -70t6.5 -64q0 -156 -122 -243.5t-324 -87.5z" />
    <glyph glyph-name="t" unicode="t" horiz-adv-x="852" 
d="M767 851h-236l3 -564q0 -55 20.5 -71.5t73.5 -16.5h142v-185q-60 -25 -185 -25q-102 0 -172.5 20t-109 59.5t-54.5 88.5t-16 117v577h-172v208h182l75 319h213v-318h236v-209z" />
    <glyph glyph-name="u" unicode="u" horiz-adv-x="1218" 
d="M518 -20q-74 0 -145 23.5t-129 65.5t-93.5 109.5t-35.5 148.5v732h299v-694q0 -76 49 -122t140 -46q89 0 140.5 45.5t51.5 127.5v689h296v-1059h-226l-35 210q-14 -66 -46.5 -113.5t-77.5 -72t-91 -34.5t-97 -10z" />
    <glyph glyph-name="v" unicode="v" horiz-adv-x="1065" 
d="M1039 1059l-397 -1059h-217l-397 1059h270l231 -675h9l228 675h273z" />
    <glyph glyph-name="w" unicode="w" horiz-adv-x="1623" 
d="M1589 1059l-348 -1059h-239l-196 641l-198 -641h-231l-343 1059h265l203 -657h7l194 657h215l196 -657h8l197 657h270z" />
    <glyph glyph-name="x" unicode="x" horiz-adv-x="1204" 
d="M1168 0h-313l-253 345l-253 -345h-313l406 552l-371 507h313l220 -297l219 297h313l-375 -507z" />
    <glyph glyph-name="y" unicode="y" horiz-adv-x="1153" 
d="M294 -338q-64 0 -114 9t-68 18l-17 9v190l106 -4q52 -3 92 4.5t60.5 17t37 29t19.5 27t10 24.5l19 58l-411 1015h296l254 -690l256 690h292l-429 -1065q-41 -99 -86 -165.5t-96 -102t-103 -50t-118 -14.5z" />
    <glyph glyph-name="z" unicode="z" horiz-adv-x="1016" 
d="M65 0v167l522 683h-496v209h858v-167l-523 -683h526v-209h-887z" />
    <glyph glyph-name="braceleft" unicode="{" horiz-adv-x="787" 
d="M256 1239q0 77 46.5 133.5t116.5 82.5t150 26h149v-169h-89q-80 0 -103.5 -27t-23.5 -80v-405q-3 -98 -66 -149t-149 -60q-8 -1 -11 -3.5t-0.5 -5.5t11.5 -4q40 -3 74 -15t67 -35.5t53 -67t21 -103.5v-409q0 -58 27.5 -83t99.5 -25h89v-170h-144q-84 0 -154.5 26.5
t-117 83.5t-46.5 135v417q0 77 -58 127t-173 50v150q120 1 175.5 47.5t55.5 138.5v394z" />
    <glyph glyph-name="bar" unicode="|" horiz-adv-x="549" 
d="M384 -330h-218v2022h218v-2022z" />
    <glyph glyph-name="braceright" unicode="}" horiz-adv-x="786" 
d="M492 1239v-394q0 -92 55.5 -138.5t175.5 -47.5v-150q-115 0 -173 -50t-58 -127v-417q0 -116 -94 -180.5t-225 -64.5h-143v170h89q72 0 99.5 25t27.5 83v409q2 60 22 103.5t53 67t67 35.5t74 15q9 1 11.5 4t-0.5 5.5t-11 3.5q-39 4 -74.5 17t-68 37t-52 64t-21.5 91v405
q0 53 -23.5 80t-103.5 27h-89v169h148q80 0 150 -26t117 -82.5t47 -133.5z" />
    <glyph glyph-name="asciitilde" unicode="~" horiz-adv-x="1253" 
d="M1123 773q-50 -89 -129.5 -137t-170.5 -48q-55 0 -110.5 19.5t-93 43.5t-87.5 43.5t-95 19.5q-49 0 -95 -24t-72.5 -49t-68.5 -73l-85 151q89 92 160.5 137.5t162.5 45.5q56 0 111 -19.5t92 -43.5t85 -43.5t91 -19.5q129 0 218 146z" />
    <glyph glyph-name="uni00A0" unicode="&#xa0;" horiz-adv-x="461" 
 />
    <glyph glyph-name="exclamdown" unicode="&#xa1;" horiz-adv-x="578" 
d="M441 739h-326v320h326v-320zM455 -330h-352l84 930h187z" />
    <glyph glyph-name="cent" unicode="&#xa2;" horiz-adv-x="1148" 
d="M714 0h-198v215q-185 32 -298 175t-113 363q0 218 111 365t300 180v183h198v-183q153 -29 245.5 -137.5t103.5 -260.5h-249q-11 73 -60 126t-134 53q-109 0 -172.5 -82.5t-63.5 -241.5q0 -156 64 -246t177 -90q43 0 79 17t58.5 45t36 57t18.5 59h243q-8 -144 -101.5 -249
t-244.5 -133v-215z" />
    <glyph glyph-name="sterling" unicode="&#xa3;" horiz-adv-x="1327" 
d="M42 0v248h70q80 0 127.5 51.5t47.5 159.5q0 70 -22 234h-209v166h175l-20 185q-15 107 17.5 195.5t99 144.5t155.5 86.5t190 30.5q166 0 292.5 -78t185.5 -216l-260 -80q-34 74 -72.5 105.5t-100.5 31.5q-74 0 -120.5 -46t-46.5 -127q0 -71 33 -231h300v-166h-277
q11 -140 -5 -216q-10 -81 -38.5 -130.5t-80.5 -97.5h276q98 0 148 36t83 128l253 -56q-99 -358 -462 -358h-739z" />
    <glyph glyph-name="currency" unicode="&#xa4;" horiz-adv-x="1183" 
d="M588 301q-125 0 -233 64q-17 11 -31 -4l-122 -121l-125 129l135 133q-72 114 -72 242q0 126 62 226q9 19 -3 31l-121 121l125 130l137 -138q116 75 241 75q127 0 235 -67q14 -8 24 2l113 115l125 -128l-125 -124q74 -115 74 -242q0 -132 -68 -232q-6 -9 0 -16l120 -116
l-125 -128l-124 124q-120 -76 -242 -76zM585 499q104 0 174.5 72.5t70.5 173.5q0 100 -70.5 173.5t-174.5 73.5q-103 0 -175 -74t-72 -173q0 -100 71.5 -173t175.5 -73z" />
    <glyph glyph-name="yen" unicode="&#xa5;" horiz-adv-x="1349" 
d="M1157 392v-162h-306v-230h-340v229h-305v162h305v159h-305v163h248l-465 768h387l337 -593l334 593h314l-473 -768l269 1v-164h-306v-159z" />
    <glyph glyph-name="brokenbar" unicode="&#xa6;" horiz-adv-x="549" 
d="M384 857h-218v835h218v-835zM384 -330h-218v836h218v-836z" />
    <glyph glyph-name="section" unicode="&#xa7;" horiz-adv-x="1049" 
d="M527 -159q-168 0 -294.5 68.5t-175.5 169.5l184 92q106 -147 281 -147q84 0 134.5 28.5t50.5 82.5q0 43 -35.5 77.5t-125.5 68.5l-157 58q-165 62 -237.5 137.5t-72.5 190.5q0 92 47.5 160.5t132.5 107.5q-91 55 -128.5 115t-37.5 136q0 137 112.5 226t300.5 89
q149 0 265 -65.5t165 -159.5l-184 -90q-53 61 -109 97t-128 36t-114 -29t-42 -77q0 -66 115 -111l160 -62q174 -67 249.5 -145t75.5 -196q0 -171 -166 -266q94 -53 136.5 -114.5t42.5 -145.5q0 -150 -117 -241t-328 -91zM582 527q61 -6 99.5 33.5t33.5 97.5q-5 46 -40 81
t-117 66l-91 36q-67 -5 -106.5 -42.5t-39.5 -88.5q0 -46 31.5 -75.5t127.5 -66.5z" />
    <glyph glyph-name="dieresis" unicode="&#xa8;" horiz-adv-x="780" 
d="M487 1212l3 244h280l-2 -244h-281zM10 1212l3 244h280l-2 -244h-281z" />
    <glyph glyph-name="copyright" unicode="&#xa9;" horiz-adv-x="1700" 
d="M843 -20q-155 0 -295.5 60t-242.5 161.5t-162 242.5t-60 297q0 154 60 294.5t162 242.5t242.5 162.5t295.5 60.5t296 -60.5t243 -162.5t162.5 -242.5t60.5 -294.5q0 -156 -60.5 -297.5t-162.5 -242.5t-243 -161t-296 -60zM843 146q254 0 416.5 163t162.5 432
q0 266 -163 431t-416 165q-256 0 -417.5 -164.5t-161.5 -431.5q0 -270 160.5 -432.5t418.5 -162.5zM849 1169q72 0 134 -23t105 -62t72.5 -84.5t45.5 -95.5l-208 -23q-23 61 -55 96.5t-87 35.5q-80 0 -127.5 -69t-47.5 -198q0 -134 49.5 -201.5t137.5 -67.5q66 0 110 37
t79 106l149 -38q-11 -33 -29 -65.5t-49.5 -69t-69.5 -63.5t-92.5 -45t-116.5 -18q-180 0 -294.5 117t-114.5 304q0 189 115.5 308t293.5 119z" />
    <glyph glyph-name="ordfeminine" unicode="&#xaa;" horiz-adv-x="832" 
d="M304 813q-104 0 -161.5 50.5t-57.5 137.5q0 100 93 162t255 67l79 4v44q0 97 -108 97q-94 0 -136 -86l-167 37q40 89 111 131t200 42q152 -1 218.5 -55t66.5 -157v-257q0 -101 8 -144l14 -61h-192l-15 72q-58 -45 -103.5 -64.5t-104.5 -19.5zM378 935q60 0 101 36
q33 30 33 59v99l-66 -3q-81 -3 -126 -33t-45 -80q0 -35 28 -56.5t75 -21.5z" />
    <glyph glyph-name="guillemotleft" unicode="&#xab;" horiz-adv-x="1022" 
d="M728 514l166 -382h-158l-243 382l242 398h160zM338 514l166 -382h-158l-243 382l242 398h160z" />
    <glyph glyph-name="logicalnot" unicode="&#xac;" horiz-adv-x="1205" 
d="M1086 854v-527h-242l-1 309h-724v218h967z" />
    <glyph glyph-name="uni00AD" unicode="&#xad;" horiz-adv-x="804" 
d="M682 636v-217l-559 -1v218h559z" />
    <glyph glyph-name="registered" unicode="&#xae;" horiz-adv-x="1131" 
d="M560 549q-199 0 -338 138.5t-139 336.5t139 337.5t338 139.5q97 0 184.5 -37.5t151.5 -101.5t101.5 -152.5t37.5 -185.5t-37.5 -185t-101.5 -151.5t-151.5 -101t-184.5 -37.5zM560 668q156 0 250.5 97t94.5 259t-95 260t-250 98q-159 0 -253.5 -98t-94.5 -260
q0 -163 94.5 -259.5t253.5 -96.5zM368 785v472h221q86 0 133 -32t47 -93q0 -46 -26.5 -78.5t-68.5 -48.5l93 -220h-129l-72 207h-82v-207h-116zM484 1075h100q28 0 45.5 12.5t17.5 36.5t-18 38t-51 14h-94v-101z" />
    <glyph glyph-name="macron" unicode="&#xaf;" horiz-adv-x="804" 
d="M756 1425v-191h-720v191h720z" />
    <glyph glyph-name="degree" unicode="&#xb0;" horiz-adv-x="970" 
d="M821 1368q0 -150 -97.5 -246.5t-245.5 -96.5q-149 0 -245.5 96.5t-96.5 246.5t96.5 247.5t245.5 97.5q148 0 245.5 -97.5t97.5 -247.5zM641 1366q0 76 -45.5 124t-121.5 48q-75 0 -120.5 -48.5t-43.5 -123.5q2 -78 46.5 -125.5t119.5 -47.5t120 48t45 125z" />
    <glyph glyph-name="plusminus" unicode="&#xb1;" horiz-adv-x="1205" 
d="M713 437h-218v373h-376v218h376v376h218v-376l373 1v-218l-373 -1v-373zM1086 290v-216l-967 -1v217h967z" />
    <glyph glyph-name="uni00B2" unicode="&#xb2;" horiz-adv-x="802" 
d="M60 765v141q0 67 27 122t70 91.5t94.5 67t103.5 55.5t95 50.5t70 59.5t27 74q0 55 -39.5 90t-104.5 35q-72 0 -120 -41t-57 -121h-183q1 141 95.5 230.5t270.5 89.5q155 0 246 -77.5t91 -204.5q0 -67 -26 -120.5t-68 -88t-92.5 -62.5t-101 -50.5t-92.5 -45.5t-68 -55
t-26 -71v-7h473v-162h-685z" />
    <glyph glyph-name="uni00B3" unicode="&#xb3;" horiz-adv-x="870" 
d="M69 1409q0 144 98.5 222.5t256.5 78.5q163 0 262 -63t99 -187q0 -145 -167 -204q83 -24 136 -80t53 -145q0 -132 -110 -205t-278 -72t-261.5 81.5t-94.5 221.5h184q12 -76 58.5 -112.5t115.5 -36.5q85 0 134 35.5t49 93.5q0 57 -47.5 92.5t-129.5 37.5l-89 3v153l81 4
q73 3 118.5 37.5t45.5 87.5q0 49 -46 79.5t-116 30.5q-73 0 -119 -36.5t-50 -116.5h-183z" />
    <glyph glyph-name="acute" unicode="&#xb4;" horiz-adv-x="540" 
d="M221 1481h308l-304 -298h-215z" />
    <glyph glyph-name="uni00B5" unicode="&#xb5;" horiz-adv-x="1236" 
d="M115 -338v1423h306v-674q0 -62 48.5 -103.5t121.5 -41.5q66 0 119.5 38t88.5 105v676h310l-5 -1085h-299v168q-105 -105 -205 -120q-103 -15 -179 24v-410h-306z" />
    <glyph glyph-name="paragraph" unicode="&#xb6;" horiz-adv-x="1226" 
d="M1112 1312h-128v-1482h-183v1482h-119v-1482h-184v782q-182 13 -301 126.5t-119 302.5q0 90 31.5 169.5t90 140t150 95.5t204.5 35h558v-169z" />
    <glyph glyph-name="periodcentered" unicode="&#xb7;" horiz-adv-x="530" 
d="M408 893v-294h-307v294h307z" />
    <glyph glyph-name="cedilla" unicode="&#xb8;" horiz-adv-x="559" 
d="M511 -269q0 -75 -71.5 -120.5t-173.5 -45.5q-145 0 -235 55l41 100q78 -50 157 -50q49 0 76 17t27 47q0 41 -40.5 62t-133.5 22q-14 0 -17.5 3t0.5 16l75 173h133l-46 -120q107 -2 157.5 -49t50.5 -110z" />
    <glyph glyph-name="uni00B9" unicode="&#xb9;" horiz-adv-x="525" 
d="M209 762v695h-166v109q115 0 169.5 32t61.5 96h129v-932h-194z" />
    <glyph glyph-name="ordmasculine" unicode="&#xba;" horiz-adv-x="825" 
d="M413 1500q151 0 243.5 -96.5t92.5 -249.5q0 -150 -92.5 -245t-243.5 -95q-152 0 -243.5 94.5t-91.5 245.5q0 154 94 250t241 96zM413 1372q-137 0 -137 -213q0 -214 137 -214t137 214q0 213 -137 213z" />
    <glyph glyph-name="guillemotright" unicode="&#xbb;" horiz-adv-x="1046" 
d="M292 514l-167 398h159l241 -398l-241 -382h-158zM682 514l-169 398h161l241 -398l-241 -382h-160z" />
    <glyph glyph-name="onequarter" unicode="&#xbc;" horiz-adv-x="1701" 
d="M1403 1497l-995 -1505l-177 3l999 1502h173zM209 549v695h-166v109q115 0 169.5 32t61.5 96h129v-932h-194zM1328 934h188v-566h143v-160h-143v-206h-185l1 206h-427v156zM1082 368h250v333z" />
    <glyph glyph-name="onehalf" unicode="&#xbd;" horiz-adv-x="1846" 
d="M1403 1497l-995 -1505l-177 3l999 1502h173zM209 549v695h-166v109q115 0 169.5 32t61.5 96h129v-932h-194zM1103 -1v141q0 67 27 122t69.5 91.5t94.5 67t104 55.5t94.5 50.5t69.5 59.5t27 74q0 56 -38.5 90.5t-104.5 34.5q-71 0 -119 -41t-58 -121h-183
q0 141 94.5 230.5t270.5 89.5q156 0 247 -77t91 -204q0 -67 -26 -120.5t-68 -88t-92.5 -62.5t-100.5 -51t-92 -46t-68 -55t-26 -71v-7h473v-162h-686z" />
    <glyph glyph-name="threequarters" unicode="&#xbe;" horiz-adv-x="1965" 
d="M1666 1497l-995 -1505l-176 3l998 1502h173zM69 1194q0 144 98.5 222.5t256.5 78.5q163 0 262 -63t99 -187q0 -145 -167 -204q83 -24 136 -80t53 -145q0 -132 -110 -205t-278 -72t-261.5 81.5t-94.5 221.5h184q12 -76 58.5 -112.5t115.5 -36.5q85 0 134 35.5t49 93.5
q0 57 -47.5 92.5t-129.5 37.5l-89 3v153l81 4q73 3 118.5 37.5t45.5 87.5q0 49 -46 79.5t-116 30.5q-73 0 -119 -36.5t-50 -116.5h-183zM1590 934h189v-566h143v-160h-143v-206h-185l1 206h-427v156zM1346 368h249v333z" />
    <glyph glyph-name="questiondown" unicode="&#xbf;" horiz-adv-x="1113" 
d="M421 739v320h328v-320h-328zM1077 -12q-66 -163 -200.5 -250.5t-321.5 -87.5q-233 0 -359.5 98.5t-126.5 251.5q0 67 21.5 123t56.5 95t76.5 73.5t83.5 67t77 66.5t56.5 81t21.5 103h241q0 -80 -25 -148t-62.5 -112t-81.5 -87t-81.5 -76.5t-62.5 -78t-25 -92.5
q0 -68 54.5 -110.5t138.5 -42.5t158 51.5t106 134.5z" />
    <glyph glyph-name="Agrave" unicode="&#xc0;" horiz-adv-x="1487" 
d="M635 1903l211 -298h-215l-304 298h308zM56 0l530 1481h316l530 -1481h-298l-121 343h-534l-123 -343h-300zM547 604h393l-196 589z" />
    <glyph glyph-name="Aacute" unicode="&#xc1;" horiz-adv-x="1487" 
d="M847 1903h308l-304 -298h-215zM56 0l530 1481h316l530 -1481h-298l-121 343h-534l-123 -343h-300zM547 604h393l-196 589z" />
    <glyph glyph-name="Acircumflex" unicode="&#xc2;" horiz-adv-x="1487" 
d="M877 1605l-136 143l-149 -143h-222l271 265h206l263 -265h-233zM56 0l530 1481h316l530 -1481h-298l-121 343h-534l-123 -343h-300zM547 604h393l-196 589z" />
    <glyph glyph-name="Atilde" unicode="&#xc3;" horiz-adv-x="1487" 
d="M1103 1722q-85 -71 -207 -71q-58 0 -150 28t-143 28q-49 0 -83.5 -15t-77.5 -51l-46 157q43 44 88.5 68.5t108.5 24.5q61 0 160.5 -31t142.5 -31q77 0 170 71zM56 0l530 1481h316l530 -1481h-298l-121 343h-534l-123 -343h-300zM547 604h393l-196 589z" />
    <glyph glyph-name="Adieresis" unicode="&#xc4;" horiz-adv-x="1487" 
d="M842 1634l3 244h279l-3 -244h-279zM365 1634l3 244h279l-3 -244h-279zM56 0l530 1481h316l530 -1481h-298l-121 343h-534l-123 -343h-300zM547 604h393l-196 589z" />
    <glyph glyph-name="Aring" unicode="&#xc5;" horiz-adv-x="1487" 
d="M968 1806q0 -93 -65.5 -157.5t-158.5 -64.5q-94 0 -158 65.5t-64 160.5q0 90 65 152.5t157 62.5q93 0 158.5 -64t65.5 -155zM844 1805q0 43 -29.5 72.5t-72.5 29.5q-42 0 -73 -29.5t-31 -72.5q0 -41 31.5 -72.5t72.5 -31.5q42 0 72 31t30 73zM56 0l530 1481h316
l530 -1481h-298l-121 343h-534l-123 -343h-300zM547 604h393l-196 589z" />
    <glyph glyph-name="AE" unicode="&#xc6;" horiz-adv-x="2129" 
d="M2023 250v-250h-1064v346h-477l-182 -346h-300l793 1481h1209l-1 -249h-702v-364h608v-245h-608v-373h724zM959 604v681l-364 -681h364z" />
    <glyph glyph-name="Ccedilla" unicode="&#xc7;" horiz-adv-x="1470" 
d="M1007 -269q0 -75 -71.5 -120.5t-173.5 -45.5q-146 0 -236 55l41 100q78 -50 158 -50q49 0 75.5 17t26.5 47q0 41 -40.5 62t-133.5 22q-14 0 -17 3t1 16l63 146q-280 25 -441 232.5t-161 537.5q0 349 179 548.5t492 199.5q247 0 413.5 -144.5t189.5 -366.5h-313
q-22 121 -98.5 193t-200.5 72q-162 0 -247.5 -120.5t-85.5 -385.5q0 -524 333 -524q122 0 199 81t100 206h313q-11 -84 -33.5 -155.5t-65 -138.5t-101 -115.5t-145 -81t-193.5 -39.5l-35 -92q107 -2 157.5 -49t50.5 -110z" />
    <glyph glyph-name="Egrave" unicode="&#xc8;" horiz-adv-x="1299" 
d="M566 1903l211 -298h-215l-304 298h308zM166 0v1481h1017l-1 -252h-716v-360h621v-246h-623v-368l729 -1v-254h-1027z" />
    <glyph glyph-name="Eacute" unicode="&#xc9;" horiz-adv-x="1299" 
d="M778 1903h308l-304 -298h-215zM166 0v1481h1017l-1 -252h-716v-360h621v-246h-623v-368l729 -1v-254h-1027z" />
    <glyph glyph-name="Ecircumflex" unicode="&#xca;" horiz-adv-x="1299" 
d="M809 1605l-134 143l-151 -143h-221l270 265h206l264 -265h-234zM166 0v1481h1017l-1 -252h-716v-360h621v-246h-623v-368l729 -1v-254h-1027z" />
    <glyph glyph-name="Edieresis" unicode="&#xcb;" horiz-adv-x="1299" 
d="M773 1634l3 244h280l-3 -244h-280zM296 1634l3 244h280l-4 -244h-279zM166 0v1481h1017l-1 -252h-716v-360h621v-246h-623v-368l729 -1v-254h-1027z" />
    <glyph glyph-name="Igrave" unicode="&#xcc;" horiz-adv-x="629" 
d="M207 1903l211 -298h-215l-304 298h308zM166 1481h298v-1481h-298v1481z" />
    <glyph glyph-name="Iacute" unicode="&#xcd;" horiz-adv-x="629" 
d="M419 1903h307l-303 -298h-215zM166 1481h298v-1481h-298v1481z" />
    <glyph glyph-name="Icircumflex" unicode="&#xce;" horiz-adv-x="629" 
d="M450 1605l-136 143l-149 -143h-221l270 265h206l264 -265h-234zM166 1481h298v-1481h-298v1481z" />
    <glyph glyph-name="Idieresis" unicode="&#xcf;" horiz-adv-x="629" 
d="M414 1634l2 244h280l-3 -244h-279zM-63 1634l2 244h280l-3 -244h-279zM166 1481h298v-1481h-298v1481z" />
    <glyph glyph-name="Eth" unicode="&#xd0;" horiz-adv-x="1533" 
d="M224 1481q359 0 444 -2q199 -5 347 -57t240 -148t136.5 -227t44.5 -299q0 -355 -195.5 -551.5t-583.5 -196.5h-433v627h-152v218h152v636zM823 845v-218h-297v-385h138q99 0 179.5 27.5t144.5 86t99 158.5t35 236q0 489 -454 489h-142v-394h297z" />
    <glyph glyph-name="Ntilde" unicode="&#xd1;" horiz-adv-x="1601" 
d="M1159 1722q-85 -71 -207 -71q-59 0 -151 28t-143 28q-48 0 -82.5 -15t-77.5 -51l-45 157q43 45 87.5 69t108.5 24q60 0 159.5 -31t142.5 -31q76 0 171 71zM1138 1481h299v-1481h-270l-703 1019v-1019h-298v1481h296l676 -980v980z" />
    <glyph glyph-name="Ograve" unicode="&#xd2;" horiz-adv-x="1557" 
d="M671 1903l211 -298h-215l-303 298h307zM781 -20q-316 0 -499.5 202.5t-183.5 554.5q0 353 185.5 558.5t497.5 205.5q311 0 494.5 -205t183.5 -559q0 -351 -182.5 -554t-495.5 -203zM781 225q169 0 261.5 123t92.5 385q0 268 -93 395t-261 127t-261.5 -127.5t-93.5 -394.5
q0 -261 93.5 -384.5t261.5 -123.5z" />
    <glyph glyph-name="Oacute" unicode="&#xd3;" horiz-adv-x="1557" 
d="M883 1903h308l-304 -298h-215zM781 -20q-316 0 -499.5 202.5t-183.5 554.5q0 353 185.5 558.5t497.5 205.5q311 0 494.5 -205t183.5 -559q0 -351 -182.5 -554t-495.5 -203zM781 225q169 0 261.5 123t92.5 385q0 268 -93 395t-261 127t-261.5 -127.5t-93.5 -394.5
q0 -261 93.5 -384.5t261.5 -123.5z" />
    <glyph glyph-name="Ocircumflex" unicode="&#xd4;" horiz-adv-x="1557" 
d="M913 1605l-134 143l-150 -143h-221l270 265h207l263 -265h-235zM781 -20q-316 0 -499.5 202.5t-183.5 554.5q0 353 185.5 558.5t497.5 205.5q311 0 494.5 -205t183.5 -559q0 -351 -182.5 -554t-495.5 -203zM781 225q169 0 261.5 123t92.5 385q0 268 -93 395t-261 127
t-261.5 -127.5t-93.5 -394.5q0 -261 93.5 -384.5t261.5 -123.5z" />
    <glyph glyph-name="Otilde" unicode="&#xd5;" horiz-adv-x="1557" 
d="M1139 1722q-83 -71 -206 -71q-59 0 -151 28t-143 28q-49 0 -83.5 -15t-77.5 -51l-46 157q44 45 89 69t109 24q60 0 159.5 -31t142.5 -31q77 0 170 71zM781 -20q-316 0 -499.5 202.5t-183.5 554.5q0 353 185.5 558.5t497.5 205.5q311 0 494.5 -205t183.5 -559
q0 -351 -182.5 -554t-495.5 -203zM781 225q169 0 261.5 123t92.5 385q0 268 -93 395t-261 127t-261.5 -127.5t-93.5 -394.5q0 -261 93.5 -384.5t261.5 -123.5z" />
    <glyph glyph-name="Odieresis" unicode="&#xd6;" horiz-adv-x="1557" 
d="M878 1634l3 244h279l-2 -244h-280zM400 1634l3 244h280l-2 -244h-281zM781 -20q-316 0 -499.5 202.5t-183.5 554.5q0 353 185.5 558.5t497.5 205.5q311 0 494.5 -205t183.5 -559q0 -351 -182.5 -554t-495.5 -203zM781 225q169 0 261.5 123t92.5 385q0 268 -93 395
t-261 127t-261.5 -127.5t-93.5 -394.5q0 -261 93.5 -384.5t261.5 -123.5z" />
    <glyph glyph-name="multiply" unicode="&#xd7;" horiz-adv-x="1180" 
d="M273 275l-152 155l314 314l-316 317l152 154l318 -316l317 318l155 -155l-318 -318l316 -314l-155 -155l-315 315z" />
    <glyph glyph-name="Oslash" unicode="&#xd8;" horiz-adv-x="1589" 
d="M176 -28l-132 134l171 177q-109 183 -109 453q0 354 184.5 559.5t497.5 205.5q278 0 454 -165l166 170l130 -132l-178 -186q107 -182 107 -451q0 -352 -183 -554.5t-497 -202.5q-273 0 -449 156zM487 551l547 579q-78 134 -246 134q-143 0 -220.5 -99.5t-92.5 -304.5
q-11 -148 12 -309zM790 220q138 0 213 88.5t91 275.5q15 145 -9 335l-543 -578q80 -121 248 -121z" />
    <glyph glyph-name="Ugrave" unicode="&#xd9;" horiz-adv-x="1482" 
d="M649 1903l211 -298h-215l-303 298h307zM1351 564q0 -138 -32.5 -243t-102 -183t-184.5 -118t-274 -40q-160 0 -275 40.5t-184 119t-101 185.5t-32 249v907h304v-929q0 -160 77 -239.5t211 -79.5t212.5 79t78.5 240v929h302v-917z" />
    <glyph glyph-name="Uacute" unicode="&#xda;" horiz-adv-x="1482" 
d="M861 1903h308l-304 -298h-215zM1351 564q0 -138 -32.5 -243t-102 -183t-184.5 -118t-274 -40q-160 0 -275 40.5t-184 119t-101 185.5t-32 249v907h304v-929q0 -160 77 -239.5t211 -79.5t212.5 79t78.5 240v929h302v-917z" />
    <glyph glyph-name="Ucircumflex" unicode="&#xdb;" horiz-adv-x="1482" 
d="M892 1605l-134 143l-151 -143h-221l270 265h207l263 -265h-234zM1351 564q0 -138 -32.5 -243t-102 -183t-184.5 -118t-274 -40q-160 0 -275 40.5t-184 119t-101 185.5t-32 249v907h304v-929q0 -160 77 -239.5t211 -79.5t212.5 79t78.5 240v929h302v-917z" />
    <glyph glyph-name="Udieresis" unicode="&#xdc;" horiz-adv-x="1482" 
d="M856 1634l3 244h280l-2 -244h-281zM379 1634l3 244h280l-3 -244h-280zM1351 564q0 -138 -32.5 -243t-102 -183t-184.5 -118t-274 -40q-160 0 -275 40.5t-184 119t-101 185.5t-32 249v907h304v-929q0 -160 77 -239.5t211 -79.5t212.5 79t78.5 240v929h302v-917z" />
    <glyph glyph-name="Yacute" unicode="&#xdd;" horiz-adv-x="1367" 
d="M820 1904h308l-303 -298h-216zM1348 1481l-515 -858v-623h-299v624l-515 857h324l341 -600l337 600h327z" />
    <glyph glyph-name="Thorn" unicode="&#xde;" horiz-adv-x="1393" 
d="M1334 755q0 -214 -155 -331t-407 -117h-305v-307h-301v1481h301v-284h301q257 0 411.5 -113t154.5 -329zM1022 755q0 94 -74.5 144.5t-180.5 50.5l-300 1v-397h305q103 0 176.5 51.5t73.5 149.5z" />
    <glyph glyph-name="germandbls" unicode="&#xdf;" horiz-adv-x="1285" 
d="M644 1481q202 0 309.5 -81.5t107.5 -221.5q0 -105 -63 -171t-203 -126q-34 -18 -46.5 -29t-12.5 -29q0 -19 12.5 -28.5t47.5 -20.5q160 -68 223 -108q160 -101 182 -262q4 -28 4 -59q0 -175 -117.5 -270t-315.5 -95q-165 0 -274 68l89 184q32 -20 49.5 -29.5t53 -20
t72.5 -10.5q78 0 126.5 36.5t48.5 104.5q0 35 -12.5 60.5t-45 47t-59 33.5t-82.5 34q-102 41 -161.5 104t-59.5 162q0 72 34.5 124.5t100.5 101.5q7 6 38.5 30.5t41 34.5t28 31t25 41.5t6.5 44.5q0 56 -42.5 90.5t-118.5 34.5q-96 0 -151.5 -58.5t-55.5 -159.5v-1069h-293
l-2 1013q2 76 20 143.5t58 128t98 103.5t145 68t195 25z" />
    <glyph glyph-name="agrave" unicode="&#xe0;" horiz-adv-x="1160" 
d="M492 1481l210 -298h-215l-304 298h309zM442 -20q-156 0 -256.5 86t-100.5 237q0 176 132 266t409 93l133 2v63q0 152 -175 151q-72 -1 -128 -34t-77 -101h-249q8 166 134.5 251t333.5 85q235 0 341.5 -86t106.5 -249v-744h-250l-25 182q-53 -111 -132.5 -156.5
t-196.5 -45.5zM544 176q81 0 147.5 54.5t67.5 122.5v157l-108 -2q-125 -2 -203.5 -43.5t-78.5 -131.5q0 -72 49.5 -114.5t125.5 -42.5z" />
    <glyph glyph-name="aacute" unicode="&#xe1;" horiz-adv-x="1160" 
d="M703 1481h308l-303 -298h-215zM442 -20q-156 0 -256.5 86t-100.5 237q0 176 132 266t409 93l133 2v63q0 152 -175 151q-72 -1 -128 -34t-77 -101h-249q8 166 134.5 251t333.5 85q235 0 341.5 -86t106.5 -249v-744h-250l-25 182q-53 -111 -132.5 -156.5t-196.5 -45.5z
M544 176q81 0 147.5 54.5t67.5 122.5v157l-108 -2q-125 -2 -203.5 -43.5t-78.5 -131.5q0 -72 49.5 -114.5t125.5 -42.5z" />
    <glyph glyph-name="acircumflex" unicode="&#xe2;" horiz-adv-x="1160" 
d="M734 1183l-135 143l-149 -143h-222l271 265h206l264 -265h-235zM442 -20q-156 0 -256.5 86t-100.5 237q0 176 132 266t409 93l133 2v63q0 152 -175 151q-72 -1 -128 -34t-77 -101h-249q8 166 134.5 251t333.5 85q235 0 341.5 -86t106.5 -249v-744h-250l-25 182
q-53 -111 -132.5 -156.5t-196.5 -45.5zM544 176q81 0 147.5 54.5t67.5 122.5v157l-108 -2q-125 -2 -203.5 -43.5t-78.5 -131.5q0 -72 49.5 -114.5t125.5 -42.5z" />
    <glyph glyph-name="atilde" unicode="&#xe3;" horiz-adv-x="1160" 
d="M959 1300q-85 -71 -206 -71q-58 0 -150 28t-143 28q-49 0 -84 -15t-77 -50l-46 156q43 45 88 69t109 24q60 0 159.5 -31t142.5 -31q78 0 171 71zM442 -20q-156 0 -256.5 86t-100.5 237q0 176 132 266t409 93l133 2v63q0 152 -175 151q-72 -1 -128 -34t-77 -101h-249
q8 166 134.5 251t333.5 85q235 0 341.5 -86t106.5 -249v-744h-250l-25 182q-53 -111 -132.5 -156.5t-196.5 -45.5zM544 176q81 0 147.5 54.5t67.5 122.5v157l-108 -2q-125 -2 -203.5 -43.5t-78.5 -131.5q0 -72 49.5 -114.5t125.5 -42.5z" />
    <glyph glyph-name="adieresis" unicode="&#xe4;" horiz-adv-x="1160" 
d="M698 1212l2 244h281l-3 -244h-280zM221 1212l2 244h281l-3 -244h-280zM442 -20q-156 0 -256.5 86t-100.5 237q0 176 132 266t409 93l133 2v63q0 152 -175 151q-72 -1 -128 -34t-77 -101h-249q8 166 134.5 251t333.5 85q235 0 341.5 -86t106.5 -249v-744h-250l-25 182
q-53 -111 -132.5 -156.5t-196.5 -45.5zM544 176q81 0 147.5 54.5t67.5 122.5v157l-108 -2q-125 -2 -203.5 -43.5t-78.5 -131.5q0 -72 49.5 -114.5t125.5 -42.5z" />
    <glyph glyph-name="aring" unicode="&#xe5;" horiz-adv-x="1160" 
d="M824 1384q0 -93 -65 -157.5t-158 -64.5q-94 0 -158.5 66t-64.5 161q0 90 65 152.5t158 62.5t158 -64t65 -156zM700 1383q0 43 -29 72.5t-72 29.5t-73.5 -29.5t-30.5 -72.5q0 -41 31 -72.5t73 -31.5t71.5 31t29.5 73zM442 -20q-156 0 -256.5 86t-100.5 237q0 176 132 266
t409 93l133 2v63q0 152 -175 151q-72 -1 -128 -34t-77 -101h-249q8 166 134.5 251t333.5 85q235 0 341.5 -86t106.5 -249v-744h-250l-25 182q-53 -111 -132.5 -156.5t-196.5 -45.5zM544 176q81 0 147.5 54.5t67.5 122.5v157l-108 -2q-125 -2 -203.5 -43.5t-78.5 -131.5
q0 -72 49.5 -114.5t125.5 -42.5z" />
    <glyph glyph-name="ae" unicode="&#xe6;" horiz-adv-x="1870" 
d="M442 -20q-156 0 -256.5 86t-100.5 237q0 176 132.5 266t409.5 93l133 2v63q0 74 -46 113t-130 38q-70 -1 -127 -34.5t-78 -100.5h-249q8 160 136 248t332 88q254 0 366 -110q130 110 325 110q237 0 365.5 -146.5t128.5 -390.5v-81h-711q-2 -122 58.5 -193.5t166.5 -71.5
q171 0 215 140h270q-17 -109 -90 -191.5t-174 -123.5t-213 -41q-146 0 -260.5 57.5t-183.5 163.5q-38 -105 -146 -163t-273 -58zM1071 639h432q0 101 -55.5 166t-158.5 65q-99 0 -159 -69t-59 -162zM544 176q90 0 152 60.5t64 132.5v141l-109 -2q-125 -2 -203.5 -43.5
t-78.5 -131.5q0 -72 49.5 -114.5t125.5 -42.5z" />
    <glyph glyph-name="ccedilla" unicode="&#xe7;" horiz-adv-x="1120" 
d="M823 -269q0 -75 -71 -120.5t-173 -45.5q-146 0 -236 55l41 100q80 -50 158 -50q49 0 75.5 17t26.5 47q0 41 -40 62t-133 22q-14 0 -17.5 3t0.5 16l64 147q-198 24 -319 168t-121 373q0 248 140.5 401t370.5 153q193 0 313.5 -115t132.5 -291h-249q-11 72 -60.5 125.5
t-134.5 53.5q-108 0 -171.5 -83t-63.5 -242q0 -156 64 -246t177 -90q82 0 132 56t61 123h242q-9 -153 -112.5 -260.5t-268.5 -126.5l-35 -93q106 -2 156.5 -49t50.5 -110z" />
    <glyph glyph-name="egrave" unicode="&#xe8;" horiz-adv-x="1180" 
d="M490 1481l211 -298h-215l-303 298h307zM381 461q-1 -122 59 -193.5t167 -71.5q171 0 215 140h270q-17 -109 -90.5 -191.5t-174.5 -123.5t-213 -41q-237 0 -383 146t-146 391q0 160 60 286.5t178 201t276 74.5q237 0 365.5 -146.5t128.5 -390.5v-81h-712zM381 639h432
q0 101 -55.5 166t-159.5 65q-98 0 -158 -69t-59 -162z" />
    <glyph glyph-name="eacute" unicode="&#xe9;" horiz-adv-x="1180" 
d="M702 1481h309l-304 -298h-215zM381 461q-1 -122 59 -193.5t167 -71.5q171 0 215 140h270q-17 -109 -90.5 -191.5t-174.5 -123.5t-213 -41q-237 0 -383 146t-146 391q0 160 60 286.5t178 201t276 74.5q237 0 365.5 -146.5t128.5 -390.5v-81h-712zM381 639h432
q0 101 -55.5 166t-159.5 65q-98 0 -158 -69t-59 -162z" />
    <glyph glyph-name="ecircumflex" unicode="&#xea;" horiz-adv-x="1180" 
d="M733 1183l-134 143l-150 -143h-222l271 265h207l263 -265h-235zM381 461q-1 -122 59 -193.5t167 -71.5q171 0 215 140h270q-17 -109 -90.5 -191.5t-174.5 -123.5t-213 -41q-237 0 -383 146t-146 391q0 160 60 286.5t178 201t276 74.5q237 0 365.5 -146.5t128.5 -390.5
v-81h-712zM381 639h432q0 101 -55.5 166t-159.5 65q-98 0 -158 -69t-59 -162z" />
    <glyph glyph-name="edieresis" unicode="&#xeb;" horiz-adv-x="1180" 
d="M697 1212l3 244h280l-2 -244h-281zM220 1212l3 244h280l-2 -244h-281zM381 461q-1 -122 59 -193.5t167 -71.5q171 0 215 140h270q-17 -109 -90.5 -191.5t-174.5 -123.5t-213 -41q-237 0 -383 146t-146 391q0 160 60 286.5t178 201t276 74.5q237 0 365.5 -146.5
t128.5 -390.5v-81h-712zM381 639h432q0 101 -55.5 166t-159.5 65q-98 0 -158 -69t-59 -162z" />
    <glyph glyph-name="igrave" unicode="&#xec;" horiz-adv-x="541" 
d="M166 1481l211 -298h-215l-304 298h308zM414 1059v-1059h-286v1059h286z" />
    <glyph glyph-name="iacute" unicode="&#xed;" horiz-adv-x="541" 
d="M304 1481h294l-224 -298l-217 2zM414 1059v-1059h-286v1059h286z" />
    <glyph glyph-name="icircumflex" unicode="&#xee;" horiz-adv-x="541" 
d="M409 1183l-135 143l-150 -143h-221l270 265h206l264 -265h-234zM414 1059v-1059h-286v1059h286z" />
    <glyph glyph-name="idieresis" unicode="&#xef;" horiz-adv-x="786" 
d="M490 1208l3 244h280l-3 -244h-280zM13 1208l2 244h281l-3 -244h-280zM528 1059v-1059h-286v1059h286z" />
    <glyph glyph-name="eth" unicode="&#xf0;" horiz-adv-x="1218" 
d="M609 -20q-155 0 -277 69.5t-188 190.5t-66 271q0 103 27 191.5t74 152t110.5 109t137 67.5t153.5 22q238 0 352 -183q-62 191 -189 339l-397 -129v193l247 81q-40 32 -83.5 60.5t-85.5 54t-57 35.5l354 13q70 -38 121 -82l224 72v-191l-92 -31q170 -256 167 -726
q-2 -260 -147 -419.5t-385 -159.5zM598 202q59 0 103.5 29.5t70 78.5t37.5 105.5t12 118.5q0 69 -11.5 125.5t-36.5 102.5t-69.5 71.5t-105.5 25.5q-79 0 -132 -47.5t-74.5 -118t-21.5 -159.5q0 -62 12.5 -118.5t38.5 -105.5t71.5 -78.5t105.5 -29.5z" />
    <glyph glyph-name="ntilde" unicode="&#xf1;" horiz-adv-x="1214" 
d="M978 1300q-85 -71 -207 -71q-58 0 -150 28t-143 28q-49 0 -84 -15t-77 -50l-46 156q43 44 88.5 68.5t108.5 24.5q61 0 160.5 -31t142.5 -31q77 0 170 71zM128 0v1059h294v-150q99 159 307 159q75 0 140 -21.5t117.5 -64.5t83 -116t30.5 -168v-698h-299v662
q0 83 -49.5 127.5t-126.5 44.5q-80 0 -139 -41.5t-59 -114.5v-678h-299z" />
    <glyph glyph-name="ograve" unicode="&#xf2;" horiz-adv-x="1178" 
d="M481 1481l211 -298h-216l-303 298h308zM590 -20q-234 0 -373 146.5t-139 396.5q0 252 139.5 404t373.5 152t372.5 -151t138.5 -405q0 -243 -137 -393t-375 -150zM591 202q75 0 125.5 47t71.5 119t21 166q0 67 -11 122.5t-35.5 102.5t-68 73.5t-103.5 26.5
q-58 0 -101.5 -25t-69 -70t-38 -102.5t-12.5 -127.5q0 -66 11.5 -122.5t36 -105t69 -76.5t104.5 -28z" />
    <glyph glyph-name="oacute" unicode="&#xf3;" horiz-adv-x="1178" 
d="M692 1481h308l-303 -298h-216zM590 -20q-234 0 -373 146.5t-139 396.5q0 252 139.5 404t373.5 152t372.5 -151t138.5 -405q0 -243 -137 -393t-375 -150zM591 202q75 0 125.5 47t71.5 119t21 166q0 67 -11 122.5t-35.5 102.5t-68 73.5t-103.5 26.5q-58 0 -101.5 -25
t-69 -70t-38 -102.5t-12.5 -127.5q0 -66 11.5 -122.5t36 -105t69 -76.5t104.5 -28z" />
    <glyph glyph-name="ocircumflex" unicode="&#xf4;" horiz-adv-x="1178" 
d="M724 1183l-135 143l-150 -143h-222l271 265h206l263 -265h-233zM590 -20q-234 0 -373 146.5t-139 396.5q0 252 139.5 404t373.5 152t372.5 -151t138.5 -405q0 -243 -137 -393t-375 -150zM591 202q75 0 125.5 47t71.5 119t21 166q0 67 -11 122.5t-35.5 102.5t-68 73.5
t-103.5 26.5q-58 0 -101.5 -25t-69 -70t-38 -102.5t-12.5 -127.5q0 -66 11.5 -122.5t36 -105t69 -76.5t104.5 -28z" />
    <glyph glyph-name="otilde" unicode="&#xf5;" horiz-adv-x="1178" 
d="M949 1300q-85 -71 -207 -71q-59 0 -150.5 28t-142.5 28q-49 0 -84 -15t-77 -50l-45 156q43 45 87.5 69t108.5 24q60 0 159.5 -31t142.5 -31q76 0 171 71zM590 -20q-234 0 -373 146.5t-139 396.5q0 252 139.5 404t373.5 152t372.5 -151t138.5 -405q0 -243 -137 -393
t-375 -150zM591 202q75 0 125.5 47t71.5 119t21 166q0 67 -11 122.5t-35.5 102.5t-68 73.5t-103.5 26.5q-58 0 -101.5 -25t-69 -70t-38 -102.5t-12.5 -127.5q0 -66 11.5 -122.5t36 -105t69 -76.5t104.5 -28z" />
    <glyph glyph-name="odieresis" unicode="&#xf6;" horiz-adv-x="1178" 
d="M687 1212l3 244h281l-3 -244h-281zM210 1212l3 244h281l-4 -244h-280zM590 -20q-234 0 -373 146.5t-139 396.5q0 252 139.5 404t373.5 152t372.5 -151t138.5 -405q0 -243 -137 -393t-375 -150zM591 202q75 0 125.5 47t71.5 119t21 166q0 67 -11 122.5t-35.5 102.5
t-68 73.5t-103.5 26.5q-58 0 -101.5 -25t-69 -70t-38 -102.5t-12.5 -127.5q0 -66 11.5 -122.5t36 -105t69 -76.5t104.5 -28z" />
    <glyph glyph-name="divide" unicode="&#xf7;" horiz-adv-x="1205" 
d="M760 1298v-300h-311v300h311zM1086 854v-218h-967v218h967zM760 492v-301h-311v301h311z" />
    <glyph glyph-name="oslash" unicode="&#xf8;" horiz-adv-x="1252" 
d="M640 -20q-220 0 -357 131l-132 -126l-99 105l144 136q-68 127 -68 297q0 252 139.5 404t373.5 152q204 0 335 -114l114 106l97 -104l-118 -112q83 -139 83 -332q0 -243 -137 -393t-375 -150zM420 534q0 -46 6 -91l366 348q-55 68 -151 68q-58 0 -101.5 -25t-69 -70
t-38 -102.5t-12.5 -127.5zM641 202q75 0 126 47t72 119.5t21 165.5q0 62 -10 113l-375 -355q58 -90 166 -90z" />
    <glyph glyph-name="ugrave" unicode="&#xf9;" horiz-adv-x="1218" 
d="M497 1481l211 -298h-216l-304 298h309zM518 -20q-74 0 -145 23.5t-129 65.5t-93.5 109.5t-35.5 148.5v732h299v-694q0 -76 49 -122t140 -46q89 0 140.5 45.5t51.5 127.5v689h296v-1059h-226l-35 210q-14 -66 -46.5 -113.5t-77.5 -72t-91 -34.5t-97 -10z" />
    <glyph glyph-name="uacute" unicode="&#xfa;" horiz-adv-x="1218" 
d="M708 1481h308l-303 -298h-216zM518 -20q-74 0 -145 23.5t-129 65.5t-93.5 109.5t-35.5 148.5v732h299v-694q0 -76 49 -122t140 -46q89 0 140.5 45.5t51.5 127.5v689h296v-1059h-226l-35 210q-14 -66 -46.5 -113.5t-77.5 -72t-91 -34.5t-97 -10z" />
    <glyph glyph-name="ucircumflex" unicode="&#xfb;" horiz-adv-x="1218" 
d="M739 1183l-135 143l-149 -143h-223l272 265h206l263 -265h-234zM518 -20q-74 0 -145 23.5t-129 65.5t-93.5 109.5t-35.5 148.5v732h299v-694q0 -76 49 -122t140 -46q89 0 140.5 45.5t51.5 127.5v689h296v-1059h-226l-35 210q-14 -66 -46.5 -113.5t-77.5 -72t-91 -34.5
t-97 -10z" />
    <glyph glyph-name="udieresis" unicode="&#xfc;" horiz-adv-x="1218" 
d="M702 1212l4 244h280l-3 -244h-281zM225 1212l3 244h281l-3 -244h-281zM518 -20q-74 0 -145 23.5t-129 65.5t-93.5 109.5t-35.5 148.5v732h299v-694q0 -76 49 -122t140 -46q89 0 140.5 45.5t51.5 127.5v689h296v-1059h-226l-35 210q-14 -66 -46.5 -113.5t-77.5 -72
t-91 -34.5t-97 -10z" />
    <glyph glyph-name="yacute" unicode="&#xfd;" horiz-adv-x="1153" 
d="M680 1481h307l-303 -298h-215zM294 -338q-64 0 -114 9t-68 18l-17 9v190l106 -4q52 -3 92 4.5t60.5 17t37 29t19.5 27t10 24.5l19 58l-411 1015h296l254 -690l256 690h292l-429 -1065q-41 -99 -86 -165.5t-96 -102t-103 -50t-118 -14.5z" />
    <glyph glyph-name="thorn" unicode="&#xfe;" horiz-adv-x="1236" 
d="M427 1481v-556q30 33 57 56.5t66 48t89.5 37t109.5 12.5q183 0 297 -138t114 -403q0 -277 -118 -417.5t-311 -140.5q-157 0 -268 101q-22 20 -29 18t-7 -29v-400h-299v1811h299zM427 271q90 -102 196 -102q233 0 233 375q0 345 -229 345q-84 0 -142 -50t-58 -113v-455z
" />
    <glyph glyph-name="ydieresis" unicode="&#xff;" horiz-adv-x="1153" 
d="M675 1212l2 244h280l-3 -244h-279zM198 1212l2 244h280l-3 -244h-279zM294 -338q-64 0 -114 9t-68 18l-17 9v190l106 -4q52 -3 92 4.5t60.5 17t37 29t19.5 27t10 24.5l19 58l-411 1015h296l254 -690l256 690h292l-429 -1065q-41 -99 -86 -165.5t-96 -102t-103 -50
t-118 -14.5z" />
    <glyph glyph-name="Amacron" unicode="&#x100;" horiz-adv-x="1487" 
d="M1104 1847v-191h-720v191h720zM56 0l530 1481h316l530 -1481h-298l-121 343h-534l-123 -343h-300zM547 604h393l-196 589z" />
    <glyph glyph-name="amacron" unicode="&#x101;" horiz-adv-x="1160" 
d="M961 1425v-191h-720v191h720zM442 -20q-156 0 -256.5 86t-100.5 237q0 176 132 266t409 93l133 2v63q0 152 -175 151q-72 -1 -128 -34t-77 -101h-249q8 166 134.5 251t333.5 85q235 0 341.5 -86t106.5 -249v-744h-250l-25 182q-53 -111 -132.5 -156.5t-196.5 -45.5z
M544 176q81 0 147.5 54.5t67.5 122.5v157l-108 -2q-125 -2 -203.5 -43.5t-78.5 -131.5q0 -72 49.5 -114.5t125.5 -42.5z" />
    <glyph glyph-name="Abreve" unicode="&#x102;" horiz-adv-x="1487" 
d="M1104 1865q-26 -124 -126 -192.5t-235 -68.5q-134 0 -233 68t-125 193h189q15 -52 60 -83.5t109 -31.5t109.5 31.5t62.5 83.5h189zM56 0l530 1481h316l530 -1481h-298l-121 343h-534l-123 -343h-300zM547 604h393l-196 589z" />
    <glyph glyph-name="abreve" unicode="&#x103;" horiz-adv-x="1160" 
d="M959 1443q-25 -124 -124.5 -192.5t-234.5 -68.5q-134 0 -233 68t-125 193h188q17 -52 61 -83.5t109 -31.5q64 0 109 31.5t63 83.5h187zM442 -20q-156 0 -256.5 86t-100.5 237q0 176 132 266t409 93l133 2v63q0 152 -175 151q-72 -1 -128 -34t-77 -101h-249
q8 166 134.5 251t333.5 85q235 0 341.5 -86t106.5 -249v-744h-250l-25 182q-53 -111 -132.5 -156.5t-196.5 -45.5zM544 176q81 0 147.5 54.5t67.5 122.5v157l-108 -2q-125 -2 -203.5 -43.5t-78.5 -131.5q0 -72 49.5 -114.5t125.5 -42.5z" />
    <glyph glyph-name="Aogonek" unicode="&#x104;" horiz-adv-x="1487" 
d="M56 0l530 1481h316l529 -1478h1l-1 -1l1 -2h-8q-101 -37 -141.5 -70.5t-40.5 -75.5q0 -66 74 -66q73 0 148 45v-135q-31 -20 -90.5 -34.5t-124.5 -14.5q-106 0 -164.5 43t-58.5 125q0 58 37.5 102.5t135.5 80.5h-65l-121 343h-534l-123 -343h-300zM547 604h393l-196 589z
" />
    <glyph glyph-name="aogonek" unicode="&#x105;" horiz-adv-x="1160" 
d="M442 -20q-156 0 -256.5 86t-100.5 237q0 176 132 266t409 93l133 2v63q0 152 -175 151q-72 -1 -128 -34t-77 -101h-249q8 166 134.5 251t333.5 85q235 0 341.5 -86t106.5 -249v-744h-38q-89 -35 -125 -67t-36 -71q0 -66 74 -66q70 0 148 45v-135q-31 -20 -90.5 -34.5
t-124.5 -14.5q-106 0 -164.5 43t-58.5 125q0 57 35.5 100.5t128.5 79.5l-24 177q-53 -111 -132.5 -156.5t-196.5 -45.5zM544 176q81 0 147.5 54.5t67.5 122.5v157l-108 -2q-125 -2 -203.5 -43.5t-78.5 -131.5q0 -72 49.5 -114.5t125.5 -42.5z" />
    <glyph glyph-name="Cacute" unicode="&#x106;" horiz-adv-x="1470" 
d="M868 1903h309l-304 -298h-216zM769 1501q247 0 413.5 -144.5t189.5 -366.5h-313q-22 121 -98.5 193t-200.5 72q-162 0 -247.5 -120.5t-85.5 -385.5q0 -524 333 -524q122 0 199 81t100 206h313q-14 -113 -51.5 -203.5t-106 -167t-181.5 -119t-264 -42.5q-309 0 -490 211
t-181 562q0 349 179 548.5t492 199.5z" />
    <glyph glyph-name="cacute" unicode="&#x107;" horiz-adv-x="1120" 
d="M690 1481h308l-304 -298h-215zM589 1079q193 0 313.5 -115t132.5 -291h-249q-11 72 -60.5 125.5t-134.5 53.5q-108 0 -171.5 -83t-63.5 -242q0 -156 64 -246t177 -90q82 0 132 56t61 123h242q-10 -168 -131.5 -279t-311.5 -111q-225 0 -368 147.5t-143 397.5
q0 248 140.5 401t370.5 153z" />
    <glyph glyph-name="Ccircumflex" unicode="&#x108;" horiz-adv-x="1470" 
d="M900 1605l-135 143l-150 -143h-222l271 265h206l264 -265h-234zM769 1501q247 0 413.5 -144.5t189.5 -366.5h-313q-22 121 -98.5 193t-200.5 72q-162 0 -247.5 -120.5t-85.5 -385.5q0 -524 333 -524q122 0 199 81t100 206h313q-14 -113 -51.5 -203.5t-106 -167
t-181.5 -119t-264 -42.5q-309 0 -490 211t-181 562q0 349 179 548.5t492 199.5z" />
    <glyph glyph-name="ccircumflex" unicode="&#x109;" horiz-adv-x="1120" 
d="M721 1183l-134 143l-151 -143h-221l270 265h206l264 -265h-234zM589 1079q193 0 313.5 -115t132.5 -291h-249q-11 72 -60.5 125.5t-134.5 53.5q-108 0 -171.5 -83t-63.5 -242q0 -156 64 -246t177 -90q82 0 132 56t61 123h242q-10 -168 -131.5 -279t-311.5 -111
q-225 0 -368 147.5t-143 397.5q0 248 140.5 401t370.5 153z" />
    <glyph glyph-name="Cdotaccent" unicode="&#x10a;" horiz-adv-x="1470" 
d="M623 1634v244h285v-244h-285zM769 1501q247 0 413.5 -144.5t189.5 -366.5h-313q-22 121 -98.5 193t-200.5 72q-162 0 -247.5 -120.5t-85.5 -385.5q0 -524 333 -524q122 0 199 81t100 206h313q-14 -113 -51.5 -203.5t-106 -167t-181.5 -119t-264 -42.5q-309 0 -490 211
t-181 562q0 349 179 548.5t492 199.5z" />
    <glyph glyph-name="cdotaccent" unicode="&#x10b;" horiz-adv-x="1120" 
d="M444 1212v244h286v-244h-286zM589 1079q193 0 313.5 -115t132.5 -291h-249q-11 72 -60.5 125.5t-134.5 53.5q-108 0 -171.5 -83t-63.5 -242q0 -156 64 -246t177 -90q82 0 132 56t61 123h242q-10 -168 -131.5 -279t-311.5 -111q-225 0 -368 147.5t-143 397.5
q0 248 140.5 401t370.5 153z" />
    <glyph glyph-name="Ccaron" unicode="&#x10c;" horiz-adv-x="1470" 
d="M663 1605l-270 267h222l150 -154l135 154h234l-264 -267h-207zM769 1501q247 0 413.5 -144.5t189.5 -366.5h-313q-22 121 -98.5 193t-200.5 72q-162 0 -247.5 -120.5t-85.5 -385.5q0 -524 333 -524q122 0 199 81t100 206h313q-14 -113 -51.5 -203.5t-106 -167
t-181.5 -119t-264 -42.5q-309 0 -490 211t-181 562q0 349 179 548.5t492 199.5z" />
    <glyph glyph-name="ccaron" unicode="&#x10d;" horiz-adv-x="1120" 
d="M483 1183l-269 267h222l151 -154l134 154h234l-264 -267h-208zM589 1079q193 0 313.5 -115t132.5 -291h-249q-11 72 -60.5 125.5t-134.5 53.5q-108 0 -171.5 -83t-63.5 -242q0 -156 64 -246t177 -90q82 0 132 56t61 123h242q-10 -168 -131.5 -279t-311.5 -111
q-225 0 -368 147.5t-143 397.5q0 248 140.5 401t370.5 153z" />
    <glyph glyph-name="Dcaron" unicode="&#x10e;" horiz-adv-x="1474" 
d="M627 1605l-270 267h223l150 -154l134 154h235l-264 -267h-208zM166 1481q357 0 442 -2q199 -5 347 -57t240 -148t136.5 -227t44.5 -299q0 -355 -195 -551.5t-583 -196.5h-432v1481zM467 1239v-997h137q99 0 179.5 27.5t145 86t100 158.5t35.5 236q0 251 -118.5 370
t-337.5 119h-141z" />
    <glyph glyph-name="dcaron" unicode="&#x10f;" horiz-adv-x="1286" 
d="M528 -20q-213 0 -331.5 146.5t-118.5 409.5q0 252 110 397.5t311 145.5q109 0 194 -46.5t125 -117.5v607h300v-1522h-217l-34 217q-15 -48 -40 -87t-64.5 -74.5t-99.5 -55.5t-135 -20zM1239 1039l83 207l-73 12v228h204v-239l-87 -208h-127zM594 195q115 0 169.5 80.5
t54.5 264.5q-3 322 -222 322q-104 0 -165 -78t-61 -244q0 -172 59 -258.5t165 -86.5z" />
    <glyph glyph-name="Dcroat" unicode="&#x110;" horiz-adv-x="1533" 
d="M224 1481q359 0 444 -2q199 -5 347 -57t240 -148t136.5 -227t44.5 -299q0 -355 -195.5 -551.5t-583.5 -196.5h-433v627h-152v218h152v636zM823 845v-218h-297v-385h138q99 0 179.5 27.5t144.5 86t99 158.5t35 236q0 489 -454 489h-142v-394h297z" />
    <glyph glyph-name="dcroat" unicode="&#x111;" horiz-adv-x="1308" 
d="M528 -20q-213 0 -331.5 146.5t-118.5 409.5q0 252 110 397.5t311 145.5q109 0 194 -46.5t125 -117.5v273h-260v168h260v166h300v-166h129v-168h-129v-1188h-217l-34 217q-15 -48 -40 -87t-64.5 -74.5t-99.5 -55.5t-135 -20zM594 195q115 0 169.5 80.5t54.5 264.5
q-3 322 -222 322q-104 0 -165 -78t-61 -244q0 -172 59 -258.5t165 -86.5z" />
    <glyph glyph-name="Emacron" unicode="&#x112;" horiz-adv-x="1299" 
d="M1035 1847v-191h-720v191h720zM166 0v1481h1017l-1 -252h-716v-360h621v-246h-623v-368l729 -1v-254h-1027z" />
    <glyph glyph-name="emacron" unicode="&#x113;" horiz-adv-x="1180" 
d="M959 1425v-191h-719v191h719zM381 461q-1 -122 59 -193.5t167 -71.5q171 0 215 140h270q-17 -109 -90.5 -191.5t-174.5 -123.5t-213 -41q-237 0 -383 146t-146 391q0 160 60 286.5t178 201t276 74.5q237 0 365.5 -146.5t128.5 -390.5v-81h-712zM381 639h432
q0 101 -55.5 166t-159.5 65q-98 0 -158 -69t-59 -162z" />
    <glyph glyph-name="Ebreve" unicode="&#x114;" horiz-adv-x="1299" 
d="M1035 1865q-26 -124 -125.5 -192.5t-234.5 -68.5t-234 68t-125 193h189q17 -52 61.5 -83.5t108.5 -31.5t109.5 31.5t62.5 83.5h188zM166 0v1481h1017l-1 -252h-716v-360h621v-246h-623v-368l729 -1v-254h-1027z" />
    <glyph glyph-name="ebreve" unicode="&#x115;" horiz-adv-x="1180" 
d="M959 1443q-26 -125 -125 -193t-235 -68q-134 0 -233 68t-125 193h189q15 -52 60 -83.5t109 -31.5t109.5 31.5t62.5 83.5h188zM381 461q-1 -122 59 -193.5t167 -71.5q171 0 215 140h270q-17 -109 -90.5 -191.5t-174.5 -123.5t-213 -41q-237 0 -383 146t-146 391
q0 160 60 286.5t178 201t276 74.5q237 0 365.5 -146.5t128.5 -390.5v-81h-712zM381 639h432q0 101 -55.5 166t-159.5 65q-98 0 -158 -69t-59 -162z" />
    <glyph glyph-name="Edotaccent" unicode="&#x116;" horiz-adv-x="1299" 
d="M532 1634v244h286v-244h-286zM166 0v1481h1017l-1 -252h-716v-360h621v-246h-623v-368l729 -1v-254h-1027z" />
    <glyph glyph-name="edotaccent" unicode="&#x117;" horiz-adv-x="1180" 
d="M457 1212v244h285v-244h-285zM381 461q-1 -122 59 -193.5t167 -71.5q171 0 215 140h270q-17 -109 -90.5 -191.5t-174.5 -123.5t-213 -41q-237 0 -383 146t-146 391q0 160 60 286.5t178 201t276 74.5q237 0 365.5 -146.5t128.5 -390.5v-81h-712zM381 639h432
q0 101 -55.5 166t-159.5 65q-98 0 -158 -69t-59 -162z" />
    <glyph glyph-name="Eogonek" unicode="&#x118;" horiz-adv-x="1299" 
d="M166 0v1481h1017l-1 -252h-716v-360h621v-246h-623v-368l729 -1v-245l30 -1q-106 -38 -148 -72t-42 -76q0 -66 74 -66q71 0 148 44v-135q-31 -19 -90.5 -33.5t-124.5 -14.5q-106 0 -164.5 43t-58.5 125q0 56 35 99t124 78h-810z" />
    <glyph glyph-name="eogonek" unicode="&#x119;" horiz-adv-x="1180" 
d="M469 -152q0 83 75 136q-209 22 -334 164.5t-125 368.5q0 160 60 286.5t178 201t276 74.5q237 0 365.5 -146.5t128.5 -390.5v-81h-712q-1 -122 59 -193.5t167 -71.5q171 0 215 140h270q-17 -101 -79.5 -178.5t-155.5 -122.5h17q-105 -39 -147 -73t-42 -77q0 -65 74 -65
q70 0 148 45v-135q-31 -20 -91 -34.5t-125 -14.5q-106 0 -164 42.5t-58 124.5zM381 639h432q0 101 -55.5 166t-159.5 65q-98 0 -158 -69t-59 -162z" />
    <glyph glyph-name="Ecaron" unicode="&#x11a;" horiz-adv-x="1299" 
d="M571 1605l-269 267h222l151 -154l134 154h234l-264 -267h-208zM166 0v1481h1017l-1 -252h-716v-360h621v-246h-623v-368l729 -1v-254h-1027z" />
    <glyph glyph-name="ecaron" unicode="&#x11b;" horiz-adv-x="1164" 
d="M485 1183l-270 267h222l151 -154l134 154h234l-263 -267h-208zM381 461q-1 -122 59 -193.5t167 -71.5q171 0 215 140h270q-17 -109 -90.5 -191.5t-174.5 -123.5t-213 -41q-237 0 -383 146t-146 391q0 160 60 286.5t178 201t276 74.5q237 0 365.5 -146.5t128.5 -390.5v-81
h-712zM381 639h432q0 101 -55.5 166t-159.5 65q-98 0 -158 -69t-59 -162z" />
    <glyph glyph-name="Gcircumflex" unicode="&#x11c;" horiz-adv-x="1554" 
d="M906 1605l-134 143l-150 -143h-222l271 265h206l264 -265h-235zM765 -20q-306 0 -486.5 204.5t-180.5 551.5q0 351 187 558t496 207q128 0 240.5 -43t190 -114t124 -163.5t50.5 -190.5h-315q-22 111 -101 184.5t-196 73.5q-76 0 -138.5 -28.5t-110.5 -87.5t-74.5 -157.5
t-26.5 -230.5q0 -114 20 -202t53.5 -143.5t81.5 -91.5t98 -50t109 -14q122 0 200.5 73.5t91.5 162.5l12 90h-307v207l620 -3v-773h-204v194q-34 -44 -68.5 -77t-86 -67t-122.5 -52t-157 -18z" />
    <glyph glyph-name="gcircumflex" unicode="&#x11d;" horiz-adv-x="1287" 
d="M757 1183l-135 143l-150 -143h-222l270 265h207l263 -265h-233zM620 -350q-277 0 -427 70t-150 190q0 40 19 74t48.5 56t56.5 36t54 23.5t28 10.5q-1 1 -20 11t-29 16t-28 20.5t-27.5 28.5t-17.5 35.5t-8 45.5q0 59 56 105.5t161 65.5q-102 47 -158 130t-56 175
q0 102 65.5 178t178.5 115t258 39q101 0 171.5 -21t136.5 -62q227 90 311 125l-2 -231l-182 -30q22 -60 22 -112q0 -147 -126.5 -248.5t-352.5 -101.5q-68 0 -104 4q-106 -5 -106 -44q0 -24 40 -32t146 -14q19 -1 94 -5.5t126 -7.5q189 -12 287.5 -93t98.5 -210
q0 -155 -145 -248.5t-419 -93.5zM611 561q86 0 137 46.5t51 126.5q0 83 -51.5 133.5t-136.5 50.5t-137 -50.5t-52 -133.5q0 -79 50.5 -126t138.5 -47zM668 -183q122 0 176.5 29.5t54.5 88.5q0 48 -42 78.5t-119 35.5l-242 17q-70 4 -115 -32.5t-45 -88.5q0 -66 80.5 -97
t251.5 -31z" />
    <glyph glyph-name="Gbreve" unicode="&#x11e;" horiz-adv-x="1554" 
d="M1133 1865q-26 -124 -126 -192.5t-235 -68.5q-134 0 -233 68t-125 193h189q15 -52 60 -83.5t109 -31.5t109.5 31.5t62.5 83.5h189zM765 -20q-306 0 -486.5 204.5t-180.5 551.5q0 351 187 558t496 207q128 0 240.5 -43t190 -114t124 -163.5t50.5 -190.5h-315
q-22 111 -101 184.5t-196 73.5q-76 0 -138.5 -28.5t-110.5 -87.5t-74.5 -157.5t-26.5 -230.5q0 -114 20 -202t53.5 -143.5t81.5 -91.5t98 -50t109 -14q122 0 200.5 73.5t91.5 162.5l12 90h-307v207l620 -3v-773h-204v194q-34 -44 -68.5 -77t-86 -67t-122.5 -52t-157 -18z
" />
    <glyph glyph-name="gbreve" unicode="&#x11f;" horiz-adv-x="1287" 
d="M982 1443q-26 -124 -125 -192.5t-234 -68.5t-234 68t-125 193h189q17 -52 61 -83.5t109 -31.5q64 0 109 31.5t63 83.5h187zM620 -350q-277 0 -427 70t-150 190q0 40 19 74t48.5 56t56.5 36t54 23.5t28 10.5q-1 1 -20 11t-29 16t-28 20.5t-27.5 28.5t-17.5 35.5t-8 45.5
q0 59 56 105.5t161 65.5q-102 47 -158 130t-56 175q0 102 65.5 178t178.5 115t258 39q101 0 171.5 -21t136.5 -62q227 90 311 125l-2 -231l-182 -30q22 -60 22 -112q0 -147 -126.5 -248.5t-352.5 -101.5q-68 0 -104 4q-106 -5 -106 -44q0 -24 40 -32t146 -14q19 -1 94 -5.5
t126 -7.5q189 -12 287.5 -93t98.5 -210q0 -155 -145 -248.5t-419 -93.5zM611 561q86 0 137 46.5t51 126.5q0 83 -51.5 133.5t-136.5 50.5t-137 -50.5t-52 -133.5q0 -79 50.5 -126t138.5 -47zM668 -183q122 0 176.5 29.5t54.5 88.5q0 48 -42 78.5t-119 35.5l-242 17
q-70 4 -115 -32.5t-45 -88.5q0 -66 80.5 -97t251.5 -31z" />
    <glyph glyph-name="Gdotaccent" unicode="&#x120;" horiz-adv-x="1554" 
d="M630 1634v244h285v-244h-285zM765 -20q-306 0 -486.5 204.5t-180.5 551.5q0 351 187 558t496 207q128 0 240.5 -43t190 -114t124 -163.5t50.5 -190.5h-315q-22 111 -101 184.5t-196 73.5q-76 0 -138.5 -28.5t-110.5 -87.5t-74.5 -157.5t-26.5 -230.5q0 -114 20 -202
t53.5 -143.5t81.5 -91.5t98 -50t109 -14q122 0 200.5 73.5t91.5 162.5l12 90h-307v207l620 -3v-773h-204v194q-34 -44 -68.5 -77t-86 -67t-122.5 -52t-157 -18z" />
    <glyph glyph-name="gdotaccent" unicode="&#x121;" horiz-adv-x="1287" 
d="M479 1212v244h286v-244h-286zM620 -350q-277 0 -427 70t-150 190q0 40 19 74t48.5 56t56.5 36t54 23.5t28 10.5q-1 1 -20 11t-29 16t-28 20.5t-27.5 28.5t-17.5 35.5t-8 45.5q0 59 56 105.5t161 65.5q-102 47 -158 130t-56 175q0 102 65.5 178t178.5 115t258 39
q101 0 171.5 -21t136.5 -62q227 90 311 125l-2 -231l-182 -30q22 -60 22 -112q0 -147 -126.5 -248.5t-352.5 -101.5q-68 0 -104 4q-106 -5 -106 -44q0 -24 40 -32t146 -14q19 -1 94 -5.5t126 -7.5q189 -12 287.5 -93t98.5 -210q0 -155 -145 -248.5t-419 -93.5zM611 561
q86 0 137 46.5t51 126.5q0 83 -51.5 133.5t-136.5 50.5t-137 -50.5t-52 -133.5q0 -79 50.5 -126t138.5 -47zM668 -183q122 0 176.5 29.5t54.5 88.5q0 48 -42 78.5t-119 35.5l-242 17q-70 4 -115 -32.5t-45 -88.5q0 -66 80.5 -97t251.5 -31z" />
    <glyph glyph-name="uni0122" unicode="&#x122;" horiz-adv-x="1554" 
d="M765 -20q-306 0 -486.5 204.5t-180.5 551.5q0 351 187 558t496 207q128 0 240.5 -43t190 -114t124 -163.5t50.5 -190.5h-315q-22 111 -101 184.5t-196 73.5q-76 0 -138.5 -28.5t-110.5 -87.5t-74.5 -157.5t-26.5 -230.5q0 -114 20 -202t53.5 -143.5t81.5 -91.5t98 -50
t109 -14q122 0 200.5 73.5t91.5 162.5l12 90h-307v207l620 -3v-773h-204v194q-34 -44 -68.5 -77t-86 -67t-122.5 -52t-157 -18zM628 -451l93 153l-82 10v192h255v-160l-161 -195h-105z" />
    <glyph glyph-name="uni0123" unicode="&#x123;" horiz-adv-x="1287" 
d="M460 1217v206l117 160h112l-117 -174h102v-192h-214zM620 -350q-277 0 -427 70t-150 190q0 40 19 74t48.5 56t56.5 36t54 23.5t28 10.5q-1 1 -20 11t-29 16t-28 20.5t-27.5 28.5t-17.5 35.5t-8 45.5q0 59 56 105.5t161 65.5q-102 47 -158 130t-56 175q0 102 65.5 178
t178.5 115t258 39q101 0 171.5 -21t136.5 -62q227 90 311 125l-2 -231l-182 -30q22 -60 22 -112q0 -147 -126.5 -248.5t-352.5 -101.5q-68 0 -104 4q-106 -5 -106 -44q0 -24 40 -32t146 -14q19 -1 94 -5.5t126 -7.5q189 -12 287.5 -93t98.5 -210q0 -155 -145 -248.5
t-419 -93.5zM611 561q86 0 137 46.5t51 126.5q0 83 -51.5 133.5t-136.5 50.5t-137 -50.5t-52 -133.5q0 -79 50.5 -126t138.5 -47zM668 -183q122 0 176.5 29.5t54.5 88.5q0 48 -42 78.5t-119 35.5l-242 17q-70 4 -115 -32.5t-45 -88.5q0 -66 80.5 -97t251.5 -31z" />
    <glyph glyph-name="Hcircumflex" unicode="&#x124;" horiz-adv-x="1576" 
d="M923 1609l-136 143l-149 -143h-221l270 265h206l264 -265h-234zM1112 636h-648v-636h-298v1481h298v-594h648v594h299v-1481h-299v636z" />
    <glyph glyph-name="hcircumflex" unicode="&#x125;" horiz-adv-x="1213" 
d="M408 1605l-136 143l-149 -143h-222l270 265h207l263 -265h-233zM128 0v1522h297v-616q111 159 304 159q158 0 264 -90.5t106 -245.5v-729h-300v685q0 70 -50.5 109.5t-126.5 39.5q-79 0 -137 -42t-58 -116v-676h-299z" />
    <glyph glyph-name="Hbar" unicode="&#x126;" horiz-adv-x="1688" 
d="M1177 636h-649v-636h-299v1122h-194v168h194v191h299v-191h649v191h299v-191h178v-168h-178v-1122h-299v636zM528 887h649v235h-649v-235z" />
    <glyph glyph-name="hbar" unicode="&#x127;" horiz-adv-x="1266" 
d="M181 0v1188h-140v168h140v166h297v-166h252v-168h-252v-282q111 159 304 159q158 0 264 -90.5t106 -245.5v-729h-299v685q0 70 -50.5 109.5t-126.5 39.5q-80 0 -138 -42t-58 -116v-676h-299z" />
    <glyph glyph-name="Itilde" unicode="&#x128;" horiz-adv-x="629" 
d="M675 1722q-85 -71 -207 -71q-58 0 -150 28t-143 28q-49 0 -83.5 -15t-77.5 -51l-46 157q43 45 88 69t109 24q60 0 159.5 -31t142.5 -31q78 0 171 71zM166 1481h298v-1481h-298v1481z" />
    <glyph glyph-name="itilde" unicode="&#x129;" horiz-adv-x="696" 
d="M701 1300q-85 -71 -206 -71q-58 0 -150 28t-143 28q-49 0 -84 -15t-77 -50l-46 156q43 45 87.5 69t108.5 24q60 0 160 -31t144 -31q77 0 170 71zM481 1059v-1059h-285v1059h285z" />
    <glyph glyph-name="Imacron" unicode="&#x12a;" horiz-adv-x="629" 
d="M676 1847v-191h-720v191h720zM166 1481h298v-1481h-298v1481z" />
    <glyph glyph-name="imacron" unicode="&#x12b;" horiz-adv-x="717" 
d="M718 1425v-191h-720v191h720zM498 1059v-1059h-287v1059h287z" />
    <glyph glyph-name="Ibreve" unicode="&#x12c;" horiz-adv-x="629" 
d="M675 1865q-25 -124 -125 -192.5t-235 -68.5q-134 0 -233 68t-125 193h188q17 -52 61 -83.5t109 -31.5q64 0 109 31.5t63 83.5h188zM166 1481h298v-1481h-298v1481z" />
    <glyph glyph-name="ibreve" unicode="&#x12d;" horiz-adv-x="541" 
d="M634 1443q-25 -124 -125 -192.5t-235 -68.5q-134 0 -233 68t-125 193h188q17 -52 61.5 -83.5t108.5 -31.5t109.5 31.5t62.5 83.5h188zM414 1059v-1059h-286v1059h286z" />
    <glyph glyph-name="Iogonek" unicode="&#x12e;" horiz-adv-x="629" 
d="M56 -187q0 60 40.5 105t144.5 82h-75v1481h298v-1481h-52l50 -1q-105 -39 -147.5 -73.5t-42.5 -76.5q0 -65 74 -65q76 0 149 45v-135q-31 -20 -90.5 -34.5t-124.5 -14.5q-106 0 -165 43.5t-59 124.5z" />
    <glyph glyph-name="iogonek" unicode="&#x12f;" horiz-adv-x="541" 
d="M132 1212v244h286v-244h-286zM12 -177q0 56 34 99t123 78h-41v1059h286v-1050h4q-1 -1 -4 -1v-8h-20q-92 -36 -129 -68t-37 -72q0 -66 74 -66q71 0 149 45v-135q-31 -20 -91.5 -34.5t-125.5 -14.5q-105 0 -163.5 43t-58.5 125z" />
    <glyph glyph-name="Idotaccent" unicode="&#x130;" horiz-adv-x="629" 
d="M173 1634v244h286v-244h-286zM166 1481h298v-1481h-298v1481z" />
    <glyph glyph-name="dotlessi" unicode="&#x131;" horiz-adv-x="541" 
d="M414 1059v-1059h-286v1059h286z" />
    <glyph glyph-name="Jcircumflex" unicode="&#x134;" horiz-adv-x="823" 
d="M668 1605l-136 143l-149 -143h-222l271 265h206l263 -265h-233zM690 412q0 -112 -16.5 -188t-58 -133.5t-116.5 -84t-188 -26.5q-130 0 -255 32l6 274q9 -2 31.5 -8t38 -9.5t39 -6.5t45.5 -3q100 0 137.5 53t37.5 180v989h299v-1069z" />
    <glyph glyph-name="jcircumflex" unicode="&#x135;" horiz-adv-x="588" 
d="M444 1183l-135 143l-149 -143h-222l270 265h207l263 -265h-234zM461 7q0 -175 -86.5 -261t-272.5 -86q-50 0 -83 7t-42 13t-9 10l-1 199l81 9q62 8 88 34t26 78v1049h299v-1052z" />
    <glyph glyph-name="uni0136" unicode="&#x136;" horiz-adv-x="1468" 
d="M1413 0h-326l-392 689l-219 -264v-425h-310v1481h310v-678l540 678h343l-450 -574zM580 -451l93 153l-82 10v192h255v-160l-161 -195h-105z" />
    <glyph glyph-name="uni0137" unicode="&#x137;" horiz-adv-x="1186" 
d="M1151 0h-298l-286 457l-140 -150v-307h-299v1522h299v-902l389 439h322l-385 -422zM458 -451l94 153l-82 10v192h254v-160l-160 -195h-106z" />
    <glyph glyph-name="kgreenlandic" unicode="&#x138;" horiz-adv-x="1230" 
d="M1195 0h-342l-242 486l-184 -179v-307h-299v1059h299v-468l432 468h304l-352 -356z" />
    <glyph glyph-name="Lacute" unicode="&#x139;" horiz-adv-x="1182" 
d="M414 1903h307l-303 -298h-215zM166 1481h301v-1228h643v-253h-944v1481z" />
    <glyph glyph-name="lacute" unicode="&#x13a;" horiz-adv-x="673" 
d="M376 1987h308l-303 -298h-216zM466 -18q-90 0 -155 19t-99.5 47t-54 73t-24.5 83.5t-5 92.5v1225h293v-1188q0 -62 27 -97t93 -42l50 -4v-184q-73 -25 -125 -25z" />
    <glyph glyph-name="uni013B" unicode="&#x13b;" horiz-adv-x="1182" 
d="M166 1481h301v-1228h643v-253h-944v1481zM490 -451l95 153l-82 10v192h254v-160l-160 -195h-107z" />
    <glyph glyph-name="uni013C" unicode="&#x13c;" horiz-adv-x="673" 
d="M466 -18q-90 0 -155 19t-99.5 47t-54 73t-24.5 83.5t-5 92.5v1225h293v-1188q0 -62 27 -97t93 -42l50 -4v-184q-73 -25 -125 -25zM131 -451l94 154l-83 9v193h255v-160l-159 -196h-107z" />
    <glyph glyph-name="Lcaron" unicode="&#x13d;" horiz-adv-x="1182" 
d="M884 1038l83 206l-73 12v229h205v-239l-88 -208h-127zM166 1481h301v-1228h643v-253h-944v1481z" />
    <glyph glyph-name="lcaron" unicode="&#x13e;" horiz-adv-x="673" 
d="M466 -18q-90 0 -155 19t-99.5 47t-54 73t-24.5 83.5t-5 92.5v1225h293v-1188q0 -62 27 -97t93 -42l50 -4v-184q-73 -25 -125 -25zM537 1042l83 207l-73 13v227h205v-239l-88 -208h-127z" />
    <glyph glyph-name="Ldot" unicode="&#x13f;" horiz-adv-x="1182" 
d="M166 1481h301v-1228h643v-253h-944v1481zM1101 969v-295h-306v295h306z" />
    <glyph glyph-name="ldot" unicode="&#x140;" horiz-adv-x="850" 
d="M466 -18q-90 0 -155 19t-99.5 47t-54 73t-24.5 83.5t-5 92.5v1225h293v-1188q0 -62 27 -97t93 -42l50 -4v-184q-73 -25 -125 -25zM869 724v-294h-306v294h306z" />
    <glyph glyph-name="Lslash" unicode="&#x141;" horiz-adv-x="1208" 
d="M818 1040v-236l-326 -90v-461h643v-253h-945v630l-171 -48v247l171 45l1 607h301v-527z" />
    <glyph glyph-name="lslash" unicode="&#x142;" horiz-adv-x="759" 
d="M541 -18q-90 0 -155 19t-99.5 47t-54 73t-24.5 83.5t-5 92.5v106l-131 -94v256l131 92v865h293v-658l169 119v-244l-169 -123v-282q0 -62 26.5 -97t92.5 -42l50 -4v-184q-71 -25 -124 -25z" />
    <glyph glyph-name="Nacute" unicode="&#x143;" horiz-adv-x="1601" 
d="M902 1903h308l-303 -298h-216zM1138 1481h299v-1481h-270l-703 1019v-1019h-298v1481h296l676 -980v980z" />
    <glyph glyph-name="nacute" unicode="&#x144;" horiz-adv-x="1214" 
d="M722 1481h308l-304 -298h-215zM128 0v1059h294v-150q99 159 307 159q75 0 140 -21.5t117.5 -64.5t83 -116t30.5 -168v-698h-299v662q0 83 -49.5 127.5t-126.5 44.5q-80 0 -139 -41.5t-59 -114.5v-678h-299z" />
    <glyph glyph-name="uni0145" unicode="&#x145;" horiz-adv-x="1601" 
d="M1138 1481h299v-1481h-270l-703 1019v-1019h-298v1481h296l676 -980v980zM646 -451l93 153l-82 10v192h254v-160l-159 -195h-106z" />
    <glyph glyph-name="uni0146" unicode="&#x146;" horiz-adv-x="1214" 
d="M128 0v1059h294v-150q99 159 307 159q75 0 140 -21.5t117.5 -64.5t83 -116t30.5 -168v-698h-299v662q0 83 -49.5 127.5t-126.5 44.5q-80 0 -139 -41.5t-59 -114.5v-678h-299zM475 -451l93 153l-82 10v192h254v-160l-159 -195h-106z" />
    <glyph glyph-name="Ncaron" unicode="&#x147;" horiz-adv-x="1601" 
d="M696 1605l-269 267h222l150 -154l135 154h233l-263 -267h-208zM1138 1481h299v-1481h-270l-703 1019v-1019h-298v1481h296l676 -980v980z" />
    <glyph glyph-name="ncaron" unicode="&#x148;" horiz-adv-x="1214" 
d="M516 1183l-270 267h222l150 -154l135 154h234l-264 -267h-207zM128 0v1059h294v-150q99 159 307 159q75 0 140 -21.5t117.5 -64.5t83 -116t30.5 -168v-698h-299v662q0 83 -49.5 127.5t-126.5 44.5q-80 0 -139 -41.5t-59 -114.5v-678h-299z" />
    <glyph glyph-name="Eng" unicode="&#x14a;" horiz-adv-x="1604" 
d="M1437 -59q0 -89 -10 -154.5t-35.5 -120t-68 -88t-108.5 -52t-157 -18.5q-126 0 -255 33l6 274q9 -2 31.5 -8t38 -9.5t39 -6.5t45.5 -3q100 0 138 53t38 179v22l-675 977v-1019h-298v1481h296l676 -980v980h299v-1353v-187z" />
    <glyph glyph-name="eng" unicode="&#x14b;" horiz-adv-x="1228" 
d="M751 -340q-51 0 -81 5.5t-36.5 10.5t-6.5 9v204l67 6q58 5 83 30t25 81v708q0 69 -38.5 108t-112.5 39q-119 0 -221 -128v-733h-302l4 1059h292v-164q91 92 177.5 138t182.5 46q144 0 230.5 -86t86.5 -228v-751q0 -164 -94.5 -259t-255.5 -95z" />
    <glyph glyph-name="Omacron" unicode="&#x14c;" horiz-adv-x="1557" 
d="M1140 1847v-191h-720v191h720zM781 -20q-316 0 -499.5 202.5t-183.5 554.5q0 353 185.5 558.5t497.5 205.5q311 0 494.5 -205t183.5 -559q0 -351 -182.5 -554t-495.5 -203zM781 225q169 0 261.5 123t92.5 385q0 268 -93 395t-261 127t-261.5 -127.5t-93.5 -394.5
q0 -261 93.5 -384.5t261.5 -123.5z" />
    <glyph glyph-name="omacron" unicode="&#x14d;" horiz-adv-x="1178" 
d="M950 1425v-191h-720v191h720zM590 -20q-234 0 -373 146.5t-139 396.5q0 252 139.5 404t373.5 152t372.5 -151t138.5 -405q0 -243 -137 -393t-375 -150zM591 202q75 0 125.5 47t71.5 119t21 166q0 67 -11 122.5t-35.5 102.5t-68 73.5t-103.5 26.5q-58 0 -101.5 -25
t-69 -70t-38 -102.5t-12.5 -127.5q0 -66 11.5 -122.5t36 -105t69 -76.5t104.5 -28z" />
    <glyph glyph-name="Obreve" unicode="&#x14e;" horiz-adv-x="1557" 
d="M1140 1865q-26 -124 -125.5 -192.5t-235.5 -68.5q-134 0 -233 68t-125 193h189q15 -52 60 -83.5t109 -31.5t109.5 31.5t62.5 83.5h189zM781 -20q-316 0 -499.5 202.5t-183.5 554.5q0 353 185.5 558.5t497.5 205.5q311 0 494.5 -205t183.5 -559q0 -351 -182.5 -554
t-495.5 -203zM781 225q169 0 261.5 123t92.5 385q0 268 -93 395t-261 127t-261.5 -127.5t-93.5 -394.5q0 -261 93.5 -384.5t261.5 -123.5z" />
    <glyph glyph-name="obreve" unicode="&#x14f;" horiz-adv-x="1178" 
d="M949 1443q-25 -124 -124.5 -192.5t-234.5 -68.5t-234 68t-125 193h189q17 -52 61 -83.5t109 -31.5q64 0 109 31.5t63 83.5h187zM590 -20q-234 0 -373 146.5t-139 396.5q0 252 139.5 404t373.5 152t372.5 -151t138.5 -405q0 -243 -137 -393t-375 -150zM591 202
q75 0 125.5 47t71.5 119t21 166q0 67 -11 122.5t-35.5 102.5t-68 73.5t-103.5 26.5q-58 0 -101.5 -25t-69 -70t-38 -102.5t-12.5 -127.5q0 -66 11.5 -122.5t36 -105t69 -76.5t104.5 -28z" />
    <glyph glyph-name="Ohungarumlaut" unicode="&#x150;" horiz-adv-x="1557" 
d="M699 1903h273l-263 -298h-215zM1107 1903h283l-320 -298h-215zM781 -20q-316 0 -499.5 202.5t-183.5 554.5q0 353 185.5 558.5t497.5 205.5q311 0 494.5 -205t183.5 -559q0 -351 -182.5 -554t-495.5 -203zM781 225q169 0 261.5 123t92.5 385q0 268 -93 395t-261 127
t-261.5 -127.5t-93.5 -394.5q0 -261 93.5 -384.5t261.5 -123.5z" />
    <glyph glyph-name="ohungarumlaut" unicode="&#x151;" horiz-adv-x="1178" 
d="M509 1481h273l-263 -298h-216zM918 1481h281l-319 -298h-215zM590 -20q-234 0 -373 146.5t-139 396.5q0 252 139.5 404t373.5 152t372.5 -151t138.5 -405q0 -243 -137 -393t-375 -150zM591 202q75 0 125.5 47t71.5 119t21 166q0 67 -11 122.5t-35.5 102.5t-68 73.5
t-103.5 26.5q-58 0 -101.5 -25t-69 -70t-38 -102.5t-12.5 -127.5q0 -66 11.5 -122.5t36 -105t69 -76.5t104.5 -28z" />
    <glyph glyph-name="OE" unicode="&#x152;" horiz-adv-x="2308" 
d="M781 -20q-316 0 -499.5 202.5t-183.5 554.5q0 353 185.5 558.5t497.5 205.5q230 0 393 -115v95h1017l-2 -252h-714v-360h620v-246h-622v-368l729 -1v-254h-1028v92q-160 -112 -393 -112zM781 225q169 0 261.5 123t92.5 385q0 268 -93 395t-261 127t-261.5 -127.5
t-93.5 -394.5q0 -261 93.5 -384.5t261.5 -123.5z" />
    <glyph glyph-name="oe" unicode="&#x153;" horiz-adv-x="1912" 
d="M590 -20q-234 0 -373 146.5t-139 396.5q0 252 139.5 404t373.5 152q235 0 372 -150q140 150 368 150q237 0 365.5 -146.5t128.5 -390.5v-81h-711q-1 -122 59 -193.5t166 -71.5q80 0 136.5 34.5t78.5 105.5h270q-17 -109 -90 -191.5t-174 -123.5t-213 -41q-239 0 -384 147
q-139 -147 -373 -147zM1113 639h432q0 101 -55.5 166t-158.5 65q-99 0 -158.5 -69t-59.5 -162zM591 202q75 0 125.5 47t71.5 119t21 166q0 67 -11 122.5t-35.5 102.5t-68 73.5t-103.5 26.5q-58 0 -101.5 -25t-69 -70t-38 -102.5t-12.5 -127.5q0 -66 11.5 -122.5t36 -105
t69 -76.5t104.5 -28z" />
    <glyph glyph-name="Racute" unicode="&#x154;" horiz-adv-x="1425" 
d="M799 1903h308l-304 -298h-215zM1315 0h-310l-241 570h-300v-570h-298v1481h625q256 0 382 -119.5t126 -323.5q0 -84 -20.5 -153t-58 -118t-81.5 -83.5t-100 -62.5zM737 801q119 0 189.5 63.5t70.5 166.5q0 100 -67 160.5t-171 60.5h-295v-451h273z" />
    <glyph glyph-name="racute" unicode="&#x155;" horiz-adv-x="843" 
d="M561 1481h308l-303 -298h-216zM128 0v1059h288v-251q38 125 126 198t210 73q34 0 46 -6v-285q-14 6 -45 8q-169 14 -247.5 -44.5t-78.5 -171.5v-580h-299z" />
    <glyph glyph-name="uni0156" unicode="&#x156;" horiz-adv-x="1425" 
d="M1315 0h-310l-241 570h-300v-570h-298v1481h625q256 0 382 -119.5t126 -323.5q0 -84 -20.5 -153t-58 -118t-81.5 -83.5t-100 -62.5zM737 801q119 0 189.5 63.5t70.5 166.5q0 100 -67 160.5t-171 60.5h-295v-451h273zM575 -451l94 153l-82 10v192h255v-160l-160 -195h-107
z" />
    <glyph glyph-name="uni0157" unicode="&#x157;" horiz-adv-x="843" 
d="M128 0v1059h288v-251q38 125 126 198t210 73q34 0 46 -6v-285q-14 6 -45 8q-169 14 -247.5 -44.5t-78.5 -171.5v-580h-299zM137 -451l93 153l-82 10v192h254v-160l-159 -195h-106z" />
    <glyph glyph-name="Rcaron" unicode="&#x158;" horiz-adv-x="1425" 
d="M592 1605l-269 267h222l150 -154l134 154h235l-264 -267h-208zM1315 0h-310l-241 570h-300v-570h-298v1481h625q256 0 382 -119.5t126 -323.5q0 -84 -20.5 -153t-58 -118t-81.5 -83.5t-100 -62.5zM737 801q119 0 189.5 63.5t70.5 166.5q0 100 -67 160.5t-171 60.5h-295
v-451h273z" />
    <glyph glyph-name="rcaron" unicode="&#x159;" horiz-adv-x="843" 
d="M355 1183l-269 267h222l150 -154l135 154h233l-263 -267h-208zM128 0v1059h288v-251q38 125 126 198t210 73q34 0 46 -6v-285q-14 6 -45 8q-169 14 -247.5 -44.5t-78.5 -171.5v-580h-299z" />
    <glyph glyph-name="Sacute" unicode="&#x15a;" horiz-adv-x="1420" 
d="M816 1903h308l-303 -298h-216zM722 -20q-112 0 -216.5 28t-191.5 81.5t-144 139.5t-68 194h307q22 -99 106 -154t206 -55q130 0 214.5 48t84.5 138q0 78 -65.5 121t-185.5 67l-256 52q-172 33 -269 136.5t-99 269.5q-1 136 74.5 240t205 158.5t290.5 54.5
q140 0 252.5 -34.5t185.5 -95.5t112 -142t41 -176h-300q-22 211 -286 211q-119 0 -190 -50t-71 -132q0 -67 44.5 -106t159.5 -64l253 -52q404 -78 404 -456q0 -182 -166.5 -302t-431.5 -120z" />
    <glyph glyph-name="sacute" unicode="&#x15b;" horiz-adv-x="1080" 
d="M659 1481h309l-304 -298h-215zM554 -20q-86 0 -163 20.5t-142.5 62t-110.5 111t-59 160.5h258q13 -53 50 -88.5t79 -48.5t87 -13q89 0 140 28t51 83q0 43 -31.5 68.5t-102.5 38.5l-186 39q-311 65 -312 303q-1 148 116 241.5t328 93.5q197 0 313.5 -87t118.5 -241h-250
q-11 61 -60.5 94.5t-125.5 33.5q-80 0 -128.5 -29t-48.5 -83q0 -41 39.5 -65.5t128.5 -42.5l172 -38q68 -17 120 -45.5t82.5 -60.5t50 -70t26 -70t6.5 -64q0 -156 -122 -243.5t-324 -87.5z" />
    <glyph glyph-name="Scircumflex" unicode="&#x15c;" horiz-adv-x="1420" 
d="M848 1605l-135 143l-150 -143h-222l270 265h207l263 -265h-233zM722 -20q-112 0 -216.5 28t-191.5 81.5t-144 139.5t-68 194h307q22 -99 106 -154t206 -55q130 0 214.5 48t84.5 138q0 78 -65.5 121t-185.5 67l-256 52q-172 33 -269 136.5t-99 269.5q-1 136 74.5 240
t205 158.5t290.5 54.5q140 0 252.5 -34.5t185.5 -95.5t112 -142t41 -176h-300q-22 211 -286 211q-119 0 -190 -50t-71 -132q0 -67 44.5 -106t159.5 -64l253 -52q404 -78 404 -456q0 -182 -166.5 -302t-431.5 -120z" />
    <glyph glyph-name="scircumflex" unicode="&#x15d;" horiz-adv-x="1080" 
d="M690 1183l-134 143l-150 -143h-222l271 265h205l265 -265h-235zM554 -20q-86 0 -163 20.5t-142.5 62t-110.5 111t-59 160.5h258q13 -53 50 -88.5t79 -48.5t87 -13q89 0 140 28t51 83q0 43 -31.5 68.5t-102.5 38.5l-186 39q-311 65 -312 303q-1 148 116 241.5t328 93.5
q197 0 313.5 -87t118.5 -241h-250q-11 61 -60.5 94.5t-125.5 33.5q-80 0 -128.5 -29t-48.5 -83q0 -41 39.5 -65.5t128.5 -42.5l172 -38q68 -17 120 -45.5t82.5 -60.5t50 -70t26 -70t6.5 -64q0 -156 -122 -243.5t-324 -87.5z" />
    <glyph glyph-name="Scedilla" unicode="&#x15e;" horiz-adv-x="1420" 
d="M945 -269q0 -75 -71.5 -120.5t-173.5 -45.5q-145 0 -235 55l41 100q80 -50 159 -50q47 0 74 17t27 47q0 41 -40 62t-133 22q-14 0 -17.5 3t1.5 16l63 147q-101 10 -192 42t-165.5 85.5t-122.5 133.5t-58 178h307q22 -99 106 -154t206 -55q130 0 214.5 48t84.5 138
q0 78 -65.5 121t-185.5 67l-256 52q-172 33 -269 136.5t-99 269.5q-1 136 74.5 240t205 158.5t290.5 54.5q140 0 252.5 -34.5t185.5 -95.5t112 -142t41 -176h-300q-22 211 -286 211q-119 0 -190 -50t-71 -132q0 -67 44.5 -106t159.5 -64l253 -52q404 -78 404 -457
q0 -171 -151.5 -289.5t-396.5 -130.5l-34 -91q107 -2 157 -49t50 -110z" />
    <glyph glyph-name="scedilla" unicode="&#x15f;" horiz-adv-x="1080" 
d="M783 -269q0 -75 -71.5 -120.5t-173.5 -45.5q-146 0 -236 55l41 100q80 -50 159 -50q47 0 74 17t27 47q0 41 -40 62t-133 22q-14 0 -17.5 3t1.5 16l63 147q-156 19 -265 106t-133 244h258q13 -53 50 -88.5t79 -48.5t87 -13q89 0 140 28t51 83q0 43 -31.5 68.5t-102.5 38.5
l-186 39q-311 65 -312 303q-1 148 116 241.5t328 93.5q197 0 313.5 -87t118.5 -241h-250q-11 61 -60.5 94.5t-125.5 33.5q-80 0 -128.5 -29t-48.5 -83q0 -41 39.5 -65.5t128.5 -42.5l172 -38q68 -17 120 -45.5t82.5 -60.5t50 -70t26 -70t6.5 -64q0 -145 -106 -231.5
t-284 -97.5l-35 -92q107 -2 157.5 -49t50.5 -110z" />
    <glyph glyph-name="Scaron" unicode="&#x160;" horiz-adv-x="1420" 
d="M610 1605l-269 267h222l150 -154l135 154h233l-263 -267h-208zM722 -20q-112 0 -216.5 28t-191.5 81.5t-144 139.5t-68 194h307q22 -99 106 -154t206 -55q130 0 214.5 48t84.5 138q0 78 -65.5 121t-185.5 67l-256 52q-172 33 -269 136.5t-99 269.5q-1 136 74.5 240
t205 158.5t290.5 54.5q140 0 252.5 -34.5t185.5 -95.5t112 -142t41 -176h-300q-22 211 -286 211q-119 0 -190 -50t-71 -132q0 -67 44.5 -106t159.5 -64l253 -52q404 -78 404 -456q0 -182 -166.5 -302t-431.5 -120z" />
    <glyph glyph-name="scaron" unicode="&#x161;" horiz-adv-x="1080" 
d="M454 1183l-271 267h223l150 -154l134 154h235l-265 -267h-206zM554 -20q-86 0 -163 20.5t-142.5 62t-110.5 111t-59 160.5h258q13 -53 50 -88.5t79 -48.5t87 -13q89 0 140 28t51 83q0 43 -31.5 68.5t-102.5 38.5l-186 39q-311 65 -312 303q-1 148 116 241.5t328 93.5
q197 0 313.5 -87t118.5 -241h-250q-11 61 -60.5 94.5t-125.5 33.5q-80 0 -128.5 -29t-48.5 -83q0 -41 39.5 -65.5t128.5 -42.5l172 -38q68 -17 120 -45.5t82.5 -60.5t50 -70t26 -70t6.5 -64q0 -156 -122 -243.5t-324 -87.5z" />
    <glyph glyph-name="uni0162" unicode="&#x162;" horiz-adv-x="1261" 
d="M886 -268q0 -75 -71.5 -120.5t-173.5 -45.5q-145 0 -235 55l40 101q79 -51 158 -51q49 0 76 17t27 47q0 42 -41 62.5t-134 21.5q-14 0 -17 3t1 16l71 162h-101v1214h-447v267h1185v-267h-438v-1214h-67l-41 -109q107 -2 157.5 -49t50.5 -110z" />
    <glyph glyph-name="uni0163" unicode="&#x163;" horiz-adv-x="852" 
d="M733 -257q0 -75 -71.5 -120.5t-173.5 -45.5q-145 0 -235 55l41 102q81 -51 158 -51q49 0 75.5 16.5t26.5 46.5q0 42 -40 62.5t-133 21.5q-14 0 -17.5 3.5t0.5 15.5l67 155q-109 26 -153.5 94t-44.5 176v577h-172v208h182l75 319h213v-318h236v-209h-236l3 -564
q0 -55 20.5 -71.5t73.5 -16.5h142v-185q-60 -25 -185 -25h-26l-33 -86q106 -2 156.5 -49.5t50.5 -110.5z" />
    <glyph glyph-name="Tcaron" unicode="&#x164;" horiz-adv-x="1261" 
d="M546 1605l-270 267h223l150 -154l134 154h235l-264 -267h-208zM39 1214v267h1185v-267h-438v-1214h-300v1214h-447z" />
    <glyph glyph-name="tcaron" unicode="&#x165;" horiz-adv-x="921" 
d="M851 1034l83 207l-73 12v228h204v-239l-87 -208h-127zM767 851h-236l3 -564q0 -55 20.5 -71.5t73.5 -16.5h142v-185q-60 -25 -185 -25q-102 0 -172.5 20t-109 59.5t-54.5 88.5t-16 117v577h-172v208h182l75 319h213v-318h236v-209z" />
    <glyph glyph-name="Tbar" unicode="&#x166;" horiz-adv-x="1261" 
d="M39 1214v267h1185v-267h-438v-385h258v-219h-258v-610h-300v610h-271v219h271v385h-447z" />
    <glyph glyph-name="tbar" unicode="&#x167;" horiz-adv-x="887" 
d="M725 662v-170h-166l1 -205q0 -55 20.5 -71.5t73.5 -16.5h143v-185q-58 -25 -186 -25q-102 0 -172.5 20t-108.5 59.5t-54 88.5t-16 117v218h-188v170h188v189h-172v208h182l75 319h213v-318h236v-209h-236l1 -189h166z" />
    <glyph glyph-name="Utilde" unicode="&#x168;" horiz-adv-x="1482" 
d="M1117 1722q-83 -71 -206 -71q-59 0 -151 28t-143 28q-49 0 -83 -15t-77 -51l-46 157q44 45 88.5 69t108.5 24q60 0 159.5 -31t142.5 -31q77 0 170 71zM1351 564q0 -138 -32.5 -243t-102 -183t-184.5 -118t-274 -40q-160 0 -275 40.5t-184 119t-101 185.5t-32 249v907h304
v-929q0 -160 77 -239.5t211 -79.5t212.5 79t78.5 240v929h302v-917z" />
    <glyph glyph-name="utilde" unicode="&#x169;" horiz-adv-x="1218" 
d="M965 1300q-85 -71 -207 -71q-59 0 -151 28t-143 28q-49 0 -84 -15t-77 -50l-45 156q43 45 88 69t109 24q60 0 159.5 -31t142.5 -31q76 0 171 71zM518 -20q-74 0 -145 23.5t-129 65.5t-93.5 109.5t-35.5 148.5v732h299v-694q0 -76 49 -122t140 -46q89 0 140.5 45.5
t51.5 127.5v689h296v-1059h-226l-35 210q-14 -66 -46.5 -113.5t-77.5 -72t-91 -34.5t-97 -10z" />
    <glyph glyph-name="Umacron" unicode="&#x16a;" horiz-adv-x="1482" 
d="M1118 1847v-191h-720v191h720zM1351 564q0 -138 -32.5 -243t-102 -183t-184.5 -118t-274 -40q-160 0 -275 40.5t-184 119t-101 185.5t-32 249v907h304v-929q0 -160 77 -239.5t211 -79.5t212.5 79t78.5 240v929h302v-917z" />
    <glyph glyph-name="umacron" unicode="&#x16b;" horiz-adv-x="1218" 
d="M966 1425v-191h-720v191h720zM518 -20q-74 0 -145 23.5t-129 65.5t-93.5 109.5t-35.5 148.5v732h299v-694q0 -76 49 -122t140 -46q89 0 140.5 45.5t51.5 127.5v689h296v-1059h-226l-35 210q-14 -66 -46.5 -113.5t-77.5 -72t-91 -34.5t-97 -10z" />
    <glyph glyph-name="Ubreve" unicode="&#x16c;" horiz-adv-x="1482" 
d="M1118 1865q-26 -125 -125 -193t-235 -68q-134 0 -233.5 68t-125.5 193h190q15 -52 60 -83.5t109 -31.5t109.5 31.5t62.5 83.5h188zM1351 564q0 -138 -32.5 -243t-102 -183t-184.5 -118t-274 -40q-160 0 -275 40.5t-184 119t-101 185.5t-32 249v907h304v-929
q0 -160 77 -239.5t211 -79.5t212.5 79t78.5 240v929h302v-917z" />
    <glyph glyph-name="ubreve" unicode="&#x16d;" horiz-adv-x="1218" 
d="M965 1443q-25 -124 -125 -192.5t-235 -68.5q-134 0 -233 68t-125 193h188q17 -52 61 -83.5t109 -31.5q64 0 109 31.5t63 83.5h188zM518 -20q-74 0 -145 23.5t-129 65.5t-93.5 109.5t-35.5 148.5v732h299v-694q0 -76 49 -122t140 -46q89 0 140.5 45.5t51.5 127.5v689h296
v-1059h-226l-35 210q-14 -66 -46.5 -113.5t-77.5 -72t-91 -34.5t-97 -10z" />
    <glyph glyph-name="Uring" unicode="&#x16e;" horiz-adv-x="1482" 
d="M982 1806q0 -93 -65 -157.5t-158 -64.5q-94 0 -158 65.5t-64 160.5q0 90 65 152.5t157 62.5q93 0 158 -64t65 -155zM858 1805q0 43 -29 72.5t-72 29.5q-42 0 -73 -29.5t-31 -72.5q0 -41 31.5 -72.5t72.5 -31.5q42 0 71.5 31t29.5 73zM1351 564q0 -138 -32.5 -243
t-102 -183t-184.5 -118t-274 -40q-160 0 -275 40.5t-184 119t-101 185.5t-32 249v907h304v-929q0 -160 77 -239.5t211 -79.5t212.5 79t78.5 240v929h302v-917z" />
    <glyph glyph-name="uring" unicode="&#x16f;" horiz-adv-x="1218" 
d="M829 1384q0 -93 -65 -157.5t-158 -64.5q-94 0 -158.5 66t-64.5 161q0 90 65 152.5t158 62.5t158 -64t65 -156zM706 1383q0 43 -30 72.5t-72 29.5q-43 0 -73.5 -29.5t-30.5 -72.5q0 -41 31 -72.5t73 -31.5t72 31t30 73zM518 -20q-74 0 -145 23.5t-129 65.5t-93.5 109.5
t-35.5 148.5v732h299v-694q0 -76 49 -122t140 -46q89 0 140.5 45.5t51.5 127.5v689h296v-1059h-226l-35 210q-14 -66 -46.5 -113.5t-77.5 -72t-91 -34.5t-97 -10z" />
    <glyph glyph-name="Uhungarumlaut" unicode="&#x170;" horiz-adv-x="1482" 
d="M678 1903h272l-263 -298h-215zM1085 1903h283l-319 -298h-215zM1351 564q0 -138 -32.5 -243t-102 -183t-184.5 -118t-274 -40q-160 0 -275 40.5t-184 119t-101 185.5t-32 249v907h304v-929q0 -160 77 -239.5t211 -79.5t212.5 79t78.5 240v929h302v-917z" />
    <glyph glyph-name="uhungarumlaut" unicode="&#x171;" horiz-adv-x="1218" 
d="M524 1481h274l-263 -298h-217zM933 1481h281l-319 -298h-215zM518 -20q-74 0 -145 23.5t-129 65.5t-93.5 109.5t-35.5 148.5v732h299v-694q0 -76 49 -122t140 -46q89 0 140.5 45.5t51.5 127.5v689h296v-1059h-226l-35 210q-14 -66 -46.5 -113.5t-77.5 -72t-91 -34.5
t-97 -10z" />
    <glyph glyph-name="Uogonek" unicode="&#x172;" horiz-adv-x="1482" 
d="M543 -175q0 102 116 159q-260 24 -376.5 174t-116.5 416v907h304v-929q0 -160 77 -239.5t211 -79.5t212.5 79t78.5 240v929h302v-917q0 -251 -110 -398t-352 -178q-72 -31 -101 -60.5t-29 -65.5q0 -66 74 -66q73 0 148 45v-136q-31 -19 -91 -33.5t-125 -14.5
q-105 0 -163.5 43t-58.5 125z" />
    <glyph glyph-name="uogonek" unicode="&#x173;" horiz-adv-x="1218" 
d="M518 -20q-74 0 -145 23.5t-129 65.5t-93.5 109.5t-35.5 148.5v732h299v-694q0 -76 49 -122t140 -46q89 0 140.5 45.5t51.5 127.5v689h296v-1059h-33q-92 -36 -128.5 -68t-36.5 -72q0 -66 74 -66q70 0 148 45v-135q-31 -20 -90.5 -34.5t-124.5 -14.5q-106 0 -164.5 43.5
t-58.5 125.5q0 60 40 105.5t146 81.5l-33 199q-14 -66 -46.5 -113.5t-77.5 -72t-91 -34.5t-97 -10z" />
    <glyph glyph-name="Wcircumflex" unicode="&#x174;" horiz-adv-x="1983" 
d="M1124 1605l-135 143l-149 -143h-223l272 265h206l263 -265h-234zM1945 1481l-438 -1481h-238l-279 968l-280 -968h-235l-436 1481h293l275 -978l276 978h216l278 -978l276 978h292z" />
    <glyph glyph-name="wcircumflex" unicode="&#x175;" horiz-adv-x="1623" 
d="M953 1183l-135 143l-149 -143h-223l272 265h206l263 -265h-234zM1589 1059l-348 -1059h-239l-196 641l-198 -641h-231l-343 1059h265l203 -657h7l194 657h215l196 -657h8l197 657h270z" />
    <glyph glyph-name="Ycircumflex" unicode="&#x176;" horiz-adv-x="1367" 
d="M851 1606l-134 143l-150 -143h-222l270 266h207l263 -266h-234zM1348 1481l-515 -858v-623h-299v624l-515 857h324l341 -600l337 600h327z" />
    <glyph glyph-name="ycircumflex" unicode="&#x177;" horiz-adv-x="1153" 
d="M719 1183l-134 143l-151 -143h-221l270 265h206l264 -265h-234zM294 -338q-64 0 -114 9t-68 18l-17 9v190l106 -4q52 -3 92 4.5t60.5 17t37 29t19.5 27t10 24.5l19 58l-411 1015h296l254 -690l256 690h292l-429 -1065q-41 -99 -86 -165.5t-96 -102t-103 -50t-118 -14.5z
" />
    <glyph glyph-name="Ydieresis" unicode="&#x178;" horiz-adv-x="1367" 
d="M815 1635l3 244h281l-3 -244h-281zM338 1635l3 244h281l-4 -244h-280zM1348 1481l-515 -858v-623h-299v624l-515 857h324l341 -600l337 600h327z" />
    <glyph glyph-name="Zacute" unicode="&#x179;" horiz-adv-x="1371" 
d="M841 1903h308l-303 -298h-216zM111 0v145l751 1086h-701v250h1127v-140l-762 -1088h754v-253h-1169z" />
    <glyph glyph-name="zacute" unicode="&#x17a;" horiz-adv-x="1016" 
d="M614 1481h309l-303 -298h-217zM65 0v167l522 683h-496v209h858v-167l-523 -683h526v-209h-887z" />
    <glyph glyph-name="Zdotaccent" unicode="&#x17b;" horiz-adv-x="1371" 
d="M596 1634v244h285v-244h-285zM111 0v145l751 1086h-701v250h1127v-140l-762 -1088h754v-253h-1169z" />
    <glyph glyph-name="zdotaccent" unicode="&#x17c;" horiz-adv-x="1016" 
d="M369 1212v244h285v-244h-285zM65 0v167l522 683h-496v209h858v-167l-523 -683h526v-209h-887z" />
    <glyph glyph-name="Zcaron" unicode="&#x17d;" horiz-adv-x="1371" 
d="M635 1605l-269 267h222l149 -154l135 154h234l-263 -267h-208zM111 0v145l751 1086h-701v250h1127v-140l-762 -1088h754v-253h-1169z" />
    <glyph glyph-name="zcaron" unicode="&#x17e;" horiz-adv-x="1016" 
d="M409 1183l-271 267h223l150 -154l134 154h235l-264 -267h-207zM65 0v167l522 683h-496v209h858v-167l-523 -683h526v-209h-887z" />
    <glyph glyph-name="uni018F" unicode="&#x18f;" horiz-adv-x="1554" 
d="M775 -20q-121 0 -223 30.5t-186.5 96t-143.5 163t-91 237t-32 313.5h1001q0 192 -86.5 297.5t-244.5 105.5q-75 0 -140 -23.5t-106.5 -61t-65 -82.5t-23.5 -88h-336q0 90 48.5 183.5t133 171.5t215 128t280.5 50q320 0 500.5 -196t180.5 -552q0 -192 -50 -340.5
t-141.5 -242.5t-215 -142t-274.5 -48zM775 242q154 0 237 98t85 261l-633 2q0 -164 81.5 -262.5t229.5 -98.5z" />
    <glyph glyph-name="florin" unicode="&#x192;" horiz-adv-x="1062" 
d="M937 1059l-38 -208h-222l-161 -919q-23 -129 -111.5 -202t-225.5 -73h-235l29 201h122q62 1 90.5 30.5t41.5 110.5l151 852h-172l37 208h171l26 152q24 128 112.5 199t222.5 71h244l-33 -199h-135q-44 0 -81 -35.5t-46 -87.5l-17 -100h230z" />
    <glyph glyph-name="Ohorn" unicode="&#x1a0;" horiz-adv-x="1710" 
d="M781 -20q-316 0 -499.5 202.5t-183.5 554.5q0 353 185.5 558.5t497.5 205.5q305 0 487 -196q36 0 57 1.5t44 8t35.5 20.5t24 38t17.5 60t10 88h198q-2 -192 -64 -278.5t-218 -90.5q87 -177 87 -415q0 -351 -182.5 -554t-495.5 -203zM781 225q169 0 261.5 123t92.5 385
q0 268 -93 395t-261 127t-261.5 -127.5t-93.5 -394.5q0 -261 93.5 -384.5t261.5 -123.5z" />
    <glyph glyph-name="ohorn" unicode="&#x1a1;" horiz-adv-x="1312" 
d="M590 -20q-234 0 -373 146.5t-139 396.5q0 252 139.5 404t373.5 152q238 0 377 -155q42 1 66 8t44.5 30t30.5 65t15 113h197q-2 -187 -59.5 -273.5t-202.5 -95.5q43 -111 43 -248q0 -243 -137 -393t-375 -150zM591 202q75 0 125.5 47t71.5 119t21 166q0 67 -11 122.5
t-35.5 102.5t-68 73.5t-103.5 26.5q-58 0 -101.5 -25t-69 -70t-38 -102.5t-12.5 -127.5q0 -66 11.5 -122.5t36 -105t69 -76.5t104.5 -28z" />
    <glyph glyph-name="Uhorn" unicode="&#x1af;" horiz-adv-x="1762" 
d="M1351 564q0 -138 -32.5 -243t-102 -183t-184.5 -118t-274 -40q-160 0 -275 40.5t-184 119t-101 185.5t-32 249v907h304v-929q0 -160 77 -239.5t211 -79.5t212.5 79t78.5 240v929h302v-175q49 2 76 18t44 62t23 135h197q-1 -105 -17.5 -174.5t-56 -116t-104 -64.5
t-162.5 -13v-589z" />
    <glyph glyph-name="uhorn" unicode="&#x1b0;" horiz-adv-x="1454" 
d="M518 -20q-74 0 -145 23.5t-129 65.5t-93.5 109.5t-35.5 148.5v732h299v-694q0 -76 49 -122t140 -46q89 0 140.5 45.5t51.5 127.5v689h296v-135q56 1 84.5 15t47 61t24.5 140h198q-2 -212 -79 -296.5t-275 -71.5v-772h-226l-35 210q-14 -66 -46.5 -113.5t-77.5 -72
t-91 -34.5t-97 -10z" />
    <glyph glyph-name="uni01D4" unicode="&#x1d4;" horiz-adv-x="1218" 
d="M502 1183l-270 267h223l149 -154l135 154h234l-263 -267h-208zM518 -20q-74 0 -145 23.5t-129 65.5t-93.5 109.5t-35.5 148.5v732h299v-694q0 -76 49 -122t140 -46q89 0 140.5 45.5t51.5 127.5v689h296v-1059h-226l-35 210q-14 -66 -46.5 -113.5t-77.5 -72t-91 -34.5
t-97 -10z" />
    <glyph glyph-name="uni01EA" unicode="&#x1ea;" horiz-adv-x="1557" 
d="M582 -178q0 104 120 161q-282 26 -443 225.5t-161 528.5q0 353 185.5 558.5t497.5 205.5q311 0 494.5 -205t183.5 -559q0 -293 -129 -485.5t-359 -249.5q-96 -37 -134.5 -69.5t-38.5 -73.5q0 -66 73 -66q74 0 149 45v-135q-31 -20 -90.5 -34.5t-124.5 -14.5
q-106 0 -164.5 43t-58.5 125zM781 225q169 0 261.5 123t92.5 385q0 268 -93 395t-261 127t-261.5 -127.5t-93.5 -394.5q0 -261 93.5 -384.5t261.5 -123.5z" />
    <glyph glyph-name="uni01EB" unicode="&#x1eb;" horiz-adv-x="1178" 
d="M366 -177q0 50 28.5 90.5t99.5 73.5q-193 29 -304.5 171.5t-111.5 364.5q0 252 139.5 404t373.5 152t372.5 -151t138.5 -405q0 -198 -92.5 -337t-258.5 -185q-93 -36 -130.5 -68.5t-37.5 -72.5q0 -66 73 -66t148 44v-135q-30 -19 -90 -33.5t-125 -14.5q-106 0 -164.5 43
t-58.5 125zM591 202q75 0 125.5 47t71.5 119t21 166q0 67 -11 122.5t-35.5 102.5t-68 73.5t-103.5 26.5q-58 0 -101.5 -25t-69 -70t-38 -102.5t-12.5 -127.5q0 -66 11.5 -122.5t36 -105t69 -76.5t104.5 -28z" />
    <glyph glyph-name="Aringacute" unicode="&#x1fa;" horiz-adv-x="1487" 
d="M56 0l524 1461q-49 57 -49 136q0 70 43 122t111 70l32 136h175l-62 -145q57 -24 92 -74t35 -113q0 -77 -48 -133l523 -1460h-298l-121 343h-534l-123 -343h-300zM741 1487q42 0 73 31.5t31 72.5q0 43 -30.5 72.5t-73.5 29.5q-41 0 -72 -29.5t-31 -72.5q0 -41 31.5 -72.5
t71.5 -31.5zM547 604h393l-196 589z" />
    <glyph glyph-name="aringacute" unicode="&#x1fb;" horiz-adv-x="1160" 
d="M442 -20q-156 0 -256.5 86t-100.5 237q0 176 132 266t409 93l133 2v63q0 152 -175 151q-72 -1 -128 -34t-77 -101h-249q7 130 87 210.5t216 109.5q-53 58 -53 141q0 70 43.5 122.5t111.5 70.5l31 135h174l-60 -146q57 -23 92 -72.5t35 -113.5q0 -78 -50 -133
q289 -53 289 -323v-744h-250l-25 182q-53 -111 -132.5 -156.5t-196.5 -45.5zM591 1094q42 0 72 31.5t30 72.5q0 43 -29.5 72t-72.5 29q-42 0 -73 -29t-31 -72q0 -40 31.5 -72t72.5 -32zM544 176q81 0 147.5 54.5t67.5 122.5v157l-108 -2q-125 -2 -203.5 -43.5t-78.5 -131.5
q0 -72 49.5 -114.5t125.5 -42.5z" />
    <glyph glyph-name="AEacute" unicode="&#x1fc;" horiz-adv-x="2129" 
d="M1470 1903h308l-303 -298h-215zM2023 250v-250h-1064v346h-477l-182 -346h-300l793 1481h1209l-1 -249h-702v-364h608v-245h-608v-373h724zM959 604v681l-364 -681h364z" />
    <glyph glyph-name="aeacute" unicode="&#x1fd;" horiz-adv-x="1870" 
d="M987 1481h308l-303 -298h-216zM442 -20q-156 0 -256.5 86t-100.5 237q0 176 132.5 266t409.5 93l133 2v63q0 74 -46 113t-130 38q-70 -1 -127 -34.5t-78 -100.5h-249q8 160 136 248t332 88q254 0 366 -110q130 110 325 110q237 0 365.5 -146.5t128.5 -390.5v-81h-711
q-2 -122 58.5 -193.5t166.5 -71.5q171 0 215 140h270q-17 -109 -90 -191.5t-174 -123.5t-213 -41q-146 0 -260.5 57.5t-183.5 163.5q-38 -105 -146 -163t-273 -58zM1071 639h432q0 101 -55.5 166t-158.5 65q-99 0 -159 -69t-59 -162zM544 176q90 0 152 60.5t64 132.5v141
l-109 -2q-125 -2 -203.5 -43.5t-78.5 -131.5q0 -72 49.5 -114.5t125.5 -42.5z" />
    <glyph glyph-name="Oslashacute" unicode="&#x1fe;" horiz-adv-x="1589" 
d="M889 1903h308l-303 -298h-216zM176 -28l-132 134l171 177q-109 183 -109 453q0 354 184.5 559.5t497.5 205.5q278 0 454 -165l166 170l130 -132l-178 -186q107 -182 107 -451q0 -352 -183 -554.5t-497 -202.5q-273 0 -449 156zM487 551l547 579q-78 134 -246 134
q-143 0 -220.5 -99.5t-92.5 -304.5q-11 -148 12 -309zM790 220q138 0 213 88.5t91 275.5q15 145 -9 335l-543 -578q80 -121 248 -121z" />
    <glyph glyph-name="oslashacute" unicode="&#x1ff;" horiz-adv-x="1252" 
d="M723 1481h308l-304 -298h-215zM640 -20q-220 0 -357 131l-132 -126l-99 105l144 136q-68 127 -68 297q0 252 139.5 404t373.5 152q204 0 335 -114l114 106l97 -104l-118 -112q83 -139 83 -332q0 -243 -137 -393t-375 -150zM420 534q0 -46 6 -91l366 348q-55 68 -151 68
q-58 0 -101.5 -25t-69 -70t-38 -102.5t-12.5 -127.5zM641 202q75 0 126 47t72 119.5t21 165.5q0 62 -10 113l-375 -355q58 -90 166 -90z" />
    <glyph glyph-name="uni0200" unicode="&#x200;" horiz-adv-x="1487" 
d="M823 1903l206 -298h-215l-264 298h273zM416 1903l252 -298h-215l-320 298h283zM56 0l530 1481h316l530 -1481h-298l-121 343h-534l-123 -343h-300zM547 604h393l-196 589z" />
    <glyph glyph-name="uni0201" unicode="&#x201;" horiz-adv-x="1160" 
d="M680 1481l206 -298h-215l-264 298h273zM272 1481l252 -298h-215l-319 298h282zM442 -20q-156 0 -256.5 86t-100.5 237q0 176 132 266t409 93l133 2v63q0 152 -175 151q-72 -1 -128 -34t-77 -101h-249q8 166 134.5 251t333.5 85q235 0 341.5 -86t106.5 -249v-744h-250
l-25 182q-53 -111 -132.5 -156.5t-196.5 -45.5zM544 176q81 0 147.5 54.5t67.5 122.5v157l-108 -2q-125 -2 -203.5 -43.5t-78.5 -131.5q0 -72 49.5 -114.5t125.5 -42.5z" />
    <glyph glyph-name="uni0202" unicode="&#x202;" horiz-adv-x="1487" 
d="M1102 1630h-189q-17 52 -62.5 84t-109.5 32t-109 -32t-60 -84h-189q26 125 125 193t233 68q136 0 235.5 -68.5t125.5 -192.5zM56 0l530 1481h316l530 -1481h-298l-121 343h-534l-123 -343h-300zM547 604h393l-196 589z" />
    <glyph glyph-name="uni0203" unicode="&#x203;" horiz-adv-x="1160" 
d="M958 1208h-188q-17 52 -62.5 84t-109.5 32t-108.5 -31.5t-61.5 -84.5h-188q26 125 125 193t233 68q135 0 234.5 -68.5t125.5 -192.5zM442 -20q-156 0 -256.5 86t-100.5 237q0 176 132 266t409 93l133 2v63q0 152 -175 151q-72 -1 -128 -34t-77 -101h-249q8 166 134.5 251
t333.5 85q235 0 341.5 -86t106.5 -249v-744h-250l-25 182q-53 -111 -132.5 -156.5t-196.5 -45.5zM544 176q81 0 147.5 54.5t67.5 122.5v157l-108 -2q-125 -2 -203.5 -43.5t-78.5 -131.5q0 -72 49.5 -114.5t125.5 -42.5z" />
    <glyph glyph-name="uni0204" unicode="&#x204;" horiz-adv-x="1299" 
d="M755 1903l206 -298h-216l-264 298h274zM347 1903l252 -298h-215l-319 298h282zM166 0v1481h1017l-1 -252h-716v-360h621v-246h-623v-368l729 -1v-254h-1027z" />
    <glyph glyph-name="uni0205" unicode="&#x205;" horiz-adv-x="1180" 
d="M679 1481l206 -298h-215l-263 298h272zM271 1481l253 -298h-216l-318 298h281zM381 461q-1 -122 59 -193.5t167 -71.5q171 0 215 140h270q-17 -109 -90.5 -191.5t-174.5 -123.5t-213 -41q-237 0 -383 146t-146 391q0 160 60 286.5t178 201t276 74.5q237 0 365.5 -146.5
t128.5 -390.5v-81h-712zM381 639h432q0 101 -55.5 166t-159.5 65q-98 0 -158 -69t-59 -162z" />
    <glyph glyph-name="uni0206" unicode="&#x206;" horiz-adv-x="1299" 
d="M1033 1630h-188q-17 52 -62.5 84t-109.5 32t-109 -32t-60 -84h-190q26 125 125.5 193t233.5 68q135 0 234.5 -68.5t125.5 -192.5zM166 0v1481h1017l-1 -252h-716v-360h621v-246h-623v-368l729 -1v-254h-1027z" />
    <glyph glyph-name="uni0207" unicode="&#x207;" horiz-adv-x="1180" 
d="M957 1208h-187q-18 53 -63.5 84.5t-109.5 31.5t-109 -32t-60 -84h-189q26 125 125 193t233 68q136 0 235 -68t125 -193zM381 461q-1 -122 59 -193.5t167 -71.5q171 0 215 140h270q-17 -109 -90.5 -191.5t-174.5 -123.5t-213 -41q-237 0 -383 146t-146 391q0 160 60 286.5
t178 201t276 74.5q237 0 365.5 -146.5t128.5 -390.5v-81h-712zM381 639h432q0 101 -55.5 166t-159.5 65q-98 0 -158 -69t-59 -162z" />
    <glyph glyph-name="uni0208" unicode="&#x208;" horiz-adv-x="629" 
d="M395 1903l206 -298h-215l-264 298h273zM-12 1903l252 -298h-215l-320 298h283zM166 1481h298v-1481h-298v1481z" />
    <glyph glyph-name="uni0209" unicode="&#x209;" horiz-adv-x="541" 
d="M354 1481l206 -298h-215l-264 298h273zM-53 1481l252 -298h-215l-320 298h283zM414 1059v-1059h-286v1059h286z" />
    <glyph glyph-name="uni020A" unicode="&#x20a;" horiz-adv-x="629" 
d="M674 1630h-189q-17 52 -62.5 84t-109.5 32t-108.5 -31.5t-61.5 -84.5h-188q26 125 125 193t233 68q135 0 235 -68.5t126 -192.5zM166 1481h298v-1481h-298v1481z" />
    <glyph glyph-name="uni020B" unicode="&#x20b;" horiz-adv-x="708" 
d="M712 1208h-189q-17 52 -62.5 84t-109.5 32t-109 -32t-60 -84h-189q26 125 125 193t233 68q135 0 235 -68.5t126 -192.5zM493 1059v-1059h-286v1059h286z" />
    <glyph glyph-name="uni020C" unicode="&#x20c;" horiz-adv-x="1557" 
d="M859 1903l206 -298h-215l-263 298h272zM452 1903l253 -298h-217l-318 298h282zM781 -20q-316 0 -499.5 202.5t-183.5 554.5q0 353 185.5 558.5t497.5 205.5q311 0 494.5 -205t183.5 -559q0 -351 -182.5 -554t-495.5 -203zM781 225q169 0 261.5 123t92.5 385
q0 268 -93 395t-261 127t-261.5 -127.5t-93.5 -394.5q0 -261 93.5 -384.5t261.5 -123.5z" />
    <glyph glyph-name="uni020D" unicode="&#x20d;" horiz-adv-x="1178" 
d="M670 1481l206 -298h-217l-263 298h274zM261 1481l253 -298h-215l-319 298h281zM590 -20q-234 0 -373 146.5t-139 396.5q0 252 139.5 404t373.5 152t372.5 -151t138.5 -405q0 -243 -137 -393t-375 -150zM591 202q75 0 125.5 47t71.5 119t21 166q0 67 -11 122.5
t-35.5 102.5t-68 73.5t-103.5 26.5q-58 0 -101.5 -25t-69 -70t-38 -102.5t-12.5 -127.5q0 -66 11.5 -122.5t36 -105t69 -76.5t104.5 -28z" />
    <glyph glyph-name="uni020E" unicode="&#x20e;" horiz-adv-x="1557" 
d="M1138 1630h-188q-18 53 -63.5 84.5t-109.5 31.5t-109 -32t-60 -84h-189q26 125 125 193t233 68q136 0 235.5 -68.5t125.5 -192.5zM781 -20q-316 0 -499.5 202.5t-183.5 554.5q0 353 185.5 558.5t497.5 205.5q311 0 494.5 -205t183.5 -559q0 -351 -182.5 -554t-495.5 -203
zM781 225q169 0 261.5 123t92.5 385q0 268 -93 395t-261 127t-261.5 -127.5t-93.5 -394.5q0 -261 93.5 -384.5t261.5 -123.5z" />
    <glyph glyph-name="uni020F" unicode="&#x20f;" horiz-adv-x="1178" 
d="M947 1208h-187q-18 52 -63 84t-109 32q-65 0 -109 -31.5t-61 -84.5h-189q26 125 125 193t234 68t234.5 -68.5t124.5 -192.5zM590 -20q-234 0 -373 146.5t-139 396.5q0 252 139.5 404t373.5 152t372.5 -151t138.5 -405q0 -243 -137 -393t-375 -150zM591 202q75 0 125.5 47
t71.5 119t21 166q0 67 -11 122.5t-35.5 102.5t-68 73.5t-103.5 26.5q-58 0 -101.5 -25t-69 -70t-38 -102.5t-12.5 -127.5q0 -66 11.5 -122.5t36 -105t69 -76.5t104.5 -28z" />
    <glyph glyph-name="uni0210" unicode="&#x210;" horiz-adv-x="1425" 
d="M775 1903l206 -298h-215l-264 298h273zM368 1903l252 -298h-216l-319 298h283zM1315 0h-310l-241 570h-300v-570h-298v1481h625q256 0 382 -119.5t126 -323.5q0 -84 -20.5 -153t-58 -118t-81.5 -83.5t-100 -62.5zM737 801q119 0 189.5 63.5t70.5 166.5q0 100 -67 160.5
t-171 60.5h-295v-451h273z" />
    <glyph glyph-name="uni0211" unicode="&#x211;" horiz-adv-x="843" 
d="M538 1481l206 -298h-216l-263 298h273zM130 1481l253 -298h-215l-320 298h282zM128 0v1059h288v-251q38 125 126 198t210 73q34 0 46 -6v-285q-14 6 -45 8q-169 14 -247.5 -44.5t-78.5 -171.5v-580h-299z" />
    <glyph glyph-name="uni0212" unicode="&#x212;" horiz-adv-x="1425" 
d="M1054 1630h-189q-17 52 -62.5 84t-109.5 32t-109 -32t-60 -84h-189q26 125 125 193t233 68q135 0 235 -68.5t126 -192.5zM1315 0h-310l-241 570h-300v-570h-298v1481h625q256 0 382 -119.5t126 -323.5q0 -84 -20.5 -153t-58 -118t-81.5 -83.5t-100 -62.5zM737 801
q119 0 189.5 63.5t70.5 166.5q0 100 -67 160.5t-171 60.5h-295v-451h273z" />
    <glyph glyph-name="uni0213" unicode="&#x213;" horiz-adv-x="843" 
d="M816 1181h-187q-18 52 -63 83t-109 31q-65 0 -109 -31t-61 -83h-189q26 125 125 193t234 68t234.5 -68.5t124.5 -192.5zM128 0v1059h288v-251q38 125 126 198t210 73q34 0 46 -6v-285q-14 6 -45 8q-169 14 -247.5 -44.5t-78.5 -171.5v-580h-299z" />
    <glyph glyph-name="uni0214" unicode="&#x214;" horiz-adv-x="1482" 
d="M838 1903l205 -298h-215l-263 298h273zM430 1903l253 -298h-216l-319 298h282zM1351 564q0 -138 -32.5 -243t-102 -183t-184.5 -118t-274 -40q-160 0 -275 40.5t-184 119t-101 185.5t-32 249v907h304v-929q0 -160 77 -239.5t211 -79.5t212.5 79t78.5 240v929h302v-917z
" />
    <glyph glyph-name="uni0215" unicode="&#x215;" horiz-adv-x="1218" 
d="M685 1481l206 -298h-216l-263 298h273zM276 1481l253 -298h-215l-319 298h281zM518 -20q-74 0 -145 23.5t-129 65.5t-93.5 109.5t-35.5 148.5v732h299v-694q0 -76 49 -122t140 -46q89 0 140.5 45.5t51.5 127.5v689h296v-1059h-226l-35 210q-14 -66 -46.5 -113.5
t-77.5 -72t-91 -34.5t-97 -10z" />
    <glyph glyph-name="uni0216" unicode="&#x216;" horiz-adv-x="1482" 
d="M1116 1630h-187q-18 53 -63.5 84.5t-109.5 31.5t-109 -32t-60 -84h-190q26 125 125.5 193t233.5 68q136 0 235 -68t125 -193zM1351 564q0 -138 -32.5 -243t-102 -183t-184.5 -118t-274 -40q-160 0 -275 40.5t-184 119t-101 185.5t-32 249v907h304v-929q0 -160 77 -239.5
t211 -79.5t212.5 79t78.5 240v929h302v-917z" />
    <glyph glyph-name="uni0217" unicode="&#x217;" horiz-adv-x="1218" 
d="M963 1208h-188q-18 52 -63 84t-109 32q-65 0 -109 -31.5t-61 -84.5h-188q26 125 125 193t233 68q135 0 235 -68.5t125 -192.5zM518 -20q-74 0 -145 23.5t-129 65.5t-93.5 109.5t-35.5 148.5v732h299v-694q0 -76 49 -122t140 -46q89 0 140.5 45.5t51.5 127.5v689h296
v-1059h-226l-35 210q-14 -66 -46.5 -113.5t-77.5 -72t-91 -34.5t-97 -10z" />
    <glyph glyph-name="uni0218" unicode="&#x218;" horiz-adv-x="1420" 
d="M722 -20q-112 0 -216.5 28t-191.5 81.5t-144 139.5t-68 194h307q22 -99 106 -154t206 -55q130 0 214.5 48t84.5 138q0 78 -65.5 121t-185.5 67l-256 52q-172 33 -269 136.5t-99 269.5q-1 136 74.5 240t205 158.5t290.5 54.5q140 0 252.5 -34.5t185.5 -95.5t112 -142
t41 -176h-300q-22 211 -286 211q-119 0 -190 -50t-71 -132q0 -67 44.5 -106t159.5 -64l253 -52q404 -78 404 -456q0 -182 -166.5 -302t-431.5 -120zM571 -451l94 153l-82 10v192h254v-160l-160 -195h-106z" />
    <glyph glyph-name="uni0219" unicode="&#x219;" horiz-adv-x="1080" 
d="M554 -20q-86 0 -163 20.5t-142.5 62t-110.5 111t-59 160.5h258q13 -53 50 -88.5t79 -48.5t87 -13q89 0 140 28t51 83q0 43 -31.5 68.5t-102.5 38.5l-186 39q-311 65 -312 303q-1 148 116 241.5t328 93.5q197 0 313.5 -87t118.5 -241h-250q-11 61 -60.5 94.5t-125.5 33.5
q-80 0 -128.5 -29t-48.5 -83q0 -41 39.5 -65.5t128.5 -42.5l172 -38q68 -17 120 -45.5t82.5 -60.5t50 -70t26 -70t6.5 -64q0 -156 -122 -243.5t-324 -87.5zM409 -451l93 153l-82 10v192h254v-160l-160 -195h-105z" />
    <glyph glyph-name="uni021A" unicode="&#x21a;" horiz-adv-x="1261" 
d="M39 1214v267h1185v-267h-438v-1214h-300v1214h-447zM511 -450l93 153l-82 10v192h255v-159l-161 -196h-105z" />
    <glyph glyph-name="uni021B" unicode="&#x21b;" horiz-adv-x="852" 
d="M767 851h-236l3 -564q0 -55 20.5 -71.5t73.5 -16.5h142v-185q-60 -25 -185 -25q-102 0 -172.5 20t-109 59.5t-54.5 88.5t-16 117v577h-172v208h182l75 319h213v-318h236v-209zM358 -438l95 152l-82 11v192h254v-160l-160 -195h-107z" />
    <glyph glyph-name="uni0237" unicode="&#x237;" horiz-adv-x="588" 
d="M461 7q0 -175 -86.5 -261t-272.5 -86q-50 0 -83 7t-42 13t-9 10l-1 199l81 9q62 8 88 34t26 78v1049h299v-1052z" />
    <glyph glyph-name="uni0259" unicode="&#x259;" horiz-adv-x="1180" 
d="M799 598q2 122 -59 193.5t-167 71.5q-171 0 -215 -140h-269q17 109 90 191.5t174 123.5t213 41q237 0 383 -146t146 -391q0 -160 -59.5 -286.5t-177.5 -201t-276 -74.5q-237 0 -365.5 146.5t-128.5 390.5v81h711zM800 421h-432q0 -102 55.5 -167.5t158.5 -65.5
q99 0 159 69.5t59 163.5z" />
    <glyph glyph-name="uni02BB" unicode="&#x2bb;" horiz-adv-x="521" 
d="M404 1386l-22 -3q-47 -6 -85.5 -45t-38.5 -92v-18l146 -13v-286h-302v254q0 83 40 156t111 112t151 23v-88z" />
    <glyph glyph-name="uni02BC" unicode="&#x2bc;" horiz-adv-x="521" 
d="M102 1022l23 2q47 6 86 45t39 92v19l-148 12v287h302v-254q0 -83 -40 -156t-111 -112t-151 -23v88z" />
    <glyph glyph-name="circumflex" unicode="&#x2c6;" horiz-adv-x="775" 
d="M524 1183l-135 143l-149 -143h-223l271 265h207l263 -265h-234z" />
    <glyph glyph-name="caron" unicode="&#x2c7;" horiz-adv-x="794" 
d="M287 1183l-270 267h223l149 -154l135 154h234l-263 -267h-208z" />
    <glyph glyph-name="breve" unicode="&#x2d8;" horiz-adv-x="780" 
d="M750 1445q-26 -124 -125.5 -192.5t-234.5 -68.5t-233.5 67.5t-124.5 193.5h188q17 -53 61 -84.5t109 -31.5q64 0 109 32t63 84h188z" />
    <glyph glyph-name="dotaccent" unicode="&#x2d9;" horiz-adv-x="306" 
d="M10 1212v244h286v-244h-286z" />
    <glyph glyph-name="ring" unicode="&#x2da;" horiz-adv-x="528" 
d="M481 1369q0 -93 -65 -157.5t-158 -64.5q-94 0 -158 65.5t-64 160.5q0 90 65 152.5t157 62.5q93 0 158 -64t65 -155zM357 1368q0 43 -29 72t-72 29t-73.5 -29t-30.5 -72q0 -41 31 -72.5t73 -31.5t71.5 31t29.5 73z" />
    <glyph glyph-name="ogonek" unicode="&#x2db;" horiz-adv-x="521" 
d="M36 -176q0 62 42 108t154 83l209 -5q-105 -39 -147 -73t-42 -76q0 -66 74 -66q73 0 148 45v-135q-31 -20 -91 -34.5t-125 -14.5q-105 0 -163.5 43t-58.5 125z" />
    <glyph glyph-name="tilde" unicode="&#x2dc;" horiz-adv-x="850" 
d="M775 1300q-85 -71 -207 -71q-58 0 -150 28t-143 28q-49 0 -83 -15t-77 -50l-46 156q43 45 87.5 69t108.5 24q60 0 159.5 -31t142.5 -31q78 0 171 71z" />
    <glyph glyph-name="hungarumlaut" unicode="&#x2dd;" horiz-adv-x="916" 
d="M217 1481h272l-263 -298h-216zM625 1481h281l-318 -298h-216z" />
    <glyph glyph-name="gravecomb" unicode="&#x300;" 
d="M319 1481l211 -298h-216l-303 298h308z" />
    <glyph glyph-name="acutecomb" unicode="&#x301;" 
d="M221 1481h308l-304 -298h-215z" />
    <glyph glyph-name="uni0302" unicode="&#x302;" 
d="M524 1183l-135 143l-149 -143h-223l271 265h207l263 -265h-234z" />
    <glyph glyph-name="tildecomb" unicode="&#x303;" 
d="M775 1300q-85 -71 -207 -71q-58 0 -150 28t-143 28q-49 0 -83 -15t-77 -50l-46 156q43 45 87.5 69t108.5 24q60 0 159.5 -31t142.5 -31q78 0 171 71z" />
    <glyph glyph-name="uni0304" unicode="&#x304;" 
d="M756 1425v-191h-720v191h720z" />
    <glyph glyph-name="uni0306" unicode="&#x306;" 
d="M750 1445q-26 -124 -125.5 -192.5t-234.5 -68.5t-233.5 67.5t-124.5 193.5h188q17 -53 61 -84.5t109 -31.5q64 0 109 32t63 84h188z" />
    <glyph glyph-name="uni0307" unicode="&#x307;" 
d="M10 1212v244h286v-244h-286z" />
    <glyph glyph-name="uni0308" unicode="&#x308;" 
d="M487 1212l3 244h280l-2 -244h-281zM10 1212l3 244h280l-2 -244h-281z" />
    <glyph glyph-name="hookabovecomb" unicode="&#x309;" 
d="M454 1547q94 59 184.5 45.5t137.5 -87.5q57 -86 33 -170t-127 -145l-71 110q42 26 55 59.5t-8 68.5q-19 30 -58.5 33t-76.5 -22z" />
    <glyph glyph-name="uni030A" unicode="&#x30a;" 
d="M481 1369q0 -93 -65 -157.5t-158 -64.5q-94 0 -158 65.5t-64 160.5q0 90 65 152.5t157 62.5q93 0 158 -64t65 -155zM357 1368q0 43 -29 72t-72 29t-73.5 -29t-30.5 -72q0 -41 31 -72.5t73 -31.5t71.5 31t29.5 73z" />
    <glyph glyph-name="uni030B" unicode="&#x30b;" 
d="M217 1481h272l-263 -298h-216zM625 1481h281l-318 -298h-216z" />
    <glyph glyph-name="uni030C" unicode="&#x30c;" 
d="M287 1183l-270 267h223l149 -154l135 154h234l-263 -267h-208z" />
    <glyph glyph-name="uni030F" unicode="&#x30f;" 
d="M700 1481l206 -298h-216l-263 298h273zM292 1481l253 -298h-215l-320 298h282z" />
    <glyph glyph-name="uni0311" unicode="&#x311;" 
d="M738 1208h-187q-17 52 -62.5 84t-109.5 32t-108.5 -31.5t-61.5 -84.5h-189q26 125 125 193t234 68t234.5 -68.5t124.5 -192.5z" />
    <glyph glyph-name="uni031B" unicode="&#x31b;" 
d="M398 1296q-1 -113 -20 -185t-65 -117.5t-121.5 -59.5t-191.5 -1v151q29 -1 53 0t43.5 3.5t35 11t27.5 23t20.5 38t14 57t8.5 79.5h196z" />
    <glyph glyph-name="dotbelowcomb" unicode="&#x323;" 
d="M10 -408v244h286v-244h-286z" />
    <glyph glyph-name="uni0326" unicode="&#x326;" 
d="M5 -451l94 153l-82 10v192h254v-160l-159 -195h-107z" />
    <glyph glyph-name="uni0327" unicode="&#x327;" 
d="M511 -269q0 -75 -71.5 -120.5t-173.5 -45.5q-145 0 -235 55l41 100q78 -50 157 -50q49 0 76 17t27 47q0 41 -40.5 62t-133.5 22q-14 0 -17.5 3t0.5 16l75 173h133l-46 -120q107 -2 157.5 -49t50.5 -110z" />
    <glyph glyph-name="uni0328" unicode="&#x328;" 
d="M36 -176q0 62 42 108t154 83l209 -5q-105 -39 -147 -73t-42 -76q0 -66 74 -66q73 0 148 45v-135q-31 -20 -91 -34.5t-125 -14.5q-105 0 -163.5 43t-58.5 125z" />
    <glyph glyph-name="pi" unicode="&#x3c0;" horiz-adv-x="1381" 
d="M1320 851h-194v-851h-286l-1 851h-323q0 -200 -36 -452t-85 -399h-278q46 179 79 414t33 416q0 21 -17 21h-165v208h1273v-208z" />
    <glyph glyph-name="uni1E0C" unicode="&#x1e0c;" horiz-adv-x="1474" 
d="M166 1481q357 0 442 -2q199 -5 347 -57t240 -148t136.5 -227t44.5 -299q0 -355 -195 -551.5t-583 -196.5h-432v1481zM467 1239v-997h137q99 0 179.5 27.5t145 86t100 158.5t35.5 236q0 251 -118.5 370t-337.5 119h-141zM583 -408v244h285v-244h-285z" />
    <glyph glyph-name="uni1E0D" unicode="&#x1e0d;" horiz-adv-x="1246" 
d="M528 -20q-213 0 -331.5 146.5t-118.5 409.5q0 252 110 397.5t311 145.5q109 0 194 -46.5t125 -117.5v607h300v-1522h-217l-34 217q-15 -48 -40 -87t-64.5 -74.5t-99.5 -55.5t-135 -20zM594 195q115 0 169.5 80.5t54.5 264.5q-3 322 -222 322q-104 0 -165 -78t-61 -244
q0 -172 59 -258.5t165 -86.5zM416 -408v244h284v-244h-284z" />
    <glyph glyph-name="uni1E24" unicode="&#x1e24;" horiz-adv-x="1576" 
d="M1112 636h-648v-636h-298v1481h298v-594h648v594h299v-1481h-299v636zM654 -408v244h286v-244h-286z" />
    <glyph glyph-name="uni1E25" unicode="&#x1e25;" horiz-adv-x="1213" 
d="M128 0v1522h297v-616q111 159 304 159q158 0 264 -90.5t106 -245.5v-729h-300v685q0 70 -50.5 109.5t-126.5 39.5q-79 0 -137 -42t-58 -116v-676h-299zM479 -408v244h286v-244h-286z" />
    <glyph glyph-name="uni1E44" unicode="&#x1e44;" horiz-adv-x="1601" 
d="M657 1634v244h285v-244h-285zM1138 1481h299v-1481h-270l-703 1019v-1019h-298v1481h296l676 -980v980z" />
    <glyph glyph-name="uni1E45" unicode="&#x1e45;" horiz-adv-x="1214" 
d="M476 1212v244h286v-244h-286zM128 0v1059h294v-150q99 159 307 159q75 0 140 -21.5t117.5 -64.5t83 -116t30.5 -168v-698h-299v662q0 83 -49.5 127.5t-126.5 44.5q-80 0 -139 -41.5t-59 -114.5v-678h-299z" />
    <glyph glyph-name="uni1E5A" unicode="&#x1e5a;" horiz-adv-x="1425" 
d="M1315 0h-310l-241 570h-300v-570h-298v1481h625q256 0 382 -119.5t126 -323.5q0 -84 -20.5 -153t-58 -118t-81.5 -83.5t-100 -62.5zM737 801q119 0 189.5 63.5t70.5 166.5q0 100 -67 160.5t-171 60.5h-295v-451h273zM572 -408v244h286v-244h-286z" />
    <glyph glyph-name="uni1E5B" unicode="&#x1e5b;" horiz-adv-x="843" 
d="M128 0v1059h288v-251q38 125 126 198t210 73q34 0 46 -6v-285q-14 6 -45 8q-169 14 -247.5 -44.5t-78.5 -171.5v-580h-299zM134 -408v244h286v-244h-286z" />
    <glyph glyph-name="uni1E62" unicode="&#x1e62;" horiz-adv-x="1420" 
d="M722 -20q-112 0 -216.5 28t-191.5 81.5t-144 139.5t-68 194h307q22 -99 106 -154t206 -55q130 0 214.5 48t84.5 138q0 78 -65.5 121t-185.5 67l-256 52q-172 33 -269 136.5t-99 269.5q-1 136 74.5 240t205 158.5t290.5 54.5q140 0 252.5 -34.5t185.5 -95.5t112 -142
t41 -176h-300q-22 211 -286 211q-119 0 -190 -50t-71 -132q0 -67 44.5 -106t159.5 -64l253 -52q404 -78 404 -456q0 -182 -166.5 -302t-431.5 -120zM568 -408v244h286v-244h-286z" />
    <glyph glyph-name="uni1E63" unicode="&#x1e63;" horiz-adv-x="1080" 
d="M554 -20q-86 0 -163 20.5t-142.5 62t-110.5 111t-59 160.5h258q13 -53 50 -88.5t79 -48.5t87 -13q89 0 140 28t51 83q0 43 -31.5 68.5t-102.5 38.5l-186 39q-311 65 -312 303q-1 148 116 241.5t328 93.5q197 0 313.5 -87t118.5 -241h-250q-11 61 -60.5 94.5t-125.5 33.5
q-80 0 -128.5 -29t-48.5 -83q0 -41 39.5 -65.5t128.5 -42.5l172 -38q68 -17 120 -45.5t82.5 -60.5t50 -70t26 -70t6.5 -64q0 -156 -122 -243.5t-324 -87.5zM406 -408v244h285v-244h-285z" />
    <glyph glyph-name="uni1E6C" unicode="&#x1e6c;" horiz-adv-x="1261" 
d="M39 1214v267h1185v-267h-438v-1214h-300v1214h-447zM508 -406v243h286v-243h-286z" />
    <glyph glyph-name="uni1E6D" unicode="&#x1e6d;" horiz-adv-x="852" 
d="M767 851h-236l3 -564q0 -55 20.5 -71.5t73.5 -16.5h142v-185q-60 -25 -185 -25q-102 0 -172.5 20t-109 59.5t-54.5 88.5t-16 117v577h-172v208h182l75 319h213v-318h236v-209zM356 -394v242h285v-242h-285z" />
    <glyph glyph-name="Wgrave" unicode="&#x1e80;" horiz-adv-x="1983" 
d="M882 1903l211 -298h-216l-304 298h309zM1945 1481l-438 -1481h-238l-279 968l-280 -968h-235l-436 1481h293l275 -978l276 978h216l278 -978l276 978h292z" />
    <glyph glyph-name="wgrave" unicode="&#x1e81;" horiz-adv-x="1623" 
d="M711 1481l211 -298h-216l-304 298h309zM1589 1059l-348 -1059h-239l-196 641l-198 -641h-231l-343 1059h265l203 -657h7l194 657h215l196 -657h8l197 657h270z" />
    <glyph glyph-name="Wacute" unicode="&#x1e82;" horiz-adv-x="1983" 
d="M1093 1903h308l-303 -298h-216zM1945 1481l-438 -1481h-238l-279 968l-280 -968h-235l-436 1481h293l275 -978l276 978h216l278 -978l276 978h292z" />
    <glyph glyph-name="wacute" unicode="&#x1e83;" horiz-adv-x="1623" 
d="M922 1481h308l-303 -298h-216zM1589 1059l-348 -1059h-239l-196 641l-198 -641h-231l-343 1059h265l203 -657h7l194 657h215l196 -657h8l197 657h270z" />
    <glyph glyph-name="Wdieresis" unicode="&#x1e84;" horiz-adv-x="1983" 
d="M1087 1634l4 244h280l-3 -244h-281zM610 1634l3 244h281l-3 -244h-281zM1945 1481l-438 -1481h-238l-279 968l-280 -968h-235l-436 1481h293l275 -978l276 978h216l278 -978l276 978h292z" />
    <glyph glyph-name="wdieresis" unicode="&#x1e85;" horiz-adv-x="1623" 
d="M918 1212l2 244h280l-3 -244h-279zM440 1212l2 244h281l-3 -244h-280zM1589 1059l-348 -1059h-239l-196 641l-198 -641h-231l-343 1059h265l203 -657h7l194 657h215l196 -657h8l197 657h270z" />
    <glyph glyph-name="uni1E92" unicode="&#x1e92;" horiz-adv-x="1371" 
d="M111 0v145l751 1086h-701v250h1127v-140l-762 -1088h754v-253h-1169zM569 -408v244h286v-244h-286z" />
    <glyph glyph-name="uni1E93" unicode="&#x1e93;" horiz-adv-x="1016" 
d="M65 0v167l522 683h-496v209h858v-167l-523 -683h526v-209h-887zM371 -408v244h284v-244h-284z" />
    <glyph glyph-name="uni1EA0" unicode="&#x1ea0;" horiz-adv-x="1487" 
d="M56 0l530 1481h316l530 -1481h-298l-121 343h-534l-123 -343h-300zM547 604h393l-196 589zM602 -408v244h286v-244h-286z" />
    <glyph glyph-name="uni1EA1" unicode="&#x1ea1;" horiz-adv-x="1160" 
d="M442 -20q-156 0 -256.5 86t-100.5 237q0 176 132 266t409 93l133 2v63q0 152 -175 151q-72 -1 -128 -34t-77 -101h-249q8 166 134.5 251t333.5 85q235 0 341.5 -86t106.5 -249v-744h-250l-25 182q-53 -111 -132.5 -156.5t-196.5 -45.5zM544 176q81 0 147.5 54.5
t67.5 122.5v157l-108 -2q-125 -2 -203.5 -43.5t-78.5 -131.5q0 -72 49.5 -114.5t125.5 -42.5zM454 -408v244h285v-244h-285z" />
    <glyph glyph-name="uni1EA2" unicode="&#x1ea2;" horiz-adv-x="1487" 
d="M600 1961q95 59 186 45.5t138 -87.5q57 -87 32.5 -170.5t-127.5 -145.5l-70 111q41 26 54 59.5t-7 68.5q-19 30 -59 32.5t-76 -22.5zM56 0l530 1481h316l530 -1481h-298l-121 343h-534l-123 -343h-300zM547 604h393l-196 589z" />
    <glyph glyph-name="uni1EA3" unicode="&#x1ea3;" horiz-adv-x="1160" 
d="M457 1539q95 59 185.5 45.5t137.5 -87.5q57 -86 33 -170t-127 -146l-71 111q41 26 54.5 59.5t-6.5 68.5q-19 30 -59.5 33t-76.5 -22zM442 -20q-156 0 -256.5 86t-100.5 237q0 176 132 266t409 93l133 2v63q0 152 -175 151q-72 -1 -128 -34t-77 -101h-249q8 166 134.5 251
t333.5 85q235 0 341.5 -86t106.5 -249v-744h-250l-25 182q-53 -111 -132.5 -156.5t-196.5 -45.5zM544 176q81 0 147.5 54.5t67.5 122.5v157l-108 -2q-125 -2 -203.5 -43.5t-78.5 -131.5q0 -72 49.5 -114.5t125.5 -42.5z" />
    <glyph glyph-name="uni1EA4" unicode="&#x1ea4;" horiz-adv-x="1487" 
d="M1132 2122h230l-230 -269h-155zM878 1605l-135 143l-150 -143h-221l270 265h206l264 -265h-234zM56 0l530 1481h316l530 -1481h-298l-121 343h-534l-123 -343h-300zM547 604h393l-196 589z" />
    <glyph glyph-name="uni1EA5" unicode="&#x1ea5;" horiz-adv-x="1160" 
d="M988 1700h231l-231 -268h-155zM734 1183l-135 143l-149 -143h-222l271 265h206l264 -265h-235zM442 -20q-156 0 -256.5 86t-100.5 237q0 176 132 266t409 93l133 2v63q0 152 -175 151q-72 -1 -128 -34t-77 -101h-249q8 166 134.5 251t333.5 85q235 0 341.5 -86
t106.5 -249v-744h-250l-25 182q-53 -111 -132.5 -156.5t-196.5 -45.5zM544 176q81 0 147.5 54.5t67.5 122.5v157l-108 -2q-125 -2 -203.5 -43.5t-78.5 -131.5q0 -72 49.5 -114.5t125.5 -42.5z" />
    <glyph glyph-name="uni1EA6" unicode="&#x1ea6;" horiz-adv-x="1487" 
d="M1065 2121l161 -268h-160l-232 268h231zM878 1605l-135 143l-150 -143h-221l270 265h206l264 -265h-234zM56 0l530 1481h316l530 -1481h-298l-121 343h-534l-123 -343h-300zM547 604h393l-196 589z" />
    <glyph glyph-name="uni1EA7" unicode="&#x1ea7;" horiz-adv-x="1160" 
d="M922 1699l160 -267h-160l-232 267h232zM734 1183l-135 143l-149 -143h-222l271 265h206l264 -265h-235zM442 -20q-156 0 -256.5 86t-100.5 237q0 176 132 266t409 93l133 2v63q0 152 -175 151q-72 -1 -128 -34t-77 -101h-249q8 166 134.5 251t333.5 85q235 0 341.5 -86
t106.5 -249v-744h-250l-25 182q-53 -111 -132.5 -156.5t-196.5 -45.5zM544 176q81 0 147.5 54.5t67.5 122.5v157l-108 -2q-125 -2 -203.5 -43.5t-78.5 -131.5q0 -72 49.5 -114.5t125.5 -42.5z" />
    <glyph glyph-name="uni1EA8" unicode="&#x1ea8;" horiz-adv-x="1487" 
d="M821 2166q95 59 186 45.5t138 -87.5q57 -87 32.5 -171t-127.5 -146l-70 112q41 26 54 59.5t-7 68.5q-19 30 -59 32.5t-76 -22.5zM885 1605l-135 143l-150 -143h-221l270 265h206l264 -265h-234zM56 0l530 1481h316l530 -1481h-298l-121 343h-534l-123 -343h-300zM547 604
h393l-196 589z" />
    <glyph glyph-name="uni1EA9" unicode="&#x1ea9;" horiz-adv-x="1160" 
d="M678 1744q95 59 185 45.5t137 -87.5q57 -86 33 -170.5t-127 -146.5l-70 112q42 26 55 59.5t-8 68.5q-18 30 -58 32.5t-76 -22.5zM741 1183l-135 143l-149 -143h-223l272 265h206l263 -265h-234zM442 -20q-156 0 -256.5 86t-100.5 237q0 176 132 266t409 93l133 2v63
q0 152 -175 151q-72 -1 -128 -34t-77 -101h-249q8 166 134.5 251t333.5 85q235 0 341.5 -86t106.5 -249v-744h-250l-25 182q-53 -111 -132.5 -156.5t-196.5 -45.5zM544 176q81 0 147.5 54.5t67.5 122.5v157l-108 -2q-125 -2 -203.5 -43.5t-78.5 -131.5q0 -72 49.5 -114.5
t125.5 -42.5z" />
    <glyph glyph-name="uni1EAA" unicode="&#x1eaa;" horiz-adv-x="1487" 
d="M1097 2045q-88 -72 -207 -72q-58 0 -150 29t-143 29q-49 0 -83.5 -15.5t-77.5 -51.5l-46 157q43 45 88 69.5t109 24.5q60 0 159.5 -32t142.5 -32q80 0 171 72zM881 1605l-136 143l-149 -143h-221l270 265h206l264 -265h-234zM56 0l530 1481h316l530 -1481h-298l-121 343
h-534l-123 -343h-300zM547 604h393l-196 589z" />
    <glyph glyph-name="uni1EAB" unicode="&#x1eab;" horiz-adv-x="1160" 
d="M953 1623q-88 -72 -207 -72q-59 0 -150.5 29t-142.5 29q-49 0 -84 -15.5t-77 -51.5l-45 157q43 45 87.5 69.5t108.5 24.5q60 0 159.5 -31.5t142.5 -31.5q80 0 170 71zM737 1183l-135 143l-149 -143h-223l271 265h207l263 -265h-234zM442 -20q-156 0 -256.5 86t-100.5 237
q0 176 132 266t409 93l133 2v63q0 152 -175 151q-72 -1 -128 -34t-77 -101h-249q8 166 134.5 251t333.5 85q235 0 341.5 -86t106.5 -249v-744h-250l-25 182q-53 -111 -132.5 -156.5t-196.5 -45.5zM544 176q81 0 147.5 54.5t67.5 122.5v157l-108 -2q-125 -2 -203.5 -43.5
t-78.5 -131.5q0 -72 49.5 -114.5t125.5 -42.5z" />
    <glyph glyph-name="uni1EAC" unicode="&#x1eac;" horiz-adv-x="1487" 
d="M878 1605l-135 143l-150 -143h-221l270 265h206l264 -265h-234zM56 0l530 1481h316l530 -1481h-298l-121 343h-534l-123 -343h-300zM547 604h393l-196 589zM602 -408v244h286v-244h-286z" />
    <glyph glyph-name="uni1EAD" unicode="&#x1ead;" horiz-adv-x="1160" 
d="M734 1183l-135 143l-149 -143h-222l271 265h206l264 -265h-235zM442 -20q-156 0 -256.5 86t-100.5 237q0 176 132 266t409 93l133 2v63q0 152 -175 151q-72 -1 -128 -34t-77 -101h-249q8 166 134.5 251t333.5 85q235 0 341.5 -86t106.5 -249v-744h-250l-25 182
q-53 -111 -132.5 -156.5t-196.5 -45.5zM544 176q81 0 147.5 54.5t67.5 122.5v157l-108 -2q-125 -2 -203.5 -43.5t-78.5 -131.5q0 -72 49.5 -114.5t125.5 -42.5zM454 -408v244h285v-244h-285z" />
    <glyph glyph-name="uni1EAE" unicode="&#x1eae;" horiz-adv-x="1487" 
d="M820 2192h231l-231 -267h-154zM1105 1865q-25 -124 -125 -192.5t-235 -68.5q-134 0 -233 68t-125 193h188q17 -52 61.5 -83.5t108.5 -31.5t110 31.5t63 83.5h187zM56 0l530 1481h316l530 -1481h-298l-121 343h-534l-123 -343h-300zM547 604h393l-196 589z" />
    <glyph glyph-name="uni1EAF" unicode="&#x1eaf;" horiz-adv-x="1160" 
d="M677 1770h230l-230 -267h-156zM962 1443q-25 -124 -125 -192.5t-235 -68.5q-134 0 -233 68t-125 193h188q17 -52 61 -83.5t109 -31.5q64 0 109 31.5t63 83.5h188zM442 -20q-156 0 -256.5 86t-100.5 237q0 176 132 266t409 93l133 2v63q0 152 -175 151q-72 -1 -128 -34
t-77 -101h-249q8 166 134.5 251t333.5 85q235 0 341.5 -86t106.5 -249v-744h-250l-25 182q-53 -111 -132.5 -156.5t-196.5 -45.5zM544 176q81 0 147.5 54.5t67.5 122.5v157l-108 -2q-125 -2 -203.5 -43.5t-78.5 -131.5q0 -72 49.5 -114.5t125.5 -42.5z" />
    <glyph glyph-name="uni1EB0" unicode="&#x1eb0;" horiz-adv-x="1487" 
d="M678 2191l161 -267h-161l-232 267h232zM1105 1865q-25 -124 -125 -192.5t-235 -68.5q-134 0 -233 68t-125 193h188q17 -52 61.5 -83.5t108.5 -31.5t110 31.5t63 83.5h187zM56 0l530 1481h316l530 -1481h-298l-121 343h-534l-123 -343h-300zM547 604h393l-196 589z" />
    <glyph glyph-name="uni1EB1" unicode="&#x1eb1;" horiz-adv-x="1160" 
d="M535 1769l160 -267h-160l-232 267h232zM962 1443q-25 -124 -125 -192.5t-235 -68.5q-134 0 -233 68t-125 193h188q17 -52 61 -83.5t109 -31.5q64 0 109 31.5t63 83.5h188zM442 -20q-156 0 -256.5 86t-100.5 237q0 176 132 266t409 93l133 2v63q0 152 -175 151
q-72 -1 -128 -34t-77 -101h-249q8 166 134.5 251t333.5 85q235 0 341.5 -86t106.5 -249v-744h-250l-25 182q-53 -111 -132.5 -156.5t-196.5 -45.5zM544 176q81 0 147.5 54.5t67.5 122.5v157l-108 -2q-125 -2 -203.5 -43.5t-78.5 -131.5q0 -72 49.5 -114.5t125.5 -42.5z" />
    <glyph glyph-name="uni1EB2" unicode="&#x1eb2;" horiz-adv-x="1487" 
d="M616 2244q95 59 185.5 46t138.5 -87q57 -87 33 -171t-127 -146l-71 111q41 26 54 59.5t-7 69.5q-19 30 -59 32t-76 -23zM1105 1865q-25 -124 -125 -192.5t-235 -68.5q-134 0 -233 68t-125 193h188q17 -52 61.5 -83.5t108.5 -31.5t110 31.5t63 83.5h187zM56 0l530 1481
h316l530 -1481h-298l-121 343h-534l-123 -343h-300zM547 604h393l-196 589z" />
    <glyph glyph-name="uni1EB3" unicode="&#x1eb3;" horiz-adv-x="1160" 
d="M473 1822q95 59 185.5 46t138.5 -87q57 -87 32.5 -171t-127.5 -146l-70 111q41 26 54 59.5t-7 69.5q-19 30 -59 32t-76 -23zM962 1443q-25 -124 -125 -192.5t-235 -68.5q-134 0 -233 68t-125 193h188q17 -52 61 -83.5t109 -31.5q64 0 109 31.5t63 83.5h188zM442 -20
q-156 0 -256.5 86t-100.5 237q0 176 132 266t409 93l133 2v63q0 152 -175 151q-72 -1 -128 -34t-77 -101h-249q8 166 134.5 251t333.5 85q235 0 341.5 -86t106.5 -249v-744h-250l-25 182q-53 -111 -132.5 -156.5t-196.5 -45.5zM544 176q81 0 147.5 54.5t67.5 122.5v157
l-108 -2q-125 -2 -203.5 -43.5t-78.5 -131.5q0 -72 49.5 -114.5t125.5 -42.5z" />
    <glyph glyph-name="uni1EB4" unicode="&#x1eb4;" horiz-adv-x="1487" 
d="M1096 2044q-88 -72 -207 -72q-58 0 -150 29t-143 29q-49 0 -83.5 -15.5t-77.5 -51.5l-46 157q43 45 88 69.5t109 24.5q60 0 159.5 -32t142.5 -32q78 0 171 71zM1105 1865q-25 -124 -125 -192.5t-235 -68.5q-134 0 -233 68t-125 193h188q17 -52 61.5 -83.5t108.5 -31.5
t110 31.5t63 83.5h187zM56 0l530 1481h316l530 -1481h-298l-121 343h-534l-123 -343h-300zM547 604h393l-196 589z" />
    <glyph glyph-name="uni1EB5" unicode="&#x1eb5;" horiz-adv-x="1160" 
d="M952 1622q-88 -72 -207 -72q-59 0 -150.5 29t-142.5 29q-49 0 -84 -15.5t-77 -51.5l-45 157q44 45 88 69.5t108 24.5q60 0 159.5 -31.5t142.5 -31.5q79 0 170 70zM962 1443q-25 -124 -125 -192.5t-235 -68.5q-134 0 -233 68t-125 193h188q17 -52 61 -83.5t109 -31.5
q64 0 109 31.5t63 83.5h188zM442 -20q-156 0 -256.5 86t-100.5 237q0 176 132 266t409 93l133 2v63q0 152 -175 151q-72 -1 -128 -34t-77 -101h-249q8 166 134.5 251t333.5 85q235 0 341.5 -86t106.5 -249v-744h-250l-25 182q-53 -111 -132.5 -156.5t-196.5 -45.5zM544 176
q81 0 147.5 54.5t67.5 122.5v157l-108 -2q-125 -2 -203.5 -43.5t-78.5 -131.5q0 -72 49.5 -114.5t125.5 -42.5z" />
    <glyph glyph-name="uni1EB6" unicode="&#x1eb6;" horiz-adv-x="1487" 
d="M1104 1865q-26 -124 -126 -192.5t-235 -68.5q-134 0 -233 68t-125 193h189q15 -52 60 -83.5t109 -31.5t109.5 31.5t62.5 83.5h189zM56 0l530 1481h316l530 -1481h-298l-121 343h-534l-123 -343h-300zM547 604h393l-196 589zM602 -408v244h286v-244h-286z" />
    <glyph glyph-name="uni1EB7" unicode="&#x1eb7;" horiz-adv-x="1160" 
d="M959 1443q-25 -124 -124.5 -192.5t-234.5 -68.5q-134 0 -233 68t-125 193h188q17 -52 61 -83.5t109 -31.5q64 0 109 31.5t63 83.5h187zM442 -20q-156 0 -256.5 86t-100.5 237q0 176 132 266t409 93l133 2v63q0 152 -175 151q-72 -1 -128 -34t-77 -101h-249
q8 166 134.5 251t333.5 85q235 0 341.5 -86t106.5 -249v-744h-250l-25 182q-53 -111 -132.5 -156.5t-196.5 -45.5zM544 176q81 0 147.5 54.5t67.5 122.5v157l-108 -2q-125 -2 -203.5 -43.5t-78.5 -131.5q0 -72 49.5 -114.5t125.5 -42.5zM454 -408v244h285v-244h-285z" />
    <glyph glyph-name="uni1EB8" unicode="&#x1eb8;" horiz-adv-x="1299" 
d="M166 0v1481h1017l-1 -252h-716v-360h621v-246h-623v-368l729 -1v-254h-1027zM551 -408v244h286v-244h-286z" />
    <glyph glyph-name="uni1EB9" unicode="&#x1eb9;" horiz-adv-x="1180" 
d="M381 461q-1 -122 59 -193.5t167 -71.5q171 0 215 140h270q-17 -109 -90.5 -191.5t-174.5 -123.5t-213 -41q-237 0 -383 146t-146 391q0 160 60 286.5t178 201t276 74.5q237 0 365.5 -146.5t128.5 -390.5v-81h-712zM381 639h432q0 101 -55.5 166t-159.5 65q-98 0 -158 -69
t-59 -162zM462 -408v244h286v-244h-286z" />
    <glyph glyph-name="uni1EBA" unicode="&#x1eba;" horiz-adv-x="1299" 
d="M531 1961q95 59 186 45.5t138 -87.5q57 -86 33 -170t-127 -146l-71 111q41 26 54 59.5t-7 68.5q-19 30 -59 32.5t-76 -22.5zM166 0v1481h1017l-1 -252h-716v-360h621v-246h-623v-368l729 -1v-254h-1027z" />
    <glyph glyph-name="uni1EBB" unicode="&#x1ebb;" horiz-adv-x="1180" 
d="M456 1539q95 59 185.5 45.5t137.5 -87.5q57 -86 33 -170t-127 -146l-71 111q41 26 54.5 59.5t-6.5 68.5q-18 30 -59 33t-77 -22zM381 461q-1 -122 59 -193.5t167 -71.5q171 0 215 140h270q-17 -109 -90.5 -191.5t-174.5 -123.5t-213 -41q-237 0 -383 146t-146 391
q0 160 60 286.5t178 201t276 74.5q237 0 365.5 -146.5t128.5 -390.5v-81h-712zM381 639h432q0 101 -55.5 166t-159.5 65q-98 0 -158 -69t-59 -162z" />
    <glyph glyph-name="uni1EBC" unicode="&#x1ebc;" horiz-adv-x="1299" 
d="M1034 1722q-85 -71 -207 -71q-58 0 -149.5 28t-142.5 28q-49 0 -83.5 -15t-77.5 -51l-46 157q43 45 87.5 69t108.5 24q60 0 159.5 -31t143.5 -31q77 0 170 71zM166 0v1481h1017l-1 -252h-716v-360h621v-246h-623v-368l729 -1v-254h-1027z" />
    <glyph glyph-name="uni1EBD" unicode="&#x1ebd;" horiz-adv-x="1180" 
d="M958 1300q-83 -71 -205 -71q-59 0 -151 28t-143 28q-49 0 -84 -15t-77 -50l-46 156q44 45 89 69t109 24q60 0 159.5 -31t142.5 -31q77 0 170 71zM381 461q-1 -122 59 -193.5t167 -71.5q171 0 215 140h270q-17 -109 -90.5 -191.5t-174.5 -123.5t-213 -41q-237 0 -383 146
t-146 391q0 160 60 286.5t178 201t276 74.5q237 0 365.5 -146.5t128.5 -390.5v-81h-712zM381 639h432q0 101 -55.5 166t-159.5 65q-98 0 -158 -69t-59 -162z" />
    <glyph glyph-name="uni1EBE" unicode="&#x1ebe;" horiz-adv-x="1299" 
d="M1063 2122h230l-230 -269h-155zM809 1605l-134 143l-151 -143h-221l270 265h206l264 -265h-234zM166 0v1481h1017l-1 -252h-716v-360h621v-246h-623v-368l729 -1v-254h-1027z" />
    <glyph glyph-name="uni1EBF" unicode="&#x1ebf;" horiz-adv-x="1180" 
d="M988 1700h230l-230 -268h-155zM733 1183l-134 143l-150 -143h-222l271 265h207l263 -265h-235zM381 461q-1 -122 59 -193.5t167 -71.5q171 0 215 140h270q-17 -109 -90.5 -191.5t-174.5 -123.5t-213 -41q-237 0 -383 146t-146 391q0 160 60 286.5t178 201t276 74.5
q237 0 365.5 -146.5t128.5 -390.5v-81h-712zM381 639h432q0 101 -55.5 166t-159.5 65q-98 0 -158 -69t-59 -162z" />
    <glyph glyph-name="uni1EC0" unicode="&#x1ec0;" horiz-adv-x="1299" 
d="M996 2121l161 -268h-160l-232 268h231zM809 1605l-134 143l-151 -143h-221l270 265h206l264 -265h-234zM166 0v1481h1017l-1 -252h-716v-360h621v-246h-623v-368l729 -1v-254h-1027z" />
    <glyph glyph-name="uni1EC1" unicode="&#x1ec1;" horiz-adv-x="1180" 
d="M921 1699l160 -267h-159l-233 267h232zM733 1183l-134 143l-150 -143h-222l271 265h207l263 -265h-235zM381 461q-1 -122 59 -193.5t167 -71.5q171 0 215 140h270q-17 -109 -90.5 -191.5t-174.5 -123.5t-213 -41q-237 0 -383 146t-146 391q0 160 60 286.5t178 201
t276 74.5q237 0 365.5 -146.5t128.5 -390.5v-81h-712zM381 639h432q0 101 -55.5 166t-159.5 65q-98 0 -158 -69t-59 -162z" />
    <glyph glyph-name="uni1EC2" unicode="&#x1ec2;" horiz-adv-x="1299" 
d="M753 2166q95 59 185.5 45.5t137.5 -87.5q57 -87 32.5 -171t-127.5 -146l-70 112q41 26 54 59.5t-7 68.5q-19 30 -59 32.5t-76 -22.5zM816 1605l-135 143l-150 -143h-221l271 265h205l265 -265h-235zM166 0v1481h1017l-1 -252h-716v-360h621v-246h-623v-368l729 -1v-254
h-1027z" />
    <glyph glyph-name="uni1EC3" unicode="&#x1ec3;" horiz-adv-x="1180" 
d="M677 1744q95 59 185.5 45.5t137.5 -87.5q57 -86 33 -170.5t-127 -146.5l-70 112q41 26 54 59.5t-7 68.5q-19 30 -59 32.5t-76 -22.5zM740 1183l-134 143l-150 -143h-222l271 265h206l264 -265h-235zM381 461q-1 -122 59 -193.5t167 -71.5q171 0 215 140h270
q-17 -109 -90.5 -191.5t-174.5 -123.5t-213 -41q-237 0 -383 146t-146 391q0 160 60 286.5t178 201t276 74.5q237 0 365.5 -146.5t128.5 -390.5v-81h-712zM381 639h432q0 101 -55.5 166t-159.5 65q-98 0 -158 -69t-59 -162z" />
    <glyph glyph-name="uni1EC4" unicode="&#x1ec4;" horiz-adv-x="1299" 
d="M1028 2045q-88 -72 -207 -72q-59 0 -151 29t-143 29q-48 0 -82.5 -15.5t-77.5 -51.5l-45 157q43 45 87.5 69.5t108.5 24.5q60 0 159.5 -32t142.5 -32q78 0 171 72zM812 1605l-135 143l-150 -143h-222l272 265h205l264 -265h-234zM166 0v1481h1017l-1 -252h-716v-360h621
v-246h-623v-368l729 -1v-254h-1027z" />
    <glyph glyph-name="uni1EC5" unicode="&#x1ec5;" horiz-adv-x="1180" 
d="M952 1623q-88 -72 -207 -72q-58 0 -149.5 29t-142.5 29q-49 0 -83.5 -15.5t-77.5 -51.5l-46 157q43 45 87.5 69.5t108.5 24.5q60 0 159.5 -31.5t143.5 -31.5q80 0 170 71zM736 1183l-134 143l-150 -143h-222l271 265h206l264 -265h-235zM381 461q-1 -122 59 -193.5
t167 -71.5q171 0 215 140h270q-17 -109 -90.5 -191.5t-174.5 -123.5t-213 -41q-237 0 -383 146t-146 391q0 160 60 286.5t178 201t276 74.5q237 0 365.5 -146.5t128.5 -390.5v-81h-712zM381 639h432q0 101 -55.5 166t-159.5 65q-98 0 -158 -69t-59 -162z" />
    <glyph glyph-name="uni1EC6" unicode="&#x1ec6;" horiz-adv-x="1299" 
d="M809 1605l-134 143l-151 -143h-221l270 265h206l264 -265h-234zM166 0v1481h1017l-1 -252h-716v-360h621v-246h-623v-368l729 -1v-254h-1027zM551 -408v244h286v-244h-286z" />
    <glyph glyph-name="uni1EC7" unicode="&#x1ec7;" horiz-adv-x="1180" 
d="M733 1183l-134 143l-150 -143h-222l271 265h207l263 -265h-235zM381 461q-1 -122 59 -193.5t167 -71.5q171 0 215 140h270q-17 -109 -90.5 -191.5t-174.5 -123.5t-213 -41q-237 0 -383 146t-146 391q0 160 60 286.5t178 201t276 74.5q237 0 365.5 -146.5t128.5 -390.5
v-81h-712zM381 639h432q0 101 -55.5 166t-159.5 65q-98 0 -158 -69t-59 -162zM462 -408v244h286v-244h-286z" />
    <glyph glyph-name="uni1EC8" unicode="&#x1ec8;" horiz-adv-x="629" 
d="M172 1961q95 59 186 45.5t138 -87.5q57 -87 32.5 -170.5t-127.5 -145.5l-70 111q41 26 54 59.5t-7 68.5q-19 30 -59 32.5t-76 -22.5zM166 1481h298v-1481h-298v1481z" />
    <glyph glyph-name="uni1EC9" unicode="&#x1ec9;" horiz-adv-x="541" 
d="M131 1539q95 59 186 45.5t138 -87.5q57 -87 32.5 -170.5t-127.5 -145.5l-70 111q41 26 54 59.5t-7 68.5q-19 30 -59 33t-76 -22zM414 1059v-1059h-286v1059h286z" />
    <glyph glyph-name="uni1ECA" unicode="&#x1eca;" horiz-adv-x="629" 
d="M166 1481h298v-1481h-298v1481zM188 -408v244h286v-244h-286z" />
    <glyph glyph-name="uni1ECB" unicode="&#x1ecb;" horiz-adv-x="546" 
d="M419 1480v-270h-291v270h291zM417 1059v-1059h-286v1059h286zM131 -408v244h286v-244h-286z" />
    <glyph glyph-name="uni1ECC" unicode="&#x1ecc;" horiz-adv-x="1557" 
d="M781 -20q-316 0 -499.5 202.5t-183.5 554.5q0 353 185.5 558.5t497.5 205.5q311 0 494.5 -205t183.5 -559q0 -351 -182.5 -554t-495.5 -203zM781 225q169 0 261.5 123t92.5 385q0 268 -93 395t-261 127t-261.5 -127.5t-93.5 -394.5q0 -261 93.5 -384.5t261.5 -123.5z
M641 -408v244h286v-244h-286z" />
    <glyph glyph-name="uni1ECD" unicode="&#x1ecd;" horiz-adv-x="1178" 
d="M590 -20q-234 0 -373 146.5t-139 396.5q0 252 139.5 404t373.5 152t372.5 -151t138.5 -405q0 -243 -137 -393t-375 -150zM591 202q75 0 125.5 47t71.5 119t21 166q0 67 -11 122.5t-35.5 102.5t-68 73.5t-103.5 26.5q-58 0 -101.5 -25t-69 -70t-38 -102.5t-12.5 -127.5
q0 -66 11.5 -122.5t36 -105t69 -76.5t104.5 -28zM444 -408v244h286v-244h-286z" />
    <glyph glyph-name="uni1ECE" unicode="&#x1ece;" horiz-adv-x="1557" 
d="M636 1961q95 59 185.5 45.5t137.5 -87.5q57 -86 33 -170t-127 -146l-70 111q41 26 54 59.5t-7 68.5q-18 30 -58.5 32.5t-76.5 -22.5zM781 -20q-316 0 -499.5 202.5t-183.5 554.5q0 353 185.5 558.5t497.5 205.5q311 0 494.5 -205t183.5 -559q0 -351 -182.5 -554
t-495.5 -203zM781 225q169 0 261.5 123t92.5 385q0 268 -93 395t-261 127t-261.5 -127.5t-93.5 -394.5q0 -261 93.5 -384.5t261.5 -123.5z" />
    <glyph glyph-name="uni1ECF" unicode="&#x1ecf;" horiz-adv-x="1178" 
d="M446 1539q95 59 186 45.5t138 -87.5q57 -87 32.5 -170.5t-127.5 -145.5l-70 111q41 26 54 59.5t-7 68.5q-19 30 -59 33t-76 -22zM590 -20q-234 0 -373 146.5t-139 396.5q0 252 139.5 404t373.5 152t372.5 -151t138.5 -405q0 -243 -137 -393t-375 -150zM591 202
q75 0 125.5 47t71.5 119t21 166q0 67 -11 122.5t-35.5 102.5t-68 73.5t-103.5 26.5q-58 0 -101.5 -25t-69 -70t-38 -102.5t-12.5 -127.5q0 -66 11.5 -122.5t36 -105t69 -76.5t104.5 -28z" />
    <glyph glyph-name="uni1ED0" unicode="&#x1ed0;" horiz-adv-x="1557" 
d="M1168 2122h230l-230 -269h-155zM913 1605l-134 143l-150 -143h-221l270 265h207l263 -265h-235zM781 -20q-316 0 -499.5 202.5t-183.5 554.5q0 353 185.5 558.5t497.5 205.5q311 0 494.5 -205t183.5 -559q0 -351 -182.5 -554t-495.5 -203zM781 225q169 0 261.5 123
t92.5 385q0 268 -93 395t-261 127t-261.5 -127.5t-93.5 -394.5q0 -261 93.5 -384.5t261.5 -123.5z" />
    <glyph glyph-name="uni1ED1" unicode="&#x1ed1;" horiz-adv-x="1178" 
d="M978 1700h230l-230 -268h-156zM724 1183l-135 143l-150 -143h-222l271 265h206l263 -265h-233zM590 -20q-234 0 -373 146.5t-139 396.5q0 252 139.5 404t373.5 152t372.5 -151t138.5 -405q0 -243 -137 -393t-375 -150zM591 202q75 0 125.5 47t71.5 119t21 166
q0 67 -11 122.5t-35.5 102.5t-68 73.5t-103.5 26.5q-58 0 -101.5 -25t-69 -70t-38 -102.5t-12.5 -127.5q0 -66 11.5 -122.5t36 -105t69 -76.5t104.5 -28z" />
    <glyph glyph-name="uni1ED2" unicode="&#x1ed2;" horiz-adv-x="1557" 
d="M1101 2121l161 -268h-160l-233 268h232zM913 1605l-134 143l-150 -143h-221l270 265h207l263 -265h-235zM781 -20q-316 0 -499.5 202.5t-183.5 554.5q0 353 185.5 558.5t497.5 205.5q311 0 494.5 -205t183.5 -559q0 -351 -182.5 -554t-495.5 -203zM781 225
q169 0 261.5 123t92.5 385q0 268 -93 395t-261 127t-261.5 -127.5t-93.5 -394.5q0 -261 93.5 -384.5t261.5 -123.5z" />
    <glyph glyph-name="uni1ED3" unicode="&#x1ed3;" horiz-adv-x="1178" 
d="M911 1699l161 -267h-161l-231 267h231zM724 1183l-135 143l-150 -143h-222l271 265h206l263 -265h-233zM590 -20q-234 0 -373 146.5t-139 396.5q0 252 139.5 404t373.5 152t372.5 -151t138.5 -405q0 -243 -137 -393t-375 -150zM591 202q75 0 125.5 47t71.5 119t21 166
q0 67 -11 122.5t-35.5 102.5t-68 73.5t-103.5 26.5q-58 0 -101.5 -25t-69 -70t-38 -102.5t-12.5 -127.5q0 -66 11.5 -122.5t36 -105t69 -76.5t104.5 -28z" />
    <glyph glyph-name="uni1ED4" unicode="&#x1ed4;" horiz-adv-x="1557" 
d="M857 2166q95 59 186 45.5t138 -87.5q57 -87 32.5 -171t-127.5 -146l-70 112q41 26 54 59.5t-7 68.5q-19 30 -59 32.5t-76 -22.5zM921 1605l-135 143l-150 -143h-221l270 265h206l264 -265h-234zM781 -20q-316 0 -499.5 202.5t-183.5 554.5q0 353 185.5 558.5t497.5 205.5
q311 0 494.5 -205t183.5 -559q0 -351 -182.5 -554t-495.5 -203zM781 225q169 0 261.5 123t92.5 385q0 268 -93 395t-261 127t-261.5 -127.5t-93.5 -394.5q0 -261 93.5 -384.5t261.5 -123.5z" />
    <glyph glyph-name="uni1ED5" unicode="&#x1ed5;" horiz-adv-x="1178" 
d="M667 1744q95 59 185.5 45.5t137.5 -87.5q57 -86 33 -170.5t-127 -146.5l-71 112q42 26 55 59.5t-8 68.5q-18 30 -58.5 32.5t-76.5 -22.5zM731 1183l-135 143l-150 -143h-222l271 265h206l264 -265h-234zM590 -20q-234 0 -373 146.5t-139 396.5q0 252 139.5 404t373.5 152
t372.5 -151t138.5 -405q0 -243 -137 -393t-375 -150zM591 202q75 0 125.5 47t71.5 119t21 166q0 67 -11 122.5t-35.5 102.5t-68 73.5t-103.5 26.5q-58 0 -101.5 -25t-69 -70t-38 -102.5t-12.5 -127.5q0 -66 11.5 -122.5t36 -105t69 -76.5t104.5 -28z" />
    <glyph glyph-name="uni1ED6" unicode="&#x1ed6;" horiz-adv-x="1557" 
d="M1133 2045q-88 -72 -207 -72q-58 0 -150 29t-143 29q-49 0 -83.5 -15.5t-77.5 -51.5l-46 157q43 45 88 69.5t109 24.5q60 0 159.5 -32t143.5 -32q79 0 170 72zM916 1605l-134 143l-150 -143h-221l270 265h206l264 -265h-235zM781 -20q-316 0 -499.5 202.5t-183.5 554.5
q0 353 185.5 558.5t497.5 205.5q311 0 494.5 -205t183.5 -559q0 -351 -182.5 -554t-495.5 -203zM781 225q169 0 261.5 123t92.5 385q0 268 -93 395t-261 127t-261.5 -127.5t-93.5 -394.5q0 -261 93.5 -384.5t261.5 -123.5z" />
    <glyph glyph-name="uni1ED7" unicode="&#x1ed7;" horiz-adv-x="1178" 
d="M943 1623q-88 -72 -207 -72q-59 0 -151 29t-143 29q-49 0 -83 -15.5t-77 -51.5l-45 157q43 45 87.5 69.5t108.5 24.5q60 0 159.5 -31.5t142.5 -31.5q80 0 170 71zM727 1183l-135 143l-150 -143h-222l270 265h207l264 -265h-234zM590 -20q-234 0 -373 146.5t-139 396.5
q0 252 139.5 404t373.5 152t372.5 -151t138.5 -405q0 -243 -137 -393t-375 -150zM591 202q75 0 125.5 47t71.5 119t21 166q0 67 -11 122.5t-35.5 102.5t-68 73.5t-103.5 26.5q-58 0 -101.5 -25t-69 -70t-38 -102.5t-12.5 -127.5q0 -66 11.5 -122.5t36 -105t69 -76.5
t104.5 -28z" />
    <glyph glyph-name="uni1ED8" unicode="&#x1ed8;" horiz-adv-x="1557" 
d="M913 1605l-134 143l-150 -143h-221l270 265h207l263 -265h-235zM781 -20q-316 0 -499.5 202.5t-183.5 554.5q0 353 185.5 558.5t497.5 205.5q311 0 494.5 -205t183.5 -559q0 -351 -182.5 -554t-495.5 -203zM781 225q169 0 261.5 123t92.5 385q0 268 -93 395t-261 127
t-261.5 -127.5t-93.5 -394.5q0 -261 93.5 -384.5t261.5 -123.5zM641 -408v244h286v-244h-286z" />
    <glyph glyph-name="uni1ED9" unicode="&#x1ed9;" horiz-adv-x="1178" 
d="M724 1183l-135 143l-150 -143h-222l271 265h206l263 -265h-233zM590 -20q-234 0 -373 146.5t-139 396.5q0 252 139.5 404t373.5 152t372.5 -151t138.5 -405q0 -243 -137 -393t-375 -150zM591 202q75 0 125.5 47t71.5 119t21 166q0 67 -11 122.5t-35.5 102.5t-68 73.5
t-103.5 26.5q-58 0 -101.5 -25t-69 -70t-38 -102.5t-12.5 -127.5q0 -66 11.5 -122.5t36 -105t69 -76.5t104.5 -28zM444 -408v244h286v-244h-286z" />
    <glyph glyph-name="uni1EDA" unicode="&#x1eda;" horiz-adv-x="1710" 
d="M883 1903h308l-304 -298h-215zM781 -20q-316 0 -499.5 202.5t-183.5 554.5q0 353 185.5 558.5t497.5 205.5q305 0 487 -196q36 0 57 1.5t44 8t35.5 20.5t24 38t17.5 60t10 88h198q-2 -192 -64 -278.5t-218 -90.5q87 -177 87 -415q0 -351 -182.5 -554t-495.5 -203z
M781 225q169 0 261.5 123t92.5 385q0 268 -93 395t-261 127t-261.5 -127.5t-93.5 -394.5q0 -261 93.5 -384.5t261.5 -123.5z" />
    <glyph glyph-name="uni1EDB" unicode="&#x1edb;" horiz-adv-x="1312" 
d="M684 1481h307l-303 -298h-215zM590 -20q-234 0 -373 146.5t-139 396.5q0 252 139.5 404t373.5 152q238 0 377 -155q42 1 66 8t44.5 30t30.5 65t15 113h197q-2 -187 -59.5 -273.5t-202.5 -95.5q43 -111 43 -248q0 -243 -137 -393t-375 -150zM591 202q75 0 125.5 47
t71.5 119t21 166q0 67 -11 122.5t-35.5 102.5t-68 73.5t-103.5 26.5q-58 0 -101.5 -25t-69 -70t-38 -102.5t-12.5 -127.5q0 -66 11.5 -122.5t36 -105t69 -76.5t104.5 -28z" />
    <glyph glyph-name="uni1EDC" unicode="&#x1edc;" horiz-adv-x="1710" 
d="M671 1903l211 -298h-215l-303 298h307zM781 -20q-316 0 -499.5 202.5t-183.5 554.5q0 353 185.5 558.5t497.5 205.5q305 0 487 -196q36 0 57 1.5t44 8t35.5 20.5t24 38t17.5 60t10 88h198q-2 -192 -64 -278.5t-218 -90.5q87 -177 87 -415q0 -351 -182.5 -554t-495.5 -203
zM781 225q169 0 261.5 123t92.5 385q0 268 -93 395t-261 127t-261.5 -127.5t-93.5 -394.5q0 -261 93.5 -384.5t261.5 -123.5z" />
    <glyph glyph-name="uni1EDD" unicode="&#x1edd;" horiz-adv-x="1312" 
d="M473 1481l211 -298h-216l-303 298h308zM590 -20q-234 0 -373 146.5t-139 396.5q0 252 139.5 404t373.5 152q238 0 377 -155q42 1 66 8t44.5 30t30.5 65t15 113h197q-2 -187 -59.5 -273.5t-202.5 -95.5q43 -111 43 -248q0 -243 -137 -393t-375 -150zM591 202
q75 0 125.5 47t71.5 119t21 166q0 67 -11 122.5t-35.5 102.5t-68 73.5t-103.5 26.5q-58 0 -101.5 -25t-69 -70t-38 -102.5t-12.5 -127.5q0 -66 11.5 -122.5t36 -105t69 -76.5t104.5 -28z" />
    <glyph glyph-name="uni1EDE" unicode="&#x1ede;" horiz-adv-x="1710" 
d="M636 1961q95 59 185.5 45.5t137.5 -87.5q57 -86 33 -170t-127 -146l-70 111q41 26 54 59.5t-7 68.5q-18 30 -58.5 32.5t-76.5 -22.5zM781 -20q-316 0 -499.5 202.5t-183.5 554.5q0 353 185.5 558.5t497.5 205.5q305 0 487 -196q36 0 57 1.5t44 8t35.5 20.5t24 38t17.5 60
t10 88h198q-2 -192 -64 -278.5t-218 -90.5q87 -177 87 -415q0 -351 -182.5 -554t-495.5 -203zM781 225q169 0 261.5 123t92.5 385q0 268 -93 395t-261 127t-261.5 -127.5t-93.5 -394.5q0 -261 93.5 -384.5t261.5 -123.5z" />
    <glyph glyph-name="uni1EDF" unicode="&#x1edf;" horiz-adv-x="1312" 
d="M433 1539q95 59 186 45.5t138 -87.5q57 -86 33 -170t-127 -146l-71 111q41 26 54 59.5t-7 68.5q-18 30 -58.5 33t-76.5 -22zM590 -20q-234 0 -373 146.5t-139 396.5q0 252 139.5 404t373.5 152q238 0 377 -155q42 1 66 8t44.5 30t30.5 65t15 113h197
q-2 -187 -59.5 -273.5t-202.5 -95.5q43 -111 43 -248q0 -243 -137 -393t-375 -150zM591 202q75 0 125.5 47t71.5 119t21 166q0 67 -11 122.5t-35.5 102.5t-68 73.5t-103.5 26.5q-58 0 -101.5 -25t-69 -70t-38 -102.5t-12.5 -127.5q0 -66 11.5 -122.5t36 -105t69 -76.5
t104.5 -28z" />
    <glyph glyph-name="uni1EE0" unicode="&#x1ee0;" horiz-adv-x="1710" 
d="M1139 1722q-83 -71 -206 -71q-59 0 -151 28t-143 28q-49 0 -83.5 -15t-77.5 -51l-46 157q44 45 89 69t109 24q60 0 159.5 -31t142.5 -31q77 0 170 71zM781 -20q-316 0 -499.5 202.5t-183.5 554.5q0 353 185.5 558.5t497.5 205.5q305 0 487 -196q36 0 57 1.5t44 8
t35.5 20.5t24 38t17.5 60t10 88h198q-2 -192 -64 -278.5t-218 -90.5q87 -177 87 -415q0 -351 -182.5 -554t-495.5 -203zM781 225q169 0 261.5 123t92.5 385q0 268 -93 395t-261 127t-261.5 -127.5t-93.5 -394.5q0 -261 93.5 -384.5t261.5 -123.5z" />
    <glyph glyph-name="uni1EE1" unicode="&#x1ee1;" horiz-adv-x="1312" 
d="M936 1300q-83 -71 -206 -71q-59 0 -151 28t-143 28q-49 0 -84 -15t-77 -50l-46 156q44 45 89 69t109 24q60 0 159.5 -31t142.5 -31q77 0 170 71zM590 -20q-234 0 -373 146.5t-139 396.5q0 252 139.5 404t373.5 152q238 0 377 -155q42 1 66 8t44.5 30t30.5 65t15 113h197
q-2 -187 -59.5 -273.5t-202.5 -95.5q43 -111 43 -248q0 -243 -137 -393t-375 -150zM591 202q75 0 125.5 47t71.5 119t21 166q0 67 -11 122.5t-35.5 102.5t-68 73.5t-103.5 26.5q-58 0 -101.5 -25t-69 -70t-38 -102.5t-12.5 -127.5q0 -66 11.5 -122.5t36 -105t69 -76.5
t104.5 -28z" />
    <glyph glyph-name="uni1EE2" unicode="&#x1ee2;" horiz-adv-x="1710" 
d="M781 -20q-316 0 -499.5 202.5t-183.5 554.5q0 353 185.5 558.5t497.5 205.5q305 0 487 -196q36 0 57 1.5t44 8t35.5 20.5t24 38t17.5 60t10 88h198q-2 -192 -64 -278.5t-218 -90.5q87 -177 87 -415q0 -351 -182.5 -554t-495.5 -203zM781 225q169 0 261.5 123t92.5 385
q0 268 -93 395t-261 127t-261.5 -127.5t-93.5 -394.5q0 -261 93.5 -384.5t261.5 -123.5zM641 -408v244h286v-244h-286z" />
    <glyph glyph-name="uni1EE3" unicode="&#x1ee3;" horiz-adv-x="1312" 
d="M590 -20q-234 0 -373 146.5t-139 396.5q0 252 139.5 404t373.5 152q238 0 377 -155q42 1 66 8t44.5 30t30.5 65t15 113h197q-2 -187 -59.5 -273.5t-202.5 -95.5q43 -111 43 -248q0 -243 -137 -393t-375 -150zM591 202q75 0 125.5 47t71.5 119t21 166q0 67 -11 122.5
t-35.5 102.5t-68 73.5t-103.5 26.5q-58 0 -101.5 -25t-69 -70t-38 -102.5t-12.5 -127.5q0 -66 11.5 -122.5t36 -105t69 -76.5t104.5 -28zM419 -408v244h284v-244h-284z" />
    <glyph glyph-name="uni1EE4" unicode="&#x1ee4;" horiz-adv-x="1482" 
d="M1351 564q0 -138 -32.5 -243t-102 -183t-184.5 -118t-274 -40q-160 0 -275 40.5t-184 119t-101 185.5t-32 249v907h304v-929q0 -160 77 -239.5t211 -79.5t212.5 79t78.5 240v929h302v-917zM615 -406v243h285v-243h-285z" />
    <glyph glyph-name="uni1EE5" unicode="&#x1ee5;" horiz-adv-x="1218" 
d="M518 -20q-74 0 -145 23.5t-129 65.5t-93.5 109.5t-35.5 148.5v732h299v-694q0 -76 49 -122t140 -46q89 0 140.5 45.5t51.5 127.5v689h296v-1059h-226l-35 210q-14 -66 -46.5 -113.5t-77.5 -72t-91 -34.5t-97 -10zM468 -408v244h286v-244h-286z" />
    <glyph glyph-name="uni1EE6" unicode="&#x1ee6;" horiz-adv-x="1482" 
d="M614 1961q95 59 186 45.5t138 -87.5q57 -86 33 -170t-127 -146l-71 111q41 26 54 59.5t-7 68.5q-18 30 -58.5 32.5t-76.5 -22.5zM1351 564q0 -138 -32.5 -243t-102 -183t-184.5 -118t-274 -40q-160 0 -275 40.5t-184 119t-101 185.5t-32 249v907h304v-929
q0 -160 77 -239.5t211 -79.5t212.5 79t78.5 240v929h302v-917z" />
    <glyph glyph-name="uni1EE7" unicode="&#x1ee7;" horiz-adv-x="1218" 
d="M462 1539q95 59 185.5 45.5t137.5 -87.5q57 -87 32.5 -170.5t-127.5 -145.5l-69 111q41 26 54 59.5t-7 68.5q-19 30 -59.5 33t-76.5 -22zM518 -20q-74 0 -145 23.5t-129 65.5t-93.5 109.5t-35.5 148.5v732h299v-694q0 -76 49 -122t140 -46q89 0 140.5 45.5t51.5 127.5
v689h296v-1059h-226l-35 210q-14 -66 -46.5 -113.5t-77.5 -72t-91 -34.5t-97 -10z" />
    <glyph glyph-name="uni1EE8" unicode="&#x1ee8;" horiz-adv-x="1762" 
d="M861 1903h308l-304 -298h-215zM1351 564q0 -138 -32.5 -243t-102 -183t-184.5 -118t-274 -40q-160 0 -275 40.5t-184 119t-101 185.5t-32 249v907h304v-929q0 -160 77 -239.5t211 -79.5t212.5 79t78.5 240v929h302v-175q49 2 76 18t44 62t23 135h197
q-1 -105 -17.5 -174.5t-56 -116t-104 -64.5t-162.5 -13v-589z" />
    <glyph glyph-name="uni1EE9" unicode="&#x1ee9;" horiz-adv-x="1454" 
d="M719 1481h308l-303 -298h-216zM518 -20q-74 0 -145 23.5t-129 65.5t-93.5 109.5t-35.5 148.5v732h299v-694q0 -76 49 -122t140 -46q89 0 140.5 45.5t51.5 127.5v689h296v-135q56 1 84.5 15t47 61t24.5 140h198q-2 -212 -79 -296.5t-275 -71.5v-772h-226l-35 210
q-14 -66 -46.5 -113.5t-77.5 -72t-91 -34.5t-97 -10z" />
    <glyph glyph-name="uni1EEA" unicode="&#x1eea;" horiz-adv-x="1762" 
d="M649 1903l211 -298h-215l-303 298h307zM1351 564q0 -138 -32.5 -243t-102 -183t-184.5 -118t-274 -40q-160 0 -275 40.5t-184 119t-101 185.5t-32 249v907h304v-929q0 -160 77 -239.5t211 -79.5t212.5 79t78.5 240v929h302v-175q49 2 76 18t44 62t23 135h197
q-1 -105 -17.5 -174.5t-56 -116t-104 -64.5t-162.5 -13v-589z" />
    <glyph glyph-name="uni1EEB" unicode="&#x1eeb;" horiz-adv-x="1454" 
d="M508 1481l211 -298h-215l-304 298h308zM518 -20q-74 0 -145 23.5t-129 65.5t-93.5 109.5t-35.5 148.5v732h299v-694q0 -76 49 -122t140 -46q89 0 140.5 45.5t51.5 127.5v689h296v-135q56 1 84.5 15t47 61t24.5 140h198q-2 -212 -79 -296.5t-275 -71.5v-772h-226l-35 210
q-14 -66 -46.5 -113.5t-77.5 -72t-91 -34.5t-97 -10z" />
    <glyph glyph-name="uni1EEC" unicode="&#x1eec;" horiz-adv-x="1762" 
d="M614 1961q95 59 186 45.5t138 -87.5q57 -86 33 -170t-127 -146l-71 111q41 26 54 59.5t-7 68.5q-18 30 -58.5 32.5t-76.5 -22.5zM1351 564q0 -138 -32.5 -243t-102 -183t-184.5 -118t-274 -40q-160 0 -275 40.5t-184 119t-101 185.5t-32 249v907h304v-929
q0 -160 77 -239.5t211 -79.5t212.5 79t78.5 240v929h302v-175q49 2 76 18t44 62t23 135h197q-1 -105 -17.5 -174.5t-56 -116t-104 -64.5t-162.5 -13v-589z" />
    <glyph glyph-name="uni1EED" unicode="&#x1eed;" horiz-adv-x="1454" 
d="M469 1539q95 59 186 45.5t138 -87.5q57 -87 32.5 -170.5t-127.5 -145.5l-70 111q41 26 54 59.5t-7 68.5q-19 30 -59 33t-76 -22zM518 -20q-74 0 -145 23.5t-129 65.5t-93.5 109.5t-35.5 148.5v732h299v-694q0 -76 49 -122t140 -46q89 0 140.5 45.5t51.5 127.5v689h296
v-135q56 1 84.5 15t47 61t24.5 140h198q-2 -212 -79 -296.5t-275 -71.5v-772h-226l-35 210q-14 -66 -46.5 -113.5t-77.5 -72t-91 -34.5t-97 -10z" />
    <glyph glyph-name="uni1EEE" unicode="&#x1eee;" horiz-adv-x="1754" 
d="M1117 1722q-83 -71 -206 -71q-59 0 -151 28t-143 28q-49 0 -83 -15t-77 -51l-46 157q44 45 88.5 69t108.5 24q60 0 159.5 -31t142.5 -31q77 0 170 71zM1351 564q0 -138 -32.5 -243t-102 -183t-184.5 -118t-274 -40q-160 0 -275 40.5t-184 119t-101 185.5t-32 249v907h304
v-929q0 -160 77 -239.5t211 -79.5t212.5 79t78.5 240v929h302v-175q49 2 76 18t44 62t23 135h197q-1 -105 -17.5 -174.5t-56 -116t-104 -64.5t-162.5 -13v-589z" />
    <glyph glyph-name="uni1EEF" unicode="&#x1eef;" horiz-adv-x="1454" 
d="M972 1300q-85 -71 -207 -71q-58 0 -150 28t-143 28q-49 0 -84 -15t-77 -50l-46 156q43 45 88 69t109 24q60 0 159.5 -31t143.5 -31q77 0 170 71zM518 -20q-74 0 -145 23.5t-129 65.5t-93.5 109.5t-35.5 148.5v732h299v-694q0 -76 49 -122t140 -46q89 0 140.5 45.5
t51.5 127.5v689h296v-135q56 1 84.5 15t47 61t24.5 140h198q-2 -212 -79 -296.5t-275 -71.5v-772h-226l-35 210q-14 -66 -46.5 -113.5t-77.5 -72t-91 -34.5t-97 -10z" />
    <glyph glyph-name="uni1EF0" unicode="&#x1ef0;" horiz-adv-x="1762" 
d="M1351 564q0 -138 -32.5 -243t-102 -183t-184.5 -118t-274 -40q-160 0 -275 40.5t-184 119t-101 185.5t-32 249v907h304v-929q0 -160 77 -239.5t211 -79.5t212.5 79t78.5 240v929h302v-175q49 2 76 18t44 62t23 135h197q-1 -105 -17.5 -174.5t-56 -116t-104 -64.5
t-162.5 -13v-589zM615 -406v243h285v-243h-285z" />
    <glyph glyph-name="uni1EF1" unicode="&#x1ef1;" horiz-adv-x="1454" 
d="M518 -20q-74 0 -145 23.5t-129 65.5t-93.5 109.5t-35.5 148.5v732h299v-694q0 -76 49 -122t140 -46q89 0 140.5 45.5t51.5 127.5v689h296v-135q56 1 84.5 15t47 61t24.5 140h198q-2 -212 -79 -296.5t-275 -71.5v-772h-226l-35 210q-14 -66 -46.5 -113.5t-77.5 -72
t-91 -34.5t-97 -10zM459 -408v244h285v-244h-285z" />
    <glyph glyph-name="Ygrave" unicode="&#x1ef2;" horiz-adv-x="1367" 
d="M608 1904l211 -298h-215l-303 298h307zM1348 1481l-515 -858v-623h-299v624l-515 857h324l341 -600l337 600h327z" />
    <glyph glyph-name="ygrave" unicode="&#x1ef3;" horiz-adv-x="1153" 
d="M468 1481l211 -298h-215l-304 298h308zM294 -338q-64 0 -114 9t-68 18l-17 9v190l106 -4q52 -3 92 4.5t60.5 17t37 29t19.5 27t10 24.5l19 58l-411 1015h296l254 -690l256 690h292l-429 -1065q-41 -99 -86 -165.5t-96 -102t-103 -50t-118 -14.5z" />
    <glyph glyph-name="uni1EF4" unicode="&#x1ef4;" horiz-adv-x="1367" 
d="M1348 1481l-515 -858v-623h-299v624l-515 857h324l341 -600l337 600h327zM542 -408v244h285v-244h-285z" />
    <glyph glyph-name="uni1EF5" unicode="&#x1ef5;" horiz-adv-x="1153" 
d="M294 -338q-64 0 -114 9t-68 18l-17 9v190l106 -4q52 -3 92 4.5t60.5 17t37 29t19.5 27t10 24.5l19 58l-411 1015h296l254 -690l256 690h292l-429 -1065q-41 -99 -86 -165.5t-96 -102t-103 -50t-118 -14.5zM743 -367v244h286v-244h-286z" />
    <glyph glyph-name="uni1EF6" unicode="&#x1ef6;" horiz-adv-x="1367" 
d="M573 1962q95 59 186 45.5t138 -87.5q57 -86 33 -170t-127 -145l-71 110q42 26 55 59.5t-8 68.5q-18 30 -58.5 32.5t-76.5 -22.5zM1348 1481l-515 -858v-623h-299v624l-515 857h324l341 -600l337 600h327z" />
    <glyph glyph-name="uni1EF7" unicode="&#x1ef7;" horiz-adv-x="1153" 
d="M433 1539q95 59 186 45.5t138 -87.5q57 -86 33 -170t-127 -146l-71 111q41 26 54 59.5t-7 68.5q-19 30 -59 33t-76 -22zM294 -338q-64 0 -114 9t-68 18l-17 9v190l106 -4q52 -3 92 4.5t60.5 17t37 29t19.5 27t10 24.5l19 58l-411 1015h296l254 -690l256 690h292
l-429 -1065q-41 -99 -86 -165.5t-96 -102t-103 -50t-118 -14.5z" />
    <glyph glyph-name="uni1EF8" unicode="&#x1ef8;" horiz-adv-x="1367" 
d="M1076 1723q-85 -71 -206 -71q-59 0 -150.5 28.5t-142.5 28.5q-49 0 -83.5 -15.5t-77.5 -51.5l-46 157q45 46 89 70t108 24q60 0 159.5 -31.5t142.5 -31.5q77 0 170 71zM1348 1481l-515 -858v-623h-299v624l-515 857h324l341 -600l337 600h327z" />
    <glyph glyph-name="uni1EF9" unicode="&#x1ef9;" horiz-adv-x="1153" 
d="M936 1300q-85 -71 -207 -71q-58 0 -150 28t-143 28q-49 0 -84 -15t-77 -50l-46 156q43 45 88 69t109 24q60 0 159.5 -31t142.5 -31q78 0 171 71zM294 -338q-64 0 -114 9t-68 18l-17 9v190l106 -4q52 -3 92 4.5t60.5 17t37 29t19.5 27t10 24.5l19 58l-411 1015h296
l254 -690l256 690h292l-429 -1065q-41 -99 -86 -165.5t-96 -102t-103 -50t-118 -14.5z" />
    <glyph glyph-name="endash" unicode="&#x2013;" horiz-adv-x="1213" 
d="M1090 618v-218l-967 -1v218z" />
    <glyph glyph-name="emdash" unicode="&#x2014;" horiz-adv-x="2353" 
d="M1985 618v-218l-1615 -1v218z" />
    <glyph glyph-name="quoteleft" unicode="&#x2018;" horiz-adv-x="538" 
d="M395 1543l-119 -279l105 -10v-287h-302v254l206 322h110z" />
    <glyph glyph-name="quoteright" unicode="&#x2019;" horiz-adv-x="535" 
d="M102 905l119 279l-104 10v287h302v-253l-206 -323h-111z" />
    <glyph glyph-name="quotesinglbase" unicode="&#x201a;" horiz-adv-x="567" 
d="M96 -284l118 279l-103 9v290h302v-255l-206 -323h-111z" />
    <glyph glyph-name="quotedblleft" unicode="&#x201c;" horiz-adv-x="982" 
d="M522 905v254l206 322h111l-119 -278l104 -10v-288h-302zM79 905v254l206 322h110l-119 -278l105 -10v-288h-302z" />
    <glyph glyph-name="quotedblright" unicode="&#x201d;" horiz-adv-x="978" 
d="M544 905l121 279l-106 10v287h303v-253l-206 -323h-112zM102 905l119 279l-104 10v287h302v-253l-206 -323h-111z" />
    <glyph glyph-name="quotedblbase" unicode="&#x201e;" horiz-adv-x="1020" 
d="M550 -284l119 279l-105 9v290h302v-255l-206 -323h-110zM96 -284l118 279l-103 9v290h302v-255l-206 -323h-111z" />
    <glyph glyph-name="dagger" unicode="&#x2020;" horiz-adv-x="1065" 
d="M988 1010v-260l-375 43l57 -1123h-287l55 1123l-375 -43v260l365 -38l-47 509h291l-48 -509z" />
    <glyph glyph-name="daggerdbl" unicode="&#x2021;" horiz-adv-x="1065" 
d="M615 764v-432l373 42v-261l-366 40l50 -483h-291l48 483l-366 -40v261l372 -42v432l-372 -42v259l365 -39l-47 539h289l-46 -539l364 39v-259z" />
    <glyph glyph-name="bullet" unicode="&#x2022;" horiz-adv-x="722" 
d="M350 496q-106 0 -181 76t-75 182q0 105 75 180.5t181 75.5t181.5 -75.5t75.5 -180.5q0 -106 -75.5 -182t-181.5 -76z" />
    <glyph glyph-name="ellipsis" unicode="&#x2026;" horiz-adv-x="1831" 
d="M1381 0v326h328v-326h-328zM101 0v326h328v-326h-328zM741 0v326h328v-326h-328z" />
    <glyph glyph-name="perthousand" unicode="&#x2030;" horiz-adv-x="2769" 
d="M470 1503q158 0 265 -122.5t107 -301.5q0 -177 -106.5 -296t-265.5 -119q-160 0 -267.5 119t-107.5 296q0 179 108.5 301.5t266.5 122.5zM1574 1497l-995 -1505l-177 3l999 1502h173zM468 815q154 0 154 264q0 130 -39 202t-115 72t-114.5 -72.5t-38.5 -201.5
q0 -126 38.5 -195t114.5 -69zM1442 821q158 0 265.5 -123t107.5 -301t-106.5 -297.5t-266.5 -119.5t-268 120t-108 297q0 178 108.5 301t267.5 123zM2290 821q157 0 263.5 -123t106.5 -301t-105.5 -297.5t-264.5 -119.5q-161 0 -268.5 119.5t-107.5 297.5t108.5 301
t267.5 123zM1440 134q76 0 114.5 68.5t38.5 192.5q0 129 -39 201.5t-114 72.5q-74 0 -113 -73t-39 -201q0 -124 38 -192.5t114 -68.5zM2288 134q76 0 113.5 68.5t37.5 192.5q0 129 -38.5 201.5t-112.5 72.5q-75 0 -114.5 -73t-39.5 -201q0 -123 39 -192t115 -69z" />
    <glyph glyph-name="guilsinglleft" unicode="&#x2039;" horiz-adv-x="632" 
d="M338 514l166 -382h-158l-243 382l242 398h160z" />
    <glyph glyph-name="guilsinglright" unicode="&#x203a;" horiz-adv-x="631" 
d="M294 514l-167 398h160l241 -398l-242 -382h-157z" />
    <glyph glyph-name="fraction" unicode="&#x2044;" horiz-adv-x="485" 
d="M830 1497l-995 -1505l-177 3l998 1502h174z" />
    <glyph glyph-name="uni2070" unicode="&#x2070;" horiz-adv-x="823" 
d="M413 1707q170 0 264 -126.5t94 -354.5q0 -227 -93.5 -351t-264.5 -124q-172 0 -266 123.5t-94 350.5q0 228 95 355t265 127zM413 905q84 0 121 75t37 244q0 174 -37.5 252t-121.5 78t-122 -78.5t-38 -251.5q0 -168 38 -243.5t123 -75.5z" />
    <glyph glyph-name="uni2074" unicode="&#x2074;" horiz-adv-x="839" 
d="M466 1695h187v-567h144v-159h-144v-206h-184l1 206h-427v155zM220 1128h250v334z" />
    <glyph glyph-name="uni2075" unicode="&#x2075;" horiz-adv-x="863" 
d="M151 1694h600l-8 -158h-441l-17 -216q104 51 198 51q143 0 235 -81t92 -223q0 -148 -98 -232.5t-265 -84.5q-137 0 -243.5 61t-150.5 159l150 86q87 -154 225 -154q82 0 132 44t50 114q0 67 -49.5 111t-126.5 44q-46 0 -82.5 -12.5t-80.5 -48.5q-12 -4 -25 2l-137 63z
" />
    <glyph glyph-name="uni2076" unicode="&#x2076;" horiz-adv-x="843" 
d="M444 1707q137 0 233 -73.5t102 -196.5h-175q-34 118 -155 118q-98 0 -147 -79.5t-38 -209.5q35 42 91 65t119 23q143 0 230.5 -79t87.5 -208q0 -138 -99.5 -225.5t-255.5 -87.5q-179 0 -281.5 123.5t-102.5 332.5q0 233 104.5 365t286.5 132zM430 1209q-59 0 -108.5 -37
t-49.5 -78q-1 -92 43 -144t115 -52q67 0 113 45.5t46 115.5q0 74 -44.5 112t-114.5 38z" />
    <glyph glyph-name="uni2077" unicode="&#x2077;" horiz-adv-x="762" 
d="M43 1697h697v-157q-114 -141 -216 -381t-106 -394h-206q7 85 39.5 201.5t108.5 277t180 296.5h-497v157z" />
    <glyph glyph-name="uni2078" unicode="&#x2078;" horiz-adv-x="879" 
d="M440 1707q150 0 243 -69.5t93 -192.5q0 -67 -36 -117t-97 -79q67 -17 120 -83t53 -142q0 -125 -103 -198t-273 -73q-171 0 -274 73t-103 198q0 76 53.5 142t120.5 83q-61 29 -97.5 79.5t-36.5 116.5q0 123 93.5 192.5t243.5 69.5zM440 1322q65 0 105.5 34t40.5 93
q0 58 -41 93.5t-105 35.5t-104.5 -35t-40.5 -94t39.5 -93t105.5 -34zM440 896q81 0 127 36t46 97q0 62 -47 99.5t-126 37.5q-80 0 -126.5 -37.5t-46.5 -99.5q0 -61 46 -97t127 -36z" />
    <glyph glyph-name="uni2079" unicode="&#x2079;" horiz-adv-x="842" 
d="M396 753q-137 0 -235 75t-105 195h182q11 -54 51 -86.5t98 -32.5q105 0 162 72.5t48 224.5q-31 -48 -87 -76t-130 -28q-144 0 -234 81t-90 214q0 139 97.5 227t253.5 88q178 0 280.5 -124.5t102.5 -333.5q0 -247 -104 -371.5t-290 -124.5zM413 1249q58 0 107.5 38
t50.5 79q1 92 -42.5 144.5t-115.5 52.5q-66 0 -109 -45t-43 -117q0 -73 42 -112.5t110 -39.5z" />
    <glyph glyph-name="colonmonetary" unicode="&#x20a1;" horiz-adv-x="1470" 
d="M756 1597h132l-20 -103q44 -5 101 -21l23 124h132l-33 -177q120 -67 194 -179.5t87 -250.5h-313q-10 51 -31 99l-161 -843q76 30 125.5 101.5t66.5 164.5h313q-11 -85 -34.5 -157.5t-67 -140.5t-104 -116.5t-149.5 -80t-200 -36.5l-20 -106h-132l20 109q-51 6 -101 18
l-24 -127h-132l33 173q-173 87 -268 270.5t-95 434.5q0 340 170 538.5t469 208.5zM631 250q47 -20 101 -24l188 987q-46 27 -99 37zM427 749q0 -271 90 -403l172 903q-262 -49 -262 -500z" />
    <glyph glyph-name="franc" unicode="&#x20a3;" horiz-adv-x="1278" 
d="M786 408v-164h-305v-244h-340v244h-180v163h180v1074h1057l-1 -249h-716v-383h531v-243h-531v-199z" />
    <glyph glyph-name="lira" unicode="&#x20a4;" horiz-adv-x="1327" 
d="M1243 358q-45 -173 -166.5 -265.5t-295.5 -92.5h-739v248h70q68 0 113.5 42.5t55.5 129.5q5 25 4 66q0 15 -18 15h-213v162h209l-20 137h-189v164h164l-7 80q-13 115 19.5 205t99 144t154 81t189.5 27q97 0 189.5 -31.5t171.5 -99.5t118 -163l-261 -80q-28 65 -68 101
t-105 36q-74 0 -120.5 -46t-46.5 -127q0 -25 11 -106q3 -21 24 -21h275v-163l-270 -1l18 -137h252v-162h-257q-10 -72 -42 -139t-85 -112h282q94 0 148 38t83 126z" />
    <glyph glyph-name="uni20A6" unicode="&#x20a6;" horiz-adv-x="1595" 
d="M1565 622v-148l-63 -1v-473h-269l-327 473h-377v-473h-298v473h-214v148h214v281h-214v148h214v431h296l297 -430h379v430h299v-430h63v-148h-63v-281h63zM926 902l194 -281h83v282zM529 902v-281h275l-195 281h-80z" />
    <glyph glyph-name="uni20A9" unicode="&#x20a9;" horiz-adv-x="2290" 
d="M2253 910v-161h-387l-221 -749h-239l-215 748h-127l-216 -748h-235l-221 748h-368v161h321l-47 158h-274v162h227l-75 252h293l71 -252h409l71 252h217l72 -252h410l71 252h292l-74 -252l245 1v-162h-293l-46 -159zM1354 1067l45 -158h230l44 158h-319zM586 1067l45 -158
h228l44 158h-317zM1127 968l-16 -59h34zM1514 503l70 245h-139zM745 503l69 245h-138z" />
    <glyph glyph-name="dong" unicode="&#x20ab;" horiz-adv-x="1097" 
d="M689 271v109q-53 -58 -113 -91.5t-152 -33.5q-155 0 -250.5 114.5t-95.5 328.5q0 205 104.5 332.5t258.5 127.5q122 0 215 -88q29 -21 29 12v153h-230v132h230v113h251v-113h124v-132h-124v-964h-247zM682 913q-38 41 -74 60.5t-84 19.5q-87 0 -137 -71.5t-50 -220.5
q0 -286 185 -286q68 0 114 42.5t46 99.5v356zM939 144v-144h-805v144h805z" />
    <glyph glyph-name="Euro" unicode="&#x20ac;" horiz-adv-x="1334" 
d="M797 -20q-225 0 -386 138.5t-220 375.5h-190v162h164q-2 31 -4 97q0 36 3 74h-163v161l185 1q55 240 217 376t393 136q138 0 257.5 -54.5t198.5 -150.5l-204 -156q-54 59 -106.5 91.5t-119.5 32.5q-227 0 -291 -275h339v-162h-360q-2 -26 -2 -79q0 -48 3 -92l359 1v-163
h-333q37 -132 114.5 -197.5t185.5 -65.5q71 0 141 38.5t113 92.5l160 -172q-81 -94 -200 -152t-254 -58z" />
    <glyph glyph-name="uni20B9" unicode="&#x20b9;" horiz-adv-x="1316" 
d="M42 865h433q119 0 182.5 39t80.5 123l-694 -1v148l692 1q-39 147 -247 147h-447v159h2l1221 1v-148l-261 -1q66 -67 85 -158h176v-148h-171q-16 -119 -90 -201t-181 -121q-15 -4 -7 -30l276 -675h-369l-230 649h-451v216z" />
    <glyph glyph-name="uni20BA" unicode="&#x20ba;" horiz-adv-x="1342" 
d="M567 0h-292v445l-159 -58l-57 158l216 79v154l-187 -68l-57 157l244 89v525h342v-401l247 90l59 -155l-306 -112v-154l275 99l56 -158l-331 -121v-319h72q116 4 206 85.5t148 237.5l266 -56q-183 -517 -742 -517z" />
    <glyph glyph-name="uni2113" unicode="&#x2113;" horiz-adv-x="1167" 
d="M623 -17q-178 0 -278 82.5t-132 252.5l-99 -66l-70 164l167 125v453q0 248 118.5 377.5t316.5 129.5q91 0 158.5 -26.5t106.5 -75t57.5 -109t18.5 -134.5q0 -55 -9.5 -107t-31.5 -101t-44.5 -90t-61.5 -87.5t-69 -80t-81.5 -79.5t-84 -73.5t-89.5 -75.5q0 -143 37.5 -201
t136.5 -58q75 0 144 40.5t142 130.5l100 -100q-17 -39 -39 -74.5t-61 -76.5t-86 -70.5t-117 -49.5t-150 -20zM516 703q272 253 272 472q0 147 -118 147q-75 0 -114.5 -73t-39.5 -252v-294z" />
    <glyph glyph-name="uni2116" unicode="&#x2116;" horiz-adv-x="2426" 
d="M2014 1500q151 0 243.5 -96.5t92.5 -249.5q0 -150 -92.5 -245t-243.5 -95q-152 0 -243.5 94.5t-91.5 245.5q0 154 94 250t241 96zM1138 1481h299v-1481h-270l-703 1019v-1019h-298v1481h296l676 -980v980zM2014 1372q-136 0 -136 -213q0 -214 136 -214q137 0 137 214
q0 213 -137 213z" />
    <glyph glyph-name="uni2117" unicode="&#x2117;" horiz-adv-x="1700" 
d="M843 -20q-155 0 -295.5 60t-242.5 161.5t-162 242.5t-60 297q0 154 60 294.5t162 242.5t242.5 162.5t295.5 60.5t296 -60.5t243 -162.5t162.5 -242.5t60.5 -294.5q0 -156 -60.5 -297.5t-162.5 -242.5t-243 -161t-296 -60zM843 146q254 0 416.5 163t162.5 432
q0 266 -163 431t-416 165q-256 0 -417.5 -164.5t-161.5 -431.5q0 -270 160.5 -432.5t418.5 -162.5zM1214 884q0 -125 -78.5 -192t-210.5 -67h-181v-281h-191v791h352q137 0 223 -63t86 -188zM1020 880q0 59 -34.5 86.5t-91.5 27.5h-150v-232h157q54 0 86.5 31t32.5 87z" />
    <glyph glyph-name="uni2120" unicode="&#x2120;" horiz-adv-x="2070" 
d="M449 -12q-95 0 -177.5 29.5t-142 93.5t-68.5 153h192q13 -62 65.5 -96t128.5 -34q81 0 134.5 30t53.5 87q0 48 -41 75t-116 42l-161 32q-107 21 -167.5 85t-61.5 168q-1 128 100 206t256 78q173 0 270 -79t99 -202h-187q-14 132 -179 132q-74 0 -118 -31t-44 -82
q0 -41 28 -66t99 -41l158 -32q252 -48 252 -285q0 -113 -104 -188t-269 -75zM1000 0v926h272l212 -660l213 660h271v-926h-189v708l-223 -708h-146l-221 705v-705h-189z" />
    <glyph glyph-name="trademark" unicode="&#x2122;" horiz-adv-x="1951" 
d="M22 759v167h740v-167h-274v-759h-187v759h-279zM882 0v926h271l212 -660l214 660h270v-926h-189v708l-222 -708h-147l-221 705v-705h-188z" />
    <glyph glyph-name="uni2126" unicode="&#x2126;" horiz-adv-x="1571" 
d="M791 1295q-160 0 -258 -128t-98 -360q0 -371 293 -581v-226h-602v258h283q-41 34 -74 65.5t-81 90.5t-80 118.5t-56 144t-24 173.5q0 104 29.5 204.5t88.5 188t141 154t195.5 105t242.5 38.5q133 0 247 -40.5t193.5 -108.5t136 -157t83.5 -186t27 -196q0 -178 -76 -313.5
t-247 -280.5h291v-258h-601v226q53 38 99 86.5t92 119.5t73.5 170t27.5 212q0 226 -93 353.5t-253 127.5z" />
    <glyph glyph-name="uni2153" unicode="&#x2153;" horiz-adv-x="1891" 
d="M1403 1497l-995 -1505l-177 3l999 1502h173zM209 549v695h-166v109q115 0 169.5 32t61.5 96h129v-932h-194zM1090 641q-1 144 98 222.5t257 78.5q163 0 262 -63t99 -187q0 -145 -167 -204q83 -24 136 -80t53 -145q0 -132 -110 -205t-278 -72t-261.5 81.5t-95.5 221.5h185
q12 -76 58.5 -112.5t115.5 -36.5q84 0 133.5 35.5t49.5 93.5q0 57 -48 92.5t-129 37.5l-90 3v153l82 4q73 3 118.5 37.5t45.5 87.5q0 49 -46 79.5t-117 30.5q-72 0 -118.5 -36.5t-50.5 -116.5h-182z" />
    <glyph glyph-name="uni2154" unicode="&#x2154;" horiz-adv-x="2220" 
d="M1733 1497l-996 -1505l-177 3l999 1502h174zM60 550v141q0 67 27 122t70 91.5t94.5 67t103.5 55.5t95 50.5t70 59.5t27 74q0 55 -39.5 90t-104.5 35q-72 0 -120 -41t-57 -121h-183q1 141 95.5 230.5t270.5 89.5q155 0 246 -77.5t91 -204.5q0 -67 -26 -120.5t-68 -88
t-92.5 -62.5t-101 -50.5t-92.5 -45.5t-68 -55t-26 -71v-7h473v-162h-685zM1418 641q0 144 99 222.5t257 78.5q163 0 262 -63t99 -187q0 -145 -167 -204q83 -24 136 -80t53 -145q0 -132 -110.5 -205t-278.5 -72t-261 81.5t-94 221.5h183q12 -76 58.5 -112.5t115.5 -36.5
q85 0 134.5 35.5t49.5 93.5q0 57 -47.5 92.5t-129.5 37.5l-89 3v153l80 4q73 3 118.5 37.5t45.5 87.5q0 49 -46 79.5t-116 30.5q-73 0 -118.5 -36.5t-49.5 -116.5h-184z" />
    <glyph glyph-name="oneeighth" unicode="&#x215b;" horiz-adv-x="1900" 
d="M1403 1497l-995 -1505l-177 3l999 1502h173zM209 549v695h-166v109q115 0 169.5 32t61.5 96h129v-932h-194zM1460 944q150 0 243.5 -69.5t93.5 -192.5q0 -67 -36 -117t-97 -79q67 -17 120 -83t53 -142q0 -125 -103 -198t-274 -73q-170 0 -273.5 73t-103.5 198
q0 76 53.5 142t120.5 83q-61 29 -97 79t-36 117q0 123 93 192.5t243 69.5zM1460 559q66 0 106 34t40 93t-40.5 94t-105.5 35q-64 0 -104 -35t-40 -94t39.5 -93t104.5 -34zM1460 133q81 0 127 36t46 97q0 62 -47 99.5t-126 37.5t-126 -37.5t-47 -99.5q0 -61 46 -97t127 -36z
" />
    <glyph glyph-name="threeeighths" unicode="&#x215c;" horiz-adv-x="2163" 
d="M1666 1497l-995 -1505l-176 3l998 1502h173zM69 1194q0 144 98.5 222.5t256.5 78.5q163 0 262 -63t99 -187q0 -145 -167 -204q83 -24 136 -80t53 -145q0 -132 -110 -205t-278 -72t-261.5 81.5t-94.5 221.5h184q12 -76 58.5 -112.5t115.5 -36.5q85 0 134 35.5t49 93.5
q0 57 -47.5 92.5t-129.5 37.5l-89 3v153l81 4q73 3 118.5 37.5t45.5 87.5q0 49 -46 79.5t-116 30.5q-73 0 -119 -36.5t-50 -116.5h-183zM1723 944q150 0 243.5 -69.5t93.5 -192.5q0 -66 -36 -116.5t-97 -79.5q67 -17 120 -83t53 -142q0 -125 -103 -198t-274 -73
q-170 0 -273 73t-103 198q0 76 53.5 142t120.5 83q-61 29 -97 79t-36 117q0 123 92.5 192.5t242.5 69.5zM1723 559q66 0 106 34t40 93t-40.5 94t-105.5 35q-64 0 -104 -35t-40 -94t39.5 -93t104.5 -34zM1723 133q81 0 127 36t46 97q0 62 -47 99.5t-126 37.5t-126 -37.5
t-47 -99.5q0 -61 46 -97t127 -36z" />
    <glyph glyph-name="fiveeighths" unicode="&#x215d;" horiz-adv-x="2156" 
d="M1659 1497l-995 -1505l-177 3l999 1502h173zM151 1481h600l-8 -158h-441l-17 -216q104 51 198 51q143 0 235 -81t92 -223q0 -148 -98 -232.5t-265 -84.5q-137 0 -243.5 61t-150.5 159l150 86q87 -154 225 -154q82 0 132 44t50 114q0 67 -49.5 111t-126.5 44
q-46 0 -82.5 -12.5t-80.5 -48.5q-12 -4 -25 2l-137 63zM1716 944q150 0 243.5 -69.5t93.5 -192.5q0 -66 -36 -116.5t-97 -79.5q67 -17 120 -83t53 -142q0 -125 -103 -198t-274 -73q-170 0 -273.5 73t-103.5 198q0 76 53.5 142t120.5 83q-61 29 -97 79t-36 117
q0 123 93 192.5t243 69.5zM1716 559q66 0 106 34t40 93t-40.5 94t-105.5 35q-64 0 -104 -35t-40 -94t39.5 -93t104.5 -34zM1716 133q81 0 127 36t46 97q0 62 -47 99.5t-126 37.5t-126 -37.5t-47 -99.5q0 -61 46 -97t127 -36z" />
    <glyph glyph-name="seveneighths" unicode="&#x215e;" horiz-adv-x="1983" 
d="M1487 1497l-995 -1505l-178 3l999 1502h174zM43 1482h697v-157q-114 -141 -216 -381t-106 -394h-206q7 85 39.5 201.5t108.5 277t180 296.5h-497v157zM1544 944q150 0 243 -69.5t93 -192.5q0 -67 -36 -117t-97 -79q67 -17 120 -83t53 -142q0 -125 -103 -198t-273 -73
q-171 0 -274 73t-103 198q0 76 53 142t120 83q-61 29 -97 79.5t-36 116.5q0 123 93.5 192.5t243.5 69.5zM1544 559q65 0 105.5 34t40.5 93q0 58 -41 93.5t-105 35.5t-104.5 -35t-40.5 -94t39.5 -93t105.5 -34zM1544 133q81 0 127 36t46 97q0 62 -47 99.5t-126 37.5
q-80 0 -126.5 -37.5t-46.5 -99.5q0 -61 46 -97t127 -36z" />
    <glyph glyph-name="partialdiff" unicode="&#x2202;" horiz-adv-x="1240" 
d="M213 1188l-83 176q55 51 167.5 94t247.5 43t244.5 -47.5t190 -140.5t124.5 -241t44 -339q0 -352 -143 -552.5t-417 -200.5q-231 0 -367 137t-136 349q0 208 129.5 342t349.5 134q66 0 120 -15t83.5 -31.5t75.5 -48.5q33 -25 33 12q0 81 -22.5 154t-67.5 133.5t-122 96.5
t-175 36q-61 0 -117.5 -15.5t-86 -31.5t-72.5 -44zM578 194h2q109 0 181.5 97.5t89.5 258.5q3 30 1 43.5t-13 28.5q-34 49 -97.5 83.5t-132.5 34.5q-106 0 -172.5 -81.5t-66.5 -205.5q0 -118 59 -188.5t149 -70.5z" />
    <glyph glyph-name="emptyset" unicode="&#x2205;" horiz-adv-x="1223" 
d="M606 282q-155 0 -281 97l-141 -130l-100 104l141 130q-80 120 -80 262q0 125 62 231.5t168 168.5t231 62q165 0 292 -103l124 115l96 -103l-125 -117q77 -117 77 -254q0 -126 -62.5 -232.5t-169 -168.5t-232.5 -62zM283 745q0 -91 46 -166l466 430q-84 60 -189 60
q-133 0 -228 -96t-95 -228zM606 420q135 0 230.5 95t95.5 230q0 86 -42 158l-463 -429q79 -54 179 -54z" />
    <glyph glyph-name="uni2206" unicode="&#x2206;" horiz-adv-x="1579" 
d="M34 0l769 1481l741 -1481h-1510zM469 251h652l-318 680z" />
    <glyph glyph-name="product" unicode="&#x220f;" horiz-adv-x="1429" 
d="M1377 1481v-247h-185v-1234h-308v1234h-354v-1234h-309v1234h-183v247h1339z" />
    <glyph glyph-name="summation" unicode="&#x2211;" horiz-adv-x="1172" 
d="M1103 0h-1045v181l426 553l-402 544v203h984v-241h-577l367 -473l-405 -514h652v-253z" />
    <glyph glyph-name="minus" unicode="&#x2212;" horiz-adv-x="1205" 
d="M1086 854v-218h-967v218h967z" />
    <glyph glyph-name="uni2215" unicode="&#x2215;" horiz-adv-x="1249" 
d="M1159 1497l-893 -1505l-176 3l896 1502h173z" />
    <glyph glyph-name="uni2219" unicode="&#x2219;" horiz-adv-x="724" 
d="M352 593q-65 0 -111 46.5t-46 111.5t46 111t111 46t111.5 -46t46.5 -111t-46.5 -111.5t-111.5 -46.5z" />
    <glyph glyph-name="radical" unicode="&#x221a;" horiz-adv-x="1402" 
d="M1400 1691l-532 -2021h-304l-310 847l-162 -60l-61 169l389 140l291 -816l438 1741h251z" />
    <glyph glyph-name="infinity" unicode="&#x221e;" horiz-adv-x="1623" 
d="M1513 562v-4q0 -171 -102.5 -271.5t-253.5 -100.5q-46 0 -87 11.5t-71 27t-64 45t-55 52.5t-56 64q-12 13 -18 13.5t-20 -13.5q-4 -4 -25 -28t-38 -42t-49.5 -44t-64.5 -43.5t-77.5 -30t-92.5 -12.5q-142 0 -243 101t-101 262q0 163 104 263.5t265 100.5q58 0 104 -12.5
t88 -43t67 -54.5t71 -74q17 -18 26 -17.5t24 17.5q37 41 61 64.5t67 56t93.5 48t109.5 15.5q148 0 243 -96t95 -255zM457 373h5q58 0 113.5 41t93.5 94q17 25 16 36t-19 41q-49 73 -99 110t-112 37q-73 0 -119.5 -49.5t-46.5 -127.5q0 -80 48.5 -131t119.5 -51zM1161 732h-2
q-59 0 -108.5 -38t-103.5 -103q-32 -37 0 -73q104 -145 220 -145q70 0 111.5 55t41.5 125q0 73 -44 126t-115 53z" />
    <glyph glyph-name="integral" unicode="&#x222b;" horiz-adv-x="960" 
d="M305 1205q0 506 386 506q147 0 231 -53l-61 -247q-80 41 -150 41q-64 0 -97.5 -49.5t-33.5 -161.5q0 -192 27.5 -567t27.5 -508q0 -517 -383 -517q-140 0 -227 52l62 247q73 -40 146 -40q62 0 95.5 49.5t33.5 165.5q0 185 -28.5 566t-28.5 516z" />
    <glyph glyph-name="approxequal" unicode="&#x2248;" horiz-adv-x="1246" 
d="M1126 937q-50 -89 -129.5 -136.5t-170.5 -47.5q-54 0 -109 19.5t-93 43t-88 43t-96 19.5q-49 0 -95 -23.5t-72.5 -49t-68.5 -72.5l-85 150q89 92 160.5 137.5t162.5 45.5q56 0 111 -19.5t92 -43t85 -43t91 -19.5q129 0 218 144zM1126 506q-50 -88 -129.5 -136t-170.5 -48
q-55 0 -110.5 19.5t-93 43t-87.5 43t-95 19.5q-70 0 -123 -38t-111 -107l-87 151q89 92 160.5 137.5t162.5 45.5q56 0 111 -19.5t92 -43.5t85 -43.5t91 -19.5q128 0 218 144z" />
    <glyph glyph-name="notequal" unicode="&#x2260;" horiz-adv-x="1205" 
d="M1086 581v-219h-593l-128 -292h-152l130 292h-224v219h320l111 249h-431v219h527l124 280h144l-122 -280l294 1v-219l-390 -1l-108 -249h498z" />
    <glyph glyph-name="lessequal" unicode="&#x2264;" horiz-adv-x="1205" 
d="M1068 670v-258l-942 367v249l943 368v-258l-615 -236zM1086 280v-217h-967v218z" />
    <glyph glyph-name="greaterequal" unicode="&#x2265;" horiz-adv-x="1205" 
d="M135 670l617 232l-618 236v258l945 -368v-249l-944 -367v258zM119 280l967 1v-218h-967v217z" />
    <glyph glyph-name="lozenge" unicode="&#x25ca;" horiz-adv-x="1138" 
d="M681 0h-199l-361 740l371 741h199l362 -737zM589 1264l-237 -518l237 -534l236 528z" />
    <glyph glyph-name="i.loclTRK" horiz-adv-x="541" 
d="M132 1212v244h286v-244h-286zM414 1059v-1059h-286v1059h286z" />
    <glyph glyph-name="g.ss01" horiz-adv-x="1241" 
d="M1124 176q1 -238 -148 -379.5t-387 -141.5q-106 0 -195.5 33.5t-145.5 85t-88.5 107t-37.5 106.5h276q10 -46 63.5 -79.5t124.5 -34.5q65 0 117 19.5t83 53.5t47.5 76t16.5 89v77q-78 -141 -321 -141q-86 0 -166.5 38t-141.5 104t-98 161t-38 202q-1 77 16 152
t53.5 142.5t88 119t124.5 81.5t158 30q100 0 184 -49.5t119 -109.5l1 139h294zM831 508l-2 110q-1 94 -63.5 171.5t-150.5 77.5q-109 0 -168.5 -89.5t-59.5 -225.5q0 -122 65.5 -206.5t167.5 -84.5q111 0 161.5 69t49.5 178z" />
    <glyph glyph-name="l.ss01" horiz-adv-x="630" 
d="M166 0v1522h299v-1522h-299z" />
    <glyph glyph-name="zero.osf" horiz-adv-x="1319" 
d="M662 1501q267 0 418 -199t151 -565q0 -365 -150 -562.5t-419 -197.5q-270 0 -421 197.5t-151 561.5q0 366 152 565.5t420 199.5zM662 222q134 0 194 119t60 395q0 281 -61.5 405.5t-194.5 124.5t-196 -125.5t-63 -404.5q0 -273 63 -393.5t198 -120.5z" />
    <glyph glyph-name="one.osf" horiz-adv-x="876" 
d="M352 0v1109h-264v169q184 0 271.5 52t97.5 151h198v-1481h-303z" />
    <glyph glyph-name="two.osf" horiz-adv-x="1300" 
d="M116 0v223q0 84 26.5 155.5t71.5 123.5t103 97t122.5 80t128.5 67t122 64.5t103 67t71.5 79t26.5 95.5q0 89 -63.5 145t-168.5 56q-116 0 -191.5 -66t-93.5 -193h-286q1 108 38 199t107.5 160.5t182 108.5t252.5 39q247 0 392 -122.5t145 -324.5q0 -84 -26 -154.5
t-69.5 -120.5t-100.5 -92.5t-119.5 -74.5t-125 -61t-119.5 -58.5t-100.5 -61.5t-69.5 -74t-26 -92v-13h754v-252h-1087z" />
    <glyph glyph-name="three.osf" horiz-adv-x="1361" 
d="M99 1028q0 116 43.5 208t120.5 150t178.5 88t221.5 30q169 0 296 -42t202.5 -132.5t75.5 -222.5q0 -234 -270 -326q135 -37 220 -127t85 -231q0 -106 -48.5 -191.5t-133 -139.5t-196 -82.5t-239.5 -28.5q-266 1 -414 128t-151 352h288q21 -122 95 -180.5t185 -58.5
q135 0 215 58t80 152t-78.5 150.5t-205.5 59.5l-142 5v238l127 7q120 5 193 61t73 142q0 79 -74 128.5t-190 49.5q-115 0 -189 -59t-82 -186h-286z" />
    <glyph glyph-name="four.osf" horiz-adv-x="1343" 
d="M763 1481h294v-902h228v-251h-228v-328h-288l1 328h-682v245zM365 579h405v542z" />
    <glyph glyph-name="five.osf" horiz-adv-x="1382" 
d="M245 1481h951l-11 -245h-704l-28 -357q84 46 157.5 66.5t161.5 20.5q149 0 265.5 -55t185.5 -165.5t69 -261.5q0 -234 -156 -370.5t-421 -136.5q-215 0 -384 97t-241 252l234 138q67 -117 152 -181.5t208 -64.5q133 0 214 70.5t81 184.5q0 108 -80 179.5t-205 71.5
q-73 0 -130.5 -20t-128.5 -76q-14 -6 -20 -6t-21 7l-217 100z" />
    <glyph glyph-name="six.osf" horiz-adv-x="1352" 
d="M712 1501q140 0 257 -49.5t191.5 -148t81.5 -229.5h-273q-55 191 -251 191q-158 0 -237.5 -132.5t-57.5 -350.5q51 72 141 113.5t196 41.5q226 0 364.5 -124.5t138.5 -329.5q0 -220 -157.5 -363t-406.5 -143q-282 0 -445.5 200t-163.5 535q0 366 165.5 577.5t456.5 211.5
zM690 714q-94 0 -175 -60.5t-81 -128.5q-1 -147 69 -232.5t186 -85.5q108 0 182.5 74t74.5 188q0 118 -71.5 181.5t-184.5 63.5z" />
    <glyph glyph-name="seven.osf" horiz-adv-x="1282" 
d="M88 1481h1106v-245q-181 -228 -343.5 -609t-170.5 -627h-323q9 99 42.5 232t93.5 298t161.5 352.5t227.5 353.5h-794v245z" />
    <glyph glyph-name="eight.osf" horiz-adv-x="1374" 
d="M686 1501q235 0 384 -110.5t149 -306.5q0 -109 -59.5 -189.5t-157.5 -126.5q106 -23 194 -128.5t88 -228.5q0 -197 -164 -315t-434 -118q-269 0 -432.5 118t-163.5 315q0 123 88 228.5t194 128.5q-98 46 -158 126.5t-60 189.5q0 131 70.5 226.5t189.5 143t272 47.5z
M686 884q104 0 169.5 55.5t65.5 151.5q0 95 -66 151.5t-169 56.5q-102 0 -167.5 -56.5t-65.5 -151.5q0 -96 65 -151.5t168 -55.5zM686 204q130 0 205 58.5t75 156.5q0 99 -75.5 160.5t-204.5 61.5q-127 0 -202 -61.5t-75 -160.5q0 -98 74.5 -156.5t202.5 -58.5z" />
    <glyph glyph-name="nine.osf" horiz-adv-x="1349" 
d="M634 -23q-139 0 -258.5 52.5t-196 152t-84.5 226.5h285q19 -88 83 -141t159 -53q170 0 261.5 121.5t73.5 375.5q-44 -84 -135 -132t-213 -48q-229 0 -372 127.5t-143 340.5q0 221 154 361.5t403 140.5q282 0 445.5 -197.5t163.5 -532.5q0 -391 -164.5 -592.5
t-461.5 -201.5zM660 769q94 0 175 59.5t81 128.5q1 148 -69 233t-187 85q-107 0 -175.5 -73t-68.5 -189q0 -114 66.5 -179t177.5 -65z" />
    <glyph glyph-name="zero.tf" horiz-adv-x="1433" 
d="M718 1501q267 0 418 -199t151 -565q0 -365 -150 -562.5t-419 -197.5q-270 0 -421 197.5t-151 561.5q0 366 152 565.5t420 199.5zM718 222q134 0 194.5 119t60.5 395q0 281 -61.5 405.5t-194.5 124.5t-196 -125.5t-63 -404.5q0 -273 62.5 -393.5t197.5 -120.5z" />
    <glyph glyph-name="one.tf" horiz-adv-x="1433" 
d="M189 252h415v909l-392 -118v261l560 178h123v-1230h373v-252h-1079v252z" />
    <glyph glyph-name="two.tf" horiz-adv-x="1433" 
d="M197 0v223q0 84 26.5 155.5t71.5 123.5t103 97t122 80t128.5 67t122.5 64.5t103 67t71.5 79t26.5 95.5q0 90 -63 145.5t-169 55.5q-114 0 -190 -66.5t-94 -192.5h-286q1 108 38 199t107 160.5t181.5 108.5t252.5 39q248 0 392.5 -122.5t144.5 -324.5q0 -84 -26 -154.5
t-69.5 -120.5t-100.5 -92.5t-119.5 -74.5t-125.5 -61t-120 -58.5t-100.5 -61.5t-69.5 -74t-26 -92v-13h756v-252h-1088z" />
    <glyph glyph-name="three.tf" horiz-adv-x="1433" 
d="M145 1025q0 116 43.5 208t120.5 150t178.5 88t221.5 30q169 0 296 -42t202.5 -132.5t75.5 -222.5q0 -234 -270 -326q135 -37 220 -127t85 -231t-84.5 -243t-222 -151.5t-310.5 -48.5q-265 1 -413.5 128.5t-151.5 352.5h288q21 -122 95.5 -180.5t185.5 -58.5
q135 0 214.5 58t79.5 152t-79 150.5t-206 59.5l-141 5v238l127 7q120 5 193 60.5t73 141.5q0 80 -74 129.5t-190 49.5q-115 0 -189 -59t-82 -186h-286z" />
    <glyph glyph-name="four.tf" horiz-adv-x="1433" 
d="M792 1481h292v-902h229v-251h-229v-328h-286v328h-681v245zM392 579h407v542z" />
    <glyph glyph-name="five.tf" horiz-adv-x="1433" 
d="M308 1481h952l-12 -245h-703l-29 -357q83 46 157.5 66.5t162.5 20.5q149 0 265.5 -55t185.5 -165.5t69 -261.5q0 -234 -156.5 -370.5t-421.5 -136.5q-215 0 -383.5 97t-240.5 252l233 138q67 -117 152 -181.5t209 -64.5q132 0 213 70.5t81 184.5q0 108 -79.5 179.5
t-204.5 71.5q-73 0 -130.5 -20t-128.5 -76q-14 -6 -20 -6t-21 7l-217 100z" />
    <glyph glyph-name="six.tf" horiz-adv-x="1433" 
d="M753 1501q140 0 257 -49.5t191.5 -148t81.5 -229.5h-272q-57 191 -251 191q-158 0 -238 -132.5t-58 -350.5q51 72 141.5 113.5t195.5 41.5q226 0 364.5 -124.5t138.5 -329.5q0 -220 -157.5 -363t-405.5 -143q-282 0 -446 200t-164 535q0 366 165.5 577.5t456.5 211.5z
M731 714q-94 0 -175 -60.5t-81 -128.5q-1 -148 69 -233t187 -85q107 0 181.5 74t74.5 188q0 118 -71 181.5t-185 63.5z" />
    <glyph glyph-name="seven.tf" horiz-adv-x="1433" 
d="M126 1481h1186v-245q-90 -114 -189 -271t-188 -328.5t-149 -343.5t-64 -293h-326q11 124 84.5 320.5t211 444.5t306.5 471h-872v245z" />
    <glyph glyph-name="eight.tf" horiz-adv-x="1433" 
d="M717 1501q235 0 383.5 -110.5t148.5 -306.5q0 -109 -59.5 -189.5t-157.5 -126.5q106 -23 194 -128.5t88 -228.5q0 -197 -163.5 -315t-433.5 -118t-433.5 118t-163.5 315q0 123 87.5 228.5t193.5 128.5q-98 46 -157.5 126.5t-59.5 189.5q0 131 70.5 226.5t190 143
t272.5 47.5zM717 884q103 0 168 55.5t65 151.5q0 95 -65.5 151.5t-167.5 56.5q-103 0 -168.5 -56.5t-65.5 -151.5q0 -96 65.5 -151.5t168.5 -55.5zM717 204q129 0 204 58.5t75 156.5q0 99 -75.5 160.5t-203.5 61.5q-127 0 -203 -61.5t-76 -160.5q0 -98 75.5 -156.5
t203.5 -58.5z" />
    <glyph glyph-name="nine.tf" horiz-adv-x="1433" 
d="M683 -23q-139 0 -258.5 52.5t-196 152t-84.5 226.5h285q19 -88 83 -141t159 -53q170 0 262 121.5t74 375.5q-44 -84 -135 -132t-214 -48q-229 0 -372 127.5t-143 340.5q0 221 154 361.5t403 140.5q282 0 445.5 -197.5t163.5 -532.5q0 -391 -164.5 -592.5t-461.5 -201.5z
M710 769q94 0 175 59.5t81 128.5q1 148 -69 233t-187 85q-107 0 -176 -73t-69 -189q0 -114 67 -179t178 -65z" />
    <glyph glyph-name="zero.subs" horiz-adv-x="823" 
d="M413 605q170 0 264 -126.5t94 -354.5q0 -227 -93.5 -351t-264.5 -124q-172 0 -266 123.5t-94 350.5q0 228 95 355t265 127zM413 -197q84 0 121 75t37 244q0 174 -37.5 252.5t-121.5 78.5t-122 -79t-38 -252q0 -168 38 -243.5t123 -75.5z" />
    <glyph glyph-name="one.subs" horiz-adv-x="525" 
d="M209 -339v695h-166v109q115 0 169.5 32t61.5 96h129v-932h-194z" />
    <glyph glyph-name="two.subs" horiz-adv-x="802" 
d="M60 -339v141q0 67 27 122t70 91.5t94.5 67t103.5 56t95 51t70 59.5t27 74q0 55 -39.5 89.5t-104.5 34.5q-72 0 -120 -41t-57 -121h-183q1 141 95.5 230.5t270.5 89.5q155 0 246 -77t91 -204q0 -67 -26 -120.5t-68 -88t-92.5 -62.5t-101 -51t-92.5 -46t-68 -55t-26 -71v-7
h473v-162h-685z" />
    <glyph glyph-name="three.subs" horiz-adv-x="870" 
d="M69 303q0 144 98.5 222.5t256.5 78.5q163 0 262 -63t99 -187q0 -144 -167 -203q83 -24 136 -80.5t53 -145.5q0 -132 -110 -205t-278 -72t-261.5 81.5t-94.5 221.5h184q12 -76 58.5 -112.5t115.5 -36.5q85 0 134 35.5t49 93.5q0 57 -47.5 92.5t-129.5 37.5l-89 4v152l81 4
q73 3 118.5 37.5t45.5 87.5q0 49 -46 79.5t-116 30.5q-73 0 -119 -36.5t-50 -116.5h-183z" />
    <glyph glyph-name="four.subs" horiz-adv-x="839" 
d="M466 596h187v-566h144v-160h-144v-206h-184l1 206h-427v156zM220 30h250v334z" />
    <glyph glyph-name="five.subs" horiz-adv-x="863" 
d="M151 594h600l-8 -158h-441l-17 -216q104 51 198 51q143 0 235 -81t92 -223q0 -148 -98 -232.5t-265 -84.5q-137 0 -243.5 61t-150.5 159l150 86q87 -154 225 -154q82 0 132 44t50 114q0 67 -49.5 111.5t-126.5 44.5q-45 0 -82 -13t-81 -49q-12 -4 -25 2l-137 63z" />
    <glyph glyph-name="six.subs" horiz-adv-x="843" 
d="M444 606q137 0 233 -73.5t102 -196.5h-175q-35 119 -155 119q-97 0 -146.5 -80t-38.5 -210q35 42 91 65t119 23q143 0 230.5 -79t87.5 -208q0 -138 -99.5 -225.5t-255.5 -87.5q-179 0 -281.5 124t-102.5 333q0 233 104.5 364.5t286.5 131.5zM430 109q-59 0 -108.5 -37.5
t-49.5 -78.5q-1 -92 43 -144t115 -52q67 0 113 45.5t46 115.5q0 74 -44.5 112.5t-114.5 38.5z" />
    <glyph glyph-name="seven.subs" horiz-adv-x="762" 
d="M43 593h697v-157q-114 -141 -216 -381t-106 -394h-206q7 85 39.5 201.5t108.5 277t180 296.5h-497v157z" />
    <glyph glyph-name="eight.subs" horiz-adv-x="879" 
d="M440 608q150 0 243 -69.5t93 -192.5q0 -66 -36 -116t-97 -79q67 -17 120 -83.5t53 -142.5q0 -125 -103 -198t-273 -73q-171 0 -274 73t-103 198q0 76 53.5 142.5t120.5 83.5q-61 29 -97.5 79t-36.5 116q0 123 93.5 192.5t243.5 69.5zM440 223q65 0 105.5 34t40.5 93
q0 58 -41 93.5t-105 35.5t-104.5 -35t-40.5 -94t39.5 -93t105.5 -34zM440 -203q81 0 127 36t46 97q0 62 -47 100t-126 38q-80 0 -126.5 -38t-46.5 -100q0 -61 46 -97t127 -36z" />
    <glyph glyph-name="nine.subs" horiz-adv-x="842" 
d="M396 -351q-137 0 -235 75t-105 195h182q11 -54 51 -86.5t98 -32.5q105 0 162 72.5t48 224.5q-31 -48 -87 -76t-130 -28q-144 0 -234 81t-90 214q0 139 97.5 227t253.5 88q178 0 280.5 -124.5t102.5 -333.5q0 -247 -104 -371.5t-290 -124.5zM413 145q58 0 107.5 38
t50.5 79q1 92 -42.5 144.5t-115.5 52.5q-66 0 -109 -45t-43 -117q0 -73 42 -112.5t110 -39.5z" />
    <glyph glyph-name="zero.dnom" horiz-adv-x="823" 
d="M413 943q170 0 264 -126.5t94 -354.5q0 -227 -93.5 -351t-264.5 -124q-172 0 -266 123.5t-94 350.5q0 228 95 355t265 127zM413 141q84 0 121 75t37 244q0 174 -37.5 252.5t-121.5 78.5t-122 -79t-38 -252q0 -168 38 -243.5t123 -75.5z" />
    <glyph glyph-name="one.dnom" horiz-adv-x="525" 
d="M209 -1v695h-166v109q115 0 169.5 32t61.5 96h129v-932h-194z" />
    <glyph glyph-name="two.dnom" horiz-adv-x="802" 
d="M60 -1v141q0 67 27 122t70 91.5t94.5 67t103.5 55.5t95 50.5t70 59.5t27 74q0 55 -39.5 90t-104.5 35q-72 0 -120 -41t-57 -121h-183q1 141 95.5 230.5t270.5 89.5q155 0 246 -77t91 -204q0 -67 -26 -120.5t-68 -88t-92.5 -62.5t-101 -51t-92.5 -46t-68 -55t-26 -71v-7
h473v-162h-685z" />
    <glyph glyph-name="three.dnom" horiz-adv-x="870" 
d="M69 641q0 144 98.5 222.5t256.5 78.5q163 0 262 -63t99 -187q0 -145 -167 -204q83 -24 136 -80t53 -145q0 -132 -110 -205t-278 -72t-261.5 81.5t-94.5 221.5h184q12 -76 58.5 -112.5t115.5 -36.5q85 0 134 35.5t49 93.5q0 57 -47.5 92.5t-129.5 37.5l-89 3v153l81 4
q73 3 118.5 37.5t45.5 87.5q0 49 -46 79.5t-116 30.5q-73 0 -119 -36.5t-50 -116.5h-183z" />
    <glyph glyph-name="four.dnom" horiz-adv-x="839" 
d="M466 934h187v-566h144v-160h-144v-206h-184l1 206h-427v156zM220 368h250v333z" />
    <glyph glyph-name="five.dnom" horiz-adv-x="863" 
d="M151 932h600l-8 -158h-441l-17 -216q104 51 198 51q143 0 235 -81t92 -223q0 -148 -98 -232.5t-265 -84.5q-137 0 -243.5 61t-150.5 159l150 86q87 -154 225 -154q82 0 132 44t50 114q0 67 -49.5 111.5t-126.5 44.5q-45 0 -82 -13t-81 -49q-12 -4 -25 2l-137 63z" />
    <glyph glyph-name="six.dnom" horiz-adv-x="843" 
d="M444 944q137 0 233 -73.5t102 -196.5h-175q-35 119 -155 119q-97 0 -146.5 -80t-38.5 -210q35 42 91 65t119 23q143 0 230.5 -79t87.5 -208q0 -138 -99.5 -225.5t-255.5 -87.5q-179 0 -281.5 123.5t-102.5 332.5q0 233 104.5 365t286.5 132zM430 446q-59 0 -108.5 -37
t-49.5 -78q-1 -92 43 -144t115 -52q67 0 113 45.5t46 115.5q0 74 -44.5 112t-114.5 38z" />
    <glyph glyph-name="seven.dnom" horiz-adv-x="762" 
d="M43 931h697v-157q-114 -141 -216 -381t-106 -394h-206q7 85 39.5 201.5t108.5 277t180 296.5h-497v157z" />
    <glyph glyph-name="eight.dnom" horiz-adv-x="879" 
d="M440 944q150 0 243 -69.5t93 -192.5q0 -67 -36 -117t-97 -79q67 -17 120 -83t53 -142q0 -125 -103 -198t-273 -73q-171 0 -274 73t-103 198q0 76 53.5 142t120.5 83q-61 29 -97.5 79.5t-36.5 116.5q0 123 93.5 192.5t243.5 69.5zM440 559q65 0 105.5 34t40.5 93
q0 58 -41 93.5t-105 35.5t-104.5 -35t-40.5 -94t39.5 -93t105.5 -34zM440 133q81 0 127 36t46 97q0 62 -47 99.5t-126 37.5q-80 0 -126.5 -37.5t-46.5 -99.5q0 -61 46 -97t127 -36z" />
    <glyph glyph-name="nine.dnom" horiz-adv-x="842" 
d="M396 -13q-137 0 -235 75t-105 195h182q11 -54 51 -86.5t98 -32.5q105 0 162 72.5t48 224.5q-31 -48 -87 -76t-130 -28q-144 0 -234 81t-90 214q0 139 97.5 227t253.5 88q178 0 280.5 -124.5t102.5 -333.5q0 -247 -104 -371.5t-290 -124.5zM413 483q58 0 107.5 38t50.5 79
q1 92 -42.5 144.5t-115.5 52.5q-66 0 -109 -45t-43 -117q0 -73 42 -112.5t110 -39.5z" />
    <glyph glyph-name="zero.numr" horiz-adv-x="823" 
d="M413 1494q170 0 264 -126.5t94 -354.5q0 -227 -93.5 -351t-264.5 -124q-172 0 -266 123.5t-94 350.5q0 228 95 355t265 127zM413 692q84 0 121 75t37 244q0 174 -37.5 252t-121.5 78t-122 -78.5t-38 -251.5q0 -168 38 -243.5t123 -75.5z" />
    <glyph glyph-name="one.numr" horiz-adv-x="525" 
d="M209 549v695h-166v109q115 0 169.5 32t61.5 96h129v-932h-194z" />
    <glyph glyph-name="two.numr" horiz-adv-x="802" 
d="M60 550v141q0 67 27 122t70 91.5t94.5 67t103.5 55.5t95 50.5t70 59.5t27 74q0 55 -39.5 90t-104.5 35q-72 0 -120 -41t-57 -121h-183q1 141 95.5 230.5t270.5 89.5q155 0 246 -77.5t91 -204.5q0 -67 -26 -120.5t-68 -88t-92.5 -62.5t-101 -50.5t-92.5 -45.5t-68 -55
t-26 -71v-7h473v-162h-685z" />
    <glyph glyph-name="three.numr" horiz-adv-x="870" 
d="M69 1194q0 144 98.5 222.5t256.5 78.5q163 0 262 -63t99 -187q0 -145 -167 -204q83 -24 136 -80t53 -145q0 -132 -110 -205t-278 -72t-261.5 81.5t-94.5 221.5h184q12 -76 58.5 -112.5t115.5 -36.5q85 0 134 35.5t49 93.5q0 57 -47.5 92.5t-129.5 37.5l-89 3v153l81 4
q73 3 118.5 37.5t45.5 87.5q0 49 -46 79.5t-116 30.5q-73 0 -119 -36.5t-50 -116.5h-183z" />
    <glyph glyph-name="four.numr" horiz-adv-x="839" 
d="M466 1482h187v-567h144v-159h-144v-206h-184l1 206h-427v155zM220 915h250v334z" />
    <glyph glyph-name="five.numr" horiz-adv-x="863" 
d="M151 1481h600l-8 -158h-441l-17 -216q104 51 198 51q143 0 235 -81t92 -223q0 -148 -98 -232.5t-265 -84.5q-137 0 -243.5 61t-150.5 159l150 86q87 -154 225 -154q82 0 132 44t50 114q0 67 -49.5 111t-126.5 44q-46 0 -82.5 -12.5t-80.5 -48.5q-12 -4 -25 2l-137 63z
" />
    <glyph glyph-name="six.numr" horiz-adv-x="843" 
d="M444 1492q137 0 233 -73.5t102 -196.5h-175q-34 118 -155 118q-98 0 -147 -79.5t-38 -209.5q35 42 91 65t119 23q143 0 230.5 -79t87.5 -208q0 -138 -99.5 -225.5t-255.5 -87.5q-179 0 -281.5 123.5t-102.5 332.5q0 233 104.5 365t286.5 132zM430 994q-59 0 -108.5 -37
t-49.5 -78q-1 -92 43 -144t115 -52q67 0 113 45.5t46 115.5q0 74 -44.5 112t-114.5 38z" />
    <glyph glyph-name="seven.numr" horiz-adv-x="762" 
d="M43 1482h697v-157q-114 -141 -216 -381t-106 -394h-206q7 85 39.5 201.5t108.5 277t180 296.5h-497v157z" />
    <glyph glyph-name="eight.numr" horiz-adv-x="879" 
d="M440 1492q150 0 243 -69.5t93 -192.5q0 -67 -36 -117t-97 -79q67 -17 120 -83t53 -142q0 -125 -103 -198t-273 -73q-171 0 -274 73t-103 198q0 76 53.5 142t120.5 83q-61 29 -97.5 79.5t-36.5 116.5q0 123 93.5 192.5t243.5 69.5zM440 1107q65 0 105.5 34t40.5 93
q0 58 -41 93.5t-105 35.5t-104.5 -35t-40.5 -94t39.5 -93t105.5 -34zM440 681q81 0 127 36t46 97q0 62 -47 99.5t-126 37.5q-80 0 -126.5 -37.5t-46.5 -99.5q0 -61 46 -97t127 -36z" />
    <glyph glyph-name="nine.numr" horiz-adv-x="842" 
d="M396 538q-137 0 -235 75t-105 195h182q11 -54 51 -86.5t98 -32.5q105 0 162 72.5t48 224.5q-31 -48 -87 -76t-130 -28q-144 0 -234 81t-90 214q0 139 97.5 227t253.5 88q178 0 280.5 -124.5t102.5 -333.5q0 -247 -104 -371.5t-290 -124.5zM413 1034q58 0 107.5 38
t50.5 79q1 92 -42.5 144.5t-115.5 52.5q-66 0 -109 -45t-43 -117q0 -73 42 -112.5t110 -39.5z" />
    <glyph glyph-name="fraction.alt" horiz-adv-x="1410" 
d="M1290 1497l-995 -1505l-176 3l998 1502h173z" />
    <glyph glyph-name="period.tf" horiz-adv-x="614" 
d="M143 0v326h328v-326h-328z" />
    <glyph glyph-name="comma.tf" horiz-adv-x="614" 
d="M148 -287l120 279l-105 9v290h303v-255l-207 -323h-111z" />
    <glyph glyph-name="emdash.alt" horiz-adv-x="1613" 
d="M1614 618v-218l-1614 -1v218z" />
    <glyph glyph-name="cent.tf" horiz-adv-x="1433" 
d="M853 0h-198v215q-186 32 -298 175t-112 363q0 218 111 365t299 180v183h198v-183q153 -29 245.5 -137.5t103.5 -260.5h-249q-11 72 -60.5 125.5t-134.5 53.5q-108 0 -171.5 -82.5t-63.5 -241.5q0 -156 64 -246t177 -90q43 0 79 17t58.5 45t36 57t18.5 59h243
q-8 -144 -101.5 -249t-244.5 -133v-215z" />
    <glyph glyph-name="colonmonetary.tf" horiz-adv-x="1433" 
d="M727 1597h132l-19 -103q41 -5 101 -21l24 124h132l-34 -177q120 -67 194 -179.5t88 -250.5h-315q-9 51 -31 99l-159 -843q76 31 125 102t65 164h315q-14 -108 -49 -195.5t-98.5 -163t-167.5 -120.5t-242 -52l-19 -106h-132l20 109q-51 6 -101 18l-25 -127h-132l34 173
q-173 87 -267.5 270.5t-94.5 434.5q0 340 170 538.5t468 208.5zM603 250q47 -20 100 -24l189 987q-46 27 -98 37zM399 749q0 -271 90 -403l173 903q-263 -49 -263 -500z" />
    <glyph glyph-name="dollar.tf" horiz-adv-x="1433" 
d="M616 1693h258v-204q191 -33 303 -152.5t110 -280.5l-303 -5q-14 105 -67.5 158t-167.5 53q-121 0 -192.5 -50t-71.5 -132q0 -65 44.5 -102.5t163.5 -68.5l239 -58q381 -92 381 -449q0 -166 -119.5 -276.5t-325.5 -137.5v-184h-258v183q-215 25 -341.5 132.5t-147.5 297.5
l311 6q24 -100 105 -153.5t205 -53.5q110 0 181.5 52.5t71.5 131.5q0 80 -50 121t-163 67l-242 52q-174 36 -273.5 138.5t-101.5 267.5q-1 177 123.5 295t327.5 149v203z" />
    </font>
</defs>
</svg>
