<?xml version="1.0" standalone="no"?>
<!DOCTYPE svg PUBLIC "-//W3C//DTD SVG 1.1//EN" "http://www.w3.org/Graphics/SVG/1.1/DTD/svg11.dtd" >
<svg xmlns="http://www.w3.org/2000/svg" xmlns:xlink="http://www.w3.org/1999/xlink" version="1.1">
<metadata>
Created by FontForge 20170731 at Sun Sep 19 03:12:19 2021
 By Aleksey,,,
Copyright (c) 2015, Impallari Type (www.impallari.com)
</metadata>
<defs>
<font id="PublicSans-ExtraLightItalic" horiz-adv-x="0" >
  <font-face 
    font-family="Public Sans ExtraLight"
    font-weight="200"
    font-style="italic"
    font-stretch="normal"
    units-per-em="2048"
    panose-1="0 0 0 0 0 0 0 0 0 0"
    ascent="1638"
    descent="-410"
    x-height="1059"
    cap-height="1481"
    bbox="-385 -492 2415 2106.45"
    underline-thickness="143"
    underline-position="-521"
    slope="-8"
    unicode-range="U+000D-FB02"
  />
<missing-glyph horiz-adv-x="1712" 
d="M425 -330q-31 0 -43 11.5t-12 37.5v1926q0 47 39 47h940q36 0 36 -43v-1921q0 -31 -16 -44.5t-51 -13.5h-893zM1250 1591h-702l733 -1708v1673q0 15 -9 25t-22 10zM519 -229h687l-732 1696v-1655q0 -21 10 -31t35 -10z" />
    <glyph glyph-name="fi" unicode="fi" horiz-adv-x="1246" 
d="M236 0l135 959h-225l17 100h221l25 171q19 126 82 188.5t178 62.5h162l-13 -99h-154q-64 0 -94.5 -36.5t-41.5 -113.5l-23 -173h258l-15 -100h-256l-136 -959h-120zM1053 1324l21 155h133l-21 -155h-133zM873 0l150 1059h120l-149 -1059h-121z" />
    <glyph glyph-name="fl" unicode="fl" horiz-adv-x="1343" 
d="M1078 -10q-213 0 -176 269l181 1263h122l-180 -1256q-12 -88 12.5 -131.5t73.5 -45.5l57 -1l-12 -86q-44 -12 -78 -12zM236 0l135 959h-225l17 100h221l25 171q19 126 82 188.5t178 62.5h162l-13 -99h-154q-64 0 -94.5 -36.5t-41.5 -113.5l-23 -173h258l-15 -100h-256
l-136 -959h-120z" />
    <glyph glyph-name="colon_one_eight_F_colon.liga" unicode="&#x3a;&#x31;&#x38;F&#x3a;" horiz-adv-x="1777" 
d="M170 0q-24 0 -24 27v1507q0 25 24 25h1510q23 0 23 -25v-1507q0 -12 -6.5 -19.5t-16.5 -7.5h-1510zM899 479q71 0 123 52t52 124q0 92 -76 144q55 52 55 119q0 63 -45.5 108t-108.5 45q-67 0 -112 -44.5t-45 -108.5q0 -63 56 -119q-76 -51 -76 -144q0 -72 51.5 -124
t125.5 -52zM571 489h57q8 0 8 9v557q0 10 -8 10h-139q-7 0 -7 -10v-54q0 -8 7 -8h75v-495q0 -9 7 -9zM1168 489h54q12 0 12 9v254h125q7 0 7 8v51q0 10 -7 10h-125v172h149q8 0 8 8v54q0 10 -8 10h-215q-8 0 -8 -10v-557q0 -9 8 -9zM899 836q-37 0 -61.5 23t-24.5 59
q0 35 25 59t61 24q35 0 59 -24t24 -59q0 -36 -24 -59t-59 -23zM899 551q-43 0 -74 30.5t-31 73.5q0 44 30.5 74.5t74.5 30.5q43 0 73 -30.5t30 -74.5q0 -43 -30 -73.5t-73 -30.5z" />
    <glyph glyph-name="colon_f_l_a_g_two_colon.liga" unicode="&#x3a;flag&#x32;&#x3a;" horiz-adv-x="2574" 
d="M231 1559h2184v-1557h-2184v1557zM2287 1430h-1095v-109h1095v109zM424 1319v-121h129v121h-129zM907 1319v-121h125v121h-125zM668 1198v-119h125v119h-125zM1192 1081h1095v113h-1095v-113zM428 1079v-121h125v121h-125zM907 1079v-121h125v121h-125zM668 958v-118h125
v118h-125zM1192 842h1095v112h-1095v-112zM428 840v-121h125v121h-125zM907 840v-121h125v121h-125zM1192 602h1095v113h-1095v-113zM356 362h1931v113h-1932zM358 129h1929v107h-1930z" />
    <glyph glyph-name="colon_f_l_a_g_colon.liga" unicode="&#x3a;flag&#x3a;" horiz-adv-x="2574" 
d="M231 1559h2184v-1557h-2184v1557zM1190 840h1106v118h-1106v121h1106v119h-1106v121h1106v119h-1946v-838h1946v119h-1106v121zM950 1319h119v-121h-119v121zM471 1319h119v-121h-119v121zM711 1198h118v-119h-118v119zM471 1079h119v-121h-119v121zM950 1079h119v-121
h-119v121zM711 958h118v-118h-118v118zM471 840h119v-121h-119v121zM950 840h119v-121h-119v121zM350 360h1946v119h-1946v-119zM350 121h1946v119h-1946v-119z" />
    <glyph glyph-name=".notdef" horiz-adv-x="1712" 
d="M425 -330q-31 0 -43 11.5t-12 37.5v1926q0 47 39 47h940q36 0 36 -43v-1921q0 -31 -16 -44.5t-51 -13.5h-893zM1250 1591h-702l733 -1708v1673q0 15 -9 25t-22 10zM519 -229h687l-732 1696v-1655q0 -21 10 -31t35 -10z" />
    <glyph glyph-name="uni0000" horiz-adv-x="55" 
 />
    <glyph glyph-name="uni0000" horiz-adv-x="55" 
 />
    <glyph glyph-name="nonmarkingreturn" horiz-adv-x="682" 
 />
    <glyph glyph-name="CR" unicode="&#xd;" horiz-adv-x="473" 
 />
    <glyph glyph-name="space" unicode=" " horiz-adv-x="517" 
 />
    <glyph glyph-name="exclam" unicode="!" horiz-adv-x="471" 
d="M161 331l132 1150h150l-195 -1150h-87zM78 0l26 194h160l-27 -194h-159z" />
    <glyph glyph-name="quotedbl" unicode="&#x22;" horiz-adv-x="797" 
d="M588 1057l15 424h175l-108 -424h-82zM272 1057l16 424h175l-109 -424h-82z" />
    <glyph glyph-name="numbersign" unicode="#" horiz-adv-x="1173" 
d="M354 -3l-93 14l74 481h-243v93h257l50 326h-241v94h256l72 478l94 -12l-72 -466h317l73 478l93 -12l-70 -466h219v-94h-234l-50 -326h218v-93h-232l-75 -495l-94 14l73 481h-316zM444 585h317l50 326h-317z" />
    <glyph glyph-name="dollar" unicode="$" horiz-adv-x="1250" 
d="M469 -225l30 207q-179 15 -283 112.5t-106 263.5l130 16q14 -136 103.5 -206t235.5 -70q137 0 251.5 75.5t131.5 194.5q17 107 -31.5 175t-167.5 107l-234 76q-151 47 -222.5 133t-51.5 221q24 170 153 284.5t319 131.5l30 212h123l-30 -213q163 -20 247.5 -133
t72.5 -267l-124 -14q-7 300 -278 300q-134 0 -246.5 -76t-132.5 -215q-13 -88 37.5 -140.5t194.5 -104.5l222 -76q294 -102 252 -398q-23 -157 -154.5 -265t-320.5 -124l-30 -207h-121z" />
    <glyph glyph-name="percent" unicode="%" horiz-adv-x="1685" 
d="M445 655q-138 0 -208 113t-43 311q28 197 130.5 310.5t239.5 113.5t207 -113t42 -311q-29 -199 -129.5 -311.5t-238.5 -112.5zM300 -8l-86 1l1265 1504h85zM455 735q99 0 170.5 95t92.5 249q22 153 -23 249t-144 96q-97 0 -169 -96.5t-94 -248.5q-21 -153 24 -248.5
t143 -95.5zM1180 -20q-138 0 -208.5 113.5t-41.5 312.5q28 196 130 309.5t239 113.5t206.5 -113.5t41.5 -309.5q-27 -200 -127.5 -313t-239.5 -113zM1190 61q96 0 169.5 97t93.5 245q21 149 -25 247t-141 98t-168.5 -98.5t-94.5 -246.5t25 -245t141 -97z" />
    <glyph glyph-name="ampersand" unicode="&#x26;" horiz-adv-x="1286" 
d="M410 -10q-187 0 -279.5 105t-68.5 278q21 139 113 245.5t268 199.5q-74 98 -105 187t-17 184q20 134 124 224t248 90q94 0 168.5 -37t114 -109.5t25.5 -165.5q-4 -30 -15 -60t-38.5 -73t-68.5 -84.5t-111 -91t-160 -96.5l286 -440q53 57 112.5 169t84.5 258h115
q-34 -157 -98 -275t-161 -233l173 -265h-144l-118 176q-222 -186 -448 -186zM560 867q122 68 193.5 126.5t98.5 102.5t34 96q8 56 -6 98.5t-45.5 66t-70 35t-83.5 11.5q-96 -1 -160 -61.5t-76 -146.5q-11 -79 20.5 -159t70.5 -132zM447 98q90 0 184.5 43.5t174.5 117.5
l-309 475q-275 -149 -302 -364q-14 -121 58 -196.5t194 -75.5z" />
    <glyph glyph-name="quotesingle" unicode="'" horiz-adv-x="482" 
d="M272 1057l16 424h175l-109 -424h-82z" />
    <glyph glyph-name="parenleft" unicode="(" horiz-adv-x="562" 
d="M301 -230q-94 232 -127 442t1 457q34 242 141 476t261 435h80q-292 -469 -354 -913q-61 -426 78 -897h-80z" />
    <glyph glyph-name="parenright" unicode=")" horiz-adv-x="579" 
d="M298 1577q94 -232 127 -442.5t-1 -456.5q-35 -243 -141.5 -477.5t-259.5 -433.5h-81q133 213 227.5 448t126.5 465q61 425 -78 897h80z" />
    <glyph glyph-name="asterisk" unicode="*" horiz-adv-x="713" 
d="M303 850l-86 57l183 234l-250 72l30 90l242 -94l-16 272h108l-14 -272l244 104l28 -88l-246 -83l177 -221l-86 -64l-153 247z" />
    <glyph glyph-name="plus" unicode="+" horiz-adv-x="1042" 
d="M442 327l52 363l-341 -1l15 108h341l51 366h102l-52 -365h340l-15 -107l-340 -1l-51 -363h-102z" />
    <glyph glyph-name="comma" unicode="," horiz-adv-x="439" 
d="M-24 -241l139 239l-75 2l28 191h186l-24 -164l-183 -268h-71z" />
    <glyph glyph-name="hyphen" unicode="-" horiz-adv-x="721" 
d="M121 474l15 110l464 2l-14 -111z" />
    <glyph glyph-name="period" unicode="." horiz-adv-x="401" 
d="M44 0l28 195h159l-27 -195h-160z" />
    <glyph glyph-name="slash" unicode="/" horiz-adv-x="643" 
d="M-59 -102l699 1583h106l-700 -1583h-105z" />
    <glyph glyph-name="zero" unicode="0" horiz-adv-x="1154" 
d="M499 -23q-221 0 -320 192.5t-47 564.5q54 375 208.5 571t374.5 196q219 0 318 -195t47 -569q-53 -373 -206.5 -566.5t-374.5 -193.5zM518 96q165 0 272 155t152 486q92 647 -245 647q-340 0 -430 -647q-89 -641 251 -641z" />
    <glyph glyph-name="one" unicode="1" horiz-adv-x="781" 
d="M300 0l173 1218h-276l13 99q125 0 195 17.5t99.5 51.5t41.5 95h93l-212 -1481h-127z" />
    <glyph glyph-name="two" unicode="2" horiz-adv-x="1118" 
d="M57 0l15 98l7 52q12 86 47.5 158.5t85.5 126t112 100t128.5 85t133 75.5t127.5 78t110 86t83 105.5t44 131.5q18 128 -55 206t-213 78q-150 0 -252 -89.5t-130 -234.5h-126q15 92 58 172t109.5 141t161 96.5t204.5 35.5q195 0 296.5 -111.5t75.5 -294.5
q-12 -86 -47 -158.5t-85 -125t-111 -98.5t-127 -83.5t-132 -73.5t-126.5 -76.5t-109 -85t-82 -104.5t-43.5 -131l-6 -38h745l-17 -121h-881z" />
    <glyph glyph-name="three" unicode="3" horiz-adv-x="1186" 
d="M495 -23q-198 2 -313 120.5t-96 310.5h128q-1 -145 80.5 -228.5t224.5 -83.5q166 0 279 84t133 219q14 101 -29.5 174t-126 107.5t-193.5 35.5l-121 1l17 118l118 1q149 1 264 87t133 202q14 106 -62.5 183t-229.5 77q-83 0 -159.5 -34t-136.5 -109t-76 -179h-127
q18 131 94.5 232t186.5 153.5t234 52.5q208 0 321.5 -101t88.5 -273q-15 -112 -97.5 -202.5t-221.5 -140.5q143 -43 210 -142.5t48 -239.5q-28 -194 -186 -310.5t-385 -114.5z" />
    <glyph glyph-name="four" unicode="4" horiz-adv-x="1182" 
d="M681 0l57 407h-656l19 132l784 942h129l-134 -955h236l-17 -119h-238l-57 -407h-123zM222 526h529l109 769z" />
    <glyph glyph-name="five" unicode="5" horiz-adv-x="1207" 
d="M542 -23q-186 0 -311.5 110t-148.5 289l124 30q28 -143 118.5 -228.5t229.5 -85.5q162 0 273.5 103.5t137.5 285.5q23 165 -62.5 267t-225.5 102q-107 0 -187.5 -34.5t-172.5 -137.5q-5 -2 -9 1l-117 21l171 781h796l-19 -118h-678l-117 -547q139 149 366 149
q90 0 166.5 -31t132.5 -89.5t80.5 -151.5t8.5 -208q-32 -229 -184.5 -368.5t-371.5 -139.5z" />
    <glyph glyph-name="six" unicode="6" horiz-adv-x="1169" 
d="M530 -23q-231 0 -339.5 197.5t-59.5 546.5q33 237 115.5 410.5t214.5 271.5t301 98q164 0 270 -97t110 -265h-119q-14 115 -86 182t-189 67q-204 0 -331 -185.5t-162 -546.5q54 135 170.5 220t251.5 85q204 0 309 -128t74 -350q-32 -228 -174.5 -367t-355.5 -139zM550 93
q142 0 246.5 106.5t128.5 277.5q25 172 -44.5 270.5t-228.5 98.5q-131 0 -246.5 -96t-135.5 -230q-28 -185 49.5 -306t230.5 -121z" />
    <glyph glyph-name="seven" unicode="7" horiz-adv-x="1134" 
d="M270 0q51 159 146.5 369t255.5 485.5t337 508.5h-793l17 118h936l-18 -118q-225 -285 -452 -707t-296 -656h-133z" />
    <glyph glyph-name="eight" unicode="8" horiz-adv-x="1232" 
d="M538 -23q-232 0 -356 114.5t-97 303.5q19 128 122.5 241t218.5 135q-100 45 -148.5 129t-31.5 205q26 184 168 290t338 106q198 0 309 -106t85 -290q-17 -121 -89 -205.5t-184 -128.5q70 -14 129.5 -70.5t89.5 -139t18 -166.5q-26 -189 -182.5 -303.5t-389.5 -114.5z
M657 831q145 0 243 74t117 204t-59 207.5t-222 77.5q-143 0 -241.5 -77.5t-117.5 -207.5q-18 -129 59 -203.5t221 -74.5zM554 89q172 0 286.5 83t134.5 220q20 138 -72 226.5t-263 88.5q-169 0 -285.5 -88.5t-136.5 -226.5q-19 -137 73 -220t263 -83z" />
    <glyph glyph-name="nine" unicode="9" horiz-adv-x="1176" 
d="M467 -23q-165 0 -274 97t-115 263h123q11 -111 86.5 -178.5t193.5 -67.5q207 0 339.5 182.5t169.5 550.5q-53 -138 -170 -223.5t-255 -85.5q-205 0 -310.5 127.5t-74.5 351.5q32 229 174 368t354 139q231 0 339 -197t58 -546q-52 -365 -218 -573t-420 -208zM586 632
q86 0 169 42.5t141.5 118.5t70.5 165q29 185 -48.5 306.5t-229.5 121.5q-142 0 -245.5 -107t-127.5 -279q-24 -171 43.5 -269.5t226.5 -98.5z" />
    <glyph glyph-name="colon" unicode=":" horiz-adv-x="403" 
d="M161 812l27 195h160l-27 -195h-160zM45 6l28 194h159l-27 -194h-160z" />
    <glyph glyph-name="semicolon" unicode=";" horiz-adv-x="438" 
d="M186 810l27 196h162l-28 -196h-161zM5 -279l139 279h-64l26 194h160l-23 -171l-182 -302h-56z" />
    <glyph glyph-name="less" unicode="&#x3c;" horiz-adv-x="1029" 
d="M866 325l-719 321l18 130l813 329l-17 -135l-646 -258l569 -258z" />
    <glyph glyph-name="equal" unicode="=" horiz-adv-x="1044" 
d="M182 889l15 106l782 2l-15 -106zM119 442l15 107l781 2l-14 -107z" />
    <glyph glyph-name="greater" unicode="&#x3e;" horiz-adv-x="1027" 
d="M103 325l20 129l642 258l-571 258l19 135l719 -329l-19 -130z" />
    <glyph glyph-name="question" unicode="?" horiz-adv-x="990" 
d="M377 335q11 80 41.5 152t71 127t87 106t92.5 99t85 95.5t67.5 105t37.5 119.5q17 116 -49.5 184t-192.5 68q-101 0 -203.5 -60.5t-146.5 -146.5l-108 44q78 127 205.5 200t270.5 73q185 0 282 -98.5t74 -260.5q-10 -72 -41 -137t-72.5 -116t-90 -100t-96.5 -98
t-90 -100.5t-72.5 -117t-41.5 -138.5h-110zM306 0l29 194h158l-28 -194h-159z" />
    <glyph glyph-name="at" unicode="@" horiz-adv-x="1605" 
d="M715 -225q-110 0 -205 26.5t-166 75.5t-125 117t-82 150.5t-38.5 178t5.5 197.5q23 161 98.5 307t187 254.5t261 173t311.5 64.5q97 0 185.5 -23t166 -74t130 -124t74.5 -181t4 -238q-32 -227 -155 -372t-276 -145q-72 0 -107.5 26t-40.5 84q-2 9 -4 11.5t-6 0.5t-11 -9
q-117 -142 -282 -142q-105 0 -167 98.5t-38 253.5q27 195 146.5 329t272.5 134q75 0 126 -35.5t74 -98.5q1 -7 8 -1l5 7l30 77h95l-136 -463q-26 -95 -13 -131.5t68 -36.5q101 0 187 111t110 290q17 115 -1.5 209t-62.5 156.5t-109.5 105t-138.5 61.5t-153 19
q-145 0 -273 -56t-221 -151.5t-154.5 -222.5t-81.5 -270q-12 -106 -2.5 -201t51.5 -175.5t107 -139.5t163.5 -92t221.5 -33q80 0 150.5 20.5t109 42.5t109.5 69l45 -81q-211 -153 -453 -153zM675 242q94 0 181 86t120 208q40 145 -2.5 225t-127.5 80q-108 0 -190.5 -100.5
t-103.5 -248.5q-17 -116 15.5 -183t107.5 -67z" />
    <glyph glyph-name="A" unicode="A" horiz-adv-x="1361" 
d="M30 0l712 1481h150l290 -1481h-127l-85 440h-600l-213 -440h-127zM423 566h528l-150 785z" />
    <glyph glyph-name="B" unicode="B" horiz-adv-x="1289" 
d="M137 0l212 1481h411q242 0 356.5 -100t88.5 -288q-20 -126 -92.5 -209t-220.5 -131q147 -31 208 -124t39 -236q-28 -196 -174.5 -294.5t-401.5 -98.5h-426zM374 808h317q65 0 124.5 12.5t118 41.5t98.5 86t51 135q21 143 -69.5 213t-267.5 70h-292zM278 117h291
q203 0 315.5 67t133.5 213q11 78 -10 135.5t-69.5 91.5t-112.5 50t-146 16h-322z" />
    <glyph glyph-name="C" unicode="C" horiz-adv-x="1317" 
d="M618 -20q-269 0 -389 189t-78 549q41 373 213 578t457 205q137 0 240 -64t154 -167t48 -227h-134q-8 148 -91 243.5t-236 95.5q-220 0 -349 -171.5t-167 -495.5q-38 -312 49 -464t298 -152q152 0 260.5 96.5t156.5 244.5h133q-22 -91 -71 -172.5t-120 -146.5t-168 -103
t-206 -38z" />
    <glyph glyph-name="D" unicode="D" horiz-adv-x="1330" 
d="M140 0l207 1481h14t34.5 -0.5t48 -1t59.5 -0.5h63q346 -1 514.5 -129.5t168.5 -420.5q0 -150 -25 -280.5t-87 -252t-157 -207.5t-245 -137.5t-342 -51.5h-253zM286 119h114q192 0 333 59t224.5 168t123 251.5t39.5 321.5q0 125 -34.5 211.5t-104.5 137t-164 72.5t-225 22
h-131z" />
    <glyph glyph-name="E" unicode="E" horiz-adv-x="1201" 
d="M137 0l212 1481h828l-18 -119h-705l-79 -554h646l-15 -120h-648l-80 -565l729 -2l-19 -121h-851z" />
    <glyph glyph-name="F" unicode="F" horiz-adv-x="1138" 
d="M139 0l210 1481h816l-16 -119h-689l-77 -555h628l-16 -119h-629l-99 -688h-128z" />
    <glyph glyph-name="G" unicode="G" horiz-adv-x="1404" 
d="M613 -20q-269 0 -391 196.5t-70 560.5t232.5 564t449.5 200q124 0 227 -64t157.5 -169.5t47.5 -224.5h-133q-3 138 -92 237.5t-227 99.5q-206 0 -346 -161.5t-185 -479.5q-45 -320 51 -480t302 -160q76 0 145.5 25.5t120 67.5t90 95.5t62.5 108t32 107.5l25 154h-365
l16 102l489 -1l-107 -758h-103l35 244q-79 -118 -195 -191t-268 -73z" />
    <glyph glyph-name="H" unicode="H" horiz-adv-x="1494" 
d="M138 0l208 1481h123l-92 -652h825l91 652h122l-208 -1481h-122l100 709h-825l-99 -709h-123z" />
    <glyph glyph-name="I" unicode="I" horiz-adv-x="550" 
d="M139 0l210 1481h122l-209 -1481h-123z" />
    <glyph glyph-name="J" unicode="J" horiz-adv-x="752" 
d="M244 -20q-67 0 -126.5 19t-82.5 34l35 129q7 -4 29 -16t37.5 -19t43.5 -14t59 -7q91 0 134 55.5t62 192.5l161 1127h121l-166 -1167q-24 -168 -93 -251t-214 -83z" />
    <glyph glyph-name="K" unicode="K" horiz-adv-x="1294" 
d="M137 0l212 1481h126l-115 -815l795 815h153l-562 -581l388 -900h-146l-352 802l-301 -313l-70 -489h-128z" />
    <glyph glyph-name="L" unicode="L" horiz-adv-x="1128" 
d="M137 0l212 1481h127l-193 -1357h680l-18 -124h-808z" />
    <glyph glyph-name="M" unicode="M" horiz-adv-x="1689" 
d="M139 0l210 1481h159l282 -1318l664 1318h156l-209 -1481h-130l176 1233l-612 -1233h-136l-259 1220l-174 -1220h-127z" />
    <glyph glyph-name="N" unicode="N" horiz-adv-x="1443" 
d="M137 0l212 1481h111l606 -1247l177 1247h123l-212 -1481h-107l-609 1251l-178 -1251h-123z" />
    <glyph glyph-name="O" unicode="O" horiz-adv-x="1396" 
d="M622 -20q-273 0 -398 196t-73 558q52 367 235 567t454 200q270 0 393.5 -199t71.5 -565q-52 -363 -232.5 -560t-450.5 -197zM641 99q439 0 529 637q45 325 -44.5 485.5t-304.5 160.5t-352 -162t-182 -484q-45 -319 46.5 -478t307.5 -159z" />
    <glyph glyph-name="P" unicode="P" horiz-adv-x="1222" 
d="M139 0l210 1481h445q226 0 347.5 -119.5t90.5 -338.5q-32 -219 -183 -341.5t-370 -122.5h-333l-79 -559h-128zM362 678h333q164 0 277 94t137 259q22 164 -66.5 248t-262.5 84h-319z" />
    <glyph glyph-name="Q" unicode="Q" horiz-adv-x="1428" 
d="M1151 -246q-37 0 -73.5 5.5t-79.5 22t-79.5 43t-71 71.5t-56.5 104q-102 -20 -169 -20q-269 0 -396 195t-74 562q52 368 233.5 566t453.5 198q270 0 394.5 -198t72.5 -566q-35 -250 -128.5 -419t-258.5 -262q53 -177 249 -185zM639 99q216 0 351.5 158t180.5 479
q45 319 -44.5 482.5t-305.5 163.5q-217 0 -353 -163.5t-182 -485.5q-44 -320 46.5 -477t306.5 -157z" />
    <glyph glyph-name="R" unicode="R" horiz-adv-x="1300" 
d="M137 0l212 1481h507q212 0 310 -98.5t72 -284.5q-13 -88 -47.5 -158.5t-84 -117t-100 -75.5t-107.5 -47l179 -700h-132l-170 676h-420l-96 -676h-123zM372 792h326q183 0 286.5 71t124.5 221q39 283 -276 283h-379z" />
    <glyph glyph-name="S" unicode="S" horiz-adv-x="1301" 
d="M583 -20q-131 0 -235.5 44t-169.5 135t-66 217h132q10 -135 109 -209t245 -74q164 0 279.5 76.5t131.5 198.5q28 220 -208 284l-279 75q-312 82 -274 353q24 183 172 301t358 118q113 0 202 -36.5t140.5 -96t74.5 -133.5t13 -152h-131q3 81 -20.5 141t-69 94t-102 49.5
t-124.5 15.5q-62 0 -124 -18t-117 -52.5t-93 -91.5t-48 -129q-11 -91 40 -146.5t191 -95.5l269 -76q85 -22 143 -65.5t83 -96.5t34.5 -115.5t-2.5 -123.5q-22 -168 -169.5 -279.5t-384.5 -111.5z" />
    <glyph glyph-name="T" unicode="T" horiz-adv-x="1122" 
d="M439 0l193 1359h-460l16 122h1011l-15 -122h-430l-193 -1359h-122z" />
    <glyph glyph-name="U" unicode="U" horiz-adv-x="1340" 
d="M612 -20q-248 0 -344 130.5t-58 397.5l137 973h129l-142 -1005q-27 -187 47.5 -283.5t247.5 -96.5q175 0 279 95.5t131 284.5l143 1005h122l-142 -999q-35 -251 -170.5 -376.5t-379.5 -125.5z" />
    <glyph glyph-name="V" unicode="V" horiz-adv-x="1246" 
d="M463 0l-275 1481h124l249 -1340l641 1340h123l-705 -1481h-157z" />
    <glyph glyph-name="W" unicode="W" horiz-adv-x="1816" 
d="M370 0l-181 1481h129l148 -1293l522 1293h104l155 -1293l522 1293h126l-610 -1481h-130l-149 1249l-508 -1249h-128z" />
    <glyph glyph-name="X" unicode="X" horiz-adv-x="1311" 
d="M30 0l580 758l-349 723h157l288 -609l462 609h143l-550 -714l372 -767h-155l-310 648l-495 -648h-143z" />
    <glyph glyph-name="Y" unicode="Y" horiz-adv-x="1101" 
d="M417 0l88 636l-343 845h133l290 -726l488 726h135l-579 -847l-91 -634h-121z" />
    <glyph glyph-name="Z" unicode="Z" horiz-adv-x="1203" 
d="M67 0l13 81l966 1283h-760l16 117h929l-11 -78l-973 -1285h788l-18 -118h-950z" />
    <glyph glyph-name="bracketleft" unicode="[" horiz-adv-x="563" 
d="M83 -330l255 1811h312l-14 -95h-196l-232 -1622h196l-13 -94h-308z" />
    <glyph glyph-name="backslash" unicode="\" horiz-adv-x="637" 
d="M412 -102l-248 1583h105l249 -1583h-106z" />
    <glyph glyph-name="bracketright" unicode="]" horiz-adv-x="563" 
d="M493 1481l-255 -1811h-312l14 94h196l232 1622h-197l14 95h308z" />
    <glyph glyph-name="asciicircum" unicode="^" horiz-adv-x="905" 
d="M68 272l379 734q36 70 78.5 72t61.5 -72l174 -737h-114l-143 641l-328 -638h-108z" />
    <glyph glyph-name="underscore" unicode="_" horiz-adv-x="970" 
d="M25 -220l17 109l708 2l-18 -109z" />
    <glyph glyph-name="grave" unicode="`" horiz-adv-x="456" 
d="M303 1481l236 -298h-105l-290 298h159z" />
    <glyph glyph-name="a" unicode="a" horiz-adv-x="1061" 
d="M359 -20q-147 0 -222.5 79.5t-56.5 218.5q25 178 147.5 261.5t372.5 90.5l204 7l14 93q16 115 -45 180t-178 65q-100 -1 -179.5 -55t-109.5 -151h-116q27 130 142 220t283 90q172 0 258.5 -92.5t63.5 -251.5l-104 -735h-107l19 200q-136 -220 -386 -220zM403 82
q74 0 154.5 37.5t138 99.5t66.5 125l28 197l-169 -4q-206 -4 -302 -61.5t-116 -186.5q-12 -97 42.5 -152t157.5 -55z" />
    <glyph glyph-name="b" unicode="b" horiz-adv-x="1160" 
d="M566 -20q-72 0 -128.5 19t-88.5 45.5t-55 62.5t-31 60.5t-12 49.5l-40 -217h-99l199 1522h124l-84 -644q11 20 29.5 42.5t51.5 52t72.5 52t96 38.5t117.5 16q191 0 282 -138.5t56 -406.5q-34 -257 -159.5 -405.5t-330.5 -148.5zM564 86q142 0 239 115t127 344
q27 200 -37 313t-218 113q-163 0 -250.5 -109t-117.5 -317q-32 -244 26.5 -351.5t230.5 -107.5z" />
    <glyph glyph-name="c" unicode="c" horiz-adv-x="1053" 
d="M470 -20q-203 0 -303 139.5t-63 406.5q36 254 172 403.5t351 149.5q151 0 245 -86t97 -241h-117q-2 97 -66.5 157t-173.5 60q-148 0 -251.5 -112t-134.5 -331q-29 -204 37 -322.5t224 -118.5q108 0 191 61t112 156h114q-45 -152 -164 -237t-270 -85z" />
    <glyph glyph-name="d" unicode="d" horiz-adv-x="1156" 
d="M450 -20q-195 0 -287.5 141t-57.5 413q33 253 157 399t326 146q61 0 113.5 -16t85.5 -38.5t58.5 -51.5t37.5 -52t18 -43l85 644h124l-201 -1522h-99l16 217q-11 -25 -25.5 -49.5t-46.5 -60.5t-70.5 -62.5t-100.5 -45.5t-133 -19zM479 86q172 0 259 107.5t119 351.5
q25 208 -34 317t-223 109q-144 0 -241 -106.5t-125 -319.5q-29 -216 33 -337.5t212 -121.5z" />
    <glyph glyph-name="e" unicode="e" horiz-adv-x="1092" 
d="M490 -20q-205 0 -308 143t-67 396q36 260 173.5 410t346.5 150q199 0 289.5 -136.5t55.5 -380.5l-8 -62h-734q-15 -84 -3.5 -159t41 -131.5t89 -89.5t140.5 -33q108 0 191.5 55t116.5 152h120q-49 -151 -173 -232.5t-270 -81.5zM253 599h611q24 167 -38 270.5t-208 103.5
q-78 0 -144.5 -32.5t-111 -87t-72 -119.5t-37.5 -135z" />
    <glyph glyph-name="f" unicode="f" horiz-adv-x="769" 
d="M236 0l135 959h-225l17 100h221l25 171q19 126 82 188.5t178 62.5h162l-13 -99h-154q-64 0 -94.5 -36.5t-41.5 -113.5l-23 -173h258l-15 -100h-256l-136 -959h-120z" />
    <glyph glyph-name="g" unicode="g" horiz-adv-x="1193" 
d="M447 -350q-222 0 -337.5 75t-96.5 218q7 54 39 100.5t63.5 70t70.5 47t43 26.5q-4 3 -12.5 9t-13.5 9.5t-14 11t-12.5 13t-10.5 15.5t-8 18t-4 21.5t1 25.5q5 45 51 82.5t128 59.5q-76 46 -113.5 121.5t-25.5 168.5q21 154 137 243.5t315 89.5q92 0 155.5 -24t115.5 -73
q195 84 248 105l-18 -144l-181 -40q27 -77 18 -164q-20 -146 -131.5 -234t-303.5 -88q-29 0 -39 1q-119 -2 -174 -26t-59 -59q-3 -32 37.5 -47t148.5 -23q29 -2 103.5 -6.5t114.5 -7.5q143 -8 215 -80.5t55 -200.5q-19 -145 -147.5 -229.5t-357.5 -84.5zM561 508
q127 0 208.5 60t96.5 175q15 117 -49 178t-188 61q-129 0 -213 -63t-100 -183q-14 -110 49.5 -169t195.5 -59zM478 -254q153 0 245 54t105 159q9 73 -34 117.5t-139 51.5l-303 20q-57 4 -130.5 -55t-84.5 -142q-12 -97 73 -151t268 -54z" />
    <glyph glyph-name="h" unicode="h" horiz-adv-x="1126" 
d="M112 0l202 1522h118l-82 -617q50 75 140 123t205 48q148 0 236 -85t69 -218l-102 -773h-124l99 740q13 105 -45.5 165t-172.5 60q-126 0 -218 -62t-106 -178l-98 -725h-121z" />
    <glyph glyph-name="i" unicode="i" horiz-adv-x="477" 
d="M284 1324l21 155h133l-21 -155h-133zM104 0l150 1059h120l-149 -1059h-121z" />
    <glyph glyph-name="j" unicode="j" horiz-adv-x="488" 
d="M288 1305l21 154h136l-21 -154h-136zM-56 -340q-49 0 -78.5 5t-35.5 11l-5 5l13 86l110 3q71 3 104.5 38.5t45.5 121.5l161 1129h122l-162 -1138q-19 -139 -80 -200t-195 -61z" />
    <glyph glyph-name="k" unicode="k" horiz-adv-x="1073" 
d="M97 0l217 1522h122l-147 -1044l600 581h150l-410 -393l287 -666h-137l-248 573l-267 -254l-44 -319h-123z" />
    <glyph glyph-name="l" unicode="l" horiz-adv-x="574" 
d="M310 -10q-216 0 -176 269l180 1263h122l-180 -1256q-12 -88 12.5 -131.5t73.5 -45.5l57 -1l-12 -86q-43 -12 -77 -12z" />
    <glyph glyph-name="m" unicode="m" horiz-adv-x="1642" 
d="M98 0l151 1059h115l-22 -153q118 173 316 173q57 0 110.5 -18.5t96 -58.5t56.5 -95q59 81 144.5 126.5t181.5 45.5q31 0 60 -4.5t60.5 -15.5t55.5 -30t47 -48t34 -69.5t15.5 -94t-7.5 -122.5l-98 -695h-121l98 688q40 283 -185 283q-46 0 -89.5 -12.5t-85.5 -39
t-72.5 -77.5t-40.5 -120l-103 -722h-120l107 760q13 98 -48 154.5t-145 56.5q-97 0 -182 -61t-102 -179l-106 -731h-121z" />
    <glyph glyph-name="n" unicode="n" horiz-adv-x="1110" 
d="M98 0l151 1059h115l-19 -153q50 76 140 123.5t204 47.5q153 0 235 -100t55 -287l-98 -690h-122l97 682q20 135 -36 209t-169 74q-81 0 -149.5 -25t-117.5 -80.5t-60 -133.5l-105 -726h-121z" />
    <glyph glyph-name="o" unicode="o" horiz-adv-x="1087" 
d="M472 -20q-204 0 -303.5 139t-64.5 406q35 256 168 405t348 149q202 0 300 -142t62 -412q-34 -252 -165 -398.5t-345 -146.5zM488 87q147 0 245 113.5t127 327.5q27 203 -36 323t-219 120q-151 0 -249.5 -113.5t-126.5 -329.5q-17 -132 2.5 -229t84.5 -154.5t172 -57.5z
" />
    <glyph glyph-name="p" unicode="p" horiz-adv-x="1154" 
d="M65 -330l182 1389h121l-23 -203q21 36 49 70t72 71t107.5 59.5t136.5 22.5q191 0 284 -134t58 -398q-35 -267 -163 -417t-331 -150q-59 0 -107.5 16t-79.5 40t-55 57t-36 60t-21 57l-71 -540h-123zM557 87q144 0 243 114t128 339q27 201 -37.5 316t-217.5 115
q-152 0 -249.5 -116t-122.5 -315q-18 -131 4 -232t86.5 -161t165.5 -60z" />
    <glyph glyph-name="q" unicode="q" horiz-adv-x="1157" 
d="M864 -330h-124l71 540q-17 -30 -36 -57t-51.5 -60t-69.5 -57t-90 -40t-111 -16q-194 0 -288.5 142t-56.5 425q33 250 157 391t325 141q59 0 109 -16t81.5 -39t57 -55t38 -58t21.5 -55l29 203h122zM482 87q150 0 249.5 126.5t125.5 326.5q26 199 -40.5 315t-218.5 116
q-144 0 -242.5 -109t-126.5 -322q-28 -211 36 -332t217 -121z" />
    <glyph glyph-name="r" unicode="r" horiz-adv-x="744" 
d="M97 0l150 1059h115l-24 -178q50 103 134 150.5t176 47.5q63 0 90 -17l-17 -126q-30 15 -91 15q-49 2 -97 -9.5t-93.5 -38.5t-78 -79t-42.5 -122l-98 -702h-124z" />
    <glyph glyph-name="s" unicode="s" horiz-adv-x="965" 
d="M426 -20q-164 0 -259.5 79t-91.5 235h118q5 -99 69 -154t178 -55q115 0 188 49t86 144q9 66 -19 106t-94 60l-213 63q-115 33 -170 97t-41 170q19 140 122 222.5t279 82.5q154 0 235 -74.5t67 -216.5h-116q2 87 -49.5 137t-152.5 50q-110 0 -181.5 -49.5t-84.5 -146.5
q-9 -63 28.5 -100.5t120.5 -61.5l209 -63q109 -32 149 -104.5t27 -164.5q-20 -142 -124.5 -223.5t-279.5 -81.5z" />
    <glyph glyph-name="t" unicode="t" horiz-adv-x="735" 
d="M424 -2q-128 0 -169 58t-21 190l101 713h-161l15 100h161l70 302h96l-42 -302h225l-14 -100h-226l-100 -702q-13 -95 12.5 -123.5t105.5 -28.5h94l-13 -94q-38 -13 -134 -13z" />
    <glyph glyph-name="u" unicode="u" horiz-adv-x="1122" 
d="M460 -20q-172 2 -264 96t-67 272l99 711h123l-99 -703q-18 -125 41.5 -196.5t195.5 -71.5q128 0 212.5 72t103.5 211l97 688h122l-148 -1059h-103l17 198q-41 -106 -128 -163t-202 -55z" />
    <glyph glyph-name="v" unicode="v" horiz-adv-x="956" 
d="M334 0l-199 1059h121l157 -904h20l420 904h118l-499 -1059h-138z" />
    <glyph glyph-name="w" unicode="w" horiz-adv-x="1505" 
d="M296 0l-145 1059h118l118 -902h20l372 902h99l129 -899h19l362 899h117l-435 -1059h-146l-125 860l-353 -860h-150z" />
    <glyph glyph-name="x" unicode="x" horiz-adv-x="1064" 
d="M5 0l457 550l-278 509h140l226 -414l341 414h139l-423 -509l303 -550h-140l-250 455l-376 -455h-139z" />
    <glyph glyph-name="y" unicode="y" horiz-adv-x="1001" 
d="M109 -338q-46 0 -79 5t-43 11l-10 5l14 85l103 -1q63 -1 108.5 18t68 43.5t41.5 62.5l61 123l-238 1045h126l195 -889l441 889h119l-591 -1180q-62 -118 -139 -167.5t-177 -49.5z" />
    <glyph glyph-name="z" unicode="z" horiz-adv-x="919" 
d="M13 0l12 91l719 867h-555l15 101h698l-12 -91l-718 -868h601l-14 -100h-746z" />
    <glyph glyph-name="braceleft" unicode="{" horiz-adv-x="572" 
d="M331 -330q-107 0 -158 54t-39 144l67 458q7 50 -9.5 95.5t-63 77t-115.5 31.5l16 95q105 1 167.5 60t76.5 155l65 449q12 87 78.5 139.5t170.5 52.5h71l-13 -95h-60q-66 0 -95.5 -25t-37.5 -80l-65 -452q-16 -112 -76 -173.5t-140 -69.5q-7 -1 -10.5 -4t-1.5 -6.5
t10 -4.5q78 -7 120.5 -65t27.5 -175l-64 -456q-9 -59 13 -85t90 -26h59l-14 -94h-70z" />
    <glyph glyph-name="bar" unicode="|" horiz-adv-x="530" 
d="M93 -330l286 2022h103l-287 -2022h-102z" />
    <glyph glyph-name="braceright" unicode="}" horiz-adv-x="586" 
d="M253 1481q108 0 158.5 -54t38.5 -144l-67 -458q-7 -50 9.5 -95.5t62.5 -77t115 -31.5l-14 -95q-106 -1 -169 -60t-77 -154l-63 -449q-13 -88 -79.5 -140.5t-170.5 -52.5h-72l14 94h60q65 0 95 25.5t38 80.5l65 452q16 112 76.5 174t139.5 70q7 1 10.5 4t1.5 6t-10 4
q-78 7 -121 65.5t-27 174.5l64 456q9 59 -13.5 84.5t-90.5 25.5h-58l13 95h71z" />
    <glyph glyph-name="asciitilde" unicode="~" horiz-adv-x="1054" 
d="M174 647l-24 84q42 37 72 58t78.5 39.5t100.5 18.5q46 0 92.5 -15t79 -33.5t78 -33.5t88.5 -15q111 0 199 96l25 -86q-35 -46 -97 -77t-141 -31q-51 0 -98 15t-77.5 33.5t-73.5 33.5t-87 15q-111 0 -215 -102z" />
    <glyph glyph-name="uni00A0" unicode="&#xa0;" horiz-adv-x="517" 
 />
    <glyph glyph-name="exclamdown" unicode="&#xa1;" horiz-adv-x="476" 
d="M203 866l25 193h159l-26 -193h-158zM49 -330l171 1057h87l-106 -1057h-152z" />
    <glyph glyph-name="cent" unicode="&#xa2;" horiz-adv-x="1046" 
d="M416 0l30 211q-176 21 -259 159.5t-48 383.5q34 239 159.5 387t323.5 164l24 176h100l-25 -177q131 -15 210.5 -100t82.5 -225h-119q-2 97 -67 157t-176 60q-150 0 -254.5 -111.5t-135.5 -330.5q-29 -204 37.5 -323t226.5 -119q110 0 193 60.5t112 156.5h117
q-42 -143 -152 -227t-250 -94l-30 -208h-100z" />
    <glyph glyph-name="sterling" unicode="&#xa3;" horiz-adv-x="1143" 
d="M-49 0l16 115h76q77 0 138 81t85 239q16 117 15 276h-193l14 95h178l-11 160q-9 120 25 222.5t97.5 169.5t147.5 105t174 38q123 0 214.5 -63t114.5 -152l-115 -47q-26 72 -77 107.5t-141 35.5q-113 0 -197.5 -69.5t-101.5 -189.5q-20 -151 7 -316h322l-15 -95h-309
q3 -139 -15 -246q-36 -228 -160 -349h371q103 0 171 38.5t114 130.5l101 -36q-123 -250 -399 -250h-647z" />
    <glyph glyph-name="currency" unicode="&#xa4;" horiz-adv-x="1008" 
d="M161 337l-57 78l123 112q-49 93 -32 218q15 112 86 201q11 15 2 27l-81 104l79 74l90 -119q94 71 211 71q106 0 177 -63q14 -7 24 2l118 109l55 -75l-126 -118q50 -94 35 -213q-15 -114 -86 -199q-9 -17 -2 -26l87 -104l-79 -74l-93 117q-106 -75 -212 -75
q-107 0 -181 62q-13 11 -25 -2zM499 497q97 0 174 73.5t91 174.5q14 100 -42 174.5t-153 74.5t-175 -74.5t-92 -174.5q-14 -102 42 -175t155 -73z" />
    <glyph glyph-name="yen" unicode="&#xa5;" horiz-adv-x="1121" 
d="M168 297l13 94l294 1l28 195l-294 -1l13 95h260l-326 800h158l289 -725l498 725h133l-561 -799h278l-13 -94l-295 -1l-28 -195l295 1l-14 -95h-294l-43 -298h-138l41 297h-294z" />
    <glyph glyph-name="brokenbar" unicode="&#xa6;" horiz-adv-x="530" 
d="M264 879l115 813h103l-116 -813h-102zM93 -330l115 813h101l-114 -813h-102z" />
    <glyph glyph-name="section" unicode="&#xa7;" horiz-adv-x="925" 
d="M386 -140q-128 0 -227.5 65t-134.5 171l94 51q36 -84 110 -134.5t176 -50.5q103 0 173.5 44t81.5 123q9 61 -28.5 111.5t-144.5 99.5l-162 72q-113 50 -158 119.5t-33 164.5q13 91 77.5 160.5t159.5 105.5q-103 62 -135.5 126t-21.5 143q18 117 123.5 193.5t257.5 76.5
q115 0 200 -57t125 -142l-96 -54q-91 151 -234 151q-109 0 -176.5 -43.5t-78.5 -115.5q-7 -55 24 -100.5t119 -86.5l154 -72q131 -62 183.5 -141t37.5 -182q-12 -95 -69.5 -156t-145.5 -104q82 -55 118.5 -117t25.5 -144q-18 -122 -127 -199.5t-268 -77.5zM515 461
q76 -6 142 48.5t75 130.5t-19 125.5t-121 92.5l-107 47q-85 -7 -154.5 -65t-79.5 -129q-9 -64 21.5 -106t127.5 -87z" />
    <glyph glyph-name="dieresis" unicode="&#xa8;" horiz-adv-x="438" 
d="M399 1264l21 149h131l-21 -149h-131zM115 1264l20 149h132l-21 -149h-131z" />
    <glyph glyph-name="copyright" unicode="&#xa9;" horiz-adv-x="1551" 
d="M696 -20q-145 0 -267.5 59.5t-203 161.5t-116 243t-13.5 297q21 154 97 294.5t185.5 242.5t249.5 162.5t284 60.5t266 -60.5t202.5 -162.5t116.5 -242.5t14 -294.5q-29 -208 -149.5 -383.5t-297.5 -276.5t-368 -101zM712 85q163 0 311 79.5t253.5 231t132.5 345.5
q20 144 -11 268t-101.5 209t-174 133t-225.5 48q-166 0 -315 -81.5t-252.5 -233t-130.5 -343.5q-21 -146 9.5 -270t101 -208t174.5 -131t228 -47zM749 318q-159 0 -242 118t-55 308q27 191 144 311.5t274 120.5q190 0 276 -207l-103 -38q-60 149 -181 149
q-110 0 -191.5 -90.5t-103.5 -240.5q-22 -152 35 -244t167 -92q73 0 137.5 44t110.5 118l73 -38q-64 -98 -152 -158.5t-189 -60.5z" />
    <glyph glyph-name="ordfeminine" unicode="&#xaa;" horiz-adv-x="793" 
d="M359 810q-97 0 -144 48.5t-35 134.5q13 96 97 151.5t231 68.5l124 12l6 50q19 141 -134 141q-58 0 -101 -22.5t-85 -80.5l-75 28q93 155 279 155q115 0 166.5 -59.5t37.5 -165.5q-9 -63 -20 -141t-13 -92q-7 -45 -11 -135l-1 -81h-92l-3 96q-109 -108 -227 -108zM395 886
q80 0 145 58q60 50 65 94l16 115l-101 -9q-227 -17 -246 -147q-7 -51 26 -81t95 -30z" />
    <glyph glyph-name="guillemotleft" unicode="&#xab;" horiz-adv-x="833" 
d="M601 151l-210 363l318 380h75l-265 -380l157 -363h-75zM279 151l-210 363l316 380h77l-266 -380l156 -363h-73z" />
    <glyph glyph-name="logicalnot" unicode="&#xac;" horiz-adv-x="1043" 
d="M153 689l16 108l782 1l-4 -28l-53 -364h-104l38 285z" />
    <glyph glyph-name="uni00AD" unicode="&#xad;" horiz-adv-x="721" 
d="M121 474l15 110l464 2l-14 -111z" />
    <glyph glyph-name="registered" unicode="&#xae;" horiz-adv-x="1020" 
d="M511 549q-185 0 -294.5 138.5t-80.5 336.5q28 198 177 337.5t335 139.5q182 0 291.5 -139.5t81.5 -337.5t-177 -336.5t-333 -138.5zM523 630q162 0 278 107.5t141 286.5q26 179 -59.5 288t-246.5 109q-164 0 -280 -108.5t-141 -288.5q-26 -180 59 -287t249 -107zM379 784
l68 473h194q69 0 102 -29.5t25 -86.5q-12 -92 -112 -127l53 -230h-74l-45 224h-111l-32 -224h-68zM486 1070h116q85 0 95 63q3 29 -14.5 46t-67.5 17h-109z" />
    <glyph glyph-name="macron" unicode="&#xaf;" horiz-adv-x="563" 
d="M130 1282l14 101h516l-14 -101h-516z" />
    <glyph glyph-name="degree" unicode="&#xb0;" horiz-adv-x="892" 
d="M522 1095q-125 0 -193 87t-48 221q20 137 112 224t219 87q124 0 193 -87.5t50 -223.5q-19 -134 -113.5 -221t-219.5 -87zM535 1188q87 0 146.5 59t72.5 154q14 96 -29.5 155t-131.5 59q-85 0 -145.5 -59.5t-73.5 -154.5q-11 -96 32 -154.5t129 -58.5z" />
    <glyph glyph-name="plusminus" unicode="&#xb1;" horiz-adv-x="1045" 
d="M466 473l51 365l-341 -1l15 106l341 1l52 367h101l-52 -367l340 1l-15 -106l-341 -1l-52 -365h-99zM77 145l15 107l781 2l-14 -107z" />
    <glyph glyph-name="uni00B2" unicode="&#xb2;" horiz-adv-x="678" 
d="M75 786l8 62l5 33q10 68 43 123.5t79.5 93t100.5 70.5t107.5 63t99 63t78 79.5t40.5 102.5q11 80 -35 129.5t-133 49.5q-94 0 -158 -56.5t-83 -147.5h-80q20 120 109.5 200t225.5 80q123 0 188 -70t48 -186q-10 -68 -43 -123.5t-79 -92t-99.5 -68.5t-107 -61.5t-98.5 -62
t-77 -78t-40 -102.5l-3 -25h468l-10 -76h-554z" />
    <glyph glyph-name="uni00B3" unicode="&#xb3;" horiz-adv-x="747" 
d="M367 772q-125 2 -196.5 75.5t-59.5 194.5h79q0 -91 51 -143t142 -52q104 0 175.5 52.5t82.5 137.5q14 95 -48.5 147t-170.5 53h-76l10 75l75 1q93 0 166 54.5t84 126.5q9 67 -39 115.5t-144 48.5q-82 0 -151.5 -53.5t-83.5 -149.5h-80q18 124 111 200t213 76
q131 0 202 -64t56 -171q-9 -71 -61 -128t-140 -88q90 -28 132.5 -90.5t30.5 -150.5q-18 -122 -117.5 -195.5t-242.5 -71.5z" />
    <glyph glyph-name="acute" unicode="&#xb4;" horiz-adv-x="372" 
d="M339 1481h158l-290 -298h-105z" />
    <glyph glyph-name="uni00B5" unicode="&#xb5;" horiz-adv-x="1124" 
d="M32 -338l202 1423h125l-111 -776q-11 -85 44 -146t145 -61q158 0 358 202l109 781h126l-157 -1085h-118l24 168q-120 -95 -196 -133.5t-156 -39.5q-138 -3 -212 80l-58 -413h-125z" />
    <glyph glyph-name="paragraph" unicode="&#xb6;" horiz-adv-x="1043" 
d="M410 -170l110 777q-124 2 -209.5 61.5t-119 154t-16.5 206.5q12 87 51 166.5t100 144t151 103t195 38.5h351l-11 -86h-114l-222 -1565h-89l222 1565h-88l-222 -1565h-89z" />
    <glyph glyph-name="periodcentered" unicode="&#xb7;" horiz-adv-x="423" 
d="M135 652l28 188h182l-27 -188h-183z" />
    <glyph glyph-name="cedilla" unicode="&#xb8;" horiz-adv-x="400" 
d="M48 -414q-95 0 -154 49l34 67q44 -46 116 -46q106 0 118 81q7 46 -25.5 68.5t-107.5 24.5q-17 0 -9 11l93 169h77l-64 -125q83 -6 114 -47t24 -98q-10 -73 -72 -113.5t-144 -40.5z" />
    <glyph glyph-name="uni00B9" unicode="&#xb9;" horiz-adv-x="447" 
d="M226 778l110 766h-174l8 63q115 0 158.5 22.5t52.5 80.5h59l-133 -932h-81z" />
    <glyph glyph-name="ordmasculine" unicode="&#xba;" horiz-adv-x="785" 
d="M431 813q-134 0 -196.5 93.5t-40.5 246.5q22 156 113 251t222 95t196 -95t43 -251q-21 -152 -111.5 -246t-225.5 -94zM442 893q92 0 151 70.5t77 195.5q17 119 -22 188.5t-130 69.5q-92 0 -150 -69t-76 -189q-18 -125 20.5 -195.5t129.5 -70.5z" />
    <glyph glyph-name="guillemotright" unicode="&#xbb;" horiz-adv-x="829" 
d="M371 151l262 363l-160 380h75l209 -380l-313 -363h-73zM48 151l260 363l-156 380h73l209 -380l-313 -363h-73z" />
    <glyph glyph-name="onequarter" unicode="&#xbc;" horiz-adv-x="1434" 
d="M199 -8l-94 1l1145 1504h92zM226 565l110 766h-174l8 63q115 0 158.5 22.5t52.5 80.5h59l-133 -932h-81zM1084 0l36 256h-412l11 83l493 593h81l-84 -601h149l-11 -75h-150l-36 -256h-77zM795 331h332l70 483z" />
    <glyph glyph-name="onehalf" unicode="&#xbd;" horiz-adv-x="1595" 
d="M199 -8l-94 1l1145 1504h92zM226 565l110 766h-174l8 63q115 0 158.5 22.5t52.5 80.5h59l-133 -932h-81zM911 0l10 61l4 33q10 68 43 123.5t79.5 93t100.5 70.5t108 63t99.5 63t77.5 79.5t40 102.5q11 80 -34.5 129.5t-133.5 49.5q-94 0 -158.5 -56t-82.5 -147h-80
q21 120 110 199.5t225 79.5q123 0 187.5 -70t47.5 -186q-10 -68 -43 -123.5t-78.5 -92t-99 -68.5t-107 -61.5t-98.5 -62t-77 -78t-40 -102.5l-3 -24h469l-12 -76h-554z" />
    <glyph glyph-name="threequarters" unicode="&#xbe;" horiz-adv-x="1671" 
d="M367 557q-125 2 -196.5 75.5t-59.5 194.5h79q0 -91 51 -143t142 -52q104 0 175.5 52.5t82.5 137.5q14 95 -48.5 147t-170.5 53h-76l10 75l75 1q93 0 166 54.5t84 126.5q9 67 -39 115.5t-144 48.5q-82 0 -151.5 -53.5t-83.5 -149.5h-80q18 124 111 200t213 76
q131 0 202 -64t56 -171q-9 -71 -61 -128t-140 -88q90 -28 132.5 -90.5t30.5 -150.5q-18 -122 -117.5 -195.5t-242.5 -71.5zM436 -8l-94 1l1145 1504h92zM1321 0l36 256h-413l12 83l493 593h81l-84 -601h148l-11 -75h-148l-36 -256h-78zM1032 331h333l69 483z" />
    <glyph glyph-name="questiondown" unicode="&#xbf;" horiz-adv-x="977" 
d="M468 866l26 193h160l-26 -193h-160zM352 -350q-190 0 -286.5 99t-75.5 262q9 69 38 127t69 100t86.5 81t93.5 79.5t87 84.5t69.5 106.5t39.5 137.5h113q-11 -82 -40.5 -151t-68.5 -117t-84 -90.5t-89.5 -80.5t-82 -76.5t-64.5 -89t-35 -108.5q-15 -116 52 -184.5
t194 -68.5q101 0 204.5 61.5t144.5 146.5l111 -46q-78 -127 -204.5 -200t-271.5 -73z" />
    <glyph glyph-name="Agrave" unicode="&#xc0;" horiz-adv-x="1361" 
d="M651 1903l237 -298h-105l-289 298h157zM30 0l712 1481h150l290 -1481h-127l-85 440h-600l-213 -440h-127zM423 566h528l-150 785z" />
    <glyph glyph-name="Aacute" unicode="&#xc1;" horiz-adv-x="1361" 
d="M1014 1903h158l-289 -298h-105zM30 0l712 1481h150l290 -1481h-127l-85 440h-600l-213 -440h-127zM423 566h528l-150 785z" />
    <glyph glyph-name="Acircumflex" unicode="&#xc2;" horiz-adv-x="1361" 
d="M546 1605l257 210h91l206 -210h-139l-122 127l-162 -127h-131zM30 0l712 1481h150l290 -1481h-127l-85 440h-600l-213 -440h-127zM423 566h528l-150 785z" />
    <glyph glyph-name="Atilde" unicode="&#xc3;" horiz-adv-x="1361" 
d="M612 1689l-16 79q41 35 75.5 53t80.5 18q43 0 114 -27t113 -27q56 0 126 49l17 -90q-76 -53 -158 -53q-51 0 -115.5 25.5t-102.5 25.5q-13 0 -24.5 -1t-23.5 -5.5t-18.5 -6t-19.5 -9.5t-15.5 -9t-17.5 -11zM30 0l712 1481h150l290 -1481h-127l-85 440h-600l-213 -440
h-127zM423 566h528l-150 785z" />
    <glyph glyph-name="Adieresis" unicode="&#xc4;" horiz-adv-x="1361" 
d="M927 1686l21 149h131l-20 -149h-132zM643 1686l21 149h132l-22 -149h-131zM30 0l712 1481h150l290 -1481h-127l-85 440h-600l-213 -440h-127zM423 566h528l-150 785z" />
    <glyph glyph-name="Aring" unicode="&#xc5;" horiz-adv-x="1361" 
d="M836 1614q-79 0 -126 60t-35 148q11 82 76 139.5t144 57.5t126.5 -58.5t35.5 -142.5q-11 -87 -75.5 -145.5t-145.5 -58.5zM847 1702q43 0 79 35t44 81q6 50 -20 81t-71 31q-42 0 -78 -31.5t-43 -80.5q-7 -46 20 -81t69 -35zM30 0l712 1481h150l290 -1481h-127l-85 440
h-600l-213 -440h-127zM423 566h528l-150 785z" />
    <glyph glyph-name="AE" unicode="&#xc6;" horiz-adv-x="1805" 
d="M-75 0l985 1481h869l-17 -117h-659l-79 -558h609l-15 -116h-611l-81 -573h685l-17 -117h-824l65 446h-487l-297 -446h-126zM418 566h433l115 811z" />
    <glyph glyph-name="Ccedilla" unicode="&#xc7;" horiz-adv-x="1317" 
d="M522 -414q-95 0 -153 49l33 67q44 -46 116 -46q106 0 118 81q7 46 -25.5 68.5t-107.5 24.5q-16 0 -8 11l76 141q-245 17 -352.5 204.5t-67.5 531.5q41 373 213 578t457 205q137 0 240 -64t154 -167t48 -227h-134q-8 148 -91 243.5t-236 95.5q-220 0 -349 -171.5
t-167 -495.5q-38 -312 49 -464t298 -152q152 0 260.5 96.5t156.5 244.5h133q-21 -87 -67.5 -166.5t-113.5 -143.5t-158.5 -104t-194.5 -45l-49 -96q83 -6 114.5 -47t23.5 -98q-10 -73 -72 -113.5t-144 -40.5z" />
    <glyph glyph-name="Egrave" unicode="&#xc8;" horiz-adv-x="1201" 
d="M578 1903l236 -298h-104l-290 298h158zM137 0l212 1481h828l-18 -119h-705l-79 -554h646l-15 -120h-648l-80 -565l729 -2l-19 -121h-851z" />
    <glyph glyph-name="Eacute" unicode="&#xc9;" horiz-adv-x="1201" 
d="M941 1903h158l-290 -298h-104zM137 0l212 1481h828l-18 -119h-705l-79 -554h646l-15 -120h-648l-80 -565l729 -2l-19 -121h-851z" />
    <glyph glyph-name="Ecircumflex" unicode="&#xca;" horiz-adv-x="1201" 
d="M484 1605l256 210h91l207 -210h-140l-122 127l-161 -127h-131zM137 0l212 1481h828l-18 -119h-705l-79 -554h646l-15 -120h-648l-80 -565l729 -2l-19 -121h-851z" />
    <glyph glyph-name="Edieresis" unicode="&#xcb;" horiz-adv-x="1201" 
d="M854 1686l20 149h132l-21 -149h-131zM569 1686l21 149h132l-22 -149h-131zM137 0l212 1481h828l-18 -119h-705l-79 -554h646l-15 -120h-648l-80 -565l729 -2l-19 -121h-851z" />
    <glyph glyph-name="Igrave" unicode="&#xcc;" horiz-adv-x="550" 
d="M246 1903l236 -298h-104l-290 298h158zM139 0l210 1481h122l-209 -1481h-123z" />
    <glyph glyph-name="Iacute" unicode="&#xcd;" horiz-adv-x="550" 
d="M608 1903h159l-290 -298h-104zM139 0l210 1481h122l-209 -1481h-123z" />
    <glyph glyph-name="Icircumflex" unicode="&#xce;" horiz-adv-x="550" 
d="M153 1605l256 210h91l207 -210h-141l-122 127l-160 -127h-131zM139 0l210 1481h122l-209 -1481h-123z" />
    <glyph glyph-name="Idieresis" unicode="&#xcf;" horiz-adv-x="550" 
d="M521 1686l22 149h131l-21 -149h-132zM238 1686l20 149h131l-20 -149h-131zM139 0l210 1481h122l-209 -1481h-123z" />
    <glyph glyph-name="Eth" unicode="&#xd0;" horiz-adv-x="1380" 
d="M189 0l97 687h-182l7 113h190l96 681h14t34.5 -0.5t47.5 -1t59.5 -0.5h63.5q345 -1 513.5 -130t168.5 -420q0 -150 -25 -280.5t-87 -252t-157 -207.5t-245 -137.5t-342 -51.5h-253zM335 119h115q192 0 333 59t224 168t122.5 251t39.5 322q0 125 -34.5 211.5t-104.5 137
t-164 72.5t-225 22h-130l-80 -562h331l-6 -113h-341z" />
    <glyph glyph-name="Ntilde" unicode="&#xd1;" horiz-adv-x="1443" 
d="M651 1689l-16 79q40 35 75.5 53t80.5 18q44 0 115 -27t112 -27q35 0 62.5 12t64.5 37l17 -90q-76 -53 -158 -53q-51 0 -115.5 25.5t-103.5 25.5q-11 0 -22.5 -1.5t-19 -3t-18.5 -6t-16 -6.5t-16.5 -9t-13.5 -8t-14.5 -9.5t-13.5 -9.5zM137 0l212 1481h111l606 -1247
l177 1247h123l-212 -1481h-107l-609 1251l-178 -1251h-123z" />
    <glyph glyph-name="Ograve" unicode="&#xd2;" horiz-adv-x="1396" 
d="M670 1903l236 -298h-104l-290 298h158zM622 -20q-273 0 -398 196t-73 558q52 367 235 567t454 200q270 0 393.5 -199t71.5 -565q-52 -363 -232.5 -560t-450.5 -197zM641 99q439 0 529 637q45 325 -44.5 485.5t-304.5 160.5t-352 -162t-182 -484q-45 -319 46.5 -478
t307.5 -159z" />
    <glyph glyph-name="Oacute" unicode="&#xd3;" horiz-adv-x="1396" 
d="M1032 1903h159l-290 -298h-105zM622 -20q-273 0 -398 196t-73 558q52 367 235 567t454 200q270 0 393.5 -199t71.5 -565q-52 -363 -232.5 -560t-450.5 -197zM641 99q439 0 529 637q45 325 -44.5 485.5t-304.5 160.5t-352 -162t-182 -484q-45 -319 46.5 -478t307.5 -159z
" />
    <glyph glyph-name="Ocircumflex" unicode="&#xd4;" horiz-adv-x="1396" 
d="M575 1605l258 210h91l206 -210h-140l-122 127l-161 -127h-132zM622 -20q-273 0 -398 196t-73 558q52 367 235 567t454 200q270 0 393.5 -199t71.5 -565q-52 -363 -232.5 -560t-450.5 -197zM641 99q439 0 529 637q45 325 -44.5 485.5t-304.5 160.5t-352 -162t-182 -484
q-45 -319 46.5 -478t307.5 -159z" />
    <glyph glyph-name="Otilde" unicode="&#xd5;" horiz-adv-x="1396" 
d="M630 1689l-17 79q40 35 75.5 53t80.5 18q44 0 115 -27t112 -27q35 0 62.5 12t64.5 37l18 -90q-76 -53 -159 -53q-51 0 -115 25.5t-103 25.5q-11 0 -22.5 -1.5t-19 -3t-18.5 -6t-16 -6.5t-16.5 -9t-13.5 -8t-14.5 -9.5t-13.5 -9.5zM622 -20q-273 0 -398 196t-73 558
q52 367 235 567t454 200q270 0 393.5 -199t71.5 -565q-52 -363 -232.5 -560t-450.5 -197zM641 99q439 0 529 637q45 325 -44.5 485.5t-304.5 160.5t-352 -162t-182 -484q-45 -319 46.5 -478t307.5 -159z" />
    <glyph glyph-name="Odieresis" unicode="&#xd6;" horiz-adv-x="1396" 
d="M945 1686l21 149h132l-21 -149h-132zM662 1686l20 149h131l-20 -149h-131zM622 -20q-273 0 -398 196t-73 558q52 367 235 567t454 200q270 0 393.5 -199t71.5 -565q-52 -363 -232.5 -560t-450.5 -197zM641 99q439 0 529 637q45 325 -44.5 485.5t-304.5 160.5t-352 -162
t-182 -484q-45 -319 46.5 -478t307.5 -159z" />
    <glyph glyph-name="multiply" unicode="&#xd7;" horiz-adv-x="1011" 
d="M177 343l-61 78l347 322l-257 324l85 76l255 -322l348 325l61 -75l-348 -327l257 -323l-85 -78l-256 324z" />
    <glyph glyph-name="Oslash" unicode="&#xd8;" horiz-adv-x="1417" 
d="M68 -27l-69 80l192 201q-75 182 -32 480q52 367 234 567t453 200q255 0 382 -180l178 184l71 -78l-197 -204q74 -191 33 -486q-50 -362 -231.5 -559.5t-452.5 -197.5q-261 0 -382 177zM315 372l808 850q-82 160 -295 160q-417 0 -514 -618q-35 -240 1 -392zM649 99
q207 0 332.5 149t171.5 455q39 239 3 404l-808 -850q86 -158 301 -158z" />
    <glyph glyph-name="Ugrave" unicode="&#xd9;" horiz-adv-x="1340" 
d="M662 1903l236 -298h-104l-290 298h158zM612 -20q-248 0 -344 130.5t-58 397.5l137 973h129l-142 -1005q-27 -187 47.5 -283.5t247.5 -96.5q175 0 279 95.5t131 284.5l143 1005h122l-142 -999q-35 -251 -170.5 -376.5t-379.5 -125.5z" />
    <glyph glyph-name="Uacute" unicode="&#xda;" horiz-adv-x="1340" 
d="M1024 1903h159l-290 -298h-106zM612 -20q-248 0 -344 130.5t-58 397.5l137 973h129l-142 -1005q-27 -187 47.5 -283.5t247.5 -96.5q175 0 279 95.5t131 284.5l143 1005h122l-142 -999q-35 -251 -170.5 -376.5t-379.5 -125.5z" />
    <glyph glyph-name="Ucircumflex" unicode="&#xdb;" horiz-adv-x="1340" 
d="M567 1605l257 210h91l207 -210h-140l-122 127l-162 -127h-131zM612 -20q-248 0 -344 130.5t-58 397.5l137 973h129l-142 -1005q-27 -187 47.5 -283.5t247.5 -96.5q175 0 279 95.5t131 284.5l143 1005h122l-142 -999q-35 -251 -170.5 -376.5t-379.5 -125.5z" />
    <glyph glyph-name="Udieresis" unicode="&#xdc;" horiz-adv-x="1340" 
d="M937 1686l20 149h133l-21 -149h-132zM653 1686l21 149h131l-21 -149h-131zM612 -20q-248 0 -344 130.5t-58 397.5l137 973h129l-142 -1005q-27 -187 47.5 -283.5t247.5 -96.5q175 0 279 95.5t131 284.5l143 1005h122l-142 -999q-35 -251 -170.5 -376.5t-379.5 -125.5z
" />
    <glyph glyph-name="Yacute" unicode="&#xdd;" horiz-adv-x="1101" 
d="M880 1906h157l-289 -298h-105zM417 0l88 636l-343 845h133l290 -726l488 726h135l-579 -847l-91 -634h-121z" />
    <glyph glyph-name="Thorn" unicode="&#xde;" horiz-adv-x="1238" 
d="M1212 773q-15 -109 -63 -191.5t-122.5 -132.5t-167 -74.5t-202.5 -24.5h-340l-50 -350h-129l208 1481h129l-43 -316h330q233 0 355.5 -98t94.5 -294zM1084 773q11 74 -9 128t-67.5 85.5t-112.5 46t-151 14.5h-329l-81 -577h340q82 0 149.5 16.5t123 51.5t91 94.5
t46.5 140.5z" />
    <glyph glyph-name="germandbls" unicode="&#xdf;" horiz-adv-x="1094" 
d="M560 -20q-69 0 -138.5 19t-111.5 53l65 93q45 -32 86 -48t101 -16q117 0 194.5 60.5t92.5 168.5q9 59 -4.5 102.5t-52 73.5t-71 46t-92.5 39q-29 11 -45.5 18t-42 20t-39 28t-27.5 36t-17.5 49t0.5 62q10 72 58 121.5t149 104.5q8 4 30.5 17t31.5 18t28.5 18t29 21.5
t23.5 23.5t21.5 29t14.5 32.5t10 39.5q9 79 -37.5 124.5t-142.5 45.5q-120 0 -203 -79.5t-103 -230.5l-152 -1069h-118l148 1049q28 197 151 314.5t308 117.5q81 0 138 -23.5t85 -63.5t37.5 -86.5t2.5 -99.5q-5 -33 -16 -62t-22 -50t-34.5 -43t-36.5 -33.5t-46 -30.5
t-46 -25.5t-52 -26.5q-87 -47 -115.5 -71t-34.5 -65q-5 -41 17 -60t95 -46q111 -44 152 -70q164 -102 136 -303q-22 -161 -136.5 -251.5t-268.5 -90.5z" />
    <glyph glyph-name="agrave" unicode="&#xe0;" horiz-adv-x="1103" 
d="M456 1481l236 -298h-104l-290 298h158zM361 -20q-147 0 -222.5 79.5t-56.5 218.5q25 178 147.5 261.5t372.5 90.5l204 7l14 93q16 115 -45 180t-178 65q-100 -1 -179.5 -55t-109.5 -151h-117q27 130 142.5 220t283.5 90q172 0 258.5 -92.5t63.5 -251.5l-104 -735h-107
l20 200q-136 -220 -387 -220zM406 82q74 0 154 37.5t137.5 99.5t66.5 125l28 197l-169 -4q-206 -4 -302 -61.5t-116 -186.5q-12 -96 43 -151.5t158 -55.5z" />
    <glyph glyph-name="aacute" unicode="&#xe1;" horiz-adv-x="1101" 
d="M814 1481h158l-290 -298h-104zM359 -20q-147 0 -222.5 79.5t-56.5 218.5q25 178 147.5 261.5t372.5 90.5l204 7l14 93q16 115 -45 180t-178 65q-100 -1 -179.5 -55t-109.5 -151h-116q27 130 142 220t283 90q172 0 258.5 -92.5t63.5 -251.5l-104 -735h-107l19 200
q-136 -220 -386 -220zM403 82q74 0 154.5 37.5t138 99.5t66.5 125l28 197l-169 -4q-206 -4 -302 -61.5t-116 -186.5q-12 -97 42.5 -152t157.5 -55z" />
    <glyph glyph-name="acircumflex" unicode="&#xe2;" horiz-adv-x="1101" 
d="M357 1183l256 210h92l206 -210h-140l-122 127l-161 -127h-131zM359 -20q-147 0 -222.5 79.5t-56.5 218.5q25 178 147.5 261.5t372.5 90.5l204 7l14 93q16 115 -45 180t-178 65q-100 -1 -179.5 -55t-109.5 -151h-116q27 130 142 220t283 90q172 0 258.5 -92.5t63.5 -251.5
l-104 -735h-107l19 200q-136 -220 -386 -220zM403 82q74 0 154.5 37.5t138 99.5t66.5 125l28 197l-169 -4q-206 -4 -302 -61.5t-116 -186.5q-12 -97 42.5 -152t157.5 -55z" />
    <glyph glyph-name="atilde" unicode="&#xe3;" horiz-adv-x="1101" 
d="M413 1267l-18 80q40 35 75.5 52.5t81.5 17.5q43 0 114 -27t112 -27q35 0 62.5 12t64.5 37l18 -90q-76 -53 -159 -53q-51 0 -115 25.5t-102 25.5q-13 0 -24.5 -1t-23.5 -5.5t-18.5 -6t-19.5 -9.5t-15.5 -9t-17.5 -11zM359 -20q-147 0 -222.5 79.5t-56.5 218.5
q25 178 147.5 261.5t372.5 90.5l204 7l14 93q16 115 -45 180t-178 65q-100 -1 -179.5 -55t-109.5 -151h-116q27 130 142 220t283 90q172 0 258.5 -92.5t63.5 -251.5l-104 -735h-107l19 200q-136 -220 -386 -220zM403 82q74 0 154.5 37.5t138 99.5t66.5 125l28 197l-169 -4
q-206 -4 -302 -61.5t-116 -186.5q-12 -97 42.5 -152t157.5 -55z" />
    <glyph glyph-name="adieresis" unicode="&#xe4;" horiz-adv-x="1101" 
d="M721 1263l20 149h132l-20 -149h-132zM437 1263l21 149h131l-21 -149h-131zM359 -20q-147 0 -222.5 79.5t-56.5 218.5q25 178 147.5 261.5t372.5 90.5l204 7l14 93q16 115 -45 180t-178 65q-100 -1 -179.5 -55t-109.5 -151h-116q27 130 142 220t283 90q172 0 258.5 -92.5
t63.5 -251.5l-104 -735h-107l19 200q-136 -220 -386 -220zM403 82q74 0 154.5 37.5t138 99.5t66.5 125l28 197l-169 -4q-206 -4 -302 -61.5t-116 -186.5q-12 -97 42.5 -152t157.5 -55z" />
    <glyph glyph-name="aring" unicode="&#xe5;" horiz-adv-x="1101" 
d="M632 1192q-79 0 -126 60t-35 148q11 82 76 139.5t143 57.5q80 0 127.5 -58.5t34.5 -142.5q-10 -86 -74 -145t-146 -59zM643 1280q43 0 79 35t43 81q6 50 -19.5 81t-70.5 31q-42 0 -78 -31.5t-43 -80.5q-8 -46 19 -81t70 -35zM359 -20q-147 0 -222.5 79.5t-56.5 218.5
q25 178 147.5 261.5t372.5 90.5l204 7l14 93q16 115 -45 180t-178 65q-100 -1 -179.5 -55t-109.5 -151h-116q27 130 142 220t283 90q172 0 258.5 -92.5t63.5 -251.5l-104 -735h-107l19 200q-136 -220 -386 -220zM403 82q74 0 154.5 37.5t138 99.5t66.5 125l28 197l-169 -4
q-206 -4 -302 -61.5t-116 -186.5q-12 -97 42.5 -152t157.5 -55z" />
    <glyph glyph-name="ae" unicode="&#xe6;" horiz-adv-x="1778" 
d="M359 -20q-147 0 -223 80t-56 218q26 178 148.5 261.5t373.5 90.5l206 7l13 93q16 115 -44.5 180t-177.5 65q-101 -1 -178.5 -54.5t-107.5 -151.5h-115q25 130 139.5 220t282.5 90q129 0 210 -51.5t105 -146.5q143 198 386 198q199 0 290 -136.5t56 -380.5l-9 -62h-733
q-17 -115 3.5 -206.5t87.5 -149t175 -57.5q109 0 192.5 55.5t115.5 151.5h121q-49 -151 -172.5 -232.5t-270.5 -81.5q-143 0 -239 72t-130 205q-29 -82 -99.5 -146t-162 -97.5t-187.5 -33.5zM939 599h611q24 167 -37.5 270.5t-207.5 103.5q-78 0 -144.5 -33t-111 -87
t-72.5 -119t-38 -135zM407 82q71 0 137 29t113 74t78 98.5t38 103.5l22 154l-172 -4q-207 -5 -304 -62t-115 -186q-13 -96 42.5 -151.5t160.5 -55.5z" />
    <glyph glyph-name="ccedilla" unicode="&#xe7;" horiz-adv-x="1053" 
d="M383 -414q-96 0 -155 49l35 67q44 -46 115 -46q107 0 119 81q7 46 -26 68.5t-109 24.5q-16 0 -7 11l76 140q-185 14 -274 153t-53 392q36 254 172 403.5t351 149.5q151 0 245 -86t97 -241h-117q-2 97 -66.5 157t-173.5 60q-148 0 -251.5 -112t-134.5 -331
q-29 -204 37 -322.5t224 -118.5q108 0 191 61t112 156h114q-42 -142 -149 -225.5t-245 -94.5l-49 -97q57 -4 90.5 -27.5t42.5 -52.5t5 -65q-11 -73 -72.5 -113.5t-143.5 -40.5z" />
    <glyph glyph-name="egrave" unicode="&#xe8;" horiz-adv-x="1092" 
d="M467 1481l235 -298h-104l-290 298h159zM490 -20q-205 0 -308 143t-67 396q36 260 173.5 410t346.5 150q199 0 289.5 -136.5t55.5 -380.5l-8 -62h-734q-15 -84 -3.5 -159t41 -131.5t89 -89.5t140.5 -33q108 0 191.5 55t116.5 152h120q-49 -151 -173 -232.5t-270 -81.5z
M253 599h611q24 167 -38 270.5t-208 103.5q-78 0 -144.5 -32.5t-111 -87t-72 -119.5t-37.5 -135z" />
    <glyph glyph-name="eacute" unicode="&#xe9;" horiz-adv-x="1092" 
d="M829 1481h158l-290 -298h-104zM490 -20q-205 0 -308 143t-67 396q36 260 173.5 410t346.5 150q199 0 289.5 -136.5t55.5 -380.5l-8 -62h-734q-15 -84 -3.5 -159t41 -131.5t89 -89.5t140.5 -33q108 0 191.5 55t116.5 152h120q-49 -151 -173 -232.5t-270 -81.5zM253 599
h611q24 167 -38 270.5t-208 103.5q-78 0 -144.5 -32.5t-111 -87t-72 -119.5t-37.5 -135z" />
    <glyph glyph-name="ecircumflex" unicode="&#xea;" horiz-adv-x="1092" 
d="M373 1183l257 210h90l207 -210h-141l-121 127l-161 -127h-131zM490 -20q-205 0 -308 143t-67 396q36 260 173.5 410t346.5 150q199 0 289.5 -136.5t55.5 -380.5l-8 -62h-734q-15 -84 -3.5 -159t41 -131.5t89 -89.5t140.5 -33q108 0 191.5 55t116.5 152h120
q-49 -151 -173 -232.5t-270 -81.5zM253 599h611q24 167 -38 270.5t-208 103.5q-78 0 -144.5 -32.5t-111 -87t-72 -119.5t-37.5 -135z" />
    <glyph glyph-name="edieresis" unicode="&#xeb;" horiz-adv-x="1092" 
d="M742 1264l21 149h132l-22 -149h-131zM458 1264l20 149h132l-20 -149h-132zM490 -20q-205 0 -308 143t-67 396q36 260 173.5 410t346.5 150q199 0 289.5 -136.5t55.5 -380.5l-8 -62h-734q-15 -84 -3.5 -159t41 -131.5t89 -89.5t140.5 -33q108 0 191.5 55t116.5 152h120
q-49 -151 -173 -232.5t-270 -81.5zM253 599h611q24 167 -38 270.5t-208 103.5q-78 0 -144.5 -32.5t-111 -87t-72 -119.5t-37.5 -135z" />
    <glyph glyph-name="igrave" unicode="&#xec;" horiz-adv-x="468" 
d="M143 1481l237 -298h-105l-289 298h157zM98 0l151 1059h123l-152 -1059h-122z" />
    <glyph glyph-name="iacute" unicode="&#xed;" horiz-adv-x="486" 
d="M508 1481h158l-290 -298h-105zM98 0l151 1059h123l-152 -1059h-122z" />
    <glyph glyph-name="icircumflex" unicode="&#xee;" horiz-adv-x="468" 
d="M50 1183l256 210h91l207 -210h-140l-122 127l-161 -127h-131zM98 0l151 1059h123l-152 -1059h-122z" />
    <glyph glyph-name="idieresis" unicode="&#xef;" horiz-adv-x="468" 
d="M420 1264l20 149h131l-20 -149h-131zM135 1264l21 149h132l-21 -149h-132zM98 0l151 1059h123l-152 -1059h-122z" />
    <glyph glyph-name="eth" unicode="&#xf0;" horiz-adv-x="1122" 
d="M494 -20q-139 0 -236 73t-136 197.5t-17 278.5q34 244 179.5 394t344.5 150q257 0 323 -207q4 239 -104 404l-333 -130l15 113l252 99q-64 68 -168 132l144 30q86 -60 136 -118l222 86l-15 -113l-146 -56q56 -93 78 -214.5t16.5 -255.5t-33.5 -317q-38 -240 -179.5 -393
t-342.5 -153zM494 87q104 0 189 63.5t136 163.5t68 221q61 436 -258 436q-158 0 -266 -124.5t-136 -325.5q-16 -116 7.5 -213t91 -159t168.5 -62z" />
    <glyph glyph-name="ntilde" unicode="&#xf1;" horiz-adv-x="1110" 
d="M452 1267l-17 80q40 35 75 52.5t81 17.5q44 0 114.5 -27t112.5 -27q35 0 62.5 12t64.5 37l18 -90q-76 -53 -159 -53q-51 0 -115 25.5t-103 25.5q-11 0 -22.5 -1.5t-19 -3t-18.5 -6t-16 -6.5t-16.5 -9t-13.5 -8t-14.5 -9.5t-13.5 -9.5zM98 0l151 1059h115l-19 -153
q50 76 140 123.5t204 47.5q153 0 235 -100t55 -287l-98 -690h-122l97 682q20 135 -36 209t-169 74q-81 0 -149.5 -25t-117.5 -80.5t-60 -133.5l-105 -726h-121z" />
    <glyph glyph-name="ograve" unicode="&#xf2;" horiz-adv-x="1087" 
d="M424 1481l236 -298h-104l-291 298h159zM472 -20q-204 0 -303.5 139t-64.5 406q35 256 168 405t348 149q202 0 300 -142t62 -412q-34 -252 -165 -398.5t-345 -146.5zM488 87q147 0 245 113.5t127 327.5q27 203 -36 323t-219 120q-151 0 -249.5 -113.5t-126.5 -329.5
q-17 -132 2.5 -229t84.5 -154.5t172 -57.5z" />
    <glyph glyph-name="oacute" unicode="&#xf3;" horiz-adv-x="1087" 
d="M786 1481h158l-290 -298h-104zM472 -20q-204 0 -303.5 139t-64.5 406q35 256 168 405t348 149q202 0 300 -142t62 -412q-34 -252 -165 -398.5t-345 -146.5zM488 87q147 0 245 113.5t127 327.5q27 203 -36 323t-219 120q-151 0 -249.5 -113.5t-126.5 -329.5
q-17 -132 2.5 -229t84.5 -154.5t172 -57.5z" />
    <glyph glyph-name="ocircumflex" unicode="&#xf4;" horiz-adv-x="1087" 
d="M330 1183l257 210h91l206 -210h-141l-121 127l-161 -127h-131zM472 -20q-204 0 -303.5 139t-64.5 406q35 256 168 405t348 149q202 0 300 -142t62 -412q-34 -252 -165 -398.5t-345 -146.5zM488 87q147 0 245 113.5t127 327.5q27 203 -36 323t-219 120
q-151 0 -249.5 -113.5t-126.5 -329.5q-17 -132 2.5 -229t84.5 -154.5t172 -57.5z" />
    <glyph glyph-name="otilde" unicode="&#xf5;" horiz-adv-x="1087" 
d="M384 1267l-16 80q40 35 74.5 52.5t80.5 17.5q44 0 115 -27t113 -27q35 0 62.5 12t64.5 37l16 -90q-76 -53 -159 -53q-50 0 -114 25.5t-103 25.5q-11 0 -22.5 -1.5t-19 -3t-18.5 -6t-16 -6.5t-16.5 -9t-13.5 -8t-14.5 -9.5t-13.5 -9.5zM472 -20q-204 0 -303.5 139
t-64.5 406q35 256 168 405t348 149q202 0 300 -142t62 -412q-34 -252 -165 -398.5t-345 -146.5zM488 87q147 0 245 113.5t127 327.5q27 203 -36 323t-219 120q-151 0 -249.5 -113.5t-126.5 -329.5q-17 -132 2.5 -229t84.5 -154.5t172 -57.5z" />
    <glyph glyph-name="odieresis" unicode="&#xf6;" horiz-adv-x="1087" 
d="M699 1264l21 149h132l-22 -149h-131zM415 1264l21 149h131l-20 -149h-132zM472 -20q-204 0 -303.5 139t-64.5 406q35 256 168 405t348 149q202 0 300 -142t62 -412q-34 -252 -165 -398.5t-345 -146.5zM488 87q147 0 245 113.5t127 327.5q27 203 -36 323t-219 120
q-151 0 -249.5 -113.5t-126.5 -329.5q-17 -132 2.5 -229t84.5 -154.5t172 -57.5z" />
    <glyph glyph-name="divide" unicode="&#xf7;" horiz-adv-x="1042" 
d="M496 986l25 190h186l-28 -190h-183zM153 689l15 108l782 1l-15 -107zM398 314l28 189h183l-25 -189h-186z" />
    <glyph glyph-name="oslash" unicode="&#xf8;" horiz-adv-x="1043" 
d="M34 -9l-65 67l110 107q-66 136 -38 360q35 256 167.5 405t347.5 149q212 0 306 -150l138 136l65 -68l-162 -158q41 -130 16 -314q-33 -252 -164 -398.5t-345 -146.5q-179 0 -278 106zM166 528q-21 -163 12 -266l589 575q-64 134 -225 134q-151 0 -249.5 -113.5
t-126.5 -329.5zM425 87q147 0 245 113.5t127 327.5q14 120 1 207l-575 -560q69 -88 202 -88z" />
    <glyph glyph-name="ugrave" unicode="&#xf9;" horiz-adv-x="1122" 
d="M461 1481l236 -298h-104l-290 298h158zM460 -20q-172 2 -264 96t-67 272l99 711h123l-99 -703q-18 -125 41.5 -196.5t195.5 -71.5q128 0 212.5 72t103.5 211l97 688h122l-148 -1059h-103l17 198q-41 -106 -128 -163t-202 -55z" />
    <glyph glyph-name="uacute" unicode="&#xfa;" horiz-adv-x="1122" 
d="M824 1481h158l-290 -298h-104zM460 -20q-172 2 -264 96t-67 272l99 711h123l-99 -703q-18 -125 41.5 -196.5t195.5 -71.5q128 0 212.5 72t103.5 211l97 688h122l-148 -1059h-103l17 198q-41 -106 -128 -163t-202 -55z" />
    <glyph glyph-name="ucircumflex" unicode="&#xfb;" horiz-adv-x="1122" 
d="M368 1183l256 210h91l207 -210h-141l-122 127l-160 -127h-131zM460 -20q-172 2 -264 96t-67 272l99 711h123l-99 -703q-18 -125 41.5 -196.5t195.5 -71.5q128 0 212.5 72t103.5 211l97 688h122l-148 -1059h-103l17 198q-41 -106 -128 -163t-202 -55z" />
    <glyph glyph-name="udieresis" unicode="&#xfc;" horiz-adv-x="1122" 
d="M737 1264l21 149h131l-21 -149h-131zM453 1264l20 149h132l-21 -149h-131zM460 -20q-172 2 -264 96t-67 272l99 711h123l-99 -703q-18 -125 41.5 -196.5t195.5 -71.5q128 0 212.5 72t103.5 211l97 688h122l-148 -1059h-103l17 198q-41 -106 -128 -163t-202 -55z" />
    <glyph glyph-name="yacute" unicode="&#xfd;" horiz-adv-x="1001" 
d="M775 1481h159l-291 -298h-104zM109 -338q-46 0 -79 5t-43 11l-10 5l14 85l103 -1q63 -1 108.5 18t68 43.5t41.5 62.5l61 123l-238 1045h126l195 -889l441 889h119l-591 -1180q-62 -118 -139 -167.5t-177 -49.5z" />
    <glyph glyph-name="thorn" unicode="&#xfe;" horiz-adv-x="1132" 
d="M52 -330l257 1811h120l-80 -575q1 1 15 16t19 20.5t21.5 21.5t27 23.5t30.5 22t36 22.5t40 18.5t46 15.5t49.5 9t56.5 4q183 0 279.5 -137t60.5 -395q-36 -260 -177 -413.5t-338 -153.5q-155 0 -255 100q-14 15 -20 12t-10 -25l-55 -397h-123zM504 80q150 0 259 122
t141 340q29 216 -47 325.5t-215 109.5q-118 0 -210.5 -80t-107.5 -170l-70 -506q113 -141 250 -141z" />
    <glyph glyph-name="ydieresis" unicode="&#xff;" horiz-adv-x="1001" 
d="M688 1264l21 149h132l-21 -149h-132zM404 1264l21 149h131l-20 -149h-132zM109 -338q-46 0 -79 5t-43 11l-10 5l14 85l103 -1q63 -1 108.5 18t68 43.5t41.5 62.5l61 123l-238 1045h126l195 -889l441 889h119l-591 -1180q-62 -118 -139 -167.5t-177 -49.5z" />
    <glyph glyph-name="Amacron" unicode="&#x100;" horiz-adv-x="1361" 
d="M593 1704l14 101h516l-14 -101h-516zM30 0l712 1481h150l290 -1481h-127l-85 440h-600l-213 -440h-127zM423 566h528l-150 785z" />
    <glyph glyph-name="amacron" unicode="&#x101;" horiz-adv-x="1101" 
d="M391 1282l15 101h516l-15 -101h-516zM359 -20q-147 0 -222.5 79.5t-56.5 218.5q25 178 147.5 261.5t372.5 90.5l204 7l14 93q16 115 -45 180t-178 65q-100 -1 -179.5 -55t-109.5 -151h-116q27 130 142 220t283 90q172 0 258.5 -92.5t63.5 -251.5l-104 -735h-107l19 200
q-136 -220 -386 -220zM403 82q74 0 154.5 37.5t138 99.5t66.5 125l28 197l-169 -4q-206 -4 -302 -61.5t-116 -186.5q-12 -97 42.5 -152t157.5 -55z" />
    <glyph glyph-name="Abreve" unicode="&#x102;" horiz-adv-x="1361" 
d="M830 1605q-105 0 -165 58t-67 141h109q9 -21 15.5 -32.5t22.5 -31t41 -29.5t59 -10q97 0 172 103h110q-33 -78 -111.5 -138.5t-185.5 -60.5zM30 0l712 1481h150l290 -1481h-127l-85 440h-600l-213 -440h-127zM423 566h528l-150 785z" />
    <glyph glyph-name="abreve" unicode="&#x103;" horiz-adv-x="1101" 
d="M628 1180q-106 0 -166 58t-67 141h109q9 -21 15.5 -32.5t22.5 -31t41.5 -29.5t59.5 -10q96 0 171 103h111q-33 -78 -111.5 -138.5t-185.5 -60.5zM359 -20q-147 0 -222.5 79.5t-56.5 218.5q25 178 147.5 261.5t372.5 90.5l204 7l14 93q16 115 -45 180t-178 65
q-100 -1 -179.5 -55t-109.5 -151h-116q27 130 142 220t283 90q172 0 258.5 -92.5t63.5 -251.5l-104 -735h-107l19 200q-136 -220 -386 -220zM403 82q74 0 154.5 37.5t138 99.5t66.5 125l28 197l-169 -4q-206 -4 -302 -61.5t-116 -186.5q-12 -97 42.5 -152t157.5 -55z" />
    <glyph glyph-name="Aogonek" unicode="&#x104;" horiz-adv-x="1361" 
d="M30 0l712 1481h150l289 -1476l9 -1q-1 -1 -3.5 -2.5t-4.5 -1.5q-101 -44 -148.5 -84t-55.5 -92q-5 -40 15.5 -60t71.5 -20q79 0 142 34l-12 -79q-72 -38 -170 -38q-89 0 -128 42.5t-29 115.5q8 60 51 105.5t135 80.5l-84 435h-600l-213 -440h-127zM423 566h528l-150 785z
" />
    <glyph glyph-name="aogonek" unicode="&#x105;" horiz-adv-x="1061" 
d="M359 -20q-147 0 -222.5 79.5t-56.5 218.5q25 178 147.5 261.5t372.5 90.5l204 7l14 93q16 115 -45 180t-178 65q-100 -1 -179.5 -55t-109.5 -151h-116q27 130 142 220t283 90q172 0 258.5 -92.5t63.5 -251.5l-104 -735h-23q-95 -43 -140 -81.5t-52 -89.5
q-5 -41 15.5 -60.5t72.5 -19.5q78 0 141 34l-12 -79q-70 -38 -170 -38q-89 0 -128 42.5t-29 115.5q10 67 60 115t160 83l17 178q-136 -220 -386 -220zM403 82q74 0 154.5 37.5t138 99.5t66.5 125l28 197l-169 -4q-206 -4 -302 -61.5t-116 -186.5q-12 -97 42.5 -152
t157.5 -55z" />
    <glyph glyph-name="Cacute" unicode="&#x106;" horiz-adv-x="1317" 
d="M1015 1903h157l-289 -298h-105zM618 -20q-269 0 -389 189t-78 549q41 373 213 578t457 205q137 0 240 -64t154 -167t48 -227h-134q-8 148 -91 243.5t-236 95.5q-220 0 -349 -171.5t-167 -495.5q-38 -312 49 -464t298 -152q152 0 260.5 96.5t156.5 244.5h133
q-22 -91 -71 -172.5t-120 -146.5t-168 -103t-206 -38z" />
    <glyph glyph-name="cacute" unicode="&#x107;" horiz-adv-x="1050" 
d="M816 1481h158l-290 -298h-104zM470 -20q-203 0 -303 139.5t-63 406.5q36 254 172 403.5t351 149.5q151 0 245 -86t97 -241h-117q-2 97 -66.5 157t-173.5 60q-148 0 -251.5 -112t-134.5 -331q-29 -204 37 -322.5t224 -118.5q108 0 191 61t112 156h114q-45 -152 -164 -237
t-270 -85z" />
    <glyph glyph-name="Ccircumflex" unicode="&#x108;" horiz-adv-x="1317" 
d="M558 1605l257 210h91l206 -210h-140l-122 127l-161 -127h-131zM618 -20q-269 0 -389 189t-78 549q41 373 213 578t457 205q137 0 240 -64t154 -167t48 -227h-134q-8 148 -91 243.5t-236 95.5q-220 0 -349 -171.5t-167 -495.5q-38 -312 49 -464t298 -152q152 0 260.5 96.5
t156.5 244.5h133q-22 -91 -71 -172.5t-120 -146.5t-168 -103t-206 -38z" />
    <glyph glyph-name="ccircumflex" unicode="&#x109;" horiz-adv-x="1053" 
d="M362 1183l258 210h90l206 -210h-140l-122 127l-160 -127h-132zM470 -20q-203 0 -303 139.5t-63 406.5q36 254 172 403.5t351 149.5q151 0 245 -86t97 -241h-117q-2 97 -66.5 157t-173.5 60q-148 0 -251.5 -112t-134.5 -331q-29 -204 37 -322.5t224 -118.5q108 0 191 61
t112 156h114q-45 -152 -164 -237t-270 -85z" />
    <glyph glyph-name="Cdotaccent" unicode="&#x10a;" horiz-adv-x="1317" 
d="M781 1686l22 149h131l-21 -149h-132zM618 -20q-269 0 -389 189t-78 549q41 373 213 578t457 205q137 0 240 -64t154 -167t48 -227h-134q-8 148 -91 243.5t-236 95.5q-220 0 -349 -171.5t-167 -495.5q-38 -312 49 -464t298 -152q152 0 260.5 96.5t156.5 244.5h133
q-22 -91 -71 -172.5t-120 -146.5t-168 -103t-206 -38z" />
    <glyph glyph-name="cdotaccent" unicode="&#x10b;" horiz-adv-x="1053" 
d="M586 1264l21 149h131l-20 -149h-132zM470 -20q-203 0 -303 139.5t-63 406.5q36 254 172 403.5t351 149.5q151 0 245 -86t97 -241h-117q-2 97 -66.5 157t-173.5 60q-148 0 -251.5 -112t-134.5 -331q-29 -204 37 -322.5t224 -118.5q108 0 191 61t112 156h114
q-45 -152 -164 -237t-270 -85z" />
    <glyph glyph-name="Ccaron" unicode="&#x10c;" horiz-adv-x="1317" 
d="M790 1604l-205 211h133l128 -131l156 131h139l-258 -211h-93zM618 -20q-269 0 -389 189t-78 549q41 373 213 578t457 205q137 0 240 -64t154 -167t48 -227h-134q-8 148 -91 243.5t-236 95.5q-220 0 -349 -171.5t-167 -495.5q-38 -312 49 -464t298 -152q152 0 260.5 96.5
t156.5 244.5h133q-22 -91 -71 -172.5t-120 -146.5t-168 -103t-206 -38z" />
    <glyph glyph-name="ccaron" unicode="&#x10d;" horiz-adv-x="1053" 
d="M594 1182l-205 211h133l128 -130l157 130h138l-258 -211h-93zM470 -20q-203 0 -303 139.5t-63 406.5q36 254 172 403.5t351 149.5q151 0 245 -86t97 -241h-117q-2 97 -66.5 157t-173.5 60q-148 0 -251.5 -112t-134.5 -331q-29 -204 37 -322.5t224 -118.5q108 0 191 61
t112 156h114q-45 -152 -164 -237t-270 -85z" />
    <glyph glyph-name="Dcaron" unicode="&#x10e;" horiz-adv-x="1330" 
d="M862 1604l-204 211h133l128 -131l156 131h138l-258 -211h-93zM140 0l207 1481h14t34.5 -0.5t48 -1t59.5 -0.5h63q346 -1 514.5 -129.5t168.5 -420.5q0 -150 -25 -280.5t-87 -252t-157 -207.5t-245 -137.5t-342 -51.5h-253zM286 119h114q192 0 333 59t224.5 168t123 251.5
t39.5 321.5q0 125 -34.5 211.5t-104.5 137t-164 72.5t-225 22h-131z" />
    <glyph glyph-name="dcaron" unicode="&#x10f;" horiz-adv-x="1133" 
d="M450 -20q-195 0 -287.5 141t-57.5 413q33 253 157 399t326 146q61 0 113.5 -16t85.5 -38.5t58.5 -51.5t37.5 -52t18 -43l85 644h124l-201 -1522h-99l16 217q-11 -25 -25.5 -49.5t-46.5 -60.5t-70.5 -62.5t-100.5 -45.5t-133 -19zM1151 1111l94 178l-41 9l25 183h122
l-27 -192l-97 -178h-76zM479 86q172 0 259 107.5t119 351.5q25 208 -34 317t-223 109q-144 0 -241 -106.5t-125 -319.5q-29 -216 33 -337.5t212 -121.5z" />
    <glyph glyph-name="Dcroat" unicode="&#x110;" horiz-adv-x="1380" 
d="M189 0l97 687h-182l7 113h190l96 681h14t34.5 -0.5t47.5 -1t59.5 -0.5h63.5q345 -1 513.5 -130t168.5 -420q0 -150 -25 -280.5t-87 -252t-157 -207.5t-245 -137.5t-342 -51.5h-253zM335 119h115q192 0 333 59t224 168t122.5 251t39.5 322q0 125 -34.5 211.5t-104.5 137
t-164 72.5t-225 22h-130l-80 -562h331l-6 -113h-341z" />
    <glyph glyph-name="dcroat" unicode="&#x111;" horiz-adv-x="1148" 
d="M450 -20q-195 0 -287.5 141t-57.5 413q33 253 157 399t326 146q61 0 113.5 -16t85.5 -38.5t58.5 -51.5t37.5 -52t18 -43l47 360h-361l4 91h370l25 193h124l-25 -193h106l-4 -91h-114l-164 -1238h-99l16 217q-11 -25 -25.5 -49.5t-46.5 -60.5t-70.5 -62.5t-100.5 -45.5
t-133 -19zM479 86q172 0 259 107.5t119 351.5q25 208 -34 317t-223 109q-144 0 -241 -106.5t-125 -319.5q-29 -216 33 -337.5t212 -121.5z" />
    <glyph glyph-name="Emacron" unicode="&#x112;" horiz-adv-x="1201" 
d="M519 1704l15 101h516l-15 -101h-516zM137 0l212 1481h828l-18 -119h-705l-79 -554h646l-15 -120h-648l-80 -565l729 -2l-19 -121h-851z" />
    <glyph glyph-name="emacron" unicode="&#x113;" horiz-adv-x="1092" 
d="M409 1282l14 101h515l-14 -101h-515zM490 -20q-205 0 -308 143t-67 396q36 260 173.5 410t346.5 150q199 0 289.5 -136.5t55.5 -380.5l-8 -62h-734q-15 -84 -3.5 -159t41 -131.5t89 -89.5t140.5 -33q108 0 191.5 55t116.5 152h120q-49 -151 -173 -232.5t-270 -81.5z
M253 599h611q24 167 -38 270.5t-208 103.5q-78 0 -144.5 -32.5t-111 -87t-72 -119.5t-37.5 -135z" />
    <glyph glyph-name="Ebreve" unicode="&#x114;" horiz-adv-x="1201" 
d="M757 1605q-106 0 -166 58.5t-67 140.5h109q9 -21 15.5 -32.5t22.5 -31t41 -29.5t59 -10q97 0 172 103h111q-33 -78 -111.5 -138.5t-185.5 -60.5zM137 0l212 1481h828l-18 -119h-705l-79 -554h646l-15 -120h-648l-80 -565l729 -2l-19 -121h-851z" />
    <glyph glyph-name="ebreve" unicode="&#x115;" horiz-adv-x="1092" 
d="M646 1183q-106 0 -165.5 58t-67.5 141h109q8 -20 14.5 -32t22.5 -31.5t41.5 -29.5t59.5 -10q96 0 171 103h111q-33 -78 -111.5 -138.5t-184.5 -60.5zM490 -20q-205 0 -308 143t-67 396q36 260 173.5 410t346.5 150q199 0 289.5 -136.5t55.5 -380.5l-8 -62h-734
q-15 -84 -3.5 -159t41 -131.5t89 -89.5t140.5 -33q108 0 191.5 55t116.5 152h120q-49 -151 -173 -232.5t-270 -81.5zM253 599h611q24 167 -38 270.5t-208 103.5q-78 0 -144.5 -32.5t-111 -87t-72 -119.5t-37.5 -135z" />
    <glyph glyph-name="Edotaccent" unicode="&#x116;" horiz-adv-x="1201" 
d="M708 1686l20 149h132l-20 -149h-132zM137 0l212 1481h828l-18 -119h-705l-79 -554h646l-15 -120h-648l-80 -565l729 -2l-19 -121h-851z" />
    <glyph glyph-name="edotaccent" unicode="&#x117;" horiz-adv-x="1092" 
d="M596 1264l21 149h132l-21 -149h-132zM490 -20q-205 0 -308 143t-67 396q36 260 173.5 410t346.5 150q199 0 289.5 -136.5t55.5 -380.5l-8 -62h-734q-15 -84 -3.5 -159t41 -131.5t89 -89.5t140.5 -33q108 0 191.5 55t116.5 152h120q-49 -151 -173 -232.5t-270 -81.5z
M253 599h611q24 167 -38 270.5t-208 103.5q-78 0 -144.5 -32.5t-111 -87t-72 -119.5t-37.5 -135z" />
    <glyph glyph-name="Eogonek" unicode="&#x118;" horiz-adv-x="1201" 
d="M137 0l212 1481h828l-18 -119h-705l-79 -554h646l-15 -120h-648l-80 -565l729 -2l-18 -118l8 -1q-105 -46 -154.5 -86.5t-57.5 -93.5q-5 -40 15.5 -60t71.5 -20q78 0 143 34l-14 -79q-70 -38 -168 -38q-89 0 -128 42.5t-29 116.5q8 59 49 103.5t129 78.5h-717z" />
    <glyph glyph-name="eogonek" unicode="&#x119;" horiz-adv-x="1092" 
d="M467 -323q-89 0 -128 42.5t-29 116.5q13 93 108 149q-171 25 -253.5 165.5t-49.5 368.5q36 260 173.5 410t346.5 150q199 0 289.5 -136.5t55.5 -380.5l-8 -62h-734q-15 -84 -3.5 -159t41 -131.5t89 -89.5t140.5 -33q108 0 191.5 55t116.5 152h120q-42 -133 -145 -212.5
t-232 -97.5q-64 -33 -96 -67.5t-39 -76.5q-5 -40 15 -60t72 -20q73 0 141 34l-12 -79q-70 -38 -170 -38zM253 599h611q24 167 -38 270.5t-208 103.5q-78 0 -144.5 -32.5t-111 -87t-72 -119.5t-37.5 -135z" />
    <glyph glyph-name="Ecaron" unicode="&#x11a;" horiz-adv-x="1201" 
d="M716 1604l-205 211h133l128 -131l157 131h138l-258 -211h-93zM137 0l212 1481h828l-18 -119h-705l-79 -554h646l-15 -120h-648l-80 -565l729 -2l-19 -121h-851z" />
    <glyph glyph-name="ecaron" unicode="&#x11b;" horiz-adv-x="1088" 
d="M603 1182l-205 211h133l128 -130l157 130h138l-258 -211h-93zM490 -20q-205 0 -308 143t-67 396q36 260 173.5 410t346.5 150q199 0 289.5 -136.5t55.5 -380.5l-8 -62h-734q-15 -84 -3.5 -159t41 -131.5t89 -89.5t140.5 -33q108 0 191.5 55t116.5 152h120
q-49 -151 -173 -232.5t-270 -81.5zM253 599h611q24 167 -38 270.5t-208 103.5q-78 0 -144.5 -32.5t-111 -87t-72 -119.5t-37.5 -135z" />
    <glyph glyph-name="Gcircumflex" unicode="&#x11c;" horiz-adv-x="1404" 
d="M556 1605l257 210h91l206 -210h-140l-122 127l-161 -127h-131zM613 -20q-269 0 -391 196.5t-70 560.5t232.5 564t449.5 200q124 0 227 -64t157.5 -169.5t47.5 -224.5h-133q-3 138 -92 237.5t-227 99.5q-206 0 -346 -161.5t-185 -479.5q-45 -320 51 -480t302 -160
q76 0 145.5 25.5t120 67.5t90 95.5t62.5 108t32 107.5l25 154h-365l16 102l489 -1l-107 -758h-103l35 244q-79 -118 -195 -191t-268 -73z" />
    <glyph glyph-name="gcircumflex" unicode="&#x11d;" horiz-adv-x="1193" 
d="M367 1183l256 210h91l207 -210h-141l-122 127l-160 -127h-131zM447 -350q-222 0 -337.5 75t-96.5 218q7 54 39 100.5t63.5 70t70.5 47t43 26.5q-4 3 -12.5 9t-13.5 9.5t-14 11t-12.5 13t-10.5 15.5t-8 18t-4 21.5t1 25.5q5 45 51 82.5t128 59.5q-76 46 -113.5 121.5
t-25.5 168.5q21 154 137 243.5t315 89.5q92 0 155.5 -24t115.5 -73q195 84 248 105l-18 -144l-181 -40q27 -77 18 -164q-20 -146 -131.5 -234t-303.5 -88q-29 0 -39 1q-119 -2 -174 -26t-59 -59q-3 -32 37.5 -47t148.5 -23q29 -2 103.5 -6.5t114.5 -7.5q143 -8 215 -80.5
t55 -200.5q-19 -145 -147.5 -229.5t-357.5 -84.5zM561 508q127 0 208.5 60t96.5 175q15 117 -49 178t-188 61q-129 0 -213 -63t-100 -183q-14 -110 49.5 -169t195.5 -59zM478 -254q153 0 245 54t105 159q9 73 -34 117.5t-139 51.5l-303 20q-57 4 -130.5 -55t-84.5 -142
q-12 -97 73 -151t268 -54z" />
    <glyph glyph-name="Gbreve" unicode="&#x11e;" horiz-adv-x="1404" 
d="M829 1605q-106 0 -165.5 58t-67.5 141h110q8 -20 14.5 -32t22.5 -31.5t41.5 -29.5t59.5 -10q97 0 172 103h110q-33 -78 -112 -138.5t-185 -60.5zM613 -20q-269 0 -391 196.5t-70 560.5t232.5 564t449.5 200q124 0 227 -64t157.5 -169.5t47.5 -224.5h-133
q-3 138 -92 237.5t-227 99.5q-206 0 -346 -161.5t-185 -479.5q-45 -320 51 -480t302 -160q76 0 145.5 25.5t120 67.5t90 95.5t62.5 108t32 107.5l25 154h-365l16 102l489 -1l-107 -758h-103l35 244q-79 -118 -195 -191t-268 -73z" />
    <glyph glyph-name="gbreve" unicode="&#x11f;" horiz-adv-x="1193" 
d="M639 1183q-105 0 -165 58t-67 141h108q9 -21 15.5 -32.5t22.5 -31t41 -29.5t59 -10q97 0 172 103h111q-33 -78 -111.5 -138.5t-185.5 -60.5zM447 -350q-222 0 -337.5 75t-96.5 218q7 54 39 100.5t63.5 70t70.5 47t43 26.5q-4 3 -12.5 9t-13.5 9.5t-14 11t-12.5 13
t-10.5 15.5t-8 18t-4 21.5t1 25.5q5 45 51 82.5t128 59.5q-76 46 -113.5 121.5t-25.5 168.5q21 154 137 243.5t315 89.5q92 0 155.5 -24t115.5 -73q195 84 248 105l-18 -144l-181 -40q27 -77 18 -164q-20 -146 -131.5 -234t-303.5 -88q-29 0 -39 1q-119 -2 -174 -26t-59 -59
q-3 -32 37.5 -47t148.5 -23q29 -2 103.5 -6.5t114.5 -7.5q143 -8 215 -80.5t55 -200.5q-19 -145 -147.5 -229.5t-357.5 -84.5zM561 508q127 0 208.5 60t96.5 175q15 117 -49 178t-188 61q-129 0 -213 -63t-100 -183q-14 -110 49.5 -169t195.5 -59zM478 -254q153 0 245 54
t105 159q9 73 -34 117.5t-139 51.5l-303 20q-57 4 -130.5 -55t-84.5 -142q-12 -97 73 -151t268 -54z" />
    <glyph glyph-name="Gdotaccent" unicode="&#x120;" horiz-adv-x="1404" 
d="M780 1686l21 149h131l-21 -149h-131zM613 -20q-269 0 -391 196.5t-70 560.5t232.5 564t449.5 200q124 0 227 -64t157.5 -169.5t47.5 -224.5h-133q-3 138 -92 237.5t-227 99.5q-206 0 -346 -161.5t-185 -479.5q-45 -320 51 -480t302 -160q76 0 145.5 25.5t120 67.5
t90 95.5t62.5 108t32 107.5l25 154h-365l16 102l489 -1l-107 -758h-103l35 244q-79 -118 -195 -191t-268 -73z" />
    <glyph glyph-name="gdotaccent" unicode="&#x121;" horiz-adv-x="1193" 
d="M590 1264l20 149h132l-20 -149h-132zM447 -350q-222 0 -337.5 75t-96.5 218q7 54 39 100.5t63.5 70t70.5 47t43 26.5q-4 3 -12.5 9t-13.5 9.5t-14 11t-12.5 13t-10.5 15.5t-8 18t-4 21.5t1 25.5q5 45 51 82.5t128 59.5q-76 46 -113.5 121.5t-25.5 168.5q21 154 137 243.5
t315 89.5q92 0 155.5 -24t115.5 -73q195 84 248 105l-18 -144l-181 -40q27 -77 18 -164q-20 -146 -131.5 -234t-303.5 -88q-29 0 -39 1q-119 -2 -174 -26t-59 -59q-3 -32 37.5 -47t148.5 -23q29 -2 103.5 -6.5t114.5 -7.5q143 -8 215 -80.5t55 -200.5
q-19 -145 -147.5 -229.5t-357.5 -84.5zM561 508q127 0 208.5 60t96.5 175q15 117 -49 178t-188 61q-129 0 -213 -63t-100 -183q-14 -110 49.5 -169t195.5 -59zM478 -254q153 0 245 54t105 159q9 73 -34 117.5t-139 51.5l-303 20q-57 4 -130.5 -55t-84.5 -142
q-12 -97 73 -151t268 -54z" />
    <glyph glyph-name="uni0122" unicode="&#x122;" horiz-adv-x="1404" 
d="M613 -20q-269 0 -391 196.5t-70 560.5t232.5 564t449.5 200q124 0 227 -64t157.5 -169.5t47.5 -224.5h-133q-3 138 -92 237.5t-227 99.5q-206 0 -346 -161.5t-185 -479.5q-45 -320 51 -480t302 -160q76 0 145.5 25.5t120 67.5t90 95.5t62.5 108t32 107.5l25 154h-365
l16 102l489 -1l-107 -758h-103l35 244q-79 -118 -195 -191t-268 -73zM456 -354l89 112l-50 2l19 139h148l-18 -117l-130 -136h-58z" />
    <glyph glyph-name="uni0123" unicode="&#x123;" horiz-adv-x="1193" 
d="M588 1251l25 182l101 139h74l-98 -149h60l-26 -172h-136zM447 -350q-222 0 -337.5 75t-96.5 218q7 54 39 100.5t63.5 70t70.5 47t43 26.5q-4 3 -12.5 9t-13.5 9.5t-14 11t-12.5 13t-10.5 15.5t-8 18t-4 21.5t1 25.5q5 45 51 82.5t128 59.5q-76 46 -113.5 121.5
t-25.5 168.5q21 154 137 243.5t315 89.5q92 0 155.5 -24t115.5 -73q195 84 248 105l-18 -144l-181 -40q27 -77 18 -164q-20 -146 -131.5 -234t-303.5 -88q-29 0 -39 1q-119 -2 -174 -26t-59 -59q-3 -32 37.5 -47t148.5 -23q29 -2 103.5 -6.5t114.5 -7.5q143 -8 215 -80.5
t55 -200.5q-19 -145 -147.5 -229.5t-357.5 -84.5zM561 508q127 0 208.5 60t96.5 175q15 117 -49 178t-188 61q-129 0 -213 -63t-100 -183q-14 -110 49.5 -169t195.5 -59zM478 -254q153 0 245 54t105 159q9 73 -34 117.5t-139 51.5l-303 20q-57 4 -130.5 -55t-84.5 -142
q-12 -97 73 -151t268 -54z" />
    <glyph glyph-name="Hcircumflex" unicode="&#x124;" horiz-adv-x="1494" 
d="M629 1605l257 210h91l207 -210h-141l-121 127l-162 -127h-131zM138 0l208 1481h123l-92 -652h825l91 652h122l-208 -1481h-122l100 709h-825l-99 -709h-123z" />
    <glyph glyph-name="hcircumflex" unicode="&#x125;" horiz-adv-x="1126" 
d="M124 1605l257 210h91l206 -210h-140l-122 127l-161 -127h-131zM112 0l202 1522h118l-82 -617q50 75 140 123t205 48q148 0 236 -85t69 -218l-102 -773h-124l99 740q13 105 -45.5 165t-172.5 60q-126 0 -218 -62t-106 -178l-98 -725h-121z" />
    <glyph glyph-name="Hbar" unicode="&#x126;" horiz-adv-x="1555" 
d="M184 0l161 1148h-234l15 99h233l33 234h123l-34 -234h826l32 234h122l-33 -234h205l-15 -99h-203l-162 -1148h-123l101 709h-824l-101 -709h-122zM423 829h825l44 319h-824z" />
    <glyph glyph-name="hbar" unicode="&#x127;" horiz-adv-x="1228" 
d="M214 0l165 1238h-237l12 91h236l27 193h118l-26 -193h247l-12 -91h-247l-44 -333q50 75 140 123t205 48q148 0 236 -85t69 -218l-103 -773h-123l99 740q13 105 -45.5 165t-172.5 60q-127 0 -219 -62t-106 -178l-97 -725h-122z" />
    <glyph glyph-name="Itilde" unicode="&#x128;" horiz-adv-x="550" 
d="M207 1689l-18 79q40 35 75.5 53t81.5 18q43 0 114 -27t112 -27q35 0 62.5 12t64.5 37l18 -90q-76 -53 -159 -53q-51 0 -115 25.5t-102 25.5q-13 0 -24.5 -1t-23.5 -5.5t-18.5 -6t-19.5 -9.5t-15.5 -9t-17.5 -11zM139 0l210 1481h122l-209 -1481h-123z" />
    <glyph glyph-name="itilde" unicode="&#x129;" horiz-adv-x="468" 
d="M104 1267l-16 80q40 35 75 52.5t81 17.5q43 0 114 -27t113 -27q56 0 126 49l17 -90q-76 -53 -158 -53q-51 0 -115 25.5t-102 25.5q-29 0 -57 -10t-38 -16.5t-40 -26.5zM98 0l151 1059h123l-152 -1059h-122z" />
    <glyph glyph-name="Imacron" unicode="&#x12a;" horiz-adv-x="550" 
d="M187 1704l15 101h516l-15 -101h-516zM139 0l210 1481h122l-209 -1481h-123z" />
    <glyph glyph-name="imacron" unicode="&#x12b;" horiz-adv-x="468" 
d="M85 1282l14 101h516l-14 -101h-516zM98 0l151 1059h123l-152 -1059h-122z" />
    <glyph glyph-name="Ibreve" unicode="&#x12c;" horiz-adv-x="550" 
d="M425 1605q-105 0 -165 58t-67 141h108q9 -21 15.5 -32.5t22.5 -31t41 -29.5t59 -10q97 0 172 103h111q-33 -78 -111.5 -138.5t-185.5 -60.5zM139 0l210 1481h122l-209 -1481h-123z" />
    <glyph glyph-name="ibreve" unicode="&#x12d;" horiz-adv-x="468" 
d="M323 1183q-106 0 -166 58.5t-67 140.5h109q9 -21 15.5 -32.5t22.5 -31t41.5 -29.5t59.5 -10q96 0 171 103h111q-33 -78 -111.5 -138.5t-185.5 -60.5zM98 0l151 1059h123l-152 -1059h-122z" />
    <glyph glyph-name="Iogonek" unicode="&#x12e;" horiz-adv-x="550" 
d="M96 -343q-89 0 -127.5 42.5t-28.5 115.5q9 63 54.5 109.5t145.5 81.5l209 1475h122l-209 -1481h-1q-105 -46 -154 -86.5t-58 -93.5q-5 -40 15.5 -60t71.5 -20q80 0 143 34l-13 -79q-72 -38 -170 -38z" />
    <glyph glyph-name="iogonek" unicode="&#x12f;" horiz-adv-x="468" 
d="M273 1264l21 149h132l-20 -149h-133zM51 -336q-89 0 -127.5 42.5t-28.5 115.5q9 64 56 110.5t149 81.5l149 1045h123l-152 -1059h-18q-97 -43 -143 -82.5t-54 -90.5q-5 -41 15 -60.5t72 -19.5q78 0 141 34l-12 -79q-70 -38 -170 -38z" />
    <glyph glyph-name="Idotaccent" unicode="&#x130;" horiz-adv-x="550" 
d="M376 1686l20 149h132l-21 -149h-131zM139 0l210 1481h122l-209 -1481h-123z" />
    <glyph glyph-name="dotlessi" unicode="&#x131;" horiz-adv-x="468" 
d="M98 0l151 1059h123l-152 -1059h-122z" />
    <glyph glyph-name="Jcircumflex" unicode="&#x134;" horiz-adv-x="752" 
d="M395 1605l256 210h91l207 -210h-140l-122 127l-161 -127h-131zM244 -20q-67 0 -126.5 19t-82.5 34l35 129q7 -4 29 -16t37.5 -19t43.5 -14t59 -7q91 0 134 55.5t62 192.5l161 1127h121l-166 -1167q-24 -168 -93 -251t-214 -83z" />
    <glyph glyph-name="jcircumflex" unicode="&#x135;" horiz-adv-x="461" 
d="M54 1183l256 210h91l207 -210h-140l-122 127l-161 -127h-131zM-53 -340q-53 0 -81 3t-35 7t-6 11l13 86l110 3q71 3 105.5 38.5t46.5 121.5l161 1129h122l-162 -1138q-19 -138 -80 -199.5t-194 -61.5z" />
    <glyph glyph-name="uni0136" unicode="&#x136;" horiz-adv-x="1294" 
d="M137 0l212 1481h126l-115 -815l795 815h153l-562 -581l388 -900h-146l-352 802l-301 -313l-70 -489h-128zM436 -354l88 112l-50 2l21 139h147l-17 -117l-130 -136h-59z" />
    <glyph glyph-name="uni0137" unicode="&#x137;" horiz-adv-x="1073" 
d="M97 0l217 1522h122l-147 -1044l600 581h150l-410 -393l287 -666h-137l-248 573l-267 -254l-44 -319h-123zM312 -354l88 112l-50 2l21 139h147l-17 -117l-130 -136h-59z" />
    <glyph glyph-name="kgreenlandic" unicode="&#x138;" horiz-adv-x="1081" 
d="M97 0l153 1059h122l-84 -588l609 588h145l-399 -379l284 -680h-148l-237 581l-278 -262l-44 -319h-123z" />
    <glyph glyph-name="Lacute" unicode="&#x139;" horiz-adv-x="1128" 
d="M609 1903h158l-290 -298h-104zM137 0l212 1481h127l-193 -1357h680l-18 -124h-808z" />
    <glyph glyph-name="lacute" unicode="&#x13a;" horiz-adv-x="577" 
d="M572 1983h158l-290 -297h-104zM310 -10q-216 0 -176 269l180 1263h122l-180 -1256q-12 -88 12.5 -131.5t73.5 -45.5l57 -1l-12 -86q-43 -12 -77 -12z" />
    <glyph glyph-name="uni013B" unicode="&#x13b;" horiz-adv-x="1128" 
d="M137 0l212 1481h127l-193 -1357h680l-18 -124h-808zM385 -354l88 112l-50 2l19 139h149l-18 -117l-130 -136h-58z" />
    <glyph glyph-name="uni013C" unicode="&#x13c;" horiz-adv-x="574" 
d="M310 -10q-216 0 -176 269l180 1263h122l-180 -1256q-12 -88 12.5 -131.5t73.5 -45.5l57 -1l-12 -86q-43 -12 -77 -12zM42 -353l88 112l-50 3l19 139h149l-18 -117l-130 -137h-58z" />
    <glyph glyph-name="Lcaron" unicode="&#x13d;" horiz-adv-x="1128" 
d="M137 0l212 1481h127l-193 -1357h680l-18 -124h-808zM942 1111l94 178l-41 9l25 183h122l-27 -192l-97 -178h-76z" />
    <glyph glyph-name="lcaron" unicode="&#x13e;" horiz-adv-x="574" 
d="M310 -10q-216 0 -176 269l180 1263h122l-180 -1256q-12 -88 12.5 -131.5t73.5 -45.5l57 -1l-12 -86q-43 -12 -77 -12zM488 1111l95 178l-41 9l24 183h122l-26 -192l-98 -178h-76z" />
    <glyph glyph-name="Ldot" unicode="&#x13f;" horiz-adv-x="1157" 
d="M137 0l212 1481h127l-193 -1357h680l-18 -124h-808zM890 706l28 187h182l-27 -187h-183z" />
    <glyph glyph-name="ldot" unicode="&#x140;" horiz-adv-x="649" 
d="M310 -10q-216 0 -176 269l180 1263h122l-180 -1256q-12 -88 12.5 -131.5t73.5 -45.5l57 -1l-12 -86q-43 -12 -77 -12zM510 496l28 187h182l-28 -187h-182z" />
    <glyph glyph-name="Lslash" unicode="&#x141;" horiz-adv-x="1158" 
d="M167 0l97 683l-181 -48v115l198 51l97 680h128l-92 -646l303 77v-109l-321 -85l-84 -594h680l-18 -124h-807z" />
    <glyph glyph-name="lslash" unicode="&#x142;" horiz-adv-x="673" 
d="M63 340v128l209 182l125 872h122l-108 -750l151 132v-122l-171 -152l-52 -364q-12 -88 12.5 -131.5t73.5 -45.5l56 -1l-11 -86q-43 -12 -78 -12q-213 0 -176 269l36 248z" />
    <glyph glyph-name="Nacute" unicode="&#x143;" horiz-adv-x="1443" 
d="M1054 1903h158l-290 -298h-105zM137 0l212 1481h111l606 -1247l177 1247h123l-212 -1481h-107l-609 1251l-178 -1251h-123z" />
    <glyph glyph-name="nacute" unicode="&#x144;" horiz-adv-x="1110" 
d="M854 1481h159l-291 -298h-105zM98 0l151 1059h115l-19 -153q50 76 140 123.5t204 47.5q153 0 235 -100t55 -287l-98 -690h-122l97 682q20 135 -36 209t-169 74q-81 0 -149.5 -25t-117.5 -80.5t-60 -133.5l-105 -726h-121z" />
    <glyph glyph-name="uni0145" unicode="&#x145;" horiz-adv-x="1443" 
d="M137 0l212 1481h111l606 -1247l177 1247h123l-212 -1481h-107l-609 1251l-178 -1251h-123zM462 -354l88 112l-50 2l19 139h149l-18 -117l-130 -136h-58z" />
    <glyph glyph-name="uni0146" unicode="&#x146;" horiz-adv-x="1110" 
d="M98 0l151 1059h115l-19 -153q50 76 140 123.5t204 47.5q153 0 235 -100t55 -287l-98 -690h-122l97 682q20 135 -36 209t-169 74q-81 0 -149.5 -25t-117.5 -80.5t-60 -133.5l-105 -726h-121zM346 -354l89 112l-50 2l19 139h148l-16 -117l-130 -136h-60z" />
    <glyph glyph-name="Ncaron" unicode="&#x147;" horiz-adv-x="1443" 
d="M828 1604l-203 211h132l128 -131l156 131h140l-259 -211h-94zM137 0l212 1481h111l606 -1247l177 1247h123l-212 -1481h-107l-609 1251l-178 -1251h-123z" />
    <glyph glyph-name="ncaron" unicode="&#x148;" horiz-adv-x="1110" 
d="M629 1182l-204 211h132l128 -130l157 130h138l-258 -211h-93zM98 0l151 1059h115l-19 -153q50 76 140 123.5t204 47.5q153 0 235 -100t55 -287l-98 -690h-122l97 682q20 135 -36 209t-169 74q-81 0 -149.5 -25t-117.5 -80.5t-60 -133.5l-105 -726h-121z" />
    <glyph glyph-name="Eng" unicode="&#x14a;" horiz-adv-x="1443" 
d="M137 0l212 1481h111l606 -1247l177 1247h123l-212 -1481h-3l-23 -157q-23 -168 -92.5 -251.5t-215.5 -83.5q-67 0 -125.5 19t-83.5 35l35 129q7 -4 29 -16t37.5 -19t43.5 -14t59 -7q91 0 135.5 55.5t63.5 192.5l20 143l-596 1225l-178 -1251h-123z" />
    <glyph glyph-name="eng" unicode="&#x14b;" horiz-adv-x="1116" 
d="M590 -340q-18 0 -32.5 0.5t-25.5 1t-19 1t-14 2t-9.5 3t-5 3t-2 3.5t-0.5 5l14 84l94 3q70 2 105 39.5t48 123.5l112 806q37 238 -179 238q-151 0 -347 -175l-112 -798h-120l152 1059h110l-22 -161q128 103 212.5 142t175.5 39q139 0 207 -82.5t47 -216.5l-119 -841
q-18 -134 -86.5 -206.5t-183.5 -72.5z" />
    <glyph glyph-name="Omacron" unicode="&#x14c;" horiz-adv-x="1396" 
d="M611 1704l15 101h516l-15 -101h-516zM622 -20q-273 0 -398 196t-73 558q52 367 235 567t454 200q270 0 393.5 -199t71.5 -565q-52 -363 -232.5 -560t-450.5 -197zM641 99q439 0 529 637q45 325 -44.5 485.5t-304.5 160.5t-352 -162t-182 -484q-45 -319 46.5 -478
t307.5 -159z" />
    <glyph glyph-name="omacron" unicode="&#x14d;" horiz-adv-x="1087" 
d="M366 1282l14 101h515l-14 -101h-515zM472 -20q-204 0 -303.5 139t-64.5 406q35 256 168 405t348 149q202 0 300 -142t62 -412q-34 -252 -165 -398.5t-345 -146.5zM488 87q147 0 245 113.5t127 327.5q27 203 -36 323t-219 120q-151 0 -249.5 -113.5t-126.5 -329.5
q-17 -132 2.5 -229t84.5 -154.5t172 -57.5z" />
    <glyph glyph-name="Obreve" unicode="&#x14e;" horiz-adv-x="1396" 
d="M849 1605q-106 0 -166 58.5t-67 140.5h109q8 -19 15 -32t22.5 -32t41 -29t59.5 -10q97 0 172 103h111q-33 -78 -111.5 -138.5t-185.5 -60.5zM622 -20q-273 0 -398 196t-73 558q52 367 235 567t454 200q270 0 393.5 -199t71.5 -565q-52 -363 -232.5 -560t-450.5 -197z
M641 99q439 0 529 637q45 325 -44.5 485.5t-304.5 160.5t-352 -162t-182 -484q-45 -319 46.5 -478t307.5 -159z" />
    <glyph glyph-name="obreve" unicode="&#x14f;" horiz-adv-x="1087" 
d="M603 1183q-106 0 -165.5 58t-67.5 141h109q8 -20 14.5 -32t22.5 -31.5t41.5 -29.5t59.5 -10q98 0 173 103h110q-33 -78 -112 -138.5t-185 -60.5zM472 -20q-204 0 -303.5 139t-64.5 406q35 256 168 405t348 149q202 0 300 -142t62 -412q-34 -252 -165 -398.5t-345 -146.5z
M488 87q147 0 245 113.5t127 327.5q27 203 -36 323t-219 120q-151 0 -249.5 -113.5t-126.5 -329.5q-17 -132 2.5 -229t84.5 -154.5t172 -57.5z" />
    <glyph glyph-name="Ohungarumlaut" unicode="&#x150;" horiz-adv-x="1396" 
d="M830 1903h146l-193 -298h-99zM1097 1903h146l-229 -298h-101zM622 -20q-273 0 -398 196t-73 558q52 367 235 567t454 200q270 0 393.5 -199t71.5 -565q-52 -363 -232.5 -560t-450.5 -197zM641 99q439 0 529 637q45 325 -44.5 485.5t-304.5 160.5t-352 -162t-182 -484
q-45 -319 46.5 -478t307.5 -159z" />
    <glyph glyph-name="ohungarumlaut" unicode="&#x151;" horiz-adv-x="1070" 
d="M582 1481h145l-192 -298h-100zM848 1481h146l-229 -298h-100zM472 -20q-204 0 -303.5 139t-64.5 406q35 256 168 405t348 149q202 0 300 -142t62 -412q-34 -252 -165 -398.5t-345 -146.5zM488 87q147 0 245 113.5t127 327.5q27 203 -36 323t-219 120
q-151 0 -249.5 -113.5t-126.5 -329.5q-17 -132 2.5 -229t84.5 -154.5t172 -57.5z" />
    <glyph glyph-name="OE" unicode="&#x152;" horiz-adv-x="2151" 
d="M622 -20q-273 0 -398 196t-73 558q52 367 235 567t454 200q154 0 261.5 -66t163.5 -194l34 240h828l-19 -119h-704l-79 -554h646l-16 -120h-646l-81 -565l729 -2l-19 -121h-851l34 237q-187 -257 -499 -257zM641 99q439 0 529 637q45 325 -44.5 485.5t-304.5 160.5
t-352 -162t-182 -484q-45 -319 46.5 -478t307.5 -159z" />
    <glyph glyph-name="oe" unicode="&#x153;" horiz-adv-x="1843" 
d="M472 -20q-204 0 -303.5 139t-64.5 406q35 256 168 405t348 149q133 0 223 -62t126 -184q70 119 176 182.5t240 63.5q200 0 291 -136.5t56 -380.5l-10 -62h-733q-17 -115 3.5 -206.5t87.5 -149t175 -57.5q109 0 193 55.5t116 151.5h120q-49 -151 -172.5 -232.5
t-270.5 -81.5q-132 0 -224.5 61.5t-132.5 176.5q-67 -114 -171.5 -176t-240.5 -62zM1004 599h611q16 108 -4 191t-82 133t-160 50q-78 0 -144.5 -32.5t-111 -87t-72 -119.5t-37.5 -135zM488 87q147 0 245 113.5t127 327.5q27 203 -36 323t-219 120q-151 0 -249.5 -113.5
t-126.5 -329.5q-17 -132 2.5 -229t84.5 -154.5t172 -57.5z" />
    <glyph glyph-name="Racute" unicode="&#x154;" horiz-adv-x="1300" 
d="M966 1903h158l-289 -298h-105zM137 0l212 1481h507q212 0 310 -98.5t72 -284.5q-13 -88 -47.5 -158.5t-84 -117t-100 -75.5t-107.5 -47l179 -700h-132l-170 676h-420l-96 -676h-123zM372 792h326q183 0 286.5 71t124.5 221q39 283 -276 283h-379z" />
    <glyph glyph-name="racute" unicode="&#x155;" horiz-adv-x="727" 
d="M675 1481h159l-291 -298h-105zM97 0l150 1059h115l-24 -178q50 103 134 150.5t176 47.5q63 0 90 -17l-17 -126q-30 15 -91 15q-49 2 -97 -9.5t-93.5 -38.5t-78 -79t-42.5 -122l-98 -702h-124z" />
    <glyph glyph-name="uni0156" unicode="&#x156;" horiz-adv-x="1300" 
d="M137 0l212 1481h507q212 0 310 -98.5t72 -284.5q-13 -88 -47.5 -158.5t-84 -117t-100 -75.5t-107.5 -47l179 -700h-132l-170 676h-420l-96 -676h-123zM372 792h326q183 0 286.5 71t124.5 221q39 283 -276 283h-379zM427 -354l89 112l-50 2l19 139h148l-18 -117l-129 -136
h-59z" />
    <glyph glyph-name="uni0157" unicode="&#x157;" horiz-adv-x="744" 
d="M97 0l150 1059h115l-24 -178q50 103 134 150.5t176 47.5q63 0 90 -17l-17 -126q-30 15 -91 15q-49 2 -97 -9.5t-93.5 -38.5t-78 -79t-42.5 -122l-98 -702h-124zM3 -354l89 112l-50 2l19 139h148l-18 -117l-130 -136h-58z" />
    <glyph glyph-name="Rcaron" unicode="&#x158;" horiz-adv-x="1300" 
d="M741 1604l-204 211h133l128 -131l155 131h140l-259 -211h-93zM137 0l212 1481h507q212 0 310 -98.5t72 -284.5q-13 -88 -47.5 -158.5t-84 -117t-100 -75.5t-107.5 -47l179 -700h-132l-170 676h-420l-96 -676h-123zM372 792h326q183 0 286.5 71t124.5 221q39 283 -276 283
h-379z" />
    <glyph glyph-name="rcaron" unicode="&#x159;" horiz-adv-x="744" 
d="M404 1182l-204 211h133l128 -130l156 130h139l-258 -211h-94zM97 0l150 1059h115l-24 -178q50 103 134 150.5t176 47.5q63 0 90 -17l-17 -126q-30 15 -91 15q-49 2 -97 -9.5t-93.5 -38.5t-78 -79t-42.5 -122l-98 -702h-124z" />
    <glyph glyph-name="Sacute" unicode="&#x15a;" horiz-adv-x="1301" 
d="M976 1903h158l-290 -298h-105zM583 -20q-131 0 -235.5 44t-169.5 135t-66 217h132q10 -135 109 -209t245 -74q164 0 279.5 76.5t131.5 198.5q28 220 -208 284l-279 75q-312 82 -274 353q24 183 172 301t358 118q113 0 202 -36.5t140.5 -96t74.5 -133.5t13 -152h-131
q3 81 -20.5 141t-69 94t-102 49.5t-124.5 15.5q-62 0 -124 -18t-117 -52.5t-93 -91.5t-48 -129q-11 -91 40 -146.5t191 -95.5l269 -76q85 -22 143 -65.5t83 -96.5t34.5 -115.5t-2.5 -123.5q-22 -168 -169.5 -279.5t-384.5 -111.5z" />
    <glyph glyph-name="sacute" unicode="&#x15b;" horiz-adv-x="970" 
d="M779 1481h158l-290 -298h-104zM426 -20q-164 0 -259.5 79t-91.5 235h118q5 -99 69 -154t178 -55q115 0 188 49t86 144q9 66 -19 106t-94 60l-213 63q-115 33 -170 97t-41 170q19 140 122 222.5t279 82.5q154 0 235 -74.5t67 -216.5h-116q2 87 -49.5 137t-152.5 50
q-110 0 -181.5 -49.5t-84.5 -146.5q-9 -63 28.5 -100.5t120.5 -61.5l209 -63q109 -32 149 -104.5t27 -164.5q-20 -142 -124.5 -223.5t-279.5 -81.5z" />
    <glyph glyph-name="Scircumflex" unicode="&#x15c;" horiz-adv-x="1301" 
d="M519 1605l256 210h91l207 -210h-140l-122 127l-161 -127h-131zM583 -20q-131 0 -235.5 44t-169.5 135t-66 217h132q10 -135 109 -209t245 -74q164 0 279.5 76.5t131.5 198.5q28 220 -208 284l-279 75q-312 82 -274 353q24 183 172 301t358 118q113 0 202 -36.5t140.5 -96
t74.5 -133.5t13 -152h-131q3 81 -20.5 141t-69 94t-102 49.5t-124.5 15.5q-62 0 -124 -18t-117 -52.5t-93 -91.5t-48 -129q-11 -91 40 -146.5t191 -95.5l269 -76q85 -22 143 -65.5t83 -96.5t34.5 -115.5t-2.5 -123.5q-22 -168 -169.5 -279.5t-384.5 -111.5z" />
    <glyph glyph-name="scircumflex" unicode="&#x15d;" horiz-adv-x="965" 
d="M314 1183l257 210h92l205 -210h-139l-122 127l-162 -127h-131zM426 -20q-164 0 -259.5 79t-91.5 235h118q5 -99 69 -154t178 -55q115 0 188 49t86 144q9 66 -19 106t-94 60l-213 63q-115 33 -170 97t-41 170q19 140 122 222.5t279 82.5q154 0 235 -74.5t67 -216.5h-116
q2 87 -49.5 137t-152.5 50q-110 0 -181.5 -49.5t-84.5 -146.5q-9 -63 28.5 -100.5t120.5 -61.5l209 -63q109 -32 149 -104.5t27 -164.5q-20 -142 -124.5 -223.5t-279.5 -81.5z" />
    <glyph glyph-name="Scedilla" unicode="&#x15e;" horiz-adv-x="1301" 
d="M461 -414q-97 0 -155 49l35 67q44 -46 115 -46q106 0 117 81q7 46 -25.5 68.5t-107.5 24.5q-16 0 -7 11l77 143q-175 19 -285.5 120.5t-112.5 271.5h132q10 -135 109 -209t245 -74q164 0 279.5 76.5t131.5 198.5q28 220 -208 284l-279 75q-312 82 -274 353
q24 183 172 301t358 118q113 0 202 -36.5t140.5 -96t74.5 -133.5t13 -152h-131q3 81 -20.5 141t-69 94t-102 49.5t-124.5 15.5q-62 0 -124 -18t-117 -52.5t-93 -91.5t-48 -129q-11 -91 40 -146.5t191 -95.5l269 -76q85 -22 143 -65.5t83 -96.5t34.5 -115.5t-2.5 -123.5
q-22 -168 -169 -279.5t-381 -111.5l-49 -95q83 -6 114.5 -47t23.5 -98q-10 -73 -71.5 -113.5t-143.5 -40.5z" />
    <glyph glyph-name="scedilla" unicode="&#x15f;" horiz-adv-x="965" 
d="M332 -414q-96 0 -154 49l34 67q44 -46 116 -46q105 0 117 81q7 46 -25.5 68.5t-107.5 24.5q-16 0 -8 11l77 141q-144 10 -227 88.5t-79 223.5h118q5 -99 69 -154t178 -55q115 0 188 49t86 144q9 66 -19 106t-94 60l-213 63q-115 33 -170 97t-41 170q19 140 122 222.5
t279 82.5q154 0 235 -74.5t67 -216.5h-116q2 87 -49.5 137t-152.5 50q-110 0 -181.5 -49.5t-84.5 -146.5q-9 -63 28.5 -100.5t120.5 -61.5l209 -63q109 -32 149 -104.5t27 -164.5q-19 -135 -114.5 -216t-256.5 -88l-49 -96q83 -6 114 -47t24 -98q-10 -73 -72 -113.5
t-144 -40.5z" />
    <glyph glyph-name="Scaron" unicode="&#x160;" horiz-adv-x="1301" 
d="M751 1604l-205 211h133l128 -131l157 131h138l-258 -211h-93zM583 -20q-131 0 -235.5 44t-169.5 135t-66 217h132q10 -135 109 -209t245 -74q164 0 279.5 76.5t131.5 198.5q28 220 -208 284l-279 75q-312 82 -274 353q24 183 172 301t358 118q113 0 202 -36.5t140.5 -96
t74.5 -133.5t13 -152h-131q3 81 -20.5 141t-69 94t-102 49.5t-124.5 15.5q-62 0 -124 -18t-117 -52.5t-93 -91.5t-48 -129q-11 -91 40 -146.5t191 -95.5l269 -76q85 -22 143 -65.5t83 -96.5t34.5 -115.5t-2.5 -123.5q-22 -168 -169.5 -279.5t-384.5 -111.5z" />
    <glyph glyph-name="scaron" unicode="&#x161;" horiz-adv-x="962" 
d="M556 1182l-205 211h133l128 -130l157 130h138l-258 -211h-93zM426 -20q-164 0 -259.5 79t-91.5 235h118q5 -99 69 -154t178 -55q115 0 188 49t86 144q9 66 -19 106t-94 60l-213 63q-115 33 -170 97t-41 170q19 140 122 222.5t279 82.5q154 0 235 -74.5t67 -216.5h-116
q2 87 -49.5 137t-152.5 50q-110 0 -181.5 -49.5t-84.5 -146.5q-9 -63 28.5 -100.5t120.5 -61.5l209 -63q109 -32 149 -104.5t27 -164.5q-20 -142 -124.5 -223.5t-279.5 -81.5z" />
    <glyph glyph-name="uni0162" unicode="&#x162;" horiz-adv-x="1122" 
d="M439 0l193 1359h-460l16 122h1011l-15 -122h-430l-193 -1359h-17l-58 -112q83 -6 114.5 -47t24.5 -98q-10 -73 -72 -113.5t-144 -40.5q-93 0 -154 50l34 67q45 -47 115 -47q105 0 118 82q7 45 -25.5 67.5t-107.5 25.5q-16 0 -8 10l85 156h-27z" />
    <glyph glyph-name="uni0163" unicode="&#x163;" horiz-adv-x="735" 
d="M424 -2h-17l-57 -111q83 -6 114 -46.5t24 -98.5q-10 -72 -71.5 -112.5t-144.5 -40.5q-94 0 -153 50l34 66q44 -46 115 -46q106 0 118 81q7 46 -25.5 68.5t-107.5 24.5q-16 0 -8 11l89 163q-71 19 -93.5 76.5t-6.5 162.5l101 713h-161l15 100h161l70 302h96l-42 -302h225
l-14 -100h-226l-100 -702q-13 -95 12.5 -123.5t105.5 -28.5h94l-13 -94q-38 -13 -134 -13z" />
    <glyph glyph-name="Tcaron" unicode="&#x164;" horiz-adv-x="1122" 
d="M687 1604l-204 211h132l128 -131l157 131h138l-258 -211h-93zM439 0l193 1359h-460l16 122h1011l-15 -122h-430l-193 -1359h-122z" />
    <glyph glyph-name="tcaron" unicode="&#x165;" horiz-adv-x="749" 
d="M759 1134l94 178l-41 9l25 182h121l-26 -191l-97 -178h-76zM424 -2q-128 0 -169 58t-21 190l101 713h-161l15 100h161l70 302h96l-42 -302h225l-14 -100h-226l-100 -702q-13 -95 12.5 -123.5t105.5 -28.5h94l-13 -94q-38 -13 -134 -13z" />
    <glyph glyph-name="Tbar" unicode="&#x166;" horiz-adv-x="1122" 
d="M439 0l99 695h-321l6 114h330l79 550h-460l16 122h1011l-15 -122h-430l-78 -550h300l-6 -114h-311l-98 -695h-122z" />
    <glyph glyph-name="tbar" unicode="&#x167;" horiz-adv-x="742" 
d="M475 -2q-128 0 -169 58t-21 190l42 299h-188v91h201l45 323h-161l16 100h160l70 302h96l-42 -302h226l-15 -100h-226l-45 -323h174v-91h-187l-41 -288q-13 -95 12 -123.5t105 -28.5h95l-14 -94q-36 -13 -133 -13z" />
    <glyph glyph-name="Utilde" unicode="&#x168;" horiz-adv-x="1340" 
d="M622 1689l-17 79q40 35 75.5 53t80.5 18q44 0 115 -27t112 -27q35 0 62.5 12t64.5 37l18 -90q-76 -53 -159 -53q-51 0 -115 25.5t-103 25.5q-11 0 -22.5 -1.5t-19 -3t-18.5 -6t-16 -6.5t-16.5 -9t-13.5 -8t-14.5 -9.5t-13.5 -9.5zM612 -20q-248 0 -344 130.5t-58 397.5
l137 973h129l-142 -1005q-27 -187 47.5 -283.5t247.5 -96.5q175 0 279 95.5t131 284.5l143 1005h122l-142 -999q-35 -251 -170.5 -376.5t-379.5 -125.5z" />
    <glyph glyph-name="utilde" unicode="&#x169;" horiz-adv-x="1122" 
d="M422 1267l-16 80q40 35 74.5 52.5t80.5 17.5q43 0 114 -27t113 -27q56 0 126 49l18 -90q-76 -53 -159 -53q-51 0 -115 25.5t-102 25.5q-11 0 -22.5 -1.5t-19 -3t-18.5 -6t-16 -6.5t-16.5 -9t-13.5 -8t-14.5 -9.5t-13.5 -9.5zM460 -20q-172 2 -264 96t-67 272l99 711h123
l-99 -703q-18 -125 41.5 -196.5t195.5 -71.5q128 0 212.5 72t103.5 211l97 688h122l-148 -1059h-103l17 198q-41 -106 -128 -163t-202 -55z" />
    <glyph glyph-name="Umacron" unicode="&#x16a;" horiz-adv-x="1340" 
d="M603 1704l14 101h517l-15 -101h-516zM612 -20q-248 0 -344 130.5t-58 397.5l137 973h129l-142 -1005q-27 -187 47.5 -283.5t247.5 -96.5q175 0 279 95.5t131 284.5l143 1005h122l-142 -999q-35 -251 -170.5 -376.5t-379.5 -125.5z" />
    <glyph glyph-name="umacron" unicode="&#x16b;" horiz-adv-x="1122" 
d="M402 1282l15 101h516l-14 -101h-517zM460 -20q-172 2 -264 96t-67 272l99 711h123l-99 -703q-18 -125 41.5 -196.5t195.5 -71.5q128 0 212.5 72t103.5 211l97 688h122l-148 -1059h-103l17 198q-41 -106 -128 -163t-202 -55z" />
    <glyph glyph-name="Ubreve" unicode="&#x16c;" horiz-adv-x="1340" 
d="M841 1605q-106 0 -166 58.5t-67 140.5h109q8 -19 15 -32t22.5 -32t41 -29t59.5 -10q97 0 172 103h111q-33 -78 -111.5 -138.5t-185.5 -60.5zM612 -20q-248 0 -344 130.5t-58 397.5l137 973h129l-142 -1005q-27 -187 47.5 -283.5t247.5 -96.5q175 0 279 95.5t131 284.5
l143 1005h122l-142 -999q-35 -251 -170.5 -376.5t-379.5 -125.5z" />
    <glyph glyph-name="ubreve" unicode="&#x16d;" horiz-adv-x="1122" 
d="M640 1183q-105 0 -165 58t-67 141h108q9 -21 15.5 -32.5t22.5 -31t41 -29.5t59 -10q97 0 172 103h111q-33 -78 -111.5 -138.5t-185.5 -60.5zM460 -20q-172 2 -264 96t-67 272l99 711h123l-99 -703q-18 -125 41.5 -196.5t195.5 -71.5q128 0 212.5 72t103.5 211l97 688h122
l-148 -1059h-103l17 198q-41 -106 -128 -163t-202 -55z" />
    <glyph glyph-name="Uring" unicode="&#x16e;" horiz-adv-x="1340" 
d="M846 1614q-79 0 -126 60t-35 148q11 82 75.5 139.5t143.5 57.5q80 0 127.5 -58.5t34.5 -142.5q-10 -86 -74 -145t-146 -59zM857 1702q43 0 79 35t43 81q6 50 -19.5 81t-70.5 31q-43 0 -78.5 -31.5t-42.5 -80.5q-8 -46 19 -81t70 -35zM612 -20q-248 0 -344 130.5
t-58 397.5l137 973h129l-142 -1005q-27 -187 47.5 -283.5t247.5 -96.5q175 0 279 95.5t131 284.5l143 1005h122l-142 -999q-35 -251 -170.5 -376.5t-379.5 -125.5z" />
    <glyph glyph-name="uring" unicode="&#x16f;" horiz-adv-x="1122" 
d="M645 1192q-79 0 -126 60t-34 148q10 82 75.5 139.5t144.5 57.5q80 0 126.5 -58t34.5 -143q-11 -87 -75.5 -145.5t-145.5 -58.5zM656 1280q43 0 79 35t44 81q6 50 -20 81t-71 31q-42 0 -78 -31.5t-43 -80.5q-7 -46 20 -81t69 -35zM460 -20q-172 2 -264 96t-67 272l99 711
h123l-99 -703q-18 -125 41.5 -196.5t195.5 -71.5q128 0 212.5 72t103.5 211l97 688h122l-148 -1059h-103l17 198q-41 -106 -128 -163t-202 -55z" />
    <glyph glyph-name="Uhungarumlaut" unicode="&#x170;" horiz-adv-x="1333" 
d="M821 1903h146l-193 -298h-99zM1087 1903h147l-229 -298h-101zM612 -20q-248 0 -344 130.5t-58 397.5l137 973h129l-142 -1005q-27 -187 47.5 -283.5t247.5 -96.5q175 0 279 95.5t131 284.5l143 1005h122l-142 -999q-35 -251 -170.5 -376.5t-379.5 -125.5z" />
    <glyph glyph-name="uhungarumlaut" unicode="&#x171;" horiz-adv-x="1064" 
d="M623 1481h146l-192 -298h-101zM889 1481h147l-229 -298h-100zM460 -20q-172 2 -264 96t-67 272l99 711h123l-99 -703q-18 -125 41.5 -196.5t195.5 -71.5q128 0 212.5 72t103.5 211l97 688h122l-148 -1059h-103l17 198q-41 -106 -128 -163t-202 -55z" />
    <glyph glyph-name="Uogonek" unicode="&#x172;" horiz-adv-x="1340" 
d="M603 -342q-89 0 -128 42.5t-29 115.5q14 104 136 165q-230 7 -319.5 137.5t-52.5 389.5l137 973h129l-142 -1005q-27 -187 47.5 -283.5t247.5 -96.5q175 0 279 95.5t131 284.5l143 1005h122l-142 -1000q-61 -430 -418 -491q-92 -42 -136 -80.5t-52 -88.5q-4 -40 16 -60
t71 -20q79 0 142 34l-12 -79q-70 -38 -170 -38z" />
    <glyph glyph-name="uogonek" unicode="&#x173;" horiz-adv-x="1122" 
d="M460 -20q-172 2 -264 96t-67 272l99 711h123l-99 -703q-18 -125 41.5 -196.5t195.5 -71.5q128 0 212.5 72t103.5 211l97 688h122l-148 -1059h-53q-101 -45 -147.5 -84.5t-55.5 -91.5q-4 -41 16 -60.5t71 -19.5q79 0 142 34l-12 -79q-70 -38 -170 -38q-89 0 -128 42.5
t-29 115.5q10 67 61.5 115.5t166.5 84.5l36 -6l16 185q-41 -106 -128 -163t-202 -55z" />
    <glyph glyph-name="Wcircumflex" unicode="&#x174;" horiz-adv-x="1816" 
d="M782 1605l256 210h91l207 -210h-140l-122 127l-161 -127h-131zM370 0l-181 1481h129l148 -1293l522 1293h104l155 -1293l522 1293h126l-610 -1481h-130l-149 1249l-508 -1249h-128z" />
    <glyph glyph-name="wcircumflex" unicode="&#x175;" horiz-adv-x="1505" 
d="M575 1183l258 210h91l205 -210h-139l-122 127l-161 -127h-132zM296 0l-145 1059h118l118 -902h20l372 902h99l129 -899h19l362 899h117l-435 -1059h-146l-125 860l-353 -860h-150z" />
    <glyph glyph-name="Ycircumflex" unicode="&#x176;" horiz-adv-x="1101" 
d="M423 1608l256 211h91l207 -211h-140l-122 128l-161 -128h-131zM417 0l88 636l-343 845h133l290 -726l488 726h135l-579 -847l-91 -634h-121z" />
    <glyph glyph-name="ycircumflex" unicode="&#x177;" horiz-adv-x="1001" 
d="M318 1183l257 210h92l206 -210h-140l-122 127l-161 -127h-132zM109 -338q-46 0 -79 5t-43 11l-10 5l14 85l103 -1q63 -1 108.5 18t68 43.5t41.5 62.5l61 123l-238 1045h126l195 -889l441 889h119l-591 -1180q-62 -118 -139 -167.5t-177 -49.5z" />
    <glyph glyph-name="Ydieresis" unicode="&#x178;" horiz-adv-x="1101" 
d="M793 1689l20 149h131l-20 -149h-131zM508 1689l20 149h132l-20 -149h-132zM417 0l88 636l-343 845h133l290 -726l488 726h135l-579 -847l-91 -634h-121z" />
    <glyph glyph-name="Zacute" unicode="&#x179;" horiz-adv-x="1203" 
d="M966 1903h158l-289 -298h-106zM67 0l13 81l966 1283h-760l16 117h929l-11 -78l-973 -1285h788l-18 -118h-950z" />
    <glyph glyph-name="zacute" unicode="&#x17a;" horiz-adv-x="937" 
d="M776 1481h158l-290 -298h-104zM13 0l12 91l719 867h-555l15 101h698l-12 -91l-718 -868h601l-14 -100h-746z" />
    <glyph glyph-name="Zdotaccent" unicode="&#x17b;" horiz-adv-x="1203" 
d="M733 1686l21 149h132l-22 -149h-131zM67 0l13 81l966 1283h-760l16 117h929l-11 -78l-973 -1285h788l-18 -118h-950z" />
    <glyph glyph-name="zdotaccent" unicode="&#x17c;" horiz-adv-x="919" 
d="M525 1264l21 149h131l-21 -149h-131zM13 0l12 91l719 867h-555l15 101h698l-12 -91l-718 -868h601l-14 -100h-746z" />
    <glyph glyph-name="Zcaron" unicode="&#x17d;" horiz-adv-x="1203" 
d="M741 1604l-204 211h133l127 -131l156 131h140l-259 -211h-93zM67 0l13 81l966 1283h-760l16 117h929l-11 -78l-973 -1285h788l-18 -118h-950z" />
    <glyph glyph-name="zcaron" unicode="&#x17e;" horiz-adv-x="929" 
d="M553 1182l-205 211h133l128 -130l157 130h138l-258 -211h-93zM13 0l12 91l719 867h-555l15 101h698l-12 -91l-718 -868h601l-14 -100h-746z" />
    <glyph glyph-name="uni018F" unicode="&#x18f;" horiz-adv-x="1403" 
d="M628 -20q-273 0 -398.5 201.5t-70.5 591.5h1015q41 286 -49.5 443t-302.5 157q-102 0 -193 -36.5t-151.5 -94t-99 -123.5t-47.5 -130h-145q12 85 66.5 174t138 165t203 124.5t248.5 48.5q271 0 395.5 -202t74.5 -559q-52 -368 -232.5 -564t-451.5 -196zM645 104
q139 0 248 73.5t174 197t90 284.5h-865q-22 -162 8 -285.5t118.5 -196.5t226.5 -73z" />
    <glyph glyph-name="florin" unicode="&#x192;" horiz-adv-x="798" 
d="M-310 -341l27 97l109 1q71 2 111.5 40t68.5 131l313 1031h-158l30 100h160l51 171q39 123 116.5 187t186.5 64h162l-29 -99h-146q-56 0 -102 -42.5t-68 -114.5l-52 -166h260l-31 -100h-258l-314 -1038q-81 -262 -305 -262h-132z" />
    <glyph glyph-name="Ohorn" unicode="&#x1a0;" horiz-adv-x="1501" 
d="M622 -20q-273 0 -398 196t-73 558q52 367 235 567t454 200q273 0 395 -203l2 16q87 -2 127.5 37t61.5 157h112q-21 -148 -84.5 -218.5t-180.5 -69.5q74 -189 32 -483q-52 -363 -232.5 -560t-450.5 -197zM641 99q439 0 529 637q45 325 -44.5 485.5t-304.5 160.5t-352 -162
t-182 -484q-45 -319 46.5 -478t307.5 -159z" />
    <glyph glyph-name="ohorn" unicode="&#x1a1;" horiz-adv-x="1209" 
d="M474 -20q-204 0 -304 139.5t-64 405.5q34 256 167.5 405t348.5 149q137 0 228.5 -67t124.5 -197q69 4 104.5 45.5t55.5 149.5h111q-20 -145 -82 -216t-174 -73q7 -87 -6 -196q-34 -252 -165.5 -398.5t-344.5 -146.5zM490 87q147 0 245 113.5t126 327.5q27 203 -36 323
t-219 120q-150 0 -249 -113.5t-127 -329.5q-17 -132 2.5 -229t85 -154.5t172.5 -57.5z" />
    <glyph glyph-name="Uhorn" unicode="&#x1af;" horiz-adv-x="1515" 
d="M612 -20q-248 0 -344 130.5t-58 397.5l137 973h129l-142 -1005q-27 -187 47.5 -283.5t247.5 -96.5q175 0 279 95.5t131 284.5l143 1005h122l-24 -167q67 5 101.5 46t54.5 147h111q-22 -153 -89 -222.5t-191 -64.5l-105 -738q-35 -251 -170.5 -376.5t-379.5 -125.5z" />
    <glyph glyph-name="uhorn" unicode="&#x1b0;" horiz-adv-x="1200" 
d="M460 -20q-171 2 -263.5 96t-67.5 272l99 711h124l-99 -703q-18 -125 41.5 -196.5t195.5 -71.5q128 0 212 72t104 211l97 688h122l-15 -113q70 3 105 44t55 151h112q-22 -155 -90.5 -225.5t-195.5 -63.5l-120 -852h-102l17 198q-42 -106 -128.5 -163t-202.5 -55z" />
    <glyph glyph-name="uni01D4" unicode="&#x1d4;" horiz-adv-x="1122" 
d="M599 1182l-205 211h133l128 -130l157 130h138l-258 -211h-93zM460 -20q-172 2 -264 96t-67 272l99 711h123l-99 -703q-18 -125 41.5 -196.5t195.5 -71.5q128 0 212.5 72t103.5 211l97 688h122l-148 -1059h-103l17 198q-41 -106 -128 -163t-202 -55z" />
    <glyph glyph-name="uni01EA" unicode="&#x1ea;" horiz-adv-x="1396" 
d="M616 -343q-89 0 -127.5 43t-28.5 116q14 104 136 164q-260 10 -378 205t-67 549q52 367 235 567t454 200q270 0 393.5 -199t71.5 -565q-44 -308 -182 -497.5t-347 -241.5q-102 -45 -150 -85t-57 -92q-4 -41 16 -61t72 -20q74 0 142 34l-13 -79q-74 -38 -170 -38zM641 99
q439 0 529 637q45 325 -44.5 485.5t-304.5 160.5t-352 -162t-182 -484q-45 -319 46.5 -478t307.5 -159z" />
    <glyph glyph-name="uni01EB" unicode="&#x1eb;" horiz-adv-x="1087" 
d="M412 -341q-89 0 -128 42.5t-29 116.5q8 53 41 94t102 73q-169 25 -247.5 162.5t-46.5 377.5q35 256 168 405t348 149q202 0 300 -142t62 -412q-31 -231 -145 -375t-300 -166q-84 -40 -124 -77t-47 -85q-5 -40 15 -60t72 -20q78 0 141 34l-12 -79q-70 -38 -170 -38z
M488 87q147 0 245 113.5t127 327.5q27 203 -36 323t-219 120q-151 0 -249.5 -113.5t-126.5 -329.5q-17 -132 2.5 -229t84.5 -154.5t172 -57.5z" />
    <glyph glyph-name="Aringacute" unicode="&#x1fa;" horiz-adv-x="1361" 
d="M30 0l699 1453q-40 26 -58.5 74t-10.5 108q9 73 63.5 127.5t125.5 64.5l47 129h115l-74 -138q53 -20 80.5 -71t18.5 -116q-9 -63 -46 -112t-91 -73l283 -1446h-127l-85 440h-600l-213 -440h-127zM828 1512q43 0 78 35t43 81q8 50 -18 82.5t-71 32.5q-43 0 -79.5 -33
t-42.5 -82q-6 -45 21 -80.5t69 -35.5zM423 566h528l-150 785z" />
    <glyph glyph-name="aringacute" unicode="&#x1fb;" horiz-adv-x="1061" 
d="M359 -20q-147 0 -222.5 79.5t-56.5 218.5q25 178 147.5 261.5t372.5 90.5l204 7l14 93q16 115 -45 180t-178 65q-100 -1 -179.5 -55t-109.5 -151h-116q21 103 100 184t199 111q-44 56 -33 149q10 73 64 127.5t125 64.5l47 129h115l-74 -138q53 -21 81 -72t19 -115
q-13 -90 -80 -148q105 -33 153.5 -118t30.5 -208l-104 -735h-107l19 200q-136 -220 -386 -220zM625 1091q43 0 77.5 34.5t42.5 80.5q8 50 -18 82.5t-71 32.5q-43 0 -79 -33t-42 -82q-6 -45 21 -80t69 -35zM403 82q74 0 154.5 37.5t138 99.5t66.5 125l28 197l-169 -4
q-206 -4 -302 -61.5t-116 -186.5q-12 -97 42.5 -152t157.5 -55z" />
    <glyph glyph-name="AEacute" unicode="&#x1fc;" horiz-adv-x="1805" 
d="M1531 1903h159l-291 -298h-105zM-75 0l985 1481h869l-17 -117h-659l-79 -558h609l-15 -116h-611l-81 -573h685l-17 -117h-824l65 446h-487l-297 -446h-126zM418 566h433l115 811z" />
    <glyph glyph-name="aeacute" unicode="&#x1fd;" horiz-adv-x="1778" 
d="M1154 1481h158l-290 -298h-104zM359 -20q-147 0 -223 80t-56 218q26 178 148.5 261.5t373.5 90.5l206 7l13 93q16 115 -44.5 180t-177.5 65q-101 -1 -178.5 -54.5t-107.5 -151.5h-115q25 130 139.5 220t282.5 90q129 0 210 -51.5t105 -146.5q143 198 386 198
q199 0 290 -136.5t56 -380.5l-9 -62h-733q-17 -115 3.5 -206.5t87.5 -149t175 -57.5q109 0 192.5 55.5t115.5 151.5h121q-49 -151 -172.5 -232.5t-270.5 -81.5q-143 0 -239 72t-130 205q-29 -82 -99.5 -146t-162 -97.5t-187.5 -33.5zM939 599h611q24 167 -37.5 270.5
t-207.5 103.5q-78 0 -144.5 -33t-111 -87t-72.5 -119t-38 -135zM407 82q71 0 137 29t113 74t78 98.5t38 103.5l22 154l-172 -4q-207 -5 -304 -62t-115 -186q-13 -96 42.5 -151.5t160.5 -55.5z" />
    <glyph glyph-name="Oslashacute" unicode="&#x1fe;" horiz-adv-x="1417" 
d="M1040 1903h158l-290 -298h-104zM68 -27l-69 80l192 201q-75 182 -32 480q52 367 234 567t453 200q255 0 382 -180l178 184l71 -78l-197 -204q74 -191 33 -486q-50 -362 -231.5 -559.5t-452.5 -197.5q-261 0 -382 177zM315 372l808 850q-82 160 -295 160q-417 0 -514 -618
q-35 -240 1 -392zM649 99q207 0 332.5 149t171.5 455q39 239 3 404l-808 -850q86 -158 301 -158z" />
    <glyph glyph-name="oslashacute" unicode="&#x1ff;" horiz-adv-x="1043" 
d="M716 1481h157l-289 -298h-105zM34 -9l-65 67l110 107q-66 136 -38 360q35 256 167.5 405t347.5 149q212 0 306 -150l138 136l65 -68l-162 -158q41 -130 16 -314q-33 -252 -164 -398.5t-345 -146.5q-179 0 -278 106zM166 528q-21 -163 12 -266l589 575q-64 134 -225 134
q-151 0 -249.5 -113.5t-126.5 -329.5zM425 87q147 0 245 113.5t127 327.5q14 120 1 207l-575 -560q69 -88 202 -88z" />
    <glyph glyph-name="uni0200" unicode="&#x200;" horiz-adv-x="1361" 
d="M833 1903l146 -298h-100l-193 298h147zM566 1903l183 -298h-100l-230 298h147zM30 0l712 1481h150l290 -1481h-127l-85 440h-600l-213 -440h-127zM423 566h528l-150 785z" />
    <glyph glyph-name="uni0201" unicode="&#x201;" horiz-adv-x="1125" 
d="M675 1481l145 -298h-99l-193 298h147zM408 1481l183 -298h-101l-229 298h147zM383 -20q-147 0 -223 79.5t-57 218.5q25 178 148 261.5t373 90.5l203 7l15 93q16 115 -45.5 180t-178.5 65q-100 -1 -179 -55t-109 -151h-116q27 130 142 220t283 90q172 0 258.5 -92.5
t63.5 -251.5l-105 -735h-106l19 200q-136 -220 -386 -220zM427 82q74 0 154 37.5t137.5 99.5t66.5 125l28 197l-169 -4q-206 -4 -302 -61.5t-116 -186.5q-12 -96 43 -151.5t158 -55.5z" />
    <glyph glyph-name="uni0202" unicode="&#x202;" horiz-adv-x="1361" 
d="M847 1825q107 0 168.5 -61t71.5 -139h-110q-45 104 -142 104q-28 0 -53 -8.5t-40.5 -17.5t-33 -27t-23.5 -26t-18 -25h-109q31 83 107.5 141.5t181.5 58.5zM30 0l712 1481h150l290 -1481h-127l-85 440h-600l-213 -440h-127zM423 566h528l-150 785z" />
    <glyph glyph-name="uni0203" unicode="&#x203;" horiz-adv-x="1101" 
d="M645 1403q107 0 169 -61t72 -139h-111q-45 104 -142 104q-28 0 -53 -8.5t-40.5 -17.5t-33 -27t-23.5 -26t-18 -25h-109q31 83 107.5 141.5t181.5 58.5zM359 -20q-147 0 -222.5 79.5t-56.5 218.5q25 178 147.5 261.5t372.5 90.5l204 7l14 93q16 115 -45 180t-178 65
q-100 -1 -179.5 -55t-109.5 -151h-116q27 130 142 220t283 90q172 0 258.5 -92.5t63.5 -251.5l-104 -735h-107l19 200q-136 -220 -386 -220zM403 82q74 0 154.5 37.5t138 99.5t66.5 125l28 197l-169 -4q-206 -4 -302 -61.5t-116 -186.5q-12 -97 42.5 -152t157.5 -55z" />
    <glyph glyph-name="uni0204" unicode="&#x204;" horiz-adv-x="1201" 
d="M759 1903l146 -298h-100l-192 298h146zM493 1903l182 -298h-100l-230 298h148zM137 0l212 1481h828l-18 -119h-705l-79 -554h646l-15 -120h-648l-80 -565l729 -2l-19 -121h-851z" />
    <glyph glyph-name="uni0205" unicode="&#x205;" horiz-adv-x="1092" 
d="M647 1481l147 -298h-100l-192 298h145zM381 1481l183 -298h-100l-230 298h147zM490 -20q-205 0 -308 143t-67 396q36 260 173.5 410t346.5 150q199 0 289.5 -136.5t55.5 -380.5l-8 -62h-734q-15 -84 -3.5 -159t41 -131.5t89 -89.5t140.5 -33q108 0 191.5 55t116.5 152
h120q-49 -151 -173 -232.5t-270 -81.5zM253 599h611q24 167 -38 270.5t-208 103.5q-78 0 -144.5 -32.5t-111 -87t-72 -119.5t-37.5 -135z" />
    <glyph glyph-name="uni0206" unicode="&#x206;" horiz-adv-x="1201" 
d="M773 1825q107 0 169 -61t72 -139h-111q-45 104 -142 104q-34 0 -62.5 -10t-49.5 -30t-31 -32t-24 -32h-110q31 83 107.5 141.5t181.5 58.5zM137 0l212 1481h828l-18 -119h-705l-79 -554h646l-15 -120h-648l-80 -565l729 -2l-19 -121h-851z" />
    <glyph glyph-name="uni0207" unicode="&#x207;" horiz-adv-x="1092" 
d="M663 1403q106 0 167.5 -61t72.5 -139h-110q-45 104 -144 104q-34 0 -62 -10t-49.5 -30.5t-31 -31t-24.5 -32.5h-108q30 83 106.5 141.5t182.5 58.5zM490 -20q-205 0 -308 143t-67 396q36 260 173.5 410t346.5 150q199 0 289.5 -136.5t55.5 -380.5l-8 -62h-734
q-15 -84 -3.5 -159t41 -131.5t89 -89.5t140.5 -33q108 0 191.5 55t116.5 152h120q-49 -151 -173 -232.5t-270 -81.5zM253 599h611q24 167 -38 270.5t-208 103.5q-78 0 -144.5 -32.5t-111 -87t-72 -119.5t-37.5 -135z" />
    <glyph glyph-name="uni0208" unicode="&#x208;" horiz-adv-x="550" 
d="M427 1903l146 -298h-100l-192 298h146zM161 1903l182 -298h-99l-231 298h148zM139 0l210 1481h122l-209 -1481h-123z" />
    <glyph glyph-name="uni0209" unicode="&#x209;" horiz-adv-x="468" 
d="M325 1481l146 -298h-99l-193 298h146zM58 1481l184 -298h-101l-229 298h146zM98 0l151 1059h123l-152 -1059h-122z" />
    <glyph glyph-name="uni020A" unicode="&#x20a;" horiz-adv-x="550" 
d="M441 1825q107 0 169 -61t72 -139h-111q-45 104 -142 104q-28 0 -53 -8.5t-40.5 -17.5t-33 -27t-23.5 -26t-18 -25h-108q31 83 107 141.5t181 58.5zM139 0l210 1481h122l-209 -1481h-123z" />
    <glyph glyph-name="uni020B" unicode="&#x20b;" horiz-adv-x="468" 
d="M339 1403q107 0 169 -61t72 -139h-111q-45 104 -142 104q-34 0 -62 -10t-49.5 -30.5t-31 -31t-24.5 -32.5h-110q31 83 107.5 141.5t181.5 58.5zM98 0l151 1059h123l-152 -1059h-122z" />
    <glyph glyph-name="uni020C" unicode="&#x20c;" horiz-adv-x="1396" 
d="M851 1903l146 -298h-100l-192 298h146zM585 1903l182 -298h-99l-231 298h148zM622 -20q-273 0 -398 196t-73 558q52 367 235 567t454 200q270 0 393.5 -199t71.5 -565q-52 -363 -232.5 -560t-450.5 -197zM641 99q439 0 529 637q45 325 -44.5 485.5t-304.5 160.5
t-352 -162t-182 -484q-45 -319 46.5 -478t307.5 -159z" />
    <glyph glyph-name="uni020D" unicode="&#x20d;" horiz-adv-x="1087" 
d="M605 1481l146 -298h-100l-192 298h146zM338 1481l183 -298h-100l-230 298h147zM472 -20q-204 0 -303.5 139t-64.5 406q35 256 168 405t348 149q202 0 300 -142t62 -412q-34 -252 -165 -398.5t-345 -146.5zM488 87q147 0 245 113.5t127 327.5q27 203 -36 323t-219 120
q-151 0 -249.5 -113.5t-126.5 -329.5q-17 -132 2.5 -229t84.5 -154.5t172 -57.5z" />
    <glyph glyph-name="uni020E" unicode="&#x20e;" horiz-adv-x="1396" 
d="M865 1825q107 0 169 -61t72 -139h-111q-45 104 -142 104q-28 0 -53 -8.5t-40.5 -17.5t-33 -27t-23.5 -26t-18 -25h-108q31 83 107 141.5t181 58.5zM622 -20q-273 0 -398 196t-73 558q52 367 235 567t454 200q270 0 393.5 -199t71.5 -565q-52 -363 -232.5 -560
t-450.5 -197zM641 99q439 0 529 637q45 325 -44.5 485.5t-304.5 160.5t-352 -162t-182 -484q-45 -319 46.5 -478t307.5 -159z" />
    <glyph glyph-name="uni020F" unicode="&#x20f;" horiz-adv-x="1087" 
d="M620 1403q106 0 167.5 -61t72.5 -139h-110q-45 104 -144 104q-34 0 -62 -10t-49.5 -30.5t-31 -31t-24.5 -32.5h-108q31 84 107 142t182 58zM472 -20q-204 0 -303.5 139t-64.5 406q35 256 168 405t348 149q202 0 300 -142t62 -412q-34 -252 -165 -398.5t-345 -146.5z
M488 87q147 0 245 113.5t127 327.5q27 203 -36 323t-219 120q-151 0 -249.5 -113.5t-126.5 -329.5q-17 -132 2.5 -229t84.5 -154.5t172 -57.5z" />
    <glyph glyph-name="uni0210" unicode="&#x210;" horiz-adv-x="1300" 
d="M784 1903l147 -298h-101l-192 298h146zM518 1903l182 -298h-99l-230 298h147zM137 0l212 1481h507q212 0 310 -98.5t72 -284.5q-13 -88 -47.5 -158.5t-84 -117t-100 -75.5t-107.5 -47l179 -700h-132l-170 676h-420l-96 -676h-123zM372 792h326q183 0 286.5 71t124.5 221
q39 283 -276 283h-379z" />
    <glyph glyph-name="uni0211" unicode="&#x211;" horiz-adv-x="744" 
d="M447 1481l147 -298h-99l-193 298h145zM181 1481l184 -298h-101l-229 298h146zM97 0l150 1059h115l-24 -178q50 103 134 150.5t176 47.5q63 0 90 -17l-17 -126q-30 15 -91 15q-49 2 -97 -9.5t-93.5 -38.5t-78 -79t-42.5 -122l-98 -702h-124z" />
    <glyph glyph-name="uni0212" unicode="&#x212;" horiz-adv-x="1300" 
d="M803 1825q106 0 166 -61t70 -139h-110q-45 104 -142 104q-34 0 -62.5 -10t-50 -30t-32 -32t-24.5 -32h-109q33 83 110.5 141.5t183.5 58.5zM137 0l212 1481h507q212 0 310 -98.5t72 -284.5q-13 -88 -47.5 -158.5t-84 -117t-100 -75.5t-107.5 -47l179 -700h-132l-170 676
h-420l-96 -676h-123zM372 792h326q183 0 286.5 71t124.5 221q39 283 -276 283h-379z" />
    <glyph glyph-name="uni0213" unicode="&#x213;" horiz-adv-x="744" 
d="M462 1403q107 0 168.5 -61t71.5 -139h-110q-45 104 -142 104q-34 0 -62 -10t-49.5 -30.5t-31 -31t-24.5 -32.5h-110q31 83 107.5 141.5t181.5 58.5zM97 0l150 1059h115l-24 -178q50 103 134 150.5t176 47.5q63 0 90 -17l-17 -126q-30 15 -91 15q-49 2 -97 -9.5
t-93.5 -38.5t-78 -79t-42.5 -122l-98 -702h-124z" />
    <glyph glyph-name="uni0214" unicode="&#x214;" horiz-adv-x="1340" 
d="M843 1903l146 -298h-100l-193 298h147zM577 1903l182 -298h-100l-230 298h148zM612 -20q-248 0 -344 130.5t-58 397.5l137 973h129l-142 -1005q-27 -187 47.5 -283.5t247.5 -96.5q175 0 279 95.5t131 284.5l143 1005h122l-142 -999q-35 -251 -170.5 -376.5t-379.5 -125.5
z" />
    <glyph glyph-name="uni0215" unicode="&#x215;" horiz-adv-x="1122" 
d="M642 1481l146 -298h-100l-191 298h145zM376 1481l182 -298h-99l-231 298h148zM460 -20q-172 2 -264 96t-67 272l99 711h123l-99 -703q-18 -125 41.5 -196.5t195.5 -71.5q128 0 212.5 72t103.5 211l97 688h122l-148 -1059h-103l17 198q-41 -106 -128 -163t-202 -55z" />
    <glyph glyph-name="uni0216" unicode="&#x216;" horiz-adv-x="1340" 
d="M857 1825q107 0 169 -61t72 -139h-111q-45 104 -142 104q-28 0 -53 -8.5t-40.5 -17.5t-33 -27t-23.5 -26t-18 -25h-109q31 83 107.5 141.5t181.5 58.5zM612 -20q-248 0 -344 130.5t-58 397.5l137 973h129l-142 -1005q-27 -187 47.5 -283.5t247.5 -96.5q175 0 279 95.5
t131 284.5l143 1005h122l-142 -999q-35 -251 -170.5 -376.5t-379.5 -125.5z" />
    <glyph glyph-name="uni0217" unicode="&#x217;" horiz-adv-x="1122" 
d="M656 1403q107 0 169 -61t72 -139h-111q-45 104 -142 104q-34 0 -62.5 -10t-49.5 -30t-31 -32t-24 -32h-109q31 83 107 141.5t181 58.5zM460 -20q-172 2 -264 96t-67 272l99 711h123l-99 -703q-18 -125 41.5 -196.5t195.5 -71.5q128 0 212.5 72t103.5 211l97 688h122
l-148 -1059h-103l17 198q-41 -106 -128 -163t-202 -55z" />
    <glyph glyph-name="uni0218" unicode="&#x218;" horiz-adv-x="1301" 
d="M583 -20q-131 0 -235.5 44t-169.5 135t-66 217h132q10 -135 109 -209t245 -74q164 0 279.5 76.5t131.5 198.5q28 220 -208 284l-279 75q-312 82 -274 353q24 183 172 301t358 118q113 0 202 -36.5t140.5 -96t74.5 -133.5t13 -152h-131q3 81 -20.5 141t-69 94t-102 49.5
t-124.5 15.5q-62 0 -124 -18t-117 -52.5t-93 -91.5t-48 -129q-11 -91 40 -146.5t191 -95.5l269 -76q85 -22 143 -65.5t83 -96.5t34.5 -115.5t-2.5 -123.5q-22 -168 -169.5 -279.5t-384.5 -111.5zM412 -354l89 112l-50 2l19 139h147l-17 -117l-130 -136h-58z" />
    <glyph glyph-name="uni0219" unicode="&#x219;" horiz-adv-x="965" 
d="M426 -20q-164 0 -259.5 79t-91.5 235h118q5 -99 69 -154t178 -55q115 0 188 49t86 144q9 66 -19 106t-94 60l-213 63q-115 33 -170 97t-41 170q19 140 122 222.5t279 82.5q154 0 235 -74.5t67 -216.5h-116q2 87 -49.5 137t-152.5 50q-110 0 -181.5 -49.5t-84.5 -146.5
q-9 -63 28.5 -100.5t120.5 -61.5l209 -63q109 -32 149 -104.5t27 -164.5q-20 -142 -124.5 -223.5t-279.5 -81.5zM284 -354l88 112l-50 2l20 139h147l-17 -117l-130 -136h-58z" />
    <glyph glyph-name="uni021A" unicode="&#x21a;" horiz-adv-x="1122" 
d="M439 0l193 1359h-460l16 122h1011l-15 -122h-430l-193 -1359h-122zM360 -351l89 112l-51 2l20 140h148l-17 -118l-130 -136h-59z" />
    <glyph glyph-name="uni021B" unicode="&#x21b;" horiz-adv-x="735" 
d="M424 -2q-128 0 -169 58t-21 190l101 713h-161l15 100h161l70 302h96l-42 -302h225l-14 -100h-226l-100 -702q-13 -95 12.5 -123.5t105.5 -28.5h94l-13 -94q-38 -13 -134 -13zM224 -352l88 112l-50 3l20 139h148l-17 -117l-130 -137h-59z" />
    <glyph glyph-name="uni0237" unicode="&#x237;" horiz-adv-x="480" 
d="M-53 -340q-53 0 -81 3t-35 7t-6 11l13 86l110 3q71 3 105.5 38.5t46.5 121.5l161 1129h122l-162 -1138q-19 -138 -80 -199.5t-194 -61.5z" />
    <glyph glyph-name="uni0259" unicode="&#x259;" horiz-adv-x="1092" 
d="M602 1079q205 0 308.5 -143.5t67.5 -395.5q-36 -260 -173.5 -410t-346.5 -150q-200 0 -290 136.5t-55 380.5l8 63h733q17 115 -3.5 206t-87.5 148.5t-175 57.5q-109 0 -192.5 -55.5t-115.5 -151.5h-121q49 151 172.5 232.5t270.5 81.5zM840 460h-612q-16 -108 4 -191
t82 -133t160 -50q63 0 119 21.5t97 58t73 85t50.5 101.5t26.5 108z" />
    <glyph glyph-name="uni02BB" unicode="&#x2bb;" horiz-adv-x="396" 
d="M176 1058l25 166q14 104 85 175t135 56l-9 -62h-14q-34 -1 -66.5 -44t-39.5 -91l-2 -10l99 -3l-27 -187h-186z" />
    <glyph glyph-name="uni02BC" unicode="&#x2bc;" horiz-adv-x="438" 
d="M463 1458l-46 -166q-29 -104 -105 -175t-133 -56l18 61l12 1q32 1 68.5 43t49.5 91l3 11l-92 3l52 187h173z" />
    <glyph glyph-name="circumflex" unicode="&#x2c6;" horiz-adv-x="565" 
d="M97 1183l257 210h91l206 -210h-139l-122 127l-162 -127h-131z" />
    <glyph glyph-name="caron" unicode="&#x2c7;" horiz-adv-x="570" 
d="M332 1182l-205 211h133l128 -130l157 130h138l-258 -211h-93z" />
    <glyph glyph-name="breve" unicode="&#x2d8;" horiz-adv-x="558" 
d="M368 1183q-106 0 -166 58.5t-67 140.5h109q9 -21 15.5 -32.5t22.5 -31t41 -29.5t59 -10q97 0 172 103h111q-33 -78 -111.5 -138.5t-185.5 -60.5z" />
    <glyph glyph-name="dotaccent" unicode="&#x2d9;" horiz-adv-x="153" 
d="M115 1264l20 149h132l-21 -149h-131z" />
    <glyph glyph-name="ring" unicode="&#x2da;" horiz-adv-x="427" 
d="M304 1189q-79 0 -126 60t-34 148q10 81 75.5 139t144.5 58q80 0 126.5 -58t34.5 -143q-11 -87 -75.5 -145.5t-145.5 -58.5zM315 1276q43 0 79 35t44 81q6 50 -19.5 81.5t-70.5 31.5q-43 0 -79 -32t-43 -81q-7 -46 20 -81t69 -35z" />
    <glyph glyph-name="ogonek" unicode="&#x2db;" horiz-adv-x="392" 
d="M80 -338q-89 0 -128 43t-29 116q9 67 61.5 116t167.5 85l93 -17q-106 -46 -155 -86t-57 -93q-5 -41 15.5 -60.5t71.5 -19.5q77 0 142 34l-13 -80q-74 -38 -169 -38z" />
    <glyph glyph-name="tilde" unicode="&#x2dc;" horiz-adv-x="587" 
d="M159 1267l-17 80q40 35 75 52.5t81 17.5q44 0 114.5 -27t112.5 -27q35 0 62.5 12t64.5 37l17 -90q-76 -53 -159 -53q-50 0 -114 25.5t-103 25.5q-11 0 -22.5 -1.5t-19 -3t-18.5 -6t-16 -6.5t-16.5 -9t-13.5 -8t-14.5 -9.5t-13.5 -9.5z" />
    <glyph glyph-name="hungarumlaut" unicode="&#x2dd;" horiz-adv-x="538" 
d="M250 1481h145l-192 -298h-100zM516 1481h147l-230 -298h-100z" />
    <glyph glyph-name="gravecomb" unicode="&#x300;" 
d="M303 1481l236 -298h-105l-290 298h159z" />
    <glyph glyph-name="acutecomb" unicode="&#x301;" 
d="M339 1481h158l-290 -298h-105z" />
    <glyph glyph-name="uni0302" unicode="&#x302;" 
d="M97 1183l257 210h91l206 -210h-139l-122 127l-162 -127h-131z" />
    <glyph glyph-name="tildecomb" unicode="&#x303;" 
d="M159 1267l-17 80q40 35 75 52.5t81 17.5q44 0 114.5 -27t112.5 -27q35 0 62.5 12t64.5 37l17 -90q-76 -53 -159 -53q-50 0 -114 25.5t-103 25.5q-11 0 -22.5 -1.5t-19 -3t-18.5 -6t-16 -6.5t-16.5 -9t-13.5 -8t-14.5 -9.5t-13.5 -9.5z" />
    <glyph glyph-name="uni0304" unicode="&#x304;" 
d="M130 1282l14 101h516l-14 -101h-516z" />
    <glyph glyph-name="uni0306" unicode="&#x306;" 
d="M368 1183q-106 0 -166 58.5t-67 140.5h109q9 -21 15.5 -32.5t22.5 -31t41 -29.5t59 -10q97 0 172 103h111q-33 -78 -111.5 -138.5t-185.5 -60.5z" />
    <glyph glyph-name="uni0307" unicode="&#x307;" 
d="M115 1264l20 149h132l-21 -149h-131z" />
    <glyph glyph-name="uni0308" unicode="&#x308;" 
d="M399 1264l21 149h131l-21 -149h-131zM115 1264l20 149h132l-21 -149h-131z" />
    <glyph glyph-name="hookabovecomb" unicode="&#x309;" 
d="M759 1181l-35 71q48 31 71 70t9 73q-16 34 -57 33t-89 -31l-33 72q87 52 157 44.5t100 -68.5q33 -71 -1 -141t-122 -123z" />
    <glyph glyph-name="uni030A" unicode="&#x30a;" 
d="M304 1189q-79 0 -126 60t-34 148q10 81 75.5 139t144.5 58q80 0 126.5 -58t34.5 -143q-11 -87 -75.5 -145.5t-145.5 -58.5zM315 1276q43 0 79 35t44 81q6 50 -19.5 81.5t-70.5 31.5q-43 0 -79 -32t-43 -81q-7 -46 20 -81t69 -35z" />
    <glyph glyph-name="uni030B" unicode="&#x30b;" 
d="M250 1481h145l-192 -298h-100zM516 1481h147l-230 -298h-100z" />
    <glyph glyph-name="uni030C" unicode="&#x30c;" 
d="M332 1182l-205 211h133l128 -130l157 130h138l-258 -211h-93z" />
    <glyph glyph-name="uni030F" unicode="&#x30f;" 
d="M558 1481l147 -298h-101l-192 298h146zM292 1481l182 -298h-100l-230 298h148z" />
    <glyph glyph-name="uni0311" unicode="&#x311;" 
d="M387 1403q106 0 168 -61t73 -139h-111q-45 104 -143 104q-34 0 -62 -10t-49.5 -30.5t-31 -31t-24.5 -32.5h-109q30 83 106.5 141.5t182.5 58.5z" />
    <glyph glyph-name="uni031B" unicode="&#x31b;" 
d="M65 988l14 98q87 -2 124 33.5t58 154.5h118q-23 -163 -98.5 -232.5t-215.5 -53.5z" />
    <glyph glyph-name="dotbelowcomb" unicode="&#x323;" 
d="M-113 -345l22 149h131l-21 -149h-132z" />
    <glyph glyph-name="uni0326" unicode="&#x326;" 
d="M-127 -354l88 112l-50 2l19 139h149l-18 -117l-130 -136h-58z" />
    <glyph glyph-name="uni0327" unicode="&#x327;" 
d="M48 -414q-95 0 -154 49l34 67q44 -46 116 -46q106 0 118 81q7 46 -25.5 68.5t-107.5 24.5q-17 0 -9 11l93 169h77l-64 -125q83 -6 114 -47t24 -98q-10 -73 -72 -113.5t-144 -40.5z" />
    <glyph glyph-name="uni0328" unicode="&#x328;" 
d="M80 -338q-89 0 -128 43t-29 116q9 67 61.5 116t167.5 85l93 -17q-106 -46 -155 -86t-57 -93q-5 -41 15.5 -60.5t71.5 -19.5q77 0 142 34l-13 -80q-74 -38 -169 -38z" />
    <glyph glyph-name="pi" unicode="&#x3c0;" horiz-adv-x="1339" 
d="M211 0q53 185 90 435.5t40 503.5q2 20 -15 20h-198l5 100h1212l-7 -100h-252l-16 -959h-125l16 959h-499q-3 -273 -42.5 -539.5t-94.5 -419.5h-114z" />
    <glyph glyph-name="uni1E0C" unicode="&#x1e0c;" horiz-adv-x="1330" 
d="M140 0l207 1481h14t34.5 -0.5t48 -1t59.5 -0.5h63q346 -1 514.5 -129.5t168.5 -420.5q0 -150 -25 -280.5t-87 -252t-157 -207.5t-245 -137.5t-342 -51.5h-253zM286 119h114q192 0 333 59t224.5 168t123 251.5t39.5 321.5q0 125 -34.5 211.5t-104.5 137t-164 72.5t-225 22
h-131zM404 -345l21 149h131l-20 -149h-132z" />
    <glyph glyph-name="uni1E0D" unicode="&#x1e0d;" horiz-adv-x="1156" 
d="M450 -20q-195 0 -287.5 141t-57.5 413q33 253 157 399t326 146q61 0 113.5 -16t85.5 -38.5t58.5 -51.5t37.5 -52t18 -43l85 644h124l-201 -1522h-99l16 217q-11 -25 -25.5 -49.5t-46.5 -60.5t-70.5 -62.5t-100.5 -45.5t-133 -19zM479 86q172 0 259 107.5t119 351.5
q25 208 -34 317t-223 109q-144 0 -241 -106.5t-125 -319.5q-29 -216 33 -337.5t212 -121.5zM362 -345l21 149h131l-20 -149h-132z" />
    <glyph glyph-name="uni1E24" unicode="&#x1e24;" horiz-adv-x="1494" 
d="M138 0l208 1481h123l-92 -652h825l91 652h122l-208 -1481h-122l100 709h-825l-99 -709h-123zM564 -345l21 149h131l-21 -149h-131z" />
    <glyph glyph-name="uni1E25" unicode="&#x1e25;" horiz-adv-x="1126" 
d="M112 0l202 1522h118l-82 -617q50 75 140 123t205 48q148 0 236 -85t69 -218l-102 -773h-124l99 740q13 105 -45.5 165t-172.5 60q-126 0 -218 -62t-106 -178l-98 -725h-121zM406 -345l20 149h131l-20 -149h-131z" />
    <glyph glyph-name="uni1E44" unicode="&#x1e44;" horiz-adv-x="1443" 
d="M821 1686l21 149h131l-21 -149h-131zM137 0l212 1481h111l606 -1247l177 1247h123l-212 -1481h-107l-609 1251l-178 -1251h-123z" />
    <glyph glyph-name="uni1E45" unicode="&#x1e45;" horiz-adv-x="1110" 
d="M622 1264l20 149h131l-20 -149h-131zM98 0l151 1059h115l-19 -153q50 76 140 123.5t204 47.5q153 0 235 -100t55 -287l-98 -690h-122l97 682q20 135 -36 209t-169 74q-81 0 -149.5 -25t-117.5 -80.5t-60 -133.5l-105 -726h-121z" />
    <glyph glyph-name="uni1E5A" unicode="&#x1e5a;" horiz-adv-x="1300" 
d="M137 0l212 1481h507q212 0 310 -98.5t72 -284.5q-13 -88 -47.5 -158.5t-84 -117t-100 -75.5t-107.5 -47l179 -700h-132l-170 676h-420l-96 -676h-123zM372 792h326q183 0 286.5 71t124.5 221q39 283 -276 283h-379zM460 -345l20 149h131l-20 -149h-131z" />
    <glyph glyph-name="uni1E5B" unicode="&#x1e5b;" horiz-adv-x="744" 
d="M97 0l150 1059h115l-24 -178q50 103 134 150.5t176 47.5q63 0 90 -17l-17 -126q-30 15 -91 15q-49 2 -97 -9.5t-93.5 -38.5t-78 -79t-42.5 -122l-98 -702h-124zM36 -345l20 149h131l-20 -149h-131z" />
    <glyph glyph-name="uni1E62" unicode="&#x1e62;" horiz-adv-x="1301" 
d="M583 -20q-131 0 -235.5 44t-169.5 135t-66 217h132q10 -135 109 -209t245 -74q164 0 279.5 76.5t131.5 198.5q28 220 -208 284l-279 75q-312 82 -274 353q24 183 172 301t358 118q113 0 202 -36.5t140.5 -96t74.5 -133.5t13 -152h-131q3 81 -20.5 141t-69 94t-102 49.5
t-124.5 15.5q-62 0 -124 -18t-117 -52.5t-93 -91.5t-48 -129q-11 -91 40 -146.5t191 -95.5l269 -76q85 -22 143 -65.5t83 -96.5t34.5 -115.5t-2.5 -123.5q-22 -168 -169.5 -279.5t-384.5 -111.5zM444 -345l21 149h131l-21 -149h-131z" />
    <glyph glyph-name="uni1E63" unicode="&#x1e63;" horiz-adv-x="965" 
d="M426 -20q-164 0 -259.5 79t-91.5 235h118q5 -99 69 -154t178 -55q115 0 188 49t86 144q9 66 -19 106t-94 60l-213 63q-115 33 -170 97t-41 170q19 140 122 222.5t279 82.5q154 0 235 -74.5t67 -216.5h-116q2 87 -49.5 137t-152.5 50q-110 0 -181.5 -49.5t-84.5 -146.5
q-9 -63 28.5 -100.5t120.5 -61.5l209 -63q109 -32 149 -104.5t27 -164.5q-20 -142 -124.5 -223.5t-279.5 -81.5zM315 -345l21 149h132l-21 -149h-132z" />
    <glyph glyph-name="uni1E6C" unicode="&#x1e6c;" horiz-adv-x="1122" 
d="M439 0l193 1359h-460l16 122h1011l-15 -122h-430l-193 -1359h-122zM392 -342l21 149h132l-21 -149h-132z" />
    <glyph glyph-name="uni1E6D" unicode="&#x1e6d;" horiz-adv-x="735" 
d="M424 -2q-128 0 -169 58t-21 190l101 713h-161l15 100h161l70 302h96l-42 -302h225l-14 -100h-226l-100 -702q-13 -95 12.5 -123.5t105.5 -28.5h94l-13 -94q-38 -13 -134 -13zM256 -342l20 148h133l-21 -148h-132z" />
    <glyph glyph-name="Wgrave" unicode="&#x1e80;" horiz-adv-x="1816" 
d="M876 1903l236 -298h-104l-290 298h158zM370 0l-181 1481h129l148 -1293l522 1293h104l155 -1293l522 1293h126l-610 -1481h-130l-149 1249l-508 -1249h-128z" />
    <glyph glyph-name="wgrave" unicode="&#x1e81;" horiz-adv-x="1505" 
d="M670 1481l236 -298h-104l-290 298h158zM296 0l-145 1059h118l118 -902h20l372 902h99l129 -899h19l362 899h117l-435 -1059h-146l-125 860l-353 -860h-150z" />
    <glyph glyph-name="Wacute" unicode="&#x1e82;" horiz-adv-x="1816" 
d="M1239 1903h158l-290 -298h-105zM370 0l-181 1481h129l148 -1293l522 1293h104l155 -1293l522 1293h126l-610 -1481h-130l-149 1249l-508 -1249h-128z" />
    <glyph glyph-name="wacute" unicode="&#x1e83;" horiz-adv-x="1505" 
d="M1032 1481h159l-291 -298h-104zM296 0l-145 1059h118l118 -902h20l372 902h99l129 -899h19l362 899h117l-435 -1059h-146l-125 860l-353 -860h-150z" />
    <glyph glyph-name="Wdieresis" unicode="&#x1e84;" horiz-adv-x="1816" 
d="M1152 1686l20 149h132l-21 -149h-131zM867 1686l21 149h132l-21 -149h-132zM370 0l-181 1481h129l148 -1293l522 1293h104l155 -1293l522 1293h126l-610 -1481h-130l-149 1249l-508 -1249h-128z" />
    <glyph glyph-name="wdieresis" unicode="&#x1e85;" horiz-adv-x="1505" 
d="M945 1264l21 149h132l-21 -149h-132zM662 1264l20 149h131l-20 -149h-131zM296 0l-145 1059h118l118 -902h20l372 902h99l129 -899h19l362 899h117l-435 -1059h-146l-125 860l-353 -860h-150z" />
    <glyph glyph-name="uni1E92" unicode="&#x1e92;" horiz-adv-x="1203" 
d="M67 0l13 81l966 1283h-760l16 117h929l-11 -78l-973 -1285h788l-18 -118h-950zM450 -345l20 149h131l-20 -149h-131z" />
    <glyph glyph-name="uni1E93" unicode="&#x1e93;" horiz-adv-x="919" 
d="M13 0l12 91l719 867h-555l15 101h698l-12 -91l-718 -868h601l-14 -100h-746zM260 -345l22 149h131l-21 -149h-132z" />
    <glyph glyph-name="uni1EA0" unicode="&#x1ea0;" horiz-adv-x="1361" 
d="M30 0l712 1481h150l290 -1481h-127l-85 440h-600l-213 -440h-127zM423 566h528l-150 785zM493 -345l20 149h132l-21 -149h-131z" />
    <glyph glyph-name="uni1EA1" unicode="&#x1ea1;" horiz-adv-x="1101" 
d="M359 -20q-147 0 -222.5 79.5t-56.5 218.5q25 178 147.5 261.5t372.5 90.5l204 7l14 93q16 115 -45 180t-178 65q-100 -1 -179.5 -55t-109.5 -151h-116q27 130 142 220t283 90q172 0 258.5 -92.5t63.5 -251.5l-104 -735h-107l19 200q-136 -220 -386 -220zM403 82
q74 0 154.5 37.5t138 99.5t66.5 125l28 197l-169 -4q-206 -4 -302 -61.5t-116 -186.5q-12 -97 42.5 -152t157.5 -55zM347 -345l21 149h131l-21 -149h-131z" />
    <glyph glyph-name="uni1EA2" unicode="&#x1ea2;" horiz-adv-x="1361" 
d="M886 1580l-34 72q48 31 71 69.5t9 72.5q-16 34 -57 33t-89 -31l-33 73q87 52 157 44t100 -69q33 -71 -1 -141t-123 -123zM30 0l712 1481h150l290 -1481h-127l-85 440h-600l-213 -440h-127zM423 566h528l-150 785z" />
    <glyph glyph-name="uni1EA3" unicode="&#x1ea3;" horiz-adv-x="1101" 
d="M685 1158l-34 73q48 30 71 68.5t9 72.5q-17 35 -57 34t-88 -32l-34 74q86 52 156.5 44t99.5 -69q34 -71 0 -141t-123 -124zM359 -20q-147 0 -222.5 79.5t-56.5 218.5q25 178 147.5 261.5t372.5 90.5l204 7l14 93q16 115 -45 180t-178 65q-100 -1 -179.5 -55t-109.5 -151
h-116q27 130 142 220t283 90q172 0 258.5 -92.5t63.5 -251.5l-104 -735h-107l19 200q-136 -220 -386 -220zM403 82q74 0 154.5 37.5t138 99.5t66.5 125l28 197l-169 -4q-206 -4 -302 -61.5t-116 -186.5q-12 -97 42.5 -152t157.5 -55z" />
    <glyph glyph-name="uni1EA4" unicode="&#x1ea4;" horiz-adv-x="1361" 
d="M1139 2006h147l-171 -217h-94zM567 1605l257 210h91l206 -210h-140l-121 127l-162 -127h-131zM30 0l712 1481h150l290 -1481h-127l-85 440h-600l-213 -440h-127zM423 566h528l-150 785z" />
    <glyph glyph-name="uni1EA5" unicode="&#x1ea5;" horiz-adv-x="1073" 
d="M940 1584h147l-169 -217h-95zM370 1183l257 210h91l206 -210h-141l-121 127l-161 -127h-131zM359 -20q-147 0 -222.5 79.5t-56.5 218.5q25 178 147.5 261.5t372.5 90.5l204 7l14 93q16 115 -45 180t-178 65q-100 -1 -179.5 -55t-109.5 -151h-116q27 130 142 220t283 90
q172 0 258.5 -92.5t63.5 -251.5l-104 -735h-107l19 200q-136 -220 -386 -220zM403 82q74 0 154.5 37.5t138 99.5t66.5 125l28 197l-169 -4q-206 -4 -302 -61.5t-116 -186.5q-12 -97 42.5 -152t157.5 -55z" />
    <glyph glyph-name="uni1EA6" unicode="&#x1ea6;" horiz-adv-x="1361" 
d="M1079 2003l90 -217h-92l-141 217h143zM562 1605l257 210h91l206 -210h-140l-122 127l-161 -127h-131zM30 0l712 1481h150l290 -1481h-127l-85 440h-600l-213 -440h-127zM423 566h528l-150 785z" />
    <glyph glyph-name="uni1EA7" unicode="&#x1ea7;" horiz-adv-x="1096" 
d="M878 1581l90 -217h-92l-142 217h144zM360 1183l257 210h92l205 -210h-140l-122 127l-160 -127h-132zM359 -20q-147 0 -222.5 79.5t-56.5 218.5q25 178 147.5 261.5t372.5 90.5l204 7l14 93q16 115 -45 180t-178 65q-100 -1 -179.5 -55t-109.5 -151h-116q27 130 142 220
t283 90q172 0 258.5 -92.5t63.5 -251.5l-104 -735h-107l19 200q-136 -220 -386 -220zM403 82q74 0 154.5 37.5t138 99.5t66.5 125l28 197l-169 -4q-206 -4 -302 -61.5t-116 -186.5q-12 -97 42.5 -152t157.5 -55z" />
    <glyph glyph-name="uni1EA8" unicode="&#x1ea8;" horiz-adv-x="1361" 
d="M1031 1718l-34 72q48 31 71 69.5t9 72.5q-17 34 -57.5 33t-87.5 -31l-34 73q86 52 156.5 44t99.5 -69q34 -71 0 -141t-123 -123zM545 1605l257 210h91l206 -210h-141l-121 127l-161 -127h-131zM30 0l712 1481h150l290 -1481h-127l-85 440h-600l-213 -440h-127zM423 566
h528l-150 785z" />
    <glyph glyph-name="uni1EA9" unicode="&#x1ea9;" horiz-adv-x="1100" 
d="M834 1296l-34 72q48 31 70.5 69.5t8.5 72.5q-16 34 -57 33t-88 -31l-34 73q86 52 156.5 44.5t99.5 -68.5q34 -71 0 -141.5t-122 -123.5zM347 1183l257 210h90l207 -210h-140l-122 127l-161 -127h-131zM359 -20q-147 0 -222.5 79.5t-56.5 218.5q25 178 147.5 261.5
t372.5 90.5l204 7l14 93q16 115 -45 180t-178 65q-100 -1 -179.5 -55t-109.5 -151h-116q27 130 142 220t283 90q172 0 258.5 -92.5t63.5 -251.5l-104 -735h-107l19 200q-136 -220 -386 -220zM403 82q74 0 154.5 37.5t138 99.5t66.5 125l28 197l-169 -4q-206 -4 -302 -61.5
t-116 -186.5q-12 -97 42.5 -152t157.5 -55z" />
    <glyph glyph-name="uni1EAA" unicode="&#x1eaa;" horiz-adv-x="1361" 
d="M640 1930l-16 80q40 35 74.5 52.5t80.5 17.5q44 0 115 -27t113 -27q36 0 63.5 12t63.5 38l16 -91q-77 -53 -159 -53q-50 0 -114 25.5t-103 25.5q-13 0 -24.5 -1.5t-23 -5t-19.5 -6.5t-18.5 -9.5t-16 -9.5t-17 -10.5t-15.5 -10.5zM564 1605l256 210h91l207 -210h-140
l-122 127l-161 -127h-131zM30 0l712 1481h150l290 -1481h-127l-85 440h-600l-213 -440h-127zM423 566h528l-150 785z" />
    <glyph glyph-name="uni1EAB" unicode="&#x1eab;" horiz-adv-x="1101" 
d="M438 1508l-16 80q40 35 75 52.5t81 17.5q44 0 114.5 -26.5t112.5 -26.5q58 0 127 49l16 -91q-80 -53 -158 -53q-50 0 -114.5 26t-103.5 26q-15 0 -29.5 -2.5t-24 -5.5t-23 -10t-19.5 -11t-20 -13t-18 -12zM362 1183l256 210h92l206 -210h-140l-122 127l-160 -127h-132z
M359 -20q-147 0 -222.5 79.5t-56.5 218.5q25 178 147.5 261.5t372.5 90.5l204 7l14 93q16 115 -45 180t-178 65q-100 -1 -179.5 -55t-109.5 -151h-116q27 130 142 220t283 90q172 0 258.5 -92.5t63.5 -251.5l-104 -735h-107l19 200q-136 -220 -386 -220zM403 82
q74 0 154.5 37.5t138 99.5t66.5 125l28 197l-169 -4q-206 -4 -302 -61.5t-116 -186.5q-12 -97 42.5 -152t157.5 -55z" />
    <glyph glyph-name="uni1EAC" unicode="&#x1eac;" horiz-adv-x="1361" 
d="M558 1605l256 210h91l207 -210h-140l-122 127l-161 -127h-131zM30 0l712 1481h150l290 -1481h-127l-85 440h-600l-213 -440h-127zM423 566h528l-150 785zM493 -345l20 149h132l-21 -149h-131z" />
    <glyph glyph-name="uni1EAD" unicode="&#x1ead;" horiz-adv-x="1101" 
d="M357 1183l256 210h92l206 -210h-140l-122 127l-161 -127h-131zM359 -20q-147 0 -222.5 79.5t-56.5 218.5q25 178 147.5 261.5t372.5 90.5l204 7l14 93q16 115 -45 180t-178 65q-100 -1 -179.5 -55t-109.5 -151h-116q27 130 142 220t283 90q172 0 258.5 -92.5t63.5 -251.5
l-104 -735h-107l19 200q-136 -220 -386 -220zM403 82q74 0 154.5 37.5t138 99.5t66.5 125l28 197l-169 -4q-206 -4 -302 -61.5t-116 -186.5q-12 -97 42.5 -152t157.5 -55zM347 -345l21 149h131l-21 -149h-131z" />
    <glyph glyph-name="uni1EAE" unicode="&#x1eae;" horiz-adv-x="1361" 
d="M955 2046h148l-170 -217h-95zM861 1605q-106 0 -165.5 58t-66.5 141h108q8 -19 15 -32t22.5 -32t41.5 -29t60 -10q97 0 172 103h110q-33 -78 -112 -138.5t-185 -60.5zM30 0l712 1481h150l290 -1481h-127l-85 440h-600l-213 -440h-127zM423 566h528l-150 785z" />
    <glyph glyph-name="uni1EAF" unicode="&#x1eaf;" horiz-adv-x="1101" 
d="M755 1624h147l-170 -217h-94zM660 1183q-106 0 -165.5 58t-66.5 141h109q8 -20 14.5 -32t22.5 -31.5t41.5 -29.5t59.5 -10q97 0 172 103h110q-33 -78 -112 -138.5t-185 -60.5zM359 -20q-147 0 -222.5 79.5t-56.5 218.5q25 178 147.5 261.5t372.5 90.5l204 7l14 93
q16 115 -45 180t-178 65q-100 -1 -179.5 -55t-109.5 -151h-116q27 130 142 220t283 90q172 0 258.5 -92.5t63.5 -251.5l-104 -735h-107l19 200q-136 -220 -386 -220zM403 82q74 0 154.5 37.5t138 99.5t66.5 125l28 197l-169 -4q-206 -4 -302 -61.5t-116 -186.5
q-12 -97 42.5 -152t157.5 -55z" />
    <glyph glyph-name="uni1EB0" unicode="&#x1eb0;" horiz-adv-x="1361" 
d="M854 2048l89 -217h-91l-142 217h144zM856 1605q-106 0 -165.5 58t-67.5 141h109q8 -20 14.5 -32t22.5 -31.5t41.5 -29.5t59.5 -10q97 0 172 103h111q-33 -78 -112 -138.5t-185 -60.5zM30 0l712 1481h150l290 -1481h-127l-85 440h-600l-213 -440h-127zM423 566h528
l-150 785z" />
    <glyph glyph-name="uni1EB1" unicode="&#x1eb1;" horiz-adv-x="1101" 
d="M653 1626l89 -217h-91l-142 217h144zM655 1183q-106 0 -165.5 58t-67.5 141h109q8 -19 15 -32t22.5 -32t41.5 -29t60 -10q97 0 172 103h110q-33 -78 -112 -138.5t-185 -60.5zM359 -20q-147 0 -222.5 79.5t-56.5 218.5q25 178 147.5 261.5t372.5 90.5l204 7l14 93
q16 115 -45 180t-178 65q-100 -1 -179.5 -55t-109.5 -151h-116q27 130 142 220t283 90q172 0 258.5 -92.5t63.5 -251.5l-104 -735h-107l19 200q-136 -220 -386 -220zM403 82q74 0 154.5 37.5t138 99.5t66.5 125l28 197l-169 -4q-206 -4 -302 -61.5t-116 -186.5
q-12 -97 42.5 -152t157.5 -55z" />
    <glyph glyph-name="uni1EB2" unicode="&#x1eb2;" horiz-adv-x="1361" 
d="M843 1773l-34 71q48 31 70.5 70t8.5 73q-16 34 -57 33t-88 -31l-33 72q86 52 156.5 44.5t99.5 -68.5q34 -71 -0.5 -141t-122.5 -123zM820 1605q-106 0 -165.5 58t-66.5 141h108q8 -19 15 -32t22.5 -32t41.5 -29t60 -10q97 0 172 103h110q-33 -78 -112 -138.5t-185 -60.5z
M30 0l712 1481h150l290 -1481h-127l-85 440h-600l-213 -440h-127zM423 566h528l-150 785z" />
    <glyph glyph-name="uni1EB3" unicode="&#x1eb3;" horiz-adv-x="1101" 
d="M648 1351l-34 71q48 31 70.5 70t8.5 73q-16 34 -56.5 33t-87.5 -31l-34 72q86 52 156.5 44.5t99.5 -68.5q34 -71 -0.5 -141t-122.5 -123zM626 1183q-106 0 -166 58t-67 141h109q8 -20 14.5 -32t22.5 -31.5t41.5 -29.5t59.5 -10q97 0 172 103h111q-33 -78 -112 -138.5
t-185 -60.5zM359 -20q-147 0 -222.5 79.5t-56.5 218.5q25 178 147.5 261.5t372.5 90.5l204 7l14 93q16 115 -45 180t-178 65q-100 -1 -179.5 -55t-109.5 -151h-116q27 130 142 220t283 90q172 0 258.5 -92.5t63.5 -251.5l-104 -735h-107l19 200q-136 -220 -386 -220zM403 82
q74 0 154.5 37.5t138 99.5t66.5 125l28 197l-169 -4q-206 -4 -302 -61.5t-116 -186.5q-12 -97 42.5 -152t157.5 -55z" />
    <glyph glyph-name="uni1EB4" unicode="&#x1eb4;" horiz-adv-x="1361" 
d="M637 1937l-17 80q40 35 75 52.5t81 17.5q43 0 114 -26.5t112 -26.5q58 0 127 49l18 -91q-76 -53 -159 -53q-51 0 -115 25.5t-102 25.5q-15 0 -29.5 -2.5t-24.5 -5.5t-23.5 -10t-19 -10t-20 -13t-17.5 -12zM853 1605q-105 0 -165 58t-67 141h108q9 -21 15.5 -32.5
t22.5 -31t41 -29.5t59 -10q97 0 172 103h111q-33 -78 -111.5 -138.5t-185.5 -60.5zM30 0l712 1481h150l290 -1481h-127l-85 440h-600l-213 -440h-127zM423 566h528l-150 785z" />
    <glyph glyph-name="uni1EB5" unicode="&#x1eb5;" horiz-adv-x="1101" 
d="M431 1516l-16 79q40 35 74.5 52.5t80.5 17.5q44 0 115 -26.5t113 -26.5q58 0 126 49l17 -91q-75 -52 -159 -52q-50 0 -114 25t-103 25q-13 0 -24.5 -1.5t-23 -5t-19 -6t-19.5 -9.5t-16 -9t-17 -11t-15 -10zM648 1183q-106 0 -165.5 58t-67.5 141h109q8 -19 15 -32
t22.5 -32t41.5 -29t60 -10q96 0 171 103h110q-33 -78 -111.5 -138.5t-184.5 -60.5zM359 -20q-147 0 -222.5 79.5t-56.5 218.5q25 178 147.5 261.5t372.5 90.5l204 7l14 93q16 115 -45 180t-178 65q-100 -1 -179.5 -55t-109.5 -151h-116q27 130 142 220t283 90
q172 0 258.5 -92.5t63.5 -251.5l-104 -735h-107l19 200q-136 -220 -386 -220zM403 82q74 0 154.5 37.5t138 99.5t66.5 125l28 197l-169 -4q-206 -4 -302 -61.5t-116 -186.5q-12 -97 42.5 -152t157.5 -55z" />
    <glyph glyph-name="uni1EB6" unicode="&#x1eb6;" horiz-adv-x="1361" 
d="M830 1605q-105 0 -165 58t-67 141h109q9 -21 15.5 -32.5t22.5 -31t41 -29.5t59 -10q97 0 172 103h110q-33 -78 -111.5 -138.5t-185.5 -60.5zM30 0l712 1481h150l290 -1481h-127l-85 440h-600l-213 -440h-127zM423 566h528l-150 785zM493 -345l20 149h132l-21 -149h-131z
" />
    <glyph glyph-name="uni1EB7" unicode="&#x1eb7;" horiz-adv-x="1061" 
d="M628 1180q-106 0 -166 58t-67 141h109q9 -21 15.5 -32.5t22.5 -31t41.5 -29.5t59.5 -10q96 0 171 103h111q-33 -78 -111.5 -138.5t-185.5 -60.5zM359 -20q-147 0 -222.5 79.5t-56.5 218.5q25 178 147.5 261.5t372.5 90.5l204 7l14 93q16 115 -45 180t-178 65
q-100 -1 -179.5 -55t-109.5 -151h-116q27 130 142 220t283 90q172 0 258.5 -92.5t63.5 -251.5l-104 -735h-107l19 200q-136 -220 -386 -220zM403 82q74 0 154.5 37.5t138 99.5t66.5 125l28 197l-169 -4q-206 -4 -302 -61.5t-116 -186.5q-12 -97 42.5 -152t157.5 -55z
M347 -345l21 149h131l-21 -149h-131z" />
    <glyph glyph-name="uni1EB8" unicode="&#x1eb8;" horiz-adv-x="1201" 
d="M137 0l212 1481h828l-18 -119h-705l-79 -554h646l-15 -120h-648l-80 -565l729 -2l-19 -121h-851zM457 -345l20 149h132l-20 -149h-132z" />
    <glyph glyph-name="uni1EB9" unicode="&#x1eb9;" horiz-adv-x="1092" 
d="M490 -20q-205 0 -308 143t-67 396q36 260 173.5 410t346.5 150q199 0 289.5 -136.5t55.5 -380.5l-8 -62h-734q-15 -84 -3.5 -159t41 -131.5t89 -89.5t140.5 -33q108 0 191.5 55t116.5 152h120q-49 -151 -173 -232.5t-270 -81.5zM253 599h611q24 167 -38 270.5t-208 103.5
q-78 0 -144.5 -32.5t-111 -87t-72 -119.5t-37.5 -135zM376 -345l20 149h132l-21 -149h-131z" />
    <glyph glyph-name="uni1EBA" unicode="&#x1eba;" horiz-adv-x="1201" 
d="M813 1580l-35 72q48 31 71 69.5t9 72.5q-16 34 -56.5 33t-88.5 -31l-34 73q87 52 157 44t100 -69q33 -71 -1 -141t-122 -123zM137 0l212 1481h828l-18 -119h-705l-79 -554h646l-15 -120h-648l-80 -565l729 -2l-19 -121h-851z" />
    <glyph glyph-name="uni1EBB" unicode="&#x1ebb;" horiz-adv-x="1092" 
d="M701 1158l-33 72q48 31 71 69.5t9 72.5q-17 34 -58 33t-88 -31l-34 73q86 52 156.5 44t99.5 -69q34 -71 0 -141t-123 -123zM490 -20q-205 0 -308 143t-67 396q36 260 173.5 410t346.5 150q199 0 289.5 -136.5t55.5 -380.5l-8 -62h-734q-15 -84 -3.5 -159t41 -131.5
t89 -89.5t140.5 -33q108 0 191.5 55t116.5 152h120q-49 -151 -173 -232.5t-270 -81.5zM253 599h611q24 167 -38 270.5t-208 103.5q-78 0 -144.5 -32.5t-111 -87t-72 -119.5t-37.5 -135z" />
    <glyph glyph-name="uni1EBC" unicode="&#x1ebc;" horiz-adv-x="1201" 
d="M539 1689l-17 79q41 35 75.5 53t80.5 18q43 0 114 -27t113 -27q56 0 126 49l18 -90q-76 -53 -159 -53q-51 0 -115 25.5t-102 25.5q-11 0 -22.5 -1.5t-19 -3t-18.5 -6t-16 -6.5t-16.5 -9t-13.5 -8t-14.5 -9.5t-13.5 -9.5zM137 0l212 1481h828l-18 -119h-705l-79 -554h646
l-15 -120h-648l-80 -565l729 -2l-19 -121h-851z" />
    <glyph glyph-name="uni1EBD" unicode="&#x1ebd;" horiz-adv-x="1092" 
d="M427 1267l-16 80q40 35 74.5 52.5t80.5 17.5q44 0 115 -27t113 -27q56 0 126 49l17 -90q-76 -53 -159 -53q-50 0 -114 25.5t-103 25.5q-11 0 -22.5 -1.5t-19 -3t-18.5 -6t-16 -6.5t-16.5 -9t-13.5 -8t-14.5 -9.5t-13.5 -9.5zM490 -20q-205 0 -308 143t-67 396
q36 260 173.5 410t346.5 150q199 0 289.5 -136.5t55.5 -380.5l-8 -62h-734q-15 -84 -3.5 -159t41 -131.5t89 -89.5t140.5 -33q108 0 191.5 55t116.5 152h120q-49 -151 -173 -232.5t-270 -81.5zM253 599h611q24 167 -38 270.5t-208 103.5q-78 0 -144.5 -32.5t-111 -87
t-72 -119.5t-37.5 -135z" />
    <glyph glyph-name="uni1EBE" unicode="&#x1ebe;" horiz-adv-x="1201" 
d="M1065 2006h147l-171 -217h-94zM494 1605l257 210h91l206 -210h-140l-122 127l-161 -127h-131zM137 0l212 1481h828l-18 -119h-705l-79 -554h646l-15 -120h-648l-80 -565l729 -2l-19 -121h-851z" />
    <glyph glyph-name="uni1EBF" unicode="&#x1ebf;" horiz-adv-x="1092" 
d="M953 1584h148l-171 -217h-94zM383 1183l256 210h91l207 -210h-140l-122 127l-161 -127h-131zM490 -20q-205 0 -308 143t-67 396q36 260 173.5 410t346.5 150q199 0 289.5 -136.5t55.5 -380.5l-8 -62h-734q-15 -84 -3.5 -159t41 -131.5t89 -89.5t140.5 -33q108 0 191.5 55
t116.5 152h120q-49 -151 -173 -232.5t-270 -81.5zM253 599h611q24 167 -38 270.5t-208 103.5q-78 0 -144.5 -32.5t-111 -87t-72 -119.5t-37.5 -135z" />
    <glyph glyph-name="uni1EC0" unicode="&#x1ec0;" horiz-adv-x="1201" 
d="M1006 2003l90 -217h-92l-142 217h144zM488 1605l257 210h92l205 -210h-140l-121 127l-161 -127h-132zM137 0l212 1481h828l-18 -119h-705l-79 -554h646l-15 -120h-648l-80 -565l729 -2l-19 -121h-851z" />
    <glyph glyph-name="uni1EC1" unicode="&#x1ec1;" horiz-adv-x="1085" 
d="M891 1581l89 -217h-91l-141 217h143zM374 1183l256 210h91l207 -210h-141l-121 127l-161 -127h-131zM490 -20q-205 0 -308 143t-67 396q36 260 173.5 410t346.5 150q199 0 289.5 -136.5t55.5 -380.5l-8 -62h-734q-15 -84 -3.5 -159t41 -131.5t89 -89.5t140.5 -33
q108 0 191.5 55t116.5 152h120q-49 -151 -173 -232.5t-270 -81.5zM253 599h611q24 167 -38 270.5t-208 103.5q-78 0 -144.5 -32.5t-111 -87t-72 -119.5t-37.5 -135z" />
    <glyph glyph-name="uni1EC2" unicode="&#x1ec2;" horiz-adv-x="1201" 
d="M957 1718l-33 72q48 31 71 69.5t9 72.5q-17 34 -58 33t-88 -31l-34 73q86 52 156.5 44t99.5 -69q34 -71 0 -141t-123 -123zM471 1605l257 210h91l206 -210h-140l-121 127l-162 -127h-131zM137 0l212 1481h828l-18 -119h-705l-79 -554h646l-15 -120h-648l-80 -565l729 -2
l-19 -121h-851z" />
    <glyph glyph-name="uni1EC3" unicode="&#x1ec3;" horiz-adv-x="1092" 
d="M846 1296l-34 72q48 31 71 69.5t9 72.5q-16 34 -57 33t-89 -31l-33 73q86 52 156.5 44.5t99.5 -68.5q34 -71 0 -141.5t-123 -123.5zM360 1183l256 210h92l206 -210h-140l-122 127l-160 -127h-132zM490 -20q-205 0 -308 143t-67 396q36 260 173.5 410t346.5 150
q199 0 289.5 -136.5t55.5 -380.5l-8 -62h-734q-15 -84 -3.5 -159t41 -131.5t89 -89.5t140.5 -33q108 0 191.5 55t116.5 152h120q-49 -151 -173 -232.5t-270 -81.5zM253 599h611q24 167 -38 270.5t-208 103.5q-78 0 -144.5 -32.5t-111 -87t-72 -119.5t-37.5 -135z" />
    <glyph glyph-name="uni1EC4" unicode="&#x1ec4;" horiz-adv-x="1201" 
d="M566 1930l-16 80q40 35 75 52.5t81 17.5q44 0 114.5 -27t112.5 -27q36 0 63.5 12t63.5 38l17 -91q-79 -53 -158 -53q-51 0 -115.5 25.5t-103.5 25.5q-13 0 -24.5 -1.5t-23 -5t-19.5 -6.5t-18.5 -9.5t-16 -9.5t-17 -10.5t-15.5 -10.5zM490 1605l256 210h92l206 -210h-140
l-122 127l-160 -127h-132zM137 0l212 1481h828l-18 -119h-705l-79 -554h646l-15 -120h-648l-80 -565l729 -2l-19 -121h-851z" />
    <glyph glyph-name="uni1EC5" unicode="&#x1ec5;" horiz-adv-x="1092" 
d="M456 1508l-17 80q40 35 75 52.5t81 17.5q43 0 114 -26.5t113 -26.5q58 0 126 49l18 -91q-80 -53 -159 -53q-51 0 -115 26t-102 26q-15 0 -29.5 -2.5t-24.5 -5.5t-23 -10t-19.5 -11t-19.5 -13t-18 -12zM379 1183l257 210h91l206 -210h-140l-121 127l-162 -127h-131z
M490 -20q-205 0 -308 143t-67 396q36 260 173.5 410t346.5 150q199 0 289.5 -136.5t55.5 -380.5l-8 -62h-734q-15 -84 -3.5 -159t41 -131.5t89 -89.5t140.5 -33q108 0 191.5 55t116.5 152h120q-49 -151 -173 -232.5t-270 -81.5zM253 599h611q24 167 -38 270.5t-208 103.5
q-78 0 -144.5 -32.5t-111 -87t-72 -119.5t-37.5 -135z" />
    <glyph glyph-name="uni1EC6" unicode="&#x1ec6;" horiz-adv-x="1201" 
d="M484 1605l256 210h91l207 -210h-140l-122 127l-161 -127h-131zM137 0l212 1481h828l-18 -119h-705l-79 -554h646l-15 -120h-648l-80 -565l729 -2l-19 -121h-851zM457 -345l20 149h132l-20 -149h-132z" />
    <glyph glyph-name="uni1EC7" unicode="&#x1ec7;" horiz-adv-x="1092" 
d="M373 1183l257 210h90l207 -210h-141l-121 127l-161 -127h-131zM490 -20q-205 0 -308 143t-67 396q36 260 173.5 410t346.5 150q199 0 289.5 -136.5t55.5 -380.5l-8 -62h-734q-15 -84 -3.5 -159t41 -131.5t89 -89.5t140.5 -33q108 0 191.5 55t116.5 152h120
q-49 -151 -173 -232.5t-270 -81.5zM253 599h611q24 167 -38 270.5t-208 103.5q-78 0 -144.5 -32.5t-111 -87t-72 -119.5t-37.5 -135zM376 -345l20 149h132l-21 -149h-131z" />
    <glyph glyph-name="uni1EC8" unicode="&#x1ec8;" horiz-adv-x="550" 
d="M480 1580l-34 72q48 31 71 69.5t9 72.5q-16 34 -56.5 33t-88.5 -31l-34 73q87 52 157 44t100 -69q33 -71 -1 -141t-123 -123zM139 0l210 1481h122l-209 -1481h-123z" />
    <glyph glyph-name="uni1EC9" unicode="&#x1ec9;" horiz-adv-x="466" 
d="M380 1158l-35 72q48 31 71 69.5t9 72.5q-16 34 -56.5 33t-88.5 -31l-34 73q87 52 157.5 44t99.5 -69q33 -71 -1 -141t-122 -123zM98 0l151 1059h123l-152 -1059h-122z" />
    <glyph glyph-name="uni1ECA" unicode="&#x1eca;" horiz-adv-x="550" 
d="M139 0l210 1481h122l-209 -1481h-123zM91 -345l22 149h131l-21 -149h-132z" />
    <glyph glyph-name="uni1ECB" unicode="&#x1ecb;" horiz-adv-x="480" 
d="M284 1324l21 155h133l-21 -155h-133zM104 0l150 1059h120l-149 -1059h-121zM52 -345l21 149h131l-21 -149h-131z" />
    <glyph glyph-name="uni1ECC" unicode="&#x1ecc;" horiz-adv-x="1396" 
d="M622 -20q-273 0 -398 196t-73 558q52 367 235 567t454 200q270 0 393.5 -199t71.5 -565q-52 -363 -232.5 -560t-450.5 -197zM641 99q439 0 529 637q45 325 -44.5 485.5t-304.5 160.5t-352 -162t-182 -484q-45 -319 46.5 -478t307.5 -159zM514 -345l21 149h132l-22 -149
h-131z" />
    <glyph glyph-name="uni1ECD" unicode="&#x1ecd;" horiz-adv-x="1087" 
d="M472 -20q-204 0 -303.5 139t-64.5 406q35 256 168 405t348 149q202 0 300 -142t62 -412q-34 -252 -165 -398.5t-345 -146.5zM488 87q147 0 245 113.5t127 327.5q27 203 -36 323t-219 120q-151 0 -249.5 -113.5t-126.5 -329.5q-17 -132 2.5 -229t84.5 -154.5t172 -57.5z
M334 -345l20 149h131l-20 -149h-131z" />
    <glyph glyph-name="uni1ECE" unicode="&#x1ece;" horiz-adv-x="1396" 
d="M904 1580l-34 72q48 31 71 69.5t9 72.5q-16 34 -56.5 33t-88.5 -31l-34 73q86 52 156.5 44t99.5 -69q34 -71 0 -141t-123 -123zM622 -20q-273 0 -398 196t-73 558q52 367 235 567t454 200q270 0 393.5 -199t71.5 -565q-52 -363 -232.5 -560t-450.5 -197zM641 99
q439 0 529 637q45 325 -44.5 485.5t-304.5 160.5t-352 -162t-182 -484q-45 -319 46.5 -478t307.5 -159z" />
    <glyph glyph-name="uni1ECF" unicode="&#x1ecf;" horiz-adv-x="1087" 
d="M658 1158l-33 72q48 31 71 69.5t9 72.5q-17 34 -58 33t-88 -31l-34 73q86 52 156.5 44t99.5 -69q34 -71 0 -141t-123 -123zM472 -20q-204 0 -303.5 139t-64.5 406q35 256 168 405t348 149q202 0 300 -142t62 -412q-34 -252 -165 -398.5t-345 -146.5zM488 87
q147 0 245 113.5t127 327.5q27 203 -36 323t-219 120q-151 0 -249.5 -113.5t-126.5 -329.5q-17 -132 2.5 -229t84.5 -154.5t172 -57.5z" />
    <glyph glyph-name="uni1ED0" unicode="&#x1ed0;" horiz-adv-x="1396" 
d="M1156 2006h148l-170 -217h-96zM586 1605l257 210h90l207 -210h-141l-121 127l-161 -127h-131zM622 -20q-273 0 -398 196t-73 558q52 367 235 567t454 200q270 0 393.5 -199t71.5 -565q-52 -363 -232.5 -560t-450.5 -197zM641 99q439 0 529 637q45 325 -44.5 485.5
t-304.5 160.5t-352 -162t-182 -484q-45 -319 46.5 -478t307.5 -159z" />
    <glyph glyph-name="uni1ED1" unicode="&#x1ed1;" horiz-adv-x="1073" 
d="M907 1584h148l-171 -217h-94zM337 1183l256 210h91l207 -210h-140l-122 127l-161 -127h-131zM472 -20q-204 0 -303.5 139t-64.5 406q35 256 168 405t348 149q202 0 300 -142t62 -412q-34 -252 -165 -398.5t-345 -146.5zM488 87q147 0 245 113.5t127 327.5q27 203 -36 323
t-219 120q-151 0 -249.5 -113.5t-126.5 -329.5q-17 -132 2.5 -229t84.5 -154.5t172 -57.5z" />
    <glyph glyph-name="uni1ED2" unicode="&#x1ed2;" horiz-adv-x="1396" 
d="M1098 2003l90 -217h-92l-142 217h144zM581 1605l256 210h91l207 -210h-141l-122 127l-160 -127h-131zM622 -20q-273 0 -398 196t-73 558q52 367 235 567t454 200q270 0 393.5 -199t71.5 -565q-52 -363 -232.5 -560t-450.5 -197zM641 99q439 0 529 637q45 325 -44.5 485.5
t-304.5 160.5t-352 -162t-182 -484q-45 -319 46.5 -478t307.5 -159z" />
    <glyph glyph-name="uni1ED3" unicode="&#x1ed3;" horiz-adv-x="1087" 
d="M852 1581l89 -217h-91l-141 217h143zM335 1183l256 210h91l207 -210h-140l-122 127l-161 -127h-131zM472 -20q-204 0 -303.5 139t-64.5 406q35 256 168 405t348 149q202 0 300 -142t62 -412q-34 -252 -165 -398.5t-345 -146.5zM488 87q147 0 245 113.5t127 327.5
q27 203 -36 323t-219 120q-151 0 -249.5 -113.5t-126.5 -329.5q-17 -132 2.5 -229t84.5 -154.5t172 -57.5z" />
    <glyph glyph-name="uni1ED4" unicode="&#x1ed4;" horiz-adv-x="1396" 
d="M1050 1718l-34 72q48 31 70.5 69.5t8.5 72.5q-16 34 -57 33t-88 -31l-35 73q87 52 157.5 44t99.5 -69q34 -71 0 -141t-122 -123zM563 1605l256 210h91l207 -210h-140l-122 127l-161 -127h-131zM622 -20q-273 0 -398 196t-73 558q52 367 235 567t454 200q270 0 393.5 -199
t71.5 -565q-52 -363 -232.5 -560t-450.5 -197zM641 99q439 0 529 637q45 325 -44.5 485.5t-304.5 160.5t-352 -162t-182 -484q-45 -319 46.5 -478t307.5 -159z" />
    <glyph glyph-name="uni1ED5" unicode="&#x1ed5;" horiz-adv-x="1087" 
d="M803 1296l-34 72q48 31 71 69.5t9 72.5q-16 34 -57 33t-89 -31l-33 73q87 52 157 44.5t100 -68.5q33 -71 -1 -141.5t-123 -123.5zM317 1183l256 210h92l206 -210h-140l-122 127l-160 -127h-132zM472 -20q-204 0 -303.5 139t-64.5 406q35 256 168 405t348 149
q202 0 300 -142t62 -412q-34 -252 -165 -398.5t-345 -146.5zM488 87q147 0 245 113.5t127 327.5q27 203 -36 323t-219 120q-151 0 -249.5 -113.5t-126.5 -329.5q-17 -132 2.5 -229t84.5 -154.5t172 -57.5z" />
    <glyph glyph-name="uni1ED6" unicode="&#x1ed6;" horiz-adv-x="1396" 
d="M658 1930l-16 80q40 35 75 52.5t81 17.5q44 0 114.5 -27t112.5 -27q57 0 126 50l17 -91q-80 -53 -158 -53q-50 0 -114 25.5t-103 25.5q-13 0 -24.5 -1.5t-23 -5t-19.5 -6.5t-19.5 -9.5t-16 -9t-17 -11t-15.5 -10.5zM583 1605l256 210h91l207 -210h-141l-122 127
l-160 -127h-131zM622 -20q-273 0 -398 196t-73 558q52 367 235 567t454 200q270 0 393.5 -199t71.5 -565q-52 -363 -232.5 -560t-450.5 -197zM641 99q439 0 529 637q45 325 -44.5 485.5t-304.5 160.5t-352 -162t-182 -484q-45 -319 46.5 -478t307.5 -159z" />
    <glyph glyph-name="uni1ED7" unicode="&#x1ed7;" horiz-adv-x="1087" 
d="M413 1508l-17 80q40 35 75 52.5t81 17.5q43 0 114 -26.5t113 -26.5q58 0 126 49l18 -91q-80 -53 -159 -53q-51 0 -115 26t-102 26q-15 0 -29.5 -2.5t-24 -5.5t-23 -10t-19.5 -11t-20 -13t-18 -12zM336 1183l257 210h91l206 -210h-139l-122 127l-162 -127h-131zM472 -20
q-204 0 -303.5 139t-64.5 406q35 256 168 405t348 149q202 0 300 -142t62 -412q-34 -252 -165 -398.5t-345 -146.5zM488 87q147 0 245 113.5t127 327.5q27 203 -36 323t-219 120q-151 0 -249.5 -113.5t-126.5 -329.5q-17 -132 2.5 -229t84.5 -154.5t172 -57.5z" />
    <glyph glyph-name="uni1ED8" unicode="&#x1ed8;" horiz-adv-x="1396" 
d="M575 1605l258 210h91l206 -210h-140l-122 127l-161 -127h-132zM622 -20q-273 0 -398 196t-73 558q52 367 235 567t454 200q270 0 393.5 -199t71.5 -565q-52 -363 -232.5 -560t-450.5 -197zM641 99q439 0 529 637q45 325 -44.5 485.5t-304.5 160.5t-352 -162t-182 -484
q-45 -319 46.5 -478t307.5 -159zM514 -345l21 149h132l-22 -149h-131z" />
    <glyph glyph-name="uni1ED9" unicode="&#x1ed9;" horiz-adv-x="1087" 
d="M330 1183l257 210h91l206 -210h-141l-121 127l-161 -127h-131zM472 -20q-204 0 -303.5 139t-64.5 406q35 256 168 405t348 149q202 0 300 -142t62 -412q-34 -252 -165 -398.5t-345 -146.5zM488 87q147 0 245 113.5t127 327.5q27 203 -36 323t-219 120
q-151 0 -249.5 -113.5t-126.5 -329.5q-17 -132 2.5 -229t84.5 -154.5t172 -57.5zM334 -345l20 149h131l-20 -149h-131z" />
    <glyph glyph-name="uni1EDA" unicode="&#x1eda;" horiz-adv-x="1501" 
d="M1032 1903h159l-290 -298h-105zM622 -20q-273 0 -398 196t-73 558q52 367 235 567t454 200q273 0 395 -203l2 16q87 -2 127.5 37t61.5 157h112q-21 -148 -84.5 -218.5t-180.5 -69.5q74 -189 32 -483q-52 -363 -232.5 -560t-450.5 -197zM641 99q439 0 529 637
q45 325 -44.5 485.5t-304.5 160.5t-352 -162t-182 -484q-45 -319 46.5 -478t307.5 -159z" />
    <glyph glyph-name="uni1EDB" unicode="&#x1edb;" horiz-adv-x="1209" 
d="M816 1481h158l-290 -298h-104zM474 -20q-204 0 -304 139.5t-64 405.5q34 256 167.5 405t348.5 149q137 0 228.5 -67t124.5 -197q69 4 104.5 45.5t55.5 149.5h111q-20 -145 -82 -216t-174 -73q7 -87 -6 -196q-34 -252 -165.5 -398.5t-344.5 -146.5zM490 87
q147 0 245 113.5t126 327.5q27 203 -36 323t-219 120q-150 0 -249 -113.5t-127 -329.5q-17 -132 2.5 -229t85 -154.5t172.5 -57.5z" />
    <glyph glyph-name="uni1EDC" unicode="&#x1edc;" horiz-adv-x="1501" 
d="M670 1903l236 -298h-104l-290 298h158zM622 -20q-273 0 -398 196t-73 558q52 367 235 567t454 200q273 0 395 -203l2 16q87 -2 127.5 37t61.5 157h112q-21 -148 -84.5 -218.5t-180.5 -69.5q74 -189 32 -483q-52 -363 -232.5 -560t-450.5 -197zM641 99q439 0 529 637
q45 325 -44.5 485.5t-304.5 160.5t-352 -162t-182 -484q-45 -319 46.5 -478t307.5 -159z" />
    <glyph glyph-name="uni1EDD" unicode="&#x1edd;" horiz-adv-x="1216" 
d="M451 1481l236 -298h-104l-290 298h158zM481 -20q-205 0 -304 139t-64 406q35 257 168 405.5t348 148.5q137 0 228 -66.5t124 -197.5q70 4 105.5 45.5t55.5 149.5h111q-21 -145 -82.5 -216t-173.5 -73q7 -87 -6 -196q-34 -252 -165.5 -398.5t-344.5 -146.5zM497 87
q147 0 244.5 113.5t126.5 327.5q27 203 -36 323t-219 120q-151 0 -249 -113.5t-126 -329.5q-17 -132 2.5 -229t84.5 -154.5t172 -57.5z" />
    <glyph glyph-name="uni1EDE" unicode="&#x1ede;" horiz-adv-x="1501" 
d="M904 1580l-34 72q48 31 71 69.5t9 72.5q-16 34 -56.5 33t-88.5 -31l-34 73q86 52 156.5 44t99.5 -69q34 -71 0 -141t-123 -123zM622 -20q-273 0 -398 196t-73 558q52 367 235 567t454 200q273 0 395 -203l2 16q87 -2 127.5 37t61.5 157h112q-21 -148 -84.5 -218.5
t-180.5 -69.5q74 -189 32 -483q-52 -363 -232.5 -560t-450.5 -197zM641 99q439 0 529 637q45 325 -44.5 485.5t-304.5 160.5t-352 -162t-182 -484q-45 -319 46.5 -478t307.5 -159z" />
    <glyph glyph-name="uni1EDF" unicode="&#x1edf;" horiz-adv-x="1209" 
d="M687 1158l-34 72q48 31 70.5 69.5t8.5 72.5q-16 34 -56.5 33t-87.5 -31l-34 73q86 52 156.5 44t99.5 -69q34 -71 -0.5 -141t-122.5 -123zM474 -20q-204 0 -304 139.5t-64 405.5q34 256 167.5 405t348.5 149q137 0 228.5 -67t124.5 -197q69 4 104.5 45.5t55.5 149.5h111
q-20 -145 -82 -216t-174 -73q7 -87 -6 -196q-34 -252 -165.5 -398.5t-344.5 -146.5zM490 87q147 0 245 113.5t126 327.5q27 203 -36 323t-219 120q-150 0 -249 -113.5t-127 -329.5q-17 -132 2.5 -229t85 -154.5t172.5 -57.5z" />
    <glyph glyph-name="uni1EE0" unicode="&#x1ee0;" horiz-adv-x="1501" 
d="M630 1689l-17 79q40 35 75.5 53t80.5 18q44 0 115 -27t112 -27q35 0 62.5 12t64.5 37l18 -90q-76 -53 -159 -53q-51 0 -115 25.5t-103 25.5q-11 0 -22.5 -1.5t-19 -3t-18.5 -6t-16 -6.5t-16.5 -9t-13.5 -8t-14.5 -9.5t-13.5 -9.5zM622 -20q-273 0 -398 196t-73 558
q52 367 235 567t454 200q273 0 395 -203l2 16q87 -2 127.5 37t61.5 157h112q-21 -148 -84.5 -218.5t-180.5 -69.5q74 -189 32 -483q-52 -363 -232.5 -560t-450.5 -197zM641 99q439 0 529 637q45 325 -44.5 485.5t-304.5 160.5t-352 -162t-182 -484q-45 -319 46.5 -478
t307.5 -159z" />
    <glyph glyph-name="uni1EE1" unicode="&#x1ee1;" horiz-adv-x="1209" 
d="M414 1267l-17 80q40 35 75 52.5t81 17.5q44 0 114.5 -27t112.5 -27q56 0 126 49l18 -90q-76 -53 -159 -53q-51 0 -115 25.5t-102 25.5q-11 0 -22.5 -1.5t-19 -3t-18.5 -6t-16 -6.5t-16.5 -9t-13.5 -8t-14.5 -9.5t-13.5 -9.5zM474 -20q-204 0 -304 139.5t-64 405.5
q34 256 167.5 405t348.5 149q137 0 228.5 -67t124.5 -197q69 4 104.5 45.5t55.5 149.5h111q-20 -145 -82 -216t-174 -73q7 -87 -6 -196q-34 -252 -165.5 -398.5t-344.5 -146.5zM490 87q147 0 245 113.5t126 327.5q27 203 -36 323t-219 120q-150 0 -249 -113.5t-127 -329.5
q-17 -132 2.5 -229t85 -154.5t172.5 -57.5z" />
    <glyph glyph-name="uni1EE2" unicode="&#x1ee2;" horiz-adv-x="1501" 
d="M622 -20q-273 0 -398 196t-73 558q52 367 235 567t454 200q273 0 395 -203l2 16q87 -2 127.5 37t61.5 157h112q-21 -148 -84.5 -218.5t-180.5 -69.5q74 -189 32 -483q-52 -363 -232.5 -560t-450.5 -197zM641 99q439 0 529 637q45 325 -44.5 485.5t-304.5 160.5t-352 -162
t-182 -484q-45 -319 46.5 -478t307.5 -159zM514 -345l21 149h132l-22 -149h-131z" />
    <glyph glyph-name="uni1EE3" unicode="&#x1ee3;" horiz-adv-x="1209" 
d="M474 -20q-204 0 -304 139.5t-64 405.5q34 256 167.5 405t348.5 149q137 0 228.5 -67t124.5 -197q69 4 104.5 45.5t55.5 149.5h111q-20 -145 -82 -216t-174 -73q7 -87 -6 -196q-34 -252 -165.5 -398.5t-344.5 -146.5zM490 87q147 0 245 113.5t126 327.5q27 203 -36 323
t-219 120q-150 0 -249 -113.5t-127 -329.5q-17 -132 2.5 -229t85 -154.5t172.5 -57.5zM346 -345l22 149h131l-21 -149h-132z" />
    <glyph glyph-name="uni1EE4" unicode="&#x1ee4;" horiz-adv-x="1340" 
d="M612 -20q-248 0 -344 130.5t-58 397.5l137 973h129l-142 -1005q-27 -187 47.5 -283.5t247.5 -96.5q175 0 279 95.5t131 284.5l143 1005h122l-142 -999q-35 -251 -170.5 -376.5t-379.5 -125.5zM499 -342l21 149h131l-20 -149h-132z" />
    <glyph glyph-name="uni1EE5" unicode="&#x1ee5;" horiz-adv-x="1122" 
d="M460 -20q-172 2 -264 96t-67 272l99 711h123l-99 -703q-18 -125 41.5 -196.5t195.5 -71.5q128 0 212.5 72t103.5 211l97 688h122l-148 -1059h-103l17 198q-41 -106 -128 -163t-202 -55zM364 -345l20 149h132l-21 -149h-131z" />
    <glyph glyph-name="uni1EE6" unicode="&#x1ee6;" horiz-adv-x="1340" 
d="M896 1580l-34 72q48 31 71 69.5t9 72.5q-16 34 -56.5 33t-88.5 -31l-34 73q86 52 156.5 44t99.5 -69q34 -71 0 -141t-123 -123zM612 -20q-248 0 -344 130.5t-58 397.5l137 973h129l-142 -1005q-27 -187 47.5 -283.5t247.5 -96.5q175 0 279 95.5t131 284.5l143 1005h122
l-142 -999q-35 -251 -170.5 -376.5t-379.5 -125.5z" />
    <glyph glyph-name="uni1EE7" unicode="&#x1ee7;" horiz-adv-x="1122" 
d="M696 1158l-34 72q48 31 70.5 69.5t8.5 72.5q-16 34 -56.5 33t-88.5 -31l-34 73q87 52 157 44t100 -69q33 -71 -1 -141t-122 -123zM460 -20q-172 2 -264 96t-67 272l99 711h123l-99 -703q-18 -125 41.5 -196.5t195.5 -71.5q128 0 212.5 72t103.5 211l97 688h122
l-148 -1059h-103l17 198q-41 -106 -128 -163t-202 -55z" />
    <glyph glyph-name="uni1EE8" unicode="&#x1ee8;" horiz-adv-x="1513" 
d="M1023 1903h159l-290 -298h-105zM612 -20q-248 0 -344 130.5t-58 397.5l137 973h129l-142 -1005q-27 -187 47.5 -283.5t247.5 -96.5q175 0 279 95.5t131 284.5l143 1005h122l-24 -167q66 5 100.5 46t54.5 147h111q-22 -153 -88.5 -222.5t-190.5 -64.5l-105 -738
q-35 -251 -170.5 -376.5t-379.5 -125.5z" />
    <glyph glyph-name="uni1EE9" unicode="&#x1ee9;" horiz-adv-x="1186" 
d="M822 1481h158l-290 -298h-104zM460 -20q-171 2 -263.5 96t-67.5 272l99 711h124l-99 -703q-18 -125 41.5 -196.5t195.5 -71.5q128 0 212 72t104 211l97 688h122l-15 -112q63 6 95.5 47.5t51.5 146.5h112q-21 -151 -86.5 -221.5t-186.5 -67.5l-120 -852h-102l17 198
q-42 -106 -128.5 -163t-202.5 -55z" />
    <glyph glyph-name="uni1EEA" unicode="&#x1eea;" horiz-adv-x="1513" 
d="M660 1903l237 -298h-104l-290 298h157zM612 -20q-248 0 -344 130.5t-58 397.5l137 973h129l-142 -1005q-27 -187 47.5 -283.5t247.5 -96.5q175 0 279 95.5t131 284.5l143 1005h122l-24 -167q66 5 100.5 46t54.5 147h111q-22 -153 -88.5 -222.5t-190.5 -64.5l-105 -738
q-35 -251 -170.5 -376.5t-379.5 -125.5z" />
    <glyph glyph-name="uni1EEB" unicode="&#x1eeb;" horiz-adv-x="1204" 
d="M468 1481l237 -298h-105l-290 298h158zM465 -20q-172 2 -264 96t-67 272l99 711h123l-98 -703q-19 -124 41 -196t196 -72q128 0 212 72t104 211l97 688h122l-16 -113q70 3 106 44t56 151h111q-23 -155 -91.5 -225.5t-195.5 -63.5l-119 -852h-102l16 198
q-41 -106 -128 -163t-202 -55z" />
    <glyph glyph-name="uni1EEC" unicode="&#x1eec;" horiz-adv-x="1513" 
d="M895 1580l-34 73q48 30 71 69t9 72q-17 35 -57.5 34t-87.5 -32l-34 74q86 52 156.5 44t99.5 -69q34 -71 0 -141t-123 -124zM612 -20q-248 0 -344 130.5t-58 397.5l137 973h129l-142 -1005q-27 -187 47.5 -283.5t247.5 -96.5q175 0 279 95.5t131 284.5l143 1005h122
l-24 -167q66 5 100.5 46t54.5 147h111q-22 -153 -88.5 -222.5t-190.5 -64.5l-105 -738q-35 -251 -170.5 -376.5t-379.5 -125.5z" />
    <glyph glyph-name="uni1EED" unicode="&#x1eed;" horiz-adv-x="1200" 
d="M707 1158l-34 72q48 31 71 69.5t9 72.5q-17 34 -58 33t-88 -31l-34 73q86 52 156.5 44t99.5 -69q34 -71 0.5 -141t-122.5 -123zM460 -20q-171 2 -263.5 96t-67.5 272l99 711h124l-99 -703q-18 -125 41.5 -196.5t195.5 -71.5q128 0 212 72t104 211l97 688h122l-15 -113
q70 3 105 44t55 151h112q-22 -155 -90.5 -225.5t-195.5 -63.5l-120 -852h-102l17 198q-42 -106 -128.5 -163t-202.5 -55z" />
    <glyph glyph-name="uni1EEE" unicode="&#x1eee;" horiz-adv-x="1515" 
d="M622 1689l-17 79q40 35 75.5 53t80.5 18q44 0 115 -27t112 -27q35 0 62.5 12t64.5 37l18 -90q-76 -53 -159 -53q-51 0 -115 25.5t-103 25.5q-11 0 -22.5 -1.5t-19 -3t-18.5 -6t-16 -6.5t-16.5 -9t-13.5 -8t-14.5 -9.5t-13.5 -9.5zM612 -20q-248 0 -344 130.5t-58 397.5
l137 973h129l-142 -1005q-27 -187 47.5 -283.5t247.5 -96.5q175 0 279 95.5t131 284.5l143 1005h122l-24 -167q66 5 100.5 46t54.5 147h111q-22 -153 -88.5 -222.5t-190.5 -64.5l-105 -738q-35 -251 -170.5 -376.5t-379.5 -125.5z" />
    <glyph glyph-name="uni1EEF" unicode="&#x1eef;" horiz-adv-x="1200" 
d="M433 1267l-17 80q40 35 75 52.5t81 17.5q43 0 114.5 -27t112.5 -27q35 0 62.5 12t64.5 37l17 -90q-76 -53 -159 -53q-51 0 -115 25.5t-102 25.5q-13 0 -24.5 -1t-23.5 -5.5t-18.5 -6t-19.5 -9.5t-15.5 -9t-17.5 -11zM460 -20q-171 2 -263.5 96t-67.5 272l99 711h124
l-99 -703q-18 -125 41.5 -196.5t195.5 -71.5q128 0 212 72t104 211l97 688h122l-15 -113q70 3 105 44t55 151h112q-22 -155 -90.5 -225.5t-195.5 -63.5l-120 -852h-102l17 198q-42 -106 -128.5 -163t-202.5 -55z" />
    <glyph glyph-name="uni1EF0" unicode="&#x1ef0;" horiz-adv-x="1513" 
d="M612 -20q-248 0 -344 130.5t-58 397.5l137 973h129l-142 -1005q-27 -187 47.5 -283.5t247.5 -96.5q175 0 279 95.5t131 284.5l143 1005h122l-24 -167q66 5 100.5 46t54.5 147h111q-22 -153 -88.5 -222.5t-190.5 -64.5l-105 -738q-35 -251 -170.5 -376.5t-379.5 -125.5z
M492 -342l20 149h131l-20 -149h-131z" />
    <glyph glyph-name="uni1EF1" unicode="&#x1ef1;" horiz-adv-x="1200" 
d="M460 -20q-171 2 -263.5 96t-67.5 272l99 711h124l-99 -703q-18 -125 41.5 -196.5t195.5 -71.5q128 0 212 72t104 211l97 688h122l-15 -113q70 3 105 44t55 151h112q-22 -155 -90.5 -225.5t-195.5 -63.5l-120 -852h-102l17 198q-42 -106 -128.5 -163t-202.5 -55zM368 -345
l20 149h131l-20 -149h-131z" />
    <glyph glyph-name="Ygrave" unicode="&#x1ef2;" horiz-adv-x="1101" 
d="M517 1906l236 -298h-105l-290 298h159zM417 0l88 636l-343 845h133l290 -726l488 726h135l-579 -847l-91 -634h-121z" />
    <glyph glyph-name="ygrave" unicode="&#x1ef3;" horiz-adv-x="1001" 
d="M413 1481l236 -298h-104l-290 298h158zM109 -338q-46 0 -79 5t-43 11l-10 5l14 85l103 -1q63 -1 108.5 18t68 43.5t41.5 62.5l61 123l-238 1045h126l195 -889l441 889h119l-591 -1180q-62 -118 -139 -167.5t-177 -49.5z" />
    <glyph glyph-name="uni1EF4" unicode="&#x1ef4;" horiz-adv-x="1101" 
d="M417 0l88 636l-343 845h133l290 -726l488 726h135l-579 -847l-91 -634h-121zM364 -345l20 149h132l-20 -149h-132z" />
    <glyph glyph-name="uni1EF5" unicode="&#x1ef5;" horiz-adv-x="1001" 
d="M109 -338q-46 0 -79 5t-43 11l-10 5l14 85l103 -1q63 -1 108.5 18t68 43.5t41.5 62.5l61 123l-238 1045h126l195 -889l441 889h119l-591 -1180q-62 -118 -139 -167.5t-177 -49.5zM581 -349l20 149h131l-20 -149h-131z" />
    <glyph glyph-name="uni1EF6" unicode="&#x1ef6;" horiz-adv-x="1101" 
d="M752 1583l-34 73q48 30 70.5 69t8.5 72q-16 34 -57 33t-88 -31l-34 74q86 52 156.5 44t99.5 -70q34 -70 0 -140t-122 -124zM417 0l88 636l-343 845h133l290 -726l488 726h135l-579 -847l-91 -634h-121z" />
    <glyph glyph-name="uni1EF7" unicode="&#x1ef7;" horiz-adv-x="1001" 
d="M647 1158l-34 72q48 31 71 69.5t9 72.5q-16 34 -56.5 33t-88.5 -31l-34 73q86 52 156.5 44t99.5 -69q34 -71 0 -141t-123 -123zM109 -338q-46 0 -79 5t-43 11l-10 5l14 85l103 -1q63 -1 108.5 18t68 43.5t41.5 62.5l61 123l-238 1045h126l195 -889l441 889h119
l-591 -1180q-62 -118 -139 -167.5t-177 -49.5z" />
    <glyph glyph-name="uni1EF8" unicode="&#x1ef8;" horiz-adv-x="1101" 
d="M477 1693l-16 80q40 35 74.5 52t80.5 17q44 0 115 -26.5t113 -26.5q58 0 126 49l17 -91q-75 -52 -159 -52q-50 0 -114 25t-103 25q-13 0 -24.5 -1.5t-23 -5t-19 -6t-19.5 -9.5t-16 -9t-17 -11t-15 -10zM417 0l88 636l-343 845h133l290 -726l488 726h135l-579 -847
l-91 -634h-121z" />
    <glyph glyph-name="uni1EF9" unicode="&#x1ef9;" horiz-adv-x="1001" 
d="M373 1267l-17 80q40 35 75 52.5t81 17.5q44 0 115 -27t112 -27q35 0 62.5 12t64.5 37l18 -90q-76 -53 -159 -53q-51 0 -115 25.5t-103 25.5q-11 0 -22.5 -1.5t-19 -3t-18.5 -6t-16 -6.5t-16.5 -9t-13.5 -8t-14.5 -9.5t-13.5 -9.5zM109 -338q-46 0 -79 5t-43 11l-10 5
l14 85l103 -1q63 -1 108.5 18t68 43.5t41.5 62.5l61 123l-238 1045h126l195 -889l441 889h119l-591 -1180q-62 -118 -139 -167.5t-177 -49.5z" />
    <glyph glyph-name="endash" unicode="&#x2013;" horiz-adv-x="1040" 
d="M120 461l15 109l781 2l-14 -110z" />
    <glyph glyph-name="emdash" unicode="&#x2014;" horiz-adv-x="2251" 
d="M1872 572l-15 -110l-1481 -1l15 109z" />
    <glyph glyph-name="quoteleft" unicode="&#x2018;" horiz-adv-x="462" 
d="M498 1537l-144 -241l77 -2l-27 -189h-198l23 165l194 267h75z" />
    <glyph glyph-name="quoteright" unicode="&#x2019;" horiz-adv-x="439" 
d="M175 1050l144 239l-77 2l26 190h199l-24 -164l-193 -267h-75z" />
    <glyph glyph-name="quotesinglbase" unicode="&#x201a;" horiz-adv-x="444" 
d="M-24 -240l138 239l-75 2l27 192h193l-23 -165l-186 -268h-74z" />
    <glyph glyph-name="quotedblleft" unicode="&#x201c;" horiz-adv-x="798" 
d="M830 1517l-143 -243l77 -2l-27 -192h-198l23 166l194 271h74zM495 1517l-144 -243l78 -2l-28 -192h-198l23 166l195 271h74z" />
    <glyph glyph-name="quotedblright" unicode="&#x201d;" horiz-adv-x="761" 
d="M498 1050l144 239l-78 2l27 190h199l-24 -164l-194 -267h-74zM175 1050l144 239l-77 2l26 190h199l-24 -164l-193 -267h-75z" />
    <glyph glyph-name="quotedblbase" unicode="&#x201e;" horiz-adv-x="777" 
d="M309 -240l137 239l-74 2l26 192h194l-24 -165l-185 -268h-74zM-24 -240l138 239l-75 2l27 192h193l-23 -165l-186 -268h-74z" />
    <glyph glyph-name="dagger" unicode="&#x2020;" horiz-adv-x="808" 
d="M213 -330l190 1166l-348 -19l19 130l337 -16l58 550h139l-98 -550l341 16l-20 -130l-343 19l-137 -1166h-138z" />
    <glyph glyph-name="daggerdbl" unicode="&#x2021;" horiz-adv-x="811" 
d="M214 -330l96 544l-343 -16l21 132l343 -21l72 520l-347 -18l18 130l338 -16l59 556h139l-99 -556l341 16l-19 -130l-343 18l-72 -520l347 21l-20 -132l-335 16l-57 -544h-139z" />
    <glyph glyph-name="bullet" unicode="&#x2022;" horiz-adv-x="609" 
d="M334 584q-70 0 -119 50t-49 120t49 119t119 49t119 -49t49 -119t-49 -120t-119 -50z" />
    <glyph glyph-name="ellipsis" unicode="&#x2026;" horiz-adv-x="1417" 
d="M1060 0l27 195h160l-27 -195h-160zM44 0l28 195h159l-27 -195h-160zM552 0l28 195h159l-27 -195h-160z" />
    <glyph glyph-name="perthousand" unicode="&#x2030;" horiz-adv-x="2424" 
d="M445 655q-139 0 -209.5 113t-41.5 311q28 198 130 311t240 113q137 0 206 -113t41 -311t-128.5 -311t-237.5 -113zM299 -8l-87 1l1265 1504h85zM455 735q98 0 169 94.5t94 249.5q21 154 -24 249.5t-143 95.5t-170 -96.5t-93 -248.5q-23 -152 22.5 -248t144.5 -96z
M1180 -20q-138 0 -208.5 113t-43.5 313q28 196 130.5 309.5t239.5 113.5q138 0 207.5 -113t41.5 -310q-29 -200 -129.5 -313t-237.5 -113zM1920 -20q-139 0 -209.5 113t-42.5 313q28 196 131 309.5t240 113.5t207 -113.5t42 -309.5q-29 -200 -130 -313t-238 -113zM1189 61
q95 0 168.5 96.5t94.5 245.5q20 149 -26 247t-141 98t-168.5 -98.5t-94.5 -246.5q-20 -149 26 -245.5t141 -96.5zM1929 61q95 0 168 96.5t94 245.5t-25 247t-141 98t-168.5 -98.5t-94.5 -246.5t25.5 -245t141.5 -97z" />
    <glyph glyph-name="guilsinglleft" unicode="&#x2039;" horiz-adv-x="509" 
d="M279 151l-210 363l318 380h75l-266 -380l157 -363h-74z" />
    <glyph glyph-name="guilsinglright" unicode="&#x203a;" horiz-adv-x="508" 
d="M50 151l260 363l-157 380h73l210 -380l-315 -363h-71z" />
    <glyph glyph-name="fraction" unicode="&#x2044;" horiz-adv-x="398" 
d="M-291 -8l-94 1l1146 1504h91z" />
    <glyph glyph-name="uni2070" unicode="&#x2070;" horiz-adv-x="708" 
d="M358 770q-138 0 -200 121t-30 355q34 236 131.5 359.5t235.5 123.5t200 -122.5t30 -358.5q-34 -235 -131 -356.5t-236 -121.5zM371 845q104 0 171 97t96 306q57 407 -155 407q-213 0 -270 -407q-56 -403 158 -403z" />
    <glyph glyph-name="uni2074" unicode="&#x2074;" horiz-adv-x="737" 
d="M467 778l36 256h-413l11 83l494 593h81l-84 -601h148l-11 -75h-149l-36 -256h-77zM177 1109h334l69 483z" />
    <glyph glyph-name="uni2075" unicode="&#x2075;" horiz-adv-x="740" 
d="M385 764q-117 0 -196 69t-93 182l77 18q19 -91 75 -143.5t144 -52.5q103 0 172.5 64.5t85.5 179.5q15 104 -38.5 168t-141.5 64q-68 0 -118.5 -21.5t-107.5 -86.5q-3 -2 -6 0l-73 14l107 491h500l-11 -75h-427l-74 -344q90 94 230 94q119 0 192 -80t52 -222
q-20 -145 -116 -232t-233 -87z" />
    <glyph glyph-name="uni2076" unicode="&#x2076;" horiz-adv-x="717" 
d="M379 774q-145 0 -213.5 124.5t-37.5 343.5q31 227 134 359t262 132q103 0 170 -61.5t70 -166.5h-76q-8 71 -53.5 113.5t-119.5 42.5q-129 0 -208 -116t-101 -344q34 85 106.5 138.5t158.5 53.5q128 0 194.5 -80.5t46.5 -219.5q-20 -143 -110 -231t-223 -88zM391 847
q90 0 155.5 67t80.5 175t-28 170t-143 62q-84 0 -156.5 -60.5t-84.5 -145.5q-18 -116 30.5 -192t145.5 -76z" />
    <glyph glyph-name="uni2077" unicode="&#x2077;" horiz-adv-x="665" 
d="M208 778q53 164 177.5 404.5t287.5 452.5h-499l11 75h589l-12 -75q-142 -179 -284.5 -444t-185.5 -413h-84z" />
    <glyph glyph-name="uni2078" unicode="&#x2078;" horiz-adv-x="777" 
d="M393 772q-146 0 -223.5 72t-60.5 191q11 81 76.5 152t137.5 85q-134 61 -113 209q17 116 105.5 183t212.5 67t194.5 -67t53.5 -183q-10 -75 -55 -128t-116 -81q68 -14 114 -85.5t35 -151.5q-17 -120 -115.5 -191.5t-245.5 -71.5zM469 1310q92 0 153.5 46t71.5 128
q12 82 -36.5 130.5t-139.5 48.5q-90 0 -152.5 -48.5t-72.5 -130.5q-12 -82 36 -128t140 -46zM403 843q108 0 181 51.5t85 138.5t-46 142.5t-165 55.5q-106 0 -179.5 -55.5t-85.5 -142.5t45.5 -138.5t164.5 -51.5z" />
    <glyph glyph-name="uni2079" unicode="&#x2079;" horiz-adv-x="712" 
d="M340 774q-103 0 -172.5 61t-72.5 165h77q7 -70 54.5 -112t121.5 -42q131 0 214.5 115t106.5 346q-33 -87 -106.5 -141t-161.5 -54q-129 0 -195 80.5t-46 221.5q20 144 108.5 231.5t221.5 87.5q145 0 213.5 -124.5t37.5 -343.5q-33 -229 -137 -360t-264 -131zM414 1186
q84 0 156 60.5t84 145.5q18 116 -30.5 192t-144.5 76q-89 0 -154 -67t-80 -175t27.5 -170t141.5 -62z" />
    <glyph glyph-name="colonmonetary" unicode="&#x20a1;" horiz-adv-x="1317" 
d="M618 -20q-48 0 -92 6l-21 -111h-88l24 130q-176 57 -250 238.5t-40 474.5q38 340 184.5 541.5t389.5 235.5l19 102h89l-19 -96h7q58 0 118 -13l20 109h89l-27 -138q117 -55 181 -167.5t61 -248.5h-134q-10 193 -134 282l-228 -1203q101 35 174 120.5t109 197.5h133
q-39 -160 -156.5 -285t-284.5 -162l-22 -118h-88l20 106q-11 -1 -34 -1zM802 1382q-2 0 -5 -0.5t-5 -0.5l-243 -1276q39 -6 84 -6q29 0 42 2l240 1264q-53 17 -113 17zM286 715q-58 -478 179 -584l236 1241q-346 -73 -415 -657z" />
    <glyph glyph-name="franc" unicode="&#x20a3;" horiz-adv-x="1154" 
d="M106 0l41 289h-181l14 94l181 1l155 1097h859l-18 -117h-718l-83 -583h637l-18 -115h-635l-40 -282l326 1l-14 -95h-325l-41 -290h-140z" />
    <glyph glyph-name="lira" unicode="&#x20a4;" horiz-adv-x="1143" 
d="M-49 0l16 115h76q74 -1 135 78t85 233q2 12 4.5 40t4.5 42q-1 11 -14 11h-205l14 94h206l-2 207h-177l14 94h161v52q-1 116 22.5 208t64 152.5t97.5 100.5t121.5 57t138.5 17q119 0 213 -63t116 -152l-115 -47q-25 70 -76 106.5t-142 36.5q-113 0 -197.5 -69.5
t-101.5 -189.5q-5 -44 -3 -191q0 -18 17 -18l321 2l-13 -95l-325 -1l3 -207l295 2l-16 -94h-287q-8 -109 -50.5 -221t-112.5 -183h372q102 0 171 39t114 130l101 -36q-60 -124 -162.5 -187t-236.5 -63h-647z" />
    <glyph glyph-name="uni20A6" unicode="&#x20a6;" horiz-adv-x="1375" 
d="M68 0l150 547h-203l13 91h215l69 253l-249 -1l14 92h261l137 499h103l155 -499l438 1l137 498h113l-136 -498h121l-13 -91h-133l-70 -252h167l-12 -91l-180 -1l-151 -548h-100l-170 548l-412 -1l-151 -547h-113zM525 1251l-73 -269h157zM761 891l79 -252l237 1l69 252z
M426 891l-69 -252h359l-78 252h-212zM966 234l86 314h-184z" />
    <glyph glyph-name="uni20A9" unicode="&#x20a9;" horiz-adv-x="1916" 
d="M292 0l17 609h-268l13 96h258l6 222l-231 -1l13 95h221l13 460h120l-17 -460h403l238 460h97l-15 -459h408l237 459h117l-241 -459h281l-13 -94h-318l-117 -222h402l-13 -95h-438l-321 -611h-122l19 610h-313l-317 -610h-119zM1062 1249l-119 -228l112 1zM1157 927
l-6 -221h252l116 222zM894 927l-117 -222h267l8 222h-158zM434 927l-8 -222h249l116 222h-357zM1135 188l219 422h-206zM408 188l219 422h-204z" />
    <glyph glyph-name="dong" unicode="&#x20ab;" horiz-adv-x="950" 
d="M394 253q-150 0 -231.5 113t-51.5 321q30 209 149 337.5t279 128.5q53 0 94.5 -15.5t62.5 -32.5t48 -47q12 -11 16.5 -8.5t6.5 19.5l29 192h-274l13 82h272l19 136h109l-20 -136h118l-12 -82h-117l-141 -992h-105l19 126q-1 -1 -14.5 -15.5t-19 -19.5t-21.5 -19.5
t-27 -21.5t-29.5 -19.5t-36 -19t-39.5 -14t-46 -10.5t-50 -3zM439 348q93 0 166.5 64t83.5 136l56 397q-82 108 -198 108q-118 0 -204 -95t-110 -266q-24 -170 36 -257t170 -87zM54 0l12 86h679l-13 -86h-678z" />
    <glyph glyph-name="Euro" unicode="&#x20ac;" horiz-adv-x="1093" 
d="M-31 536l14 94l163 1q2 30 12 108q9 63 21 119h-163l13 94h175q78 262 240.5 405.5t382.5 143.5q180 0 303 -123l-98 -95q-96 99 -213 99q-169 0 -287.5 -108t-182.5 -321l408 1l-14 -95l-418 -1q-18 -84 -22 -120q-6 -37 -12 -107l420 1l-14 -95l-408 -1
q2 -214 93.5 -324.5t269.5 -110.5q128 0 249 88l56 -92q-158 -117 -335 -117q-227 0 -352 145.5t-127 410.5h-174z" />
    <glyph glyph-name="uni20B9" unicode="&#x20b9;" horiz-adv-x="1059" 
d="M610 0l-141 712h-433l15 109h348q174 0 270.5 59.5t128.5 193.5l-708 -2l13 92l707 1q3 109 -66.5 163.5t-211.5 54.5h-400l12 98h4l1009 2l-13 -92h-272q92 -81 86 -226h156l-15 -91h-154q-56 -248 -323 -335q-12 -4 -9 -17l149 -722h-152z" />
    <glyph glyph-name="uni20BA" unicode="&#x20ba;" horiz-adv-x="995" 
d="M133 0l66 459l-148 -55l-18 103l182 66l32 220l-155 -57l-18 102l189 69l81 574h139l-72 -519l286 105l22 -101l-325 -119l-32 -219l293 108l22 -102l-331 -121l-55 -396h104q139 1 249 87.5t203 277.5l115 -29q-96 -217 -253 -335t-355 -118h-221z" />
    <glyph glyph-name="uni2113" unicode="&#x2113;" horiz-adv-x="912" 
d="M414 -13q-269 0 -239 390l-110 -77l-34 89l162 114l77 549q31 222 133 335.5t237 113.5q123 0 177.5 -88t34.5 -229q-9 -61 -32.5 -124t-52 -115t-75.5 -113t-84.5 -104t-98.5 -102.5t-97.5 -92.5t-100.5 -90q-29 -191 1 -271.5t120 -80.5q72 0 132 37t132 134l56 -51
q-68 -112 -149 -168t-189 -56zM327 586q67 56 128 117t128.5 144t114.5 180t60 193q12 86 -18 131.5t-100 45.5q-98 0 -160.5 -93t-93.5 -310z" />
    <glyph glyph-name="uni2116" unicode="&#x2116;" horiz-adv-x="2229" 
d="M1875 813q-135 0 -197.5 93.5t-41.5 246.5q23 156 114 251t222 95q132 0 197 -95t43 -251q-21 -152 -111.5 -246t-225.5 -94zM137 0l212 1481h111l606 -1247l177 1247h123l-212 -1481h-107l-609 1251l-178 -1251h-123zM1886 893q92 0 151 70.5t77 195.5q17 119 -22 188.5
t-130 69.5q-92 0 -150 -69t-76 -189q-18 -125 20.5 -195.5t129.5 -70.5z" />
    <glyph glyph-name="uni2117" unicode="&#x2117;" horiz-adv-x="1551" 
d="M696 -20q-145 0 -267.5 59.5t-203 161.5t-116 243t-13.5 297q21 154 97 294.5t185.5 242.5t249.5 162.5t284 60.5t266 -60.5t202.5 -162.5t116.5 -242.5t14 -294.5q-29 -208 -149.5 -383.5t-297.5 -276.5t-368 -101zM712 85q163 0 311 79.5t253.5 231t132.5 345.5
q20 144 -11 268t-101.5 209t-174 133t-225.5 48q-166 0 -315 -81.5t-252.5 -233t-130.5 -343.5q-21 -146 9.5 -270t101 -208t174.5 -131t228 -47zM505 338l112 797h276q124 0 191 -53.5t51 -161.5q-18 -123 -99.5 -188t-200.5 -65h-186l-46 -329h-98zM662 753h180
q74 0 126.5 38t63.5 112q11 79 -31 112t-124 33h-172z" />
    <glyph glyph-name="uni2120" unicode="&#x2120;" horiz-adv-x="1928" 
d="M334 -12q-126 0 -210 64.5t-85 181.5h83q7 -84 68.5 -130t152.5 -46q102 0 174.5 47.5t82.5 123.5q17 139 -130 179l-174 47q-194 50 -172 220q15 115 107.5 188.5t224.5 73.5q139 0 210 -78.5t59 -182.5h-82q2 51 -13 88.5t-43.5 58.5t-64 30.5t-78.5 9.5
q-83 0 -154.5 -47.5t-82.5 -134.5q-8 -57 24 -91.5t120 -60.5l168 -47q101 -27 137 -95t24 -155q-13 -105 -105.5 -174.5t-240.5 -69.5zM938 0l131 926h100l176 -824l415 824h98l-132 -926h-80l109 771l-382 -771h-85l-162 762l-108 -762h-80z" />
    <glyph glyph-name="trademark" unicode="&#x2122;" horiz-adv-x="1768" 
d="M244 0l121 849h-288l11 77h631l-9 -77h-270l-119 -849h-77zM778 0l131 926h100l176 -824l414 824h98l-130 -926h-81l109 771l-383 -771h-84l-161 762l-109 -762h-80z" />
    <glyph glyph-name="uni2126" unicode="&#x2126;" horiz-adv-x="1479" 
d="M119 0l17 124h318q-4 4 -18 17q-18 16 -29 26.5t-34 34.5t-39 45.5t-39.5 53.5t-39.5 64.5t-34.5 72.5t-28.5 84.5t-18 94t-7 106.5t9 116q20 138 79 263.5t148 223.5t214.5 156t267.5 58q83 0 155 -20t126.5 -56.5t99 -87t71.5 -111.5t44.5 -130.5t18 -143t-8.5 -150.5
q-22 -151 -77.5 -267t-150 -218t-258.5 -232h322l-18 -124h-472l17 122q58 39 105.5 75.5t115.5 103.5t117 137.5t91.5 172t58.5 212.5q13 77 9 150.5t-18.5 139.5t-46.5 122t-75.5 96.5t-106 63.5t-138.5 23q-112 0 -209 -49.5t-164 -133.5t-111 -189.5t-61 -224.5
q-31 -216 38 -377.5t250 -321.5l-18 -122h-472z" />
    <glyph glyph-name="uni2153" unicode="&#x2153;" horiz-adv-x="1605" 
d="M199 -8l-94 1l1145 1504h92zM226 565l110 766h-174l8 63q115 0 158.5 22.5t52.5 80.5h59l-133 -932h-81zM1141 -20q-125 2 -196.5 75.5t-59.5 194.5h80q-1 -91 50.5 -143.5t141.5 -52.5q104 0 175.5 52.5t82.5 138.5q13 95 -49 146.5t-170 52.5h-76l10 75l75 1
q93 0 166 54.5t84 126.5q9 67 -39 115.5t-144 48.5q-82 0 -151.5 -53t-84.5 -149h-79q18 123 111 199t213 76q131 0 202 -64t56 -171q-9 -71 -61 -128t-140 -88q90 -28 132 -90t30 -150q-17 -122 -116.5 -195.5t-242.5 -71.5z" />
    <glyph glyph-name="uni2154" unicode="&#x2154;" horiz-adv-x="1888" 
d="M75 571l8 62l5 33q10 68 43 123.5t79.5 93t100.5 70.5t107.5 63t99 63t78 79.5t40.5 102.5q11 80 -35 129.5t-133 49.5q-94 0 -158 -56.5t-83 -147.5h-80q20 120 109.5 200t225.5 80q123 0 188 -70t48 -186q-10 -68 -43 -123.5t-79 -92t-99.5 -68.5t-107 -61.5t-98.5 -62
t-77 -78t-40 -102.5l-3 -25h468l-10 -76h-554zM481 -8l-93 1l1145 1504h92zM1423 -20q-125 2 -196.5 75.5t-59.5 194.5h80q0 -91 51.5 -143.5t141.5 -52.5q104 0 175.5 52.5t82.5 138.5q13 95 -49 146.5t-170 52.5h-76l10 75l75 1q93 0 166 54.5t84 126.5q9 67 -39.5 115.5
t-144.5 48.5q-82 0 -151 -53t-83 -149h-80q18 123 111 199t213 76q131 0 202 -64t56 -171q-9 -71 -61 -128t-140 -88q90 -28 132 -90t30 -150q-17 -122 -117 -195.5t-243 -71.5z" />
    <glyph glyph-name="oneeighth" unicode="&#x215b;" horiz-adv-x="1634" 
d="M199 -8l-94 1l1145 1504h92zM226 565l110 766h-174l8 63q115 0 158.5 22.5t52.5 80.5h59l-133 -932h-81zM1168 -23q-146 0 -223.5 72.5t-60.5 191.5q11 80 76.5 151t137.5 85q-134 60 -113 209q16 116 105.5 183t213.5 67t193.5 -67t53.5 -183q-22 -149 -171 -209
q68 -14 114 -85t35 -151q-17 -120 -115.5 -192t-245.5 -72zM1244 515q92 0 153 46t72 128q11 83 -37 131t-139 48q-90 0 -152.5 -48.5t-73.5 -130.5t37.5 -128t139.5 -46zM1179 48q108 0 180.5 52t84.5 139q11 87 -46.5 142t-164.5 55q-106 0 -179.5 -55t-85.5 -142t46 -139
t165 -52z" />
    <glyph glyph-name="threeeighths" unicode="&#x215c;" horiz-adv-x="1870" 
d="M367 557q-125 2 -196.5 75.5t-59.5 194.5h79q0 -91 51 -143t142 -52q104 0 175.5 52.5t82.5 137.5q14 95 -48.5 147t-170.5 53h-76l10 75l75 1q93 0 166 54.5t84 126.5q9 67 -39 115.5t-144 48.5q-82 0 -151.5 -53.5t-83.5 -149.5h-80q18 124 111 200t213 76
q131 0 202 -64t56 -171q-9 -71 -61 -128t-140 -88q90 -28 132.5 -90.5t30.5 -150.5q-18 -122 -117.5 -195.5t-242.5 -71.5zM436 -8l-94 1l1145 1504h92zM1406 -23q-147 0 -225 72t-61 192q11 80 77 151t138 85q-133 60 -113 209q17 116 105.5 183t212.5 67t194.5 -67
t53.5 -183q-10 -75 -55 -128t-116 -81q68 -14 113.5 -84.5t34.5 -151.5q-17 -120 -114.5 -192t-244.5 -72zM1481 515q92 0 153.5 46t72.5 128q11 83 -37.5 131t-139.5 48q-90 0 -152 -48.5t-73 -130.5t37 -128t139 -46zM1415 48q108 0 181 52t84 139q12 87 -45.5 142
t-165.5 55q-106 0 -179.5 -55t-85.5 -142q-11 -87 46.5 -139t164.5 -52z" />
    <glyph glyph-name="fiveeighths" unicode="&#x215d;" horiz-adv-x="1861" 
d="M427 -8l-94 1l1145 1504h92zM385 551q-117 0 -196 69t-93 182l77 18q19 -91 75 -143.5t144 -52.5q103 0 172.5 64.5t85.5 179.5q15 104 -38.5 168t-141.5 64q-68 0 -118.5 -21.5t-107.5 -86.5q-3 -2 -6 0l-73 14l107 491h500l-11 -75h-427l-74 -344q90 94 230 94
q119 0 192 -80t52 -222q-20 -145 -116 -232t-233 -87zM1397 -23q-147 0 -225 72t-61 192q11 80 77 151t138 85q-134 60 -114 209q17 116 106 183t213 67t194.5 -67t53.5 -183q-10 -75 -55 -128t-116 -81q68 -14 113.5 -84.5t34.5 -151.5q-17 -120 -114.5 -192t-244.5 -72z
M1471 515q92 0 154 46t73 128q11 83 -37.5 131t-139.5 48q-90 0 -152.5 -48.5t-73.5 -130.5t37 -128t139 -46zM1406 48q108 0 181 52t84 139q12 87 -45.5 142t-165.5 55q-106 0 -179.5 -55t-85.5 -142q-11 -87 46.5 -139t164.5 -52z" />
    <glyph glyph-name="seveneighths" unicode="&#x215e;" horiz-adv-x="1679" 
d="M244 -8l-93 1l1144 1504h93zM208 563q53 164 177.5 404.5t287.5 452.5h-499l11 75h589l-12 -75q-142 -179 -284.5 -444t-185.5 -413h-84zM1213 -23q-147 0 -224 72t-60 192q11 80 76.5 151t137.5 85q-134 60 -113 209q16 116 105 183t213 67q125 0 194.5 -66.5
t53.5 -183.5q-22 -149 -171 -209q68 -14 114 -85t35 -151q-17 -120 -115.5 -192t-245.5 -72zM1289 515q92 0 153 46t72 128q11 83 -37 131t-139 48q-90 0 -152.5 -48.5t-73.5 -130.5t37.5 -128t139.5 -46zM1224 48q108 0 180.5 52t84.5 139q11 87 -46.5 142t-164.5 55
t-180.5 -55t-84.5 -142q-12 -87 46 -139t165 -52z" />
    <glyph glyph-name="partialdiff" unicode="&#x2202;" horiz-adv-x="1126" 
d="M465 -20q-128 0 -219 61.5t-130.5 168.5t-20.5 240q28 200 167 318t353 118q94 0 151 -23.5t131 -77.5q23 -16 25 5q42 291 -38.5 442.5t-274.5 151.5q-60 0 -115.5 -16.5t-87.5 -34t-84 -51.5l-30 85q58 59 162.5 96.5t208.5 37.5q233 0 335.5 -190.5t50.5 -562.5
q-53 -365 -205.5 -566.5t-378.5 -201.5zM465 93h2q137 0 254 130.5t166 341.5q10 54 -2 72q-37 58 -121.5 98t-175.5 40q-138 0 -240.5 -94.5t-123.5 -239.5t50 -246.5t191 -101.5z" />
    <glyph glyph-name="emptyset" unicode="&#x2205;" horiz-adv-x="1105" 
d="M152 305l-52 67l143 123q-64 111 -43 250q24 169 153.5 289.5t287.5 120.5q149 0 243 -107l126 108l47 -65l-127 -111q54 -106 36 -235q-24 -170 -154.5 -290.5t-287.5 -120.5q-137 0 -231 94zM282 745q-15 -110 29 -191l504 435q-75 80 -187 80q-124 0 -225 -95.5
t-121 -228.5zM537 420q126 0 227.5 95t120.5 230q13 97 -24 176l-500 -434q72 -67 176 -67z" />
    <glyph glyph-name="uni2206" unicode="&#x2206;" horiz-adv-x="1277" 
d="M-35 0l811 1481l387 -1481h-1198zM166 122h831l-266 1049z" />
    <glyph glyph-name="product" unicode="&#x220f;" horiz-adv-x="1214" 
d="M155 0l193 1363h-197l16 118h1144l-16 -118h-199l-194 -1363h-132l194 1363h-484l-193 -1363h-132z" />
    <glyph glyph-name="summation" unicode="&#x2211;" horiz-adv-x="972" 
d="M-20 0l12 92l508 648l-298 640l14 101h810l-17 -115h-639l286 -617l-492 -631h702l-16 -118h-870z" />
    <glyph glyph-name="minus" unicode="&#x2212;" horiz-adv-x="1042" 
d="M153 689l15 108l782 1l-15 -107z" />
    <glyph glyph-name="uni2215" unicode="&#x2215;" horiz-adv-x="1139" 
d="M1171 1497l-1047 -1505l-96 1l1053 1504h90z" />
    <glyph glyph-name="uni2219" unicode="&#x2219;" horiz-adv-x="594" 
d="M310 643q-41 0 -66 32.5t-18 77.5q5 45 39.5 76.5t77.5 31.5q42 0 67 -31.5t18 -76.5q-6 -45 -40.5 -77.5t-77.5 -32.5z" />
    <glyph glyph-name="radical" unicode="&#x221a;" horiz-adv-x="1156" 
d="M411 -330l-192 959l-150 -61l-19 96l271 102l175 -945l718 1869h112l-778 -2020h-137z" />
    <glyph glyph-name="infinity" unicode="&#x221e;" horiz-adv-x="1351" 
d="M337 234q-116 0 -185 88t-48 227q19 141 115 228t228 87q46 0 81.5 -10.5t65 -36.5t47.5 -47.5t48 -63.5q12 -15 19.5 -14.5t21.5 14.5q35 35 57.5 55.5t61.5 48t82.5 41t91.5 13.5q118 0 183 -83t45 -221v-3q-22 -149 -117.5 -236t-217.5 -87q-46 0 -82 12.5t-66 41
t-48 52t-48 68.5q-5 8 -8.5 11t-9 0.5t-13.5 -11.5q-3 -3 -23 -24t-36 -36.5t-45.5 -38.5t-57.5 -38t-66 -26t-76 -11zM357 346h7q62 0 127 47t113 107q23 28 24.5 42t-15.5 47q-40 84 -86 127t-111 43q-79 0 -137 -56.5t-71 -147.5t30.5 -150t118.5 -59zM950 346
q78 0 131.5 62.5t64.5 144.5q12 85 -27 145.5t-114 60.5h-3q-34 0 -67.5 -13t-68 -41.5t-55 -49t-56.5 -58.5q-41 -45 -13 -84q86 -167 208 -167z" />
    <glyph glyph-name="integral" unicode="&#x222b;" horiz-adv-x="815" 
d="M105 -350q-76 0 -117 11.5t-90 45.5l53 123q44 -29 79 -40.5t81 -11.5q72 0 127.5 57t71.5 171q32 225 52.5 673.5t49.5 657.5q26 179 118 276t218 97q77 0 119 -11.5t89 -45.5l-53 -123q-45 29 -80 40.5t-80 11.5q-75 0 -131.5 -57t-73.5 -170q-31 -222 -52 -672
t-50 -658q-25 -179 -117 -277t-214 -98z" />
    <glyph glyph-name="approxequal" unicode="&#x2248;" horiz-adv-x="1071" 
d="M208 813l-26 84q43 37 72.5 58t78.5 39.5t101 18.5q46 0 92.5 -15.5t79.5 -34t78 -34t89 -15.5q65 0 111 27t87 71l25 -88q-37 -45 -98.5 -76t-139.5 -31q-47 0 -92.5 15t-77 32.5t-76 32.5t-90.5 15q-111 0 -214 -99zM152 420l-25 86q65 55 121 84.5t130 29.5
q46 0 93 -15.5t79.5 -34t78 -34t88.5 -15.5q107 0 198 97l25 -87q-36 -45 -97.5 -76t-140.5 -31q-51 0 -97.5 15t-77 33t-73.5 33t-87 15q-115 0 -215 -100z" />
    <glyph glyph-name="notequal" unicode="&#x2260;" horiz-adv-x="1044" 
d="M238 150l133 293l-252 -1l15 107l285 1l154 340l-391 -1l15 106l426 1l123 274h89l-123 -273h267l-15 -106l-300 -1l-153 -340l404 1l-14 -107l-438 -1l-133 -293h-92z" />
    <glyph glyph-name="lessequal" unicode="&#x2264;" horiz-adv-x="1043" 
d="M903 497l-717 323l18 129l812 327l-19 -132l-644 -258l568 -259zM857 143l-780 2l15 107l781 -2z" />
    <glyph glyph-name="greaterequal" unicode="&#x2265;" horiz-adv-x="1044" 
d="M131 497l19 130l644 259l-572 258l20 132l717 -327l-18 -129zM77 143l15 107l781 2l-14 -107z" />
    <glyph glyph-name="lozenge" unicode="&#x25ca;" horiz-adv-x="872" 
d="M301 0l-188 739l410 742h114l190 -738l-411 -743h-115zM382 112l325 627l-147 630l-324 -620z" />
    <glyph glyph-name="i.loclTRK" horiz-adv-x="468" 
d="M273 1264l21 149h132l-20 -149h-133zM98 0l151 1059h123l-152 -1059h-122z" />
    <glyph glyph-name="g.ss01" horiz-adv-x="1130" 
d="M431 -346q-147 0 -242.5 83t-101.5 214h118q11 -93 78 -142.5t162 -50.5q82 -1 148 22.5t108.5 65.5t68 91.5t34.5 105.5l21 152q-106 -175 -343 -175q-192 0 -292 141t-75 361q12 111 54 211.5t106.5 177t155 121.5t192.5 45q60 0 112.5 -19.5t86.5 -50t55.5 -60.5
t31.5 -58l25 168h108l-132 -996q-26 -194 -156.5 -300.5t-322.5 -106.5zM519 126q84 0 147 23.5t99.5 65t56 87t26.5 100.5l36 299q8 62 -22.5 125t-93.5 105t-141 42q-154 0 -258.5 -124.5t-131.5 -326.5q-26 -175 51.5 -285.5t230.5 -110.5z" />
    <glyph glyph-name="l.ss01" horiz-adv-x="544" 
d="M142 0l202 1522h122l-201 -1522h-123z" />
    <glyph glyph-name="zero.osf" horiz-adv-x="1154" 
d="M499 -23q-221 0 -320 192.5t-47 564.5q54 375 208.5 571t374.5 196q219 0 318 -195t47 -569q-53 -373 -206.5 -566.5t-374.5 -193.5zM518 96q165 0 272 155t152 486q92 647 -245 647q-340 0 -430 -647q-89 -641 251 -641z" />
    <glyph glyph-name="one.osf" horiz-adv-x="781" 
d="M300 0l173 1218h-276l13 99q125 0 195 17.5t99.5 51.5t41.5 95h93l-212 -1481h-127z" />
    <glyph glyph-name="two.osf" horiz-adv-x="1118" 
d="M57 0l15 98l7 52q12 86 47.5 158.5t85.5 126t112 100t128.5 85t133 75.5t127.5 78t110 86t83 105.5t44 131.5q18 128 -55 206t-213 78q-150 0 -252 -89.5t-130 -234.5h-126q15 92 58 172t109.5 141t161 96.5t204.5 35.5q195 0 296.5 -111.5t75.5 -294.5
q-12 -86 -47 -158.5t-85 -125t-111 -98.5t-127 -83.5t-132 -73.5t-126.5 -76.5t-109 -85t-82 -104.5t-43.5 -131l-6 -38h745l-17 -121h-881z" />
    <glyph glyph-name="three.osf" horiz-adv-x="1187" 
d="M496 -13q-198 2 -312.5 120t-95.5 309h128q-2 -144 80 -228t225 -84q166 0 278.5 84.5t132.5 220.5q15 101 -28.5 173.5t-126 107t-193.5 35.5l-121 1l16 117l119 2q148 1 263.5 87t133.5 202q14 106 -62.5 183t-229.5 77q-61 0 -121 -20t-112 -58.5t-90 -102t-50 -142.5
h-126q28 197 176 318t338 121q209 0 322 -101t89 -272q-15 -112 -97.5 -203t-221.5 -140q142 -44 209.5 -143.5t47.5 -239.5q-28 -193 -186 -310t-385 -114z" />
    <glyph glyph-name="four.osf" horiz-adv-x="1182" 
d="M681 0l57 407h-656l19 132l784 942h129l-134 -955h236l-17 -119h-238l-57 -407h-123zM222 526h529l109 769z" />
    <glyph glyph-name="five.osf" horiz-adv-x="1207" 
d="M542 -23q-186 0 -311.5 110t-148.5 289l124 30q28 -143 118.5 -228.5t229.5 -85.5q162 0 273.5 103.5t137.5 285.5q23 165 -62.5 267t-225.5 102q-107 0 -187.5 -34.5t-172.5 -137.5q-5 -2 -9 1l-117 21l171 781h796l-19 -118h-678l-117 -547q139 149 366 149
q90 0 166.5 -31t132.5 -89.5t80.5 -151.5t8.5 -208q-32 -229 -184.5 -368.5t-371.5 -139.5z" />
    <glyph glyph-name="six.osf" horiz-adv-x="1169" 
d="M530 -23q-231 0 -339.5 197.5t-59.5 546.5q33 237 115.5 410.5t214.5 271.5t301 98q164 0 270 -97t110 -265h-119q-14 115 -86 182t-189 67q-204 0 -331 -185.5t-162 -546.5q54 135 170.5 220t251.5 85q204 0 309 -128t74 -350q-32 -228 -174.5 -367t-355.5 -139zM550 93
q142 0 246.5 106.5t128.5 277.5q25 172 -44.5 270.5t-228.5 98.5q-131 0 -246.5 -96t-135.5 -230q-28 -185 49.5 -306t230.5 -121z" />
    <glyph glyph-name="seven.osf" horiz-adv-x="1134" 
d="M270 0q51 159 146.5 369t255.5 485.5t337 508.5h-793l17 118h936l-18 -118q-225 -285 -452 -707t-296 -656h-133z" />
    <glyph glyph-name="eight.osf" horiz-adv-x="1232" 
d="M538 -23q-232 0 -356 114.5t-97 303.5q19 128 122.5 241t218.5 135q-100 45 -148.5 129t-31.5 205q26 184 168 290t338 106q198 0 309 -106t85 -290q-17 -121 -89 -205.5t-184 -128.5q70 -14 129.5 -70.5t89.5 -139t18 -166.5q-26 -189 -182.5 -303.5t-389.5 -114.5z
M657 831q145 0 243 74t117 204t-59 207.5t-222 77.5q-143 0 -241.5 -77.5t-117.5 -207.5q-18 -129 59 -203.5t221 -74.5zM554 89q172 0 286.5 83t134.5 220q20 138 -72 226.5t-263 88.5q-169 0 -285.5 -88.5t-136.5 -226.5q-19 -137 73 -220t263 -83z" />
    <glyph glyph-name="nine.osf" horiz-adv-x="1176" 
d="M467 -23q-165 0 -274 97t-115 263h123q11 -111 86.5 -178.5t193.5 -67.5q207 0 339.5 182.5t169.5 550.5q-53 -138 -170 -223.5t-255 -85.5q-205 0 -310.5 127.5t-74.5 351.5q32 229 174 368t354 139q231 0 339 -197t58 -546q-52 -365 -218 -573t-420 -208zM586 632
q86 0 169 42.5t141.5 118.5t70.5 165q29 185 -48.5 306.5t-229.5 121.5q-142 0 -245.5 -107t-127.5 -279q-24 -171 43.5 -269.5t226.5 -98.5z" />
    <glyph glyph-name="zero.tf" horiz-adv-x="1433" 
d="M638 -23q-221 0 -320 192.5t-46 564.5q53 375 207.5 571t374.5 196t319.5 -195t46.5 -569q-53 -373 -206.5 -566.5t-375.5 -193.5zM658 96q165 0 271.5 155t152.5 486q46 334 -17 490.5t-227 156.5q-341 0 -431 -647q-89 -641 251 -641z" />
    <glyph glyph-name="one.tf" horiz-adv-x="1433" 
d="M171 0l16 121h437l159 1219l-438 -182l17 129l480 196h88l-179 -1362h435l-17 -121h-998z" />
    <glyph glyph-name="two.tf" horiz-adv-x="1433" 
d="M213 0l14 98l7 52q12 86 47.5 158.5t85.5 126t112 100t128.5 85t133 75.5t127.5 78t110.5 86t83 105.5t43.5 131.5q18 128 -54.5 206t-212.5 78q-150 0 -252 -89.5t-130 -234.5h-127q15 92 58 172t109.5 141t160.5 96.5t204 35.5q196 0 298 -111.5t76 -294.5
q-12 -86 -47.5 -158.5t-85 -125t-111 -98.5t-127.5 -83.5t-132 -73.5t-126.5 -76.5t-109 -85t-82 -104.5t-43.5 -131l-5 -38h745l-17 -121h-881z" />
    <glyph glyph-name="three.tf" horiz-adv-x="1433" 
d="M617 -23q-198 2 -312.5 120.5t-95.5 310.5h128q-1 -145 80.5 -228.5t224.5 -83.5q166 0 279 84t133 219q15 101 -29 174t-126.5 107.5t-193.5 35.5l-120 1l16 118l118 1q149 1 264.5 87t132.5 202q15 106 -61.5 183t-230.5 77q-83 0 -159.5 -34t-136.5 -109t-76 -179
h-127q28 196 176.5 317t338.5 121q208 0 321.5 -101t88.5 -273q-15 -112 -97.5 -202.5t-220.5 -140.5q142 -43 209 -142.5t48 -239.5q-28 -193 -186.5 -310t-385.5 -115z" />
    <glyph glyph-name="four.tf" horiz-adv-x="1433" 
d="M783 0l58 407h-658l20 132l783 942h129l-133 -955h236l-18 -119h-237l-57 -407h-123zM324 526h529l109 769z" />
    <glyph glyph-name="five.tf" horiz-adv-x="1433" 
d="M637 -23q-185 0 -311 110t-149 289l124 30q28 -143 118.5 -228.5t229.5 -85.5q162 0 274 103.5t137 285.5q23 165 -62.5 267t-225.5 102q-107 0 -187 -34.5t-172 -137.5q-5 -3 -10 1l-116 21l172 781h794l-18 -118h-679l-117 -547q139 149 366 149q90 0 166.5 -31
t132.5 -89.5t80.5 -151.5t8.5 -208q-32 -229 -184.5 -368.5t-371.5 -139.5z" />
    <glyph glyph-name="six.tf" horiz-adv-x="1433" 
d="M649 -23q-231 0 -340 197.5t-59 546.5q33 237 115.5 410.5t214.5 271.5t301 98q164 0 270 -97t110 -265h-120q-13 114 -85.5 181.5t-190.5 67.5q-204 0 -330 -185.5t-161 -546.5q54 135 170 220t252 85q204 0 309 -128t74 -350q-32 -228 -175 -367t-355 -139zM668 93
q143 0 246.5 106t128.5 278t-44 270.5t-228 98.5q-131 0 -246.5 -96t-135.5 -230q-29 -185 48.5 -306t230.5 -121z" />
    <glyph glyph-name="seven.tf" horiz-adv-x="1433" 
d="M355 0q67 211 301.5 596t523.5 767h-899l16 118h1046l-16 -118q-255 -325 -512.5 -740.5t-315.5 -622.5h-144z" />
    <glyph glyph-name="eight.tf" horiz-adv-x="1433" 
d="M643 -23q-232 0 -356 114.5t-98 303.5q18 128 122.5 241t218.5 135q-100 45 -148.5 129t-31.5 205q26 184 168 290t338 106q198 0 309 -106t85 -290q-17 -121 -88 -205t-183 -129q70 -14 128.5 -70.5t89 -139t18.5 -166.5q-27 -189 -183 -303.5t-389 -114.5zM763 831
q145 0 242.5 74t115.5 204q19 130 -58.5 207.5t-221.5 77.5q-143 0 -242 -77.5t-117 -207.5q-19 -129 58.5 -203.5t222.5 -74.5zM658 89q172 0 287 83t135 220q20 138 -72.5 226.5t-263.5 88.5q-169 0 -285 -88.5t-136 -226.5q-19 -137 73 -220t262 -83z" />
    <glyph glyph-name="nine.tf" horiz-adv-x="1433" 
d="M602 -23q-165 0 -274 97t-115 263h123q11 -111 86.5 -178.5t193.5 -67.5q207 0 339.5 182.5t169.5 550.5q-53 -138 -170 -223.5t-255 -85.5q-205 0 -310.5 127.5t-73.5 351.5q31 229 172.5 368t354.5 139q231 0 339 -197t58 -546q-52 -365 -218 -573t-420 -208zM721 632
q86 0 169 42.5t141.5 118.5t70.5 165q29 185 -48.5 306.5t-229.5 121.5q-142 0 -245 -107t-127 -279t43 -270t226 -98z" />
    <glyph glyph-name="zero.subs" horiz-adv-x="707" 
d="M231 -362q-139 0 -201 121t-29 355q33 236 130.5 359t236.5 123q137 0 199.5 -122t29.5 -358q-33 -235 -130 -356.5t-236 -121.5zM244 -288q210 0 267 404q57 406 -155 406q-213 0 -270 -406q-57 -404 158 -404z" />
    <glyph glyph-name="one.subs" horiz-adv-x="447" 
d="M98 -338l109 766h-174l9 62q115 0 158 23t53 81h58l-133 -932h-80z" />
    <glyph glyph-name="two.subs" horiz-adv-x="678" 
d="M-46 -338l9 62l4 32q10 68 43 123.5t79.5 93t100.5 70.5t107.5 63t99 63t78 79.5t40.5 102.5q11 80 -35 129.5t-133 49.5q-94 0 -158.5 -56t-82.5 -147h-79q20 120 109 199.5t225 79.5q124 0 188.5 -70t47.5 -186q-10 -68 -43 -123.5t-79 -92t-99.5 -68.5t-107 -61.5
t-98.5 -62t-77 -78t-40 -102.5l-3 -24h468l-10 -76h-554z" />
    <glyph glyph-name="three.subs" horiz-adv-x="747" 
d="M239 -358q-125 2 -196.5 75.5t-59.5 194.5h79q-1 -91 50.5 -143.5t142.5 -52.5q104 0 175.5 52.5t82.5 138.5q13 95 -49.5 146.5t-169.5 52.5h-76l10 75l75 1q93 0 166 54.5t84 127.5q9 67 -39 115t-144 48q-82 0 -151.5 -53t-84.5 -149h-79q18 123 111 199t213 76
q131 0 202 -63.5t56 -170.5q-9 -71 -61 -128t-140 -88q90 -28 132 -90.5t30 -150.5q-17 -122 -116.5 -195.5t-242.5 -71.5z" />
    <glyph glyph-name="four.subs" horiz-adv-x="737" 
d="M339 -338l36 256h-413l12 83l493 593h81l-84 -601h148l-11 -75h-149l-36 -256h-77zM50 -7h333l69 483z" />
    <glyph glyph-name="five.subs" horiz-adv-x="741" 
d="M258 -358q-117 0 -196 68.5t-93 181.5l78 19q18 -91 74.5 -144t144.5 -53q102 0 172 65t86 180q15 104 -38.5 167.5t-142.5 63.5q-67 0 -117.5 -21t-107.5 -86q-3 -2 -6 0l-73 13l107 492h500l-12 -75h-427l-73 -344q87 94 231 94q118 0 190.5 -79.5t52.5 -222.5
q-20 -145 -116 -232t-234 -87z" />
    <glyph glyph-name="six.subs" horiz-adv-x="716" 
d="M251 -362q-146 0 -214 123.5t-38 343.5q32 227 135 359t262 132q103 0 170 -61t69 -166h-75q-8 71 -53.5 113t-119.5 42q-129 0 -208 -115.5t-102 -343.5q34 85 107 138t159 53q128 0 194.5 -80.5t46.5 -219.5q-21 -144 -110.5 -231t-222.5 -87zM262 -290q90 0 156 67
t81 175t-28 170t-143 62q-84 0 -156.5 -60.5t-84.5 -145.5q-18 -116 30.5 -192t144.5 -76z" />
    <glyph glyph-name="seven.subs" horiz-adv-x="665" 
d="M87 -338q52 163 176.5 403.5t287.5 453.5h-499l11 75h589l-12 -75q-142 -180 -284.5 -445t-184.5 -412h-84z" />
    <glyph glyph-name="eight.subs" horiz-adv-x="778" 
d="M266 -358q-147 0 -224 72t-60 191q11 80 76.5 151t137.5 85q-134 60 -113 209q16 116 104.5 183t212.5 67q125 0 195 -67t54 -183q-22 -149 -171 -209q68 -14 114 -85t35 -151q-17 -120 -115.5 -191.5t-245.5 -71.5zM342 179q92 0 153 46t72 128q11 83 -37 131t-139 48
q-90 0 -152.5 -48.5t-73.5 -130.5t37.5 -128t139.5 -46zM276 -288q108 0 181 52t85 139q11 87 -46.5 142t-164.5 55t-180.5 -55t-84.5 -142q-12 -87 45.5 -139t164.5 -52z" />
    <glyph glyph-name="nine.subs" horiz-adv-x="712" 
d="M211 -362q-104 0 -173 61t-72 165h77q7 -70 54.5 -112.5t121.5 -42.5q131 0 214.5 115t106.5 346q-33 -87 -107 -141t-161 -54q-129 0 -195 81t-46 222q20 144 108.5 231t221.5 87q145 0 213 -124t37 -344q-32 -229 -136 -359.5t-264 -130.5zM285 49q84 0 156 60.5
t84 145.5q18 116 -30.5 192t-144.5 76q-89 0 -154 -66.5t-80 -174.5t27.5 -170.5t141.5 -62.5z" />
    <glyph glyph-name="zero.dnom" horiz-adv-x="708" 
d="M278 -25q-138 0 -200.5 121.5t-30.5 355.5q33 236 131 359t236 123t200 -122t29 -358q-33 -235 -129.5 -357t-235.5 -122zM290 50q210 0 267 404q57 406 -155 406q-213 0 -270 -406q-56 -404 158 -404z" />
    <glyph glyph-name="one.dnom" horiz-adv-x="447" 
d="M146 0l110 766h-174l8 62q115 0 158.5 23t53.5 81h58l-133 -932h-81z" />
    <glyph glyph-name="two.dnom" horiz-adv-x="678" 
d="M-5 0l8 61l5 33q10 68 43 123.5t79.5 93t100.5 70.5t107.5 63t99 63t78 79.5t40.5 102.5q11 80 -35 129.5t-133 49.5q-94 0 -158.5 -56t-82.5 -147h-79q20 120 109 199.5t225 79.5q123 0 188 -70t48 -186q-10 -68 -43 -123.5t-79 -92t-99.5 -68.5t-107 -61.5t-98.5 -62
t-77 -78t-40 -102.5l-3 -24h468l-10 -76h-554z" />
    <glyph glyph-name="three.dnom" horiz-adv-x="749" 
d="M286 -20q-125 2 -197 75.5t-60 194.5h81q-1 -91 50 -143.5t141 -52.5q104 0 175.5 52.5t83.5 138.5q13 95 -49.5 146.5t-170.5 52.5h-76l11 75l74 1q93 0 166.5 54.5t83.5 126.5q9 67 -39 115.5t-144 48.5q-82 0 -151.5 -53t-83.5 -149h-80q18 123 111 199t213 76
q131 0 202 -64t57 -171q-10 -71 -62 -128t-139 -88q90 -28 132 -90t30 -150q-18 -122 -117.5 -195.5t-241.5 -71.5z" />
    <glyph glyph-name="four.dnom" horiz-adv-x="737" 
d="M387 0l36 256h-413l13 83l492 593h81l-84 -601h148l-11 -75h-149l-36 -256h-77zM98 331h333l69 483z" />
    <glyph glyph-name="five.dnom" horiz-adv-x="742" 
d="M305 -20q-117 0 -196 68.5t-93 181.5l77 19q19 -91 75 -144t144 -53q102 0 172 65t86 180q15 104 -38.5 167.5t-141.5 63.5q-68 0 -118.5 -21t-107.5 -86q-3 -2 -6 0l-73 13l108 492h499l-11 -75h-427l-74 -344q90 94 231 94q76 0 135 -33t90.5 -103t17.5 -166
q-20 -145 -116 -232t-233 -87z" />
    <glyph glyph-name="six.dnom" horiz-adv-x="717" 
d="M297 -25q-145 0 -213.5 124.5t-37.5 343.5q31 227 134 359t262 132q103 0 170 -61t70 -166h-76q-8 71 -53.5 113t-119.5 42q-129 0 -208 -116t-101 -344q34 85 106.5 138.5t158.5 53.5q128 0 194.5 -80.5t46.5 -219.5q-20 -143 -110 -231t-223 -88zM309 48q90 0 155.5 67
t80.5 175t-28 170t-143 62q-84 0 -156.5 -60.5t-84.5 -145.5q-18 -116 30.5 -192t145.5 -76z" />
    </font>
</defs>
</svg>
